<svg xmlns="http://www.w3.org/2000/svg" xmlns:xlink="http://www.w3.org/1999/xlink" width="544" height="288" viewBox="0 0 544 288">
  <defs>
    <clipPath id="clip-path">
      <rect id="Rectángulo_32275" data-name="Rectángulo 32275" width="288" height="544" fill="#fff" stroke="#707070" stroke-width="1" opacity="0.325"/>
    </clipPath>
  </defs>
  <g id="Grupo_1033650" data-name="Grupo 1033650" transform="translate(544) rotate(90)">
    <g id="Grupo_67" data-name="Grupo 67" clip-path="url(#clip-path)">
      <path id="Trazado_108698" data-name="Trazado 108698" d="M0,66.267A347.447,347.447,0,0,0,76.727,184.653c103.216,104.976,268.575,143.519,422.1,132.1,79.169-5.889,158.251-23.5,237.16-15.166s161.224,51.636,178.958,122.731c8.97,35.962.357,74.12,9.109,110.127s48.294,71.442,85.274,57.012c30.061-11.733,42.259-50.537,74.324-56.257,28.681-5.115,54.073,21.982,56.959,48.678s-9.266,52.527-18.245,78.058c-23.428,66.591-25.737,140.528,1.263,205.968s84.951,121.1,157.637,142.126c24.453,7.074,50.99,10.223,75.73,4.049,46.653-11.641,77.465-54.439,87.135-97.936s2.5-88.428-2.249-132.608a1197.471,1197.471,0,0,1,17.042-365.325c13.1-64.665,31.44-132.125,10.263-194.959-28.136-83.491-118.512-135.63-207.721-166.1C1072.609-7.353,865.054-7.231,664.351,9.22S263.707,57.629,0,66.267Z" transform="translate(-1054.305 -610.375)" fill="#81d4fa" opacity="0.418"/>
    </g>
  </g>
</svg>
