<svg id="Grupo_1034079" data-name="Grupo 1034079" xmlns="http://www.w3.org/2000/svg" xmlns:xlink="http://www.w3.org/1999/xlink" width="388.984" height="320.471" viewBox="0 0 388.984 320.471">
  <defs>
    <clipPath id="clip-path">
      <rect id="Rectángulo_350681" data-name="Rectángulo 350681" width="388.984" height="320.471" fill="none"/>
    </clipPath>
    <clipPath id="clip-path-4">
      <rect id="Rectángulo_350641" data-name="Rectángulo 350641" width="12.139" height="12.498" fill="#7e5ee3"/>
    </clipPath>
    <clipPath id="clip-path-5">
      <rect id="Rectángulo_350642" data-name="Rectángulo 350642" width="36.885" height="168.864" fill="#12263f"/>
    </clipPath>
    <clipPath id="clip-path-6">
      <rect id="Rectángulo_350643" data-name="Rectángulo 350643" width="6.11" height="48.26" fill="none"/>
    </clipPath>
    <clipPath id="clip-path-7">
      <rect id="Rectángulo_350644" data-name="Rectángulo 350644" width="77.194" height="150.376" fill="#12263f"/>
    </clipPath>
    <clipPath id="clip-path-8">
      <rect id="Rectángulo_350645" data-name="Rectángulo 350645" width="5.539" height="23.654" fill="none"/>
    </clipPath>
    <clipPath id="clip-path-9">
      <rect id="Rectángulo_350646" data-name="Rectángulo 350646" width="50.543" height="140.351" fill="none"/>
    </clipPath>
    <clipPath id="clip-path-11">
      <rect id="Rectángulo_350650" data-name="Rectángulo 350650" width="44.726" height="31.266" fill="none"/>
    </clipPath>
    <clipPath id="clip-path-12">
      <rect id="Rectángulo_350651" data-name="Rectángulo 350651" width="175.892" height="200.644" fill="none"/>
    </clipPath>
    <clipPath id="clip-path-13">
      <rect id="Rectángulo_350652" data-name="Rectángulo 350652" width="78.773" height="31.333" fill="none"/>
    </clipPath>
    <clipPath id="clip-path-14">
      <rect id="Rectángulo_350653" data-name="Rectángulo 350653" width="46.435" height="21.344" fill="none"/>
    </clipPath>
    <clipPath id="clip-path-15">
      <rect id="Rectángulo_350654" data-name="Rectángulo 350654" width="70.12" height="28.661" fill="none"/>
    </clipPath>
    <clipPath id="clip-path-16">
      <rect id="Rectángulo_350655" data-name="Rectángulo 350655" width="97.685" height="37.175" fill="none"/>
    </clipPath>
    <clipPath id="clip-path-17">
      <rect id="Rectángulo_350656" data-name="Rectángulo 350656" width="61.029" height="25.852" fill="none"/>
    </clipPath>
    <clipPath id="clip-path-18">
      <rect id="Rectángulo_350657" data-name="Rectángulo 350657" width="23.442" height="14.241" fill="none"/>
    </clipPath>
    <clipPath id="clip-path-20">
      <rect id="Rectángulo_350659" data-name="Rectángulo 350659" width="63.9" height="26.738" fill="none"/>
    </clipPath>
    <clipPath id="clip-path-21">
      <rect id="Rectángulo_350660" data-name="Rectángulo 350660" width="24.479" height="14.562" fill="none"/>
    </clipPath>
    <clipPath id="clip-path-22">
      <rect id="Rectángulo_350661" data-name="Rectángulo 350661" width="97.685" height="37.176" fill="none"/>
    </clipPath>
    <clipPath id="clip-path-23">
      <rect id="Rectángulo_350666" data-name="Rectángulo 350666" width="118.882" height="70.419" fill="#db8804"/>
    </clipPath>
    <clipPath id="clip-path-24">
      <rect id="Rectángulo_350667" data-name="Rectángulo 350667" width="143.324" height="187.773" fill="none"/>
    </clipPath>
    <clipPath id="clip-path-25">
      <rect id="Rectángulo_350668" data-name="Rectángulo 350668" width="81.839" height="14.554" fill="none"/>
    </clipPath>
    <clipPath id="clip-path-26">
      <rect id="Rectángulo_350669" data-name="Rectángulo 350669" width="48.058" height="12.47" fill="none"/>
    </clipPath>
    <clipPath id="clip-path-27">
      <rect id="Rectángulo_350670" data-name="Rectángulo 350670" width="72.799" height="13.996" fill="none"/>
    </clipPath>
    <clipPath id="clip-path-28">
      <rect id="Rectángulo_350671" data-name="Rectángulo 350671" width="101.595" height="15.772" fill="none"/>
    </clipPath>
    <clipPath id="clip-path-29">
      <rect id="Rectángulo_350672" data-name="Rectángulo 350672" width="63.303" height="13.41" fill="none"/>
    </clipPath>
    <clipPath id="clip-path-30">
      <rect id="Rectángulo_350673" data-name="Rectángulo 350673" width="24.039" height="10.988" fill="none"/>
    </clipPath>
    <clipPath id="clip-path-31">
      <rect id="Rectángulo_350674" data-name="Rectángulo 350674" width="101.594" height="15.772" fill="none"/>
    </clipPath>
    <clipPath id="clip-path-32">
      <rect id="Rectángulo_350675" data-name="Rectángulo 350675" width="66.302" height="13.595" fill="none"/>
    </clipPath>
    <clipPath id="clip-path-33">
      <rect id="Rectángulo_350676" data-name="Rectángulo 350676" width="25.121" height="11.055" fill="none"/>
    </clipPath>
    <clipPath id="clip-path-35">
      <rect id="Rectángulo_350678" data-name="Rectángulo 350678" width="37.897" height="35.003" fill="none"/>
    </clipPath>
    <clipPath id="clip-path-36">
      <rect id="Rectángulo_350679" data-name="Rectángulo 350679" width="302.504" height="183.951" fill="#f7b242"/>
    </clipPath>
  </defs>
  <g id="Grupo_1034078" data-name="Grupo 1034078" clip-path="url(#clip-path)">
    <g id="Grupo_1033962" data-name="Grupo 1033962">
      <g id="Grupo_1033961" data-name="Grupo 1033961" clip-path="url(#clip-path)">
        <path id="Trazado_736065" data-name="Trazado 736065" d="M0,309.148c0,6.254,86.807,11.323,193.889,11.323s193.889-5.069,193.889-11.323-86.807-11.323-193.889-11.323S0,302.895,0,309.148" transform="translate(1.206 0)" fill="#f5f5f5"/>
      </g>
    </g>
    <g id="Grupo_1033991" data-name="Grupo 1033991">
      <g id="Grupo_1033990" data-name="Grupo 1033990" clip-path="url(#clip-path)">
        <path id="Trazado_736066" data-name="Trazado 736066" d="M310.359,54.932c-1.4,4.686-8.622,13.465-9.189,19.861s11.741,16.6,11.741,16.6,9.2-30.754,3.44-34.351-5.992-2.115-5.992-2.115" transform="translate(-230.414 0)" fill="#12263f"/>
        <path id="Trazado_736067" data-name="Trazado 736067" d="M223.668,88.137c2.181,1.82,4.317,3.356,6.548,4.922,2.226,1.536,4.526,2.965,6.866,4.342a77.707,77.707,0,0,0,7.256,3.79c1.256.564,2.511,1.124,3.81,1.619.64.26,1.285.514,1.951.733l2.036.7a13.25,13.25,0,0,0,5.265.376,29.857,29.857,0,0,0,4.358-.838A57.786,57.786,0,0,0,269.564,101a104.545,104.545,0,0,0,14.192-7.551l-1.876-3.484c-2.353.98-4.77,1.972-7.178,2.871-2.4.931-4.819,1.794-7.242,2.544a62.1,62.1,0,0,1-7.192,1.881,23.236,23.236,0,0,1-3.394.407,7.034,7.034,0,0,1-2.519-.265,65.484,65.484,0,0,1-6.685-3.031c-1.1-.588-2.2-1.178-3.283-1.818q-1.641-.922-3.251-1.919c-2.148-1.324-4.25-2.74-6.328-4.191-2.069-1.426-4.157-2.995-6.052-4.466Z" transform="translate(-118.44 0)" fill="#e58a7b"/>
        <path id="Trazado_736068" data-name="Trazado 736068" d="M275.571,77.493c2.485-1.941,12.741,4.41,15.857,7.059l-2.274,13.73S274.407,92.1,273.519,87.875c-.925-4.4.166-8.908,2.052-10.382" transform="translate(-175.628 0)" fill="#7e5ee3"/>
        <path id="Trazado_736070" data-name="Trazado 736070" d="M279.492,119.04c6.02,1.17,18.79,3.66,31.14,6.07,16.09-43.57,12.59-44.98,12.59-44.98a62.532,62.532,0,0,0-7.01-3.3c-.15-.06-.29-.11-.42-.16-1.98-.73-2.4-.84-5.06-1.62-4.58-1.09-8.85-1.98-14.14-2.75-.34-.05-.68-.1-1.01-.14-.96-.12-1.91-.22-2.83-.31-.62-.07-1.24-.11-1.83-.15-.7-.04-1.38-.08-2.02-.11-3.42-.17-5.87-.12-5.87-.12.99,27.19-.55,35-3.54,47.57" transform="translate(-214.052 0)" fill="#7e5ee3"/>
        <path id="Trazado_736072" data-name="Trazado 736072" d="M310.6,58.04c2.026,3.315-5.251,4.844-9.538,1.45-3.438-2.721-2.623-9,.311-10.456,2.83-1.408,9.227,9.006,9.227,9.006" transform="translate(-220.772 0)" fill="#407bff"/>
        <g id="Grupo_1033971" data-name="Grupo 1033971" transform="translate(78.037 48.903)" opacity="0.4">
          <g id="Grupo_1033970" data-name="Grupo 1033970" transform="translate(0)">
            <g id="Grupo_1033969" data-name="Grupo 1033969" clip-path="url(#clip-path-4)">
              <path id="Trazado_736073" data-name="Trazado 736073" d="M310.6,58.04c2.026,3.315-5.251,4.844-9.538,1.45-3.438-2.721-2.623-9,.311-10.456,2.83-1.408,9.227,9.006,9.227,9.006" transform="translate(-298.809 -48.903)" fill="#7e5ee3"/>
            </g>
          </g>
        </g>
        <path id="Trazado_736074" data-name="Trazado 736074" d="M318.828,299.38l7.791.575,2.85-17.929-7.791-.576Z" transform="translate(-259.314 0)" fill="#e58a7b"/>
        <path id="Trazado_736075" data-name="Trazado 736075" d="M366.191,274.317l6.608,4.166,11.773-13.963-6.608-4.167Z" transform="translate(-361.779 0)" fill="#e58a7b"/>
        <path id="Trazado_736076" data-name="Trazado 736076" d="M328.093,282.03l-1.582,9.965-7.68-1.292,1.468-9.248Z" transform="translate(-257.941 0)" fill="#cf6f64"/>
        <path id="Trazado_736077" data-name="Trazado 736077" d="M371.217,260.356l6.611,4.168-4.873,5.775-6.762-3.989Z" transform="translate(-355.037 0)" fill="#cf6f64"/>
        <path id="Trazado_736078" data-name="Trazado 736078" d="M329.759,125.108s.119,61.821-4.938,85.106c-5.26,24.221-20.728,79.317-20.728,79.317l-11.219-1.454s8.77-55.657,12.506-79.723c4.073-26.235,1.574-87.688,1.574-87.688Z" transform="translate(-233.649 0)" fill="#407bff"/>
        <g id="Grupo_1033974" data-name="Grupo 1033974" transform="translate(59.225 120.666)" opacity="0.7">
          <g id="Grupo_1033973" data-name="Grupo 1033973" transform="translate(0)">
            <g id="Grupo_1033972" data-name="Grupo 1033972" clip-path="url(#clip-path-5)">
              <path id="Trazado_736079" data-name="Trazado 736079" d="M329.759,125.108s.119,61.821-4.938,85.106c-5.26,24.221-20.728,79.317-20.728,79.317l-11.219-1.454s8.77-55.657,12.506-79.723c4.073-26.235,1.574-87.688,1.574-87.688Z" transform="translate(-292.874 -120.666)" fill="#12263f"/>
            </g>
          </g>
        </g>
        <g id="Grupo_1033977" data-name="Grupo 1033977" transform="translate(73.371 142.59)" opacity="0.5">
          <g id="Grupo_1033976" data-name="Grupo 1033976" transform="translate(0)">
            <g id="Grupo_1033975" data-name="Grupo 1033975" clip-path="url(#clip-path-6)">
              <path id="Trazado_736080" data-name="Trazado 736080" d="M310.113,148.07l5.5-5.48c-.21,23.75-1.539,35.48-6.109,48.26.73-13.51.78-29.49.609-42.78" transform="translate(-309.504 -142.59)"/>
            </g>
          </g>
        </g>
        <path id="Trazado_736081" data-name="Trazado 736081" d="M377.818,123.506s-16.772,51.1-25.1,80.523c-8.783,31.048-42.442,65.389-42.442,65.389l-9.656-5.577s22.982-32.6,31.458-61.571c17.2-58.814,10.135-71.273,22.818-83.228Z" transform="translate(-289.458 0)" fill="#407bff"/>
        <g id="Grupo_1033980" data-name="Grupo 1033980" transform="translate(11.166 119.042)" opacity="0.7">
          <g id="Grupo_1033979" data-name="Grupo 1033979">
            <g id="Grupo_1033978" data-name="Grupo 1033978" clip-path="url(#clip-path-7)">
              <path id="Trazado_736082" data-name="Trazado 736082" d="M377.818,123.506s-16.772,51.1-25.1,80.523c-8.783,31.048-42.442,65.389-42.442,65.389l-9.656-5.577s22.982-32.6,31.458-61.571c17.2-58.814,10.135-71.273,22.818-83.228Z" transform="translate(-300.624 -119.042)" fill="#12263f"/>
            </g>
          </g>
        </g>
        <path id="Trazado_736083" data-name="Trazado 736083" d="M287.442,39.995c-4.457,1.5-8.506,12.569-8.675,16.927s12.913,10.37,12.913,10.37,5.773-14.036,4.166-22.984c-.7-3.928-8.4-4.313-8.4-4.313" transform="translate(-185.91 0)" fill="#12263f"/>
        <path id="Trazado_736084" data-name="Trazado 736084" d="M219.218,90.34l5.287-5.764,1.73,7.223s-3.762,3.318-6.8,2.185Z" transform="translate(-56.469 0)" fill="#e58a7b"/>
        <path id="Trazado_736085" data-name="Trazado 736085" d="M217.243,82.926l3.705,2.942L213.619,91.8l-1.73-7.223Z" transform="translate(-43.853 0)" fill="#e58a7b"/>
        <path id="Trazado_736086" data-name="Trazado 736086" d="M385.271,276.991l-6.184-6.228a.618.618,0,0,0-.817-.067l-5.633,4.183a1.256,1.256,0,0,0-.1,1.868c2.193,2.134,3.36,3.054,6.079,5.793,1.673,1.685,3.942,4.32,6.252,6.647,2.26,2.276,4.734.167,3.981-1.009-3.379-5.272-2.772-7.238-3-9.922a2.037,2.037,0,0,0-.579-1.265" transform="translate(-372.166 0)" fill="#263238"/>
        <path id="Trazado_736087" data-name="Trazado 736087" d="M319.669,298.843h-8.776a.662.662,0,0,0-.653.534l-1.384,6.943a1.178,1.178,0,0,0,1.175,1.39c3.063-.053,4.548-.233,8.407-.233,2.375,0,7.272.247,10.551.247,3.207,0,3.633-3.242,2.284-3.536-6.049-1.317-8.358-3.132-10.325-4.865a1.937,1.937,0,0,0-1.279-.48" transform="translate(-251.844 0)" fill="#263238"/>
        <g id="Grupo_1033983" data-name="Grupo 1033983" transform="translate(67.264 87.216)" opacity="0.27" style="mix-blend-mode: multiply;isolation: isolate">
          <g id="Grupo_1033982" data-name="Grupo 1033982" transform="translate(0)">
            <g id="Grupo_1033981" data-name="Grupo 1033981" transform="translate(0)" clip-path="url(#clip-path-8)">
              <path id="Trazado_736088" data-name="Trazado 736088" d="M316.918,87.216l4.8,2.861-5.54,20.793c1.21-6.27.668-13.2.738-23.654" transform="translate(-316.18 -87.216)" fill="#407bff"/>
            </g>
          </g>
        </g>
        <path id="Trazado_736089" data-name="Trazado 736089" d="M312.954,54.7c-3.409,2.858-8.361,7.029-14.19,2.158-5.006-4.183-8.5-15.153.463-15.557,4.7-.211,13.727,13.4,13.727,13.4" transform="translate(-217.665 0)" fill="#12263f"/>
        <path id="Trazado_736090" data-name="Trazado 736090" d="M295.967,56.648c.006,4.724-.728,13.234-4.5,15.65,0,0,.345,4.858,8.8,6.5,9.3,1.811,5.341-3.749,5.341-3.749-4.837-2.2-3.973-5.939-2.4-9.3Z" transform="translate(-208.921 0)" fill="#e58a7b"/>
        <path id="Trazado_736091" data-name="Trazado 736091" d="M295.3,60.362l4.284,5.385a14.842,14.842,0,0,0-.925,2.425c-1.884-.658-4.132-3.3-3.942-5.374a6.928,6.928,0,0,1,.583-2.436" transform="translate(-205.302 0)" fill="#cf6f64"/>
        <path id="Trazado_736092" data-name="Trazado 736092" d="M281.815,45.813c-1.013,7.687-1.606,10.919,1.471,15.565,4.628,6.988,14.291,6.551,17.58-.678,2.961-6.506,4.12-17.984-2.726-22.455a10.574,10.574,0,0,0-16.325,7.568" transform="translate(-195.219 0)" fill="#e58a7b"/>
        <path id="Trazado_736093" data-name="Trazado 736093" d="M307.854,32.34c5.2,3.69-5.228,4.777-5.242,10.129-.006,2.208-3.627,9.216-8.79,8.824L288.815,42.4c-5.248-8.513,7.151-18.493,19.039-10.065" transform="translate(-207.901 0)" fill="#12263f"/>
        <path id="Trazado_736094" data-name="Trazado 736094" d="M288.357,32.34c9.15-.482,13.139,6.8,12.094,13.336A59.675,59.675,0,0,0,280.9,44.133c-12.531,1.278,7.453-11.793,7.453-11.793" transform="translate(-188.404 0)" fill="#12263f"/>
        <path id="Trazado_736095" data-name="Trazado 736095" d="M299.735,52.437a5.671,5.671,0,0,0,1.31,4.125c1.292,1.509,3.04.621,3.6-1.175.508-1.617.447-4.351-1.293-5.2a2.545,2.545,0,0,0-3.621,2.254" transform="translate(-215.654 0)" fill="#e58a7b"/>
        <path id="Trazado_736096" data-name="Trazado 736096" d="M289.817,50.181c-.12.618.11,1.184.514,1.262s.83-.358.95-.977-.109-1.183-.514-1.262-.829.359-.95.977" transform="translate(-192.114 0)" fill="#263238"/>
        <path id="Trazado_736097" data-name="Trazado 736097" d="M282.826,51.542c-.12.618.11,1.184.514,1.262s.83-.358.95-.977-.109-1.183-.514-1.262-.829.359-.95.977" transform="translate(-178.132 0)" fill="#263238"/>
        <path id="Trazado_736098" data-name="Trazado 736098" d="M281.956,50.565l1.569-.139s-.988,1.012-1.569.139" transform="translate(-176.497 0)" fill="#263238"/>
        <path id="Trazado_736099" data-name="Trazado 736099" d="M285.758,52.245a16.84,16.84,0,0,0,1.436,4.377,2.709,2.709,0,0,1-2.285-.016Z" transform="translate(-183.119 0)" fill="#df5753"/>
        <path id="Trazado_736100" data-name="Trazado 736100" d="M293.568,58.622a.185.185,0,0,0,.035-.367,4.98,4.98,0,0,1-3.621-2.693.186.186,0,0,0-.344.139,5.283,5.283,0,0,0,3.9,2.918.206.206,0,0,0,.035,0" transform="translate(-194.394 0)" fill="#263238"/>
        <path id="Trazado_736101" data-name="Trazado 736101" d="M289.971,47.523a.365.365,0,0,0,.247-.095,2.939,2.939,0,0,1,2.564-.759.374.374,0,0,0,.452-.263.369.369,0,0,0-.261-.452,3.671,3.671,0,0,0-3.249.923.37.37,0,0,0,.247.646" transform="translate(-193.865 0)" fill="#263238"/>
        <path id="Trazado_736102" data-name="Trazado 736102" d="M282.679,48.946a.379.379,0,0,0,.143-.028.371.371,0,0,0,.2-.484,3.669,3.669,0,0,0-2.535-2.232.363.363,0,0,0-.432.3.37.37,0,0,0,.3.43,2.935,2.935,0,0,1,1.987,1.789.372.372,0,0,0,.342.228" transform="translate(-174.113 0)" fill="#263238"/>
        <path id="Trazado_736103" data-name="Trazado 736103" d="M375.235,280.62a1.062,1.062,0,0,0,.861-.476.629.629,0,0,0,.11-.627c-.349-.935-3.107-1.54-3.42-1.606a.184.184,0,0,0-.19.074.187.187,0,0,0-.007.2c.543.887,1.6,2.381,2.594,2.431h.052m-2.089-2.246c1.1.273,2.529.779,2.713,1.271a.262.262,0,0,1-.058.275.689.689,0,0,1-.6.329c-.535-.026-1.289-.719-2.056-1.875" transform="translate(-359.824 0)" fill="#407bff"/>
        <path id="Trazado_736104" data-name="Trazado 736104" d="M373.514,278.364c.981,0,2.257-.242,2.624-.788a.644.644,0,0,0-.072-.8.962.962,0,0,0-.728-.382c-.025,0-.051,0-.077,0-1.126,0-2.66,1.508-2.726,1.574a.185.185,0,0,0-.049.178.187.187,0,0,0,.129.131,3.553,3.553,0,0,0,.9.094m1.744-1.608.057,0a.6.6,0,0,1,.458.239c.146.189.108.3.057.373-.3.454-1.829.719-2.771.608a4.437,4.437,0,0,1,2.2-1.222" transform="translate(-359.742 0)" fill="#407bff"/>
        <path id="Trazado_736105" data-name="Trazado 736105" d="M318.589,300.209a3.05,3.05,0,0,0,1.91-.475,1.076,1.076,0,0,0,.384-.9.567.567,0,0,0-.282-.494c-.921-.542-4.139,1.057-4.5,1.24a.184.184,0,0,0-.1.19.186.186,0,0,0,.147.157,13.066,13.066,0,0,0,2.445.28m1.478-1.618a.685.685,0,0,1,.346.07.2.2,0,0,1,.1.189.7.7,0,0,1-.254.6c-.5.425-1.786.5-3.491.216a10.608,10.608,0,0,1,3.3-1.076" transform="translate(-247.895 0)" fill="#407bff"/>
        <path id="Trazado_736106" data-name="Trazado 736106" d="M318.02,299.932a.174.174,0,0,0,.074-.016c.978-.429,2.922-2.13,2.782-3.009-.031-.2-.174-.452-.672-.5a1.271,1.271,0,0,0-.15-.008c-1.744,0-2.2,3.187-2.218,3.326a.184.184,0,0,0,.073.173.181.181,0,0,0,.111.037m2.04-3.166c.035,0,.071,0,.107,0,.319.033.338.153.344.193.083.527-1.241,1.86-2.243,2.447.165-.8.667-2.645,1.792-2.645" transform="translate(-249.735 0)" fill="#407bff"/>
        <path id="Trazado_736107" data-name="Trazado 736107" d="M288.947,49.2l1.569-.139s-.988,1.012-1.569.139" transform="translate(-190.479 0)" fill="#263238"/>
        <path id="Trazado_736108" data-name="Trazado 736108" d="M302.148,85.45c16.73,3.73,11.56-6.39,10.56-8.62-.15-.06-.29-.11-.42-.16-1.98-.73-2.4-.84-5.06-1.62a100.712,100.712,0,0,0-14.14-2.75c-.34-.05-.68-.1-1.01-.14-.96-.13-1.91-.23-2.83-.31-.62-.07-1.24-.11-1.83-.15-.7-.05-1.38-.09-2.02-.12v.01c-.31,1.55-1.14,9.89,16.75,13.86" transform="translate(-210.548 0)" fill="#e58a7b"/>
        <path id="Trazado_736109" data-name="Trazado 736109" d="M293.089,117.123l-1.947,2.514c-.151.195.062.465.422.536l32.659,6.361c.281.055.54-.037.593-.21l.823-2.733c.058-.19-.154-.4-.461-.46l-31.536-6.143a.575.575,0,0,0-.553.135" transform="translate(-227.757 0)" fill="#26395a"/>
        <path id="Trazado_736110" data-name="Trazado 736110" d="M319.73,121.474l-.845-.165c-.168-.032-.279-.144-.247-.248l1.1-3.544c.032-.1.2-.162.364-.129l.845.164c.168.033.279.145.247.248l-1.1,3.545c-.032.1-.2.162-.364.129" transform="translate(-250.85 0)" fill="#407bff"/>
        <path id="Trazado_736111" data-name="Trazado 736111" d="M296.08,133.269l6.509-2.415-1,6.188s-4.721,1.7-7.132-.477Z" transform="translate(-208.061 0)" fill="#e58a7b"/>
        <path id="Trazado_736112" data-name="Trazado 736112" d="M293.9,132.493l1.555,4.056-8.751.493,1-6.188Z" transform="translate(-193.18 0)" fill="#e58a7b"/>
        <path id="Trazado_736113" data-name="Trazado 736113" d="M294.575,126.374l-.844-.165c-.168-.032-.279-.144-.247-.248l1.1-3.544c.032-.1.2-.162.364-.129l.845.164c.168.033.279.145.247.248l-1.1,3.545c-.032.1-.2.162-.365.129" transform="translate(-200.542 0)" fill="#407bff"/>
        <path id="Trazado_736114" data-name="Trazado 736114" d="M307.153,123.924l-.845-.165c-.168-.032-.279-.144-.247-.248l1.1-3.544c.032-.1.2-.162.364-.129l.845.164c.168.033.279.145.247.248l-1.1,3.545c-.033.1-.2.162-.365.129" transform="translate(-225.696 0)" fill="#407bff"/>
        <path id="Trazado_736115" data-name="Trazado 736115" d="M296.5,68.334c-.715-.275-1.6,2.231-1.381,2.548.513.733,9.854,3.281,10.267,1.85a6.2,6.2,0,0,0-.347-2.283c-.268-.481-2.339.4-8.539-2.115" transform="translate(-211.481 0)" fill="#7e5ee3"/>
        <path id="Trazado_736116" data-name="Trazado 736116" d="M305.567,68.387c-.367-.825-1.4-2.157-2.293-1.4s-1.278,2.4-.692,2.664,3.6.12,2.985-1.268" transform="translate(-218.968 0)" fill="#7e5ee3"/>
        <path id="Trazado_736117" data-name="Trazado 736117" d="M307.05,68.818c-.622-.655-2.04-1.564-2.628-.548s-.4,2.693.24,2.743,3.435-1.093,2.388-2.195" transform="translate(-222.366 0)" fill="#7e5ee3"/>
        <path id="Trazado_736118" data-name="Trazado 736118" d="M308.88,68.672A2.768,2.768,0,0,0,307.488,66c-1.133-.741-2.244-1.218-2.689-1.98a5.477,5.477,0,0,0-.108,2.241c.228,1.066,3.779,1.883,3.539,2.821Z" transform="translate(-224.536 0)" fill="#7e5ee3"/>
        <path id="Trazado_736119" data-name="Trazado 736119" d="M306.149,68.619a2.767,2.767,0,0,0,.286-3c-.547-1.239-1.22-2.244-1.179-3.125a5.479,5.479,0,0,0-1.31,1.822c-.388,1.018,2.146,3.636,1.435,4.292Z" transform="translate(-221.657 0)" fill="#7e5ee3"/>
        <path id="Trazado_736120" data-name="Trazado 736120" d="M323.75,263.965a.126.126,0,0,0,.1-.053c.23-.326,23.09-32.946,31.476-61.607a421.84,421.84,0,0,0,12.6-56.073c1.729-10.684,2.773-17.133,6.22-22.425a.125.125,0,1,0-.209-.136c-3.476,5.336-4.523,11.8-6.257,22.521a421.8,421.8,0,0,1-12.593,56.043c-8.373,28.621-31.21,61.208-31.441,61.533a.127.127,0,0,0,.031.175.135.135,0,0,0,.072.022" transform="translate(-308.808 0)" fill="#407bff"/>
        <g id="Grupo_1033986" data-name="Grupo 1033986" transform="translate(14.817 123.614)" opacity="0.4">
          <g id="Grupo_1033985" data-name="Grupo 1033985" transform="translate(0)">
            <g id="Grupo_1033984" data-name="Grupo 1033984" clip-path="url(#clip-path-9)">
              <path id="Trazado_736121" data-name="Trazado 736121" d="M323.75,263.965a.126.126,0,0,0,.1-.053c.23-.326,23.09-32.946,31.476-61.607a421.84,421.84,0,0,0,12.6-56.073c1.729-10.684,2.773-17.133,6.22-22.425a.125.125,0,1,0-.209-.136c-3.476,5.336-4.523,11.8-6.257,22.521a421.8,421.8,0,0,1-12.593,56.043c-8.373,28.621-31.21,61.208-31.441,61.533a.127.127,0,0,0,.031.175.135.135,0,0,0,.072.022" transform="translate(-323.625 -123.614)"/>
            </g>
          </g>
        </g>
        <path id="Trazado_736122" data-name="Trazado 736122" d="M315.5,288.043l15.272,1.979,1.009-4.258-15.916-3.375Z" transform="translate(-258.306 0)" fill="#407bff"/>
        <path id="Trazado_736123" data-name="Trazado 736123" d="M363.557,263.5l11.27,6.51,3.8-3.255-12.333-8.331Z" transform="translate(-353.197 0)" fill="#407bff"/>
        <path id="Trazado_736124" data-name="Trazado 736124" d="M300.938,82.035c-.542,2.789-.857,5.4-1.153,8.11-.271,2.691-.413,5.395-.491,8.109a78.334,78.334,0,0,0,.181,8.185c.112,1.371.227,2.741.42,4.118.081.686.17,1.373.3,2.062l.372,2.12a13.239,13.239,0,0,0,2.21,4.793,29.81,29.81,0,0,0,2.837,3.413,57.621,57.621,0,0,0,6.2,5.5,104.423,104.423,0,0,0,13.461,8.788l2.147-3.323c-1.994-1.589-4.029-3.228-5.978-4.9-1.974-1.653-3.9-3.355-5.722-5.115A62.031,62.031,0,0,1,310.6,118.5a23.074,23.074,0,0,1-1.994-2.777,7.031,7.031,0,0,1-.984-2.334,65.6,65.6,0,0,1-.569-7.318c-.017-1.248-.032-2.5.008-3.753.01-1.255.05-2.513.112-3.773.124-2.521.35-5.044.618-7.565.251-2.5.619-5.086.993-7.455Z" transform="translate(-237.69 0)" fill="#e58a7b"/>
        <path id="Trazado_736125" data-name="Trazado 736125" d="M316.745,73.535c-4.275,3.466-3.256,13.74-3.256,13.74l14.4,4.742s-.659-11.847-1.372-16.108c-.847-5.065-5.567-5.782-9.771-2.374" transform="translate(-252.287 0)" fill="#7e5ee3"/>
      </g>
    </g>
    <g id="Grupo_1034077" data-name="Grupo 1034077">
      <g id="Grupo_1034076" data-name="Grupo 1034076" clip-path="url(#clip-path)">
        <path id="Trazado_736127" data-name="Trazado 736127" d="M206.787,116.44h0a11,11,0,0,1,10.717-8.532h80.049a11,11,0,0,1,11,11V296.727a11,11,0,0,1-11,11H43.53a11,11,0,0,1-11-11V147.363a11,11,0,0,1,11-11H181.756a25.685,25.685,0,0,0,25.031-19.926" transform="translate(47.901 0)" fill="#e5a237"/>
        <g id="Grupo_1033997" data-name="Grupo 1033997" transform="translate(238.201 61.063)" opacity="0.22">
          <g id="Grupo_1033996" data-name="Grupo 1033996">
            <g id="Grupo_1033995" data-name="Grupo 1033995" clip-path="url(#clip-path-11)">
              <path id="Trazado_736129" data-name="Trazado 736129" d="M150.782,61.064,143.65,84.153a11.6,11.6,0,0,1-14.512,7.656l-23.081-7.13Z" transform="translate(-106.056 -61.063)" fill="#407bff"/>
            </g>
          </g>
        </g>
        <path id="Trazado_736130" data-name="Trazado 736130" d="M100.592,61.064l82.5,25.485a11.6,11.6,0,0,1,7.659,14.5L143.65,253.53a11.6,11.6,0,0,1-14.505,7.658L23.556,228.571a11.6,11.6,0,0,1-7.658-14.5L55.867,84.679Z" transform="translate(182.335 0)" fill="#407bff"/>
        <g id="Grupo_1034000" data-name="Grupo 1034000" transform="translate(197.713 61.063)" opacity="0.8">
          <g id="Grupo_1033999" data-name="Grupo 1033999" transform="translate(0)">
            <g id="Grupo_1033998" data-name="Grupo 1033998" clip-path="url(#clip-path-12)">
              <path id="Trazado_736131" data-name="Trazado 736131" d="M100.592,61.064l82.5,25.485a11.6,11.6,0,0,1,7.659,14.5L143.65,253.53a11.6,11.6,0,0,1-14.505,7.658L23.556,228.571a11.6,11.6,0,0,1-7.658-14.5L55.867,84.679Z" transform="translate(-15.378 -61.063)" fill="#fff"/>
            </g>
          </g>
        </g>
        <g id="Grupo_1034003" data-name="Grupo 1034003" transform="translate(234.963 212.036)" opacity="0.28">
          <g id="Grupo_1034002" data-name="Grupo 1034002" transform="translate(0)">
            <g id="Grupo_1034001" data-name="Grupo 1034001" clip-path="url(#clip-path-13)">
              <path id="Trazado_736132" data-name="Trazado 736132" d="M78.817,221.939l68.644,21.2a5.065,5.065,0,1,0,2.99-9.679l-68.644-21.2a5.065,5.065,0,0,0-2.99,9.679" transform="translate(-75.248 -212.036)" fill="#407bff"/>
            </g>
          </g>
        </g>
        <g id="Grupo_1034006" data-name="Grupo 1034006" transform="translate(308.831 87.581)" opacity="0.28">
          <g id="Grupo_1034005" data-name="Grupo 1034005" transform="translate(0)">
            <g id="Grupo_1034004" data-name="Grupo 1034004" clip-path="url(#clip-path-14)">
              <path id="Trazado_736133" data-name="Trazado 736133" d="M37.288,97.485,73.595,108.7a5.065,5.065,0,0,0,2.99-9.679L40.278,87.806a5.065,5.065,0,1,0-2.99,9.679" transform="translate(-33.719 -87.581)" fill="#407bff"/>
            </g>
          </g>
        </g>
        <g id="Grupo_1034009" data-name="Grupo 1034009" transform="translate(279.214 99.471)" opacity="0.28">
          <g id="Grupo_1034008" data-name="Grupo 1034008">
            <g id="Grupo_1034007" data-name="Grupo 1034007" clip-path="url(#clip-path-15)">
              <path id="Trazado_736134" data-name="Trazado 736134" d="M43.22,109.375l59.991,18.532a5.065,5.065,0,1,0,2.99-9.679L46.21,99.7a5.065,5.065,0,1,0-2.99,9.679" transform="translate(-39.651 -99.471)" fill="#407bff"/>
            </g>
          </g>
        </g>
        <g id="Grupo_1034012" data-name="Grupo 1034012" transform="translate(245.716 110.163)" opacity="0.28">
          <g id="Grupo_1034011" data-name="Grupo 1034011" transform="translate(0)">
            <g id="Grupo_1034010" data-name="Grupo 1034010" clip-path="url(#clip-path-16)">
              <path id="Trazado_736135" data-name="Trazado 736135" d="M49.153,120.066l87.556,27.047a5.065,5.065,0,0,0,2.99-9.679L52.144,110.387a5.065,5.065,0,1,0-2.991,9.679" transform="translate(-45.584 -110.163)" fill="#407bff"/>
            </g>
          </g>
        </g>
        <g id="Grupo_1034015" data-name="Grupo 1034015" transform="translate(239.783 129.369)" opacity="0.28">
          <g id="Grupo_1034014" data-name="Grupo 1034014" transform="translate(0)">
            <g id="Grupo_1034013" data-name="Grupo 1034013" clip-path="url(#clip-path-17)">
              <path id="Trazado_736136" data-name="Trazado 736136" d="M91.741,139.273,142.641,155a5.065,5.065,0,1,0,2.99-9.679l-50.9-15.723a5.065,5.065,0,1,0-2.99,9.679" transform="translate(-88.171 -129.369)" fill="#407bff"/>
            </g>
          </g>
        </g>
        <g id="Grupo_1034018" data-name="Grupo 1034018" transform="translate(314.025 152.303)" opacity="0.28">
          <g id="Grupo_1034017" data-name="Grupo 1034017" transform="translate(0)">
            <g id="Grupo_1034016" data-name="Grupo 1034016" clip-path="url(#clip-path-18)">
              <path id="Trazado_736137" data-name="Trazado 736137" d="M55.086,162.206,68.4,166.319a5.065,5.065,0,0,0,2.99-9.679l-13.313-4.113a5.065,5.065,0,0,0-2.991,9.679" transform="translate(-51.517 -152.303)" fill="#407bff"/>
            </g>
          </g>
        </g>
        <g id="Grupo_1034021" data-name="Grupo 1034021" transform="translate(233.85 148.575)" opacity="0.28">
          <g id="Grupo_1034020" data-name="Grupo 1034020" transform="translate(0)">
            <g id="Grupo_1034019" data-name="Grupo 1034019" transform="translate(0)" clip-path="url(#clip-path-16)">
              <path id="Trazado_736138" data-name="Trazado 736138" d="M61.019,158.479l87.556,27.047a5.065,5.065,0,0,0,2.99-9.679L64.009,148.8a5.065,5.065,0,1,0-2.99,9.679" transform="translate(-57.449 -148.575)" fill="#407bff"/>
            </g>
          </g>
        </g>
        <g id="Grupo_1034024" data-name="Grupo 1034024" transform="translate(261.702 178.218)" opacity="0.28">
          <g id="Grupo_1034023" data-name="Grupo 1034023" transform="translate(0)">
            <g id="Grupo_1034022" data-name="Grupo 1034022" transform="translate(0)" clip-path="url(#clip-path-20)">
              <path id="Trazado_736139" data-name="Trazado 736139" d="M66.952,188.121l53.771,16.61a5.065,5.065,0,0,0,2.99-9.679l-53.771-16.61a5.065,5.065,0,1,0-2.99,9.679" transform="translate(-63.382 -178.218)" fill="#407bff"/>
            </g>
          </g>
        </g>
        <g id="Grupo_1034027" data-name="Grupo 1034027" transform="translate(227.917 167.781)" opacity="0.28">
          <g id="Grupo_1034026" data-name="Grupo 1034026" transform="translate(0)">
            <g id="Grupo_1034025" data-name="Grupo 1034025" clip-path="url(#clip-path-21)">
              <path id="Trazado_736140" data-name="Trazado 736140" d="M140.157,177.685l14.35,4.433a5.065,5.065,0,1,0,2.99-9.679l-14.35-4.433a5.065,5.065,0,1,0-2.99,9.679" transform="translate(-136.587 -167.781)" fill="#407bff"/>
            </g>
          </g>
        </g>
        <g id="Grupo_1034030" data-name="Grupo 1034030" transform="translate(221.984 186.987)" opacity="0.28">
          <g id="Grupo_1034029" data-name="Grupo 1034029">
            <g id="Grupo_1034028" data-name="Grupo 1034028" clip-path="url(#clip-path-22)">
              <path id="Trazado_736141" data-name="Trazado 736141" d="M72.885,196.891l87.556,27.046a5.065,5.065,0,0,0,2.99-9.679L75.875,187.212a5.065,5.065,0,1,0-2.99,9.679" transform="translate(-69.315 -186.987)" fill="#407bff"/>
            </g>
          </g>
        </g>
        <path id="Trazado_736142" data-name="Trazado 736142" d="M68.944,3.716,42.756,62.056a6.315,6.315,0,0,0,3.166,8.323l111.06,49.854a6.316,6.316,0,0,0,8.323-3.166l26.188-58.34a6.306,6.306,0,0,0-3.166-8.323L77.267.55a6.305,6.305,0,0,0-8.323,3.166" transform="translate(154.735 0)" fill="#ff9d00"/>
        <rect id="Rectángulo_350663" data-name="Rectángulo 350663" width="3.888" height="1" transform="translate(244.323 3.34) rotate(-155.845)" fill="#407bff"/>
        <rect id="Rectángulo_350664" data-name="Rectángulo 350664" width="12.125" height="1" transform="translate(260.36 10.537) rotate(-155.845)" fill="#407bff"/>
        <rect id="Rectángulo_350665" data-name="Rectángulo 350665" width="1" height="7.4" transform="translate(344.202 71.784) rotate(-155.821)" fill="#407bff"/>
        <g id="Grupo_1034036" data-name="Grupo 1034036" transform="translate(227.399)" opacity="0.6">
          <g id="Grupo_1034035" data-name="Grupo 1034035" transform="translate(0)">
            <g id="Grupo_1034034" data-name="Grupo 1034034" clip-path="url(#clip-path-23)">
              <path id="Trazado_736144" data-name="Trazado 736144" d="M42.7.336l28.635,56.1a25.637,25.637,0,0,0,29.3,13.151L161.585,53.7a6.3,6.3,0,0,0-3.219-3.3L47.306.55A6.3,6.3,0,0,0,42.7.336" transform="translate(-42.703 0)" fill="#db8804"/>
            </g>
          </g>
        </g>
        <path id="Trazado_736145" data-name="Trazado 736145" d="M150.147,72.144,236.33,77.46a11.6,11.6,0,0,1,10.862,12.29l-9.825,159.283a11.6,11.6,0,0,1-12.29,10.862l-110.3-6.8a11.6,11.6,0,0,1-10.862-12.29l8.337-135.164Z" transform="translate(37.879 0)" fill="#407bff"/>
        <g id="Grupo_1034039" data-name="Grupo 1034039" transform="translate(141.77 72.144)" opacity="0.8">
          <g id="Grupo_1034038" data-name="Grupo 1034038">
            <g id="Grupo_1034037" data-name="Grupo 1034037" clip-path="url(#clip-path-24)">
              <path id="Trazado_736146" data-name="Trazado 736146" d="M150.147,72.144,236.33,77.46a11.6,11.6,0,0,1,10.862,12.29l-9.825,159.283a11.6,11.6,0,0,1-12.29,10.862l-110.3-6.8a11.6,11.6,0,0,1-10.862-12.29l8.337-135.164Z" transform="translate(-103.891 -72.144)" fill="#fff"/>
            </g>
          </g>
        </g>
        <g id="Grupo_1034042" data-name="Grupo 1034042" transform="translate(178.059 228.831)" opacity="0.22">
          <g id="Grupo_1034041" data-name="Grupo 1034041" transform="translate(0)">
            <g id="Grupo_1034040" data-name="Grupo 1034040" clip-path="url(#clip-path-25)">
              <path id="Trazado_736147" data-name="Trazado 736147" d="M133.84,238.952l71.709,4.423a5.065,5.065,0,1,0,.623-10.111l-71.708-4.423a5.065,5.065,0,1,0-.624,10.111" transform="translate(-129.087 -228.831)" fill="#407bff"/>
            </g>
          </g>
        </g>
        <g id="Grupo_1034045" data-name="Grupo 1034045" transform="translate(220.503 90.469)" opacity="0.22">
          <g id="Grupo_1034044" data-name="Grupo 1034044" transform="translate(0)">
            <g id="Grupo_1034043" data-name="Grupo 1034043" clip-path="url(#clip-path-26)">
              <path id="Trazado_736148" data-name="Trazado 736148" d="M125.177,100.59l37.928,2.339a5.065,5.065,0,1,0,.623-10.111L125.8,90.479a5.065,5.065,0,1,0-.624,10.111" transform="translate(-120.424 -90.469)" fill="#407bff"/>
            </g>
          </g>
        </g>
        <g id="Grupo_1034048" data-name="Grupo 1034048" transform="translate(194.524 109.007)" opacity="0.22">
          <g id="Grupo_1034047" data-name="Grupo 1034047" transform="translate(0)">
            <g id="Grupo_1034046" data-name="Grupo 1034046" transform="translate(0)" clip-path="url(#clip-path-27)">
              <path id="Trazado_736149" data-name="Trazado 736149" d="M126.415,119.128l62.669,3.866a5.065,5.065,0,0,0,.624-10.111l-62.669-3.866a5.065,5.065,0,1,0-.624,10.111" transform="translate(-121.662 -109.007)" fill="#407bff"/>
            </g>
          </g>
        </g>
        <g id="Grupo_1034051" data-name="Grupo 1034051" transform="translate(164.491 127.294)" opacity="0.22">
          <g id="Grupo_1034050" data-name="Grupo 1034050" transform="translate(0)">
            <g id="Grupo_1034049" data-name="Grupo 1034049" clip-path="url(#clip-path-28)">
              <path id="Trazado_736150" data-name="Trazado 736150" d="M127.652,137.415l91.464,5.642a5.065,5.065,0,1,0,.624-10.111L128.276,127.3a5.065,5.065,0,1,0-.624,10.111" transform="translate(-122.899 -127.294)" fill="#407bff"/>
            </g>
          </g>
        </g>
        <g id="Grupo_1034054" data-name="Grupo 1034054" transform="translate(163.253 147.358)" opacity="0.22">
          <g id="Grupo_1034053" data-name="Grupo 1034053" transform="translate(0)">
            <g id="Grupo_1034052" data-name="Grupo 1034052" clip-path="url(#clip-path-29)">
              <path id="Trazado_736151" data-name="Trazado 736151" d="M167.181,157.479l53.172,3.28a5.065,5.065,0,1,0,.624-10.111l-53.172-3.28a5.065,5.065,0,1,0-.624,10.111" transform="translate(-162.427 -147.358)" fill="#407bff"/>
            </g>
          </g>
        </g>
        <g id="Grupo_1034057" data-name="Grupo 1034057" transform="translate(240.809 152.142)" opacity="0.22">
          <g id="Grupo_1034056" data-name="Grupo 1034056" transform="translate(0)">
            <g id="Grupo_1034055" data-name="Grupo 1034055" transform="translate(0)" clip-path="url(#clip-path-30)">
              <path id="Trazado_736152" data-name="Trazado 736152" d="M128.889,162.263l13.908.858a5.065,5.065,0,1,0,.624-10.111l-13.908-.858a5.065,5.065,0,1,0-.624,10.111" transform="translate(-124.135 -152.142)" fill="#407bff"/>
            </g>
          </g>
        </g>
        <g id="Grupo_1034060" data-name="Grupo 1034060" transform="translate(162.016 167.422)" opacity="0.22">
          <g id="Grupo_1034059" data-name="Grupo 1034059" transform="translate(0)">
            <g id="Grupo_1034058" data-name="Grupo 1034058" clip-path="url(#clip-path-31)">
              <path id="Trazado_736153" data-name="Trazado 736153" d="M130.127,177.542l91.464,5.642a5.065,5.065,0,1,0,.624-10.111l-91.464-5.642a5.065,5.065,0,1,0-.624,10.111" transform="translate(-125.374 -167.422)" fill="#407bff"/>
            </g>
          </g>
        </g>
        <g id="Grupo_1034063" data-name="Grupo 1034063" transform="translate(196.071 189.662)" opacity="0.22">
          <g id="Grupo_1034062" data-name="Grupo 1034062" transform="translate(0)">
            <g id="Grupo_1034061" data-name="Grupo 1034061" clip-path="url(#clip-path-32)">
              <path id="Trazado_736154" data-name="Trazado 736154" d="M131.363,199.783l56.172,3.465a5.065,5.065,0,1,0,.623-10.111l-56.17-3.465a5.065,5.065,0,0,0-.625,10.111" transform="translate(-126.61 -189.662)" fill="#407bff"/>
            </g>
          </g>
        </g>
        <g id="Grupo_1034066" data-name="Grupo 1034066" transform="translate(160.778 187.485)" opacity="0.22">
          <g id="Grupo_1034065" data-name="Grupo 1034065" transform="translate(0)">
            <g id="Grupo_1034064" data-name="Grupo 1034064" clip-path="url(#clip-path-33)">
              <path id="Trazado_736155" data-name="Trazado 736155" d="M207.838,197.606l14.991.925a5.065,5.065,0,1,0,.623-10.111l-14.99-.925a5.065,5.065,0,1,0-.624,10.111" transform="translate(-203.084 -187.485)" fill="#407bff"/>
            </g>
          </g>
        </g>
        <g id="Grupo_1034069" data-name="Grupo 1034069" transform="translate(159.541 207.549)" opacity="0.22">
          <g id="Grupo_1034068" data-name="Grupo 1034068">
            <g id="Grupo_1034067" data-name="Grupo 1034067" clip-path="url(#clip-path-31)">
              <path id="Trazado_736156" data-name="Trazado 736156" d="M132.6,217.669l91.464,5.642a5.065,5.065,0,1,0,.624-10.111l-91.464-5.642a5.065,5.065,0,1,0-.624,10.111" transform="translate(-127.849 -207.549)" fill="#407bff"/>
            </g>
          </g>
        </g>
        <g id="Grupo_1034072" data-name="Grupo 1034072" transform="translate(150.129 72.144)" opacity="0.22">
          <g id="Grupo_1034071" data-name="Grupo 1034071">
            <g id="Grupo_1034070" data-name="Grupo 1034070" clip-path="url(#clip-path-35)">
              <path id="Trazado_736157" data-name="Trazado 736157" d="M238.855,72.144l-1.488,24.119a11.6,11.6,0,0,1-12.3,10.862l-24.112-1.488Z" transform="translate(-200.958 -72.144)" fill="#407bff"/>
            </g>
          </g>
        </g>
        <g id="Grupo_1034075" data-name="Grupo 1034075" transform="translate(47.818 123.773)" opacity="0.5">
          <g id="Grupo_1034074" data-name="Grupo 1034074">
            <g id="Grupo_1034073" data-name="Grupo 1034073" clip-path="url(#clip-path-36)">
              <path id="Trazado_736158" data-name="Trazado 736158" d="M207.088,132.305h0a8.655,8.655,0,0,1,9.051-8.532h80.049a14.022,14.022,0,0,1,13.144,11l31.624,161.957c1.186,6.074-2.776,11-8.849,11H78.084a14.022,14.022,0,0,1-13.144-11l-26.068-133.5c-1.186-6.074,2.777-11,8.85-11H185.948c11.967,0,20.734-8.264,21.14-19.926" transform="translate(-38.662 -123.773)" fill="#f7b242"/>
            </g>
          </g>
        </g>
      </g>
    </g>
  </g>
</svg>
