<svg xmlns="http://www.w3.org/2000/svg" xmlns:xlink="http://www.w3.org/1999/xlink" width="400" height="390.903" viewBox="0 0 400 390.903">
  <defs>
    <clipPath id="clip-path">
      <path id="Trazado_734859" data-name="Trazado 734859" d="M196.13,1.484c-3.425.1-6.854.138-10.278.292-3.415.289-6.842.45-10.249.853l-5.1.649c-1.7.2-3.4.431-5.087.763-3.372.627-6.771,1.121-10.1,1.966l-5.363,1.239c-1.78.446-3.535.985-5.3,1.473-3.551.936-7.018,2.141-10.49,3.326-1.75.559-3.46,1.216-5.162,1.9l-5.121,2.02c-3.354,1.48-6.72,2.949-10.012,4.563A192.445,192.445,0,0,0,76.974,44.347,194.436,194.436,0,0,0,46.646,76.1a190.039,190.039,0,0,0-22.113,37.939c-.685,1.443-1.261,2.934-1.843,4.422l-1.758,4.457c-.617,1.475-1.077,3.007-1.6,4.515s-1.023,3.027-1.534,4.54c-.532,1.508-.9,3.064-1.36,4.595q-.654,2.306-1.309,4.611c-.783,3.1-1.458,6.22-2.186,9.33-.32,1.564-.576,3.142-.864,4.712s-.561,3.145-.839,4.717q-.61,4.752-1.218,9.5-.361,4.775-.725,9.551-.122,4.787-.242,9.573v.033q.1,4.078.206,8.154c.061,2.719.368,5.426.544,8.138.151,2.719.554,5.411.887,8.111q.259,2.023.516,4.047l.715,4.019c.486,2.677.909,5.368,1.577,8.008.645,2.641,1.143,5.323,1.919,7.932.755,2.613,1.455,5.247,2.263,7.844q1.309,3.864,2.617,7.733c1.733,4.435,3.4,8.9,5.441,13.209.974,2.175,1.944,4.349,3.069,6.451,1.1,2.11,2.135,4.258,3.3,6.335q1.779,3.1,3.56,6.194c1.208,2.05,2.546,4.022,3.813,6.036,1.251,2.03,2.642,3.961,4.026,5.9s2.727,3.906,4.235,5.749c1.48,1.864,2.921,3.762,4.437,5.6q2.336,2.7,4.674,5.4c1.556,1.8,3.258,3.47,4.883,5.208s3.331,3.4,5.064,5.031c3.385,3.351,7.04,6.411,10.654,9.508q2.8,2.207,5.613,4.414c1.859,1.49,3.855,2.792,5.777,4.195q1.458,1.028,2.919,2.059l3.006,1.927c2.019,1.261,3.973,2.629,6.063,3.774q3.1,1.779,6.2,3.556,3.177,1.63,6.358,3.258a193.918,193.918,0,0,0,26.483,10.664,203.549,203.549,0,0,0,27.807,6.477,210.906,210.906,0,0,0,28.456,2.153h.035q2.12-.05,4.238-.1,2.66-.07,5.318-.138l5.31-.4c1.765-.158,3.541-.221,5.3-.459l5.281-.67c3.533-.368,7-1.136,10.507-1.722,3.495-.629,6.93-1.546,10.4-2.311,3.419-.95,6.849-1.881,10.236-2.938q2.523-.856,5.046-1.708l2.521-.854,2.48-.967c3.3-1.3,6.625-2.561,9.835-4.087q2.423-1.1,4.845-2.208l4.741-2.425c3.195-1.553,6.227-3.407,9.312-5.16s6.006-3.785,9.012-5.671c2.889-2.057,5.829-4.052,8.644-6.212,2.768-2.219,5.645-4.308,8.279-6.69a189.4,189.4,0,0,0,29.03-31.027l4.321-6.074c1.4-2.047,3.039-4.693,5.061-7.821.97-1.591,1.947-3.359,3.039-5.238.544-.942,1.1-1.919,1.685-2.928q.8-1.558,1.65-3.211a183.044,183.044,0,0,0,13.756-34.576,188.61,188.61,0,0,0,5.162-23.655,207.9,207.9,0,0,0,2.073-27.842H367.2a191.631,191.631,0,0,1-1.9,25.473,172.57,172.57,0,0,1-4.719,21.615,167.309,167.309,0,0,1-12.567,31.592q-.779,1.515-1.509,2.936l-1.539,2.677c-1,1.717-1.891,3.336-2.778,4.787-1.856,2.858-3.342,5.28-4.626,7.152l-3.951,5.553a173.412,173.412,0,0,1-26.555,28.379c-2.405,2.186-5.044,4.084-7.57,6.119-2.574,1.976-5.265,3.8-7.906,5.685-2.755,1.715-5.421,3.575-8.239,5.182s-5.59,3.3-8.514,4.714q-2.165,1.112-4.329,2.221-2.217,1.008-4.432,2.014c-2.929,1.4-5.965,2.543-8.984,3.736q-1.132.443-2.264.887-1.155.388-2.306.776l-4.608,1.561c-3.1.967-6.23,1.811-9.354,2.687-3.17.69-6.3,1.538-9.5,2.108-3.2.527-6.373,1.246-9.6,1.572l-4.83.615c-1.607.224-3.235.27-4.85.416l-4.855.368-4.868.123q-1.943.047-3.881.1h-.032A194.943,194.943,0,0,1,170.1,357.66a187.884,187.884,0,0,1-25.409-5.92,178.087,178.087,0,0,1-24.2-9.745l-5.811-2.976q-2.831-1.625-5.663-3.253c-1.916-1.038-3.694-2.3-5.542-3.453l-2.75-1.758-2.667-1.886c-1.755-1.284-3.588-2.468-5.285-3.833q-2.568-2.018-5.137-4.036c-3.3-2.84-6.647-5.63-9.74-8.7-1.587-1.49-3.16-2.994-4.633-4.6-1.483-1.592-3.047-3.113-4.469-4.762s-2.851-3.293-4.278-4.938c-1.385-1.677-2.7-3.417-4.054-5.119-1.385-1.682-2.6-3.49-3.872-5.26s-2.545-3.535-3.681-5.391c-1.158-1.843-2.39-3.643-3.492-5.52q-1.625-2.829-3.254-5.66c-1.065-1.9-2-3.866-3.011-5.794-1.033-1.916-1.916-3.906-2.8-5.894-1.878-3.93-3.384-8.017-4.976-12.066q-1.2-3.536-2.39-7.066c-.736-2.375-1.372-4.779-2.065-7.166-.717-2.384-1.159-4.835-1.755-7.25-.615-2.41-.994-4.87-1.438-7.315q-.331-1.839-.659-3.672-.234-1.854-.468-3.7c-.3-2.468-.682-4.928-.813-7.418-.154-2.483-.448-4.956-.5-7.446s-.129-4.976-.191-7.466v-.032q.109-4.382.222-8.763l.662-8.737q.557-4.344,1.113-8.69.386-2.155.771-4.309c.264-1.436.5-2.88.785-4.308.673-2.841,1.286-5.7,2-8.526q.6-2.1,1.2-4.212c.42-1.4.75-2.823,1.239-4.2q.7-2.073,1.4-4.147c.481-1.378.892-2.78,1.463-4.125q.8-2.035,1.607-4.074c.531-1.358,1.053-2.722,1.684-4.041A174.065,174.065,0,0,1,59.459,85.75,178.373,178.373,0,0,1,87.2,56.712a176.271,176.271,0,0,1,33.732-21.776c3.009-1.475,6.086-2.813,9.15-4.172q2.339-.921,4.678-1.843c1.554-.632,3.117-1.232,4.716-1.738,3.173-1.08,6.338-2.19,9.584-3.037,1.616-.446,3.216-.944,4.842-1.352q2.451-.562,4.9-1.128c3.039-.78,6.149-1.218,9.229-1.8,1.538-.307,3.092-.514,4.651-.7q2.329-.3,4.664-.594c3.113-.37,6.252-.508,9.377-.78,3.133-.139,6.273-.171,9.408-.27h.032a184.468,184.468,0,0,1,24.261,1.747,166.769,166.769,0,0,1,23.756,5.139l2.923.833q1.443.488,2.88.977c1.914.668,3.857,1.259,5.748,1.987,3.772,1.486,7.566,2.923,11.226,4.673,3.734,1.586,7.284,3.565,10.9,5.391l5.273,3.032c1.783.97,3.457,2.122,5.172,3.2a172.3,172.3,0,0,1,17.282,12.628c2.677,2.364,5.459,4.606,7.988,7.133,1.284,1.239,2.6,2.445,3.862,3.712l3.7,3.876c1.256,1.269,2.433,2.611,3.588,3.973l3.5,4.049q1.657,2.107,3.309,4.213l1.655,2.1,1.551,2.183q1.555,2.182,3.105,4.362l2.9,4.5c2,2.961,3.654,6.132,5.469,9.2a171.937,171.937,0,0,1,9.058,19.384c.63,1.67,1.363,3.3,1.913,5q.856,2.535,1.713,5.069c.612,1.679,1.062,3.407,1.554,5.122s.992,3.427,1.446,5.154q.6,2.605,1.2,5.215l.6,2.608q.239,1.319.474,2.634l.944,5.27c.287,1.762.463,3.538.7,5.308.531,3.531.73,7.1,1.009,10.661,0,0,.018.222.051.667s.109,1.111.113,2.005q.07,2.677.206,8.035h16.045q-.147-5.85-.222-8.776c-.008-.975-.094-1.7-.123-2.191l-.055-.728c-.3-3.891-.531-7.789-1.1-11.656-.26-1.936-.459-3.88-.775-5.806q-.515-2.884-1.028-5.766-.259-1.443-.521-2.881-.328-1.428-.658-2.856-.657-2.854-1.317-5.708c-.5-1.888-1.055-3.76-1.581-5.641s-1.035-3.765-1.7-5.6q-.938-2.774-1.878-5.552c-.605-1.856-1.4-3.644-2.092-5.471a187.428,187.428,0,0,0-9.914-21.21c-1.976-3.367-3.8-6.826-5.978-10.07q-1.587-2.461-3.175-4.921l-3.39-4.772-1.7-2.385q-.9-1.15-1.806-2.3l-3.619-4.6q-1.916-2.214-3.83-4.432c-1.266-1.486-2.553-2.951-3.925-4.343q-2.018-2.117-4.041-4.236c-1.377-1.383-2.813-2.705-4.217-4.061-2.773-2.752-5.806-5.218-8.737-7.793A187.971,187.971,0,0,0,296.959,31c-1.874-1.186-3.709-2.435-5.656-3.5l-5.771-3.316c-3.953-2.009-7.842-4.157-11.925-5.9-4.011-1.908-8.156-3.49-12.288-5.112-2.07-.795-4.195-1.448-6.29-2.176l-3.153-1.065-3.2-.916a182.677,182.677,0,0,0-26-5.625,200.692,200.692,0,0,0-26.518-1.9Z" transform="translate(-9.052 -1.484)" fill="#15d3ec"/>
    </clipPath>
    <clipPath id="clip-path-2">
      <rect id="Rectángulo_350384" data-name="Rectángulo 350384" width="374.192" height="374.188" fill="#15d3ec"/>
    </clipPath>
    <clipPath id="clip-path-3">
      <rect id="Rectángulo_350393" data-name="Rectángulo 350393" width="400" height="390.903" fill="none"/>
    </clipPath>
    <clipPath id="clip-path-4">
      <path id="Trazado_734892" data-name="Trazado 734892" d="M257.661,206.176A41.864,41.864,0,1,1,215.8,164.311a41.865,41.865,0,0,1,41.865,41.865" transform="translate(-173.933 -164.311)" fill="#15d3ec"/>
    </clipPath>
    <clipPath id="clip-path-5">
      <path id="path2685" d="M0,0H62.843V65.129H0Z" transform="translate(0 0)" fill="none"/>
    </clipPath>
    <clipPath id="clip-path-6">
      <path id="Trazado_734891" data-name="Trazado 734891" d="M100.467,206.176A41.865,41.865,0,1,1,58.6,164.311a41.867,41.867,0,0,1,41.867,41.865" transform="translate(-16.737 -164.311)" fill="#fff"/>
    </clipPath>
    <clipPath id="clip-path-7">
      <path id="Trazado_734893" data-name="Trazado 734893" d="M256.866,54.067A41.467,41.467,0,1,1,215.4,12.6a41.468,41.468,0,0,1,41.468,41.468" transform="translate(-173.933 -12.599)" fill="#ff9d00"/>
    </clipPath>
    <clipPath id="clip-path-8">
      <path id="Trazado_734902" data-name="Trazado 734902" d="M98.343,53.4a40.8,40.8,0,1,1-40.8-40.8,40.8,40.8,0,0,1,40.8,40.8" transform="translate(-16.737 -12.599)" fill="#7e5ee3"/>
    </clipPath>
  </defs>
  <g id="Grupo_1036325" data-name="Grupo 1036325" transform="translate(-600 -2761.628)">
    <g id="Grupo_1036324" data-name="Grupo 1036324">
      <g id="Grupo_1033662" data-name="Grupo 1033662" transform="translate(615.015 2764.09)" clip-path="url(#clip-path)">
        <g id="Grupo_1033661" data-name="Grupo 1033661" transform="translate(0 0)">
          <g id="Grupo_1033660" data-name="Grupo 1033660">
            <g id="Grupo_1033659" data-name="Grupo 1033659" clip-path="url(#clip-path-2)">
              <rect id="Rectángulo_350383" data-name="Rectángulo 350383" width="375.008" height="375.008" transform="translate(-0.683 -0.101)" fill="#15d3ec"/>
            </g>
          </g>
        </g>
      </g>
      <g id="Grupo_1033684" data-name="Grupo 1033684" transform="translate(600 2761.628)" clip-path="url(#clip-path-3)">
        <path id="Trazado_734860" data-name="Trazado 734860" d="M167.724,275.682A115.525,115.525,0,1,1,283.248,160.157,115.655,115.655,0,0,1,167.724,275.682m0-230.047A114.522,114.522,0,1,0,282.246,160.157,114.651,114.651,0,0,0,167.724,45.635" transform="translate(34.386 29.4)" fill="#12263f"/>
        <path id="Trazado_734861" data-name="Trazado 734861" d="M264.811,154.915A102.328,102.328,0,1,1,162.484,52.587,102.33,102.33,0,0,1,264.811,154.915" transform="translate(39.627 34.641)" fill="#81d4fa"/>
        <path id="Trazado_734863" data-name="Trazado 734863" d="M274.726,59.315a54.079,54.079,0,1,1-54.08-54.08,54.08,54.08,0,0,1,54.08,54.08" transform="translate(109.725 3.448)" fill="#fff"/>
        <path id="Trazado_734864" data-name="Trazado 734864" d="M257.661,54.464A41.864,41.864,0,1,1,215.8,12.6a41.865,41.865,0,0,1,41.865,41.865" transform="translate(114.577 8.299)" fill="#ff9d00"/>
        <path id="Trazado_734867" data-name="Trazado 734867" d="M274.726,211.027a54.079,54.079,0,1,1-54.08-54.08,54.08,54.08,0,0,1,54.08,54.08" transform="translate(109.725 103.387)" fill="#fff"/>
        <path id="Trazado_734868" data-name="Trazado 734868" d="M257.661,206.176A41.864,41.864,0,1,1,215.8,164.311a41.865,41.865,0,0,1,41.865,41.865" transform="translate(114.577 108.238)" fill="#15d3ec"/>
        <g id="Enmascarar_grupo_173134" data-name="Enmascarar grupo 173134" transform="translate(288.113 272.549)" clip-path="url(#clip-path-4)">
          <g id="g2679" transform="translate(12.002 9.301)">
            <g id="g2681" transform="translate(0 0)">
              <g id="g2683" transform="translate(0)" clip-path="url(#clip-path-5)">
                <g id="g2689" transform="translate(3.64 3.855)">
                  <path id="path2691" d="M-37.728-9.278A25.48,25.48,0,0,1-33.536,4.763a25.6,25.6,0,0,1-2.478,10.989M-48.56,28.078a25.6,25.6,0,0,1-10.578,2.288,25.6,25.6,0,0,1-25.6-25.6,25.6,25.6,0,0,1,25.6-25.6A25.476,25.476,0,0,1-45.1-16.646" transform="translate(84.741 20.839)" fill="none" stroke="#fff" stroke-linecap="round" stroke-linejoin="round" stroke-miterlimit="22.926" stroke-width="3"/>
                </g>
                <g id="g2693" transform="translate(8.295 8.51)">
                  <path id="path2695" d="M-2.346-25.379A20.845,20.845,0,0,1-5.269-36.055,20.948,20.948,0,0,1,15.679-57,20.948,20.948,0,0,1,36.626-36.055a20.948,20.948,0,0,1-2.28,9.5m-9.114,9.139a20.946,20.946,0,0,1-9.554,2.306A20.849,20.849,0,0,1,5-18.03" transform="translate(5.269 57.003)" fill="none" stroke="#fff" stroke-linecap="round" stroke-linejoin="round" stroke-miterlimit="22.926" stroke-width="3"/>
                </g>
                <g id="g2697" transform="translate(38.785 30.854)">
                  <path id="path2699" d="M-5.082-10.179V-20.52a2.365,2.365,0,0,0-2.374-2.343A2.365,2.365,0,0,0-9.83-20.52v13.1l-.5.282c-1.113.634-1.3,1.682-.9,3.148l2.129,7.368V5.833A1.577,1.577,0,0,0-7.512,7.395H4.356A1.577,1.577,0,0,0,5.939,5.833V3.375L7.375,1.5a4.613,4.613,0,0,0,.994-3.409V-9.65a2.234,2.234,0,0,0-2.242-2.213A2.234,2.234,0,0,0,3.885-9.65V-11.1a2.234,2.234,0,0,0-2.242-2.213A2.234,2.234,0,0,0-.6-11.1v-1.5a2.234,2.234,0,0,0-2.242-2.213A2.234,2.234,0,0,0-5.082-12.6" transform="translate(11.415 22.862)" fill="none" stroke="#fff" stroke-linecap="round" stroke-linejoin="round" stroke-miterlimit="22.926" stroke-width="3"/>
                </g>
                <g id="g2701" transform="translate(47.346 11.353)">
                  <path id="path2703" d="M0,0H0" fill="none" stroke="#fff" stroke-linecap="round" stroke-linejoin="round" stroke-miterlimit="2.613" stroke-width="3"/>
                </g>
                <g id="g2705" transform="translate(14.43 44.269)">
                  <path id="path2707" d="M0,0H0" fill="none" stroke="#fff" stroke-linecap="round" stroke-linejoin="round" stroke-miterlimit="2.613" stroke-width="3"/>
                </g>
                <g id="g2709" transform="translate(18.842 21.763)">
                  <path id="path2711" d="M-.684-7.32a2.909,2.909,0,0,1,0-4.114,2.909,2.909,0,0,1,4.114,0L6.787-8.078,14.3-15.59a2.909,2.909,0,0,1,4.114,0,2.909,2.909,0,0,1,0,4.114L8.844-1.906a2.909,2.909,0,0,1-4.114,0Z" transform="translate(1.536 16.442)" fill="none" stroke="#fff" stroke-linecap="round" stroke-linejoin="round" stroke-miterlimit="22.926" stroke-width="3"/>
                </g>
              </g>
            </g>
          </g>
        </g>
        <path id="Trazado_734871" data-name="Trazado 734871" d="M117.531,59.315a54.079,54.079,0,1,1-54.08-54.08,54.08,54.08,0,0,1,54.08,54.08" transform="translate(6.174 3.448)" fill="#fff"/>
        <path id="Trazado_734872" data-name="Trazado 734872" d="M100.467,54.464A41.865,41.865,0,1,1,58.6,12.6a41.867,41.867,0,0,1,41.867,41.865" transform="translate(11.025 8.299)" fill="#7e5ee3"/>
        <path id="Trazado_734878" data-name="Trazado 734878" d="M117.531,211.027a54.079,54.079,0,1,1-54.08-54.08,54.08,54.08,0,0,1,54.08,54.08" transform="translate(6.174 103.387)" fill="#fff"/>
        <path id="Trazado_734879" data-name="Trazado 734879" d="M100.467,206.176A41.865,41.865,0,1,1,58.6,164.311a41.867,41.867,0,0,1,41.867,41.865" transform="translate(11.025 108.238)" fill="#6bcfc6"/>
        <path id="Trazado_734880" data-name="Trazado 734880" d="M38.372,195.963" transform="translate(20.024 114.642)" fill="#fff"/>
        <path id="Trazado_734881" data-name="Trazado 734881" d="M82.1,73.383A9.286,9.286,0,1,1,72.811,64.1,9.285,9.285,0,0,1,82.1,73.383" transform="translate(41.846 42.223)" fill="#7e5ee3"/>
        <path id="Trazado_734882" data-name="Trazado 734882" d="M186.455,72.612a9.286,9.286,0,1,1-9.286-9.286,9.285,9.285,0,0,1,9.286,9.286" transform="translate(110.592 41.715)" fill="#ff9d00"/>
        <path id="Trazado_734883" data-name="Trazado 734883" d="M82.61,163.2a9.286,9.286,0,1,1-9.286-9.286A9.285,9.285,0,0,1,82.61,163.2" transform="translate(42.185 101.392)" fill="#81d4fa"/>
        <path id="Trazado_734884" data-name="Trazado 734884" d="M186.455,164.233a9.286,9.286,0,1,1-9.286-9.286,9.285,9.285,0,0,1,9.286,9.286" transform="translate(110.592 102.07)" fill="#15d3ec"/>
        <g id="Enmascarar_grupo_173133" data-name="Enmascarar grupo 173133" transform="translate(24.833 272.549)" clip-path="url(#clip-path-6)">
          <g id="planificador" transform="translate(16.654 16.653)">
            <g id="Grupo_1033692" data-name="Grupo 1033692" transform="translate(0 0)">
              <rect id="Rectángulo_350395" data-name="Rectángulo 350395" width="1.627" height="1.627" transform="translate(33.344 39.85)" fill="#fff"/>
              <rect id="Rectángulo_350396" data-name="Rectángulo 350396" width="1.627" height="1.627" transform="translate(36.597 39.85)" fill="#fff"/>
              <rect id="Rectángulo_350397" data-name="Rectángulo 350397" width="1.627" height="1.627" transform="translate(39.85 39.85)" fill="#fff"/>
              <rect id="Rectángulo_350398" data-name="Rectángulo 350398" width="1.627" height="1.627" transform="translate(3.253 42.29)" fill="#fff"/>
              <rect id="Rectángulo_350399" data-name="Rectángulo 350399" width="1.627" height="1.627" transform="translate(6.506 42.29)" fill="#fff"/>
              <path id="Trazado_734887" data-name="Trazado 734887" d="M47.983,1.627H42.29A1.629,1.629,0,0,0,40.663,0H39.037A1.628,1.628,0,0,0,37.41,1.627H33.344A1.628,1.628,0,0,0,31.717,0H30.091a1.628,1.628,0,0,0-1.627,1.627H24.4A1.629,1.629,0,0,0,22.771,0H21.145a1.628,1.628,0,0,0-1.627,1.627H13.826a2.443,2.443,0,0,0-2.44,2.44V24.4H4.066a4.066,4.066,0,0,0,0,8.133h7.319v3.253H3.253V37.41H22.771V35.784H13.012V32.531h11a2.451,2.451,0,0,0,1.091-.258l.742-.371a.335.335,0,0,1,.018.053.284.284,0,0,1-.083.282l-.827.827,4.6,4.6.827-.827a.305.305,0,0,1,.521.216v1.169H37.41V37.054a.305.305,0,0,1,.521-.216l.827.827,4.6-4.6-.827-.827a.3.3,0,0,1,.215-.521h1.169V25.211H42.747a.3.3,0,0,1-.215-.521l.827-.827-4.6-4.6-.827.827a.3.3,0,0,1-.521-.215V18.705H30.9v1.169a.3.3,0,0,1-.521.215l-.827-.827-4.6,4.6.827.827a.284.284,0,0,1,.083.282.329.329,0,0,1-.018.054l-.742-.371a2.454,2.454,0,0,0-1.091-.258h-11V11.386H48.8V44.73a.814.814,0,0,1-.813.813H13.825a.814.814,0,0,1-.813-.813V40.663h8.133V39.037H3.253v1.627h8.133V44.73a2.443,2.443,0,0,0,2.44,2.44H47.983a2.443,2.443,0,0,0,2.44-2.44V4.066A2.443,2.443,0,0,0,47.983,1.627ZM8.133,30.9H6.506v-4.88H8.133Zm1.627-1.627H22.771V30.9H9.759Zm13.012-1.627H9.759V26.024H22.771Zm-21.145.813a2.443,2.443,0,0,1,2.44-2.44H4.88V30.9H4.066A2.443,2.443,0,0,1,1.627,28.464Zm27.459,0-1.434.717V27.747ZM27.218,23.9,29.6,21.525a1.933,1.933,0,0,0,2.881-1.193h3.362a1.933,1.933,0,0,0,2.881,1.193L41.1,23.9a1.933,1.933,0,0,0,1.193,2.881v3.362A1.933,1.933,0,0,0,41.1,33.026L38.719,35.4A1.933,1.933,0,0,0,35.838,36.6H32.476A1.933,1.933,0,0,0,29.6,35.4l-2.377-2.376a1.907,1.907,0,0,0,.227-1.455,1.94,1.94,0,0,0-.145-.4l2.239-1.12a4.88,4.88,0,1,0,0-3.182L27.3,25.754a1.942,1.942,0,0,0,.145-.4A1.907,1.907,0,0,0,27.218,23.9Zm3.8,3.71a3.253,3.253,0,1,1,0,1.706l1.706-.853Zm-4.992-.678v3.061l-1.627.813V26.121ZM39.037,1.627h1.627v4.88H39.037Zm-8.946,0h1.627v4.88H30.091Zm-8.946,0h1.627v4.88H21.145ZM13.012,9.759V4.066a.814.814,0,0,1,.813-.813h5.693V6.506a1.628,1.628,0,0,0,1.627,1.627h1.627A1.628,1.628,0,0,0,24.4,6.506V3.253h4.066V6.506a1.628,1.628,0,0,0,1.627,1.627h1.627a1.628,1.628,0,0,0,1.627-1.627V3.253H37.41V6.506a1.628,1.628,0,0,0,1.627,1.627h1.627A1.628,1.628,0,0,0,42.29,6.506V3.253h5.693a.814.814,0,0,1,.813.813V9.759H13.012Z" fill="#fff"/>
              <rect id="Rectángulo_350400" data-name="Rectángulo 350400" width="39.037" height="1.627" transform="translate(11.386 48.796)" fill="#fff"/>
              <rect id="Rectángulo_350401" data-name="Rectángulo 350401" width="1.627" height="1.627" transform="translate(16.265 14.639)" fill="#fff"/>
              <rect id="Rectángulo_350402" data-name="Rectángulo 350402" width="1.627" height="1.627" transform="translate(19.518 14.639)" fill="#fff"/>
              <rect id="Rectángulo_350403" data-name="Rectángulo 350403" width="1.627" height="1.627" transform="translate(22.771 14.639)" fill="#fff"/>
              <rect id="Rectángulo_350404" data-name="Rectángulo 350404" width="4.88" height="1.627" transform="translate(42.29 13.012)" fill="#fff"/>
              <rect id="Rectángulo_350405" data-name="Rectángulo 350405" width="4.88" height="1.627" transform="translate(42.29 16.265)" fill="#fff"/>
              <rect id="Rectángulo_350406" data-name="Rectángulo 350406" width="3.253" height="1.627" transform="translate(43.916 19.518)" fill="#fff"/>
              <path id="Trazado_734888" data-name="Trazado 734888" d="M11.628,34.571l-1.15-1.15-4.3,4.3L5.122,36.674l-1.15,1.15,2.2,2.2Z" transform="translate(-2.107 -17.731)" fill="#fff"/>
              <path id="Trazado_734889" data-name="Trazado 734889" d="M11.628,20.713l-1.15-1.15-4.3,4.3L5.122,22.816l-1.15,1.15,2.2,2.2Z" transform="translate(-2.107 -10.379)" fill="#fff"/>
              <path id="Trazado_734890" data-name="Trazado 734890" d="M11.628,6.854,10.478,5.7l-4.3,4.3L5.122,8.957l-1.15,1.15,2.2,2.2Z" transform="translate(-2.107 -3.026)" fill="#fff"/>
            </g>
          </g>
        </g>
        <g id="Enmascarar_grupo_173135" data-name="Enmascarar grupo 173135" transform="translate(288.907 21.296)" clip-path="url(#clip-path-7)">
          <path id="responsabilidad" d="M60.548,29.824c-.776-.2-3.41-.459-4.672,4.323l-2.071,7.848q-.032.12-.07.235l-.006-.01A3.031,3.031,0,0,0,49.706,41.1a1.01,1.01,0,0,0-.115.069,34.833,34.833,0,0,1-5.082,2.757c-.538.252-1.045.49-1.469.706A6.116,6.116,0,0,0,40.127,48.9l-1.456,5.461-.6-.166a2.031,2.031,0,0,0-2.5,1.413l-.6,2.179a2.031,2.031,0,0,0,1.413,2.5L47.7,63.419a2.028,2.028,0,0,0,2.5-1.413l.6-2.179a2.031,2.031,0,0,0-1.413-2.5l-.81-.225.22-.819,7.92-4.572a5.69,5.69,0,0,0,2.767-3.682L62.946,33.49a3.211,3.211,0,0,0-2.4-3.666ZM48.885,59.294l-.6,2.179a.033.033,0,0,1-.018.021.034.034,0,0,1-.027,0L36.916,58.361a.04.04,0,0,1-.025-.045l.6-2.179a.033.033,0,0,1,.018-.021.038.038,0,0,1,.019-.006h.008L47.1,58.763h0l1.753.486a.04.04,0,0,1,.026.045ZM61.007,33.029,57.55,47.571a3.7,3.7,0,0,1-1.825,2.417l-8.277,4.779a1,1,0,0,0-.464.6l-.322,1.2L40.591,54.89l1.461-5.48c.446-1.672.994-2.541,1.893-3,.394-.2.864-.422,1.409-.677a36.81,36.81,0,0,0,5.309-2.88A1.022,1.022,0,0,1,52,43.215c.1.178.412.716-.367,1.34-.863.567-1.742,1.056-2.673,1.573-.449.25-.914.508-1.386.781a1,1,0,1,0,1,1.725c.458-.264.915-.519,1.358-.764.979-.544,1.9-1.058,2.844-1.679l.033-.023.718-.517a5.508,5.508,0,0,0,2.2-3.149L57.8,34.655c.529-2.005,1.4-3.116,2.261-2.9a1.272,1.272,0,0,1,.944,1.273ZM39.078,58.013a.7.7,0,1,1-.144-.983A.7.7,0,0,1,39.078,58.013ZM32.35,55.605a2.031,2.031,0,0,0-2.5-1.413l-.6.166L27.8,48.9a6.116,6.116,0,0,0-2.913-4.26c-.423-.216-.931-.454-1.469-.706a34.808,34.808,0,0,1-5.082-2.757,1,1,0,0,0-.115-.069A3.031,3.031,0,0,0,14.2,42.219l-.006.011q-.038-.115-.07-.235L12.05,34.147c-1.262-4.782-3.9-4.518-4.672-4.323a3.211,3.211,0,0,0-2.4,3.666L8.438,48.032A5.689,5.689,0,0,0,11.2,51.713l7.92,4.573.22.819-.81.225a2.031,2.031,0,0,0-1.413,2.5l.6,2.179a2.027,2.027,0,0,0,2.5,1.413l11.319-3.137a2.031,2.031,0,0,0,1.413-2.5Zm-11.408-.233a1,1,0,0,0-.464-.6L12.2,49.988a3.693,3.693,0,0,1-1.824-2.417L6.918,33.029a1.273,1.273,0,0,1,.944-1.273c.864-.217,1.732.894,2.261,2.9L12.194,42.5a5.51,5.51,0,0,0,2.207,3.15l.716.515.033.023c.939.62,1.865,1.135,2.844,1.679.442.246.9.5,1.357.764a1,1,0,0,0,1-1.725c-.472-.273-.936-.531-1.385-.78-.931-.517-1.811-1.007-2.673-1.574-.779-.624-.47-1.162-.367-1.34a1.023,1.023,0,0,1,1.341-.361,36.79,36.79,0,0,0,5.309,2.88c.545.256,1.015.476,1.409.677.9.458,1.447,1.327,1.893,3l1.461,5.48-6.071,1.683Zm10.067,2.99L19.69,61.5a.033.033,0,0,1-.027,0,.034.034,0,0,1-.018-.021l-.6-2.179a.04.04,0,0,1,.025-.045l1.753-.486h0l9.564-2.651h.008a.038.038,0,0,1,.019.006.034.034,0,0,1,.018.021l.6,2.179a.04.04,0,0,1-.025.045Zm-1.035-1.188a.7.7,0,1,1-.983-.144A.7.7,0,0,1,29.974,57.174ZM25.362,36.507a6.345,6.345,0,1,0-6.345-6.345A6.352,6.352,0,0,0,25.362,36.507Zm0-10.7a4.352,4.352,0,1,1-4.352,4.352A4.357,4.357,0,0,1,25.362,25.81ZM13.674,32.626l1.4.54a10.636,10.636,0,0,0,.89,2.146l-.61,1.374a1,1,0,0,0,.206,1.109l2.169,2.169a1,1,0,0,0,1.109.206l1.375-.611a10.657,10.657,0,0,0,2.145.889l.54,1.4a1,1,0,0,0,.93.638H26.9a1,1,0,0,0,.93-.638l.54-1.4a10.627,10.627,0,0,0,2.146-.89l1.374.611a1,1,0,0,0,1.109-.206l2.168-2.169a1,1,0,0,0,.206-1.109l-.611-1.375a10.64,10.64,0,0,0,.89-2.145l1.4-.54a1,1,0,0,0,.638-.93V28.629a1,1,0,0,0-.638-.93l-1.4-.54a10.631,10.631,0,0,0-.89-2.146l.61-1.374a1,1,0,0,0-.206-1.109l-2.169-2.169a1,1,0,0,0-1.109-.206l-1.375.611a10.647,10.647,0,0,0-2.145-.89l-.54-1.4a1,1,0,0,0-.93-.638H23.828a1,1,0,0,0-.93.638l-.54,1.4a10.64,10.64,0,0,0-2.145.89l-1.375-.611a1,1,0,0,0-1.109.206l-2.168,2.169a1,1,0,0,0-.206,1.109l.611,1.375a10.648,10.648,0,0,0-.89,2.145l-1.4.54a1,1,0,0,0-.638.93V31.7a1,1,0,0,0,.638.93Zm1.354-3.312,1.239-.477a1,1,0,0,0,.611-.7,8.665,8.665,0,0,1,1.053-2.54,1,1,0,0,0,.062-.927l-.539-1.215,1.2-1.2,1.215.54a1,1,0,0,0,.927-.062,8.662,8.662,0,0,1,2.54-1.053,1,1,0,0,0,.7-.611l.477-1.239h1.7l.477,1.239a1,1,0,0,0,.7.611,8.662,8.662,0,0,1,2.54,1.053,1,1,0,0,0,.927.062l1.215-.54,1.2,1.2L32.73,24.67a1,1,0,0,0,.062.927,8.656,8.656,0,0,1,1.053,2.54,1,1,0,0,0,.611.7l1.239.477v1.7l-1.239.477a1,1,0,0,0-.611.7,8.663,8.663,0,0,1-1.053,2.54,1,1,0,0,0-.062.927l.54,1.215-1.2,1.2-1.214-.539a1,1,0,0,0-.927.062,8.665,8.665,0,0,1-2.54,1.053,1,1,0,0,0-.7.611L26.211,40.5h-1.7l-.477-1.239a1,1,0,0,0-.7-.611,8.668,8.668,0,0,1-2.54-1.053,1,1,0,0,0-.927-.062l-1.215.54-1.2-1.2.539-1.214a1,1,0,0,0-.062-.927,8.663,8.663,0,0,1-1.053-2.541,1,1,0,0,0-.611-.7l-1.239-.477Zm32.187-3.636A4.789,4.789,0,1,0,52,30.466,4.794,4.794,0,0,0,47.215,25.678Zm0,7.585a2.8,2.8,0,1,1,2.8-2.8A2.8,2.8,0,0,1,47.215,33.263Zm3.663-9.782a7.842,7.842,0,0,0-1.314-.545l-.332-.863a1,1,0,0,0-.93-.638H46.127a1,1,0,0,0-.93.638l-.332.863a7.846,7.846,0,0,0-1.314.545l-.845-.376a1,1,0,0,0-1.109.206L40.06,24.85a1,1,0,0,0-.206,1.109l.375.845a7.843,7.843,0,0,0-.545,1.314l-.862.332a1,1,0,0,0-.638.93v2.175a1,1,0,0,0,.638.93l.862.332a7.835,7.835,0,0,0,.545,1.315l-.375.845a1,1,0,0,0,.206,1.109L41.6,37.621a1,1,0,0,0,1.109.206l.845-.375A7.835,7.835,0,0,0,44.866,38l.332.863a1,1,0,0,0,.93.638H48.3a1,1,0,0,0,.93-.638L49.564,38a7.838,7.838,0,0,0,1.314-.545l.845.375a1,1,0,0,0,1.109-.206l1.538-1.538a1,1,0,0,0,.206-1.109l-.375-.845a7.839,7.839,0,0,0,.545-1.314l.863-.332a1,1,0,0,0,.638-.93V29.379a1,1,0,0,0-.638-.93l-.862-.332A7.842,7.842,0,0,0,54.2,26.8l.375-.845a1,1,0,0,0-.206-1.109l-1.538-1.538a1,1,0,0,0-1.109-.206Zm1.6,2.293-.3.679a1,1,0,0,0,.062.927,5.848,5.848,0,0,1,.712,1.716,1,1,0,0,0,.611.7l.693.267v.807l-.693.267a1,1,0,0,0-.611.7,5.846,5.846,0,0,1-.711,1.716,1,1,0,0,0-.062.927l.3.68-.57.571-.679-.3a1,1,0,0,0-.927.062,5.854,5.854,0,0,1-1.717.712,1,1,0,0,0-.7.611l-.267.693h-.807l-.267-.693a1,1,0,0,0-.7-.611,5.849,5.849,0,0,1-1.716-.711,1,1,0,0,0-.927-.062l-.68.3-.571-.57.3-.679a1,1,0,0,0-.062-.927,5.853,5.853,0,0,1-.712-1.717,1,1,0,0,0-.611-.7l-.693-.267v-.807l.693-.267a1,1,0,0,0,.611-.7,5.846,5.846,0,0,1,.711-1.716,1,1,0,0,0,.062-.927l-.3-.68.57-.57.68.3a1,1,0,0,0,.927-.062,5.852,5.852,0,0,1,1.716-.712,1,1,0,0,0,.7-.611l.267-.693h.807l.267.693a1,1,0,0,0,.7.611,5.851,5.851,0,0,1,1.716.712,1,1,0,0,0,.927.062l.68-.3ZM31.714,14.313l1.083.417a8.976,8.976,0,0,0,.686,1.656l-.471,1.061a1,1,0,0,0,.206,1.109l1.8,1.8a1,1,0,0,0,1.109.206l1.062-.472a8.986,8.986,0,0,0,1.655.686l.417,1.084a1,1,0,0,0,.93.638h2.54a1,1,0,0,0,.93-.638l.417-1.083a8.978,8.978,0,0,0,1.656-.686l1.061.471a1,1,0,0,0,1.109-.206l1.8-1.8a1,1,0,0,0,.206-1.109l-.472-1.062a9,9,0,0,0,.686-1.655l1.084-.417a1,1,0,0,0,.638-.93v-2.54a1,1,0,0,0-.638-.93L50.117,9.5a8.98,8.98,0,0,0-.686-1.656L49.9,6.78A1,1,0,0,0,49.7,5.671l-1.8-1.8a1,1,0,0,0-1.109-.206l-1.062.472a8.991,8.991,0,0,0-1.655-.686l-.417-1.084a1,1,0,0,0-.93-.638h-2.54a1,1,0,0,0-.93.638L38.84,3.454a8.991,8.991,0,0,0-1.655.686l-1.062-.472a1,1,0,0,0-1.109.206l-1.8,1.8a1,1,0,0,0-.206,1.109l.472,1.062A8.99,8.99,0,0,0,32.8,9.5l-1.083.417a1,1,0,0,0-.638.93v2.54A1,1,0,0,0,31.714,14.313Zm1.354-2.786.917-.353a1,1,0,0,0,.611-.7,7,7,0,0,1,.852-2.054A1,1,0,0,0,35.51,7.5l-.4-.9.829-.829.9.4a1,1,0,0,0,.926-.062,7.014,7.014,0,0,1,2.054-.852,1,1,0,0,0,.7-.611l.353-.917h1.172l.353.917a1,1,0,0,0,.7.611,7.009,7.009,0,0,1,2.054.852,1,1,0,0,0,.926.062l.9-.4L47.8,6.6l-.4.9a1,1,0,0,0,.062.927,7.005,7.005,0,0,1,.852,2.054,1,1,0,0,0,.611.7l.917.353V12.7l-.917.353a1,1,0,0,0-.611.7,7.006,7.006,0,0,1-.852,2.054,1,1,0,0,0-.062.927l.4.9-.829.829-.9-.4a1,1,0,0,0-.927.062,7.007,7.007,0,0,1-2.054.852,1,1,0,0,0-.7.611l-.353.917H40.871l-.353-.917a1,1,0,0,0-.7-.611,7,7,0,0,1-2.054-.852,1,1,0,0,0-.927-.062l-.9.4-.829-.829.4-.9a1,1,0,0,0-.062-.927,7.007,7.007,0,0,1-.852-2.054,1,1,0,0,0-.611-.7l-.917-.353V11.527Zm8.389,6.012a5.426,5.426,0,1,0-5.426-5.426A5.432,5.432,0,0,0,41.457,17.54Zm0-8.86a3.434,3.434,0,1,1-3.434,3.434A3.438,3.438,0,0,1,41.457,8.68Z" transform="translate(7.504 8.855)" fill="#fff"/>
        </g>
        <g id="Enmascarar_grupo_173136" data-name="Enmascarar grupo 173136" transform="translate(28.824 21.96)" clip-path="url(#clip-path-8)">
          <g id="Layer_x0020_1" transform="translate(12.707 7.757)">
            <g id="_488288328" transform="translate(0 0)">
              <g id="Grupo_1033701" data-name="Grupo 1033701">
                <g id="Grupo_1033693" data-name="Grupo 1033693" transform="translate(0 17.589)">
                  <path id="Trazado_734894" data-name="Trazado 734894" d="M31.813,72.51h-4.69a.98.98,0,0,1-.87-.681l-1.437-5.9a12.9,12.9,0,0,1-2.875-1.286l-4.8,3.026a1.024,1.024,0,0,1-1.173-.113l-3.291-3.291a.831.831,0,0,1-.151-1.1l3.14-5.182a12.489,12.489,0,0,1-1.1-2.95L9,53.71a.925.925,0,0,1-.757-.87V48.15a.94.94,0,0,1,.681-.87l5.939-1.437a12.344,12.344,0,0,1,1.324-2.837l-3.064-4.88a.979.979,0,0,1,.151-1.135L16.607,33.7a.887.887,0,0,1,1.1-.189l5.182,3.177a14.818,14.818,0,0,1,2.95-1.135l1.248-5.56a.966.966,0,0,1,.908-.719h4.69a.941.941,0,0,1,.908.681l1.4,5.939a15.931,15.931,0,0,1,2.837,1.286l4.842-3.026a.966.966,0,0,1,1.135.113l3.329,3.291a.971.971,0,0,1,.151,1.173l-3.14,5.144a18.772,18.772,0,0,1,1.135,2.988l6.733,1.513a.943.943,0,0,1,.681,1.1.964.964,0,0,1-1.1.681L44.3,48.49a.843.843,0,0,1-.681-.681,11.344,11.344,0,0,0-1.362-3.518,1.041,1.041,0,0,1,0-.946l3.026-4.993-2.307-2.307-4.728,2.988a.8.8,0,0,1-.983,0,16.259,16.259,0,0,0-3.4-1.589.907.907,0,0,1-.643-.681l-1.248-5.6H28.711l-1.248,5.409a.954.954,0,0,1-.681.681,14.113,14.113,0,0,0-3.518,1.286.74.74,0,0,1-.908-.038l-5.031-3.026-2.27,2.232,2.95,4.728a.923.923,0,0,1,0,.983,15.38,15.38,0,0,0-1.551,3.442,1.086,1.086,0,0,1-.681.605L10.1,48.831v3.253l5.447,1.286a.765.765,0,0,1,.681.681,12.57,12.57,0,0,0,1.324,3.518.965.965,0,0,1,0,.908L14.489,63.47,16.8,65.777l4.728-2.988a.923.923,0,0,1,.983,0,16.535,16.535,0,0,0,3.442,1.589.915.915,0,0,1,.605.681l1.362,5.674h3.215l1.248-5.409a.843.843,0,0,1,.681-.681,14.489,14.489,0,0,0,3.48-1.324.922.922,0,0,1,.87,1.627,13.073,13.073,0,0,1-3.4,1.362l-1.248,5.56A.958.958,0,0,1,31.813,72.51Z" transform="translate(-8.247 -29.275)" fill="#fff" fill-rule="evenodd"/>
                </g>
                <g id="Grupo_1033694" data-name="Grupo 1033694" transform="translate(10.062 27.991)">
                  <path id="Trazado_734895" data-name="Trazado 734895" d="M36.606,69.7A11.556,11.556,0,1,1,48.143,58.162,11.6,11.6,0,0,1,36.606,69.7Zm0-21.3a9.74,9.74,0,1,0,9.721,9.759A9.735,9.735,0,0,0,36.606,48.4Z" transform="translate(-24.994 -46.588)" fill="#fff" fill-rule="evenodd"/>
                </g>
                <g id="Grupo_1033695" data-name="Grupo 1033695" transform="translate(14.601 32.493)">
                  <path id="Trazado_734896" data-name="Trazado 734896" d="M39.622,68.226A7.074,7.074,0,1,1,46.7,61.153,7.063,7.063,0,0,1,39.622,68.226Zm0-12.331a5.258,5.258,0,1,0,5.258,5.258A5.3,5.3,0,0,0,39.622,55.9Z" transform="translate(-32.548 -54.079)" fill="#fff" fill-rule="evenodd"/>
                </g>
                <g id="Grupo_1033696" data-name="Grupo 1033696" transform="translate(31.282 42.63)">
                  <path id="Trazado_734897" data-name="Trazado 734897" d="M69.542,89.335a9.192,9.192,0,1,1,9.192-9.154A9.2,9.2,0,0,1,69.542,89.335Zm0-16.568a7.376,7.376,0,1,0,7.338,7.414A7.4,7.4,0,0,0,69.542,72.767Z" transform="translate(-60.312 -70.952)" fill="#fff" fill-rule="evenodd"/>
                </g>
                <g id="Grupo_1033697" data-name="Grupo 1033697" transform="translate(39.831 46.337)">
                  <path id="Trazado_734898" data-name="Trazado 734898" d="M77.793,85.708a.954.954,0,0,1-.643-.227L74.805,83.1a.987.987,0,0,1-.265-.643V78.067a.946.946,0,1,1,1.891,0v3.972l2.08,2.118a.914.914,0,0,1,0,1.324A1.56,1.56,0,0,1,77.793,85.708Z" transform="translate(-74.54 -77.121)" fill="#fff" fill-rule="evenodd"/>
                </g>
                <g id="Grupo_1033698" data-name="Grupo 1033698" transform="translate(27.764 39.112)">
                  <path id="Trazado_734899" data-name="Trazado 734899" d="M67.2,90.516A12.71,12.71,0,1,1,79.876,77.844,12.737,12.737,0,0,1,67.2,90.516Zm0-23.6A10.894,10.894,0,1,0,78.061,77.844,10.913,10.913,0,0,0,67.2,66.912Z" transform="translate(-54.457 -65.097)" fill="#fff" fill-rule="evenodd"/>
                </g>
                <g id="Grupo_1033699" data-name="Grupo 1033699" transform="translate(24.067)">
                  <path id="Trazado_734900" data-name="Trazado 734900" d="M52.152,26.63a.961.961,0,0,1-.946-.946V13.126h-2a.832.832,0,0,1-.757-.454.858.858,0,0,1,0-.946L54.989.492A.957.957,0,0,1,55.783,0a.975.975,0,0,1,.794.492l6.544,11.272a1.041,1.041,0,0,1,0,.946.926.926,0,0,1-.794.492h-2V23.566a.936.936,0,0,1-.946.946.961.961,0,0,1-.946-.946V12.18a.961.961,0,0,1,.946-.946h1.362L55.783,2.761l-4.955,8.473h1.324a.936.936,0,0,1,.946.946v13.5A.961.961,0,0,1,52.152,26.63Z" transform="translate(-48.303)" fill="#fff" fill-rule="evenodd"/>
                </g>
                <g id="Grupo_1033700" data-name="Grupo 1033700" transform="translate(39.673 5.22)">
                  <path id="Trazado_734901" data-name="Trazado 734901" d="M85.4,50.448a.936.936,0,0,1-.946-.946V23.781a.936.936,0,0,1,.946-.946H86.88L81.773,11.714,76.667,22.835h1.475a.936.936,0,0,1,.946.946V43.829a.946.946,0,0,1-1.891,0v-19.1H75.23a.891.891,0,0,1-.794-.416.955.955,0,0,1-.076-.908L80.941,9.218a.919.919,0,0,1,1.664,0L89.187,23.4a1.265,1.265,0,0,1-.076.908.891.891,0,0,1-.794.416H86.35V49.5A1.047,1.047,0,0,1,85.4,50.448Z" transform="translate(-74.277 -8.688)" fill="#fff" fill-rule="evenodd"/>
                </g>
              </g>
            </g>
          </g>
        </g>
      </g>
      <path id="Trazado_739660" data-name="Trazado 739660" d="M0,0H400V390.9H0Z" transform="translate(600 2761.628)" fill="none"/>
      <path id="Trazado_739659" data-name="Trazado 739659" d="M43.341,17.223a6.231,6.231,0,0,1-.961,3.146,5.8,5.8,0,0,1-2.467,2.115,8.4,8.4,0,0,1-3.627.75,6.7,6.7,0,0,1-5.3-2.191,9.048,9.048,0,0,1-1.934-6.187v-.844a10.328,10.328,0,0,1,.873-4.389,6.615,6.615,0,0,1,2.514-2.906,7.013,7.013,0,0,1,3.8-1.025,7.354,7.354,0,0,1,4.992,1.635,6.459,6.459,0,0,1,2.145,4.506h-4.1a3.056,3.056,0,0,0-.785-2.238,3.229,3.229,0,0,0-2.25-.68,2.457,2.457,0,0,0-2.25,1.148,7.381,7.381,0,0,0-.75,3.668v1.207a8.167,8.167,0,0,0,.686,3.9,2.509,2.509,0,0,0,2.361,1.172,3.159,3.159,0,0,0,2.168-.668,2.835,2.835,0,0,0,.8-2.121ZM49.27,23H45.309V10.32H49.27Zm-4.2-15.949a1.763,1.763,0,0,1,.609-1.383,2.591,2.591,0,0,1,3.164,0,1.763,1.763,0,0,1,.609,1.383,1.763,1.763,0,0,1-.609,1.383,2.591,2.591,0,0,1-3.164,0A1.763,1.763,0,0,1,45.075,7.051ZM57.063,20.188a1.756,1.756,0,0,0,1.289-.451,1.654,1.654,0,0,0,.445-1.26h3.7A4.384,4.384,0,0,1,61.007,21.9a5.558,5.558,0,0,1-3.85,1.336A5.627,5.627,0,0,1,52.8,21.5,6.834,6.834,0,0,1,51.2,16.7v-.164a7.723,7.723,0,0,1,.709-3.393,5.162,5.162,0,0,1,2.045-2.262,6.1,6.1,0,0,1,3.164-.791,5.488,5.488,0,0,1,3.926,1.371A4.863,4.863,0,0,1,62.5,15.172H58.8a2.168,2.168,0,0,0-.48-1.512,1.658,1.658,0,0,0-1.289-.527q-1.535,0-1.793,1.957a13.809,13.809,0,0,0-.082,1.711,5.424,5.424,0,0,0,.457,2.648A1.582,1.582,0,0,0,57.063,20.188ZM68.337,23H64.376V5h3.961Zm1.934-6.457a7.484,7.484,0,0,1,.738-3.381,5.28,5.28,0,0,1,2.121-2.279,6.388,6.388,0,0,1,3.246-.8,5.83,5.83,0,0,1,4.488,1.764,6.768,6.768,0,0,1,1.641,4.8v.141a6.566,6.566,0,0,1-1.646,4.705,5.846,5.846,0,0,1-4.459,1.74,5.912,5.912,0,0,1-4.348-1.623,6.348,6.348,0,0,1-1.77-4.4Zm3.949.246a4.718,4.718,0,0,0,.551,2.578,1.835,1.835,0,0,0,1.629.82q2.109,0,2.156-3.246v-.4q0-3.41-2.18-3.41-1.98,0-2.145,2.941ZM29.19,47.211V53H25.077V35.938h6.809a7.93,7.93,0,0,1,3.463.721,5.431,5.431,0,0,1,2.332,2.051,5.6,5.6,0,0,1,.826,3.018,4.937,4.937,0,0,1-1.787,3.99,7.415,7.415,0,0,1-4.9,1.494Zm0-3.176h2.7a2.542,2.542,0,0,0,1.822-.6,2.221,2.221,0,0,0,.627-1.687,2.745,2.745,0,0,0-.645-1.91,2.282,2.282,0,0,0-1.758-.727H29.19ZM54.96,53H50.87V45.875H44.811V53H40.7V35.938h4.113v6.773H50.87V35.938h4.09Zm9.223-4.641,3.4-12.422h4.594L66.433,53h-4.5l-5.7-17.062H60.8Zm18.047,1.453H76.593L75.608,53H71.214l6.258-17.062h3.867L87.643,53H83.226Zm-4.652-3.176h3.668l-1.84-5.918Z" transform="translate(744.203 2921.852)" fill="#12263f"/>
    </g>
  </g>
</svg>
