<svg xmlns="http://www.w3.org/2000/svg" xmlns:xlink="http://www.w3.org/1999/xlink" width="610" height="444.291" viewBox="0 0 610 444.291">
  <defs>
    <clipPath id="clip-path">
      <rect id="Rectángulo_350603" data-name="Rectángulo 350603" width="587.603" height="403.834" fill="none"/>
    </clipPath>
    <clipPath id="clip-path-6">
      <rect id="Rectángulo_350577" data-name="Rectángulo 350577" width="17.827" height="123.833" fill="none"/>
    </clipPath>
    <clipPath id="clip-path-7">
      <rect id="Rectángulo_350580" data-name="Rectángulo 350580" width="17.827" height="167.489" fill="none"/>
    </clipPath>
    <clipPath id="clip-path-8">
      <rect id="Rectángulo_350583" data-name="Rectángulo 350583" width="17.827" height="87.783" fill="none"/>
    </clipPath>
    <clipPath id="clip-path-9">
      <rect id="Rectángulo_350586" data-name="Rectángulo 350586" width="17.827" height="47.9" fill="none"/>
    </clipPath>
    <clipPath id="clip-path-10">
      <rect id="Rectángulo_350589" data-name="Rectángulo 350589" width="17.828" height="31.325" fill="none"/>
    </clipPath>
    <clipPath id="clip-path-11">
      <rect id="Rectángulo_350592" data-name="Rectángulo 350592" width="17.828" height="222.518" fill="none"/>
    </clipPath>
    <clipPath id="clip-path-12">
      <rect id="Rectángulo_350595" data-name="Rectángulo 350595" width="17.827" height="268.587" fill="none"/>
    </clipPath>
    <clipPath id="clip-path-14">
      <rect id="Rectángulo_350598" data-name="Rectángulo 350598" width="27.95" height="25.607" fill="none"/>
    </clipPath>
    <clipPath id="clip-path-17">
      <rect id="Rectángulo_350601" data-name="Rectángulo 350601" width="47.632" height="3.541" fill="none"/>
    </clipPath>
  </defs>
  <g id="Grupo_1034667" data-name="Grupo 1034667" transform="translate(5660.287 6216.646)">
    <g id="Grupo_160943" data-name="Grupo 160943" transform="translate(-5840.287 -14728.086)" opacity="0.13">
      <g id="Grupo_154652" data-name="Grupo 154652" transform="translate(180 8511.44)">
        <g id="Grupo_154160" data-name="Grupo 154160" transform="translate(0 0)">
          <g id="Grupo_66834" data-name="Grupo 66834">
            <path id="Trazado_132887" data-name="Trazado 132887" d="M738.348,526.863c-56.821,77.476-60.758,301.127,19.052,359.663s213.167-70.218,269.973-147.691,38.17-187.709-41.638-246.245S795.159,449.4,738.348,526.863Z" transform="translate(-505.222 -457.039)" fill="#15d3ec"/>
            <path id="Trazado_132888" data-name="Trazado 132888" d="M652.737,605.065c0,108.19,226.26,226.357,351.078,226.357s258.922-118.167,258.922-226.357-52.662-181.459-236.98-99.419C914.718,555.061,652.737,496.877,652.737,605.065Z" transform="translate(-652.737 -437.812)" fill="#7e5ee3"/>
          </g>
        </g>
      </g>
    </g>
    <g id="Grupo_1033877" data-name="Grupo 1033877" transform="translate(-5642.207 -6208.1)">
      <g id="Grupo_1033876" data-name="Grupo 1033876" clip-path="url(#clip-path)">
        <g id="Grupo_1033833" data-name="Grupo 1033833">
          <g id="Grupo_1033832" data-name="Grupo 1033832" clip-path="url(#clip-path)">
            <path id="Trazado_735672" data-name="Trazado 735672" d="M355.894,224.331c-19.239-13.467-21.094-15.2-30.823-33.232l-9.243,18.873c39.581,11.149,73.726,48.545,103.512,76.9,30.5,29.028,86.861,71.773,95.125,112.056,10.959-27.743,27.9-24.166,47.656-46.513-65.676-18.159-158.373-94.584-206.226-128.08" transform="translate(-40.037 -24.225)" fill="#dee4f0"/>
            <path id="Trazado_735673" data-name="Trazado 735673" d="M466.935,449.238c4.722-12.961,21.029-19.05,33.606-13.384q-.135-2.939-.272-5.879a32.974,32.974,0,0,1,37.871-28.107c.743-9.7,10.871-17.589,20.459-15.933a18.5,18.5,0,0,1,26.666-20.551A28.97,28.97,0,0,1,628.389,398.4c15.083,11.535,20.531,34.035,12.392,51.191" transform="translate(-59.193 -45.776)" fill="#dee4f0"/>
            <path id="Trazado_735674" data-name="Trazado 735674" d="M302.262,203.7l26.494-18.025c9.5-1.249,14.574,8.143,14.178,14.9a10.793,10.793,0,0,1,14.592,14.478,9.656,9.656,0,1,1-3.112,18.934c-3.441-.975-6.244-3.824-9.8-4.228-3.334-.379-6.455,1.472-9.652,2.493-7.939,2.533-17.018-.315-23.007-6.11s-9.094-14.132-9.694-22.443" transform="translate(-38.318 -23.524)" fill="#dee4f0"/>
            <path id="Trazado_735675" data-name="Trazado 735675" d="M319.957,193.382a24.232,24.232,0,0,1,8.507,4.3,2.176,2.176,0,0,1-1.425,3.876l-.055,0a90.1,90.1,0,0,1,9.189,7.345,2.68,2.68,0,0,1-1.909,4.664A41.02,41.02,0,0,1,307.7,202.307Z" transform="translate(-39.008 -24.515)" fill="#e8e8e8"/>
            <path id="Trazado_735676" data-name="Trazado 735676" d="M267.636,195.921c0,.031,0,.1.006.21a40.354,40.354,0,0,0,16.213,30.91l6.151,4.589.629-18.547Z" transform="translate(-33.928 -24.837)" fill="#e8e8e8"/>
            <path id="Trazado_735677" data-name="Trazado 735677" d="M297.445,155.781c.029-.009.1-.026.2-.053a39.807,39.807,0,0,1,33.78,6.651l6.066,4.527-17.361,5.8Z" transform="translate(-37.707 -19.581)" fill="#e8e8e8"/>
            <path id="Trazado_735678" data-name="Trazado 735678" d="M213.487,124.221c2.06-2.761,12.987-2.511,28.431,1.67a88.66,88.66,0,0,1,25.642,11.525l51.323,38.3-10.091,13.524-5.848,7.838L292.853,210.6,246.28,175.845a88.952,88.952,0,0,1-12.607-11.4A106.558,106.558,0,0,1,223.181,151c-8.674-13.368-11.755-24.017-9.695-26.778" transform="translate(-26.985 -15.517)" fill="#f5f5f5"/>
            <line id="Línea_2495" data-name="Línea 2495" x1="25.971" y2="34.383" transform="translate(257.795 154.127)" fill="#f5f5f5"/>
            <path id="Trazado_735679" data-name="Trazado 735679" d="M295.22,210.884c.051.038,5.9-7.629,13.076-17.121s12.945-17.223,12.9-17.261-5.9,7.627-13.078,17.123-12.944,17.222-12.893,17.259" transform="translate(-37.425 -22.375)" fill="#e0e0e0"/>
            <line id="Línea_2496" data-name="Línea 2496" x1="25.971" y2="34.383" transform="translate(259.466 155.133)" fill="#f5f5f5"/>
            <path id="Trazado_735680" data-name="Trazado 735680" d="M297.134,212.037c.051.038,5.9-7.629,13.076-17.121s12.945-17.223,12.895-17.261-5.9,7.627-13.078,17.123S297.083,212,297.134,212.037" transform="translate(-37.667 -22.521)" fill="#e0e0e0"/>
            <line id="Línea_2497" data-name="Línea 2497" x1="25.971" y2="34.383" transform="translate(261.087 156.385)" fill="#f5f5f5"/>
            <path id="Trazado_735681" data-name="Trazado 735681" d="M298.99,213.471c.051.038,5.906-7.629,13.076-17.121s12.945-17.223,12.9-17.261-5.9,7.627-13.077,17.123-12.943,17.221-12.893,17.259" transform="translate(-37.903 -22.703)" fill="#e0e0e0"/>
            <line id="Línea_2498" data-name="Línea 2498" x1="25.971" y2="34.383" transform="translate(262.708 157.638)" fill="#f5f5f5"/>
            <path id="Trazado_735682" data-name="Trazado 735682" d="M300.846,214.9c.051.038,5.9-7.629,13.076-17.121s12.945-17.223,12.895-17.261-5.9,7.628-13.078,17.123S300.8,214.866,300.846,214.9" transform="translate(-38.138 -22.885)" fill="#e0e0e0"/>
            <line id="Línea_2499" data-name="Línea 2499" x1="25.971" y2="34.383" transform="translate(264.329 158.89)" fill="#f5f5f5"/>
            <path id="Trazado_735683" data-name="Trazado 735683" d="M302.7,216.339c.05.038,5.9-7.629,13.076-17.121s12.945-17.223,12.895-17.261-5.9,7.627-13.078,17.123S302.653,216.3,302.7,216.339" transform="translate(-38.373 -23.066)" fill="#e0e0e0"/>
            <path id="Trazado_735684" data-name="Trazado 735684" d="M282.526,176.058a1.5,1.5,0,0,0,.21.217c.142.146.375.32.665.561.587.474,1.45,1.14,2.524,1.954,2.147,1.629,5.138,3.844,8.456,6.27s6.338,4.606,8.53,6.173l2.6,1.844.715.492a1.419,1.419,0,0,0,.259.158,1.556,1.556,0,0,0-.231-.2l-.69-.527-2.561-1.9-8.49-6.226-8.495-6.215-2.565-1.895c-.3-.23-.543-.4-.688-.524a1.626,1.626,0,0,0-.243-.184" transform="translate(-35.816 -22.319)" fill="#e0e0e0"/>
            <path id="Trazado_735685" data-name="Trazado 735685" d="M267.636,190.9c.051.038,5.875-7.67,13.009-17.215s12.878-17.316,12.827-17.354S287.6,164,280.462,173.551s-12.877,17.314-12.826,17.352" transform="translate(-33.928 -19.818)" fill="#e0e0e0"/>
            <path id="Trazado_735686" data-name="Trazado 735686" d="M299.374,193.709c0-.011-.123,0-.311.1a1.378,1.378,0,0,0-.586.675,1.309,1.309,0,0,0,.15,1.314,1.4,1.4,0,0,0,2.547-.7,1.307,1.307,0,0,0-.539-1.208,1.373,1.373,0,0,0-.847-.284.552.552,0,0,0-.319.072,2.572,2.572,0,0,0,.314.017,1.4,1.4,0,0,1,.752.321,1.153,1.153,0,0,1,.43,1.055,1.2,1.2,0,0,1-2.172.594,1.154,1.154,0,0,1-.167-1.127,1.408,1.408,0,0,1,.484-.658c.161-.118.269-.156.263-.175" transform="translate(-37.824 -24.544)" fill="#e0e0e0"/>
            <path id="Trazado_735687" data-name="Trazado 735687" d="M287.858,185.443c0-.011-.123,0-.312.1a1.373,1.373,0,0,0-.585.675,1.306,1.306,0,0,0,.149,1.314,1.4,1.4,0,0,0,2.547-.7,1.306,1.306,0,0,0-.538-1.208,1.376,1.376,0,0,0-.848-.284c-.214.008-.322.061-.319.072a2.81,2.81,0,0,0,.315.017,1.4,1.4,0,0,1,.752.321,1.157,1.157,0,0,1,.43,1.055,1.2,1.2,0,0,1-2.172.594,1.155,1.155,0,0,1-.168-1.127,1.414,1.414,0,0,1,.484-.658c.162-.118.269-.156.264-.175" transform="translate(-36.364 -23.496)" fill="#e0e0e0"/>
            <path id="Trazado_735688" data-name="Trazado 735688" d="M342.317,222.443a2.327,2.327,0,1,1-.158.066" transform="translate(-43.207 -28.182)" fill="#e0e0e0"/>
            <path id="Trazado_735689" data-name="Trazado 735689" d="M240.674,156.6a11.751,11.751,0,1,0,7.112-15.02,11.751,11.751,0,0,0-7.112,15.02" transform="translate(-30.423 -17.861)" fill="#fff"/>
            <path id="Trazado_735690" data-name="Trazado 735690" d="M240.659,156.569a22.708,22.708,0,0,1-.52-2.835,11.715,11.715,0,0,1,1.9-7.424,11.534,11.534,0,0,1,9.742-5.2,11.544,11.544,0,0,1,6.38,1.987,11.46,11.46,0,0,1,4.575,12.8,11.543,11.543,0,0,1-3.677,5.581,11.535,11.535,0,0,1-10.832,2.151,11.71,11.71,0,0,1-6.174-4.54,22.922,22.922,0,0,1-1.394-2.523,4.117,4.117,0,0,0,.24.713,5.331,5.331,0,0,0,.37.835,8.184,8.184,0,0,0,.618,1.085,11.84,11.84,0,0,0,11.712,5.223,11.97,11.97,0,0,0,5.759-2.581,11.972,11.972,0,0,0,3.855-5.8,11.918,11.918,0,0,0-4.774-13.36,11.97,11.97,0,0,0-6.657-2.042,11.977,11.977,0,0,0-6.09,1.651,11.815,11.815,0,0,0-3.957,3.821,11.7,11.7,0,0,0-1.794,7.64,8.142,8.142,0,0,0,.21,1.231,5.284,5.284,0,0,0,.243.881,4.1,4.1,0,0,0,.265.7" transform="translate(-30.407 -17.829)" fill="#e0e0e0"/>
            <path id="Trazado_735691" data-name="Trazado 735691" d="M213.487,124.221c2.06-2.761,12.987-2.511,28.431,1.67L223.181,151c-8.674-13.368-11.755-24.017-9.695-26.778" transform="translate(-26.985 -15.517)" fill="#e8e8e8"/>
            <path id="Trazado_735692" data-name="Trazado 735692" d="M213.48,124.21s-.11.172-.308.527a5.46,5.46,0,0,0-.347,1.755,21.063,21.063,0,0,0,1.269,6.774c1.881,5.714,5.787,13.642,12.179,22.472a105.674,105.674,0,0,0,11.775,13.443,90.757,90.757,0,0,0,7.648,6.482l8.531,6.384L292.7,210.788l.2.151.151-.2L306.064,193.3l13.014-17.446.151-.2-.2-.151-38.513-28.7-8.547-6.363-4.082-3.038c-1.374-.976-2.781-1.821-4.178-2.632a94.481,94.481,0,0,0-16.28-7.367,114.23,114.23,0,0,0-14.173-3.684,73.059,73.059,0,0,0-10.9-1.372,21.582,21.582,0,0,0-6.864.61,9.043,9.043,0,0,0-.962.4,5.472,5.472,0,0,0-.631.411c-.284.291-.417.444-.417.444s.159-.134.447-.408a6.144,6.144,0,0,1,.634-.385,9.533,9.533,0,0,1,.958-.376,22.062,22.062,0,0,1,6.829-.518,74.589,74.589,0,0,1,10.856,1.448,115.97,115.97,0,0,1,14.115,3.743,94.787,94.787,0,0,1,16.189,7.395c1.386.809,2.793,1.66,4.137,2.621l4.074,3.048,8.532,6.382L318.725,175.9l-.052-.353-13.019,17.443-13.011,17.441.354-.052-38.5-28.694-8.543-6.364a90.532,90.532,0,0,1-7.63-6.432,106,106,0,0,1-11.779-13.355c-6.405-8.772-10.35-16.66-12.275-22.329a21.524,21.524,0,0,1-1.347-6.713,5.71,5.71,0,0,1,.3-1.74c.181-.354.265-.545.265-.545" transform="translate(-26.979 -15.506)" fill="#e0e0e0"/>
            <path id="Trazado_735693" data-name="Trazado 735693" d="M254.129,162.055a9.836,9.836,0,0,0-.2-2.364c-.2-1.449-.557-3.437-.992-5.622-.424-2.084-.808-3.97-1.137-5.585a12.3,12.3,0,0,0-.553-2.3,9.837,9.837,0,0,0,.2,2.364c.2,1.449.557,3.437.992,5.623.424,2.083.808,3.969,1.137,5.584a12.3,12.3,0,0,0,.553,2.3" transform="translate(-31.847 -18.531)" fill="#e0e0e0"/>
            <path id="Trazado_735694" data-name="Trazado 735694" d="M256.685,159.712a26.439,26.439,0,0,0-.585-5.151,26.3,26.3,0,0,0-1.089-5.068,26.642,26.642,0,0,0,.585,5.151,26.61,26.61,0,0,0,1.089,5.068" transform="translate(-32.323 -18.951)" fill="#e0e0e0"/>
            <path id="Trazado_735695" data-name="Trazado 735695" d="M581.629,330.89,556.82,318.809a3.453,3.453,0,0,1-1.594-4.616l16.722-34.34a3.453,3.453,0,0,1,4.617-1.593l15.734,7.662,6.067,18.485L586.244,329.3a3.452,3.452,0,0,1-4.615,1.593" transform="translate(-70.341 -35.231)" fill="#ebebeb"/>
            <path id="Trazado_735696" data-name="Trazado 735696" d="M597,287.085,592.3,296.75a3.211,3.211,0,0,0,1.48,4.293l9.292,4.527Z" transform="translate(-75.044 -36.394)" fill="#e0e0e0"/>
            <path id="Trazado_735697" data-name="Trazado 735697" d="M588.514,295.728a81.618,81.618,0,0,1-11.478-5.59,81.644,81.644,0,0,1,11.478,5.59" transform="translate(-73.15 -36.779)" fill="#fff"/>
            <path id="Trazado_735698" data-name="Trazado 735698" d="M592.88,305.6c-.06.124-4.338-1.835-9.555-4.375s-9.4-4.7-9.336-4.825,4.337,1.835,9.555,4.375,9.4,4.7,9.336,4.825" transform="translate(-72.764 -37.573)" fill="#fff"/>
            <path id="Trazado_735699" data-name="Trazado 735699" d="M592.036,311.649c-.061.124-4.721-2.02-10.406-4.789s-10.247-5.115-10.187-5.239,4.719,2.02,10.406,4.79,10.246,5.115,10.187,5.239" transform="translate(-72.441 -38.236)" fill="#fff"/>
            <path id="Trazado_735700" data-name="Trazado 735700" d="M589.636,316.58c-.06.125-4.72-2.02-10.4-4.789s-10.248-5.115-10.187-5.238,4.718,2.019,10.405,4.789,10.246,5.115,10.186,5.239" transform="translate(-72.137 -38.861)" fill="#fff"/>
            <path id="Trazado_735701" data-name="Trazado 735701" d="M587.234,321.509c-.06.124-4.72-2.02-10.405-4.789s-10.247-5.115-10.187-5.239,4.719,2.02,10.406,4.79,10.247,5.115,10.186,5.238" transform="translate(-71.833 -39.486)" fill="#fff"/>
            <path id="Trazado_735702" data-name="Trazado 735702" d="M584.834,326.44c-.06.124-4.72-2.02-10.405-4.789s-10.247-5.115-10.186-5.238,4.718,2.019,10.405,4.789,10.246,5.115,10.186,5.238" transform="translate(-71.528 -40.111)" fill="#fff"/>
            <path id="Trazado_735703" data-name="Trazado 735703" d="M10.771,342.433v18.239a.907.907,0,0,1-.907.907H8.329a.907.907,0,0,0-.906.906v.363a.907.907,0,0,0,.906.906H9.864a.907.907,0,0,1,.907.907V376.27a.907.907,0,0,0,.906.907H72.45a.906.906,0,0,0,.906-.907v-10.4a.906.906,0,0,0-.906-.907H69.628a.908.908,0,0,1-.907-.907v-.846a.907.907,0,0,1,.907-.906H72.45a.906.906,0,0,0,.906-.907v-2.176a.908.908,0,0,1,.907-.907h.246a.907.907,0,1,0,0-1.814h-.633a.907.907,0,0,1-.906-.906V342.433a.907.907,0,0,0-.906-.907H11.677a.907.907,0,0,0-.906.907" transform="translate(-0.941 -43.295)" fill="#f5f5f5"/>
            <path id="Trazado_735704" data-name="Trazado 735704" d="M63.9,342.489v33.559a.907.907,0,0,0,.906.906H79.609a.907.907,0,0,0,.907-.906v-10.4a.907.907,0,0,0-.907-.907H76.787a.906.906,0,0,1-.906-.907v-.606a.907.907,0,0,1,.923-.907l2.79.05a.907.907,0,0,0,.923-.906v-2.159a.907.907,0,0,1,.907-.907h.267a.905.905,0,0,0,.907-.924l-.005-.269a.906.906,0,0,0-.884-.889l-.7-.017a.907.907,0,0,1-.885-.906V342.437a.907.907,0,0,0-.91-.907l-14.42.052a.907.907,0,0,0-.9.906" transform="translate(-8.1 -43.296)" fill="#e0e0e0"/>
            <path id="Trazado_735705" data-name="Trazado 735705" d="M57.908,366.621c0,.123-11.325.223-25.291.223s-25.295-.1-25.295-.223,11.322-.223,25.295-.223,25.291.1,25.291.223" transform="translate(-0.928 -46.448)" fill="#e0e0e0"/>
            <path id="Trazado_735706" data-name="Trazado 735706" d="M57.908,364.289c0,.123-11.325.223-25.291.223s-25.295-.1-25.295-.223,11.322-.222,25.295-.222,25.291.1,25.291.222" transform="translate(-0.928 -46.152)" fill="#e0e0e0"/>
            <path id="Trazado_735707" data-name="Trazado 735707" d="M61.628,358.011c0,.123-11.325.222-25.291.222s-25.295-.1-25.295-.222,11.322-.222,25.295-.222,25.291.1,25.291.222" transform="translate(-1.4 -45.357)" fill="#e0e0e0"/>
            <path id="Trazado_735708" data-name="Trazado 735708" d="M61.986,375.118c0,.123-11.325.223-25.291.223s-25.295-.1-25.295-.223,11.322-.222,25.295-.222,25.291.1,25.291.222" transform="translate(-1.445 -47.525)" fill="#e0e0e0"/>
            <path id="Trazado_735709" data-name="Trazado 735709" d="M16.178,382.125v18.239a.907.907,0,0,1-.906.907H13.736a.907.907,0,0,0-.906.906v.363a.907.907,0,0,0,.906.906h1.535a.907.907,0,0,1,.906.907v11.608a.907.907,0,0,0,.907.906H77.857a.907.907,0,0,0,.906-.906v-10.4a.907.907,0,0,0-.906-.907H75.035a.907.907,0,0,1-.907-.907V402.9a.907.907,0,0,1,.907-.906h2.822a.907.907,0,0,0,.906-.907v-2.176a.907.907,0,0,1,.907-.907h.246a.907.907,0,1,0,0-1.814h-.633a.907.907,0,0,1-.906-.906V382.125a.907.907,0,0,0-.907-.907H17.085a.907.907,0,0,0-.907.907" transform="translate(-1.626 -48.327)" fill="#f5f5f5"/>
            <path id="Trazado_735710" data-name="Trazado 735710" d="M69.3,382.181V415.74a.907.907,0,0,0,.906.906H85.016a.907.907,0,0,0,.907-.906v-10.4a.907.907,0,0,0-.907-.907H82.194a.907.907,0,0,1-.906-.906v-.607a.907.907,0,0,1,.923-.907l2.79.05a.907.907,0,0,0,.923-.906V399a.906.906,0,0,1,.907-.907H87.1a.905.905,0,0,0,.907-.924L88,396.9a.906.906,0,0,0-.884-.889l-.7-.017a.907.907,0,0,1-.885-.906V382.129a.907.907,0,0,0-.91-.907l-14.42.052a.908.908,0,0,0-.9.907" transform="translate(-8.786 -48.327)" fill="#e0e0e0"/>
            <path id="Trazado_735711" data-name="Trazado 735711" d="M63.315,406.313c0,.123-11.325.223-25.291.223s-25.295-.1-25.295-.223,11.322-.223,25.295-.223,25.291.1,25.291.223" transform="translate(-1.614 -51.48)" fill="#e0e0e0"/>
            <path id="Trazado_735712" data-name="Trazado 735712" d="M63.315,403.98c0,.123-11.325.223-25.291.223s-25.295-.1-25.295-.223,11.322-.222,25.295-.222,25.291.1,25.291.222" transform="translate(-1.614 -51.184)" fill="#e0e0e0"/>
            <path id="Trazado_735713" data-name="Trazado 735713" d="M67.035,397.7c0,.123-11.325.222-25.292.222s-25.294-.1-25.294-.222,11.322-.222,25.294-.222,25.292.1,25.292.222" transform="translate(-2.085 -50.388)" fill="#e0e0e0"/>
            <path id="Trazado_735714" data-name="Trazado 735714" d="M67.393,414.81c0,.123-11.325.223-25.292.223s-25.294-.1-25.294-.223,11.322-.222,25.294-.222,25.292.1,25.292.222" transform="translate(-2.131 -52.557)" fill="#e0e0e0"/>
            <path id="Trazado_735715" data-name="Trazado 735715" d="M9.9,421.281V439.52a.907.907,0,0,1-.906.907H7.454a.907.907,0,0,0-.906.906v.363a.907.907,0,0,0,.906.906H8.99a.907.907,0,0,1,.906.907v11.607a.907.907,0,0,0,.907.907H71.575a.907.907,0,0,0,.906-.907v-10.4a.907.907,0,0,0-.906-.906H68.753a.907.907,0,0,1-.907-.907v-.846a.906.906,0,0,1,.907-.906h2.822a.907.907,0,0,0,.906-.907V438.07a.907.907,0,0,1,.907-.907h.246a.907.907,0,1,0,0-1.814H73a.907.907,0,0,1-.906-.906V421.281a.907.907,0,0,0-.907-.907H10.8a.907.907,0,0,0-.907.907" transform="translate(-0.83 -53.291)" fill="#f5f5f5"/>
            <path id="Trazado_735716" data-name="Trazado 735716" d="M63.021,421.337V454.9a.907.907,0,0,0,.906.906H78.734a.907.907,0,0,0,.907-.906V444.5a.907.907,0,0,0-.907-.906H75.912a.907.907,0,0,1-.906-.907v-.606a.907.907,0,0,1,.923-.907l2.79.05a.906.906,0,0,0,.923-.906v-2.16a.906.906,0,0,1,.907-.906h.267a.905.905,0,0,0,.907-.924l-.005-.269a.906.906,0,0,0-.884-.889l-.7-.017a.907.907,0,0,1-.885-.906V421.285a.907.907,0,0,0-.91-.907l-14.42.052a.908.908,0,0,0-.9.907" transform="translate(-7.989 -53.291)" fill="#e0e0e0"/>
            <path id="Trazado_735717" data-name="Trazado 735717" d="M57.033,445.47c0,.123-11.325.223-25.291.223s-25.295-.1-25.295-.223,11.323-.223,25.295-.223,25.291.1,25.291.223" transform="translate(-0.817 -56.444)" fill="#e0e0e0"/>
            <path id="Trazado_735718" data-name="Trazado 735718" d="M57.033,443.137c0,.123-11.325.223-25.291.223s-25.295-.1-25.295-.223,11.323-.222,25.295-.222,25.291.1,25.291.222" transform="translate(-0.817 -56.148)" fill="#e0e0e0"/>
            <path id="Trazado_735719" data-name="Trazado 735719" d="M60.753,436.859c0,.123-11.325.222-25.291.222s-25.295-.1-25.295-.222,11.322-.222,25.295-.222,25.291.1,25.291.222" transform="translate(-1.289 -55.352)" fill="#e0e0e0"/>
            <path id="Trazado_735720" data-name="Trazado 735720" d="M61.111,453.967c0,.123-11.325.223-25.292.223s-25.294-.1-25.294-.223,11.322-.222,25.294-.222,25.292.1,25.292.222" transform="translate(-1.334 -57.521)" fill="#e0e0e0"/>
            <path id="Trazado_735721" data-name="Trazado 735721" d="M17.154,224.252v18.239a.907.907,0,0,1-.906.907H14.712a.907.907,0,0,0-.906.906v.363a.907.907,0,0,0,.906.906h1.535a.907.907,0,0,1,.906.907V258.09a.907.907,0,0,0,.906.906H78.833a.907.907,0,0,0,.906-.906v-10.4a.907.907,0,0,0-.906-.906H76.01a.907.907,0,0,1-.906-.907v-.846a.907.907,0,0,1,.906-.906h2.823a.907.907,0,0,0,.906-.907v-2.176a.907.907,0,0,1,.907-.907h.246a.907.907,0,1,0,0-1.814H80.26a.907.907,0,0,1-.906-.906V224.252a.906.906,0,0,0-.907-.906H18.06a.906.906,0,0,0-.906.906" transform="translate(-1.75 -28.313)" fill="#f5f5f5"/>
            <path id="Trazado_735722" data-name="Trazado 735722" d="M70.279,224.308v33.559a.907.907,0,0,0,.906.906H85.992a.907.907,0,0,0,.907-.906v-10.4a.907.907,0,0,0-.907-.907H83.17a.907.907,0,0,1-.906-.906v-.607a.907.907,0,0,1,.923-.907l2.79.05a.907.907,0,0,0,.923-.906v-2.159a.907.907,0,0,1,.908-.907h.266a.907.907,0,0,0,.908-.924l-.006-.269a.906.906,0,0,0-.884-.889l-.7-.017a.907.907,0,0,1-.885-.906V224.256a.907.907,0,0,0-.91-.907l-14.42.052a.908.908,0,0,0-.9.907" transform="translate(-8.909 -28.314)" fill="#e0e0e0"/>
            <path id="Trazado_735723" data-name="Trazado 735723" d="M64.291,248.441c0,.123-11.325.223-25.291.223s-25.295-.1-25.295-.223,11.322-.223,25.295-.223,25.291.1,25.291.223" transform="translate(-1.737 -31.466)" fill="#e0e0e0"/>
            <path id="Trazado_735724" data-name="Trazado 735724" d="M64.291,246.108c0,.123-11.325.223-25.291.223s-25.295-.1-25.295-.223,11.322-.222,25.295-.222,25.291.1,25.291.222" transform="translate(-1.737 -31.171)" fill="#e0e0e0"/>
            <path id="Trazado_735725" data-name="Trazado 735725" d="M68.011,239.83c0,.123-11.325.223-25.292.223s-25.294-.1-25.294-.223,11.322-.223,25.294-.223,25.292.1,25.292.223" transform="translate(-2.209 -30.375)" fill="#e0e0e0"/>
            <path id="Trazado_735726" data-name="Trazado 735726" d="M68.369,256.938c0,.123-11.325.223-25.291.223s-25.295-.1-25.295-.223,11.322-.222,25.295-.222,25.291.1,25.291.222" transform="translate(-2.254 -32.544)" fill="#e0e0e0"/>
            <path id="Trazado_735727" data-name="Trazado 735727" d="M22.561,263.944v18.239a.907.907,0,0,1-.907.907H20.119a.907.907,0,0,0-.906.906v.363a.907.907,0,0,0,.906.906h1.534a.907.907,0,0,1,.907.907v11.608a.907.907,0,0,0,.906.906H84.24a.907.907,0,0,0,.906-.906v-10.4a.907.907,0,0,0-.906-.907H81.417a.907.907,0,0,1-.906-.907v-.846a.907.907,0,0,1,.906-.906H84.24a.907.907,0,0,0,.906-.907v-2.176a.907.907,0,0,1,.907-.907H86.3a.907.907,0,1,0,0-1.814h-.633a.907.907,0,0,1-.906-.906V263.944a.907.907,0,0,0-.907-.907H23.467a.907.907,0,0,0-.906.907" transform="translate(-2.436 -33.345)" fill="#f5f5f5"/>
            <path id="Trazado_735728" data-name="Trazado 735728" d="M75.686,264v33.559a.907.907,0,0,0,.906.906H91.4a.907.907,0,0,0,.907-.906v-10.4a.907.907,0,0,0-.907-.907H88.577a.907.907,0,0,1-.906-.906v-.607a.906.906,0,0,1,.923-.906l2.79.049a.907.907,0,0,0,.923-.906v-2.159a.907.907,0,0,1,.908-.907h.266a.908.908,0,0,0,.908-.925l-.006-.269a.906.906,0,0,0-.884-.889l-.7-.017a.906.906,0,0,1-.885-.906V263.948a.907.907,0,0,0-.91-.907l-14.42.052a.907.907,0,0,0-.9.906" transform="translate(-9.595 -33.346)" fill="#e0e0e0"/>
            <path id="Trazado_735729" data-name="Trazado 735729" d="M69.7,288.132c0,.123-11.325.223-25.291.223s-25.295-.1-25.295-.223,11.323-.222,25.295-.222,25.291.1,25.291.222" transform="translate(-2.423 -36.498)" fill="#e0e0e0"/>
            <path id="Trazado_735730" data-name="Trazado 735730" d="M69.7,285.8c0,.123-11.325.223-25.291.223s-25.295-.1-25.295-.223,11.323-.222,25.295-.222,25.291.1,25.291.222" transform="translate(-2.423 -36.203)" fill="#e0e0e0"/>
            <path id="Trazado_735731" data-name="Trazado 735731" d="M73.418,279.522c0,.123-11.325.223-25.292.223s-25.294-.1-25.294-.223,11.322-.222,25.294-.222,25.292.1,25.292.222" transform="translate(-2.894 -35.407)" fill="#e0e0e0"/>
            <path id="Trazado_735732" data-name="Trazado 735732" d="M73.776,296.629c0,.124-11.325.223-25.292.223s-25.294-.1-25.294-.223,11.322-.221,25.294-.221,25.292.1,25.292.221" transform="translate(-2.94 -37.575)" fill="#e0e0e0"/>
            <path id="Trazado_735733" data-name="Trazado 735733" d="M16.279,303.1V321.34a.907.907,0,0,1-.906.907H13.837a.907.907,0,0,0-.906.906v.363a.907.907,0,0,0,.906.906h1.535a.907.907,0,0,1,.906.907v11.608a.907.907,0,0,0,.907.906H77.957a.907.907,0,0,0,.907-.906v-10.4a.907.907,0,0,0-.907-.907H75.135a.907.907,0,0,1-.906-.907v-.846a.907.907,0,0,1,.906-.906h2.822a.907.907,0,0,0,.907-.907v-2.176a.907.907,0,0,1,.907-.907h.246a.907.907,0,1,0,0-1.814h-.633a.907.907,0,0,1-.906-.906V303.1a.906.906,0,0,0-.907-.906H17.186a.906.906,0,0,0-.907.906" transform="translate(-1.639 -38.309)" fill="#f5f5f5"/>
            <path id="Trazado_735734" data-name="Trazado 735734" d="M69.4,303.156v33.559a.907.907,0,0,0,.906.906H85.117a.907.907,0,0,0,.907-.906v-10.4a.907.907,0,0,0-.907-.907H82.295a.907.907,0,0,1-.906-.906V323.9a.907.907,0,0,1,.923-.907l2.79.05a.907.907,0,0,0,.923-.906v-2.159a.906.906,0,0,1,.907-.907H87.2a.905.905,0,0,0,.907-.924l-.005-.269a.906.906,0,0,0-.884-.889l-.7-.017a.906.906,0,0,1-.885-.906V303.1a.907.907,0,0,0-.91-.907l-14.42.052a.907.907,0,0,0-.9.906" transform="translate(-8.798 -38.309)" fill="#e0e0e0"/>
            <path id="Trazado_735735" data-name="Trazado 735735" d="M63.416,327.289c0,.123-11.325.223-25.291.223s-25.295-.1-25.295-.223,11.323-.222,25.295-.222,25.291.1,25.291.222" transform="translate(-1.626 -41.462)" fill="#e0e0e0"/>
            <path id="Trazado_735736" data-name="Trazado 735736" d="M63.416,324.956c0,.123-11.325.222-25.291.222s-25.295-.1-25.295-.222,11.323-.222,25.295-.222,25.291.1,25.291.222" transform="translate(-1.626 -41.166)" fill="#e0e0e0"/>
            <path id="Trazado_735737" data-name="Trazado 735737" d="M67.136,318.678c0,.123-11.325.223-25.291.223s-25.295-.1-25.295-.223,11.322-.222,25.295-.222,25.291.1,25.291.222" transform="translate(-2.098 -40.37)" fill="#e0e0e0"/>
            <path id="Trazado_735738" data-name="Trazado 735738" d="M67.494,335.786c0,.123-11.325.223-25.292.223s-25.294-.1-25.294-.223,11.322-.222,25.294-.222,25.292.1,25.292.222" transform="translate(-2.143 -42.539)" fill="#e0e0e0"/>
            <rect id="Rectángulo_350569" data-name="Rectángulo 350569" width="15.044" height="46.987" transform="translate(299.705 38.422)" fill="#f5f5f5"/>
            <rect id="Rectángulo_350570" data-name="Rectángulo 350570" width="15.044" height="36.254" transform="translate(322.167 49.155)" fill="#f5f5f5"/>
            <rect id="Rectángulo_350571" data-name="Rectángulo 350571" width="15.044" height="21.53" transform="translate(342.963 63.879)" fill="#f5f5f5"/>
          </g>
        </g>
        <g id="Grupo_1033835" data-name="Grupo 1033835">
          <g id="Grupo_1033834" data-name="Grupo 1033834" clip-path="url(#clip-path)">
            <path id="Trazado_735739" data-name="Trazado 735739" d="M587.6,461.938c0,.126-131.55.227-293.787.227-162.294,0-293.816-.1-293.816-.227s131.522-.227,293.816-.227c162.238,0,293.787.1,293.787.227" transform="translate(0 -58.531)" fill="#263238"/>
          </g>
        </g>
        <g id="Grupo_1033837" data-name="Grupo 1033837">
          <g id="Grupo_1033836" data-name="Grupo 1033836" clip-path="url(#clip-path)">
            <path id="Trazado_735740" data-name="Trazado 735740" d="M559.684,204.726a32.319,32.319,0,1,1,32.833,31.942,32.436,32.436,0,0,1-32.833-31.942m47.766-.771a15.453,15.453,0,1,0-15.2,15.771,15.5,15.5,0,0,0,15.2-15.771" transform="translate(-70.95 -21.771)" fill="#455a64"/>
            <path id="Trazado_735741" data-name="Trazado 735741" d="M559.684,204.726a32.435,32.435,0,0,1,31.8-32.985l.271,16.942a15.524,15.524,0,0,0,.5,31.044l.271,16.942a32.425,32.425,0,0,1-32.833-31.942" transform="translate(-70.95 -21.771)" fill="#15d3ec"/>
            <path id="Trazado_735742" data-name="Trazado 735742" d="M592.774,168.756a36.926,36.926,0,0,1,37.81,36.784l-19.729.319c-.16-10.013-7.78-16.318-17.747-16.157Z" transform="translate(-75.146 -21.392)" fill="#12263f"/>
          </g>
        </g>
        <rect id="Rectángulo_350575" data-name="Rectángulo 350575" width="57.509" height="123.833" transform="translate(256.279 279.128)" fill="#ff9d00"/>
        <g id="Grupo_1033860" data-name="Grupo 1033860">
          <g id="Grupo_1033859" data-name="Grupo 1033859" clip-path="url(#clip-path)">
            <g id="Grupo_1033840" data-name="Grupo 1033840" transform="translate(295.961 279.128)" opacity="0.3">
              <g id="Grupo_1033839" data-name="Grupo 1033839">
                <g id="Grupo_1033838" data-name="Grupo 1033838" clip-path="url(#clip-path-6)">
                  <rect id="Rectángulo_350576" data-name="Rectángulo 350576" width="17.827" height="123.833"/>
                </g>
              </g>
            </g>
            <path id="Trazado_735743" data-name="Trazado 735743" d="M338.892,443.686c-.134,0-.244-27.41-.244-61.214s.109-61.22.244-61.22.244,27.4.244,61.22-.109,61.214-.244,61.214" transform="translate(-42.93 -40.725)" fill="#263238"/>
            <rect id="Rectángulo_350578" data-name="Rectángulo 350578" width="57.509" height="167.489" transform="translate(186.092 235.472)" fill="#ff9d00"/>
            <g id="Grupo_1033843" data-name="Grupo 1033843" transform="translate(225.774 235.472)" opacity="0.3">
              <g id="Grupo_1033842" data-name="Grupo 1033842">
                <g id="Grupo_1033841" data-name="Grupo 1033841" clip-path="url(#clip-path-7)">
                  <rect id="Rectángulo_350579" data-name="Rectángulo 350579" width="17.827" height="167.489"/>
                </g>
              </g>
            </g>
            <path id="Trazado_735744" data-name="Trazado 735744" d="M258.515,437.42c-.134,0-.244-37.074-.244-82.8,0-45.738.109-82.8.244-82.8s.244,37.065.244,82.8c0,45.721-.109,82.8-.244,82.8" transform="translate(-32.741 -34.459)" fill="#263238"/>
            <rect id="Rectángulo_350581" data-name="Rectángulo 350581" width="57.509" height="87.783" transform="translate(327.234 315.178)" fill="#ff9d00"/>
            <g id="Grupo_1033846" data-name="Grupo 1033846" transform="translate(366.917 315.178)" opacity="0.3">
              <g id="Grupo_1033845" data-name="Grupo 1033845">
                <g id="Grupo_1033844" data-name="Grupo 1033844" clip-path="url(#clip-path-8)">
                  <rect id="Rectángulo_350582" data-name="Rectángulo 350582" width="17.827" height="87.783" transform="translate(0)"/>
                </g>
              </g>
            </g>
            <path id="Trazado_735745" data-name="Trazado 735745" d="M420.148,448.86c-.134,0-.244-19.43-.244-43.394s.109-43.4.244-43.4.244,19.426.244,43.4-.109,43.394-.244,43.394" transform="translate(-53.231 -45.899)" fill="#263238"/>
            <rect id="Rectángulo_350584" data-name="Rectángulo 350584" width="57.509" height="47.899" transform="translate(396.655 355.062)" fill="#ff9d00"/>
            <g id="Grupo_1033849" data-name="Grupo 1033849" transform="translate(436.337 355.061)" opacity="0.3">
              <g id="Grupo_1033848" data-name="Grupo 1033848">
                <g id="Grupo_1033847" data-name="Grupo 1033847" clip-path="url(#clip-path-9)">
                  <rect id="Rectángulo_350585" data-name="Rectángulo 350585" width="17.827" height="47.899" transform="translate(0 0)"/>
                </g>
              </g>
            </g>
            <path id="Trazado_735746" data-name="Trazado 735746" d="M499.646,454.585c-.134,0-.244-10.6-.244-23.679s.109-23.68.244-23.68.244,10.6.244,23.68-.109,23.679-.244,23.679" transform="translate(-63.309 -51.624)" fill="#263238"/>
            <rect id="Rectángulo_350587" data-name="Rectángulo 350587" width="57.509" height="31.325" transform="translate(466.842 371.636)" fill="#ff9d00"/>
            <g id="Grupo_1033852" data-name="Grupo 1033852" transform="translate(506.524 371.636)" opacity="0.3">
              <g id="Grupo_1033851" data-name="Grupo 1033851">
                <g id="Grupo_1033850" data-name="Grupo 1033850" clip-path="url(#clip-path-10)">
                  <rect id="Rectángulo_350588" data-name="Rectángulo 350588" width="17.827" height="31.325" transform="translate(0.001 0)"/>
                </g>
              </g>
            </g>
            <path id="Trazado_735747" data-name="Trazado 735747" d="M580.023,456.964c-.134,0-.244-6.933-.244-15.485s.109-15.487.244-15.487.244,6.933.244,15.487-.109,15.485-.244,15.485" transform="translate(-73.498 -54.003)" fill="#263238"/>
            <rect id="Rectángulo_350590" data-name="Rectángulo 350590" width="57.509" height="222.518" transform="translate(115.905 180.411)" fill="#ff9d00"/>
            <g id="Grupo_1033855" data-name="Grupo 1033855" transform="translate(155.586 180.411)" opacity="0.3">
              <g id="Grupo_1033854" data-name="Grupo 1033854">
                <g id="Grupo_1033853" data-name="Grupo 1033853" clip-path="url(#clip-path-11)">
                  <rect id="Rectángulo_350591" data-name="Rectángulo 350591" width="17.827" height="222.518" transform="translate(0.001)"/>
                </g>
              </g>
            </g>
            <path id="Trazado_735748" data-name="Trazado 735748" d="M178.138,430.39c-.134,0-.244-49.456-.244-110.451,0-61.014.109-110.46.244-110.46s.244,49.446.244,110.46c0,60.994-.109,110.451-.244,110.451" transform="translate(-22.552 -26.556)" fill="#263238"/>
            <path id="Trazado_735822" data-name="Trazado 735822" d="M0,0H57.509V268.587H0Z" transform="translate(45.717 135.248)" fill="#ff9d00"/>
            <g id="Grupo_1033858" data-name="Grupo 1033858" transform="translate(85.399 135.248)" opacity="0.3">
              <g id="Grupo_1033857" data-name="Grupo 1033857">
                <g id="Grupo_1033856" data-name="Grupo 1033856" clip-path="url(#clip-path-12)">
                  <rect id="Rectángulo_350594" data-name="Rectángulo 350594" width="17.827" height="268.587" transform="translate(0)"/>
                </g>
              </g>
            </g>
            <path id="Trazado_735749" data-name="Trazado 735749" d="M97.762,423.909c-.134,0-.244-59.451-.244-132.77,0-73.345.109-132.783.244-132.783s.244,59.438.244,132.783c0,73.319-.109,132.77-.244,132.77" transform="translate(-12.362 -20.075)" fill="#263238"/>
          </g>
        </g>
        <g id="Grupo_1033868" data-name="Grupo 1033868">
          <g id="Grupo_1033867" data-name="Grupo 1033867" clip-path="url(#clip-path)">
            <path id="Trazado_735750" data-name="Trazado 735750" d="M112.4,87.622A36.554,36.554,0,1,1,75.845,51.069,36.554,36.554,0,0,1,112.4,87.622" transform="translate(-4.981 -6.474)" fill="#582ce3"/>
            <path id="Trazado_735752" data-name="Trazado 735752" d="M112.4,83A36.554,36.554,0,1,1,75.845,46.445,36.554,36.554,0,0,1,112.4,83" transform="translate(-4.981 -5.888)" fill="#7e5ee3"/>
            <path id="Trazado_735753" data-name="Trazado 735753" d="M102.081,84.751A24.484,24.484,0,1,1,77.6,60.266a24.485,24.485,0,0,1,24.485,24.485" transform="translate(-6.733 -7.64)" fill="#fff"/>
            <path id="Trazado_735754" data-name="Trazado 735754" d="M91.394,86.566A11.982,11.982,0,1,1,79.412,74.584,11.981,11.981,0,0,1,91.394,86.566" transform="translate(-8.548 -9.455)" fill="#7e5ee3"/>
            <path id="Trazado_735755" data-name="Trazado 735755" d="M114.662,50.5l-.993-7.8,7.938-8.5.571,8.416Z" transform="translate(-14.41 -4.336)" fill="#455a64"/>
            <path id="Trazado_735756" data-name="Trazado 735756" d="M131.977,45.66,123.924,45l-8.072,7.766,8.074.863Z" transform="translate(-14.686 -5.705)" fill="#455a64"/>
            <g id="Grupo_1033866" data-name="Grupo 1033866" transform="translate(72.465 51.328)" opacity="0.3">
              <g id="Grupo_1033865" data-name="Grupo 1033865">
                <g id="Grupo_1033864" data-name="Grupo 1033864" clip-path="url(#clip-path-14)">
                  <path id="Trazado_735757" data-name="Trazado 735757" d="M82.985,84.387l27.95-21.338a34.052,34.052,0,0,0-3.5-4.268L82.985,82.486Z" transform="translate(-82.985 -58.78)"/>
                </g>
              </g>
            </g>
            <path id="Trazado_735758" data-name="Trazado 735758" d="M118.684,41.377,105.862,54.37,85.52,74.982,80.844,79.72c-1.481,1.5.833,3.819,2.316,2.316L95.982,69.043l20.342-20.612L121,43.693c1.481-1.5-.832-3.819-2.316-2.316" transform="translate(-10.188 -5.184)" fill="#263238"/>
            <path id="Trazado_735759" data-name="Trazado 735759" d="M81.118,31.244c-.126,0-.227-6.995-.227-15.621S80.992,0,81.118,0s.227,6.994.227,15.623-.1,15.621-.227,15.621" transform="translate(-10.254)" fill="#263238"/>
            <path id="Trazado_735760" data-name="Trazado 735760" d="M106.509,17.112c.1.075-2.4,3.583-5.579,7.833s-5.842,7.636-5.943,7.56,2.4-3.581,5.58-7.833,5.842-7.636,5.942-7.56" transform="translate(-12.041 -2.169)" fill="#263238"/>
            <path id="Trazado_735761" data-name="Trazado 735761" d="M53.8,16.286c.11-.061,2.278,3.66,4.842,8.308s4.554,8.469,4.444,8.529-2.277-3.659-4.842-8.309-4.554-8.468-4.444-8.528" transform="translate(-6.819 -2.064)" fill="#263238"/>
          </g>
        </g>
        <g id="Grupo_1033870" data-name="Grupo 1033870">
          <g id="Grupo_1033869" data-name="Grupo 1033869" clip-path="url(#clip-path)">
            <path id="Trazado_735762" data-name="Trazado 735762" d="M500.589,120.341l6.974-.814a22.426,22.426,0,1,0-4.52-6.642l-.008-.01Z" transform="translate(-63.459 -10.321)" fill="#fff"/>
            <path id="Trazado_735763" data-name="Trazado 735763" d="M500.589,120.311s.039-.151.136-.466l.442-1.419,1.773-5.611.055-.175.119.142.008.01-.17.1a22.393,22.393,0,0,1-1.912-10.97,21.99,21.99,0,0,1,1.733-7,22.441,22.441,0,0,1,11.785-11.879A22.57,22.57,0,0,1,545.9,100.838a23,23,0,0,1-1.057,10.35,22.212,22.212,0,0,1-5.163,8.322,22.582,22.582,0,0,1-22.738,5.823,22.3,22.3,0,0,1-9.45-5.769l.079.028-5.231.55-1.322.133c-.294.029-.433.036-.433.036s.166-.029.471-.07l1.345-.178,5.148-.661.046-.006.033.034a22.286,22.286,0,0,0,31.757-.207,21.847,21.847,0,0,0,5.046-8.177,22.586,22.586,0,0,0,1.023-10.15A22.181,22.181,0,0,0,523.98,81.623a22.19,22.19,0,0,0-20.889,13.445,21.788,21.788,0,0,0-1.749,6.884,22.393,22.393,0,0,0,1.794,10.863l.294.676-.464-.571-.008-.01.173-.032c-.812,2.392-1.438,4.235-1.87,5.5l-.492,1.433c-.113.324-.18.5-.18.5" transform="translate(-63.459 -10.291)" fill="#263238"/>
            <path id="Trazado_735764" data-name="Trazado 735764" d="M514.216,106.721l2.758-2.952,5.673,4.707L533.1,97.709l2.748,2.765L522.425,114Z" transform="translate(-65.187 -12.386)" fill="#7e5ee3"/>
          </g>
        </g>
        <g id="Grupo_1033875" data-name="Grupo 1033875">
          <g id="Grupo_1033874" data-name="Grupo 1033874" clip-path="url(#clip-path)">
            <path id="Trazado_735765" data-name="Trazado 735765" d="M383.059,142.374a26.782,26.782,0,0,0-4.24-3.747,10.1,10.1,0,0,0-2.545-.969s-12.983-3.582-15.713-3.824-2.453,1.989.084,2.409a56.239,56.239,0,0,1,7.928,2.6,1.474,1.474,0,0,0-1.191,1.346,1.251,1.251,0,0,0,.727,1.4,2.084,2.084,0,0,0-.09,3.063s-.944.767-.644,1.63a7.371,7.371,0,0,0,1.637,2.077s5.55,3.51,6.747,3.607,2.583.36,2.583.36l1.953,1.413,5.239-8.221a24.449,24.449,0,0,0-2.475-3.151" transform="translate(-45.463 -16.964)" fill="#ffc09d"/>
            <path id="Trazado_735766" data-name="Trazado 735766" d="M370.009,139.515a4.63,4.63,0,0,0,1.12.3,4.705,4.705,0,0,0,1.154.16,4.643,4.643,0,0,0-1.12-.3,4.7,4.7,0,0,0-1.154-.16" transform="translate(-46.906 -17.685)" fill="#ff9b6c"/>
            <path id="Trazado_735767" data-name="Trazado 735767" d="M369.387,142.7a6.352,6.352,0,0,0,1.089.359,6.421,6.421,0,0,0,1.113.3,3.477,3.477,0,0,0-1.06-.436,3.669,3.669,0,0,0-1.141-.221" transform="translate(-46.827 -18.089)" fill="#ff9b6c"/>
            <path id="Trazado_735768" data-name="Trazado 735768" d="M369.026,145.716a8.271,8.271,0,0,0,1.174.51,8.6,8.6,0,0,0,1.195.47,4.008,4.008,0,0,0-1.122-.6,4.392,4.392,0,0,0-1.246-.38" transform="translate(-46.781 -18.472)" fill="#ff9b6c"/>
            <path id="Trazado_735769" data-name="Trazado 735769" d="M493.133,286.413s-2.31-21.21-7.277-23.568-11.851-3.905-13.728-.731a37.6,37.6,0,0,0-4.582,13.032,80.553,80.553,0,0,0-.321,12.829l5.659-.631s-.278-21.137,1.442-24.262,10.436-.615,11.39,3.15,3.047,20.658,3.047,20.658Z" transform="translate(-59.214 -33.001)" fill="#455a64"/>
            <path id="Trazado_735770" data-name="Trazado 735770" d="M510.324,318.544c-.265-8.751-1.1-28.036-1.476-36.519a4.307,4.307,0,0,0-4.329-4.117l-52.023.312a4.308,4.308,0,0,0-4.281,4.185L447.2,318.332a4.308,4.308,0,0,0,4.288,4.43l54.514.22a4.307,4.307,0,0,0,4.323-4.439" transform="translate(-56.691 -35.23)" fill="#455a64"/>
            <path id="Trazado_735771" data-name="Trazado 735771" d="M452.5,293.19s-.008.126-.01.385c0,.276,0,.661,0,1.158,0,1.043.008,2.551.013,4.487.024,3.935.058,9.6.1,16.6q.005.658.01,1.332a2.563,2.563,0,0,0,.3,1.378,2.352,2.352,0,0,0,1.072.982,3.07,3.07,0,0,0,1.449.213l5.948-.007,13.125-.024,14.5-.033,7.671-.021,3.923-.011.989,0a4.449,4.449,0,0,0,1.031-.065,2.394,2.394,0,0,0,1.85-2.221c.01-.312-.008-.578-.01-.869l-.037-1.7q-.035-1.7-.072-3.379-.072-3.357-.142-6.62c-.094-4.346-.186-8.55-.273-12.565l0-.19-.19.011c-14.946.911-27.768,1.16-36.842,1.2-4.537.021-8.139,0-10.607-.022l-2.842-.017h-.722a1.836,1.836,0,0,0-.237.007s.091.009.258.017l.734.029,2.808.085c2.467.057,6.07.116,10.609.127,9.078.024,21.908-.176,36.865-1.06l-.195-.179c.082,4.015.168,8.219.256,12.566q.068,3.259.138,6.62.035,1.678.071,3.378.017.85.036,1.7a3.291,3.291,0,0,1-.176,1.6,2.009,2.009,0,0,1-1.363,1.106,4.157,4.157,0,0,1-.945.055l-.989,0-3.923.013-7.671.027-14.5.056-13.125.059-5.948.03a2.783,2.783,0,0,1-1.326-.181,2.075,2.075,0,0,1-.943-.857,2.274,2.274,0,0,1-.273-1.237q-.009-.668-.017-1.321c-.1-6.963-.19-12.6-.249-16.521-.035-1.95-.062-3.469-.081-4.519q-.017-.761-.027-1.183c-.008-.268-.018-.413-.018-.413" transform="translate(-57.362 -37.018)" fill="#263238"/>
            <path id="Trazado_735772" data-name="Trazado 735772" d="M468.929,316.988c0-.026-.32-.006-.91-.124a4.581,4.581,0,0,1-2.253-1.247,4.732,4.732,0,0,1-1.267-3.781c-.006-1.636-.014-3.494-.022-5.545q-.008-1.542-.017-3.224a4.575,4.575,0,0,1,.926-3.18,4.3,4.3,0,0,1,3.09-1.641c1.264-.037,2.6-.025,3.957-.042l17.671-.146a4.314,4.314,0,0,1,3.71,2.066,4.219,4.219,0,0,1,.622,2.057q.014,1.124.029,2.23.024,2.216.045,4.351.012,1.066.023,2.11a17.745,17.745,0,0,1-.031,2.033,4.324,4.324,0,0,1-3.735,3.687c-.588.062-1.224.034-1.822.052l-6.719.085-9.729.151-2.645.06-.688.026a.118.118,0,1,0,0,.039l.688.013,2.646.013,9.73-.027,6.719-.038c.61-.015,1.2.019,1.859-.044a4.665,4.665,0,0,0,4.05-3.968,17.78,17.78,0,0,0,.042-2.086q-.008-1.043-.017-2.11-.017-2.132-.034-4.351-.013-1.112-.026-2.242a4.615,4.615,0,0,0-.676-2.244,4.7,4.7,0,0,0-4.045-2.254l-17.671.176c-1.362.022-2.671.014-3.978.059a4.628,4.628,0,0,0-3.32,1.783,4.887,4.887,0,0,0-.971,3.382c.014,1.12.028,2.2.042,3.224.029,2.05.056,3.908.079,5.544.005.407.008.8.046,1.19a4.663,4.663,0,0,0,.273,1.08,4.519,4.519,0,0,0,3.4,2.833,3.433,3.433,0,0,0,.925.047" transform="translate(-58.839 -37.735)" fill="#263238"/>
            <g id="Grupo_1033873" data-name="Grupo 1033873" transform="translate(397.865 282.364)" opacity="0.3">
              <g id="Grupo_1033872" data-name="Grupo 1033872">
                <g id="Grupo_1033871" data-name="Grupo 1033871" clip-path="url(#clip-path-17)">
                  <path id="Trazado_735773" data-name="Trazado 735773" d="M503.256,323.356a83.116,83.116,0,0,1-47.632.112Z" transform="translate(-455.624 -323.356)"/>
                </g>
              </g>
            </g>
            <path id="Trazado_735774" data-name="Trazado 735774" d="M475.991,303.964l6.466-.059a1.579,1.579,0,0,0,1.564-1.593l0-.327a1.579,1.579,0,0,0-1.594-1.564l-6.465.059a1.579,1.579,0,0,0-1.565,1.593l0,.326a1.58,1.58,0,0,0,1.594,1.565" transform="translate(-60.139 -38.084)" fill="#e0e0e0"/>
            <path id="Trazado_735775" data-name="Trazado 735775" d="M476.129,253.113a14.943,14.943,0,0,0-2.367,2.636,41.4,41.4,0,0,0-1.7,5.757s.865.782,2.415-1.686a22.788,22.788,0,0,0,2-3.709Z" transform="translate(-59.843 -32.087)" fill="#ffc09d"/>
            <path id="Trazado_735776" data-name="Trazado 735776" d="M484.032,242.473l-2.063,3.641-5.691,5.748-2.139,8.531a3.77,3.77,0,0,0,.292,2.684,1.332,1.332,0,0,0,.573.635c.638.266,2.439-.656,2.439-.656s1.313,1.631,2.715.668c0,0,2.023,1.042,3.145.031,0,0,1.283,1.016,2.238.383s3.689-4.619,3.689-4.619l3.663-13.146Z" transform="translate(-60.091 -30.738)" fill="#ffc09d"/>
            <path id="Trazado_735777" data-name="Trazado 735777" d="M498.338,160.115a9.286,9.286,0,0,1,3.812,7.133c.147,3.584,2.834,27.875,2.6,34.411s-11.365,37.469-11.365,37.469l-12.287-3.7,10.625-34.588-1.051-21.71Z" transform="translate(-60.988 -20.298)" fill="#ebebeb"/>
            <path id="Trazado_735778" data-name="Trazado 735778" d="M473.113,98.527a3.389,3.389,0,0,0-3.45-1.825,4.652,4.652,0,0,0-5.692-.089,4.221,4.221,0,0,0-4.049-.217,4.156,4.156,0,0,0-2.267,3.334A3.539,3.539,0,0,0,454,101.4a3.477,3.477,0,0,0,.45,3.962,3.273,3.273,0,0,0,1.167,6.412l16.742-9.443a3.334,3.334,0,0,0,.75-3.806" transform="translate(-57.308 -12.13)" fill="#263238"/>
            <path id="Trazado_735779" data-name="Trazado 735779" d="M453.692,130.524c.082-3.6.858-11,1.639-17.691a13.974,13.974,0,0,1,14.406-12.286l.725.025c7.8.723,11.541,7.7,10.6,15.412l-2.2,24.321-15.1,13.613-3.29-9.621.524-4.9s-7.475-1.418-7.306-8.873" transform="translate(-57.514 -12.745)" fill="#ffc09d"/>
            <path id="Trazado_735780" data-name="Trazado 735780" d="M461.983,144.659a18.361,18.361,0,0,0,9.946-2.518s-2.5,5.282-9.978,4.353Z" transform="translate(-58.561 -18.019)" fill="#ff9b6c"/>
            <path id="Trazado_735781" data-name="Trazado 735781" d="M457.8,121.9a1.067,1.067,0,0,0,1,1.109,1.025,1.025,0,0,0,1.14-.921,1.07,1.07,0,0,0-1-1.11,1.026,1.026,0,0,0-1.14.922" transform="translate(-58.035 -15.336)" fill="#263238"/>
            <path id="Trazado_735782" data-name="Trazado 735782" d="M457.27,118.7c.128.143.961-.425,2.117-.382,1.154.026,1.98.646,2.111.51.064-.06-.063-.315-.423-.595a2.961,2.961,0,0,0-1.684-.579,2.838,2.838,0,0,0-1.691.478c-.364.257-.493.5-.43.568" transform="translate(-57.966 -14.915)" fill="#263238"/>
            <path id="Trazado_735783" data-name="Trazado 735783" d="M469.738,122.543a1.067,1.067,0,0,0,1,1.109,1.024,1.024,0,0,0,1.14-.921,1.07,1.07,0,0,0-1-1.11,1.024,1.024,0,0,0-1.14.922" transform="translate(-59.548 -15.417)" fill="#263238"/>
            <path id="Trazado_735784" data-name="Trazado 735784" d="M470.26,119.4c.128.143.963-.425,2.117-.382,1.154.026,1.981.644,2.111.508.064-.059-.062-.314-.424-.594a2.96,2.96,0,0,0-1.684-.579,2.841,2.841,0,0,0-1.691.477c-.363.258-.493.5-.431.569" transform="translate(-59.613 -15.003)" fill="#263238"/>
            <path id="Trazado_735785" data-name="Trazado 735785" d="M464.7,127.728a7.65,7.65,0,0,0-1.863-.4c-.293-.04-.571-.107-.614-.309a1.478,1.478,0,0,1,.228-.86q.452-1.047.95-2.2a38.251,38.251,0,0,0,2.163-5.756,38.1,38.1,0,0,0-2.625,5.57q-.479,1.157-.914,2.211a1.68,1.68,0,0,0-.193,1.142.738.738,0,0,0,.469.444,2.036,2.036,0,0,0,.5.086,7.636,7.636,0,0,0,1.9.068" transform="translate(-58.54 -14.985)" fill="#263238"/>
            <path id="Trazado_735786" data-name="Trazado 735786" d="M468.431,130.152c-.188-.017-.233,1.225-1.337,2.07s-2.434.663-2.449.836c-.02.078.289.252.852.287a3.146,3.146,0,0,0,2.042-.628,2.7,2.7,0,0,0,1.041-1.739c.065-.519-.063-.831-.149-.827" transform="translate(-58.903 -16.499)" fill="#263238"/>
            <path id="Trazado_735787" data-name="Trazado 735787" d="M470.1,114.286c.1.315,1.261.208,2.61.417,1.354.182,2.432.613,2.621.34.085-.131-.1-.431-.527-.747a4.625,4.625,0,0,0-3.985-.575c-.5.182-.763.417-.72.567" transform="translate(-59.594 -14.389)" fill="#263238"/>
            <path id="Trazado_735788" data-name="Trazado 735788" d="M457.888,114.917c.194.267,1,.024,1.956.045.958-.012,1.76.237,1.956-.03.086-.129-.031-.394-.377-.652a2.852,2.852,0,0,0-3.152-.012c-.348.256-.468.52-.382.65" transform="translate(-58.043 -14.426)" fill="#263238"/>
            <path id="Trazado_735789" data-name="Trazado 735789" d="M456.534,109.3s2.146-4.6,4.453-5.609c2.794-1.223,3.871,1.808,6.514,1.172s5.31-1.809,7.915.29c2.851,2.3,1.425,3.792,1.49,7.1.263,13.43,2.6,17.307,3.522,11.017.1-.689,2.056-1.173,2.446-4.085.506-3.777.814-8.373.056-11.093a10.624,10.624,0,0,0-4.164-5.71c-3.594-2.854-8.66-3.087-12.113-2.862s-10.226,3.923-10.118,9.777" transform="translate(-57.874 -12.609)" fill="#263238"/>
            <path id="Trazado_735790" data-name="Trazado 735790" d="M483.3,126.21a2.035,2.035,0,0,1,2.27-1.873c1.4.181,2.929,1.023,2.736,3.892-.343,5.089-5.424,3.7-5.424,3.551,0-.1.255-3.442.417-5.57" transform="translate(-61.214 -15.76)" fill="#ffc09d"/>
            <path id="Trazado_735791" data-name="Trazado 735791" d="M484.305,130.18c.024-.015.086.068.231.147a.9.9,0,0,0,.667.058,2.2,2.2,0,0,0,1.156-1.9,2.912,2.912,0,0,0-.164-1.285,1.03,1.03,0,0,0-.627-.725.458.458,0,0,0-.544.208c-.078.137-.052.241-.08.248s-.1-.093-.049-.3a.575.575,0,0,1,.224-.306.678.678,0,0,1,.5-.1,1.257,1.257,0,0,1,.881.851,3,3,0,0,1,.214,1.439,2.308,2.308,0,0,1-1.452,2.111.969.969,0,0,1-.809-.189c-.15-.136-.169-.252-.151-.26" transform="translate(-61.394 -16)" fill="#ff9b6c"/>
            <path id="Trazado_735792" data-name="Trazado 735792" d="M480.742,112.932a4.9,4.9,0,0,1-2.211.921,1.677,1.677,0,0,1-1.818-1.233c-.048-.357.054-.765-.172-1.047-.269-.337-.79-.252-1.223-.222A3.277,3.277,0,0,1,472,108.9a1.387,1.387,0,0,1-1.853.109,7.36,7.36,0,0,1-1.347-1.533,2.118,2.118,0,0,0-1.733-.936,5.156,5.156,0,0,1-1.126.206c-.672-.083-.974-.878-1.053-1.546s-.131-1.444-.689-1.825a2.714,2.714,0,0,0-1.836-.114c-.624.07-1.421-.1-1.559-.711a1.2,1.2,0,0,1,.262-.916,3.347,3.347,0,0,1,3.971-1.113,4.527,4.527,0,0,1,8.317-.581,4.6,4.6,0,0,1,7.257,1.908,3.416,3.416,0,0,1,3.425,1.285,3.349,3.349,0,0,1,.148,3.628,3.126,3.126,0,0,1,1.646,2.548,1.8,1.8,0,0,1-2.107,1.757,1.882,1.882,0,0,1-.81,2.369,1.915,1.915,0,0,1-2.432-.662" transform="translate(-58.413 -12.356)" fill="#263238"/>
            <path id="Trazado_735793" data-name="Trazado 735793" d="M486.384,113.046a1.216,1.216,0,0,1-.355.968,1.655,1.655,0,0,1-1.051.573,1.79,1.79,0,0,1-1.45-.472l.219-.025a5.108,5.108,0,0,1-1.071,1.236,2.953,2.953,0,0,1-.956.545,2.3,2.3,0,0,1-2.49-.835,2.927,2.927,0,0,1-.379-1.075.98.98,0,0,1-.024-.413c.022,0,.06.138.137.388a3.417,3.417,0,0,0,.44.985,2.109,2.109,0,0,0,3.085.178,5.135,5.135,0,0,0,1.02-1.157l.1-.147.123.122a1.568,1.568,0,0,0,1.225.434,1.518,1.518,0,0,0,.947-.453,2.478,2.478,0,0,0,.485-.851" transform="translate(-60.699 -14.331)" fill="#455a64"/>
            <path id="Trazado_735794" data-name="Trazado 735794" d="M470.764,130.826c-.084,0-.1-.541-.518-1-.405-.473-.941-.555-.934-.637,0-.036.147-.073.378-.026a1.489,1.489,0,0,1,.778.47,1.465,1.465,0,0,1,.369.824c.018.234-.038.372-.074.368" transform="translate(-59.494 -16.371)" fill="#ff9b6c"/>
            <path id="Trazado_735795" data-name="Trazado 735795" d="M471.4,129.385c-.073.041-.253-.143-.522-.272s-.521-.174-.531-.256.31-.185.664-.006.463.5.389.534" transform="translate(-59.625 -16.322)" fill="#ff9b6c"/>
            <path id="Trazado_735796" data-name="Trazado 735796" d="M460.574,96.649c-.023-.05-.555.283-.97,1.127a4.322,4.322,0,0,0-.458,1.571,2.86,2.86,0,0,0,.53,1.955,4.176,4.176,0,0,0,1.6,1.233,11.642,11.642,0,0,0,1.517.571,6.68,6.68,0,0,0,1.436.366,5.518,5.518,0,0,0-1.351-.608c-.422-.167-.926-.361-1.451-.628a4.084,4.084,0,0,1-1.457-1.147,2.622,2.622,0,0,1-.49-1.72,4.53,4.53,0,0,1,.357-1.487,6.1,6.1,0,0,1,.735-1.234" transform="translate(-58.204 -12.252)" fill="#e0e0e0"/>
            <path id="Trazado_735797" data-name="Trazado 735797" d="M457.045,100.486c-.042,0-.074.323.064.82a3.742,3.742,0,0,0,1.065,1.684,3.783,3.783,0,0,0,1.777.921c.511.1.83.04.83,0,0-.059-.306-.094-.762-.246a4.537,4.537,0,0,1-1.6-.94,4.486,4.486,0,0,1-1.07-1.5c-.19-.44-.249-.741-.307-.734" transform="translate(-57.935 -12.739)" fill="#e0e0e0"/>
            <path id="Trazado_735798" data-name="Trazado 735798" d="M449.815,154.763,442.426,213.8c-.359,2.871,2.241,8.092,5.046,8.8l37.357,4.069a3.852,3.852,0,0,0,4.371-3.633c.935-8.009,1.575-24.834,2.73-35.795,1.273-12.084,3.592-27.447.783-29.629a100.5,100.5,0,0,0-14.305-8.75l-.626-5.487s-16.658,1.921-19.495,4.381l-1.321,5.3Z" transform="translate(-56.082 -18.176)" fill="#d2e1f1"/>
            <path id="Trazado_735799" data-name="Trazado 735799" d="M448,153.8,413.73,157.04l-26.651-13.057-5.637,11.707,4.079,2.122c6.571,4.193,18.553,12.992,23.544,15.2,7,3.089,42.133-.9,42.133-.9Z" transform="translate(-48.355 -18.253)" fill="#d2e1f1"/>
            <path id="Trazado_735800" data-name="Trazado 735800" d="M443.105,175.015a18.109,18.109,0,0,0,2.258-.324,11.112,11.112,0,0,0,5.313-3,12.811,12.811,0,0,0,3.581-8.2,10.414,10.414,0,0,0-1.1-5.191,3.965,3.965,0,0,0-1.828-1.975,6.077,6.077,0,0,0-2.826-.346c-8.028.591-15.3,1.308-20.562,1.755l-6.233.536-1.7.13a2.976,2.976,0,0,1-.595.019,2.878,2.878,0,0,1,.585-.11l1.688-.216,6.22-.68c5.259-.529,12.512-1.3,20.567-1.889a6.469,6.469,0,0,1,3.038.387,4.4,4.4,0,0,1,2.037,2.185,10.8,10.8,0,0,1,1.121,5.416,13.03,13.03,0,0,1-3.773,8.406,11,11,0,0,1-5.5,2.949,9.409,9.409,0,0,1-1.7.184,2.618,2.618,0,0,1-.6-.034" transform="translate(-53.17 -19.712)" fill="#263238"/>
            <path id="Trazado_735801" data-name="Trazado 735801" d="M480.522,149.656a31.7,31.7,0,0,1-3.139.627c-1.94.369-4.6.98-7.528,1.693s-5.618,1.279-7.58,1.567c-.982.145-1.778.244-2.331.285a3.208,3.208,0,0,1-.864.026,31.638,31.638,0,0,1,3.139-.627c1.939-.369,4.6-.981,7.529-1.693s5.617-1.279,7.58-1.568c.981-.144,1.778-.243,2.331-.285a3.178,3.178,0,0,1,.864-.025" transform="translate(-58.197 -18.97)" fill="#263238"/>
            <path id="Trazado_735802" data-name="Trazado 735802" d="M500.182,166.694a3.475,3.475,0,0,1-.034.651c-.046.468-.108,1.085-.185,1.856-.171,1.661-.409,3.979-.7,6.823-.569,5.763-1.265,13.733-1.748,22.555-.245,4.412-.418,8.618-.536,12.444-.05,1.911-.1,3.73-.141,5.434s-.038,3.288-.135,4.743a18.255,18.255,0,0,1-.638,3.88,8.672,8.672,0,0,1-1.281,2.682,5.806,5.806,0,0,1-1.33,1.326,3.561,3.561,0,0,1-.565.329,7.532,7.532,0,0,0,1.751-1.758,8.776,8.776,0,0,0,1.181-2.649,18.453,18.453,0,0,0,.561-3.83c.076-1.437.056-3.025.079-4.729s.046-3.524.1-5.439c.1-3.831.256-8.042.5-12.458.483-8.831,1.231-16.805,1.883-22.563.327-2.88.623-5.206.845-6.811.112-.767.2-1.381.27-1.846a3.545,3.545,0,0,1,.125-.64" transform="translate(-62.483 -21.132)" fill="#263238"/>
            <path id="Trazado_735803" data-name="Trazado 735803" d="M412.43,332.471l6.691,14.917s-17.611,6.894-17.753,10.171l34.272-.62-.042-2.862-7.559-24.608Z" transform="translate(-50.881 -41.767)" fill="#455a64"/>
            <path id="Trazado_735804" data-name="Trazado 735804" d="M432.957,346.914a1.4,1.4,0,0,1,1,1.58,1.346,1.346,0,0,1-1.558,1,1.476,1.476,0,0,1-1.046-1.678,1.4,1.4,0,0,1,1.735-.863" transform="translate(-54.676 -43.971)" fill="#e0e0e0"/>
            <path id="Trazado_735805" data-name="Trazado 735805" d="M435.637,360.512l-.042-2.862-32.908,1.719s-1.514.692-1.322,1.763Z" transform="translate(-50.879 -45.339)" fill="#263238"/>
            <path id="Trazado_735806" data-name="Trazado 735806" d="M421.058,349.778c.009.168.847.228,1.679.751.847.5,1.285,1.219,1.438,1.15.153-.036-.114-1.031-1.134-1.648s-2.022-.406-1.983-.253" transform="translate(-53.377 -44.32)" fill="#263238"/>
            <path id="Trazado_735807" data-name="Trazado 735807" d="M416.972,351.569c-.036.162.694.434,1.276,1.132.6.68.759,1.443.926,1.433.157.024.256-.959-.484-1.812s-1.717-.913-1.718-.753" transform="translate(-52.859 -44.559)" fill="#263238"/>
            <path id="Trazado_735808" data-name="Trazado 735808" d="M414.521,356.132c.153.033.37-.808-.076-1.716s-1.236-1.259-1.3-1.119c-.093.139.425.622.78,1.374.373.743.433,1.448.6,1.461" transform="translate(-52.372 -44.783)" fill="#263238"/>
            <path id="Trazado_735809" data-name="Trazado 735809" d="M419.627,345.256c.072.151.837-.093,1.784-.046.947.028,1.69.332,1.774.187.1-.123-.635-.729-1.751-.769s-1.891.5-1.807.629" transform="translate(-53.195 -43.688)" fill="#263238"/>
            <path id="Trazado_735810" data-name="Trazado 735810" d="M480.877,374.658l.763,28.446-14.959-.041-.8-27.757Z" transform="translate(-59.059 -47.495)" fill="#455a64"/>
            <path id="Trazado_735811" data-name="Trazado 735811" d="M475.351,401.651c-.125,0-.314-6.064-.42-13.546s-.093-13.551.032-13.553.313,6.062.42,13.546.093,13.55-.032,13.552" transform="translate(-60.197 -47.482)" fill="#263238"/>
            <path id="Trazado_735812" data-name="Trazado 735812" d="M466.5,396.356a1.986,1.986,0,0,1,.369-.614,10.373,10.373,0,0,1,1.3-1.456,10.138,10.138,0,0,1,2.378-1.675,7.962,7.962,0,0,1,9.353,1.515,6.855,6.855,0,0,1,1.131,1.6,1.915,1.915,0,0,1,.253.672,15.576,15.576,0,0,0-1.612-2.048,7.964,7.964,0,0,0-5.655-2.173,9.144,9.144,0,0,0-5.635,2.347c-1.228,1.048-1.818,1.881-1.882,1.83" transform="translate(-59.138 -49.659)" fill="#263238"/>
            <path id="Trazado_735813" data-name="Trazado 735813" d="M481.687,406.768,466.8,406.7l-.111-3.363,15.017.069Z" transform="translate(-59.161 -51.131)" fill="#263238"/>
            <path id="Trazado_735814" data-name="Trazado 735814" d="M472.791,236.277l-31.014-2.719-.519,3.4c-7.9,6.331-32.53,21.463-45.243,33.857,0,0-4.7,6.548-2.824,12.313L413.069,328.2l20.239-4.667-12.35-38.252,37.983-17.737c7.385-2.732,14.037-12.054,15.609-17.4,1.344-4.57-1.559-8.017-1.759-13.869" transform="translate(-49.789 -29.608)" fill="#12263f"/>
            <path id="Trazado_735815" data-name="Trazado 735815" d="M454.584,275.882l8.2,95.73,20.71-.113s.666-29.225.255-48.931,1.983-59.75,1.983-59.75Z" transform="translate(-57.627 -33.317)" fill="#12263f"/>
            <path id="Trazado_735816" data-name="Trazado 735816" d="M480.735,236.672l9.953,1.1s.983,19.885.263,22.4-6.093,12.5-6.093,12.5l-29.444,8.571V258.824Z" transform="translate(-57.733 -30.003)" fill="#12263f"/>
            <path id="Trazado_735817" data-name="Trazado 735817" d="M474.264,259.986a3.061,3.061,0,0,1-.245.535A14.749,14.749,0,0,1,473.2,262a20.858,20.858,0,0,1-3.963,4.779,35.743,35.743,0,0,1-7.643,5.136c-3.075,1.614-6.584,3.094-10.2,4.779l-18.592,8.517-5.654,2.539-1.547.671a3.119,3.119,0,0,1-.552.209,3.1,3.1,0,0,1,.516-.285l1.513-.741,5.6-2.658,18.545-8.629c3.62-1.686,7.132-3.154,10.2-4.74a36.524,36.524,0,0,0,7.623-5.015,21.95,21.95,0,0,0,4.022-4.647c.794-1.222,1.154-1.952,1.2-1.929" transform="translate(-53.884 -32.958)" fill="#455a64"/>
            <path id="Trazado_735818" data-name="Trazado 735818" d="M409.975,290.739a8.347,8.347,0,0,1,2.145-.414,23.485,23.485,0,0,1,5.274-.006,21.773,21.773,0,0,1,5.138,1.2,8.189,8.189,0,0,1,1.973.937,18.491,18.491,0,0,1-2.069-.659,27.326,27.326,0,0,0-5.089-1.067,30.279,30.279,0,0,0-5.2-.113,17.792,17.792,0,0,1-2.169.121" transform="translate(-51.972 -36.785)" fill="#455a64"/>
            <path id="Trazado_735819" data-name="Trazado 735819" d="M448.045,236.932l41.866,3.955-.136-3.068-40.989-4.26Z" transform="translate(-56.798 -29.608)" fill="#455a64"/>
            <path id="Trazado_735820" data-name="Trazado 735820" d="M458.2,238.315c.123-.246.424-3.877.424-3.877l2.278.238-.548,4.44Z" transform="translate(-58.086 -29.72)" fill="#263238"/>
            <path id="Trazado_735821" data-name="Trazado 735821" d="M483.343,240.994c.123-.246.424-3.878.424-3.878l2.278.238-.548,4.44Z" transform="translate(-61.273 -30.059)" fill="#263238"/>
          </g>
        </g>
      </g>
    </g>
  </g>
</svg>
