<svg xmlns="http://www.w3.org/2000/svg" xmlns:xlink="http://www.w3.org/1999/xlink" width="636.311" height="444.291" viewBox="0 0 636.311 444.291">
  <defs>
    <clipPath id="clip-path">
      <rect id="Rectángulo_350618" data-name="Rectángulo 350618" width="636.311" height="405.012" fill="none"/>
    </clipPath>
    <clipPath id="clip-path-7">
      <rect id="Rectángulo_350609" data-name="Rectángulo 350609" width="98.546" height="102.926" fill="none"/>
    </clipPath>
    <clipPath id="clip-path-9">
      <rect id="Rectángulo_350611" data-name="Rectángulo 350611" width="126.127" height="60.153" fill="#12263f"/>
    </clipPath>
    <clipPath id="clip-path-11">
      <rect id="Rectángulo_350613" data-name="Rectángulo 350613" width="125.873" height="132.898" fill="#12263f"/>
    </clipPath>
    <clipPath id="clip-path-13">
      <rect id="Rectángulo_350615" data-name="Rectángulo 350615" width="122.041" height="87.908" fill="none"/>
    </clipPath>
  </defs>
  <g id="Grupo_1034668" data-name="Grupo 1034668" transform="translate(5666.561 5521.646)">
    <g id="Grupo_160943" data-name="Grupo 160943" transform="translate(-5840.287 -14033.086)" opacity="0.13">
      <g id="Grupo_154652" data-name="Grupo 154652" transform="translate(180 8511.44)">
        <g id="Grupo_154160" data-name="Grupo 154160" transform="translate(0 0)">
          <g id="Grupo_66834" data-name="Grupo 66834">
            <path id="Trazado_132887" data-name="Trazado 132887" d="M738.348,526.863c-56.821,77.476-60.758,301.127,19.052,359.663s213.167-70.218,269.973-147.691,38.17-187.709-41.638-246.245S795.159,449.4,738.348,526.863Z" transform="translate(-505.222 -457.039)" fill="#15d3ec"/>
            <path id="Trazado_132888" data-name="Trazado 132888" d="M652.737,605.065c0,108.19,226.26,226.357,351.078,226.357s258.922-118.167,258.922-226.357-52.662-181.459-236.98-99.419C914.718,555.061,652.737,496.877,652.737,605.065Z" transform="translate(-652.737 -437.812)" fill="#7e5ee3"/>
          </g>
        </g>
      </g>
    </g>
    <g id="Grupo_1033909" data-name="Grupo 1033909" transform="translate(-5666.561 -5488)">
      <g id="Grupo_1033908" data-name="Grupo 1033908" clip-path="url(#clip-path)">
        <g id="Grupo_1033879" data-name="Grupo 1033879">
          <g id="Grupo_1033878" data-name="Grupo 1033878" clip-path="url(#clip-path)">
            <path id="Trazado_735823" data-name="Trazado 735823" d="M387.36,174.763l-86.107-.805-26.095-.122-7.095.016-1.846.024a4.1,4.1,0,0,0-.629.034,4.041,4.041,0,0,0,.629.039l1.845.043,7.095.087,26.095.138,86.11.053c33.608,0,64.042.04,86.074.2,11.016.077,19.931.178,26.092.294,3.081.057,5.473.118,7.095.178a13.411,13.411,0,0,1,2.473.182,13.432,13.432,0,0,1-2.475.158c-1.622.045-4.014.082-7.1.108-6.162.054-15.078.067-26.095.034-22.032-.061-52.465-.321-86.071-.66" transform="translate(-13.445 -8.8)" fill="#f5f5f5"/>
            <path id="Trazado_735824" data-name="Trazado 735824" d="M386.741,181.553l-84.93-13.807-25.758-4.06-7.011-1.053-1.828-.253a4.047,4.047,0,0,0-.627-.061,3.788,3.788,0,0,0,.614.136l1.815.323,6.994,1.159,25.755,4.079,85.057,13.051c33.2,5.068,63.259,9.7,85,13.188,10.87,1.74,19.661,3.188,25.729,4.233,3.033.523,5.387.945,6.979,1.251a13.11,13.11,0,0,1,2.413.555,13.027,13.027,0,0,1-2.47-.216c-1.61-.2-3.98-.523-7.027-.962-6.1-.876-14.906-2.209-25.783-3.9-21.755-3.388-51.777-8.244-84.92-13.659" transform="translate(-13.496 -8.217)" fill="#f5f5f5"/>
            <path id="Trazado_735825" data-name="Trazado 735825" d="M385.037,188.149l-81.632-26.638-24.779-7.951-6.754-2.112-1.763-.53a4.067,4.067,0,0,0-.609-.156,3.621,3.621,0,0,0,.584.229l1.741.6,6.718,2.217,24.773,7.97,81.882,25.9c31.966,10.085,60.9,19.263,81.8,26.03,10.452,3.383,18.9,6.159,24.721,8.12,2.911.982,5.166,1.759,6.688,2.305a12.933,12.933,0,0,1,2.293.92,12.952,12.952,0,0,1-2.4-.59c-1.558-.442-3.846-1.125-6.785-2.024-5.878-1.8-14.362-4.461-24.829-7.8-20.935-6.675-49.794-16.067-81.645-26.489" transform="translate(-13.643 -7.632)" fill="#f5f5f5"/>
            <path id="Trazado_735826" data-name="Trazado 735826" d="M382.289,194.4l-76.305-38.784L282.8,143.97l-6.328-3.12-1.655-.793a3.832,3.832,0,0,0-.576-.248,3.76,3.76,0,0,0,.54.314l1.622.854,6.276,3.216,23.174,11.658,76.665,38.109c29.934,14.85,57.019,28.34,76.566,38.22,9.775,4.938,17.666,8.97,23.1,11.8,2.716,1.413,4.818,2.524,6.234,3.3a13.061,13.061,0,0,1,2.117,1.257,13.1,13.1,0,0,1-2.279-.952c-1.467-.677-3.615-1.7-6.371-3.039-5.514-2.675-13.46-6.6-23.256-11.5-19.592-9.795-46.573-23.481-76.342-38.641" transform="translate(-13.883 -7.078)" fill="#f5f5f5"/>
            <path id="Trazado_735827" data-name="Trazado 735827" d="M378.562,200.154l-69.13-49.9-21.025-15.022-5.747-4.043-1.507-1.035a3.8,3.8,0,0,0-.53-.331,3.741,3.741,0,0,0,.483.392l1.466,1.091,5.682,4.129,21.014,15.035,69.594,49.286c27.177,19.215,51.76,36.654,69.477,49.383,8.861,6.362,16.007,11.543,20.919,15.161,2.455,1.81,4.352,3.227,5.626,4.2a12.72,12.72,0,0,1,1.888,1.563,13,13,0,0,1-2.1-1.286c-1.339-.891-3.3-2.229-5.8-3.969-5.016-3.479-12.233-8.568-21.12-14.895-17.777-12.65-42.224-30.267-69.19-49.762" transform="translate(-14.206 -6.572)" fill="#f5f5f5"/>
            <path id="Trazado_735828" data-name="Trazado 735828" d="M373.955,205.279l-60.3-59.741L295.287,127.52l-5.031-4.863-1.323-1.25a3.93,3.93,0,0,0-.469-.408,3.674,3.674,0,0,0,.415.461l1.273,1.3c1.149,1.146,2.813,2.805,4.953,4.938l18.351,18.03,60.86,59.207c23.771,23.09,45.263,44.032,60.729,59.284,7.735,7.624,13.964,13.823,18.238,18.139,2.136,2.158,3.783,3.845,4.885,5a12.685,12.685,0,0,1,1.615,1.828,12.751,12.751,0,0,1-1.866-1.588c-1.18-1.082-2.9-2.7-5.1-4.8-4.4-4.2-10.713-10.313-18.479-17.906-15.537-15.183-36.868-36.281-60.385-59.615" transform="translate(-14.603 -6.125)" fill="#f5f5f5"/>
            <path id="Trazado_735829" data-name="Trazado 735829" d="M368.585,209.645l-50.008-68.131-15.258-20.574-4.191-5.563-1.107-1.435a3.786,3.786,0,0,0-.4-.474,3.7,3.7,0,0,0,.336.517l1.049,1.475,4.1,5.626,15.244,20.584c12.971,17.337,30.867,41.255,50.644,67.686,19.787,26.4,37.666,50.339,50.5,67.743,6.421,8.7,11.582,15.765,15.112,20.675,1.765,2.455,3.122,4.371,4.025,5.681a12.424,12.424,0,0,1,1.3,2.052,12.627,12.627,0,0,1-1.589-1.851c-.992-1.247-2.432-3.105-4.268-5.51-3.672-4.81-8.932-11.806-15.388-20.482-12.917-17.347-30.612-41.413-50.108-68.018" transform="translate(-15.067 -5.744)" fill="#f5f5f5"/>
            <path id="Trazado_735830" data-name="Trazado 735830" d="M362.585,213.142l-38.431-74.893-11.761-22.64-3.245-6.132c-.372-.683-.658-1.209-.863-1.585a3.831,3.831,0,0,0-.318-.529,3.482,3.482,0,0,0,.248.563c.19.384.455.921.8,1.617l3.145,6.18L323.9,138.372l39.133,74.548c15.3,29.084,29.107,55.443,38.986,74.583,4.941,9.569,8.9,17.332,11.6,22.717,1.348,2.693,2.38,4.792,3.061,6.223a12.3,12.3,0,0,1,.956,2.224,12.343,12.343,0,0,1-1.273-2.069c-.779-1.383-1.9-3.438-3.329-6.091-2.855-5.308-6.924-13.019-11.905-22.568-9.967-19.1-23.572-45.556-38.548-74.8" transform="translate(-15.59 -5.435)" fill="#f5f5f5"/>
            <path id="Trazado_735831" data-name="Trazado 735831" d="M356.1,215.677l-25.827-79.837-7.95-24.156c-.955-2.829-1.7-5.032-2.212-6.552-.257-.731-.455-1.294-.6-1.7a3.574,3.574,0,0,0-.229-.571,3.676,3.676,0,0,0,.154.594l.527,1.718,2.106,6.585c1.88,5.727,4.587,13.974,7.931,24.162,6.808,20.39,16.2,48.519,26.581,79.6,10.4,31.061,19.77,59.2,26.427,79.615,3.331,10.206,5.987,18.478,7.777,24.208.9,2.865,1.575,5.1,2.016,6.613a12.012,12.012,0,0,1,.583,2.343,12.217,12.217,0,0,1-.922-2.238c-.547-1.485-1.323-3.685-2.3-6.524-1.96-5.678-4.73-13.915-8.1-24.107-6.752-20.383-15.9-48.594-25.958-79.761" transform="translate(-16.163 -5.207)" fill="#f5f5f5"/>
            <path id="Trazado_735832" data-name="Trazado 735832" d="M349.282,217.19c-4.913-32.329-9.359-61.586-12.582-82.792-1.66-10.57-3.006-19.128-3.94-25.07-.485-2.94-.862-5.229-1.123-6.809-.135-.76-.239-1.347-.313-1.767a3.475,3.475,0,0,0-.134-.6,3.756,3.756,0,0,0,.057.61c.058.422.138,1.012.242,1.777.235,1.585.576,3.877,1.014,6.825.929,5.943,2.268,14.5,3.922,25.074,3.422,21.177,8.143,50.392,13.36,82.676,5.241,32.264,9.938,61.488,13.208,82.664,1.637,10.587,2.92,19.163,3.761,25.1.421,2.967.73,5.273.92,6.839a12.2,12.2,0,0,1,.2,2.4,12.16,12.16,0,0,1-.548-2.351c-.3-1.55-.71-3.841-1.218-6.8-1.016-5.907-2.417-14.465-4.1-25.045-3.368-21.162-7.839-50.419-12.724-82.736" transform="translate(-16.766 -5.07)" fill="#f5f5f5"/>
            <path id="Trazado_735833" data-name="Trazado 735833" d="M342.213,217.648c.3-32.678.576-62.251.775-83.687.047-10.693.085-19.349.111-25.361-.009-2.978-.016-5.3-.021-6.9-.011-.773-.02-1.367-.027-1.793a3.634,3.634,0,0,0-.035-.611,3.878,3.878,0,0,0-.04.61c-.01.426-.025,1.022-.044,1.793-.019,1.6-.047,3.917-.085,6.9-.029,6.01-.072,14.668-.125,25.361,0,21.437,0,51.01,0,83.689.025,32.664,0,62.243-.151,83.655-.072,10.707-.172,19.372-.287,25.36-.057,2.994-.118,5.319-.18,6.9a12.316,12.316,0,0,1-.185,2.4,12.33,12.33,0,0,1-.163-2.406c-.047-1.577-.086-3.9-.116-6.9-.06-5.989-.079-14.655-.052-25.361.05-21.413.3-50.991.627-83.653" transform="translate(-17.292 -5.027)" fill="#f5f5f5"/>
            <path id="Trazado_735834" data-name="Trazado 735834" d="M333.23,217.05c5.526-32.235,10.528-61.407,14.152-82.552l4.161-25.037,1.079-6.815c.112-.765.2-1.354.26-1.776a3.513,3.513,0,0,0,.062-.609,3.53,3.53,0,0,0-.14.6c-.078.419-.188,1-.33,1.764-.275,1.578-.675,3.862-1.189,6.8-.99,5.934-2.417,14.478-4.18,25.034-3.425,21.176-8.152,50.39-13.375,82.674-5.193,32.271-9.945,61.487-13.515,82.618-1.784,10.566-3.268,19.11-4.34,25.008-.536,2.95-.969,5.237-1.283,6.784a12.282,12.282,0,0,1-.571,2.346,11.965,11.965,0,0,1,.22-2.4c.2-1.565.536-3.868.984-6.831.9-5.925,2.264-14.488,4-25.061,3.472-21.145,8.45-50.326,14-82.542" transform="translate(-15.896 -5.076)" fill="#f5f5f5"/>
            <path id="Trazado_735835" data-name="Trazado 735835" d="M324.45,215.4l27.356-79.355,8.166-24.088c.937-2.835,1.666-5.041,2.169-6.565.234-.738.414-1.306.543-1.715a3.434,3.434,0,0,0,.159-.591,3.586,3.586,0,0,0-.234.568c-.145.4-.348.964-.612,1.692l-2.277,6.531c-1.94,5.709-4.734,13.928-8.185,24.082-6.814,20.388-16.213,48.515-26.6,79.6-10.357,31.074-19.781,59.2-26.732,79.519-3.473,10.161-6.324,18.371-8.339,24.032-1.007,2.829-1.806,5.022-2.368,6.5a12.151,12.151,0,0,1-.945,2.228,12.1,12.1,0,0,1,.6-2.337c.455-1.514,1.155-3.738,2.078-6.6,1.846-5.714,4.582-13.962,8.012-24.136,6.855-20.351,16.5-48.4,27.2-79.368" transform="translate(-14.506 -5.219)" fill="#f5f5f5"/>
            <path id="Trazado_735836" data-name="Trazado 735836" d="M316.132,212.732c15.563-28.968,29.647-55.183,39.857-74.185l11.965-22.539,3.205-6.151c.352-.693.622-1.227.816-1.609a3.632,3.632,0,0,0,.253-.56,3.842,3.842,0,0,0-.323.526l-.877,1.577c-.768,1.416-1.878,3.467-3.306,6.1-2.84,5.339-6.929,13.03-11.981,22.53-10.031,19.091-23.87,45.43-39.162,74.535-15.261,29.1-29.124,55.434-39.278,74.438-5.074,9.5-9.217,17.176-12.124,22.457-1.453,2.641-2.595,4.684-3.388,6.061a12.532,12.532,0,0,1-1.29,2.057,12.134,12.134,0,0,1,.978-2.215c.7-1.425,1.748-3.514,3.122-6.194,2.749-5.36,6.788-13.086,11.822-22.608,10.066-19.048,24.131-45.28,39.711-74.221" transform="translate(-13.187 -5.452)" fill="#f5f5f5"/>
            <path id="Trazado_735837" data-name="Trazado 735837" d="M308.475,209.113l51.3-67.218c6.511-8.619,11.782-15.6,15.443-20.443l4.156-5.589,1.064-1.465a3.824,3.824,0,0,0,.341-.515,3.7,3.7,0,0,0-.4.47l-1.121,1.424c-.984,1.283-2.411,3.14-4.245,5.525-3.664,4.844-8.939,11.818-15.458,20.433l-50.667,67.669c-19.754,26.426-37.682,50.328-50.767,67.556-6.54,8.616-11.867,15.564-15.587,20.339-1.86,2.388-3.317,4.232-4.322,5.47a12.7,12.7,0,0,1-1.607,1.837,12.381,12.381,0,0,1,1.322-2.04c.916-1.3,2.292-3.205,4.079-5.643,3.578-4.877,8.808-11.895,15.312-20.535,13.005-17.285,31.116-41.057,51.159-67.277" transform="translate(-11.978 -5.765)" fill="#f5f5f5"/>
            <path id="Trazado_735838" data-name="Trazado 735838" d="M301.665,204.639,363.1,145.993l18.526-17.86c2.16-2.113,3.841-3.757,5-4.892l1.285-1.286a4.01,4.01,0,0,0,.421-.457,3.545,3.545,0,0,0-.475.4l-1.335,1.238-5.077,4.816L362.9,145.8c-15.6,15.16-37.109,36.074-60.882,59.185-23.744,23.117-45.279,44.019-60.961,59.059-7.839,7.522-14.214,13.581-18.652,17.736-2.218,2.077-3.953,3.679-5.144,4.751a12.769,12.769,0,0,1-1.882,1.571,12.871,12.871,0,0,1,1.634-1.814c1.114-1.148,2.777-2.82,4.934-4.958,4.313-4.277,10.6-10.417,18.412-17.971,15.613-15.109,37.307-35.853,61.3-58.725" transform="translate(-10.903 -6.151)" fill="#f5f5f5"/>
            <path id="Trazado_735839" data-name="Trazado 735839" d="M295.859,199.422l70.07-48.645,21.16-14.843,5.722-4.077,1.476-1.077a3.83,3.83,0,0,0,.487-.387,3.767,3.767,0,0,0-.533.327l-1.517,1.021-5.786,3.99-21.17,14.828c-17.83,12.618-42.43,30.026-69.611,49.263-27.154,19.247-51.771,36.638-69.67,49.125-8.949,6.244-16.214,11.266-21.264,14.7-2.524,1.716-4.494,3.037-5.842,3.915a13.007,13.007,0,0,1-2.11,1.267,12.736,12.736,0,0,1,1.9-1.546c1.283-.966,3.194-2.366,5.667-4.153,4.946-3.572,12.143-8.688,21.065-14.969,17.84-12.564,42.591-29.776,69.954-48.742" transform="translate(-9.986 -6.601)" fill="#f5f5f5"/>
            <path id="Trazado_735840" data-name="Trazado 735840" d="M291.2,193.594l77.034-37.4,23.287-11.445,6.307-3.158,1.631-.839a3.8,3.8,0,0,0,.543-.309,3.906,3.906,0,0,0-.578.241l-1.663.778-6.357,3.062-23.295,11.428-76.68,38.081c-29.916,14.885-57.027,28.324-76.714,37.936-9.843,4.809-17.828,8.664-23.368,11.288-2.769,1.312-4.928,2.316-6.4,2.979a13.072,13.072,0,0,1-2.288.93,12.8,12.8,0,0,1,2.128-1.238c1.422-.759,3.535-1.852,6.265-3.24,5.46-2.778,13.39-6.737,23.212-11.585,19.643-9.7,46.858-22.938,76.936-37.511" transform="translate(-9.247 -7.11)" fill="#f5f5f5"/>
            <path id="Trazado_735841" data-name="Trazado 735841" d="M287.81,187.292l82.13-25.151,24.849-7.742,6.74-2.154,1.747-.581a3.823,3.823,0,0,0,.586-.222,3.793,3.793,0,0,0-.61.15l-1.768.513-6.774,2.051-24.856,7.723-81.888,25.884c-31.952,10.127-60.9,19.252-81.9,25.736-10.5,3.243-19.007,5.829-24.9,7.573-2.948.872-5.242,1.534-6.8,1.963a13,13,0,0,1-2.41.568,12.973,12.973,0,0,1,2.3-.9c1.529-.533,3.791-1.289,6.711-2.242,5.842-1.908,14.315-4.606,24.8-7.891,20.968-6.575,49.988-15.487,82.051-25.279" transform="translate(-8.705 -7.666)" fill="#f5f5f5"/>
            <path id="Trazado_735842" data-name="Trazado 735842" d="M285.78,180.667l85.178-12.28,25.794-3.845,7-1.1,1.818-.306a3.932,3.932,0,0,0,.616-.13,3.776,3.776,0,0,0-.628.055l-1.829.236-7.022.99-25.8,3.827-85.059,13.036c-33.194,5.113-63.261,9.7-85.047,12.888-10.893,1.6-19.715,2.851-25.819,3.672-3.052.41-5.425.713-7.037.9a13.245,13.245,0,0,1-2.472.194,13.166,13.166,0,0,1,2.419-.534c1.595-.292,3.951-.693,6.99-1.188,6.078-.991,14.882-2.359,25.768-4,21.772-3.287,51.873-7.65,85.121-12.418" transform="translate(-8.377 -8.252)" fill="#f5f5f5"/>
            <path id="Trazado_735843" data-name="Trazado 735843" d="M285.156,173.8l86.107.7,26.095.091,7.095-.025,1.845-.027a4.12,4.12,0,0,0,.629-.034,4.038,4.038,0,0,0-.629-.039l-1.846-.041-7.094-.078-26.1-.106-86.109.05c-33.608.044-64.043.037-86.075-.094-11.016-.064-19.931-.155-26.093-.263-3.081-.054-5.472-.112-7.095-.171a13.432,13.432,0,0,1-2.473-.179,13.4,13.4,0,0,1,2.475-.16c1.622-.047,4.015-.087,7.1-.118,6.162-.062,15.078-.085,26.095-.066,22.032.035,52.465.258,86.072.556" transform="translate(-8.273 -8.77)" fill="#f5f5f5"/>
            <path id="Trazado_735844" data-name="Trazado 735844" d="M285.931,165.074l84.948,13.7,25.763,4.028,7.013,1.044,1.828.251a3.911,3.911,0,0,0,.627.061,3.733,3.733,0,0,0-.614-.135l-1.816-.32-6.995-1.152-25.76-4.046L285.85,165.562c-33.208-5.027-63.272-9.626-85.016-13.083-10.872-1.726-19.664-3.162-25.734-4.2-3.034-.519-5.388-.938-6.981-1.243a12.964,12.964,0,0,1-2.414-.553,13.2,13.2,0,0,1,2.47.214c1.611.2,3.981.518,7.029.953,6.1.869,14.909,2.19,25.788,3.873,21.76,3.361,51.788,8.181,84.938,13.553" transform="translate(-8.389 -7.414)" fill="#f5f5f5"/>
            <path id="Trazado_735845" data-name="Trazado 735845" d="M288.112,156.539l81.666,26.536L394.568,191l6.757,2.1,1.764.527a3.8,3.8,0,0,0,.609.155,3.74,3.74,0,0,0-.585-.228l-1.741-.594-6.722-2.208-24.783-7.94-81.916-25.8c-31.98-10.045-60.924-19.187-81.836-25.928-10.456-3.369-18.906-6.135-24.731-8.09-2.913-.978-5.168-1.752-6.692-2.3a12.956,12.956,0,0,1-2.294-.917,12.979,12.979,0,0,1,2.406.586c1.559.441,3.847,1.121,6.787,2.016,5.881,1.79,14.369,4.444,24.839,7.771,20.943,6.649,49.815,16.006,81.681,26.387" transform="translate(-8.727 -6.063)" fill="#f5f5f5"/>
            <path id="Trazado_735846" data-name="Trazado 735846" d="M291.644,148.453,368,187.143l23.2,11.614,6.33,3.112,1.657.791a3.873,3.873,0,0,0,.576.247,3.77,3.77,0,0,0-.541-.313l-1.623-.853-6.28-3.207L368.128,186.9l-76.714-38.013c-29.953-14.814-57.056-28.271-76.616-38.126-9.781-4.926-17.678-8.948-23.115-11.768-2.718-1.41-4.821-2.52-6.237-3.29a12.886,12.886,0,0,1-2.118-1.254,13.26,13.26,0,0,1,2.279.95c1.467.675,3.616,1.7,6.375,3.03,5.517,2.669,13.469,6.589,23.27,11.475,19.606,9.771,46.6,23.424,76.393,38.547" transform="translate(-9.281 -4.781)" fill="#f5f5f5"/>
            <path id="Trazado_735847" data-name="Trazado 735847" d="M296.436,141.008l69.194,49.815,21.045,15,5.752,4.036,1.509,1.033a3.733,3.733,0,0,0,.53.331,3.81,3.81,0,0,0-.484-.392l-1.467-1.088-5.688-4.122-21.033-15.011-69.658-49.2c-27.2-19.182-51.807-36.591-69.542-49.3-8.868-6.351-16.022-11.524-20.938-15.136-2.458-1.806-4.357-3.221-5.632-4.2a12.767,12.767,0,0,1-1.89-1.561,13.024,13.024,0,0,1,2.1,1.285c1.341.89,3.3,2.225,5.809,3.962,5.02,3.474,12.244,8.553,21.139,14.869,17.794,12.629,42.263,30.216,69.254,49.678" transform="translate(-10.03 -3.605)" fill="#f5f5f5"/>
            <path id="Trazado_735848" data-name="Trazado 735848" d="M302.358,134.386c23.578,23.3,44.915,44.384,60.38,59.668l18.388,17.994,5.036,4.857,1.324,1.248a3.841,3.841,0,0,0,.471.407,3.814,3.814,0,0,0-.416-.46c-.3-.308-.726-.738-1.275-1.3l-4.959-4.931-18.376-18.007L302,134.734c-23.8-23.061-45.32-43.977-60.806-59.21-7.744-7.615-13.982-13.806-18.26-18.117-2.139-2.155-3.789-3.84-4.892-5a12.674,12.674,0,0,1-1.618-1.828,12.874,12.874,0,0,1,1.867,1.585c1.182,1.082,2.9,2.7,5.1,4.792,4.4,4.191,10.726,10.3,18.5,17.883,15.556,15.164,36.915,36.237,60.462,59.542" transform="translate(-10.956 -2.561)" fill="#f5f5f5"/>
            <path id="Trazado_735849" data-name="Trazado 735849" d="M309.267,128.74l50.1,68.069,15.284,20.556,4.2,5.559,1.11,1.434a3.71,3.71,0,0,0,.4.473,3.857,3.857,0,0,0-.336-.517l-1.052-1.473-4.109-5.621-15.271-20.565c-12.994-17.321-30.921-41.218-50.732-67.624-19.82-26.377-37.731-50.292-50.589-67.681-6.431-8.692-11.6-15.751-15.139-20.657-1.769-2.452-3.128-4.366-4.033-5.675a12.466,12.466,0,0,1-1.305-2.05,12.557,12.557,0,0,1,1.592,1.848c.994,1.247,2.436,3.1,4.275,5.505,3.68,4.8,8.947,11.8,15.416,20.463,12.939,17.331,30.665,41.376,50.2,67.957" transform="translate(-12.038 -1.669)" fill="#f5f5f5"/>
            <path id="Trazado_735850" data-name="Trazado 735850" d="M317,124.207l38.529,74.845c4.971,9.54,9,17.263,11.79,22.626l3.253,6.128.866,1.584a3.456,3.456,0,0,0,.319.528,3.762,3.762,0,0,0-.25-.562l-.8-1.616c-.732-1.434-1.792-3.509-3.154-6.177-2.791-5.364-6.81-13.09-11.774-22.633-10.048-19.082-23.912-45.409-39.231-74.5-15.334-29.065-29.178-55.407-39.082-74.536-4.954-9.562-8.926-17.32-11.629-22.7-1.352-2.691-2.387-4.789-3.069-6.219a12.249,12.249,0,0,1-.959-2.223,12.558,12.558,0,0,1,1.275,2.068c.782,1.382,1.907,3.435,3.338,6.086,2.861,5.305,6.94,13.01,11.935,22.553,9.992,19.084,23.631,45.527,38.644,74.75" transform="translate(-13.254 -0.949)" fill="#f5f5f5"/>
            <path id="Trazado_735851" data-name="Trazado 735851" d="M325.379,120.907l25.931,79.8c3.366,10.181,6.09,18.423,7.981,24.146.96,2.828,1.706,5.029,2.221,6.549l.6,1.7a3.689,3.689,0,0,0,.229.571,3.438,3.438,0,0,0-.154-.594c-.126-.408-.3-.978-.53-1.717-.49-1.528-1.2-3.74-2.114-6.583l-7.962-24.151c-6.835-20.381-16.265-48.5-26.684-79.57-10.44-31.047-19.849-59.177-26.532-79.582-3.344-10.2-6.011-18.47-7.809-24.2-.9-2.864-1.582-5.093-2.024-6.611a12.063,12.063,0,0,1-.586-2.342,12.285,12.285,0,0,1,.925,2.237c.549,1.485,1.328,3.684,2.312,6.521,1.967,5.676,4.748,13.909,8.135,24.1,6.779,20.375,15.967,48.574,26.062,79.729" transform="translate(-14.576 -0.421)" fill="#f5f5f5"/>
            <path id="Trazado_735852" data-name="Trazado 735852" d="M334.189,118.929c4.955,32.323,9.439,61.574,12.689,82.776,1.675,10.568,3.031,19.125,3.972,25.065.49,2.94.87,5.228,1.133,6.807.136.761.24,1.347.316,1.768a3.5,3.5,0,0,0,.134.6,3.752,3.752,0,0,0-.057-.61c-.058-.422-.14-1.012-.245-1.778-.237-1.583-.581-3.876-1.023-6.823-.937-5.942-2.286-14.5-3.953-25.068-3.45-21.173-8.208-50.382-13.468-82.66-5.282-32.257-10.018-61.476-13.315-82.648-1.651-10.586-2.946-19.159-3.794-25.092-.424-2.966-.738-5.272-.929-6.837a12.191,12.191,0,0,1-.2-2.4A12.167,12.167,0,0,1,316,4.374c.3,1.55.715,3.841,1.227,6.794,1.023,5.906,2.436,14.462,4.133,25.042,3.395,21.157,7.9,50.41,12.831,82.72" transform="translate(-15.968 -0.102)" fill="#f5f5f5"/>
            <path id="Trazado_735853" data-name="Trazado 735853" d="M343.148,118.316c-.261,32.678-.5,62.252-.667,83.688-.032,10.693-.059,19.35-.077,25.361.012,2.978.023,5.3.029,6.9.012.773.022,1.367.028,1.793a3.773,3.773,0,0,0,.035.611,3.6,3.6,0,0,0,.04-.61c.01-.426.024-1.022.041-1.793.017-1.6.043-3.917.076-6.9.022-6.011.053-14.668.093-25.362-.028-21.436-.065-51.009-.106-83.689-.066-32.663-.079-62.242.043-83.655.059-10.706.146-19.371.253-25.36.054-2.994.112-5.319.172-6.9a12.309,12.309,0,0,1,.182-2.4,12.312,12.312,0,0,1,.166,2.4c.049,1.577.092,3.9.125,6.9.067,5.989.1,14.655.085,25.361-.022,21.414-.233,50.992-.518,83.654" transform="translate(-17.334)" fill="#f5f5f5"/>
            <path id="Trazado_735854" data-name="Trazado 735854" d="M350.138,119.065c-5.484,32.243-10.446,61.42-14.043,82.569-1.741,10.559-3.15,19.107-4.129,25.043-.462,2.944-.822,5.235-1.07,6.817-.111.764-.2,1.354-.257,1.776a3.555,3.555,0,0,0-.061.609,3.685,3.685,0,0,0,.138-.6c.078-.42.187-1,.328-1.765.273-1.578.67-3.863,1.179-6.8.984-5.935,2.4-14.482,4.148-25.039,3.4-21.181,8.085-50.4,13.266-82.692,5.15-32.277,9.863-61.5,13.406-82.634,1.77-10.568,3.242-19.114,4.306-25.013.533-2.95.962-5.238,1.274-6.785a12.181,12.181,0,0,1,.568-2.347,12.147,12.147,0,0,1-.217,2.4c-.2,1.566-.531,3.869-.976,6.833-.89,5.925-2.244,14.49-3.969,25.065-3.444,21.15-8.384,50.337-13.89,82.559" transform="translate(-16.735 -0.112)" fill="#f5f5f5"/>
            <path id="Trazado_735855" data-name="Trazado 735855" d="M356.928,121.178c-10.641,31-20.271,59.054-27.251,79.389-3.429,10.16-6.206,18.386-8.133,24.1-.933,2.836-1.66,5.043-2.161,6.568-.234.739-.413,1.306-.541,1.715a3.468,3.468,0,0,0-.159.592,3.637,3.637,0,0,0,.234-.569l.61-1.692c.526-1.517,1.288-3.713,2.268-6.535,1.932-5.71,4.715-13.933,8.152-24.091,6.786-20.4,16.149-48.536,26.5-79.63,10.315-31.087,19.7-59.224,26.625-79.553,3.46-10.165,6.3-18.379,8.307-24.041,1-2.831,1.8-5.025,2.359-6.505a12.248,12.248,0,0,1,.942-2.23,11.977,11.977,0,0,1-.6,2.338c-.453,1.515-1.15,3.74-2.07,6.6-1.838,5.716-4.563,13.967-7.979,24.145-6.828,20.359-16.437,48.426-27.1,79.4" transform="translate(-16.133 -0.44)" fill="#f5f5f5"/>
            <path id="Trazado_735856" data-name="Trazado 735856" d="M363.36,124.606,323.6,198.84l-11.935,22.553c-1.381,2.659-2.456,4.728-3.2,6.156-.35.693-.62,1.228-.813,1.61a3.682,3.682,0,0,0-.253.56,3.718,3.718,0,0,0,.322-.526c.209-.375.5-.9.876-1.578l3.3-6.106,11.953-22.545,39.063-74.583c15.223-29.121,29.051-55.47,39.179-74.487,5.062-9.509,9.2-17.188,12.094-22.473,1.449-2.643,2.589-4.687,3.38-6.065a12.536,12.536,0,0,1,1.289-2.059,12.35,12.35,0,0,1-.976,2.216c-.693,1.426-1.743,3.516-3.114,6.2-2.743,5.364-6.77,13.095-11.792,22.625-10.04,19.061-24.07,45.308-39.612,74.27" transform="translate(-15.562 -0.977)" fill="#f5f5f5"/>
            <path id="Trazado_735857" data-name="Trazado 735857" d="M369.291,129.258,318.08,196.539,302.664,217c-1.792,2.415-3.186,4.295-4.149,5.593l-1.062,1.467a3.575,3.575,0,0,0-.34.516,3.837,3.837,0,0,0,.4-.471l1.119-1.426c.984-1.284,2.407-3.142,4.237-5.53L318.3,196.7c12.955-17.349,30.828-41.284,50.579-67.731C388.6,102.516,406.5,78.592,419.56,61.348c6.53-8.623,11.847-15.579,15.56-20.358,1.857-2.391,3.311-4.237,4.315-5.477a12.553,12.553,0,0,1,1.605-1.838,12.592,12.592,0,0,1-1.321,2.041c-.914,1.3-2.287,3.208-4.073,5.649-3.571,4.881-8.792,11.905-15.285,20.554-12.983,17.3-31.063,41.095-51.071,67.339" transform="translate(-15.041 -1.705)" fill="#f5f5f5"/>
            <path id="Trazado_735858" data-name="Trazado 735858" d="M374.574,135.01l-61.354,58.722-18.5,17.882-4.994,4.9-1.284,1.288a3.7,3.7,0,0,0-.419.458,3.815,3.815,0,0,0,.473-.4l1.334-1.239,5.071-4.824,18.517-17.87,60.8-59.261c23.714-23.147,45.221-44.074,60.884-59.134,7.829-7.531,14.2-13.6,18.629-17.759,2.216-2.08,3.948-3.685,5.138-4.757a12.763,12.763,0,0,1,1.879-1.573,12.616,12.616,0,0,1-1.63,1.816c-1.112,1.15-2.773,2.823-4.928,4.964C449.879,62.5,443.6,68.648,435.8,76.21c-15.593,15.128-37.261,35.9-61.225,58.8" transform="translate(-14.581 -2.604)" fill="#f5f5f5"/>
            <path id="Trazado_735859" data-name="Trazado 735859" d="M379.076,141.721,309.07,190.453l-21.14,14.868-5.717,4.084-1.474,1.078a3.715,3.715,0,0,0-.486.388,3.891,3.891,0,0,0,.532-.328l1.516-1.022,5.781-4,21.151-14.854,69.547-49.349c27.128-19.281,51.723-36.7,69.605-49.212,8.94-6.255,16.2-11.286,21.244-14.727,2.522-1.719,4.491-3.042,5.838-3.923a12.929,12.929,0,0,1,2.109-1.269,12.823,12.823,0,0,1-1.9,1.547c-1.283.967-3.191,2.371-5.662,4.159-4.941,3.578-12.131,8.7-21.045,15-17.824,12.587-42.552,29.829-69.89,48.828" transform="translate(-14.187 -3.654)" fill="#f5f5f5"/>
            <path id="Trazado_735860" data-name="Trazado 735860" d="M382.686,149.236,305.7,186.729,282.429,198.2l-6.3,3.166-1.629.841a3.721,3.721,0,0,0-.543.31,3.867,3.867,0,0,0,.578-.242l1.661-.779,6.354-3.069,23.28-11.457,76.63-38.177c29.895-14.922,56.989-28.394,76.664-38.032,9.836-4.82,17.816-8.686,23.353-11.317,2.767-1.316,4.924-2.322,6.4-2.987a13.022,13.022,0,0,1,2.287-.933,13.005,13.005,0,0,1-2.127,1.241c-1.422.76-3.533,1.856-6.261,3.248-5.456,2.785-13.381,6.754-23.2,11.614-19.629,9.724-46.828,23-76.886,37.607" transform="translate(-13.869 -4.836)" fill="#f5f5f5"/>
            <path id="Trazado_735861" data-name="Trazado 735861" d="M385.307,157.375l-82.1,25.254L278.372,190.4l-6.737,2.163-1.746.583a3.75,3.75,0,0,0-.586.223,3.931,3.931,0,0,0,.61-.15l1.767-.516,6.772-2.059L303.3,182.89,385.152,156.9c31.939-10.167,60.877-19.328,81.867-25.837,10.494-3.256,19-5.854,24.894-7.605,2.947-.875,5.24-1.54,6.8-1.971a13.119,13.119,0,0,1,2.41-.572,13.023,13.023,0,0,1-2.3.9c-1.527.535-3.789,1.293-6.708,2.251-5.839,1.915-14.308,4.623-24.788,7.922-20.96,6.6-49.968,15.55-82.018,25.382" transform="translate(-13.633 -6.121)" fill="#f5f5f5"/>
            <path id="Trazado_735862" data-name="Trazado 735862" d="M386.877,165.936l-85.162,12.386L275.927,182.2l-7,1.105-1.818.309a3.9,3.9,0,0,0-.615.13,3.736,3.736,0,0,0,.628-.056l1.828-.238,7.021-1,25.791-3.859L386.8,165.448c33.186-5.154,63.247-9.776,85.029-12.994,10.891-1.611,19.712-2.875,25.814-3.7,3.052-.414,5.424-.72,7.036-.907a13.24,13.24,0,0,1,2.472-.2,13.15,13.15,0,0,1-2.418.536c-1.595.294-3.951.7-6.989,1.2-6.076,1-14.879,2.377-25.762,4.032-21.767,3.313-51.863,7.715-85.1,12.523" transform="translate(-13.491 -7.473)" fill="#f5f5f5"/>
            <path id="Trazado_735863" data-name="Trazado 735863" d="M624.521,109.841a50.269,50.269,0,1,1-50.269-50.269,50.268,50.268,0,0,1,50.269,50.269" transform="translate(-26.526 -3.016)" fill="#e0e0e0"/>
            <path id="Trazado_735864" data-name="Trazado 735864" d="M624.521,103.992a50.269,50.269,0,1,1-50.269-50.269,50.268,50.268,0,0,1,50.269,50.269" transform="translate(-26.526 -2.72)" fill="#f5f5f5"/>
            <path id="Trazado_735865" data-name="Trazado 735865" d="M608.808,104.878a33.671,33.671,0,1,1-33.671-33.671,33.671,33.671,0,0,1,33.671,33.671" transform="translate(-27.411 -3.605)" fill="#fff"/>
            <path id="Trazado_735866" data-name="Trazado 735866" d="M592.532,105.794a16.477,16.477,0,1,1-16.477-16.477,16.478,16.478,0,0,1,16.477,16.477" transform="translate(-28.328 -4.522)" fill="#ebebeb"/>
            <path id="Trazado_735867" data-name="Trazado 735867" d="M613.765,66.715,612.4,55.99l10.917-11.683L624.1,55.88Z" transform="translate(-31.002 -2.243)" fill="#ebebeb"/>
            <path id="Trazado_735868" data-name="Trazado 735868" d="M637.336,58.873l-11.075-.9-11.1,10.68,11.1,1.187Z" transform="translate(-31.142 -2.935)" fill="#ebebeb"/>
            <path id="Trazado_735869" data-name="Trazado 735869" d="M622.705,54.761,607.057,70.414,582.231,95.245l-5.708,5.709c-1.808,1.809,1.016,4.6,2.826,2.789L595,88.09l24.826-24.832,5.707-5.708c1.809-1.81-1.016-4.6-2.826-2.79" transform="translate(-29.156 -2.742)" fill="#e0e0e0"/>
            <path id="Trazado_735870" data-name="Trazado 735870" d="M105.851,101.452a29,29,0,0,1,6.822-3.586l.936-7.084L125.382,89.7l2.209,6.8a28.949,28.949,0,0,1,7.361,2.284l5.669-4.346L149.71,102l-3.242,6.364a28.97,28.97,0,0,1,3.585,6.824l7.084.936,1.079,11.773-6.8,2.209a28.98,28.98,0,0,1-2.284,7.361l4.345,5.67-7.562,9.088-6.365-3.243a28.946,28.946,0,0,1-6.823,3.585l-.936,7.085-11.773,1.079-2.209-6.8a28.943,28.943,0,0,1-7.361-2.284L104.783,156,95.7,148.433l3.242-6.364a28.949,28.949,0,0,1-3.586-6.823l-7.084-.936-1.079-11.773,6.8-2.21a28.975,28.975,0,0,1,2.285-7.36l-4.346-5.67,7.562-9.088Zm7.446,15.239a12.683,12.683,0,1,0,17.862-1.638,12.683,12.683,0,0,0-17.862,1.638" transform="translate(-4.414 -4.541)" fill="#f5f5f5"/>
            <path id="Trazado_735871" data-name="Trazado 735871" d="M76.256,46.986a19.781,19.781,0,0,1,4.653-2.445l.638-4.831,8.029-.736,1.507,4.635A19.732,19.732,0,0,1,96.1,45.167L99.969,42.2l6.2,5.157-2.211,4.34a19.752,19.752,0,0,1,2.445,4.654l4.831.638.736,8.029-4.635,1.507a19.755,19.755,0,0,1-1.558,5.019l2.964,3.867-5.157,6.2L99.241,79.4a19.763,19.763,0,0,1-4.653,2.445l-.638,4.831-8.029.736-1.507-4.635A19.734,19.734,0,0,1,79.4,81.217l-3.867,2.965-6.2-5.157,2.211-4.341A19.747,19.747,0,0,1,69.1,70.032l-4.831-.639-.736-8.028,4.635-1.507a19.77,19.77,0,0,1,1.558-5.019l-2.964-3.867,5.157-6.2Zm5.078,10.393a8.649,8.649,0,1,0,12.181-1.116,8.649,8.649,0,0,0-12.181,1.116" transform="translate(-3.216 -1.973)" fill="#f5f5f5"/>
            <path id="Trazado_735872" data-name="Trazado 735872" d="M48.438,100.419a13,13,0,0,1,3.06-1.608l.42-3.179,5.282-.483.99,3.048a12.991,12.991,0,0,1,3.3,1.024l2.543-1.949,4.078,3.392-1.455,2.855a12.941,12.941,0,0,1,1.608,3.062l3.179.42.484,5.281-3.048.991a13,13,0,0,1-1.025,3.3l1.949,2.543L66.412,123.2l-2.856-1.454a13,13,0,0,1-3.061,1.607l-.42,3.179-5.281.484-.991-3.049a12.991,12.991,0,0,1-3.3-1.024l-2.543,1.95-4.077-3.393,1.454-2.855a12.97,12.97,0,0,1-1.608-3.061l-3.179-.42-.484-5.281,3.049-.991a13,13,0,0,1,1.024-3.3l-1.949-2.543,3.392-4.077Zm3.34,6.836a5.689,5.689,0,1,0,8.013-.735,5.689,5.689,0,0,0-8.013.735" transform="translate(-2.028 -4.817)" fill="#ebebeb"/>
          </g>
        </g>
        <g id="Grupo_1033881" data-name="Grupo 1033881">
          <g id="Grupo_1033880" data-name="Grupo 1033880" clip-path="url(#clip-path)">
            <path id="Trazado_735873" data-name="Trazado 735873" d="M624.624,414.7c0,.137-133.444.247-298.019.247-164.631,0-298.047-.11-298.047-.247s133.416-.247,298.047-.247c164.574,0,298.019.11,298.019.247" transform="translate(-1.446 -20.981)" fill="#263238"/>
          </g>
        </g>
        <g id="Grupo_1033883" data-name="Grupo 1033883">
          <g id="Grupo_1033882" data-name="Grupo 1033882" clip-path="url(#clip-path)">
            <path id="Trazado_735874" data-name="Trazado 735874" d="M161.586,373.719a7.487,7.487,0,0,1,4.89,3.237,13.222,13.222,0,0,1,2.046,5.617c.581,3.846-.526,8.185-2.007,11.781-3.88-1.9-5.891-6.487-6.765-8.879-1.38-3.782-1.58-11.455,1.836-11.755" transform="translate(-8.04 -18.919)" fill="#81d4fa"/>
            <path id="Trazado_735875" data-name="Trazado 735875" d="M172.485,400.372a6.391,6.391,0,0,1,.415-6.4,8.486,8.486,0,0,1,5.536-3.514,3.576,3.576,0,0,1,2.973.477,2.734,2.734,0,0,1,.76,2.664,5.537,5.537,0,0,1-1.455,2.483c-2.263,2.442-4.9,4.389-8.229,4.293" transform="translate(-8.698 -19.761)" fill="#81d4fa"/>
            <path id="Trazado_735876" data-name="Trazado 735876" d="M171.5,413.13a4.5,4.5,0,0,1-.094-.8c-.047-.566-.106-1.3-.178-2.174a22.429,22.429,0,0,1,.357-7.2,13.733,13.733,0,0,1,3.393-6.329,9.275,9.275,0,0,1,1.707-1.378,5.461,5.461,0,0,1,.519-.292c.122-.062.187-.09.192-.082a14.65,14.65,0,0,0-2.275,1.89,14.169,14.169,0,0,0-3.263,6.258,24.147,24.147,0,0,0-.432,7.117c.044.92.079,1.665.088,2.181a4.224,4.224,0,0,1-.015.8" transform="translate(-8.662 -19.99)" fill="#263238"/>
            <path id="Trazado_735877" data-name="Trazado 735877" d="M162.438,379.86a1.616,1.616,0,0,1,.128.325c.082.244.187.558.316.947.27.823.645,2.02,1.095,3.5.9,2.964,2.09,7.078,3.3,11.648s2.209,8.736,2.891,11.758c.342,1.511.608,2.737.78,3.586.079.4.143.726.193.979a1.615,1.615,0,0,1,.049.346,1.608,1.608,0,0,1-.1-.333c-.064-.25-.144-.571-.245-.967l-.867-3.564c-.731-3.01-1.761-7.162-2.97-11.731s-2.365-8.687-3.217-11.664c-.419-1.463-.76-2.66-1.008-3.527-.109-.394-.2-.713-.266-.962a1.573,1.573,0,0,1-.074-.341" transform="translate(-8.223 -19.23)" fill="#263238"/>
            <path id="Trazado_735878" data-name="Trazado 735878" d="M166.674,404.385a14.948,14.948,0,0,0-10.727-8.452c-1.186-.22-2.645-.18-3.3.834s-.083,2.367.632,3.34a12.771,12.771,0,0,0,13.4,4.605" transform="translate(-7.713 -20.038)" fill="#81d4fa"/>
            <path id="Trazado_735879" data-name="Trazado 735879" d="M157.678,399.522a3.82,3.82,0,0,1,.745.111,7.222,7.222,0,0,1,.862.2c.329.1.717.18,1.121.344a13.078,13.078,0,0,1,1.32.531,14.437,14.437,0,0,1,1.453.747,16.547,16.547,0,0,1,2.987,2.254,16.227,16.227,0,0,1,2.352,2.913,14.228,14.228,0,0,1,.783,1.435,12.062,12.062,0,0,1,.554,1.311,11.138,11.138,0,0,1,.357,1.117,6.8,6.8,0,0,1,.2.86,3.815,3.815,0,0,1,.114.745c-.062.014-.234-1.05-.861-2.652a12.888,12.888,0,0,0-.578-1.279,14.89,14.89,0,0,0-.793-1.4,16.913,16.913,0,0,0-2.328-2.848,17.275,17.275,0,0,0-2.923-2.234,15.662,15.662,0,0,0-1.42-.759c-.449-.233-.891-.395-1.29-.555-1.61-.6-2.672-.781-2.659-.841" transform="translate(-7.982 -20.225)" fill="#263238"/>
          </g>
        </g>
        <g id="Grupo_1033885" data-name="Grupo 1033885">
          <g id="Grupo_1033884" data-name="Grupo 1033884" clip-path="url(#clip-path)">
            <path id="Trazado_735880" data-name="Trazado 735880" d="M266.921,32.66a26.51,26.51,0,1,1-37.392-2.729,26.511,26.511,0,0,1,37.392,2.729" transform="translate(-11.155 -1.189)" fill="#fff"/>
            <path id="Trazado_735881" data-name="Trazado 735881" d="M266.909,32.652a2.723,2.723,0,0,1-.316-.293l-.89-.893-.649-.662c-.25-.233-.546-.462-.854-.725a19.24,19.24,0,0,0-2.207-1.7,25.285,25.285,0,0,0-6.815-3.385,26.3,26.3,0,0,0-31.237,12.167,27.562,27.562,0,0,0-1.607,3.381c-.222.591-.4,1.2-.6,1.809a13.391,13.391,0,0,0-.485,1.864,29.552,29.552,0,0,0-.6,3.864,29.6,29.6,0,0,0,.044,3.986,25.419,25.419,0,0,0,1.889,7.928,28.064,28.064,0,0,0,4.391,7.155,28.094,28.094,0,0,0,6.442,5.387,25.46,25.46,0,0,0,7.571,3.023,24.051,24.051,0,0,0,7.849.591,13.247,13.247,0,0,0,1.914-.209c.628-.112,1.261-.195,1.877-.329a27.4,27.4,0,0,0,3.579-1.1,26.367,26.367,0,0,0,16.574-29.141,25.3,25.3,0,0,0-2.359-7.233,19.247,19.247,0,0,0-1.363-2.431c-.215-.342-.4-.667-.592-.948l-.561-.739c-.32-.429-.571-.764-.755-1.009a2.7,2.7,0,0,1-.244-.356,2.673,2.673,0,0,1,.284.323l.8.981.583.727c.2.277.393.6.616.94a18.784,18.784,0,0,1,1.413,2.425,25.1,25.1,0,0,1,2.462,7.272,26.673,26.673,0,0,1-5.323,21.3,26.764,26.764,0,0,1-11.364,8.326,27.663,27.663,0,0,1-3.641,1.128c-.628.139-1.27.224-1.91.34a13.726,13.726,0,0,1-1.949.216,29.769,29.769,0,0,1-3.983.037,30.241,30.241,0,0,1-4.013-.628,25.883,25.883,0,0,1-7.719-3.074,28.542,28.542,0,0,1-6.568-5.488,28.5,28.5,0,0,1-4.473-7.294A25.846,25.846,0,0,1,220.2,52.1a30.066,30.066,0,0,1-.038-4.06,29.8,29.8,0,0,1,.615-3.935,13.787,13.787,0,0,1,.5-1.9c.207-.616.385-1.24.613-1.84a27.726,27.726,0,0,1,1.644-3.438A26.772,26.772,0,0,1,233.42,26.9a26.678,26.678,0,0,1,21.847-2.175,25.1,25.1,0,0,1,6.838,3.493,18.754,18.754,0,0,1,2.194,1.75c.3.27.6.507.841.746s.443.477.635.682l.854.93a2.655,2.655,0,0,1,.278.328" transform="translate(-11.143 -1.181)" fill="#263238"/>
            <path id="Trazado_735882" data-name="Trazado 735882" d="M239.321,44.558h4.538a3.857,3.857,0,0,1,3.961-3.879,3.674,3.674,0,0,1,3.556,2.344,4.067,4.067,0,0,1-.324,3.676c-.77,1.269-2.456,2.423-5.515,1.885V58.816h4.488V52.821a8.764,8.764,0,0,0,6.294-8.563c0-6.636-5.952-8.178-8.5-8.178-1.948,0-8.584.471-8.5,8.478" transform="translate(-12.115 -1.827)" fill="#ff9d00"/>
            <rect id="Rectángulo_350607" data-name="Rectángulo 350607" width="4.555" height="4.253" transform="translate(233.409 59.098)" fill="#ff9d00"/>
            <path id="Trazado_735883" data-name="Trazado 735883" d="M286.117,64.312a3.22,3.22,0,1,1-3.219-3.219,3.219,3.219,0,0,1,3.219,3.219" transform="translate(-14.158 -3.093)" fill="#fff"/>
            <path id="Trazado_735884" data-name="Trazado 735884" d="M286.1,64.3a7.552,7.552,0,0,1-.2-.762,3.214,3.214,0,0,0-1.184-1.654,3.052,3.052,0,0,0-2.857-.388,2.993,2.993,0,0,0,0,5.609,3.055,3.055,0,0,0,2.857-.388,3.214,3.214,0,0,0,1.184-1.654,7.552,7.552,0,0,1,.2-.762,1.492,1.492,0,0,1,0,.81A3.21,3.21,0,0,1,284.94,67a3.386,3.386,0,0,1-3.233.542,3.439,3.439,0,0,1,0-6.487,3.383,3.383,0,0,1,3.233.541,3.21,3.21,0,0,1,1.158,1.892,1.492,1.492,0,0,1,0,.81" transform="translate(-14.145 -3.081)" fill="#263238"/>
          </g>
        </g>
        <g id="Grupo_1033890" data-name="Grupo 1033890">
          <g id="Grupo_1033889" data-name="Grupo 1033889" clip-path="url(#clip-path)">
            <path id="Trazado_735885" data-name="Trazado 735885" d="M483.267,218.221s18.1,1.2,28.13,17.978,20.033,62.4,35.178,72.543,16.384,9.57,16.384,9.57-21.69,5.474-33.51,1.21S506.562,299.8,499.323,278.4c-7.711-22.8-16.518-46.205-34.912-51.21l13.089-8.966Z" transform="translate(-23.51 -11.047)" fill="#15d3ec"/>
            <path id="Trazado_735886" data-name="Trazado 735886" d="M568.764,201.61c-.6.443-11.785,22.921-11.785,22.921l5.547-.809s.059,24.818-.731,32.435c-5.355,51.689-19.651,50.143-19.651,50.143l8.832,8.83s12.3,3.91,15.526,2.515c8.95-3.872,19.688-7.039,18.4-68.4-.514-24.4-2.983-28.5-2.983-28.5l7.6-2.152L569.6,202.294" transform="translate(-27.445 -10.206)" fill="#15d3ec"/>
            <g id="Grupo_1033888" data-name="Grupo 1033888" transform="translate(440.902 207.174)" opacity="0.3">
              <g id="Grupo_1033887" data-name="Grupo 1033887">
                <g id="Grupo_1033886" data-name="Grupo 1033886" clip-path="url(#clip-path-7)">
                  <path id="Trazado_735887" data-name="Trazado 735887" d="M483.267,218.221s18.1,1.2,28.13,17.978,20.033,62.4,35.178,72.543,16.384,9.57,16.384,9.57-21.69,5.474-33.51,1.21S506.562,299.8,499.323,278.4c-7.711-22.8-16.518-46.205-34.912-51.21l13.089-8.966Z" transform="translate(-464.412 -218.221)"/>
                </g>
              </g>
            </g>
            <path id="Trazado_735888" data-name="Trazado 735888" d="M458.413,259.9c4.4-37.677,21.935-41.7,21.935-41.7s-44.029-4.628-59.984,17.231-14.812,35.033-11.649,56.053,21.016,81.158,16.931,112.762l52.124-.013c8.829-34.484-23.528-108.64-19.357-144.333" transform="translate(-20.593 -11.025)" fill="#15d3ec"/>
          </g>
        </g>
        <g id="Grupo_1033895" data-name="Grupo 1033895">
          <g id="Grupo_1033894" data-name="Grupo 1033894" clip-path="url(#clip-path)">
            <path id="Trazado_735889" data-name="Trazado 735889" d="M557.373,375.446s26.811,1.672,44.155-58.572c11.413-39.649,9.85-43.325,9.85-43.325H598.09l39.451-44.695,26.987,41.071-11.476.6s-10.975,119.334-53.561,124.629Z" transform="translate(-28.216 -11.586)" fill="#7e5ee3"/>
            <path id="Trazado_735890" data-name="Trazado 735890" d="M478.949,348.471c.72.959,10.328,10.377,11.03,11.03,11.33,10.541,28.94,37.433,54.431,42.442,27.737,5.451,46.278,3.836,60.665-4.076,0,0-16.785,4.555-37.406-14.148s-37.095-32.367-46.966-37.035-41.754,1.787-41.754,1.787" transform="translate(-24.246 -17.465)" fill="#7e5ee3"/>
            <g id="Grupo_1033893" data-name="Grupo 1033893" transform="translate(454.703 327.526)" opacity="0.3">
              <g id="Grupo_1033892" data-name="Grupo 1033892">
                <g id="Grupo_1033891" data-name="Grupo 1033891" clip-path="url(#clip-path-9)">
                  <path id="Trazado_735891" data-name="Trazado 735891" d="M478.949,348.471c.72.959,10.328,10.377,11.03,11.03,11.33,10.541,28.94,37.433,54.431,42.442,27.737,5.451,46.278,3.836,60.665-4.076,0,0-16.785,4.555-37.406-14.148s-37.095-32.367-46.966-37.035-41.754,1.787-41.754,1.787" transform="translate(-478.949 -344.99)" fill="#12263f"/>
                </g>
              </g>
            </g>
            <path id="Trazado_735892" data-name="Trazado 735892" d="M355.357,410.169s12.9-21.374,38.326-42.38,40.167-36.114,81.811-32.43c0,0,27.324,1.089,46.856,15.462,0,0-31.33-8.513-48.329,7.379-17.492,16.351-28.359,42.323-33.537,51.97" transform="translate(-17.99 -16.949)" fill="#7e5ee3"/>
          </g>
        </g>
        <g id="Grupo_1033900" data-name="Grupo 1033900">
          <g id="Grupo_1033899" data-name="Grupo 1033899" clip-path="url(#clip-path)">
            <path id="Trazado_735893" data-name="Trazado 735893" d="M131.924,256.642c-19.833-25.388-36.182-62.393-36.182-62.393l10.011-3.629L61.206,161.48,47.234,217.011l7.976-3.986s28.566,98.389,97.752,103.432l33.778-27.389s-34.982-7.038-54.815-32.426" transform="translate(-2.391 -8.175)" fill="#7e5ee3"/>
            <path id="Trazado_735894" data-name="Trazado 735894" d="M256.9,226.805s-3.225-22.126-19.754-7.851S209.3,279.835,175.1,312.35c-15.118,14.374-44.07-1.565-44.07-1.565s19.516-8.43,48.051-65.03c11.543-22.893,24.933-62.61,47.683-60.191S256.9,226.805,256.9,226.805" transform="translate(-6.633 -9.389)" fill="#7e5ee3"/>
            <g id="Grupo_1033898" data-name="Grupo 1033898" transform="translate(124.396 175.572)" opacity="0.3">
              <g id="Grupo_1033897" data-name="Grupo 1033897">
                <g id="Grupo_1033896" data-name="Grupo 1033896" clip-path="url(#clip-path-11)">
                  <path id="Trazado_735895" data-name="Trazado 735895" d="M256.9,226.805s-3.225-22.126-19.754-7.851S209.3,279.835,175.1,312.35c-15.118,14.374-44.07-1.565-44.07-1.565s19.516-8.43,48.051-65.03c11.543-22.893,24.933-62.61,47.683-60.191S256.9,226.805,256.9,226.805" transform="translate(-131.029 -185.458)" fill="#12263f"/>
                </g>
              </g>
            </g>
            <path id="Trazado_735896" data-name="Trazado 735896" d="M231.863,185.537c-2.311-.511,41.135-6.871,52.776,37.1s10.867,97.56,23.284,127.79a216.938,216.938,0,0,0,31.026,52.156h-45.23c-13.194-27.483-32.363-108.493-37.8-142.845s-11.642-71.453-24.06-74.2" transform="translate(-11.733 -9.362)" fill="#7e5ee3"/>
          </g>
        </g>
        <g id="Grupo_1033905" data-name="Grupo 1033905">
          <g id="Grupo_1033904" data-name="Grupo 1033904" clip-path="url(#clip-path)">
            <path id="Trazado_735897" data-name="Trazado 735897" d="M75.661,343.705c-20.563-7.682-38.63-27.957-38.63-27.957l5.882-5.778L0,295.041l5.635,35.865,7.956-3.623s29.85,37.345,69.183,37.872l43.565-19.929s-26.082,7.667-50.678-1.521" transform="translate(0 -14.936)" fill="#15d3ec"/>
            <path id="Trazado_735898" data-name="Trazado 735898" d="M209.229,302.912s-4.04-15.577-19.285-3.659-25.234,41.535-53.26,56.442c-16.492,8.772-49.5,8.51-49.5,8.51a197.986,197.986,0,0,0,45.165-38.793c14.3-16.98,31.083-49.122,46.2-49.114,21.931.012,30.674,26.614,30.674,26.614" transform="translate(-4.414 -13.987)" fill="#15d3ec"/>
            <g id="Grupo_1033903" data-name="Grupo 1033903" transform="translate(82.775 262.311)" opacity="0.3">
              <g id="Grupo_1033902" data-name="Grupo 1033902">
                <g id="Grupo_1033901" data-name="Grupo 1033901" clip-path="url(#clip-path-13)">
                  <path id="Trazado_735899" data-name="Trazado 735899" d="M209.229,302.912s-4.04-15.577-19.285-3.659-25.234,41.535-53.26,56.442c-16.492,8.772-49.5,8.51-49.5,8.51a197.986,197.986,0,0,0,45.165-38.793c14.3-16.98,31.083-49.122,46.2-49.114,21.931.012,30.674,26.614,30.674,26.614" transform="translate(-87.189 -276.298)"/>
                </g>
              </g>
            </g>
            <path id="Trazado_735900" data-name="Trazado 735900" d="M183.422,276.227c-2.238-.136,39.165-9.068,52.213,21.364s14.595,69.024,27.8,89.5,21.136,20.566,21.136,20.566H235.8c-13.831-18.426-19.442-56.379-26.123-80.521s-14.223-50.183-26.252-50.911" transform="translate(-9.281 -13.917)" fill="#15d3ec"/>
          </g>
        </g>
        <g id="Grupo_1033907" data-name="Grupo 1033907">
          <g id="Grupo_1033906" data-name="Grupo 1033906" clip-path="url(#clip-path)">
            <path id="Trazado_735901" data-name="Trazado 735901" d="M373.132,130.876s1.228-17,4.571-13.151,25.591,32.5,29.707,40.926-2.375,14.689-2.375,14.689L384.2,194.406l-7.266-7.872,14.66-22.105-22.163-23Z" transform="translate(-18.702 -5.931)" fill="#ae7461"/>
            <path id="Trazado_735902" data-name="Trazado 735902" d="M371.678,114.047s2.029.081,6.274,3.113S397.158,139.4,397.158,139.4l-17.926,16.693-10.8-12.795s-5.646-24.458-5.039-24.388,8.282-4.863,8.282-4.863" transform="translate(-18.394 -5.773)" fill="#ff9d00"/>
            <path id="Trazado_735903" data-name="Trazado 735903" d="M319.7,84.453q-.58-10.295-1.16-20.589l-2.278-9.836c-2.814-2.77-10.8-.5-13.923,1.915s-4.669,6.411-5.106,10.336c-.29,2.6-.247,5.479-1.956,7.46-1.96,2.274-5.639,2.589-7.338,5.064a6.139,6.139,0,0,0-.343,5.639,16.585,16.585,0,0,0,3.324,4.814,16.2,16.2,0,0,0,3.95,3.494,5.959,5.959,0,0,0,5.09.553,5.5,5.5,0,0,0,3.553,6.137,6.946,6.946,0,0,0,7.105-1.871,9.529,9.529,0,0,0,2.434-7.143,2.845,2.845,0,0,0,3.594,1.76,4.641,4.641,0,0,0,2.814-3.268,13.694,13.694,0,0,0,.238-4.466" transform="translate(-14.533 -2.671)" fill="#12263f"/>
            <path id="Trazado_735904" data-name="Trazado 735904" d="M318.355,53.854A27,27,0,0,1,338.79,42.532c4.742-.288,6.75.612,10.209,1.383a14.991,14.991,0,0,1,8.789,5.273c2.574,3.329,4.778,7.089,5.421,11.248a70.575,70.575,0,0,1,1.188,12.9A23.622,23.622,0,0,1,360.9,85.65l-10.874,2.388c-6.043.474-12.17.943-18.127-.178s-11.825-4.04-15.211-9.067c-4.7-6.985-3.374-18.191,1.666-24.938" transform="translate(-15.885 -2.15)" fill="#12263f"/>
            <path id="Trazado_735905" data-name="Trazado 735905" d="M328.669,53.588l14.353-6.452,3.836.275c8.589-.349,14.93,8.861,15.293,15.813.4,7.724.592,17.171-.384,22.921-1.963,11.562-11.7,12.946-11.7,12.946l.213,9.637,4.91,2.569-.8,26.84-17.884,2.755-8.937-32.67-.126-8.261-2.463-42.28a4.073,4.073,0,0,1,3.688-4.093" transform="translate(-16.452 -2.386)" fill="#ae7461"/>
            <path id="Trazado_735906" data-name="Trazado 735906" d="M345.509,86.082a2.443,2.443,0,0,1,.777-1.542,2.5,2.5,0,0,1,3.015-.306,3.342,3.342,0,0,1,1.406,3.078,3.037,3.037,0,0,1-2.116,1.355,3.64,3.64,0,0,1-.406.031,2.724,2.724,0,0,1-1.868-.647,2.428,2.428,0,0,1-.807-1.97" transform="translate(-17.491 -4.246)" fill="#6f4439"/>
            <path id="Trazado_735907" data-name="Trazado 735907" d="M360.407,74.4a1.485,1.485,0,0,1-1.449,1.483,1.42,1.42,0,0,1-1.516-1.355,1.486,1.486,0,0,1,1.447-1.484,1.421,1.421,0,0,1,1.518,1.356" transform="translate(-18.095 -3.698)" fill="#263238"/>
            <path id="Trazado_735908" data-name="Trazado 735908" d="M361.243,68.188c-.186.192-1.3-.653-2.9-.666-1.6-.035-2.778.775-2.949.576-.085-.087.107-.435.621-.8a4.086,4.086,0,0,1,2.364-.7,3.914,3.914,0,0,1,2.306.772c.488.383.65.735.559.82" transform="translate(-17.99 -3.371)" fill="#263238"/>
            <path id="Trazado_735909" data-name="Trazado 735909" d="M351.313,81.209a10.593,10.593,0,0,1,2.6-.441c.408-.038.8-.115.867-.393a2.075,2.075,0,0,0-.259-1.212q-.56-1.487-1.173-3.121c-1.628-4.442-2.8-8.094-2.624-8.158S352.37,71.37,354,75.813c.391,1.1.766,2.139,1.123,3.138a2.363,2.363,0,0,1,.194,1.6,1.021,1.021,0,0,1-.677.59,2.757,2.757,0,0,1-.694.089,10.358,10.358,0,0,1-2.632-.025" transform="translate(-17.754 -3.437)" fill="#263238"/>
            <path id="Trazado_735910" data-name="Trazado 735910" d="M350.6,101.618a29.465,29.465,0,0,1-15.465-4.3s4.045,8.072,15.649,7.113Z" transform="translate(-16.966 -4.926)" fill="#6f4439"/>
            <path id="Trazado_735911" data-name="Trazado 735911" d="M346.364,83.032c.259-.012.245,1.722,1.716,2.97s3.32,1.077,3.331,1.32c.023.108-.416.332-1.2.345a4.316,4.316,0,0,1-2.782-1,3.758,3.758,0,0,1-1.328-2.489c-.059-.725.14-1.153.258-1.142" transform="translate(-17.521 -4.203)" fill="#263238"/>
            <path id="Trazado_735912" data-name="Trazado 735912" d="M360.409,62.341c-.272.387-1.494.114-2.925.217-1.435.057-2.62.467-2.931.112-.139-.173.022-.552.522-.939a4.545,4.545,0,0,1,4.718-.266c.536.329.734.687.615.875" transform="translate(-17.946 -3.084)" fill="#263238"/>
            <path id="Trazado_735913" data-name="Trazado 735913" d="M342.75,74.426a1.485,1.485,0,0,0,1.472,1.459,1.42,1.42,0,0,0,1.5-1.379,1.486,1.486,0,0,0-1.471-1.461,1.421,1.421,0,0,0-1.5,1.38" transform="translate(-17.351 -3.698)" fill="#263238"/>
            <path id="Trazado_735914" data-name="Trazado 735914" d="M338.8,68.539c.189.189,1.292-.674,2.89-.712,1.6-.062,2.79.729,2.958.529.083-.089-.114-.433-.634-.792a4.077,4.077,0,0,0-2.374-.663,3.915,3.915,0,0,0-2.295.809c-.48.39-.638.744-.545.829" transform="translate(-17.15 -3.387)" fill="#263238"/>
            <path id="Trazado_735915" data-name="Trazado 735915" d="M339.568,63.108c.324.354,1.547-.055,3.029-.113,1.48-.1,2.745.171,3.023-.216.122-.187-.085-.546-.643-.874a4.572,4.572,0,0,0-2.479-.529,4.518,4.518,0,0,0-2.4.794c-.515.387-.676.765-.533.939" transform="translate(-17.188 -3.107)" fill="#263238"/>
            <path id="Trazado_735916" data-name="Trazado 735916" d="M327.532,78.431c.008-.862-.968-2.907-1.818-3.048-2.271-.379-6.372-.24-6.473,5.536-.137,7.9,7.819,6.4,7.837,6.178.013-.177.429-5.687.454-8.665" transform="translate(-16.161 -3.81)" fill="#ae7461"/>
            <path id="Trazado_735917" data-name="Trazado 735917" d="M325.069,84.316c-.034-.026-.14.094-.373.2a1.377,1.377,0,0,1-1.029,0c-.829-.32-1.509-1.657-1.522-3.081a4.55,4.55,0,0,1,.419-1.962,1.591,1.591,0,0,1,1.054-1.038.7.7,0,0,1,.805.39c.1.223.048.38.09.394.022.02.172-.129.114-.456a.877.877,0,0,0-.3-.5,1.043,1.043,0,0,0-.758-.214,1.931,1.931,0,0,0-1.457,1.2,4.665,4.665,0,0,0-.516,2.193c.023,1.591.812,3.094,1.948,3.444A1.47,1.47,0,0,0,324.8,84.7c.249-.19.293-.366.266-.381" transform="translate(-16.28 -3.951)" fill="#6f4439"/>
            <path id="Trazado_735918" data-name="Trazado 735918" d="M325.461,73.93l2.092,1.987c8.274-8.651,24.244-30.1,23.357-28.827a25.172,25.172,0,0,0-12.4-.795c-6.376,1.378-18.419,5.13-17.9,12.7s4.85,14.936,4.85,14.936" transform="translate(-16.23 -2.32)" fill="#12263f"/>
            <path id="Trazado_735919" data-name="Trazado 735919" d="M367.961,196.4c.627.639,10.774,23.245,10.119,38.941s-10.119,70.335-10.119,70.335L352.835,390.2H330.869s0-54.035,1.967-68.826,4.262-22.943,4.918-33.81.842-33.723,1.5-32.817-50.675,132.435-50.675,132.435l-21.594-1.43s7.824-45.146,9.462-53.705,8.2-34.823,13.115-48.1S296.2,237.531,303,223.278s6.854-18.729,6.854-18.729Z" transform="translate(-13.516 -9.942)" fill="#12263f"/>
            <path id="Trazado_735920" data-name="Trazado 735920" d="M354.95,380.477l-1.151,21s20.959,8.223,21.125,12.124l-40.8-.769.45-32.794Z" transform="translate(-16.915 -19.239)" fill="#263238"/>
            <path id="Trazado_735921" data-name="Trazado 735921" d="M334.125,414.413l.044-3.177,39.183,1.846s1.8.824,1.572,2.1Z" transform="translate(-16.915 -20.818)" fill="#455a64"/>
            <path id="Trazado_735922" data-name="Trazado 735922" d="M355.349,402.4c-.01.2-1.008.271-2,.893-1.009.6-1.53,1.45-1.712,1.367-.183-.043.136-1.228,1.351-1.96s2.408-.481,2.361-.3" transform="translate(-17.799 -20.361)" fill="#fff"/>
            <path id="Trazado_735923" data-name="Trazado 735923" d="M359.874,404.359c.042.194-.827.516-1.52,1.346-.717.81-.9,1.717-1.1,1.705-.188.027-.3-1.142.577-2.157s2.045-1.084,2.046-.894" transform="translate(-18.079 -20.466)" fill="#fff"/>
            <path id="Trazado_735924" data-name="Trazado 735924" d="M362.467,409.625c-.181.039-.441-.962.092-2.043s1.472-1.5,1.553-1.33c.109.166-.507.74-.929,1.634-.444.885-.517,1.723-.716,1.739" transform="translate(-18.338 -20.564)" fill="#fff"/>
            <path id="Trazado_735925" data-name="Trazado 735925" d="M273.511,377.807l-6.856,24.5-11.011,17.818a2.607,2.607,0,0,0,3.387,3.7c4.8-2.431,22.412-11.462,22.814-13.283.464-2.109,8.948-25.367,8.948-25.367Z" transform="translate(-12.922 -19.126)" fill="#263238"/>
            <path id="Trazado_735926" data-name="Trazado 735926" d="M256.719,425.463l25.7-14.9-.314,1.031a3.92,3.92,0,0,1-1.632,2.164c-2.1,1.345-7.976,4.934-21.294,11.754a2.6,2.6,0,0,1-2.46-.047" transform="translate(-12.996 -20.784)" fill="#455a64"/>
            <path id="Trazado_735927" data-name="Trazado 735927" d="M265.768,416.626a5.628,5.628,0,0,0-4.2-3.933c0-.065.363-.161.956-.068a4.159,4.159,0,0,1,3.247,3.043c.131.587.06.958-.007.959" transform="translate(-13.242 -20.887)" fill="#fff"/>
            <path id="Trazado_735928" data-name="Trazado 735928" d="M262.9,419.566c-.148.07-.688-.959-1.837-1.7a21.4,21.4,0,0,0-2.284-1.031,2.9,2.9,0,0,1,2.594.565c1.3.856,1.675,2.143,1.528,2.169" transform="translate(-13.1 -21.096)" fill="#fff"/>
            <path id="Trazado_735929" data-name="Trazado 735929" d="M270.411,413.22a25.98,25.98,0,0,0-2.658-2.821,26.177,26.177,0,0,0-3.353-1.941,7.129,7.129,0,0,1,6.011,4.762" transform="translate(-13.385 -20.676)" fill="#fff"/>
            <path id="Trazado_735930" data-name="Trazado 735930" d="M273.249,405.687c-.109.126-1.283-.846-3.013-1.441-1.723-.621-3.246-.6-3.253-.766a6.472,6.472,0,0,1,6.266,2.207" transform="translate(-13.516 -20.416)" fill="#fff"/>
            <path id="Trazado_735931" data-name="Trazado 735931" d="M275.573,399.662A8.281,8.281,0,0,0,269,397.905c-.025-.063.335-.287.995-.441a5.683,5.683,0,0,1,4.935,1.32c.5.462.695.835.642.878" transform="translate(-13.618 -20.115)" fill="#fff"/>
            <path id="Trazado_735932" data-name="Trazado 735932" d="M371.866,192.98c-5.044-4.9-6.392-25.05-4.265-31.663,6.333-12.7,3.789-30.09.922-47.648-3.221-1.235-18.574-4.637-18.574-4.637s-4.028,6.067-9.744,5.924c-9.289-.232-13.258-8.38-13.258-8.38s-15.594,1.9-21.45,4.653l-4.489,33.558s7.863,50.659,11.274,54.983,28.789,14.06,41.3,10.147,21.975-13.352,18.288-16.937" transform="translate(-15.238 -5.395)" fill="#ff9d00"/>
            <path id="Trazado_735933" data-name="Trazado 735933" d="M346.622,118.413c-.18-1.092-2.059-6.205-2.491-8.555-.609-3.315-6.705-11.093-6.705-11.093s.065-3.037,3.388-1.031c3.934,2.374,5.6,5.735,6.73,5.24s8.539-6.324,10.3-5.884a1.863,1.863,0,0,1,1.191,2.977,16.357,16.357,0,0,0-1.588,1.778s3.928-.653,2.662,3.394c0,0,4.652-2.135,3.5,3.485a2.342,2.342,0,0,1,.821,3.044,48.893,48.893,0,0,1-3.985,5.739c-1.148,1.454-3.178,6.722-3.178,6.722l-2.021,8.846-12.343-4.233Z" transform="translate(-17.082 -4.913)" fill="#ae7461"/>
            <path id="Trazado_735934" data-name="Trazado 735934" d="M358.264,102.209a21.725,21.725,0,0,1-2.047,1.471,21.6,21.6,0,0,1-2.085,1.419,16.166,16.166,0,0,1,4.132-2.89" transform="translate(-17.927 -5.174)" fill="#6f4439"/>
            <path id="Trazado_735935" data-name="Trazado 735935" d="M361.526,105.479a6.249,6.249,0,0,1-2.712,2.7c-.038-.057.663-.556,1.406-1.3s1.249-1.438,1.306-1.4" transform="translate(-18.164 -5.34)" fill="#6f4439"/>
            <path id="Trazado_735936" data-name="Trazado 735936" d="M364.864,109.12a10.1,10.1,0,0,1-2.083,2.223,5.194,5.194,0,0,1,.958-1.191,5.133,5.133,0,0,1,1.125-1.033" transform="translate(-18.365 -5.524)" fill="#6f4439"/>
            <path id="Trazado_735937" data-name="Trazado 735937" d="M403.174,167.107a52.6,52.6,0,0,0-5.67-.521,53.029,53.029,0,0,0-5.665.579,4.836,4.836,0,0,1,1.6-.562,17.85,17.85,0,0,1,8.13-.042,4.826,4.826,0,0,1,1.605.546" transform="translate(-19.836 -8.409)" fill="#6f4439"/>
            <path id="Trazado_735938" data-name="Trazado 735938" d="M376.286,189.444c-2.937-.7-10.945-9.291-13.695-11.007s-7.944,0-7.944,0c.153,3.289,2.292,1.716,4.125,2a12.565,12.565,0,0,1,4.277,2.145l-3.514.429-6.874,3.145a4.045,4.045,0,0,0,1.986,3.146c1.986,1.286,7.333-.671,7.333-.671l3.055.957-3.208.572s-4.278.715-5.347,1.716a1.382,1.382,0,0,0-.153,2l6.417-1.573,3.819.716s6.182,5.6,9.319,6.434,7.026-2.813,7.026-2.813Z" transform="translate(-17.853 -8.995)" fill="#ae7461"/>
            <path id="Trazado_735939" data-name="Trazado 735939" d="M367.059,186.572a5.284,5.284,0,0,1-2.042-.371,10.5,10.5,0,0,0-2.141-.459,9.674,9.674,0,0,0-2.637.348,40.585,40.585,0,0,0-4.676,1.6,10.208,10.208,0,0,1-1.951.684,8.757,8.757,0,0,1,1.825-.978,27.383,27.383,0,0,1,4.693-1.746,6.918,6.918,0,0,1,4.985.245c1.191.452,1.948.615,1.944.676" transform="translate(-17.901 -9.381)" fill="#6f4439"/>
            <path id="Trazado_735940" data-name="Trazado 735940" d="M315.07,133.289l18.458,17.743,11.367-31.48,10.489,6.517s-8.264,39.069-12.75,44.859-7.093,6.008-13.367,3.283-25.935-25.347-25.935-25.347Z" transform="translate(-15.356 -6.052)" fill="#ae7461"/>
            <path id="Trazado_735941" data-name="Trazado 735941" d="M304.972,155.438s-16.2-23.964-9.609-36.083c0,0,4.563-6.76,9.767-7.878a16.037,16.037,0,0,1,7.2,5.393c3.134,4.129,13.142,19.018,13.142,19.018Z" transform="translate(-14.873 -5.643)" fill="#ff9d00"/>
            <path id="Trazado_735942" data-name="Trazado 735942" d="M357.258,124.217a1.261,1.261,0,0,1,.089-.312c.085-.234.193-.527.325-.89.3-.776.744-1.913,1.4-3.334a13.95,13.95,0,0,1,1.266-2.286c.576-.744,1.186-1.565,1.819-2.453s1.295-1.85,1.9-2.908a2.438,2.438,0,0,0,.43-1.674,2.393,2.393,0,0,0-1-1.478l-.109-.077.021-.133a9.292,9.292,0,0,0,.162-1.557,2.5,2.5,0,0,0-.378-1.473,1.533,1.533,0,0,0-1.349-.589,4.553,4.553,0,0,0-1.648.38l-.453.195.144-.467a2.9,2.9,0,0,0-.061-2.414,2.5,2.5,0,0,0-2.348-.679l-.578.073.352-.452c.282-.364.575-.718.888-1.067.156-.175.316-.347.487-.516l.253-.246a1.01,1.01,0,0,0,.164-.219,1.7,1.7,0,0,0-1.351-2.323,1.761,1.761,0,0,0-.617.086,8.752,8.752,0,0,0-1.317.556c-.866.451-1.716.976-2.562,1.519-1.518.979-2.968,2.012-4.419,3a10.26,10.26,0,0,1-1.15.709,1.015,1.015,0,0,1-.824-.069,2.882,2.882,0,0,1-.58-.395c-.676-.582-1.226-1.213-1.822-1.8a19.638,19.638,0,0,0-3.732-3.019,3.305,3.305,0,0,0-2.022-.622c-.654.085-.977.826-1.011,1.472l-.047-.139a70.124,70.124,0,0,1,5.055,7.429,15.1,15.1,0,0,1,1.549,3.447c.237,1.142.5,2.154.775,3.08.546,1.809.978,3.247,1.288,4.279.143.5.247.88.3,1.143a1.439,1.439,0,0,1,.057.4c-.261-.791-.8-2.443-1.893-5.751-.288-.914-.579-1.958-.831-3.079a15.034,15.034,0,0,0-1.557-3.344,72.9,72.9,0,0,0-5.087-7.34l-.051-.065.006-.074a2.625,2.625,0,0,1,.325-1.163,1.507,1.507,0,0,1,1.039-.74,3.688,3.688,0,0,1,2.34.668,20,20,0,0,1,3.835,3.074c.6.584,1.169,1.228,1.793,1.761.3.264.675.482.9.389a10.86,10.86,0,0,0,1.066-.666c1.439-.984,2.9-2.023,4.427-3.01.854-.548,1.712-1.078,2.605-1.542a9.162,9.162,0,0,1,1.405-.591,2.126,2.126,0,0,1,2.53,2.937,1.544,1.544,0,0,1-.256.34l-.251.239c-.16.159-.316.325-.468.494-.3.337-.593.687-.868,1.037l-.228-.379a4.189,4.189,0,0,1,1.509.063,2.153,2.153,0,0,1,1.3.816,2.492,2.492,0,0,1,.373,1.447c-.029.235-.046.475-.09.7l-.172.667-.309-.272a4.964,4.964,0,0,1,1.835-.41,1.969,1.969,0,0,1,1.7.777,2.9,2.9,0,0,1,.448,1.723,9.432,9.432,0,0,1-.184,1.641l-.086-.21a2.52,2.52,0,0,1,.667,3.673c-.634,1.076-1.314,2.028-1.958,2.916s-1.272,1.7-1.865,2.436a14.306,14.306,0,0,0-1.277,2.213c-.681,1.4-1.162,2.52-1.494,3.279-.155.353-.281.639-.38.866a1.483,1.483,0,0,1-.147.291" transform="translate(-17.07 -4.901)" fill="#6f4439"/>
            <path id="Trazado_735943" data-name="Trazado 735943" d="M318.961,82.375a5.384,5.384,0,0,1-.8-.87,9.222,9.222,0,0,1-.83-1.116l-.488-.721q-.228-.409-.475-.852a21.923,21.923,0,0,1-2.617-10.267,23.326,23.326,0,0,1,2.263-10.361,20.19,20.19,0,0,1,1.622-2.79,5.3,5.3,0,0,1,.719-.94c.092.061-.911,1.421-2.023,3.876a24.549,24.549,0,0,0-2.087,10.208,22.937,22.937,0,0,0,2.432,10.11c1.226,2.4,2.372,3.653,2.285,3.721" transform="translate(-15.883 -2.757)" fill="#455a64"/>
          </g>
        </g>
      </g>
    </g>
  </g>
</svg>
