<svg id="Grupo_1034621" data-name="Grupo 1034621" xmlns="http://www.w3.org/2000/svg" xmlns:xlink="http://www.w3.org/1999/xlink" width="432.404" height="429.835" viewBox="0 0 432.404 429.835">
  <defs>
    <clipPath id="clip-path">
      <rect id="Rectángulo_351081" data-name="Rectángulo 351081" width="432.404" height="429.835" fill="none"/>
    </clipPath>
    <clipPath id="clip-path-2">
      <rect id="Rectángulo_351080" data-name="Rectángulo 351080" width="432.405" height="429.835" fill="none"/>
    </clipPath>
    <clipPath id="clip-path-3">
      <rect id="Rectángulo_351062" data-name="Rectángulo 351062" width="5.305" height="16.346" fill="none"/>
    </clipPath>
    <clipPath id="clip-path-6">
      <rect id="Rectángulo_351069" data-name="Rectángulo 351069" width="31.765" height="22.47" fill="none"/>
    </clipPath>
  </defs>
  <g id="Grupo_1034620" data-name="Grupo 1034620" clip-path="url(#clip-path)">
    <g id="Grupo_1034619" data-name="Grupo 1034619" transform="translate(0 0)">
      <g id="Grupo_1034618" data-name="Grupo 1034618" clip-path="url(#clip-path-2)">
        <path id="Trazado_739311" data-name="Trazado 739311" d="M542.741,185.157c21.918,20.652,26.475,47.475,29.27,76.2,2.734,28.1,11.99,55.715,10.109,84.183-1.17,17.692-7.244,35.717-20.13,47.9-11.969,11.313-28.342,16.435-44.1,21.213L456.145,433.36c-19.665,5.96-40.093,11.988-60.444,9.149-28.5-3.975-50.572-23.941-73.922-38.92-25.055-16.073-55.918-21.916-71.767-49.75-14.48-25.43-8.5-55.9-18.4-83.108-12.176-33.459-24.49-74.659-12.9-108.528,22.586-66.022,105.766-60.482,162.578-69.14,23.934-3.647,49.349-7.125,71.594,2.432,21.118,9.073,34.941,28.023,46.313,47.177,11.505,19.378,27.146,27.027,43.551,42.484" transform="translate(-156.657 -65.367)" fill="#edf3fa"/>
        <rect id="Rectángulo_351061" data-name="Rectángulo 351061" width="69.448" height="123.286" transform="translate(101.275 10.851)" fill="#fff"/>
        <path id="Trazado_739312" data-name="Trazado 739312" d="M445.271,162.6H375.822a.665.665,0,0,1-.665-.665V38.647a.665.665,0,0,1,.665-.665h69.448a.665.665,0,0,1,.665.665V161.933a.665.665,0,0,1-.665.665m-68.783-1.33h68.118V39.312H376.487Z" transform="translate(-274.548 -27.796)" fill="#758de6"/>
        <path id="Trazado_739313" data-name="Trazado 739313" d="M463.69,180.507a.972.972,0,0,1-.972.972l-4.042,0a.972.972,0,0,1-.972-.972l-.009-20.821v-1.3a.171.171,0,1,1,.343,0v1.3l.007,19.878a.966.966,0,0,0,.7.932,7.74,7.74,0,0,0,1.99.273,7.136,7.136,0,0,0,1.9-.265.973.973,0,0,0,.708-.936l-.007-19.886V158.39a.171.171,0,1,1,.343,0v1.3Z" transform="translate(-334.951 -115.787)" fill="#9ab3ed"/>
        <g id="Grupo_1034608" data-name="Grupo 1034608" transform="translate(123.089 48.639)" opacity="0.77" style="isolation: isolate">
          <g id="Grupo_1034607" data-name="Grupo 1034607">
            <g id="Grupo_1034606" data-name="Grupo 1034606" clip-path="url(#clip-path-3)">
              <path id="Trazado_739314" data-name="Trazado 739314" d="M464.286,196.515a.974.974,0,0,1-.708.936,7.142,7.142,0,0,1-1.9.264,7.745,7.745,0,0,1-1.99-.273.966.966,0,0,1-.7-.933l-.005-15.059c1.635-.372,3.944.67,5.3.714Z" transform="translate(-458.981 -181.371)" fill="#d9f2ff"/>
            </g>
          </g>
        </g>
        <path id="Trazado_739315" data-name="Trazado 739315" d="M462.849,149.464v3.007a.466.466,0,0,1-.466.466h-.712l-4.823,0h-.589a.466.466,0,0,1-.466-.466v-3.007a.466.466,0,0,1,.466-.466l6.124,0a.466.466,0,0,1,.466.466" transform="translate(-333.559 -109.04)" fill="#5972cf"/>
        <path id="Trazado_739316" data-name="Trazado 739316" d="M479.655,154.274h0a.026.026,0,0,1-.026-.027l.029-2.577a.027.027,0,0,1,.026-.026h0a.026.026,0,0,1,.026.027l-.029,2.577a.026.026,0,0,1-.026.026" transform="translate(-351.002 -110.977)" fill="#151f39"/>
        <path id="Trazado_739317" data-name="Trazado 739317" d="M458.341,154.283a.028.028,0,0,1-.026-.027l.029-2.577a.026.026,0,0,1,.026-.026h0a.026.026,0,0,1,.026.027l-.029,2.577a.026.026,0,0,1-.026.026" transform="translate(-335.404 -110.984)" fill="#151f39"/>
        <path id="Trazado_739318" data-name="Trazado 739318" d="M469,154.278h0a.026.026,0,0,1-.026-.027l.029-2.577a.026.026,0,0,1,.026-.026h0a.026.026,0,0,1,.026.027l-.029,2.577a.026.026,0,0,1-.026.026" transform="translate(-343.203 -110.98)" fill="#151f39"/>
        <path id="Trazado_739319" data-name="Trazado 739319" d="M474.327,154.276h0a.026.026,0,0,1-.026-.027l.029-2.577a.026.026,0,0,1,.026-.026h0a.026.026,0,0,1,.026.027l-.029,2.577a.026.026,0,0,1-.026.026" transform="translate(-347.103 -110.979)" fill="#151f39"/>
        <path id="Trazado_739320" data-name="Trazado 739320" d="M463.67,154.28h0a.026.026,0,0,1-.026-.027l.029-2.577a.024.024,0,0,1,.027-.026.026.026,0,0,1,.026.027l-.029,2.577a.026.026,0,0,1-.026.026" transform="translate(-339.304 -110.981)" fill="#151f39"/>
        <path id="Trazado_739321" data-name="Trazado 739321" d="M499.6,180.507a.972.972,0,0,1-.972.972l-4.042,0a.972.972,0,0,1-.972-.972l-.009-20.821v-1.3a.171.171,0,0,1,.343,0v1.3l.007,19.878a.966.966,0,0,0,.7.932,7.741,7.741,0,0,0,1.99.273,7.138,7.138,0,0,0,1.9-.265.973.973,0,0,0,.708-.936l-.007-19.886V158.39a.171.171,0,1,1,.343,0v1.3Z" transform="translate(-361.233 -115.787)" fill="#9ab3ed"/>
        <g id="Grupo_1034611" data-name="Grupo 1034611" transform="translate(132.72 48.639)" opacity="0.77" style="isolation: isolate">
          <g id="Grupo_1034610" data-name="Grupo 1034610">
            <g id="Grupo_1034609" data-name="Grupo 1034609" clip-path="url(#clip-path-3)">
              <path id="Trazado_739322" data-name="Trazado 739322" d="M500.2,196.515a.974.974,0,0,1-.708.936,7.141,7.141,0,0,1-1.9.264,7.744,7.744,0,0,1-1.99-.273.966.966,0,0,1-.7-.933l-.005-15.059c1.635-.372,3.944.67,5.3.714Z" transform="translate(-494.892 -181.371)" fill="#d9f2ff"/>
            </g>
          </g>
        </g>
        <path id="Trazado_739323" data-name="Trazado 739323" d="M498.76,149.464v3.007a.466.466,0,0,1-.466.466h-.712l-4.823,0h-.589a.466.466,0,0,1-.466-.466v-3.007a.466.466,0,0,1,.466-.466l6.124,0a.466.466,0,0,1,.466.466" transform="translate(-359.839 -109.04)" fill="#5972cf"/>
        <path id="Trazado_739324" data-name="Trazado 739324" d="M515.567,154.274h0a.026.026,0,0,1-.026-.027l.029-2.577a.026.026,0,0,1,.026-.026h0a.026.026,0,0,1,.026.027l-.029,2.577a.026.026,0,0,1-.026.026" transform="translate(-377.284 -110.977)" fill="#151f39"/>
        <path id="Trazado_739325" data-name="Trazado 739325" d="M494.253,154.283h0a.026.026,0,0,1-.026-.027l.029-2.577a.026.026,0,0,1,.026-.026h0a.026.026,0,0,1,.026.027l-.029,2.577a.026.026,0,0,1-.026.026" transform="translate(-361.686 -110.984)" fill="#151f39"/>
        <path id="Trazado_739326" data-name="Trazado 739326" d="M504.91,154.278h0a.026.026,0,0,1-.026-.027l.029-2.577a.026.026,0,0,1,.026-.026h0a.026.026,0,0,1,.026.027l-.029,2.577a.026.026,0,0,1-.026.026" transform="translate(-369.485 -110.98)" fill="#151f39"/>
        <path id="Trazado_739327" data-name="Trazado 739327" d="M510.238,154.276h0a.026.026,0,0,1-.026-.027l.029-2.577a.026.026,0,0,1,.026-.026h0a.026.026,0,0,1,.026.027l-.029,2.577a.026.026,0,0,1-.026.026" transform="translate(-373.384 -110.979)" fill="#151f39"/>
        <path id="Trazado_739328" data-name="Trazado 739328" d="M499.581,154.28h0a.026.026,0,0,1-.026-.027l.029-2.577a.026.026,0,0,1,.026-.026h0a.026.026,0,0,1,.026.027l-.029,2.577a.026.026,0,0,1-.026.026" transform="translate(-365.585 -110.982)" fill="#151f39"/>
        <path id="Trazado_739329" data-name="Trazado 739329" d="M535.514,180.507a.972.972,0,0,1-.972.972l-4.042,0a.972.972,0,0,1-.972-.972l-.009-20.821v-1.3a.171.171,0,1,1,.343,0v1.3l.007,19.878a.966.966,0,0,0,.7.932,7.74,7.74,0,0,0,1.99.273,7.136,7.136,0,0,0,1.9-.265.973.973,0,0,0,.708-.936l-.007-19.886V158.39a.171.171,0,1,1,.343,0v1.3Z" transform="translate(-387.514 -115.787)" fill="#9ab3ed"/>
        <g id="Grupo_1034614" data-name="Grupo 1034614" transform="translate(142.351 48.639)" opacity="0.77" style="isolation: isolate">
          <g id="Grupo_1034613" data-name="Grupo 1034613">
            <g id="Grupo_1034612" data-name="Grupo 1034612" clip-path="url(#clip-path-3)">
              <path id="Trazado_739330" data-name="Trazado 739330" d="M536.109,196.515a.973.973,0,0,1-.708.936,7.142,7.142,0,0,1-1.9.264,7.744,7.744,0,0,1-1.99-.273.966.966,0,0,1-.7-.933l-.005-15.059c1.635-.372,3.944.67,5.3.714Z" transform="translate(-530.804 -181.371)" fill="#d9f2ff"/>
            </g>
          </g>
        </g>
        <path id="Trazado_739331" data-name="Trazado 739331" d="M534.672,149.464v3.007a.466.466,0,0,1-.466.466h-.712l-4.823,0h-.589a.466.466,0,0,1-.466-.466v-3.007a.466.466,0,0,1,.466-.466l6.124,0a.466.466,0,0,1,.466.466" transform="translate(-386.12 -109.04)" fill="#5972cf"/>
        <path id="Trazado_739332" data-name="Trazado 739332" d="M551.479,154.274h0a.026.026,0,0,1-.026-.027l.029-2.577a.026.026,0,0,1,.026-.026h0a.026.026,0,0,1,.026.027l-.029,2.577a.026.026,0,0,1-.026.026" transform="translate(-403.565 -110.977)" fill="#151f39"/>
        <path id="Trazado_739333" data-name="Trazado 739333" d="M530.164,154.282h0a.026.026,0,0,1-.026-.027l.029-2.577c0-.015.013-.029.027-.026a.026.026,0,0,1,.026.027l-.029,2.577a.026.026,0,0,1-.026.026" transform="translate(-387.966 -110.983)" fill="#151f39"/>
        <path id="Trazado_739334" data-name="Trazado 739334" d="M540.822,154.278h0a.026.026,0,0,1-.026-.027l.029-2.577a.026.026,0,0,1,.026-.026h0a.026.026,0,0,1,.026.027l-.029,2.577a.026.026,0,0,1-.026.026" transform="translate(-395.766 -110.98)" fill="#151f39"/>
        <path id="Trazado_739335" data-name="Trazado 739335" d="M546.15,154.276a.024.024,0,0,1-.026-.027l.029-2.577a.027.027,0,0,1,.026-.026.026.026,0,0,1,.026.027l-.029,2.577a.026.026,0,0,1-.026.026" transform="translate(-399.665 -110.979)" fill="#151f39"/>
        <path id="Trazado_739336" data-name="Trazado 739336" d="M535.493,154.28a.025.025,0,0,1-.026-.027l.029-2.577a.026.026,0,0,1,.026-.026h0a.026.026,0,0,1,.026.027l-.029,2.577a.026.026,0,0,1-.026.026" transform="translate(-391.866 -110.982)" fill="#151f39"/>
        <path id="Trazado_739337" data-name="Trazado 739337" d="M465.432,220.52H435.786V217.6h29.558c.026.764.06,1.822.088,2.92" transform="translate(-318.917 -159.244)" fill="#4556b5"/>
        <path id="Trazado_739338" data-name="Trazado 739338" d="M441.366,264.606l2.464,18.544c-6.109,4.107-62.254,1.927-68.337-2.23l2.6-16.314c.4-26.455,14.7-29.44,14.787-31.562.046-1.021.067-2.882.079-4.552H426.5c.012,1.67.036,3.531.079,4.552.091,2.122,14.386,5.107,14.787,31.562" transform="translate(-274.794 -167.215)" fill="#7e5ee3"/>
        <path id="Trazado_739339" data-name="Trazado 739339" d="M552.572,217.6v2.92h-6.483c-.029-1.1-.062-2.156-.088-2.92Z" transform="translate(-399.575 -159.244)" fill="#2e4294"/>
        <path id="Trazado_739340" data-name="Trazado 739340" d="M566.387,259.574h-9.066c-.743-18.089-11.117-24.8-10.972-25.959.065-.525.046-2.383,0-4.3-.007-.277-.012-.556-.019-.831h5.191c.012,1.437.036,3.04.079,3.918.091,1.827,14.386,4.4,14.787,27.167" transform="translate(-399.816 -167.213)" fill="#5972cf"/>
        <rect id="Rectángulo_351065" data-name="Rectángulo 351065" width="85.405" height="136.741" transform="translate(290.457 0.665)" fill="#fff"/>
        <path id="Trazado_739341" data-name="Trazado 739341" d="M1166.661,138.073h-85.4a.665.665,0,0,1-.665-.665V.666a.665.665,0,0,1,.665-.665h85.4a.665.665,0,0,1,.665.665V137.407a.665.665,0,0,1-.665.665m-84.74-1.33H1166V1.331h-84.075Z" transform="translate(-790.799 -0.001)" fill="#758de6"/>
        <path id="Trazado_739342" data-name="Trazado 739342" d="M1241.281,292.11l67.972,22.327a4.537,4.537,0,0,1,3.178,5.552l-32.448,98.784a4.537,4.537,0,0,1-5.852,2.587l-67.972-22.327a4.538,4.538,0,0,1-3.183-5.554l32.448-98.784a4.538,4.538,0,0,1,5.856-2.584" transform="translate(-880.22 -213.58)" fill="#7e5ee3"/>
        <path id="Trazado_739343" data-name="Trazado 739343" d="M1279.248,327.991l-.67,1.7-4.354-1.1-27.388,90.816,60.263,20.5,2.265-6.9,4.109.456,21.542-87.922Z" transform="translate(-912.46 -240.031)" fill="#fff"/>
        <path id="Trazado_739344" data-name="Trazado 739344" d="M1389.587,309.7c2.6-8.64,13.016-5.112,15.735-6.777s4.976-7.924,11.229-5.863c6.464,2.13,4.622,8.918,6.708,11.522s12.756,6.3,9.4,14.925c-8.04-2-35.585-11.144-43.069-13.806" transform="translate(-1016.929 -217.094)" fill="#afe7fc"/>
        <path id="Trazado_739345" data-name="Trazado 739345" d="M1291.441,334.069c-4.99,15.982-26.551,87.608-26.551,87.608s44.823,16.21,62.568,16.165" transform="translate(-925.673 -244.479)" fill="#fff"/>
        <path id="Trazado_739346" data-name="Trazado 739346" d="M1326.478,437.267c-17.649,0-62.161-16.023-62.609-16.185a.333.333,0,0,1-.205-.408c.216-.716,21.62-71.81,26.552-87.611a.332.332,0,0,1,.635.2c-4.767,15.27-24.924,82.2-26.459,87.3,3.922,1.4,45.306,16.039,62.086,16.039a.183.183,0,0,1,.073,0,.333.333,0,0,1,0,.665h-.073" transform="translate(-924.765 -243.571)"/>
        <path id="Trazado_739347" data-name="Trazado 739347" d="M1361.82,412.768c1.391-3.678,3.548-8.618,8.566-7.3s4.867,6.632,3.462,11.175c-3.331-1.02-7.951-2.241-12.028-3.878" transform="translate(-996.608 -296.572)" fill="#6eb9e4"/>
        <path id="Trazado_739348" data-name="Trazado 739348" d="M1389.043,386.536a2.856,2.856,0,1,1,1.934,3.552,2.861,2.861,0,0,1-1.934-3.552" transform="translate(-1016.444 -281.377)" fill="#6eb9e4"/>
        <path id="Trazado_739349" data-name="Trazado 739349" d="M1338.55,467.406l46.2,13.685-1.252,4.621-46.2-13.685Z" transform="translate(-978.663 -342.058)" fill="#afe7fc"/>
        <path id="Trazado_739350" data-name="Trazado 739350" d="M1328.844,498.876l46.2,13.685-1.251,4.621-46.2-13.685Z" transform="translate(-971.56 -365.088)" fill="#6eb9e4"/>
        <path id="Trazado_739351" data-name="Trazado 739351" d="M1320.954,531.83l46.2,13.685-1.251,4.621-46.2-13.685Z" transform="translate(-965.786 -389.204)" fill="#6eb9e4"/>
        <path id="Trazado_739352" data-name="Trazado 739352" d="M1309.825,564.967l46.2,13.685-1.251,4.621-46.2-13.685Z" transform="translate(-957.641 -413.455)" fill="#6eb9e4"/>
        <path id="Trazado_739353" data-name="Trazado 739353" d="M1421.019,669.606l13.091,3.178-1.056,3.442-13.091-3.178Z" transform="translate(-1039.159 -490.032)" fill="#6eb9e4"/>
        <rect id="Rectángulo_351066" data-name="Rectángulo 351066" width="15.806" height="25.998" transform="translate(383.388 121.868) rotate(-72.927)" fill="#ff9d00"/>
        <path id="Trazado_739354" data-name="Trazado 739354" d="M307.988,708.035c-2.059,0-4.143-.055-6.192-.164a.665.665,0,0,1,.07-1.328c2.6.138,5.235.189,7.855.149h.01a.665.665,0,0,1,.009,1.33q-.878.013-1.754.013m9.638-.4a.665.665,0,0,1-.054-1.328c2.606-.215,5.232-.521,7.805-.908a.665.665,0,1,1,.2,1.315c-2.6.392-5.258.7-7.894.919l-.055,0m-23.665-.454a.7.7,0,0,1-.082-.005c-2.62-.32-5.261-.735-7.851-1.234a.665.665,0,1,1,.252-1.306c2.56.493,5.171.9,7.76,1.219a.665.665,0,0,1-.08,1.326m39.283-1.9a.665.665,0,0,1-.143-1.315c2.549-.563,5.109-1.221,7.608-1.957a.665.665,0,1,1,.375,1.276c-2.528.744-5.117,1.41-7.7,1.979a.663.663,0,0,1-.144.016M278.452,704.2a.668.668,0,0,1-.171-.022c-2.552-.677-5.114-1.451-7.616-2.3a.665.665,0,1,1,.428-1.259c2.473.841,5.006,1.607,7.529,2.275a.665.665,0,0,1-.17,1.308m69.944-3.37a.665.665,0,0,1-.231-1.289c2.445-.906,4.89-1.909,7.268-2.981a.665.665,0,1,1,.547,1.212c-2.406,1.085-4.88,2.1-7.353,3.016a.661.661,0,0,1-.231.042M263.483,699.1a.664.664,0,0,1-.257-.052c-2.434-1.019-4.865-2.137-7.226-3.321a.665.665,0,0,1,.6-1.189c2.334,1.171,4.737,2.275,7.143,3.283a.665.665,0,0,1-.257,1.279m99.3-4.766a.665.665,0,0,1-.315-1.251c2.294-1.23,4.578-2.558,6.786-3.945a.665.665,0,0,1,.708,1.126c-2.234,1.4-4.544,2.746-6.865,3.991a.663.663,0,0,1-.314.079m-113.43-2.321a.664.664,0,0,1-.337-.092c-2.273-1.342-4.529-2.779-6.7-4.272a.665.665,0,1,1,.753-1.1c2.151,1.476,4.381,2.9,6.628,4.223a.665.665,0,0,1-.339,1.238m126.795-6.073a.665.665,0,0,1-.392-1.2c2.108-1.534,4.19-3.161,6.188-4.835a.665.665,0,0,1,.854,1.019c-2.022,1.694-4.128,3.339-6.26,4.891a.662.662,0,0,1-.391.127m-139.823-2.865a.66.66,0,0,1-.412-.143c-2.069-1.636-4.109-3.365-6.063-5.139a.665.665,0,1,1,.894-.984c1.932,1.754,3.949,3.463,5.994,5.08a.665.665,0,0,1-.413,1.187m151.927-7.274a.665.665,0,0,1-.461-1.145c1.88-1.806,3.723-3.7,5.478-5.632a.665.665,0,0,1,.984.895c-1.775,1.953-3.639,3.87-5.541,5.7a.664.664,0,0,1-.461.186m-163.622-3.342a.662.662,0,0,1-.48-.2c-1.828-1.9-3.614-3.889-5.309-5.911a.665.665,0,0,1,1.019-.855c1.676,2,3.442,3.965,5.249,5.844a.665.665,0,0,1-.479,1.126m174.244-8.348a.665.665,0,0,1-.521-1.078c1.621-2.047,3.19-4.174,4.667-6.323a.665.665,0,1,1,1.1.753c-1.493,2.174-3.081,4.326-4.72,6.4a.664.664,0,0,1-.522.253m-184.389-3.751a.664.664,0,0,1-.538-.273c-1.553-2.132-3.052-4.344-4.455-6.575a.665.665,0,1,1,1.126-.708c1.387,2.205,2.869,4.392,4.4,6.5a.665.665,0,0,1-.537,1.056m193.334-9.273a.665.665,0,0,1-.572-1c1.329-2.249,2.6-4.57,3.767-6.9a.665.665,0,0,1,1.189.6c-1.184,2.357-2.466,4.7-3.81,6.979a.664.664,0,0,1-.573.327M206.087,647a.664.664,0,0,1-.587-.351c-1.247-2.323-2.429-4.717-3.514-7.118a.665.665,0,0,1,1.212-.547c1.072,2.373,2.24,4.741,3.473,7.036a.665.665,0,0,1-.585.98m208.83-10.034a.665.665,0,0,1-.613-.922c1.011-2.411,1.95-4.884,2.791-7.351a.665.665,0,1,1,1.259.429c-.851,2.5-1.8,5-2.823,7.437a.666.666,0,0,1-.614.408m-215.327-4.353a.666.666,0,0,1-.624-.434c-.918-2.473-1.761-5.01-2.507-7.541a.665.665,0,1,1,1.276-.376c.737,2.5,1.571,5.01,2.478,7.455a.666.666,0,0,1-.624.9M420.018,622a.666.666,0,0,1-.643-.836c.669-2.52,1.26-5.1,1.755-7.658a.665.665,0,0,1,1.306.253c-.5,2.591-1.1,5.2-1.775,7.747a.665.665,0,0,1-.642.494m-224.893-4.537a.665.665,0,0,1-.648-.521c-.57-2.57-1.059-5.2-1.454-7.812a.665.665,0,1,1,1.315-.2c.391,2.584.875,5.182,1.437,7.723a.665.665,0,0,1-.65.809m227.89-10.97a.684.684,0,0,1-.082-.005.665.665,0,0,1-.579-.741c.318-2.588.549-5.221.689-7.826a.673.673,0,0,1,.7-.629.666.666,0,0,1,.629.7c-.142,2.635-.376,5.3-.7,7.916a.665.665,0,0,1-.659.584m-230.252-4.646a.665.665,0,0,1-.662-.61l-.01-.127c-.212-2.593-.34-5.222-.381-7.812a.665.665,0,0,1,.655-.675h.01a.665.665,0,0,1,.665.655c.04,2.561.166,5.16.376,7.724l.01.124a.665.665,0,0,1-.607.718.559.559,0,0,1-.056,0m231.1-11.125a.665.665,0,0,1-.665-.655c-.038-2.606-.165-5.247-.378-7.85l-.021-.251a.665.665,0,1,1,1.325-.112l.021.255c.216,2.632.344,5.3.383,7.939a.665.665,0,0,1-.655.675Zm-231.341-4.67h-.036a.666.666,0,0,1-.629-.7c.139-2.638.37-5.3.689-7.917a.665.665,0,1,1,1.32.161c-.314,2.585-.543,5.218-.68,7.826a.665.665,0,0,1-.663.63m230.014-11.325a.665.665,0,0,1-.656-.565c-.394-2.583-.88-5.181-1.446-7.722a.665.665,0,0,1,1.3-.289c.573,2.57,1.065,5.2,1.463,7.81a.665.665,0,0,1-.557.758.68.68,0,0,1-.1.008m-228.106-4.353a.678.678,0,0,1-.126-.012.665.665,0,0,1-.528-.779c.5-2.59,1.092-5.2,1.766-7.748a.665.665,0,1,1,1.286.34c-.667,2.522-1.255,5.1-1.746,7.66a.665.665,0,0,1-.652.54M419.1,559.316a.665.665,0,0,1-.637-.476c-.74-2.5-1.577-5.01-2.487-7.452a.665.665,0,0,1,1.247-.464c.92,2.47,1.766,5.007,2.515,7.539a.665.665,0,0,1-.638.854M198.467,555.1a.665.665,0,0,1-.63-.879c.848-2.5,1.8-5,2.815-7.44a.665.665,0,0,1,1.227.513c-1.008,2.411-1.944,4.885-2.783,7.354a.665.665,0,0,1-.63.451m215.121-10.586a.665.665,0,0,1-.606-.391c-1.074-2.372-2.245-4.738-3.481-7.033a.665.665,0,1,1,1.171-.631c1.25,2.322,2.435,4.716,3.521,7.115a.666.666,0,0,1-.605.94m-209.025-4a.665.665,0,0,1-.594-.963c1.182-2.36,2.462-4.709,3.8-6.983a.665.665,0,1,1,1.146.676c-1.326,2.248-2.59,4.571-3.759,6.9a.665.665,0,0,1-.6.367m201.544-9.895a.664.664,0,0,1-.563-.311c-1.389-2.2-2.873-4.389-4.412-6.495a.665.665,0,1,1,1.074-.784c1.556,2.13,3.057,4.341,4.462,6.57a.665.665,0,0,1-.562,1.02M212.589,526.9a.665.665,0,0,1-.548-1.041c1.491-2.176,3.077-4.33,4.713-6.4a.665.665,0,0,1,1.044.825c-1.618,2.047-3.185,4.176-4.66,6.328a.664.664,0,0,1-.549.289M396.8,517.874a.664.664,0,0,1-.509-.237c-1.677-2-3.446-3.96-5.255-5.838a.665.665,0,0,1,.958-.923c1.831,1.9,3.619,3.886,5.316,5.905a.665.665,0,0,1-.509,1.093m-174.415-3.365a.665.665,0,0,1-.492-1.112c1.772-1.954,3.634-3.873,5.534-5.7a.665.665,0,1,1,.923.958c-1.879,1.809-3.72,3.706-5.472,5.638a.664.664,0,0,1-.493.219M385.839,506.5a.662.662,0,0,1-.446-.172c-1.933-1.75-3.951-3.458-6-5.074a.665.665,0,0,1,.824-1.044c2.072,1.635,4.114,3.362,6.069,5.133a.665.665,0,0,1-.447,1.158m-152.078-2.945a.665.665,0,0,1-.428-1.175c2.02-1.7,4.125-3.344,6.255-4.9a.665.665,0,0,1,.784,1.075c-2.105,1.536-4.186,3.165-6.183,4.842a.663.663,0,0,1-.427.156m139.677-6.841a.661.661,0,0,1-.375-.116c-2.153-1.474-4.385-2.892-6.634-4.216a.665.665,0,1,1,.675-1.146c2.274,1.339,4.532,2.774,6.71,4.265a.665.665,0,0,1-.376,1.214m-126.922-2.462a.665.665,0,0,1-.355-1.228c2.231-1.4,4.539-2.75,6.861-4a.665.665,0,0,1,.63,1.171c-2.295,1.234-4.576,2.564-6.782,3.952a.659.659,0,0,1-.353.1M359.82,488.7a.663.663,0,0,1-.3-.071c-2.335-1.168-4.74-2.27-7.147-3.276a.665.665,0,1,1,.513-1.227c2.436,1.017,4.868,2.132,7.23,3.314a.665.665,0,0,1-.3,1.26m-99.409-1.918a.665.665,0,0,1-.275-1.271c2.405-1.088,4.878-2.1,7.35-3.024a.665.665,0,0,1,.463,1.247c-2.444.908-4.888,1.914-7.265,2.989a.662.662,0,0,1-.274.059m84.822-4.172a.668.668,0,0,1-.214-.035c-2.473-.839-5.007-1.6-7.531-2.267a.665.665,0,0,1,.34-1.286c2.553.674,5.116,1.446,7.618,2.294a.665.665,0,0,1-.213,1.3m-70.019-1.331a.665.665,0,0,1-.188-1.3c2.528-.746,5.117-1.415,7.694-1.988a.665.665,0,0,1,.289,1.3c-2.548.566-5.107,1.227-7.606,1.965a.669.669,0,0,1-.189.027m54.739-2.7a.677.677,0,0,1-.126-.012c-2.561-.49-5.172-.9-7.762-1.211a.665.665,0,0,1,.16-1.32c2.62.317,5.262.729,7.852,1.225a.665.665,0,0,1-.124,1.318m-39.324-.725a.665.665,0,0,1-.1-1.323c2.6-.4,5.258-.707,7.893-.927a.665.665,0,1,1,.111,1.326c-2.6.218-5.23.526-7.8.916a.677.677,0,0,1-.1.008m23.645-1.173h-.035c-1.986-.1-4-.156-6-.156q-.928,0-1.86.015a.673.673,0,0,1-.675-.654.665.665,0,0,1,.654-.676q.942-.015,1.881-.015c2.015,0,4.056.053,6.065.157a.665.665,0,0,1-.034,1.329" transform="translate(-140.296 -347.755)" fill="#c4d5ff"/>
        <rect id="Rectángulo_351067" data-name="Rectángulo 351067" width="152.59" height="107.375" transform="translate(45.707 265.012)" fill="#fff"/>
        <path id="Trazado_739355" data-name="Trazado 739355" d="M321.208,1094.416H168.618a.665.665,0,0,1-.665-.665V986.376a.665.665,0,0,1,.665-.665h152.59a.665.665,0,0,1,.665.665v107.375a.665.665,0,0,1-.665.665m-151.925-1.33h151.26V987.041H169.283Z" transform="translate(-122.911 -721.364)" fill="#758de6"/>
        <path id="Trazado_739356" data-name="Trazado 739356" d="M274.414,1066.7c-.136,6.048-13.127,7.353-13.331,17.868.068,10.789-.413,37.178-.277,40.82.141,3.711,1.376,5.566,4.881,5.635s28.588.069,32.3.069,5.43-2.062,5.226-6.185.124-30.788,0-39.927c-.141-9.964-12.713-11.476-12.99-17.8s-15.7-5.086-15.806-.481" transform="translate(-190.846 -777.806)" fill="#48291a"/>
        <path id="Trazado_739357" data-name="Trazado 739357" d="M296.751,1046.971h20.112a1.889,1.889,0,0,1,1.891,1.891v5.568c0,1.044.017,1.917-1.027,1.917H296.1c-1.043,0-1.244-.873-1.244-1.917v-5.568a1.892,1.892,0,0,1,1.891-1.891" transform="translate(-215.785 -766.195)" fill="#e87255"/>
        <g id="Grupo_1034617" data-name="Grupo 1034617" transform="translate(75.881 313.519)" opacity="0.987" style="isolation: isolate">
          <g id="Grupo_1034616" data-name="Grupo 1034616">
            <g id="Grupo_1034615" data-name="Grupo 1034615" clip-path="url(#clip-path-6)">
              <rect id="Rectángulo_351068" data-name="Rectángulo 351068" width="31.765" height="22.47" fill="#fff"/>
            </g>
          </g>
        </g>
        <path id="Trazado_739358" data-name="Trazado 739358" d="M302.306,1059.553a.333.333,0,0,1-.333-.333v-5.883a.333.333,0,0,1,.665,0v5.883a.333.333,0,0,1-.333.333" transform="translate(-220.99 -770.611)" fill="#f5b699"/>
        <path id="Trazado_739359" data-name="Trazado 739359" d="M310.581,1059.845a.333.333,0,0,1-.333-.333v-5.883a.333.333,0,0,1,.665,0v5.883a.333.333,0,0,1-.333.333" transform="translate(-227.046 -770.825)" fill="#f5b699"/>
        <path id="Trazado_739360" data-name="Trazado 739360" d="M318.679,1059.845a.333.333,0,0,1-.333-.333v-5.883a.333.333,0,0,1,.665,0v5.883a.333.333,0,0,1-.333.333" transform="translate(-232.973 -770.825)" fill="#f5b699"/>
        <path id="Trazado_739361" data-name="Trazado 739361" d="M327.257,1059.845a.333.333,0,0,1-.333-.333v-5.883a.333.333,0,0,1,.665,0v5.883a.333.333,0,0,1-.333.333" transform="translate(-239.25 -770.825)" fill="#f5b699"/>
        <path id="Trazado_739362" data-name="Trazado 739362" d="M336.039,1059.845a.333.333,0,0,1-.333-.333v-5.883a.333.333,0,0,1,.665,0v5.883a.333.333,0,0,1-.333.333" transform="translate(-245.677 -770.825)" fill="#f5b699"/>
        <path id="Trazado_739363" data-name="Trazado 739363" d="M344.233,1059.845a.333.333,0,0,1-.332-.333v-5.883a.333.333,0,0,1,.665,0v5.883a.333.333,0,0,1-.333.333" transform="translate(-251.674 -770.825)" fill="#f5b699"/>
        <path id="Trazado_739364" data-name="Trazado 739364" d="M352.73,1059.845a.333.333,0,0,1-.332-.333v-5.883a.333.333,0,0,1,.665,0v5.883a.333.333,0,0,1-.333.333" transform="translate(-257.892 -770.825)" fill="#f5b699"/>
        <path id="Trazado_739365" data-name="Trazado 739365" d="M361.513,1059.845a.333.333,0,0,1-.333-.333v-5.883a.333.333,0,0,1,.665,0v5.883a.333.333,0,0,1-.333.333" transform="translate(-264.319 -770.825)" fill="#f5b699"/>
        <path id="Trazado_739366" data-name="Trazado 739366" d="M368.533,1059.845a.333.333,0,0,1-.333-.333v-5.883a.333.333,0,0,1,.665,0v5.883a.333.333,0,0,1-.333.333" transform="translate(-269.456 -770.825)" fill="#f5b699"/>
        <path id="Trazado_739367" data-name="Trazado 739367" d="M376.346,1059.845a.333.333,0,0,1-.332-.333v-5.883a.333.333,0,0,1,.665,0v5.883a.333.333,0,0,1-.333.333" transform="translate(-275.175 -770.825)" fill="#f5b699"/>
        <rect id="Rectángulo_351070" data-name="Rectángulo 351070" width="26.3" height="4.508" transform="translate(77.563 316.322)" fill="#5972cf"/>
        <rect id="Rectángulo_351071" data-name="Rectángulo 351071" width="18.141" height="2.195" transform="translate(77.563 323.311)" fill="#afe7fc"/>
        <rect id="Rectángulo_351072" data-name="Rectángulo 351072" width="16.497" height="2.195" transform="translate(77.563 326.481)" fill="#afe7fc"/>
        <rect id="Rectángulo_351073" data-name="Rectángulo 351073" width="19.109" height="2.195" transform="translate(77.563 329.613)" fill="#afe7fc"/>
        <rect id="Rectángulo_351074" data-name="Rectángulo 351074" width="20.969" height="45.347" transform="translate(107.435 307.938)" fill="#ff9d00"/>
        <rect id="Rectángulo_351075" data-name="Rectángulo 351075" width="22.187" height="3.51" transform="translate(106.865 304.497)" fill="#afe7fc"/>
        <rect id="Rectángulo_351076" data-name="Rectángulo 351076" width="21.487" height="16.838" transform="translate(107.146 322.955)" fill="#afe7fc"/>
        <path id="Trazado_739368" data-name="Trazado 739368" d="M426.081,1245.325h0l-14.348-.009a.248.248,0,1,1,0-.5l14.348.009a.248.248,0,1,1,0,.5" transform="translate(-301.133 -910.985)"/>
        <path id="Trazado_739369" data-name="Trazado 739369" d="M411.245,1235.382a.248.248,0,0,1,0-.5l14.61-.1h0a.248.248,0,0,1,0,.5l-14.61.1Z" transform="translate(-300.776 -903.642)"/>
        <path id="Trazado_739370" data-name="Trazado 739370" d="M411.889,1255.132a.248.248,0,0,1,0-.5l14.264-.077h0a.248.248,0,0,1,0,.5l-14.264.077Z" transform="translate(-301.247 -918.112)"/>
        <path id="Trazado_739371" data-name="Trazado 739371" d="M404.636,1139.358a.248.248,0,0,1-.249-.248v-2a.248.248,0,0,1,.5,0v2a.248.248,0,0,1-.248.248" transform="translate(-295.939 -831.977)" fill="#6eb9e4"/>
        <path id="Trazado_739372" data-name="Trazado 739372" d="M417.963,1139.414a.248.248,0,0,1-.248-.248v-2a.248.248,0,0,1,.5,0v2a.248.248,0,0,1-.248.248" transform="translate(-305.693 -832.018)" fill="#6eb9e4"/>
        <path id="Trazado_739373" data-name="Trazado 739373" d="M433.743,1139.135a.248.248,0,0,1-.248-.248v-2a.248.248,0,0,1,.5,0v2a.248.248,0,0,1-.248.248" transform="translate(-317.241 -831.813)" fill="#6eb9e4"/>
        <path id="Trazado_739374" data-name="Trazado 739374" d="M449.245,1139.3a.248.248,0,0,1-.248-.248v-2a.248.248,0,0,1,.5,0v2a.248.248,0,0,1-.248.248" transform="translate(-328.585 -831.936)" fill="#6eb9e4"/>
        <path id="Trazado_739375" data-name="Trazado 739375" d="M464.947,1139.52a.248.248,0,0,1-.248-.248v-2a.248.248,0,0,1,.5,0v2a.248.248,0,0,1-.248.248" transform="translate(-340.076 -832.095)" fill="#6eb9e4"/>
        <path id="Trazado_739376" data-name="Trazado 739376" d="M410.992,1139.358a.248.248,0,0,1-.248-.248v-2a.248.248,0,0,1,.5,0v2a.248.248,0,0,1-.248.248" transform="translate(-300.591 -831.977)" fill="#6eb9e4"/>
        <path id="Trazado_739377" data-name="Trazado 739377" d="M425.434,1139.526a.248.248,0,0,1-.248-.248v-2a.248.248,0,0,1,.5,0v2a.248.248,0,0,1-.248.248" transform="translate(-311.16 -832.099)" fill="#6eb9e4"/>
        <path id="Trazado_739378" data-name="Trazado 739378" d="M441.717,1139.414a.248.248,0,0,1-.248-.248v-2a.248.248,0,0,1,.5,0v2a.248.248,0,0,1-.248.248" transform="translate(-323.076 -832.018)" fill="#6eb9e4"/>
        <path id="Trazado_739379" data-name="Trazado 739379" d="M457.148,1139.468a.248.248,0,0,1-.248-.248v-2a.248.248,0,1,1,.5,0v2a.248.248,0,0,1-.248.248" transform="translate(-334.369 -832.057)" fill="#6eb9e4"/>
        <path id="Trazado_739380" data-name="Trazado 739380" d="M472.9,1139.414a.248.248,0,0,1-.248-.248v-2a.248.248,0,0,1,.5,0v2a.248.248,0,0,1-.248.248" transform="translate(-345.899 -832.018)" fill="#6eb9e4"/>
        <rect id="Rectángulo_351077" data-name="Rectángulo 351077" width="15.464" height="3.254" transform="translate(110.042 325.441)" fill="#5972cf"/>
        <rect id="Rectángulo_351078" data-name="Rectángulo 351078" width="141.327" height="81.61" transform="translate(0.665 114.875)" fill="#fff"/>
        <path id="Trazado_739381" data-name="Trazado 739381" d="M141.992,508.812H.665A.665.665,0,0,1,0,508.147v-81.61a.665.665,0,0,1,.665-.665H141.992a.665.665,0,0,1,.665.665v81.61a.665.665,0,0,1-.665.665M1.33,507.482h140V427.2H1.33Z" transform="translate(0 -311.662)" fill="#758de6"/>
        <path id="Trazado_739382" data-name="Trazado 739382" d="M84.229,509.867c-.193-.289-1.032-.342-1.032-.342l-1.744-.008v-.01l-.733.005-.734-.005v.01l-2.052.008s-.967.053-1.16.342c-.231.347.64.823.71,1.1a3.852,3.852,0,0,1-.02.731s-.1,33.087-.11,34.281l0,.343c.029,3.124,5.985,3.307,6.12.128l.014-.407c-.006-1.195-.088-34.313-.088-34.313a5.1,5.1,0,0,1,.025-.747c.07-.275,1.032-.767.8-1.115" transform="translate(-56.156 -372.868)" fill="#c4d5ff"/>
        <path id="Trazado_739383" data-name="Trazado 739383" d="M121.51,509.867c-.193-.289-1.233-.342-1.233-.342l-1.945-.008v-.01l-.367.005-.367-.005v.01l-2.218.008s-1.05.053-1.243.342c-.231.347.6.823.669,1.1.041.16.092.731.092.731s.01,33.087.01,34.281v.343a2.7,2.7,0,0,0,2.554,2.471c1.55.163,3.236-.956,3.295-2.343l.014-.407c-.006-1.195-.088-34.313-.088-34.313a5.128,5.128,0,0,1,.025-.747c.071-.275,1.032-.767.8-1.115" transform="translate(-83.499 -372.868)" fill="#c4d5ff"/>
        <path id="Trazado_739384" data-name="Trazado 739384" d="M159.229,509.867c-.193-.289-1.164-.342-1.164-.342l-1.877-.008v-.01l-.489.005-.489-.005v.01l-2.164.008s-1.023.053-1.216.342c-.231.347.612.823.683,1.1a5.581,5.581,0,0,1,.045.731s-.038,33.087-.038,34.281v.343c0,3.1,5.878,3.3,5.958.128l.014-.407c-.006-1.195-.088-34.313-.088-34.313a5.1,5.1,0,0,1,.025-.747c.07-.275,1.032-.767.8-1.115" transform="translate(-111.083 -372.868)" fill="#c4d5ff"/>
        <path id="Trazado_739385" data-name="Trazado 739385" d="M96.518,579.333H61.968a.665.665,0,0,1-.665-.665V546.639a.665.665,0,0,1,.665-.665h34.55a.665.665,0,0,1,.665.665v32.029a.665.665,0,0,1-.665.665M62.633,578h33.22V547.3H62.633Z" transform="translate(-44.863 -399.555)" fill="#c4d5ff"/>
        <path id="Trazado_739386" data-name="Trazado 739386" d="M168.62,524.324a.977.977,0,0,1-.976-.976v-5.967a.977.977,0,0,1,.976-.976H173.5v-7.379l-10.76-5.308a.976.976,0,0,1-.43-1.333l1.461-2.752a.977.977,0,0,1,1.29-.42l18.55,9.053a.976.976,0,0,1,.443,1.318l-1.4,2.754a.975.975,0,0,1-1.274.448l-.7-.317V516.4h4.12c3.967-2.829,6.525-8.311,6.525-14a18.07,18.07,0,0,0-3.986-11.336l-3.614,7.015a.975.975,0,0,1-1.315.42l-9.239-4.759a.977.977,0,0,1-.421-1.314l8.034-15.6a.977.977,0,0,1,1.314-.421l1.153.593,5.837-11.332a.976.976,0,0,1,1.314-.421l5.2,2.672a.976.976,0,0,1,.422,1.314L190.2,480.554l1.141.576a.976.976,0,0,1,.425,1.324l-1.072,2.05a24.369,24.369,0,0,1,7.409,17.538,23.547,23.547,0,0,1-4.65,14.364h3.1a.977.977,0,0,1,.976.976v5.967a.977.977,0,0,1-.976.976Z" transform="translate(-118.7 -340.402)" fill="#c4d5ff"/>
        <path id="Trazado_739387" data-name="Trazado 739387" d="M188.15,463.994a.31.31,0,0,1,.142.034l5.2,2.672a.311.311,0,0,1,.134.419l-6,11.631a.311.311,0,0,0,.136.42l1.459.737a.311.311,0,0,1,.135.422l-1.2,2.288a.306.306,0,0,0,.06.363,23.757,23.757,0,0,1,7.4,17.245,22.793,22.793,0,0,1-4.966,14.515.309.309,0,0,0,.231.514h3.852a.311.311,0,0,1,.311.311v5.967a.311.311,0,0,1-.311.311h-27.93a.311.311,0,0,1-.311-.311v-5.967a.311.311,0,0,1,.311-.311h5.235a.311.311,0,0,0,.311-.311v-7.953a.311.311,0,0,0-.174-.279l-10.957-5.405a.311.311,0,0,1-.137-.424l1.461-2.752a.312.312,0,0,1,.411-.134l18.55,9.053a.311.311,0,0,1,.141.42l-1.4,2.753a.311.311,0,0,1-.406.142l-1.2-.543a.31.31,0,0,0-.44.283v4.839a.311.311,0,0,0,.311.311H183.1a.322.322,0,0,0,.185-.058c4.212-2.946,6.9-8.678,6.9-14.609a18.726,18.726,0,0,0-4.478-12.177.307.307,0,0,0-.237-.11.316.316,0,0,0-.282.171l-3.858,7.49a.311.311,0,0,1-.419.134l-9.239-4.759a.311.311,0,0,1-.134-.419l8.034-15.6a.31.31,0,0,1,.419-.134l1.468.755a.311.311,0,0,0,.419-.134l6-11.646a.311.311,0,0,1,.277-.169m0-1.33a1.635,1.635,0,0,0-1.459.89l-5.532,10.741-.563-.289a1.641,1.641,0,0,0-2.208.707l-8.034,15.6a1.643,1.643,0,0,0,.707,2.21l9.239,4.759a1.641,1.641,0,0,0,2.211-.708l3.127-6.07a17.347,17.347,0,0,1,3.217,10.087c0,5.4-2.376,10.595-6.076,13.337h-3.239v-2.261a1.641,1.641,0,0,0,1.9-.841l1.4-2.753a1.641,1.641,0,0,0-.745-2.217l-18.55-9.053a1.64,1.64,0,0,0-2.169.706l-1.461,2.752a1.64,1.64,0,0,0,.723,2.241l10.389,5.125v6.3h-4.216a1.643,1.643,0,0,0-1.641,1.641v5.967a1.643,1.643,0,0,0,1.641,1.641h27.93a1.643,1.643,0,0,0,1.641-1.641v-5.967a1.643,1.643,0,0,0-1.641-1.641h-1.8a24.624,24.624,0,0,0,4.009-13.7,25.009,25.009,0,0,0-7.259-17.663l.845-1.617a1.641,1.641,0,0,0-.714-2.225l-.542-.274,5.526-10.718a1.641,1.641,0,0,0-.709-2.212l-5.2-2.672a1.646,1.646,0,0,0-.75-.182" transform="translate(-116.885 -338.587)" fill="#fff"/>
        <path id="Trazado_739388" data-name="Trazado 739388" d="M1253.55,67.734c.549-2.655.549-14.784.4-15.265s-1.958-1.351-1.62-1.927c.282-.48,1.179-.568,1.179-.568s3.7-.016,3.7-.029l1.9.006s1.9-.006,1.9.006l3.721.016s1.023.088,1.305.568c.338.576-1.526,1.446-1.671,1.927s-.17,12.611.379,15.265,11.781,23.986,9.95,29.844c-.7,2.253-2.779,5.038-6.166,5.038-6.067,0-12.1.174-18.176,0a7.232,7.232,0,0,1-6.524-5.038C1242,91.72,1253,70.389,1253.55,67.734" transform="translate(-910.112 -36.551)" fill="#fff"/>
        <path id="Trazado_739389" data-name="Trazado 739389" d="M1255.542,102.114c-2.026,0-4.062-.019-6.086-.077a7.577,7.577,0,0,1-6.832-5.271c-1.37-4.383,4.139-16.944,7.429-24.449a55.053,55.053,0,0,0,2.28-5.562c.534-2.582.541-14.449.408-15.115a3.7,3.7,0,0,0-.608-.537c-.622-.489-1.327-1.043-.977-1.641a2.035,2.035,0,0,1,1.434-.731l.031,0c1.375-.006,3.462-.018,3.663-.027a.086.086,0,0,1,.038,0l1.9.006c1.183,0,1.675-.005,1.9.016v-.01l3.722.016h.027c.122.01,1.2.12,1.563.731s-.371,1.152-1.008,1.639a3.3,3.3,0,0,0-.633.557c-.129.652-.143,12.527.388,15.1a54.485,54.485,0,0,0,2.357,5.638c3.348,7.481,8.951,20,7.586,24.372-.82,2.624-3.142,5.271-6.483,5.271-2.022,0-4.074.02-6.058.039s-4.009.038-6.041.038m-2.558-35.224a52,52,0,0,1-2.321,5.694c-3.254,7.42-8.7,19.838-7.4,23.984a6.89,6.89,0,0,0,6.206,4.8c4.052.116,8.149.076,12.112.039,1.986-.019,4.04-.039,6.065-.039,3,0,5.1-2.413,5.848-4.8,1.291-4.129-4.248-16.507-7.558-23.9a51.34,51.34,0,0,1-2.4-5.776c-.553-2.674-.547-14.846-.372-15.429.085-.281.384-.521.864-.888.266-.2.819-.626.834-.8a1.741,1.741,0,0,0-1.029-.383l-3.707-.016-.042,0c-.154-.006-1.209-.005-1.857,0l-1.9-.015c-.135.014-.321.016-.573.018l-1.273.009-1.832.01c-.245.028-.768.159-.912.4.014.152.555.577.814.781.465.365.754.6.838.882C1253.556,52.039,1253.541,64.2,1252.984,66.89Z" transform="translate(-909.221 -35.639)"/>
        <path id="Trazado_739390" data-name="Trazado 739390" d="M1270.754,135.231c-.515-1.175-1-2.27-1.439-3.242-.124-.278-.246-.409-.362-.666-.667-1.485-1.186-2.785-1.578-3.419h-9.747c-.4.634-.93,1.957-1.613,3.463-2.838,6.256-8.741,19.2-7.6,22.842.124.4,1.307,3.846,4.612,3.847l8.713.255,9.582-.283a5.919,5.919,0,0,0,5.164-3.885c.931-2.979-2.8-12.212-5.728-18.913" transform="translate(-913.507 -93.604)" fill="#c4d5ff"/>
        <path id="Trazado_739391" data-name="Trazado 739391" d="M1139.724,59.782a27.567,27.567,0,0,1-.485-5.208l.058-1.159a.975.975,0,0,1,.023-.11c.145-.481,1.958-1.208,1.62-1.784-.282-.48-1.407-.426-1.407-.426l-8.009-.007s-1.183-.047-1.465.433c-.338.576,1.475,1.374,1.62,1.856a.333.333,0,0,1,.023.074l.058,1.141a27.48,27.48,0,0,1-.485,5.2c-.549,2.655-12.892,32.769-11.062,38.628.7,2.253,2.891,5.036,6.278,5.036,6.025.181,12,.18,18.018,0,3.387,0,5.573-2.785,6.278-5.038,1.831-5.859-10.512-35.978-11.062-38.632" transform="translate(-819.66 -37.386)" fill="#fff"/>
        <path id="Trazado_739392" data-name="Trazado 739392" d="M1134.571,103.013c-2.98,0-5.959-.045-8.977-.137-3.39,0-5.792-2.731-6.585-5.269-1.414-4.524,5.3-22.829,8.905-32.663,1.128-3.074,2.018-5.5,2.148-6.132a27.1,27.1,0,0,0,.478-5.131l-.056-1.088c0-.01-.007-.02-.011-.033a3.166,3.166,0,0,0-.615-.528c-.591-.441-1.327-.991-.973-1.592.364-.62,1.535-.605,1.766-.6l8,.007c.2-.011,1.328-.032,1.693.589.355.606-.38,1.126-.971,1.544a2.94,2.94,0,0,0-.62.511c0,.006,0,.023-.008.043l-.057,1.141a27.2,27.2,0,0,0,.479,5.124c.13.629,1.021,3.058,2.149,6.134,3.606,9.835,10.319,28.141,8.9,32.665-.794,2.539-3.2,5.271-6.6,5.271-3.046.092-6.049.138-9.051.138m-4.041-52.5c-.456,0-.972.1-1.07.27.02.142.546.534.8.723.427.319.765.57.854.869a.469.469,0,0,1,.032.116.349.349,0,0,1,0,.038l.058,1.141a27.9,27.9,0,0,1-.492,5.283c-.14.678-.95,2.885-2.175,6.226-3.579,9.76-10.241,27.926-8.895,32.235.723,2.313,2.9,4.8,5.96,4.8,6.054.182,11.941.182,18.008,0,3.073,0,5.247-2.491,5.97-4.8,1.347-4.309-5.315-22.477-8.894-32.238-1.225-3.342-2.035-5.551-2.175-6.228a27.867,27.867,0,0,1-.492-5.277l.058-1.175a.326.326,0,0,1,0-.036,1.316,1.316,0,0,1,.032-.15c.093-.308.436-.551.872-.859.244-.173.754-.533.778-.686-.113-.177-.712-.257-1.1-.24l-8.025-.007-.108,0" transform="translate(-818.773 -36.477)"/>
        <path id="Trazado_739393" data-name="Trazado 739393" d="M1131,171.857c-2.812,0-4.336-2.884-4.755-4.225-.374-1.2-.205-4.35,4.964-20.825h17.5c5.167,16.475,5.335,19.624,4.961,20.821-.42,1.342-1.943,4.054-4.705,4.054l-9.024.359Z" transform="translate(-824.119 -107.437)" fill="#7e5ee3"/>
        <path id="Trazado_739394" data-name="Trazado 739394" d="M1193.716,71.486h0c-.549-2.655-.349-18.513-.2-18.995s1.958-1.351,1.62-1.927c-.282-.48-1.407-.568-1.407-.568l-4.826-.021-4.825.021s-1.125.088-1.407.568c-.338.576,1.475,1.446,1.62,1.927s.345,16.34-.2,18.995a16.75,16.75,0,0,0-12.218,16.344,17.03,17.03,0,0,0,8.764,14.9h16.539a17.03,17.03,0,0,0,8.767-14.9,16.752,16.752,0,0,0-12.218-16.344" transform="translate(-857.594 -36.573)" fill="#fff"/>
        <path id="Trazado_739395" data-name="Trazado 739395" d="M1196.26,102.153h0l-16.539,0a.33.33,0,0,1-.162-.042,17.392,17.392,0,0,1-8.935-15.186,17.04,17.04,0,0,1,12.261-16.607c.508-3.161.282-18.07.172-18.652a3.835,3.835,0,0,0-.607-.534c-.623-.489-1.328-1.044-.977-1.641s1.451-.714,1.668-.731l4.85-.021,4.828.021c.241.018,1.34.133,1.692.732s-.354,1.152-.977,1.641a3.212,3.212,0,0,0-.613.555c-.1.562-.33,15.47.178,18.632a17.041,17.041,0,0,1,12.26,16.607,17.393,17.393,0,0,1-8.938,15.188.333.333,0,0,1-.161.042m-16.452-.666h16.365a16.726,16.726,0,0,0,8.521-14.565A16.381,16.381,0,0,0,1192.719,70.9a.331.331,0,0,1-.237-.253c-.565-2.729-.341-18.681-.2-19.158.084-.278.373-.516.838-.881.26-.2.8-.63.811-.8-.128-.208-.758-.358-1.142-.389l-4.8-.019-4.823.02c-.359.03-.99.18-1.121.4.014.152.554.577.814.781.465.365.754.6.837.881.144.478.367,16.429-.2,19.158a.333.333,0,0,1-.237.253,16.38,16.38,0,0,0-11.975,16.023,16.727,16.727,0,0,0,8.518,14.563" transform="translate(-856.687 -35.666)"/>
        <path id="Trazado_739396" data-name="Trazado 739396" d="M1182.618,160.983a14.66,14.66,0,0,0,4.6,20.874l15.357-.044a14.6,14.6,0,0,0,7.161-12.541,14.793,14.793,0,0,0-2.562-8.289Z" transform="translate(-863.59 -117.811)" fill="#afe7fc"/>
        <path id="Trazado_739397" data-name="Trazado 739397" d="M640.725,404.22A124.235,124.235,0,1,1,516.49,279.985,124.235,124.235,0,0,1,640.725,404.22" transform="translate(-287.06 -204.899)" fill="#fff"/>
        <path id="Trazado_739398" data-name="Trazado 739398" d="M513.929,526.832a124.783,124.783,0,1,1,48.724-9.837,124.385,124.385,0,0,1-48.724,9.837m0-248.47a123.3,123.3,0,1,0,123.3,123.3,123.436,123.436,0,0,0-123.3-123.3" transform="translate(-284.5 -202.338)" fill="#758de6"/>
        <path id="Trazado_739399" data-name="Trazado 739399" d="M1092.285,762.229a1.414,1.414,0,0,1-.631-.187,1.721,1.721,0,0,1-.732-2.157,1.7,1.7,0,0,1,2.7-.3,1.647,1.647,0,0,1,.154,1.7,1.572,1.572,0,0,1-1.49.938" transform="translate(-798.251 -555.492)" fill="#fff"/>
        <path id="Trazado_739400" data-name="Trazado 739400" d="M1167.472,1065.811H1016.5a3.227,3.227,0,0,1-3.218-3.218V873.159a3.228,3.228,0,0,1,3.218-3.218h150.968a3.228,3.228,0,0,1,3.218,3.218v189.433a3.227,3.227,0,0,1-3.218,3.218" transform="translate(-741.544 -636.641)" fill="#fff"/>
        <path id="Trazado_739401" data-name="Trazado 739401" d="M1165.658,1064.662H1014.69a3.887,3.887,0,0,1-3.883-3.883V871.345a3.887,3.887,0,0,1,3.883-3.883h150.968a3.888,3.888,0,0,1,3.883,3.883v189.434a3.887,3.887,0,0,1-3.883,3.883M1014.69,868.792a2.556,2.556,0,0,0-2.553,2.553v189.434a2.556,2.556,0,0,0,2.553,2.553h150.968a2.556,2.556,0,0,0,2.553-2.553V871.345a2.556,2.556,0,0,0-2.553-2.553Z" transform="translate(-739.73 -634.827)" fill="#758de6"/>
        <path id="Trazado_739402" data-name="Trazado 739402" d="M1278.34,1057.756c10.243-.172,15.444-14.744,13.871-16.662-.976-1.183-5.454-.207-6.66-2.664a15.108,15.108,0,0,1-1.148-3.169,8.849,8.849,0,0,1-.253-1.194c-.838-4.9.666-9.485.965-13.538.379-5.236-16.191-.379-14.491,5.041a26.467,26.467,0,0,1,1.366,8.451,9.694,9.694,0,0,1-.092,1.183,7.312,7.312,0,0,1-.976,3.054c-1.585,2.435-4.685,3.342-4.984,4.823-.4,2.009,3.686,14.859,12.4,14.675" transform="translate(-926.42 -745.202)" fill="#facfb4"/>
        <path id="Trazado_739403" data-name="Trazado 739403" d="M1110.971,1142.446s-1.485,40.95-3.131,65.5h56.56c-15.39-9.338-28.492-41.629-38.169-60.552-4.364-8.543,1.056-7.774,2.285-5.971a.585.585,0,0,1-.057-.126c-3.319-6.51,1.263-7.5,2.629-5.489a.17.17,0,0,1-.034-.08c-5.833-11.885.344-12.264,3.537-6.224,2.239,4.26,20.646,27.019,25.492,33.3,9.175,11.9,19.509,15.318,26.33,12.378-2.078-16.271-3.766-28.822-3.766-28.822a44.343,44.343,0,0,1,5.362,7.462c3.735-1.494,15.936-12.948,20.667-16.683-8.176-17.075-27.025-36.857-49.921-40.337-6.787,8.681-10.924,13.789-10.924,13.789s-8.049-7.59-11.529-14.055c-26.526,4.26-40.086,19.234-49.158,35.78,6.04,4.616,18.5,15.284,18.5,15.284Z" transform="translate(-795.595 -802.47)" fill="#7e5ee3"/>
        <path id="Trazado_739404" data-name="Trazado 739404" d="M1266.5,1287.426h24.448c-.824-6.7-1.658-26.644-2.436-32.764-6.821,2.94-17.155-.482-26.33-12.379-4.846-6.281-23.253-29.04-25.492-33.3-3.192-6.04-9.37-5.661-3.537,6.224a.173.173,0,0,0,.035.081c-1.366-2.01-5.948-1.022-2.629,5.488a.61.61,0,0,0,.057.126c-1.228-1.8-6.648-2.572-2.285,5.971,9.677,18.924,22.779,51.214,38.169,60.552" transform="translate(-897.698 -881.948)" fill="#7e5ee3"/>
        <rect id="Rectángulo_351079" data-name="Rectángulo 351079" width="2.012" height="35.969" transform="translate(326.135 328.229) rotate(-82.748)" fill="#afe7fc"/>
        <path id="Trazado_739405" data-name="Trazado 739405" d="M1207.326,1217.093l2.609-.619-.254,2Z" transform="translate(-883.546 -890.241)"/>
        <path id="Trazado_739406" data-name="Trazado 739406" d="M1228.336,1226.873c14.181,27.731,36.559,49.2,64.745,44.355,20.339-3.5,30.075-29.787,16.017-53.252-4.678,3.587-11.216,9.911-16.843,14.114,3.431,5.458,2.061,15.075-4.484,17.9-6.821,2.94-16.335,3.886-26.661-7.4-5.355-5.853-22.175-29.346-24.414-33.606-3.192-6.04-9.37-5.661-3.536,6.224a.17.17,0,0,0,.034.08c-1.366-2.01-5.948-1.022-2.629,5.489a.6.6,0,0,0,.057.126c-1.229-1.8-6.649-2.572-2.285,5.971" transform="translate(-897.698 -881.947)" fill="#facfb4"/>
        <path id="Trazado_739407" data-name="Trazado 739407" d="M1253.3,1247.739a.265.265,0,0,1-.224-.122c-.017-.026-1.653-2.568-3.033-5.247a.266.266,0,0,1,.473-.243c1.368,2.656,2.99,5.177,3.007,5.2a.266.266,0,0,1-.223.41" transform="translate(-914.787 -908.909)"/>
        <path id="Trazado_739408" data-name="Trazado 739408" d="M1249.684,1241.337a.265.265,0,0,1-.222-.119,2,2,0,0,1-.128-.232c-.018-.036-.036-.073-.055-.108a.266.266,0,1,1,.465-.258c.023.042.045.087.067.131a1.463,1.463,0,0,0,.093.172.266.266,0,0,1-.221.414" transform="translate(-914.224 -907.812)"/>
        <path id="Trazado_739409" data-name="Trazado 739409" d="M1242.481,1266.137a.265.265,0,0,1-.223-.121c-.018-.028-1.8-2.771-2.806-4.551a.266.266,0,0,1,.464-.261c.995,1.765,2.77,4.494,2.788,4.522a.266.266,0,0,1-.223.411" transform="translate(-907.032 -922.877)"/>
        <path id="Trazado_739410" data-name="Trazado 739410" d="M1088.28,1178.311l-23.164.1a1.9,1.9,0,0,0-1.7,2.726l25.625,52.736a1.9,1.9,0,0,0,1.745,1.067l24.517-.5a1.9,1.9,0,0,0,1.647-2.766l-26.979-52.332a1.9,1.9,0,0,0-1.694-1.027" transform="translate(-778.091 -862.313)" fill="#81d4fa"/>
        <path id="Trazado_739411" data-name="Trazado 739411" d="M1090.6,1274.11c3.324-1.941,4.959-2.188,5.969-.606s.3,3.212-2.882,4.622c-6.786,3.007-9.521-.407-8.123-3.228,3.156-1.411,4.175-.693,5.037-.788" transform="translate(-794.177 -931.218)" fill="#facfb4"/>
        <path id="Trazado_739412" data-name="Trazado 739412" d="M1102.1,1278.733a.266.266,0,0,1-.047-.528,14.766,14.766,0,0,0,3.328-1.07c1.919-.85,3.089-1.815,3.383-2.79a1.756,1.756,0,0,0-.252-1.5c-.813-1.273-1.859-1.494-5.61.693a.266.266,0,0,1-.268-.46c3.147-1.834,5.088-2.46,6.326-.519a2.265,2.265,0,0,1,.313,1.939c-.345,1.144-1.581,2.195-3.676,3.123a15.308,15.308,0,0,1-3.45,1.108.26.26,0,0,1-.047,0" transform="translate(-806.343 -930.416)"/>
        <path id="Trazado_739413" data-name="Trazado 739413" d="M1077.277,1237.434c3.394-.848,4.606,4.1-.232,6.146,3.628-1.86,5.069-1.918,5.993-.284s-.021,3.814-3.275,5.051c-6.937,2.638-9.6-.6-8.051-3.341-3.205-.3-4.088-5.223-.8-6.337,2.4-.813,3.838-.567,6.362-1.234" transform="translate(-782.197 -905.509)" fill="#facfb4"/>
        <path id="Trazado_739414" data-name="Trazado 739414" d="M1086.5,1261.043a.266.266,0,0,1-.06-.525,21.006,21.006,0,0,0,3.406-1.086.266.266,0,0,1,.237.477,21.108,21.108,0,0,1-3.522,1.128.285.285,0,0,1-.06.007" transform="translate(-794.928 -921.658)"/>
        <path id="Trazado_739415" data-name="Trazado 739415" d="M1084.974,1249.294a.266.266,0,0,1-.033-.53,14.764,14.764,0,0,0,3.381-.889,5.263,5.263,0,0,0,3.293-2.739,2.26,2.26,0,0,0-.155-1.932c-.681-1.205-1.606-1.538-4.73-.06a8.462,8.462,0,0,1-.928.458.266.266,0,0,1-.225-.482q.478-.245.919-.456c1.857-1.08,2.424-2.556,2.118-3.652a2.159,2.159,0,0,0-2.6-1.414c-1.42.206-5,.913-5.035.92a.266.266,0,1,1-.1-.522c.036-.007,3.629-.717,5.061-.925a2.692,2.692,0,0,1,3.19,1.8,3.311,3.311,0,0,1-.885,3.074c1.72-.566,2.9-.385,3.681,1a2.777,2.777,0,0,1,.192,2.375,5.763,5.763,0,0,1-3.6,3.055,15.274,15.274,0,0,1-3.5.92l-.033,0" transform="translate(-790.851 -905.286)"/>
        <path id="Trazado_739416" data-name="Trazado 739416" d="M1093.907,1160.808c-.069-3.971-4.9-3.72-5.857-4.75s-1.162-3.952-4.057-3.825c-2.993.131-3.023,3.226-4.218,4.081s-6.157,1.146-5.764,5.2c3.646.112,16.408-.472,19.9-.706" transform="translate(-785.967 -843.225)"/>
        <path id="Trazado_739417" data-name="Trazado 739417" d="M1255.823,974.888c-2.169,6.864-2.047,21.248,5.765,23.154,5.068,1.238,10.492-1.209,14.349-6.1s1.2-13.01-.769-15.579-19.247-5.691-19.346-1.478" transform="translate(-918.155 -711.932)" fill="#facfb4"/>
        <path id="Trazado_739418" data-name="Trazado 739418" d="M1275.687,952.085c-.386-.552-2.263-1.822-2.594-4.195-3.367,2.981-14.185.331-17.5-1.435,0-5.354,5.961-15.234,17.773-10.652,9.769.221,13.578,10.928,11.922,18.048-1.282,5.511-5.577,10.153-7.881,10.17-1.126-.765-1.613-2.218-1.171-4.413,1.325-6.568.811-5.578-.551-7.524" transform="translate(-918.871 -683.977)"/>
        <path id="Trazado_739419" data-name="Trazado 739419" d="M1298.933,1025.485c7.684,2.5,15.188,15.428,8,26.766-5.315,8.389-13.9,6.916-13.127,19.4-11.846-3.906-19.082-16.713-8.26-25.486s13.7-12.743,11.4-18.506-5.043-4.461,1.985-2.177" transform="translate(-936.91 -749.053)"/>
        <path id="Trazado_739420" data-name="Trazado 739420" d="M1251.282,944.078h-.023a.266.266,0,0,1-.242-.288c.639-7.32,4.587-10.283,7.787-11.48,4.653-1.741,9.86-.541,11.544,1.084a.266.266,0,1,1-.37.383c-1.583-1.528-6.529-2.637-10.988-.969-3.056,1.143-6.829,3.984-7.443,11.028a.266.266,0,0,1-.265.243" transform="translate(-915.519 -681.658)"/>
        <path id="Trazado_739421" data-name="Trazado 739421" d="M1321.215,988.532a.265.265,0,0,1-.146-.044,8.659,8.659,0,0,1-3.742-5.361.266.266,0,0,1,.523-.1,8.11,8.11,0,0,0,3.511,5.016.266.266,0,0,1-.146.488" transform="translate(-964.045 -719.242)"/>
        <path id="Trazado_739422" data-name="Trazado 739422" d="M1326.139,1000.39l.6,5.859c8.034,1.96,5.472-10.757-.6-5.859" transform="translate(-970.496 -731.278)" fill="#facfb4"/>
        <path id="Trazado_739423" data-name="Trazado 739423" d="M1300.612,1003.213c-1.082.057-1.554,3.262.081,3.429s1.661-3.55-.081-3.429" transform="translate(-951.095 -734.17)"/>
        <path id="Trazado_739424" data-name="Trazado 739424" d="M1263.191,1001.36c-1.071.069-1.542,3.262.081,3.429s1.672-3.537-.081-3.429" transform="translate(-923.716 -732.815)"/>
        <path id="Trazado_739425" data-name="Trazado 739425" d="M1303.411,995.341a.266.266,0,0,1-.2-.085,3.41,3.41,0,0,0-2.94-.66.266.266,0,1,1-.094-.524,3.894,3.894,0,0,1,3.424.822.266.266,0,0,1-.195.447" transform="translate(-951.34 -727.424)"/>
        <path id="Trazado_739426" data-name="Trazado 739426" d="M1262.153,991.629a.266.266,0,0,1-.137-.038,2.921,2.921,0,0,0-2.722,0,.266.266,0,0,1-.272-.457,3.457,3.457,0,0,1,3.268,0,.266.266,0,0,1-.137.494" transform="translate(-921.284 -725.031)"/>
        <path id="Trazado_739427" data-name="Trazado 739427" d="M1277.213,1016.757c-.673,0-1.478-.148-1.619-.825-.111-.588.293-1.1.719-1.644a3.577,3.577,0,0,0,.988-2.081.266.266,0,0,1,.266-.26h.007a.265.265,0,0,1,.259.272,4.05,4.05,0,0,1-1.1,2.4c-.365.465-.681.866-.616,1.212.079.383.915.456,1.709.356a.266.266,0,1,1,.067.528,5.547,5.547,0,0,1-.679.044" transform="translate(-933.493 -740.564)"/>
        <path id="Trazado_739428" data-name="Trazado 739428" d="M1276.612,1048.111a2.167,2.167,0,0,1-.25-.014,1.582,1.582,0,0,1-1.277-.843.266.266,0,1,1,.472-.245,1.042,1.042,0,0,0,.865.56,2.245,2.245,0,0,0,1.784-.682.266.266,0,1,1,.406.344,2.753,2.753,0,0,1-2,.88" transform="translate(-933.112 -766.065)"/>
        <path id="Trazado_739429" data-name="Trazado 739429" d="M1372.7,1093.854a.266.266,0,0,1-.168-.472c6.1-4.983,5.315-13.151,3.581-19.125a.266.266,0,1,1,.511-.148c1.779,6.128,2.572,14.518-3.756,19.686a.264.264,0,0,1-.168.06" transform="translate(-1004.374 -785.914)"/>
        <path id="Trazado_739430" data-name="Trazado 739430" d="M771.151,807.09l20.275-47.381c3.3-7.712,12.616-11.137,20.8-7.636l4.809,2.057c8.182,3.5,12.137,12.606,8.837,20.318L805.6,821.829c-3.31,7.735-12.626,11.16-20.809,7.659l-4.808-2.057c-8.182-3.5-12.137-12.606-8.827-20.341" transform="translate(-563.488 -549.378)" fill="#e87255"/>
        <path id="Trazado_739431" data-name="Trazado 739431" d="M853.676,891.253a1.033,1.033,0,0,1-.394-.079L828.967,881.09a1.031,1.031,0,0,1,.789-1.9l24.315,10.084a1.031,1.031,0,0,1-.4,1.983" transform="translate(-606.19 -643.35)" fill="#f5b699"/>
        <path id="Trazado_739432" data-name="Trazado 739432" d="M597.09,662.576a26.843,26.843,0,1,1-9.722,36.709,26.843,26.843,0,0,1,9.722-36.709" transform="translate(-427.182 -482.225)" fill="#81d4fa"/>
        <path id="Trazado_739433" data-name="Trazado 739433" d="M671.595,725.775a1.053,1.053,0,0,1-.186-.017,1.031,1.031,0,0,1-.829-1.2l6.406-35.131a1.031,1.031,0,0,1,2.028.37l-6.405,35.131a1.031,1.031,0,0,1-1.013.846" transform="translate(-490.732 -503.919)" fill="#6eb9e4"/>
        <path id="Trazado_739434" data-name="Trazado 739434" d="M712.188,440.992a18.825,18.825,0,1,1-25.091-8.927,18.825,18.825,0,0,1,25.091,8.927" transform="translate(-494.969 -314.857)" fill="#81d4fa"/>
        <path id="Trazado_739435" data-name="Trazado 739435" d="M723.5,494.857a1.036,1.036,0,0,1-.269-.036L699.046,488.3a1.03,1.03,0,1,1,.536-1.99l24.181,6.517a1.031,1.031,0,0,1-.268,2.026" transform="translate(-511.018 -355.869)" fill="#6eb9e4"/>
        <path id="Trazado_739436" data-name="Trazado 739436" d="M1103.261,611.4a14.058,14.058,0,1,1-18.737-6.666,14.058,14.058,0,0,1,18.737,6.666" transform="translate(-787.805 -441.556)" fill="#81d4fa"/>
        <path id="Trazado_739437" data-name="Trazado 739437" d="M1111.706,651.621a.765.765,0,0,1-.2-.027l-18.057-4.867a.77.77,0,0,1,.4-1.486l18.058,4.867a.77.77,0,0,1-.2,1.513" transform="translate(-799.791 -472.182)" fill="#6eb9e4"/>
        <path id="Trazado_739438" data-name="Trazado 739438" d="M855.509,566.129a21.931,21.931,0,1,1,21.943,21.933,21.931,21.931,0,0,1-21.943-21.933" transform="translate(-626.079 -398.254)" fill="#ff9d00"/>
        <path id="Trazado_739439" data-name="Trazado 739439" d="M917.366,606.942a1.028,1.028,0,0,1-.757-.331l-19.791-21.437a1.03,1.03,0,0,1,1.514-1.4l19.791,21.437a1.031,1.031,0,0,1-.757,1.73" transform="translate(-656.11 -426.976)" fill="#e87255"/>
      </g>
    </g>
  </g>
</svg>
