<svg id="Grupo_1034457" data-name="Grupo 1034457" xmlns="http://www.w3.org/2000/svg" xmlns:xlink="http://www.w3.org/1999/xlink" width="300.574" height="287.65" viewBox="0 0 300.574 287.65">
  <defs>
    <clipPath id="clip-path">
      <rect id="Rectángulo_350898" data-name="Rectángulo 350898" width="300.574" height="287.65" fill="none"/>
    </clipPath>
    <clipPath id="clip-path-4">
      <rect id="Rectángulo_350888" data-name="Rectángulo 350888" width="4.513" height="22.152" fill="none"/>
    </clipPath>
    <clipPath id="clip-path-6">
      <rect id="Rectángulo_350890" data-name="Rectángulo 350890" width="8.404" height="14.425" fill="none"/>
    </clipPath>
    <clipPath id="clip-path-7">
      <rect id="Rectángulo_350891" data-name="Rectángulo 350891" width="3.211" height="1.559" fill="none"/>
    </clipPath>
    <clipPath id="clip-path-9">
      <rect id="Rectángulo_350893" data-name="Rectángulo 350893" width="81.18" height="47.905" fill="none"/>
    </clipPath>
    <clipPath id="clip-path-10">
      <rect id="Rectángulo_350894" data-name="Rectángulo 350894" width="36.933" height="51.128" fill="none"/>
    </clipPath>
    <clipPath id="clip-path-11">
      <rect id="Rectángulo_350895" data-name="Rectángulo 350895" width="4.09" height="33.071" fill="none"/>
    </clipPath>
  </defs>
  <g id="Grupo_1034456" data-name="Grupo 1034456" clip-path="url(#clip-path)">
    <rect id="Rectángulo_350879" data-name="Rectángulo 350879" width="75.318" height="109.171" transform="translate(8.351 4.819)" fill="#e0e0e0"/>
    <rect id="Rectángulo_350880" data-name="Rectángulo 350880" width="75.318" height="109.171" transform="translate(4.577 4.819)" fill="#f5f5f5"/>
    <rect id="Rectángulo_350881" data-name="Rectángulo 350881" width="56.603" height="85.523" transform="translate(13.935 16.642)" fill="#fff"/>
    <g id="Grupo_1034429" data-name="Grupo 1034429">
      <g id="Grupo_1034428" data-name="Grupo 1034428" clip-path="url(#clip-path)">
        <path id="Trazado_738200" data-name="Trazado 738200" d="M77.227,110.174s-.007-.145-.011-.418-.007-.685-.011-1.213c-.005-1.075-.013-2.648-.023-4.691-.011-4.1-.029-10.071-.05-17.617-.023-15.08-.054-36.435-.092-61.583l.188.188-56.6.017h-.007l.2-.2c-.015,32.262-.03,62.009-.041,85.522l-.163-.163,41.2.086,11.382.042,2.988.018c.676.006,1.033.017,1.033.017s-.333.011-1,.017l-2.957.019-11.346.041-41.3.086h-.163v-.163c-.011-23.514-.026-53.26-.042-85.522v-.205h.212l56.6.017h.188v.188c-.038,25.2-.069,46.6-.092,61.707-.022,7.527-.039,13.485-.05,17.574-.01,2.027-.017,3.587-.023,4.654,0,.518-.009.914-.011,1.192s-.011.4-.011.4" transform="translate(-6.689 -8.008)" fill="#e0e0e0"/>
        <path id="Trazado_738201" data-name="Trazado 738201" d="M114.135,7.166a13.036,13.036,0,0,1-1.343,1.951c-.875,1.17-2.117,2.762-3.534,4.482s-2.742,3.245-3.723,4.328a13.1,13.1,0,0,1-1.657,1.691,14.061,14.061,0,0,1,1.438-1.88l3.626-4.4,3.622-4.4a14.113,14.113,0,0,1,1.57-1.771" transform="translate(-34.028 -2.347)" fill="#e0e0e0"/>
        <path id="Trazado_738202" data-name="Trazado 738202" d="M105.331,151.529a70.127,70.127,0,0,0,9.872,12.347" transform="translate(-34.505 -49.639)" fill="#fff"/>
        <path id="Trazado_738203" data-name="Trazado 738203" d="M115.2,163.875a11.24,11.24,0,0,1-1.721-1.566,55.186,55.186,0,0,1-7-8.758,11.224,11.224,0,0,1-1.148-2.023,15.581,15.581,0,0,1,1.389,1.861c.83,1.165,2,2.76,3.359,4.463s2.661,3.192,3.615,4.258a15.57,15.57,0,0,1,1.51,1.764" transform="translate(-34.503 -49.638)" fill="#e0e0e0"/>
        <path id="Trazado_738204" data-name="Trazado 738204" d="M6.791,163.464l9.866-12.172" transform="translate(-2.225 -49.561)" fill="#fff"/>
        <path id="Trazado_738205" data-name="Trazado 738205" d="M16.655,151.291a74.978,74.978,0,0,1-4.773,6.215,75.012,75.012,0,0,1-5.092,5.957,75.346,75.346,0,0,1,4.774-6.215,75.077,75.077,0,0,1,5.092-5.957" transform="translate(-2.223 -49.56)" fill="#e0e0e0"/>
        <path id="Trazado_738206" data-name="Trazado 738206" d="M6.806,7.166a68.143,68.143,0,0,1,4.788,5.724,67.982,67.982,0,0,1,4.468,5.979,68.187,68.187,0,0,1-4.789-5.725A68.268,68.268,0,0,1,6.806,7.166" transform="translate(-2.228 -2.347)" fill="#e0e0e0"/>
        <path id="Trazado_738207" data-name="Trazado 738207" d="M69.121,81.771a5.1,5.1,0,1,1-5.1-5.1,5.1,5.1,0,0,1,5.1,5.1" transform="translate(-19.304 -25.118)" fill="#e0e0e0"/>
        <path id="Trazado_738208" data-name="Trazado 738208" d="M74.444,55.706A3.809,3.809,0,1,1,70.635,51.9a3.809,3.809,0,0,1,3.809,3.809" transform="translate(-21.891 -17.001)" fill="#e0e0e0"/>
        <path id="Trazado_738209" data-name="Trazado 738209" d="M53.417,64.938a2.756,2.756,0,1,1-2.756-2.756,2.756,2.756,0,0,1,2.756,2.756" transform="translate(-15.693 -20.37)" fill="#e0e0e0"/>
        <path id="Trazado_738210" data-name="Trazado 738210" d="M77.279,107.826a1.714,1.714,0,1,1,0-2.424,1.713,1.713,0,0,1,0,2.424" transform="translate(-24.357 -34.364)" fill="#e0e0e0"/>
        <path id="Trazado_738211" data-name="Trazado 738211" d="M41.5,87.731a2.756,2.756,0,1,1-2.756-2.756A2.756,2.756,0,0,1,41.5,87.731" transform="translate(-11.789 -27.837)" fill="#e0e0e0"/>
        <path id="Trazado_738212" data-name="Trazado 738212" d="M66.5,84.252c.171-.08,1.875,3.2,3.805,7.327s3.355,7.538,3.184,7.618S71.616,96,69.685,91.87,66.33,84.332,66.5,84.252" transform="translate(-21.78 -27.599)" fill="#e0e0e0"/>
        <path id="Trazado_738213" data-name="Trazado 738213" d="M57.758,85c.028.188-3.69.893-8.3,1.575s-8.378,1.085-8.405.9,3.69-.892,8.3-1.575,8.377-1.085,8.4-.9" transform="translate(-13.447 -27.829)" fill="#e0e0e0"/>
        <path id="Trazado_738214" data-name="Trazado 738214" d="M61.218,76.327c-.117.135-2.484-1.794-4.86-4.7s-3.822-5.59-3.667-5.678c.17-.106,1.844,2.392,4.2,5.242s4.467,4.984,4.33,5.131" transform="translate(-17.257 -21.604)" fill="#e0e0e0"/>
        <path id="Trazado_738215" data-name="Trazado 738215" d="M70.4,57.544l-.018,0c-.019-.01.019.02.029.008v.015l-.013.128-.086.492-.391,1.8c-.348,1.512-.856,3.593-1.44,5.886-1.178,4.585-2.161,8.29-2.335,8.254-.2-.041.492-3.831,1.671-8.423.584-2.3,1.168-4.361,1.637-5.844.234-.741.44-1.337.6-1.744a3.886,3.886,0,0,1,.212-.461.553.553,0,0,1,.08-.114l.021-.018c.017-.021.067.011.045.011a.024.024,0,0,1-.015.018" transform="translate(-21.659 -18.839)" fill="#e0e0e0"/>
        <path id="Trazado_738216" data-name="Trazado 738216" d="M375.26,313.741v3.045h4.229V344.36L362.858,381.3a6.312,6.312,0,0,0,5.756,8.9h33.057a6.312,6.312,0,0,0,5.748-8.918l-17.273-38.112V316.955h4.061v-3.214Z" transform="translate(-118.682 -102.777)" fill="#f5f5f5"/>
        <path id="Trazado_738217" data-name="Trazado 738217" d="M375.167,313.684s.1-.007.308-.011l.935-.012,3.673-.028,14.032-.065h.116v.117c0,.99.005,2.082.008,3.214v.125h-.125l-4.06.009.135-.134c.012,7.354.027,16.253.044,26.221l-.016-.073,11.934,26.271,3.249,7.159,1.658,3.655a16.809,16.809,0,0,1,.784,1.9,6.47,6.47,0,0,1,.248,2.082A6.6,6.6,0,0,1,406.6,388a6.5,6.5,0,0,1-3.6,2.191l-.53.1-.539.037c-.364.034-.707.019-1.058.022h-6.342l-22.477,0h-2.713a8.688,8.688,0,0,1-2.72-.29,6.5,6.5,0,0,1-4.11-8.69c.682-1.584,1.394-3.11,2.076-4.64,5.506-12.19,10.478-23.2,14.676-32.493l-.013.062c.036-12.232.063-21.754.08-27.574l.072.072-4.229-.025h-.048v-.047c.012-1.027.022-1.789.028-2.309.008-.5.019-.736.019-.736s.011.257.02.763.015,1.266.028,2.282l-.047-.047,4.229-.025h.072v.073c.017,5.82.044,15.342.08,27.574v.033l-.013.03-14.6,32.529c-.678,1.525-1.395,3.07-2.065,4.63a6.1,6.1,0,0,0,3.861,8.146,8.249,8.249,0,0,0,2.6.27h2.713l22.477,0h6.342c.348,0,.7.011,1.036-.022l.505-.034.5-.1a6.074,6.074,0,0,0,3.367-2.047,6.181,6.181,0,0,0,1.4-3.645,6.054,6.054,0,0,0-.23-1.946,16.588,16.588,0,0,0-.763-1.843l-1.655-3.656q-1.644-3.631-3.242-7.163l-11.889-26.291-.016-.035v-.039c.017-9.968.032-18.867.044-26.221v-.135h.134l4.061.009-.125.125c0-1.132.005-2.224.008-3.214l.117.116-13.963-.065-3.7-.028-.954-.012c-.216,0-.331-.011-.331-.011" transform="translate(-118.59 -102.72)" fill="#e0e0e0"/>
        <path id="Trazado_738218" data-name="Trazado 738218" d="M370.608,399.034a5.505,5.505,0,0,1,5.536-3.346,30.981,30.981,0,0,0,5.4.4c3.133-.28,5.833-2.2,8.618-3.659s6.243-2.477,8.995-.953l6.992,13.873a4.833,4.833,0,0,1-4.316,7.009H372.275a4.834,4.834,0,0,1-4.454-6.712Z" transform="translate(-120.366 -127.993)" fill="#e0e0e0"/>
        <path id="Trazado_738219" data-name="Trazado 738219" d="M401.721,396.038a14.549,14.549,0,0,0-3.455,1.894c-.985.725-2.072,1.7-3.363,2.708a11.177,11.177,0,0,1-4.769,2.392,13.353,13.353,0,0,1-5.33-.318c-1.594-.373-3-.777-4.188-1.093l-2.807-.788a5.271,5.271,0,0,1-1.015-.345,5.1,5.1,0,0,1,1.056.185l2.84.658c1.2.279,2.619.655,4.2,1a13.42,13.42,0,0,0,5.17.283,11.1,11.1,0,0,0,4.609-2.286c1.287-.978,2.4-1.938,3.426-2.642a10.82,10.82,0,0,1,2.586-1.387,4.962,4.962,0,0,1,.767-.223c.178-.04.273-.054.277-.04" transform="translate(-123.432 -129.735)" fill="#fafafa"/>
        <path id="Trazado_738220" data-name="Trazado 738220" d="M4.066,365.385v23.433H.153v2.543H4.066v15.683H77.2V392.774H71.781v-3.109H77.2V385h2.407v-2.119H76.747v-17.5Z" transform="translate(-0.05 -119.695)" fill="#f5f5f5"/>
        <path id="Trazado_738221" data-name="Trazado 738221" d="M85.851,365.453v41.33h19.421v-14.27H99.855v-2.848l5.417.1V385.1l2.455,0-.047-2.409-2.859-.071V365.385Z" transform="translate(-28.124 -119.695)" fill="#e0e0e0"/>
        <path id="Trazado_738222" data-name="Trazado 738222" d="M59.111,403.389c0,.143-13.234.26-29.554.26S0,403.532,0,403.389s13.23-.26,29.557-.26,29.554.116,29.554.26" transform="translate(0 -132.059)" fill="#e0e0e0"/>
        <path id="Trazado_738223" data-name="Trazado 738223" d="M59.111,399.849c0,.144-13.234.26-29.554.26S0,399.992,0,399.849s13.23-.26,29.557-.26,29.554.116,29.554.26" transform="translate(0 -130.899)" fill="#e0e0e0"/>
        <path id="Trazado_738224" data-name="Trazado 738224" d="M64.757,390.322c0,.144-13.234.26-29.554.26s-29.557-.116-29.557-.26,13.23-.26,29.557-.26,29.554.116,29.554.26" transform="translate(-1.85 -127.778)" fill="#e0e0e0"/>
        <path id="Trazado_738225" data-name="Trazado 738225" d="M65.3,416.284c0,.144-13.234.26-29.554.26s-29.557-.116-29.557-.26,13.23-.26,29.557-.26,29.554.116,29.554.26" transform="translate(-2.027 -136.283)" fill="#e0e0e0"/>
        <rect id="Rectángulo_350882" data-name="Rectángulo 350882" width="12.753" height="15.162" transform="translate(69.811 229.999)" fill="#f5f5f5"/>
        <rect id="Rectángulo_350883" data-name="Rectángulo 350883" width="57.634" height="17.103" transform="translate(12.616 229.011)" fill="#e0e0e0"/>
        <path id="Trazado_738226" data-name="Trazado 738226" d="M116.421,342.017H102.176v-1.438h14.245a.719.719,0,0,1,0,1.438" transform="translate(-33.471 -111.569)" fill="#e0e0e0"/>
        <path id="Trazado_738227" data-name="Trazado 738227" d="M116.421,365.314H102.176v-1.438h14.245a.719.719,0,0,1,0,1.438" transform="translate(-33.471 -119.2)" fill="#e0e0e0"/>
        <rect id="Rectángulo_350884" data-name="Rectángulo 350884" width="6.809" height="17.103" transform="translate(58.91 229.011)" fill="#ebebeb"/>
        <rect id="Rectángulo_350885" data-name="Rectángulo 350885" width="6.809" height="17.103" transform="translate(18.097 229.2)" fill="#ebebeb"/>
        <path id="Trazado_738228" data-name="Trazado 738228" d="M116.781,345.742c0,.042-2.76.076-6.164.076s-6.165-.034-6.165-.076,2.759-.076,6.165-.076,6.164.034,6.164.076" transform="translate(-34.217 -113.235)" fill="#e0e0e0"/>
        <path id="Trazado_738229" data-name="Trazado 738229" d="M116.781,349.123c0,.042-2.76.076-6.164.076s-6.165-.034-6.165-.076,2.759-.076,6.165-.076,6.164.034,6.164.076" transform="translate(-34.217 -114.343)" fill="#e0e0e0"/>
        <path id="Trazado_738230" data-name="Trazado 738230" d="M116.781,353.286c0,.042-2.76.076-6.164.076s-6.165-.034-6.165-.076,2.759-.076,6.165-.076,6.164.034,6.164.076" transform="translate(-34.217 -115.706)" fill="#e0e0e0"/>
        <path id="Trazado_738231" data-name="Trazado 738231" d="M116.781,357.449c0,.042-2.76.076-6.164.076s-6.165-.034-6.165-.076,2.759-.076,6.165-.076,6.164.034,6.164.076" transform="translate(-34.217 -117.07)" fill="#e0e0e0"/>
        <path id="Trazado_738232" data-name="Trazado 738232" d="M116.781,361.612c0,.042-2.76.076-6.164.076s-6.165-.034-6.165-.076,2.759-.076,6.165-.076,6.164.034,6.164.076" transform="translate(-34.217 -118.434)" fill="#e0e0e0"/>
        <rect id="Rectángulo_350886" data-name="Rectángulo 350886" width="25.929" height="3.08" transform="translate(29.319 236.04)" fill="#ebebeb"/>
        <path id="Trazado_738233" data-name="Trazado 738233" d="M307.957,320.886a7.542,7.542,0,0,0-7.469-12.495,10.482,10.482,0,0,0-16.1,11.726,7.154,7.154,0,0,0-6.484,9.841,7.878,7.878,0,0,0-4.633,9.868l13.766.237a8.293,8.293,0,0,0,15.794-4.9,8.517,8.517,0,0,0,5.124-14.281" transform="translate(-89.375 -100.399)" fill="#f5f5f5"/>
      </g>
    </g>
    <g id="Grupo_1034434" data-name="Grupo 1034434">
      <g id="Grupo_1034433" data-name="Grupo 1034433" clip-path="url(#clip-path)">
        <path id="Trazado_738234" data-name="Trazado 738234" d="M339.669,360.208l2.428,2.656a4.066,4.066,0,0,1,.9,3.89l-9.172,31.2a5.916,5.916,0,0,0,5.677,7.585h17.264a6.259,6.259,0,0,0,5.98-8.109l-9.573-30.951a4.065,4.065,0,0,1,.964-4.03l2.175-2.245Z" transform="translate(-109.276 -117.999)" fill="#f5f5f5"/>
        <path id="Trazado_738235" data-name="Trazado 738235" d="M339.623,360.175l16.643-.068h.161l-.112.116-1.654,1.714a11.607,11.607,0,0,0-.834.909,3.909,3.909,0,0,0-.585,1.1,4.008,4.008,0,0,0-.011,2.565l.828,2.663,3.655,11.779c1.3,4.2,2.682,8.655,4.121,13.3q.27.87.543,1.751l.273.882c.095.293.182.59.251.9a6.5,6.5,0,0,1,.171,1.883l-.058.473-.029.238-.056.233-.113.466-.165.451a6.469,6.469,0,0,1-2.371,2.994,6.536,6.536,0,0,1-3.718,1.086l-13.784,0h-3.309a6.032,6.032,0,0,1-6.025-6.243c.021-.258.05-.516.081-.773.059-.251.113-.5.177-.75l.425-1.443q.423-1.434.834-2.828.823-2.789,1.595-5.408c1.031-3.489,1.99-6.739,2.867-9.706s1.672-5.649,2.37-8.006q.525-1.767.974-3.284c.074-.252.152-.5.208-.74a4.369,4.369,0,0,0,.092-.722,4.048,4.048,0,0,0-.7-2.425,7.884,7.884,0,0,0-.693-.82L340.54,361.2l-.917-1.025.958,1.025,1.142,1.227a7.646,7.646,0,0,1,.7.815,4.1,4.1,0,0,1,.736,2.468,4.35,4.35,0,0,1-.089.74c-.057.249-.133.495-.206.748l-.958,3.289c-.689,2.36-1.473,5.046-2.34,8.015l-2.842,9.713q-.768,2.619-1.586,5.411l-.829,2.83a12.553,12.553,0,0,0-.672,2.92,5.835,5.835,0,0,0,5.833,6.034h3.309l13.784,0a6.324,6.324,0,0,0,3.6-1.05,6.259,6.259,0,0,0,2.294-2.9l.16-.436.109-.451.055-.225.028-.229.056-.459a6.317,6.317,0,0,0-.165-1.822c-.065-.3-.152-.592-.247-.887l-.273-.882-.541-1.751c-1.434-4.646-2.81-9.1-4.108-13.3s-2.513-8.152-3.633-11.786l-.821-2.665a4.159,4.159,0,0,1,.019-2.661,4.059,4.059,0,0,1,.61-1.144,11.79,11.79,0,0,1,.849-.921l1.66-1.708.048.115-16.643-.068" transform="translate(-109.23 -117.965)" fill="#263238"/>
        <path id="Trazado_738236" data-name="Trazado 738236" d="M356.958,387.674a10.573,10.573,0,0,1-5.17-.114c-1.623-.451-3.115-1.282-4.714-1.815a6.347,6.347,0,0,0-4.915.05l-5.484,19.872a5.027,5.027,0,0,0,4.846,6.364H357a5.027,5.027,0,0,0,4.851-6.344Z" transform="translate(-110.229 -126.21)" fill="#ff9d00"/>
        <g id="Grupo_1034432" data-name="Grupo 1034432" transform="translate(229.492 261.798)" opacity="0.3">
          <g id="Grupo_1034431" data-name="Grupo 1034431">
            <g id="Grupo_1034430" data-name="Grupo 1034430" clip-path="url(#clip-path-4)">
              <path id="Trazado_738237" data-name="Trazado 738237" d="M345.095,411.438c0,.059-.371.117-.99-.1a4.167,4.167,0,0,1-2.029-1.813,5.473,5.473,0,0,1-.664-1.795,8.014,8.014,0,0,1-.078-2.159,32.7,32.7,0,0,1,.974-4.661c1.63-6.462,3.178-11.641,3.458-11.57s-.815,5.364-2.444,11.826a43.049,43.049,0,0,0-1.03,4.505,7.81,7.81,0,0,0-.023,1.927,5.1,5.1,0,0,0,.459,1.576,4.331,4.331,0,0,0,1.557,1.8c.494.3.826.384.813.465" transform="translate(-341.295 -389.34)" fill="#fff"/>
            </g>
          </g>
        </g>
        <path id="Trazado_738238" data-name="Trazado 738238" d="M359.359,392.51a2.946,2.946,0,0,1-.519.248c-.341.145-.836.349-1.467.557a8.921,8.921,0,0,1-2.292.459,5.888,5.888,0,0,1-1.388-.091,7.318,7.318,0,0,1-1.422-.443c-.939-.4-1.774-.875-2.567-1.226a7.178,7.178,0,0,0-2.2-.619,3.913,3.913,0,0,0-1.525.137c-.348.112-.526.217-.535.2s.038-.036.122-.087a2.5,2.5,0,0,1,.386-.188,3.71,3.71,0,0,1,1.563-.206,7.008,7.008,0,0,1,2.263.59c.81.347,1.649.822,2.57,1.21a7.363,7.363,0,0,0,1.382.435,5.848,5.848,0,0,0,1.339.1,9.336,9.336,0,0,0,2.257-.408c.63-.188,1.132-.37,1.481-.492a3.172,3.172,0,0,1,.549-.172" transform="translate(-113.163 -128.163)" fill="#fafafa"/>
      </g>
    </g>
    <g id="Grupo_1034442" data-name="Grupo 1034442">
      <g id="Grupo_1034441" data-name="Grupo 1034441" clip-path="url(#clip-path)">
        <path id="Trazado_738239" data-name="Trazado 738239" d="M252.933,36.8A33.758,33.758,0,1,0,284.066.6,33.757,33.757,0,0,0,252.933,36.8" transform="translate(-82.825 -0.167)" fill="#fff"/>
        <path id="Trazado_738240" data-name="Trazado 738240" d="M250.6,90.966c0,.035.369.03.988.229a4.474,4.474,0,0,1,2.167,1.594,4.252,4.252,0,0,1,.759,1.692,3.7,3.7,0,0,1-.212,2.091,4.045,4.045,0,0,1-7.585.12,3.689,3.689,0,0,1-.278-2.082,4.235,4.235,0,0,1,.705-1.716,4.475,4.475,0,0,1,2.115-1.662c.612-.22.984-.225.98-.261a.862.862,0,0,0-.267,0,1.689,1.689,0,0,0-.321.041,2.642,2.642,0,0,0-.43.1,4.538,4.538,0,0,0-3.04,3.45,3.942,3.942,0,0,0,.27,2.241,4.611,4.611,0,0,0,1.564,1.941,4.073,4.073,0,0,0,5.056-.081,4.6,4.6,0,0,0,1.5-1.989,3.941,3.941,0,0,0,.2-2.249,4.541,4.541,0,0,0-3.147-3.353,2.691,2.691,0,0,0-.434-.091,1.643,1.643,0,0,0-.322-.031.85.85,0,0,0-.267.01" transform="translate(-80.626 -29.795)" fill="#263238"/>
        <path id="Trazado_738241" data-name="Trazado 738241" d="M252.782,39.288s-.009-.188-.04-.551-.085-.908-.15-1.611c-.034-.354-.072-.75-.114-1.185-.022-.437,0-.918-.006-1.437s0-1.079,0-1.676a5.855,5.855,0,0,1,.053-.923q.049-.475.1-.978a32.362,32.362,0,0,1,2.34-9.5,33.8,33.8,0,0,1,7.05-10.821L263.3,9.3c.457-.412.945-.8,1.426-1.208l.728-.611a6.535,6.535,0,0,1,.759-.586l1.609-1.1c.272-.184.541-.376.82-.555l.876-.482,1.779-.977c.607-.311,1.256-.55,1.891-.832l.963-.412c.162-.067.321-.143.487-.2l.506-.158A31.483,31.483,0,0,1,279.3,1.034c.718-.137,1.434-.319,2.169-.421L283.7.386c.375-.032.75-.092,1.129-.1h1.142c.765.009,1.535-.021,2.308.018a35.849,35.849,0,0,1,4.664.621l1.173.236c.2.042.393.075.588.123l.576.176,2.323.709c.765.274,1.512.616,2.275.923.377.167.771.3,1.135.494l1.1.586a38.086,38.086,0,0,1,4.293,2.64L308.4,8.422l.5.4c.158.145.308.3.463.449l.925.907.928.91.843,1,.843,1,.424.5c.13.175.25.36.376.541l1.5,2.184,1.29,2.338A36.13,36.13,0,0,1,319.84,28.95a36.178,36.178,0,0,1-.1,10.824q-.264,1.314-.526,2.618-.388,1.272-.773,2.535l-.2.629-.252.608-.5,1.212-.5,1.2-.611,1.148-.609,1.143-.306.568-.355.537L313.7,54.113a38.059,38.059,0,0,1-3.3,3.811l-.871.89c-.288.3-.625.541-.934.813-.635.522-1.245,1.073-1.892,1.565l-2,1.376-.5.342c-.171.1-.35.2-.524.294l-1.048.578a35.858,35.858,0,0,1-4.262,2c-.725.27-1.469.474-2.2.712l-1.09.344c-.364.106-.74.161-1.107.244l-2.2.455c-.732.124-1.47.165-2.2.251a31.516,31.516,0,0,1-4.309.161h-.529c-.176-.007-.35-.032-.525-.047l-1.042-.1c-.691-.078-1.381-.111-2.054-.225l-1.99-.4-.981-.195-.949-.284-1.867-.567a6.551,6.551,0,0,1-.9-.331l-.878-.362c-.58-.245-1.163-.468-1.723-.724l-1.614-.857a33.806,33.806,0,0,1-9.979-8.2c-.307-.367-.617-.722-.905-1.081l-.773-1.12-.744-1.077c-.119-.178-.248-.346-.355-.527l-.3-.543-1.142-2.058c-.345-.664-.592-1.334-.871-1.948l-.39-.9a5.8,5.8,0,0,1-.329-.864q-.272-.854-.509-1.6c-.153-.5-.316-.949-.426-1.372q-.137-.642-.248-1.165l-.342-1.581c-.079-.356-.127-.537-.127-.537s.027.184.1.543.175.9.311,1.589l.234,1.171c.106.426.264.881.413,1.38s.32,1.034.5,1.606a5.865,5.865,0,0,0,.323.869l.385.908c.275.618.519,1.292.861,1.961l1.134,2.073.3.548c.106.182.235.352.353.531l.742,1.086.771,1.128c.288.364.6.721.905,1.091a33.868,33.868,0,0,0,10.009,8.281l1.622.867c.563.259,1.149.485,1.733.734l.884.367a6.73,6.73,0,0,0,.906.336l1.879.576c.317.1.633.2.955.288l.988.2,2,.4c.678.116,1.374.151,2.069.231l1.05.106c.176.015.352.04.529.047h.533a31.669,31.669,0,0,0,4.342-.154c.732-.085,1.476-.126,2.213-.249l2.216-.455c.371-.083.749-.139,1.117-.245l1.1-.344c.732-.239,1.483-.444,2.215-.715a36.025,36.025,0,0,0,4.3-2.007l1.058-.582c.176-.1.356-.192.529-.3l.5-.344,2.021-1.387c.654-.5,1.269-1.05,1.91-1.577.312-.274.652-.519.943-.82l.88-.9a38.318,38.318,0,0,0,3.332-3.842l1.427-2.154.358-.541.309-.573.615-1.154.617-1.159.51-1.215.508-1.223.254-.613.2-.635q.388-1.274.781-2.558.265-1.316.532-2.643a36.467,36.467,0,0,0,.1-10.924,36.434,36.434,0,0,0-3.386-10.383l-1.3-2.359-1.514-2.2c-.127-.182-.248-.368-.38-.546l-.427-.508-.852-1.013-.852-1.005-.937-.919-.933-.914c-.157-.151-.308-.307-.468-.453l-.5-.408-2.009-1.624A38.289,38.289,0,0,0,302.255,3.9l-1.109-.59c-.368-.2-.766-.329-1.145-.5-.771-.309-1.524-.653-2.3-.929l-2.343-.713L294.779,1c-.2-.048-.4-.082-.594-.124L293,.638a36.024,36.024,0,0,0-4.7-.619C287.518-.02,286.74.011,285.97,0l-1.152,0c-.382.009-.76.07-1.138.1l-2.25.233c-.74.1-1.462.288-2.185.428a31.7,31.7,0,0,0-4.187,1.16l-.509.161c-.167.06-.327.137-.49.2l-.97.416c-.639.286-1.292.529-1.9.843l-1.789.989-.882.488c-.28.181-.551.375-.824.561l-1.618,1.114a6.83,6.83,0,0,0-.763.592l-.732.617c-.481.412-.972.8-1.432,1.221l-1.286,1.315a33.883,33.883,0,0,0-7.052,10.909,32.261,32.261,0,0,0-2.3,9.554q-.048.505-.093.982a5.88,5.88,0,0,0-.046.927q.005.9.009,1.682c.009.52-.005,1,.022,1.44q.072.655.13,1.187.119,1.052.181,1.61c.043.362.073.546.073.546" transform="translate(-82.671 0)" fill="#263238"/>
        <path id="Trazado_738242" data-name="Trazado 738242" d="M284.166,38.745a12.693,12.693,0,1,1,18.1,11.484v3.2H291.142s-.067-1.8-.092-3.4a12.688,12.688,0,0,1-6.884-11.284" transform="translate(-93.089 -8.534)" fill="#ff9d00"/>
        <path id="Trazado_738243" data-name="Trazado 738243" d="M297.838,59.584s0-.053-.012-.157-.03-.262-.052-.458c-.049-.4-.12-1-.233-1.756s-.262-1.692-.5-2.759a18.853,18.853,0,0,0-1.152-3.532,12.06,12.06,0,0,0-1.044-1.9,2.339,2.339,0,0,0-.867-.779,1.306,1.306,0,0,0-1.2.04.863.863,0,0,0-.4.5.885.885,0,0,0,.053.651,1.806,1.806,0,0,0,.98.845,3.473,3.473,0,0,0,2.639-.187,3.518,3.518,0,0,0,1.792-2.117,2.658,2.658,0,0,0,.075-1.465,1.141,1.141,0,0,0-1.153-.882.821.821,0,0,0-.646.448,1.149,1.149,0,0,0-.1.783,2.48,2.48,0,0,0,.892,1.261,3.787,3.787,0,0,0,2.959.858,3.3,3.3,0,0,0,2.454-1.83,1.919,1.919,0,0,0,.086-1.537.969.969,0,0,0-.557-.561.95.95,0,0,0-.781.072,1.261,1.261,0,0,0-.536.557,1.975,1.975,0,0,0-.194.731,3.662,3.662,0,0,0,.193,1.451,3.778,3.778,0,0,0,1.789,2.128,3.848,3.848,0,0,0,2.626.361,2.012,2.012,0,0,0,1.142-.606.983.983,0,0,0,.071-1.222.829.829,0,0,0-.57-.279,1.2,1.2,0,0,0-.606.118,1.837,1.837,0,0,0-.777.871c-.319.689-.576,1.358-.834,2-1.015,2.558-1.735,4.666-2.218,6.126-.241.731-.419,1.3-.539,1.688l-.132.441c-.029.1-.04.152-.04.152s.022-.049.055-.147.084-.249.147-.436c.131-.39.321-.954.566-1.678.5-1.454,1.235-3.555,2.262-6.1.261-.634.524-1.311.839-1.983a1.722,1.722,0,0,1,.724-.812.76.76,0,0,1,.948,1.185,1.88,1.88,0,0,1-1.07.557,3.712,3.712,0,0,1-2.529-.354,3.634,3.634,0,0,1-1.715-2.05,3.506,3.506,0,0,1-.184-1.39,1.379,1.379,0,0,1,.65-1.166.8.8,0,0,1,.658-.063.819.819,0,0,1,.467.477,1.767,1.767,0,0,1-.085,1.413,3.146,3.146,0,0,1-2.337,1.74A3.632,3.632,0,0,1,297,48a2.339,2.339,0,0,1-.841-1.175,1,1,0,0,1,.087-.677.665.665,0,0,1,.526-.368.892.892,0,0,1,.631.2,1.1,1.1,0,0,1,.362.569,2.519,2.519,0,0,1-.072,1.378,3.348,3.348,0,0,1-4.239,2.221,1.678,1.678,0,0,1-.909-.773.749.749,0,0,1,.294-.986,1.185,1.185,0,0,1,1.086-.038,2.228,2.228,0,0,1,.824.737,12.081,12.081,0,0,1,1.04,1.874,18.925,18.925,0,0,1,1.167,3.507c.249,1.062.408,1.99.53,2.749s.2,1.344.262,1.751l.067.456c.016.1.028.155.028.155" transform="translate(-95.762 -14.741)" fill="#263238"/>
        <path id="Trazado_738244" data-name="Trazado 738244" d="M295.465,69.133h9.552a.717.717,0,0,0,0-1.434h-9.552a.717.717,0,0,0,0,1.434" transform="translate(-96.555 -22.177)" fill="#263238"/>
        <path id="Trazado_738245" data-name="Trazado 738245" d="M295.465,70.762h9.552a.717.717,0,1,1,0,1.434h-1.048l-1.391,2.647a.921.921,0,0,1-.815.493h-3.413a.922.922,0,0,1-.82-.5L296.178,72.2h-.713a.717.717,0,1,1,0-1.434" transform="translate(-96.555 -23.181)" fill="#263238"/>
        <g id="Grupo_1034437" data-name="Grupo 1034437" transform="translate(206.647 19.844)" opacity="0.3">
          <g id="Grupo_1034436" data-name="Grupo 1034436">
            <g id="Grupo_1034435" data-name="Grupo 1034435" clip-path="url(#clip-path-6)">
              <path id="Trazado_738246" data-name="Trazado 738246" d="M315.715,38.506a9.9,9.9,0,0,0-.889-3.669L312.6,31.79a9.308,9.308,0,0,0-2.542-1.689,6.721,6.721,0,0,0-1.956-.569c-.479-.05-.754,0-.777.1-.055.231.906.572,2.2,1.438a10.439,10.439,0,0,1,4.758,10.25c-.176,1.549-.535,2.5-.324,2.611.093.047.3-.132.576-.531a6.726,6.726,0,0,0,.828-1.861,9.337,9.337,0,0,0,.351-3.032" transform="translate(-307.321 -29.512)" fill="#fff"/>
            </g>
          </g>
        </g>
        <g id="Grupo_1034440" data-name="Grupo 1034440" transform="translate(201.987 18.951)" opacity="0.3">
          <g id="Grupo_1034439" data-name="Grupo 1034439">
            <g id="Grupo_1034438" data-name="Grupo 1034438" clip-path="url(#clip-path-7)">
              <path id="Trazado_738247" data-name="Trazado 738247" d="M303.193,28.476a2.549,2.549,0,0,0-2.4.012c-.289.18-.436.405-.4.617l1.6.636c.8-.007,1.514-.227,1.6-.654.036-.211-.114-.436-.4-.612" transform="translate(-300.391 -28.183)" fill="#fff"/>
            </g>
          </g>
        </g>
        <path id="Trazado_738248" data-name="Trazado 738248" d="M299.149,76.88c.011.024.251-.086.656-.2a5.322,5.322,0,0,1,3.226.093c.4.139.631.263.643.24a1.955,1.955,0,0,0-.6-.343,4.651,4.651,0,0,0-3.3-.1,1.955,1.955,0,0,0-.623.307" transform="translate(-97.997 -25)" fill="#455a64"/>
        <path id="Trazado_738249" data-name="Trazado 738249" d="M296.844,72.9c0,.044,1.727.079,3.856.079s3.857-.035,3.857-.079-1.726-.078-3.857-.078-3.856.035-3.856.078" transform="translate(-97.242 -23.857)" fill="#455a64"/>
        <path id="Trazado_738250" data-name="Trazado 738250" d="M297.733,74.617a5.4,5.4,0,0,0,.941.1c.582.037,1.387.07,2.277.083s1.7,0,2.28-.018a5.335,5.335,0,0,0,.943-.069,6.066,6.066,0,0,0-.944-.041l-2.277-.028-2.275-.037a5.969,5.969,0,0,0-.945.015" transform="translate(-97.533 -24.437)" fill="#455a64"/>
      </g>
    </g>
    <g id="Grupo_1034453" data-name="Grupo 1034453">
      <g id="Grupo_1034452" data-name="Grupo 1034452" clip-path="url(#clip-path)">
        <path id="Trazado_738251" data-name="Trazado 738251" d="M259.075,351.858a6.492,6.492,0,0,0-8.4-5.386,6.971,6.971,0,0,0-11.255,6.443,7.523,7.523,0,0,0-1.036,13.55,7.029,7.029,0,0,0,5.919,11.129l3.933-20.2Z" transform="translate(-76.852 -113.009)" fill="#f5f5f5"/>
        <path id="Trazado_738252" data-name="Trazado 738252" d="M258.993,351.8a1.014,1.014,0,0,1-.173.1l-.539.292-2.115,1.116-7.954,4.134.061-.082c-1.025,5.33-2.365,12.3-3.884,20.2l-.026.131-.134,0a7.4,7.4,0,0,1-5.99-2.9,7.267,7.267,0,0,1-.9-6.966,7.1,7.1,0,0,1,.822-1.53l.055.254a7.693,7.693,0,0,1,1.066-13.852l-.1.173a7.272,7.272,0,0,1,.951-4.622,6.958,6.958,0,0,1,3.267-2.914,7.311,7.311,0,0,1,3.978-.459,7.108,7.108,0,0,1,3.289,1.439l-.112-.017a6.12,6.12,0,0,1,4.751.323,6.972,6.972,0,0,1,2.726,2.33,5.876,5.876,0,0,1,.881,2.067c.046.256.054.456.069.584a1.013,1.013,0,0,1,.011.19,1.445,1.445,0,0,1-.041-.2c-.027-.128-.048-.317-.1-.56a6.085,6.085,0,0,0-.921-2.01,6.914,6.914,0,0,0-2.7-2.239,5.941,5.941,0,0,0-4.593-.271l-.061.023-.052-.04a6.891,6.891,0,0,0-3.187-1.364,7.057,7.057,0,0,0-3.827.465,6.685,6.685,0,0,0-3.115,2.807,6.969,6.969,0,0,0-.895,4.423l.017.127L239.4,353a7.362,7.362,0,0,0-1.007,13.249l.167.1-.112.158a6.716,6.716,0,0,0-.779,1.452,6.926,6.926,0,0,0,.847,6.631,7.067,7.067,0,0,0,5.7,2.776l-.159.135c1.557-7.893,2.931-14.86,3.982-20.185l.011-.056.051-.026,7.961-4,2.159-1.071.566-.274a1.449,1.449,0,0,1,.2-.087" transform="translate(-76.771 -112.947)" fill="#263238"/>
        <path id="Trazado_738253" data-name="Trazado 738253" d="M313.628,322.351a12.507,12.507,0,0,0-13.694-6.964,11.81,11.81,0,0,0-8.9,12.327,7.817,7.817,0,0,0-9.138,9.8,4.49,4.49,0,0,0-5.741,4.871l11.822.38c2.51.266,5.1-1.726,6.529-3.809a14.2,14.2,0,0,0,15.585-1.5,13.3,13.3,0,0,0,3.538-15.105" transform="translate(-90.453 -103.228)" fill="#fafafa"/>
        <path id="Trazado_738254" data-name="Trazado 738254" d="M313.543,322.3a.7.7,0,0,1,.07.141l.183.428a5.346,5.346,0,0,1,.263.717,8.772,8.772,0,0,1,.279,1.012,13.149,13.149,0,0,1-.3,6.771,13.449,13.449,0,0,1-2.226,4.3,12.553,12.553,0,0,1-4.388,3.578,15.268,15.268,0,0,1-2.951,1.06,15.482,15.482,0,0,1-3.285.394,14.312,14.312,0,0,1-6.848-1.657l.208-.05a10.36,10.36,0,0,1-2.778,2.75,6.1,6.1,0,0,1-3.9,1.136h.012l-11.822-.374-.149,0-.019-.148a4.737,4.737,0,0,1,.437-2.616,4.535,4.535,0,0,1,2.337-2.247,4.759,4.759,0,0,1,3.19-.2l-.217.215a7.987,7.987,0,0,1,9.339-10l-.192.174a11.3,11.3,0,0,1,1.555-6.829,12.27,12.27,0,0,1,4.529-4.493,10.822,10.822,0,0,1,5.466-1.395,12.192,12.192,0,0,1,4.721,1.011,12.688,12.688,0,0,1,5.293,4.209,8.617,8.617,0,0,1,.572.878,5.22,5.22,0,0,1,.361.671l.2.421a.667.667,0,0,1,.059.146.693.693,0,0,1-.083-.135l-.221-.407a5.718,5.718,0,0,0-.381-.655,9.156,9.156,0,0,0-.588-.858,12.781,12.781,0,0,0-5.285-4.091,12.063,12.063,0,0,0-4.647-.956,10.6,10.6,0,0,0-5.333,1.394,12.012,12.012,0,0,0-4.4,4.41,11.01,11.01,0,0,0-1.493,6.643l.023.22-.215-.045a7.658,7.658,0,0,0-8.938,9.59l.086.3-.3-.09a4.417,4.417,0,0,0-2.953.186,4.179,4.179,0,0,0-2.158,2.076,4.391,4.391,0,0,0-.406,2.421l-.167-.153,11.821.386h.013a5.782,5.782,0,0,0,3.682-1.075,10.072,10.072,0,0,0,2.7-2.657l.082-.118.127.068a14.037,14.037,0,0,0,6.693,1.641,15.226,15.226,0,0,0,3.223-.373,15.051,15.051,0,0,0,2.9-1.025,12.364,12.364,0,0,0,4.322-3.481,13.457,13.457,0,0,0,2.6-10.9,9.264,9.264,0,0,0-.253-1.011,5.87,5.87,0,0,0-.237-.72l-.158-.437a.728.728,0,0,1-.046-.152" transform="translate(-90.368 -103.176)" fill="#263238"/>
        <path id="Trazado_738255" data-name="Trazado 738255" d="M248.789,361.742l-2.272,42.1h31.866l-2.761-43.949,4.252-3.665H248.789Z" transform="translate(-80.755 -116.694)" fill="#f5f5f5"/>
        <path id="Trazado_738256" data-name="Trazado 738256" d="M250.235,413.4h27.673l-1.753-21.769H251.29Z" transform="translate(-81.973 -128.293)" fill="#7e5ee3"/>
        <path id="Trazado_738257" data-name="Trazado 738257" d="M287.124,368.891a29.712,29.712,0,0,1-6.437,0,29.712,29.712,0,0,1,6.437,0" transform="translate(-91.949 -120.786)" fill="#263238"/>
        <path id="Trazado_738258" data-name="Trazado 738258" d="M287.124,377.772a29.712,29.712,0,0,1-6.437,0,29.712,29.712,0,0,1,6.437,0" transform="translate(-91.949 -123.695)" fill="#263238"/>
        <path id="Trazado_738259" data-name="Trazado 738259" d="M288.254,386.653a29.712,29.712,0,0,1-6.437,0,29.712,29.712,0,0,1,6.437,0" transform="translate(-92.319 -126.604)" fill="#263238"/>
        <path id="Trazado_738260" data-name="Trazado 738260" d="M288.9,395.534a29.605,29.605,0,0,1-6.438,0,29.723,29.723,0,0,1,6.438,0" transform="translate(-92.53 -129.514)" fill="#263238"/>
        <path id="Trazado_738261" data-name="Trazado 738261" d="M289.465,403.935a29.718,29.718,0,0,1-6.438,0,29.723,29.723,0,0,1,6.438,0" transform="translate(-92.715 -132.266)" fill="#263238"/>
        <path id="Trazado_738262" data-name="Trazado 738262" d="M290.111,413.056a29.723,29.723,0,0,1-6.438,0,29.713,29.713,0,0,1,6.438,0" transform="translate(-92.927 -135.254)" fill="#263238"/>
        <path id="Trazado_738263" data-name="Trazado 738263" d="M290.434,421.781a29.713,29.713,0,0,1-6.438,0,29.723,29.723,0,0,1,6.438,0" transform="translate(-93.033 -138.112)" fill="#263238"/>
        <path id="Trazado_738264" data-name="Trazado 738264" d="M248.71,361.67s-.011-.121-.017-.359-.009-.6-.016-1.057c-.007-.945-.017-2.32-.031-4.1v-.063h.065l31.084-.083h.4l-.3.259-4.247,3.671.053-.126c.7,11.118,1.526,24.074,2.4,37.844q.194,3.084.383,6.1l.011.186H278.3l-31.866-.02h-.163l.009-.163c.7-12.567,1.294-23.087,1.709-30.478.217-3.679.388-6.58.506-8.573.063-.98.112-1.738.145-2.262.019-.248.033-.439.044-.58a1.176,1.176,0,0,1,.023-.2,1.211,1.211,0,0,1,0,.2c0,.142-.011.333-.02.581-.023.525-.056,1.282-.1,2.263-.1,2-.239,4.9-.42,8.577-.384,7.393-.93,17.916-1.582,30.488l-.154-.162,31.866-.021-.174.186q-.19-3.014-.384-6.1c-.857-13.77-1.664-26.728-2.357-37.847l0-.077.058-.05,4.256-3.659.1.258-31.084-.083.064-.064c-.013,1.78-.024,3.156-.031,4.1-.007.457-.013.807-.016,1.056s-.017.358-.017.358" transform="translate(-80.676 -116.622)" fill="#263238"/>
        <path id="Trazado_738265" data-name="Trazado 738265" d="M280.968,230.974l-25.69-3.522v.016l-45.534-18.956-1.374,21.416,7.939,33.987s1.5-3.037,7.575-5.4c3.492-1.357,29.457,1.22,29.457,1.22s22.847,1.41,28.076-1.129,10.907-7.161,11.8-13.365c.058-.4.4-3.462.4-3.462Z" transform="translate(-68.259 -68.305)" fill="#ebebeb"/>
        <path id="Trazado_738266" data-name="Trazado 738266" d="M168.864,203.212c3.355-.5,23.951,1.79,23.951,1.79l7.225,56.476-1.353,45.458,4.064,45h-23.99s9.3-104.776,3.328-118.016S156.7,205,156.7,205V197.8H164.1Z" transform="translate(-51.331 -64.795)" fill="#ebebeb"/>
        <path id="Trazado_738267" data-name="Trazado 738267" d="M100.5,215.319l42.94-4.488s26.706,26.164,29.6,39.762-2,105.618-2,105.618H110.288l-7.141-99.761Z" transform="translate(-32.921 -69.065)" fill="#15d3ec"/>
        <path id="Trazado_738268" data-name="Trazado 738268" d="M219.142,236.5a1.586,1.586,0,0,1,.1.373c.054.286.122.644.206,1.083.176.941.393,2.308.629,4,.474,3.389.959,8.1,1.149,13.319s.039,9.955-.191,13.37c-.114,1.707-.232,3.086-.34,4.037l-.128,1.095a1.612,1.612,0,0,1-.068.379,1.576,1.576,0,0,1,0-.386c.016-.29.037-.654.062-1.1.066-.953.147-2.334.229-4.04.166-3.412.272-8.133.087-13.343s-.634-9.909-1.045-13.3c-.2-1.7-.383-3.067-.517-4.013-.057-.443-.1-.8-.141-1.093a1.594,1.594,0,0,1-.026-.385" transform="translate(-71.786 -77.474)" fill="#263238"/>
        <path id="Trazado_738269" data-name="Trazado 738269" d="M198.233,267.376a.7.7,0,0,1,.026-.177c.028-.134.063-.3.108-.51.1-.473.239-1.128.416-1.961a72.967,72.967,0,0,0,1.091-7.305,69.112,69.112,0,0,0,.189-10.987,18.144,18.144,0,0,0-1.4-6.288,8.752,8.752,0,0,0-4.8-4.706l-.2-.069.1-.182.832-1.465,1.627-2.86.02.2-15.295-17.873-4.539-5.36-1.214-1.46-.309-.385a.628.628,0,0,1-.1-.138.642.642,0,0,1,.122.116l.334.362,1.261,1.419,4.619,5.29,15.38,17.8.081.093-.061.108L194.9,233.9l-.833,1.464-.095-.251a9.072,9.072,0,0,1,5,4.894,18.356,18.356,0,0,1,1.407,6.409,67.078,67.078,0,0,1-.266,11.034,65.214,65.214,0,0,1-1.2,7.308c-.194.851-.356,1.508-.479,1.949l-.141.5a.691.691,0,0,1-.059.168" transform="translate(-57.259 -67.434)" fill="#263238"/>
        <path id="Trazado_738270" data-name="Trazado 738270" d="M215.382,223.346a9.949,9.949,0,0,1-.654-1.565c-.379-.973-.927-2.306-1.612-3.742s-1.38-2.7-1.9-3.605a9.972,9.972,0,0,1-.808-1.492,6.91,6.91,0,0,1,1.019,1.363,32,32,0,0,1,3.534,7.393,6.971,6.971,0,0,1,.421,1.649" transform="translate(-68.926 -69.756)" fill="#263238"/>
        <path id="Trazado_738271" data-name="Trazado 738271" d="M170.914,318.134c-.044-.056.874-.728,2.115-2.056a20.269,20.269,0,0,0,1.975-2.5,20.3,20.3,0,0,0,3-7.148,20.331,20.331,0,0,0,.4-3.159c.081-1.816-.082-2.942-.011-2.949a3.46,3.46,0,0,1,.144.785,7.555,7.555,0,0,1,.087.932c.014.364.052.781.028,1.241a18.343,18.343,0,0,1-.334,3.215,19.26,19.26,0,0,1-3.053,7.264,18.336,18.336,0,0,1-2.064,2.488c-.311.34-.635.6-.906.848a7.466,7.466,0,0,1-.727.59,3.474,3.474,0,0,1-.661.446" transform="translate(-55.988 -98.382)" fill="#263238"/>
        <path id="Trazado_738272" data-name="Trazado 738272" d="M259.482,228.4a1.129,1.129,0,0,1-.237-.013l-.692-.075-2.654-.326-9.743-1.266-.016,0-.016-.007L220.271,216l-14.881-6.209c-1.142-.471-2.257-.962-3.339-1.381a26.231,26.231,0,0,0-3.324-.6c-2.18-.3-4.22-.52-6.082-.723l-8.829-.893-2.4-.241-.624-.07a.108.108,0,1,1,0-.036l.627.035,2.407.176c2.089.165,5.112.417,8.842.782,1.865.188,3.908.4,6.1.682a25.581,25.581,0,0,1,3.392.6c1.107.422,2.207.9,3.357,1.372l14.891,6.184,25.817,10.8-.032-.009,9.727,1.38,2.645.394.687.112a1.148,1.148,0,0,1,.233.05" transform="translate(-59.155 -67.431)" fill="#263238"/>
        <path id="Trazado_738273" data-name="Trazado 738273" d="M141.93,341.22c.007.065-.915.143-2.345.52a17.516,17.516,0,0,0-2.447.851,17.325,17.325,0,0,0-5.235,3.522,17.529,17.529,0,0,0-1.71,1.946c-.888,1.183-1.307,2.008-1.366,1.977a2.344,2.344,0,0,1,.254-.6,11.524,11.524,0,0,1,.911-1.522,15.328,15.328,0,0,1,1.683-2.029,16.169,16.169,0,0,1,5.336-3.591,15.317,15.317,0,0,1,2.514-.794,11.392,11.392,0,0,1,1.754-.27,2.324,2.324,0,0,1,.651-.009" transform="translate(-42.201 -111.774)" fill="#263238"/>
        <path id="Trazado_738274" data-name="Trazado 738274" d="M76.523,103.162a2.54,2.54,0,0,1-.469-4.311c-1.187-.869-.563-2.842.577-3.772s2.654-1.4,3.594-2.527A3.018,3.018,0,0,1,76.985,89.5a2.462,2.462,0,0,1-.964-4.68c-1.351-.294-.941-2.537.3-3.149s2.737-.36,4.055-.782A16.274,16.274,0,0,1,89.6,76.978l-5.049-4.892a3.258,3.258,0,0,1-.972-1.335c-.342-1.173.688-2.286,1.711-2.955a13.2,13.2,0,0,1,7.345-2.133c.83.011,1.861.272,2.02,1.087a11.833,11.833,0,0,1,5.747.106,4.559,4.559,0,0,1,2.9,1.308,9.006,9.006,0,0,0-1.669-2.758,3.867,3.867,0,0,1-.927-3c.246-1.053,1.655-1.809,2.464-1.09-.933-.6-.594-2.175.342-2.766a5.02,5.02,0,0,1,3.234-.375c.767.082,1.725.336,1.838,1.1.572-1.668,3.528-1.525,3.937.19a2.67,2.67,0,0,1,3.778.8,3.434,3.434,0,0,1,4.586,2.419L118.561,57.3c-.438-1.015-.306-2.791.769-2.536-1.565-.2-2.182-2.452-1.241-3.718a4.1,4.1,0,0,1,4.306-1.161l1.1,2.142a3.121,3.121,0,0,1,4.283,4.063,1.607,1.607,0,0,1,2.29.775,4.641,4.641,0,0,1,.1,2.741c1.686-1.081,4.291.772,3.821,2.719a8.7,8.7,0,0,1,4.613-.345,3.069,3.069,0,0,1,4.524-3.807,3.027,3.027,0,0,1,4.192-1.936c.721-1.753,3.277-2.786,4.57-1.4,1.336,1.433.217,3.728-.923,5.321l-3.71,5.181,10.4-3.946a1.713,1.713,0,0,1,1.01-.161c.462.119.734.588,1.13.855.549.369,1.282.316,1.884.59,1.647.748,1.277,3.364-.075,4.567s-3.233,1.617-4.72,2.648l4.214,1.378a4.453,4.453,0,0,1,6.087-2.245c.795-1.518,2.958-1.443,4.647-1.152,1.513.262,3.17.607,4.108,1.822,1.2,1.555.624,3.937-.739,5.349a12.484,12.484,0,0,1-5.154,2.725c.122,1.33,1.748,1.946,3.084,1.924s2.766-.358,3.945.27c1.6.853,2.032,3.123,3.642,3.959a7.223,7.223,0,0,1,1.477.714,3.086,3.086,0,0,1,.778,2.145q.133,1.443.267,2.888a3.435,3.435,0,0,1-.069,1.424c-.506,1.484-2.677,1.537-4.041.762s-2.448-2.072-3.958-2.5c1.9,1.277,3.893,2.671,4.772,4.782s.015,5.1-2.218,5.586c-2.26.494-4.143-1.651-5.5-3.527s-3.382-3.948-5.592-3.266" transform="translate(-24.448 -16.288)" fill="#12263f"/>
        <path id="Trazado_738275" data-name="Trazado 738275" d="M77.731,117.115a2.8,2.8,0,0,0-4.494,1.873,5.835,5.835,0,0,0-3.467,9.712c1.136,1.242,3.665,1.612,4.148,0a4.54,4.54,0,0,0,2.834,3.189,4.4,4.4,0,0,0,.954,6.411c-2.831,1.448-2.952,6.22-.2,7.809a3.591,3.591,0,1,0,6.124,3.751,7.628,7.628,0,0,0,1.908,3.863c1.091.968,3.063,1.079,3.838-.155a4.931,4.931,0,0,0,6.58,3.842,3.19,3.19,0,0,0,6.077,1.9L110.1,161a29.333,29.333,0,0,0,5.4.781,14.747,14.747,0,0,0,6.752-1.5,5,5,0,0,1,2.105-.724,5.132,5.132,0,0,1,2.378.917,13.332,13.332,0,0,0,13.009-.219,6.685,6.685,0,0,1,1.916-.945,6.007,6.007,0,0,1,2.446.191,24.063,24.063,0,0,0,6.034.438c1.733-.093,3.618-.463,4.718-1.8s.705-3.87-1-4.214a3.726,3.726,0,0,1,1.566-2.86,2.243,2.243,0,0,1,3,.527A1.614,1.614,0,0,1,157.144,154c1.546,1.653,4.758.51,5.288-1.69s-1.266-4.517-3.474-5.015a10.242,10.242,0,0,0,1.191-4.839,3.663,3.663,0,0,0,4.753,1.619,6.313,6.313,0,0,0,3.364,3.743,3.783,3.783,0,0,0,4.567-1.335c.87-1.492-.059-3.811-1.779-3.979a3.254,3.254,0,0,0-1.82-5.217,5.064,5.064,0,0,0-1.871-5.912,2.665,2.665,0,0,0,4.016-.62c.672,1.84,3.252,1.99,5.114,1.383,1.461-.476,2.939-1.288,2.983-3.31a4.025,4.025,0,0,0-.927-2.6c-1.413-1.731-3.618-2.3-5.717-2.817a26.3,26.3,0,0,1-.72-8.565,5.067,5.067,0,0,0,5.917-2.909l-10.841-8.867s-26.754-7.77-27.734-7.9S77.587,117,77.587,117c-1.5,1.209-4,.249-4.751-1.522A5.335,5.335,0,0,1,74,110.115a15.7,15.7,0,0,1,4.677-3.333c-1.81-.364-3.737-.787-4.917-2.29a2.931,2.931,0,0,1-.371-3.258c.863-1.487,2.669-1.143,3.952-1.886a6.652,6.652,0,0,0,1.772-1.885" transform="translate(-22.36 -31.174)" fill="#12263f"/>
        <path id="Trazado_738276" data-name="Trazado 738276" d="M151.753,188.9h0L144.4,181.54l.291-2.36c.8-5.9,1.1-8.329,1.093-8.273,0,0,12.726-.533,17.315-16.486,2.282-7.934,3.511-21.251,4.165-32.18.588-9.837-4.4-22.611-14.256-22.781l-31.318,3.933a5.766,5.766,0,0,0-5.836,5.174L110.438,174.4l-4.153,3.549,47.158,42.019s13.8-11.065-1.69-31.063" transform="translate(-34.817 -32.581)" fill="#a37166"/>
        <path id="Trazado_738277" data-name="Trazado 738277" d="M187.369,147.984a2.1,2.1,0,0,1-2.272,1.857,2.011,2.011,0,0,1-1.919-2.146,2.1,2.1,0,0,1,2.269-1.859,2.012,2.012,0,0,1,1.922,2.148" transform="translate(-60.004 -47.772)" fill="#263238"/>
        <path id="Trazado_738278" data-name="Trazado 738278" d="M155.322,144.841a2.1,2.1,0,0,1-2.272,1.857,2.011,2.011,0,0,1-1.919-2.146,2.1,2.1,0,0,1,2.269-1.859,2.012,2.012,0,0,1,1.922,2.148" transform="translate(-49.506 -46.742)" fill="#263238"/>
        <path id="Trazado_738279" data-name="Trazado 738279" d="M187.41,141.741c-.292.241-1.729-1.124-3.975-1.4-2.24-.3-4.03.65-4.24.344-.1-.136.219-.6,1-1.029a5.764,5.764,0,0,1,3.435-.612,5.536,5.536,0,0,1,3.122,1.45c.625.615.8,1.136.656,1.242" transform="translate(-58.695 -45.535)" fill="#263238"/>
        <path id="Trazado_738280" data-name="Trazado 738280" d="M154.224,139.1c-.293.24-1.731-1.125-3.977-1.4-2.239-.3-4.03.649-4.24.344-.1-.137.217-.6,1-1.029a5.77,5.77,0,0,1,3.435-.613,5.545,5.545,0,0,1,3.122,1.45c.624.615.8,1.136.657,1.243" transform="translate(-47.824 -44.67)" fill="#263238"/>
        <path id="Trazado_738281" data-name="Trazado 738281" d="M167.585,156.736a15.031,15.031,0,0,1,3.729-.208c.58.011,1.137-.036,1.282-.415a2.941,2.941,0,0,0-.173-1.747q-.553-2.181-1.157-4.575c-1.588-6.506-2.663-11.828-2.4-11.89s1.764,5.162,3.353,11.668q.566,2.4,1.083,4.593a3.342,3.342,0,0,1,.02,2.288,1.451,1.451,0,0,1-1.046.722,3.923,3.923,0,0,1-.99.015,14.691,14.691,0,0,1-3.7-.451" transform="translate(-54.898 -45.174)" fill="#263238"/>
        <path id="Trazado_738282" data-name="Trazado 738282" d="M154.755,201.574a41.7,41.7,0,0,1-21.075-8.5s4.08,12.017,20.553,12.5Z" transform="translate(-43.792 -63.249)" fill="#7c554e"/>
        <path id="Trazado_738283" data-name="Trazado 738283" d="M162.383,172.589a18.793,18.793,0,0,0-5.718-3.872c-1.166-.29-1.049,1.09-1.821,2.056a3.622,3.622,0,0,0-.383,3.739c.688,1.364,2.144,2.543,3.472,2.394s2.577-1.471,3.691-2.234a2.62,2.62,0,0,0,.824-.771,1.2,1.2,0,0,0,.048-1.183" transform="translate(-50.484 -55.256)" fill="#7c554e"/>
        <path id="Trazado_738284" data-name="Trazado 738284" d="M155.358,128.555c-.3.583-2.5.017-5.176.01-2.674-.061-4.893.449-5.176-.143-.124-.281.317-.81,1.249-1.3a9,9,0,0,1,7.887.1c.919.509,1.347,1.048,1.216,1.327" transform="translate(-47.495 -41.363)" fill="#263238"/>
        <path id="Trazado_738285" data-name="Trazado 738285" d="M187.683,131.871c-.458.461-1.939-.259-3.8-.513-1.848-.319-3.478-.081-3.774-.658-.127-.279.184-.759.932-1.157a5.548,5.548,0,0,1,6.1.944c.592.605.744,1.157.539,1.384" transform="translate(-58.993 -42.265)" fill="#263238"/>
        <path id="Trazado_738286" data-name="Trazado 738286" d="M111.934,119.583a2.741,2.741,0,0,0,.369,3.215,1.891,1.891,0,0,0,2.76-.39c.584,1.048,2.341.29,2.281-.984.814.608,2.123-.422,1.986-1.564.969.527,1.793-1.042,2.474-2.075a17.881,17.881,0,0,1,1.268-1.541,11.521,11.521,0,0,0,2.489-5.912c1.528-1.337,2.173-3.624,2.725-5.75l1.034-3.982.879-.839a2.22,2.22,0,0,0,1.177,2.294,4.744,4.744,0,0,0,2.458.289l2.481-.147,1.449.64a6.17,6.17,0,0,0-.081,4,3.832,3.832,0,0,0,1.1,2.385,1.153,1.153,0,0,0,1.758-1.01,1.278,1.278,0,0,0,2-.046,4.2,4.2,0,0,0,.88-2.419,10.745,10.745,0,0,0-1.152-6.125l3.671,4.5a1.976,1.976,0,0,0,.944.769,1.12,1.12,0,0,0,1.017,1.385,2.908,2.908,0,0,0,1.7-.844c1.167-.938,2.5-2.62,1.748-3.953a.918.918,0,0,0,.582-1.278l4.28,4.269c-.438-.341-1.064.329-1.042.959a2.548,2.548,0,0,0,.8,1.547,3.761,3.761,0,0,0-.853,2.187c-.753-.886-2.234.368-2.123,1.638a2.721,2.721,0,0,0,2.255,2.307,1.893,1.893,0,0,0,2.312-1.1c1.017.362,2.22-.941,2-2.173.688.608,1.536-.663,1.717-1.686a14.915,14.915,0,0,0-.087-5.65c-.065.26.2.522.409.4a.41.41,0,0,0,.01-.642q.906,3.459,1.811,6.918a15.432,15.432,0,0,1,.74,5.652c-.09.784-.145,1.869.5,2.028a.992.992,0,0,0,.535-.067,9.892,9.892,0,0,0,4.97-4.422,7.475,7.475,0,0,0,.968-2.215c.374-1.659-.11-3.371,0-5.07a16.568,16.568,0,0,0,.152-2.24,6.736,6.736,0,0,0-1.335-3.131c-2.171-3.317-4.473-6.758-7.754-8.417-2.005-1.014-4.255-1.291-6.268-2.284a37.855,37.855,0,0,1-3.556-2.249c-4.875-3.127-10.572-4.207-16.209-4.473a26.684,26.684,0,0,0-9.436.931,32.333,32.333,0,0,0-9.47,5.459,49.284,49.284,0,0,0-11.9,12.244,24.109,24.109,0,0,0-4.194,13.1c.072,4.688,2.35,9.377,6.074,10.839l1.745-1.537" transform="translate(-33.141 -26.938)" fill="#12263f"/>
        <path id="Trazado_738287" data-name="Trazado 738287" d="M118.381,142.8c-.21-.132-8.673-4.084-9.774,5s8.247,8.316,8.294,8.058,1.48-13.058,1.48-13.058" transform="translate(-35.549 -46.463)" fill="#a37166"/>
        <path id="Trazado_738288" data-name="Trazado 738288" d="M115.685,153.467c-.036-.034-.172.091-.454.182a1.6,1.6,0,0,1-1.186-.118c-.917-.469-1.54-2.091-1.386-3.733a5.248,5.248,0,0,1,.717-2.212,1.839,1.839,0,0,1,1.337-1.07.811.811,0,0,1,.882.547c.091.269.011.443.057.465.024.026.214-.128.186-.512a1.019,1.019,0,0,0-.288-.613,1.2,1.2,0,0,0-.847-.338,2.241,2.241,0,0,0-1.824,1.208,5.409,5.409,0,0,0-.855,2.465c-.163,1.838.566,3.665,1.833,4.2a1.706,1.706,0,0,0,1.477-.065c.309-.19.381-.388.352-.408" transform="translate(-36.69 -47.848)" fill="#7c554e"/>
        <path id="Trazado_738289" data-name="Trazado 738289" d="M110,160.445c.008.038-.249.083-.643.3a2.963,2.963,0,0,0-1.234,1.384,2.593,2.593,0,0,0,.216,2.6,3.08,3.08,0,0,0,2.9,1.278,3.29,3.29,0,0,0,2.285-4.753,4.039,4.039,0,0,0-1.216-1.444,5.961,5.961,0,0,1-.59-.406,1.554,1.554,0,0,1,.678.272,3.818,3.818,0,0,1,1.387,1.442,3.529,3.529,0,0,1,.264,2.951,3.638,3.638,0,0,1-2.742,2.347,3.424,3.424,0,0,1-3.285-1.472,2.84,2.84,0,0,1-.495-1.561,3.048,3.048,0,0,1,.329-1.378,2.946,2.946,0,0,1,1.427-1.4,1.324,1.324,0,0,1,.715-.158" transform="translate(-35.224 -52.218)" fill="#455a64"/>
        <path id="Trazado_738290" data-name="Trazado 738290" d="M169.2,101.755a2.29,2.29,0,0,0,.763-1.088,1.617,1.617,0,0,0-.231-1.419,1.726,1.726,0,0,0-1.677-.674l-.394.078.21-.344a1.807,1.807,0,0,0-.215-2.073,1.77,1.77,0,0,0-2.265-.214l-.263-.32a.794.794,0,0,0,.155-.211,1.025,1.025,0,0,0-.034-.873,1.172,1.172,0,0,0-.677-.563,1.957,1.957,0,0,0-.913-.078,2.478,2.478,0,0,1-1.048.093c-.424-.135-.574-.481-.778-.655a3.379,3.379,0,0,0-.646-.528,3.908,3.908,0,0,0-1.413-.523,4.01,4.01,0,0,0-2.181.232c-.489.2-.726.393-.749.362a1.82,1.82,0,0,1,.681-.509,3.909,3.909,0,0,1,2.291-.375,4.1,4.1,0,0,1,1.549.519,3.724,3.724,0,0,1,.728.566c.238.223.4.5.62.543a2.428,2.428,0,0,0,.885-.116,2.332,2.332,0,0,1,1.107.086,1.58,1.58,0,0,1,.911.762,1.427,1.427,0,0,1,.039,1.237,1.219,1.219,0,0,1-.248.337l-.262-.32a2.1,2.1,0,0,1,3.025,2.808l-.184-.266a2.021,2.021,0,0,1,1.98.854,1.885,1.885,0,0,1-.432,2.509c-.2.145-.329.178-.335.165" transform="translate(-51.379 -30.15)" fill="#455a64"/>
        <path id="Trazado_738291" data-name="Trazado 738291" d="M182.9,104.7a2.8,2.8,0,0,0,.921-1.035,2.049,2.049,0,0,0,.108-1.548,2.143,2.143,0,0,0-1.444-1.369l-.287-.076.227-.2a2.557,2.557,0,0,0,.984-2.126,1.369,1.369,0,0,0-.7-1.022,1.087,1.087,0,0,0-1.223,0L180.168,98.4,181.2,97.05a2.126,2.126,0,0,0,.345-1.756,1.955,1.955,0,0,0-1.246-1.384,2.075,2.075,0,0,0-1.375-.042l-.5.17.26-.467a1.344,1.344,0,0,0-.93-1.75,3.49,3.49,0,0,0-2.22.257l-.419.159.179-.407a1.508,1.508,0,0,0-.3-1.513,2.8,2.8,0,0,0-1.311-.8,7.111,7.111,0,0,0-2.614-.278,11.416,11.416,0,0,0-2.29.5,1.935,1.935,0,0,1,.557-.288,6.744,6.744,0,0,1,1.711-.433,7.03,7.03,0,0,1,2.727.2,3.08,3.08,0,0,1,1.483.874,1.853,1.853,0,0,1,.381,1.884l-.239-.247a3.819,3.819,0,0,1,2.474-.29,1.92,1.92,0,0,1,1.1.867,1.469,1.469,0,0,1,.075,1.467l-.245-.3a2.481,2.481,0,0,1,1.653.044,2.365,2.365,0,0,1,1.5,1.677,2.516,2.516,0,0,1-.428,2.1l-.282-.277a1.475,1.475,0,0,1,1.668-.022,1.744,1.744,0,0,1,.863,1.309,2.861,2.861,0,0,1-1.143,2.412l-.06-.273a2.394,2.394,0,0,1,1.6,1.6,2.266,2.266,0,0,1-.924,2.505.792.792,0,0,1-.345.154" transform="translate(-55.288 -29.143)" fill="#455a64"/>
        <path id="Trazado_738292" data-name="Trazado 738292" d="M213.254,111.617a1.543,1.543,0,0,0-.381-1.184,1.972,1.972,0,0,0-1.288-.663,5.848,5.848,0,0,0-2,.206l-.237.054.063-.237a1.774,1.774,0,0,0-1.206-1.9,5.141,5.141,0,0,0-2.947.087l-1.33.306,1.192-.665a1.457,1.457,0,0,0,.161-2.091,3.305,3.305,0,0,0-2.457-.931l-.124,0-.811-.032.726-.362a1.562,1.562,0,0,0,.147-2.472,2.367,2.367,0,0,0-2.643-.088l-.921.551.676-.834a3.543,3.543,0,0,0,.457-3.573,3.3,3.3,0,0,0-2.207-1.849,3.732,3.732,0,0,0-1.95,0c-.444.124-.665.255-.679.229,0-.009.046-.047.151-.113a2.423,2.423,0,0,1,.492-.233,3.646,3.646,0,0,1,2.042-.1,3.524,3.524,0,0,1,2.442,1.943,3.858,3.858,0,0,1-.453,3.944l-.246-.284a2.742,2.742,0,0,1,3.1.1,1.99,1.99,0,0,1,.687,1.6,1.749,1.749,0,0,1-.914,1.554l-.085-.393.13.005a3.668,3.668,0,0,1,2.758,1.09,2.11,2.11,0,0,1,.44,1.424,1.52,1.52,0,0,1-.725,1.26l-.138-.36a5.407,5.407,0,0,1,3.164-.03,2.079,2.079,0,0,1,1.359,2.3l-.173-.183a5.9,5.9,0,0,1,2.095-.148,2.119,2.119,0,0,1,1.381.793,1.474,1.474,0,0,1,.336.947.61.61,0,0,1-.082.34" transform="translate(-64.041 -31.322)" fill="#455a64"/>
        <path id="Trazado_738293" data-name="Trazado 738293" d="M199.875,85.916a1.219,1.219,0,0,1-.563.123,7.022,7.022,0,0,1-1.6-.124,4.753,4.753,0,0,0-2.329.045,1.462,1.462,0,0,0-.927.889,1.06,1.06,0,0,0,.26,1.251l-.305.162c-.016-.535-.622-.953-1.163-1.376a6.847,6.847,0,0,0-1.807-1.073,2.487,2.487,0,0,0-1.984.045,1.651,1.651,0,0,0-1.038,1.4v.511l-.338-.385a4.583,4.583,0,0,0-2.525-1.447,5.153,5.153,0,0,0-2.329.032,6.551,6.551,0,0,0-1.9.892c-.012-.013.118-.165.407-.4a4.384,4.384,0,0,1,1.43-.719,5.19,5.19,0,0,1,2.456-.122,4.84,4.84,0,0,1,2.754,1.514l-.34.125a2.036,2.036,0,0,1,1.249-1.764,2.885,2.885,0,0,1,2.3-.069,7.119,7.119,0,0,1,1.916,1.14,8.629,8.629,0,0,1,.813.687,1.5,1.5,0,0,1,.488,1l.006.393-.312-.231a1.424,1.424,0,0,1-.374-1.7,1.8,1.8,0,0,1,1.154-1.068,4.8,4.8,0,0,1,2.481.029,9.081,9.081,0,0,0,1.555.231,5.181,5.181,0,0,1,.566,0" transform="translate(-59.4 -27.916)" fill="#455a64"/>
        <path id="Trazado_738294" data-name="Trazado 738294" d="M175.467,70.548a4.269,4.269,0,0,0-1.091.009,2.612,2.612,0,0,0-1.108.515,2.256,2.256,0,0,0-.833,1.29l-.047.219-.2-.1a1.361,1.361,0,0,0-1.6.646,4.133,4.133,0,0,0-.373,2.247l.02.818-.412-.723-.065-.113a1.751,1.751,0,0,0-1.329-.765,1.957,1.957,0,0,0-1.414.407,3.119,3.119,0,0,0-1.136,2.308,5.774,5.774,0,0,0,.227,1.828,3.147,3.147,0,0,1,.168.674,1.812,1.812,0,0,1-.321-.623,5.092,5.092,0,0,1-.366-1.889,3.36,3.36,0,0,1,1.2-2.6,2.3,2.3,0,0,1,3.329.442l.083.148-.393.095a4.379,4.379,0,0,1,.454-2.468,1.711,1.711,0,0,1,2.092-.744l-.247.119a2.5,2.5,0,0,1,1-1.443,2.67,2.67,0,0,1,1.247-.487,2.183,2.183,0,0,1,.851.061c.187.063.278.114.272.129" transform="translate(-54.241 -23.043)" fill="#455a64"/>
        <path id="Trazado_738295" data-name="Trazado 738295" d="M149.291,79.885c-.009.022-.206-.02-.524-.192a3.436,3.436,0,0,1-1.12-1.033,3.672,3.672,0,0,1-.667-2.175,1.879,1.879,0,0,0-.124-1.15c-.2-.318-.671-.564-.916-1.079a2.07,2.07,0,0,1,.887-2.694l-.056.3a6.616,6.616,0,0,1-1.43-2.657,2.7,2.7,0,0,1-.141-1.155,10.722,10.722,0,0,1,.359,1.087,7.284,7.284,0,0,0,1.492,2.471l.173.187-.23.11a1.705,1.705,0,0,0-.681,2.171c.162.379.587.6.885,1.04a2.154,2.154,0,0,1,.165,1.387,3.52,3.52,0,0,0,.53,2,5.219,5.219,0,0,0,1.4,1.387" transform="translate(-47.559 -22.292)" fill="#455a64"/>
        <path id="Trazado_738296" data-name="Trazado 738296" d="M134.928,85.6c0,.017-.122.022-.348,0a4.657,4.657,0,0,1-.961-.21,5.508,5.508,0,0,1-2.8-2.111l.266.03a3.545,3.545,0,0,1-2.572.958,3.675,3.675,0,0,1-1.5-.38,2.252,2.252,0,0,1-1.17-1.191,4.611,4.611,0,0,1-.085-.611.818.818,0,0,0-.207-.414,2.561,2.561,0,0,0-.889-.542,3.3,3.3,0,0,1-1-.568,1.177,1.177,0,0,1-.449-1.085l.235.215a3.646,3.646,0,0,1-2.507-.268,3.948,3.948,0,0,1-1.506-1.243,3.266,3.266,0,0,1-.54-1.141,1.077,1.077,0,0,1-.044-.446,5.153,5.153,0,0,0,.763,1.449,3.88,3.88,0,0,0,1.458,1.1,3.376,3.376,0,0,0,2.275.19l.29-.079-.054.294a.8.8,0,0,0,.34.723,2.96,2.96,0,0,0,.9.49,2.887,2.887,0,0,1,1.037.638,1.232,1.232,0,0,1,.309.619,5.351,5.351,0,0,0,.075.563,1.906,1.906,0,0,0,.96.945,3.324,3.324,0,0,0,1.331.348,3.227,3.227,0,0,0,2.316-.812l.153-.145.113.174a5.588,5.588,0,0,0,2.578,2.113c.765.307,1.247.349,1.239.4" transform="translate(-38.93 -25.091)" fill="#455a64"/>
        <path id="Trazado_738297" data-name="Trazado 738297" d="M92.217,97.82c-.009,0-.019-.049-.03-.147a2.363,2.363,0,0,1-.012-.435,4.377,4.377,0,0,1,.408-1.6,9.756,9.756,0,0,1,1.4-2.155A9.115,9.115,0,0,1,95.064,92.3a2.45,2.45,0,0,1,.785-.457,1.093,1.093,0,0,1,1,.133l-.28.134a2.747,2.747,0,0,1,4.75-1.791l-.352.119A1.9,1.9,0,0,1,101.933,89a1.819,1.819,0,0,1,1.776.015,1.87,1.87,0,0,1,.725.715l-.388.089a1.178,1.178,0,0,1,.557-.906,1.615,1.615,0,0,1,.975-.266,3.74,3.74,0,0,1,1.694.678l-.26.045a2.948,2.948,0,0,1,1.935-1.007,4.13,4.13,0,0,1,2.007.263,10.437,10.437,0,0,1,2.888,1.94l-.24.156a.728.728,0,0,1,.175-.7,1.255,1.255,0,0,1,.557-.319,2.122,2.122,0,0,1,1.114-.022,6,6,0,0,1,1.567.706,5.462,5.462,0,0,1,.851.665c.177.173.256.276.247.285-.027.031-.386-.35-1.183-.808a6.244,6.244,0,0,0-1.538-.619,1.9,1.9,0,0,0-.975.05c-.33.1-.635.358-.525.682l.164.48-.4-.324a10.419,10.419,0,0,0-2.823-1.832,3.771,3.771,0,0,0-1.83-.221,2.568,2.568,0,0,0-1.674.878l-.11.136-.15-.091a3.409,3.409,0,0,0-1.507-.611c-.492-.036-1.078.311-1.1.784l-.03.73-.358-.639a1.466,1.466,0,0,0-.563-.552,1.407,1.407,0,0,0-1.374-.017,1.494,1.494,0,0,0-.757,1.117l-.045.445-.306-.327a2.427,2.427,0,0,0-2.676-.553,2.46,2.46,0,0,0-1.428,2.079l-.013.342-.266-.208c-.4-.316-.984-.029-1.378.292A9.146,9.146,0,0,0,94.2,93.664a10.141,10.141,0,0,0-1.436,2.059,5.516,5.516,0,0,0-.55,2.1" transform="translate(-30.194 -28.938)" fill="#455a64"/>
        <path id="Trazado_738298" data-name="Trazado 738298" d="M92.963,114.184c-.013.005-.073-.092-.171-.287a6.407,6.407,0,0,1-.374-.886,2.949,2.949,0,0,1-.131-1.543,2.153,2.153,0,0,1,.432-.9,1.551,1.551,0,0,1,.988-.572l-.114.21a1.929,1.929,0,0,1,2.426-2.667l-.228.264a1.553,1.553,0,0,1,.3-1.815,2.3,2.3,0,0,1,1.854-.587,8.951,8.951,0,0,0,.916.117.791.791,0,0,0,.631-.417,3.382,3.382,0,0,1,.645-.816,1.787,1.787,0,0,1,1.035-.406,10.226,10.226,0,0,1,2.191.232,2.383,2.383,0,0,0,1.834-.282,9.2,9.2,0,0,0,.665-.709,2.055,2.055,0,0,1,.912-.531,2.174,2.174,0,0,1,1.9.354l-.274.223a1.639,1.639,0,0,1,.469-1.858,2.31,2.31,0,0,1,1.633-.559,7.352,7.352,0,0,1,2.637.683,8.968,8.968,0,0,1,1.521.852,2.1,2.1,0,0,1,.477.392,20.7,20.7,0,0,0-2.08-1.048,7.478,7.478,0,0,0-2.553-.582,2.019,2.019,0,0,0-1.406.5,1.3,1.3,0,0,0-.373,1.457l.351.7-.625-.477a1.811,1.811,0,0,0-1.577-.269,1.67,1.67,0,0,0-.737.437,8.331,8.331,0,0,1-.693.746,2.161,2.161,0,0,1-1.044.414,4.8,4.8,0,0,1-1.1-.038,10.305,10.305,0,0,0-2.1-.226,1.373,1.373,0,0,0-.811.312,3.094,3.094,0,0,0-.574.736,1.207,1.207,0,0,1-.947.585,7.756,7.756,0,0,1-.971-.124,1.92,1.92,0,0,0-1.541.458,1.183,1.183,0,0,0-.258,1.358l.268.462-.5-.2a1.634,1.634,0,0,0-1.839.488,1.667,1.667,0,0,0-.19,1.706l.09.187-.2.024a1.573,1.573,0,0,0-1.23,1.235,2.888,2.888,0,0,0,.061,1.444c.227.786.429,1.2.392,1.218" transform="translate(-30.214 -33.004)" fill="#455a64"/>
        <path id="Trazado_738299" data-name="Trazado 738299" d="M88.69,149.127a.934.934,0,0,1-.381-.181,2.854,2.854,0,0,1-.839-.859,2.95,2.95,0,0,1-.464-1.826,3.145,3.145,0,0,1,1.139-2.178l-.046.217a5.71,5.71,0,0,1-.8-2.177,2.338,2.338,0,0,1,.266-1.3,1.7,1.7,0,0,1,1.1-.888l-.087.356a2.4,2.4,0,0,1-.744-2.273,2.692,2.692,0,0,1,.6-1.282,2.256,2.256,0,0,1,1.171-.708c.414-.122.617-.281.681-.676a3.277,3.277,0,0,1,.432-1.165,4.172,4.172,0,0,1,1.74-1.436c.6-.327,1.161-.637,1.687-.9A6.9,6.9,0,0,1,96.8,131a3.233,3.233,0,0,1,.762.036c.171.037.258.063.256.077,0,.041-.365-.042-1,.047a7.413,7.413,0,0,0-2.536.948l-1.655.943a3.886,3.886,0,0,0-1.582,1.335,2.908,2.908,0,0,0-.372,1.051,1.188,1.188,0,0,1-.315.646,1.6,1.6,0,0,1-.626.331,2.14,2.14,0,0,0-.89,3.563l.321.264-.409.092a1.642,1.642,0,0,0-1.071,1.76,5.511,5.511,0,0,0,.724,2.045l.065.129-.112.087a2.883,2.883,0,0,0-1.074,1.933,2.81,2.81,0,0,0,.355,1.7,4.119,4.119,0,0,0,1.05,1.143" transform="translate(-28.499 -42.911)" fill="#455a64"/>
        <path id="Trazado_738300" data-name="Trazado 738300" d="M108.963,136.645a1.654,1.654,0,0,1-.547-.192,5.208,5.208,0,0,1-1.341-.936,5.509,5.509,0,0,1-1.385-2.127,2.21,2.21,0,0,1-.071-1.614,1.09,1.09,0,0,1,.719-.617.875.875,0,0,1,.976.3l-.332.146a2.789,2.789,0,0,1-.075-1.614,1.333,1.333,0,0,1,.592-.709,1.109,1.109,0,0,1,.958-.011,1.626,1.626,0,0,0,.694.188c.153-.026.211-.211.234-.52a2.526,2.526,0,0,1,.921-1.645,2.721,2.721,0,0,1,2.887-.433l-.293.207a2.342,2.342,0,0,1,.719-2.2,1.422,1.422,0,0,1,1.157-.205,1.059,1.059,0,0,1,.826.787l-.357.026a5.6,5.6,0,0,1,1.089-2.9,5.827,5.827,0,0,1,1.766-1.6,5.112,5.112,0,0,1,1.42-.574,1.709,1.709,0,0,1,.538-.065,8.278,8.278,0,0,0-1.846.819,5.84,5.84,0,0,0-1.635,1.593,5.384,5.384,0,0,0-.97,2.747l-.1,1.5-.262-1.475c-.09-.508-.937-.695-1.4-.342a1.974,1.974,0,0,0-.546,1.84l.051.379-.344-.171a2.325,2.325,0,0,0-2.441.389,2.119,2.119,0,0,0-.776,1.372,1.742,1.742,0,0,1-.1.48.653.653,0,0,1-.455.391,1.769,1.769,0,0,1-.923-.208.706.706,0,0,0-.633-.018.943.943,0,0,0-.415.5,2.5,2.5,0,0,0,.069,1.39l.25,1.047-.582-.9c-.229-.356-.939-.155-1.079.254a1.932,1.932,0,0,0,.05,1.375,5.47,5.47,0,0,0,1.252,2.07,7.933,7.933,0,0,0,1.733,1.284" transform="translate(-34.558 -39.418)" fill="#455a64"/>
        <path id="Trazado_738301" data-name="Trazado 738301" d="M144.7,107.553a3.1,3.1,0,0,1-1.15-.644,3.463,3.463,0,0,1-.977-1.1,2.278,2.278,0,0,1-.167-1.832,1.751,1.751,0,0,1,.223-.406l.049.294a1.972,1.972,0,0,1-.831-1.485,1.8,1.8,0,0,1,.436-1.3c.534-.6,1.072-.592,1.062-.552.027.062-.443.166-.841.724a1.592,1.592,0,0,0-.288,1.093,1.656,1.656,0,0,0,.695,1.175l.169.115-.12.18a1.391,1.391,0,0,0-.167.308,1.98,1.98,0,0,0,.122,1.512,3.6,3.6,0,0,0,.824,1.046c.586.522,1,.814.962.869" transform="translate(-46.464 -32.928)" fill="#455a64"/>
        <path id="Trazado_738302" data-name="Trazado 738302" d="M156.305,102.589a2.424,2.424,0,0,0,.483-1.46,1.711,1.711,0,0,0-.8-1.41,1.852,1.852,0,0,0-2,.048l-.288.209-.022-.357a3.385,3.385,0,0,0-.309-1.269,1.561,1.561,0,0,0-.929-.865c-.642-.175-1.456.337-1.348.9l-.4.028a3.153,3.153,0,0,0-.857-2.189,3.074,3.074,0,0,0-1.668-.9,4.769,4.769,0,0,0-1.758.085c-.009-.018.135-.117.438-.218a3.131,3.131,0,0,1,1.36-.118,3.236,3.236,0,0,1,1.875.913,3.444,3.444,0,0,1,1.011,2.435l-.4.028a1.159,1.159,0,0,1,.562-1.136,1.647,1.647,0,0,1,1.282-.23,1.94,1.94,0,0,1,1.194,1.089,3.694,3.694,0,0,1,.332,1.427l-.31-.148a2.181,2.181,0,0,1,2.405-.012,1.953,1.953,0,0,1,.861,1.687,2,2,0,0,1-.395,1.172c-.18.228-.32.3-.331.291" transform="translate(-47.964 -31.136)" fill="#455a64"/>
        <path id="Trazado_738303" data-name="Trazado 738303" d="M178.568,132.657s-.007.03-.018.081-.024.136-.042.235q-.055.326-.157.931c-.138.819-.342,2.027-.627,3.577s-.638,3.449-1.164,5.625a19.716,19.716,0,0,1-1.059,3.406c-.076.134-.145.274-.227.408-.1.123-.188.257-.3.375a5.175,5.175,0,0,1-.708.673,6.378,6.378,0,0,1-1.772.984,8.835,8.835,0,0,1-4.321.362,6.384,6.384,0,0,1-2.2-.7,6.822,6.822,0,0,1-1.862-1.509,12.04,12.04,0,0,1-2.344-4.48,4.885,4.885,0,0,0-.487-1.265,2.222,2.222,0,0,0-1.013-.966,1.6,1.6,0,0,0-1.408.163,3.7,3.7,0,0,0-1.042.968c-.3.362-.52.8-.793,1.171a5.393,5.393,0,0,1-.921,1.04,9.822,9.822,0,0,1-2.416,1.516,18.061,18.061,0,0,1-5.717,1.485,17.033,17.033,0,0,1-3.044.031,6.473,6.473,0,0,1-.763-.084c-.253-.043-.512-.059-.76-.124l-.754-.173c-.241-.085-.486-.154-.723-.262a36.57,36.57,0,0,1-5.443-3.249q-2.036-1.408-3.969-2.877l.045.118,2.566-13.249-.129.093,31.229,4.108,9.063,1.176,2.429.309.631.077c.143.017.219.022.219.022s-.066-.013-.2-.034l-.615-.089-2.4-.335-9.029-1.236-31.292-4.227-.108-.015-.021.108-2.576,13.247-.014.074.059.045q1.936,1.472,3.979,2.885a36.688,36.688,0,0,0,5.488,3.272c.241.11.5.184.752.272l.77.176c.255.067.518.082.775.126a6.74,6.74,0,0,0,.777.085,17.315,17.315,0,0,0,3.086-.033,18.3,18.3,0,0,0,5.792-1.512,10.081,10.081,0,0,0,2.47-1.555,5.61,5.61,0,0,0,.957-1.086c.289-.393.486-.8.782-1.159a3.491,3.491,0,0,1,.977-.914,1.378,1.378,0,0,1,1.216-.151,2.017,2.017,0,0,1,.908.871,4.671,4.671,0,0,1,.469,1.217,12.223,12.223,0,0,0,2.4,4.553,7.028,7.028,0,0,0,1.92,1.547,6.587,6.587,0,0,0,2.265.712,9,9,0,0,0,4.408-.386,6.555,6.555,0,0,0,1.816-1.018,5.36,5.36,0,0,0,.726-.7c.113-.122.2-.26.306-.388.085-.14.159-.288.238-.43a19.741,19.741,0,0,0,1.053-3.442c.514-2.184.848-4.086,1.124-5.64s.46-2.765.582-3.587q.087-.608.134-.935c.012-.1.022-.18.03-.241s.006-.079.006-.079" transform="translate(-43.342 -41.512)" fill="#e0e0e0"/>
        <path id="Trazado_738304" data-name="Trazado 738304" d="M195.907,150.211c.066.011.617-2.809,1.23-6.3s1.057-6.329.991-6.341-.617,2.808-1.23,6.3-1.057,6.329-.991,6.341" transform="translate(-64.174 -45.066)" fill="#fafafa"/>
        <path id="Trazado_738305" data-name="Trazado 738305" d="M177.955,141.783c-.059.032.96,2.072,2.275,4.557s2.43,4.476,2.489,4.445-.96-2.072-2.275-4.558-2.43-4.475-2.489-4.444" transform="translate(-58.295 -46.446)" fill="#fafafa"/>
        <path id="Trazado_738306" data-name="Trazado 738306" d="M173.975,137.5a7.475,7.475,0,0,0,.516,1.307c.352.793.867,1.875,1.477,3.05s1.2,2.218,1.649,2.961a7.511,7.511,0,0,0,.775,1.173,8.765,8.765,0,0,0-.626-1.257l-1.584-2.988-1.538-3.011a8.719,8.719,0,0,0-.67-1.234" transform="translate(-56.99 -45.044)" fill="#fafafa"/>
        <path id="Trazado_738307" data-name="Trazado 738307" d="M142.241,132.925a1.832,1.832,0,0,0,.2.44c.143.275.357.669.626,1.154.537.969,1.294,2.3,2.144,3.76,1.364,2.347,2.55,4.319,2.982,4.966l.147.221-.078-.249a1.062,1.062,0,0,0-.118-.311,1.05,1.05,0,0,0,.045.33l.069-.028c-.348-.7-1.474-2.7-2.838-5.05-.849-1.461-1.63-2.778-2.206-3.724-.288-.473-.524-.855-.693-1.116a1.894,1.894,0,0,0-.282-.392" transform="translate(-46.595 -43.544)" fill="#fafafa"/>
        <path id="Trazado_738308" data-name="Trazado 738308" d="M141.1,135.761a44.914,44.914,0,0,0,2.238,4.086,44.927,44.927,0,0,0,2.448,3.965,44.873,44.873,0,0,0-2.238-4.086,44.9,44.9,0,0,0-2.448-3.964" transform="translate(-46.221 -44.473)" fill="#fafafa"/>
        <path id="Trazado_738309" data-name="Trazado 738309" d="M145.655,152.986a2.731,2.731,0,0,0,.525.272,5.338,5.338,0,0,0,.642.263,8.777,8.777,0,0,0,.875.285,9.823,9.823,0,0,0,1.087.253c.393.087.821.126,1.27.178a13.436,13.436,0,0,0,5.785-.772,12.733,12.733,0,0,0,1.179-.5,9.633,9.633,0,0,0,.982-.529,8.436,8.436,0,0,0,.77-.5,5.2,5.2,0,0,0,.551-.422,2.8,2.8,0,0,0,.436-.4c-.032-.041-.667.516-1.842,1.177a10.418,10.418,0,0,1-.982.5c-.355.176-.754.316-1.169.475a14.057,14.057,0,0,1-5.693.758c-.442-.044-.865-.075-1.253-.152a10.537,10.537,0,0,1-1.078-.221c-1.307-.331-2.066-.7-2.087-.654" transform="translate(-47.714 -49.499)" fill="#fafafa"/>
        <path id="Trazado_738310" data-name="Trazado 738310" d="M129.027,140.219a1.544,1.544,0,0,0,.059-.231l.15-.7c.134-.646.319-1.548.551-2.67l1.867-9.317.041-.206-.2.076-4.927,1.9-3.7,1.436-.066.026-.009.069c-.332,2.547-.635,4.886-.9,6.9l-.01.077.072.027,5.174,1.939,1.412.518.365.13a.534.534,0,0,0,.12.036.914.914,0,0,0-.134-.062l-.376-.156-1.418-.573-5.073-2.013.062.1c.274-2.008.592-4.346.938-6.89l-.075.095,3.706-1.43,4.923-1.91-.155-.13-1.738,9.254c-.207,1.14-.374,2.055-.494,2.712l-.128.735a2.35,2.35,0,0,0-.038.266" transform="translate(-39.927 -41.633)" fill="#e0e0e0"/>
        <path id="Trazado_738311" data-name="Trazado 738311" d="M179.778,132.071l.371-2.445-43.8-6.015-.455,2.764Z" transform="translate(-44.517 -40.493)" fill="#15d3ec"/>
        <path id="Trazado_738312" data-name="Trazado 738312" d="M132.167,123.611l-8.666,3.727-.373,2.409,8.585-3.373Z" transform="translate(-40.335 -40.493)" fill="#15d3ec"/>
        <path id="Trazado_738313" data-name="Trazado 738313" d="M158.42,176.887a1.76,1.76,0,0,1-.737-.022,5.147,5.147,0,0,1-1.858-.769,5.093,5.093,0,0,1-1.066-.912,3.393,3.393,0,0,1-.785-1.432,4.889,4.889,0,0,1,.859-3.548,5.94,5.94,0,0,1,1.672-1.7l.077-.052.081.037a19.438,19.438,0,0,1,4.224,2.663,14.255,14.255,0,0,1,1.086.966c.241.241.357.385.344.4-.032.033-.57-.466-1.562-1.194a22.335,22.335,0,0,0-4.22-2.521l.157-.015a5.738,5.738,0,0,0-1.566,1.612,4.673,4.673,0,0,0-.837,3.285,4.035,4.035,0,0,0,1.676,2.211,5.637,5.637,0,0,0,1.749.841c.446.116.707.123.707.155" transform="translate(-50.416 -55.181)" fill="#263238"/>
        <path id="Trazado_738314" data-name="Trazado 738314" d="M93.663,352.276H59.9l10.256-42.22s-5.272-31.477-7.686-46.871a214.786,214.786,0,0,0-5.161-24.74s11.137-18.4,22.824-25.164l2.122-5.56,12.809-8.9-.668,8.127-3.319,4.293c2.528,9.258,15.934,21.64,18.559,30.537,3.394,11.5,7.922,27.972,10.022,40.54,3.585,21.462,1.036,69.959,1.036,69.959Z" transform="translate(-18.773 -65.13)" fill="#ebebeb"/>
        <path id="Trazado_738315" data-name="Trazado 738315" d="M129.606,285.273a.971.971,0,0,1-.127-.178l-.345-.538-1.3-2.085c-1.126-1.814-2.765-4.432-4.833-7.646-4.131-6.43-10.032-15.211-17.01-24.627l-.084-.113.093-.107c.171-.2.356-.406.542-.619l3.638-4.153.062.274-16.1-6.964-.081-.034-.008-.087c-.575-6.011-1.223-10.989-1.586-14.476-.188-1.743-.321-3.113-.4-4.047-.036-.451-.063-.8-.083-1.066a2.157,2.157,0,0,1-.013-.367,2.376,2.376,0,0,1,.059.363c.031.26.073.613.127,1.062.114.953.276,2.313.482,4.036.412,3.481,1.1,8.451,1.71,14.468l-.089-.122,16.124,6.917.219.094-.157.18-3.637,4.156-.541.617.009-.219c6.983,9.426,12.856,18.237,16.935,24.7,2.043,3.233,3.651,5.873,4.741,7.708l1.244,2.119.315.556a.969.969,0,0,1,.1.2" transform="translate(-30.126 -71.557)" fill="#263238"/>
        <g id="Grupo_1034445" data-name="Grupo 1034445" transform="translate(55.881 227.068)" opacity="0.3">
          <g id="Grupo_1034444" data-name="Grupo 1034444">
            <g id="Grupo_1034443" data-name="Grupo 1034443" clip-path="url(#clip-path-9)">
              <path id="Trazado_738316" data-name="Trazado 738316" d="M153.24,362.727c-9.086,6.205-21.816,13.329-32.839,8.049-18.5-8.861-37.3-33.086-37.3-33.086s20.629,44.243,32.375,47.155l.35.085a23.987,23.987,0,0,0,21.763-5.613l26.691-24.306s-4.883,3.507-11.044,7.715" transform="translate(-83.104 -337.69)"/>
            </g>
          </g>
        </g>
        <path id="Trazado_738317" data-name="Trazado 738317" d="M355.556,233.535s3.1,2.066,3.7,3.53a7.771,7.771,0,0,1,0,3.874s-6.668,8.524-8.156,8.954a2.947,2.947,0,0,1-2.7-.871Z" transform="translate(-114.131 -76.503)" fill="#a37166"/>
        <path id="Trazado_738318" data-name="Trazado 738318" d="M231.44,276.4s15.1-17.217,15.9-18.229,3-1.855,5.273-2.361,7.842-1.18,10.034-3.457,2.783-5.9,4.132-5.734,2.951,1.94,2.446,4.554-3.036,5.9-3.036,5.9l7.252,14.588s-3.71,4.469-5.481,6.24S248,285.852,248,285.852l-5.814,7.456Z" transform="translate(-75.816 -80.786)" fill="#a37166"/>
        <path id="Trazado_738319" data-name="Trazado 738319" d="M313.356,202.378c-.793-.986-1.4-2.119-2.255-3.051a4.055,4.055,0,0,0-3.326-1.509,3.35,3.35,0,0,0-2.673,2.722,5.5,5.5,0,0,0,.883,3.883,16.307,16.307,0,0,0,2.692,3.047l7.811-3.141a4.686,4.686,0,0,1-3.131-1.95" transform="translate(-99.921 -64.795)" fill="#a37166"/>
        <path id="Trazado_738320" data-name="Trazado 738320" d="M352.419,216.112c2.222-.719,4.587.388,6.141,2.132a7.118,7.118,0,0,1,.927,7.068,2.238,2.238,0,0,1-1.534,1.431,1.932,1.932,0,0,1-1.9-1.4,10.236,10.236,0,0,1-.941-2.507c-.168-2.557-2.485-5.05-2.692-6.724" transform="translate(-115.447 -70.722)" fill="#a37166"/>
        <path id="Trazado_738321" data-name="Trazado 738321" d="M66.618,298.945s-18.891-31.319-10.384-44.9,18.448-6.334,26.076,1.488,31.177,49.287,31.177,49.287Z" transform="translate(-17.7 -80.735)" fill="#ebebeb"/>
        <path id="Trazado_738322" data-name="Trazado 738322" d="M72.749,312.986l32.562,41.425c8.072,8.987,17.946,10.4,26.589,5.008,1.258-.784,2.452-1.565,3.518-2.314,6.926-4.874,59.8-41.92,59.8-41.92l-16.443-25.868s-16.1,10.174-27.445,17.35c-3.84,2.429-6.744,5.075-8.82,6.112-8.208,4.1-19.486,11.466-19.486,11.466s-15.39-24.625-18.469-26.933Z" transform="translate(-23.831 -94.776)" fill="#ebebeb"/>
        <path id="Trazado_738323" data-name="Trazado 738323" d="M91.357,268.712s.227.273.654.818l1.884,2.417c1.649,2.126,4.081,5.254,7.142,9.31s6.756,9.04,10.72,15.018c1.994,2.98,4.032,6.225,6.054,9.737a117.985,117.985,0,0,1,5.826,11.406l-.2-.061,55.2-34.936.145-.091.091.144,16.446,25.866.09.142-.137.1-1.955,1.366L143.225,344.92l-11.25,7.85a18.377,18.377,0,0,1-12.4,3.039,18.765,18.765,0,0,1-5.923-1.728,25.113,25.113,0,0,1-4.994-3.228,53.656,53.656,0,0,1-7.674-8.089l-20.8-26.427-5.638-7.2-1.459-1.877c-.327-.424-.488-.647-.488-.647s.18.208.516.625L74.6,309.1l5.689,7.157,20.884,26.357a53.453,53.453,0,0,0,7.652,8.034,24.811,24.811,0,0,0,4.944,3.184,18.469,18.469,0,0,0,5.837,1.693,18.079,18.079,0,0,0,12.2-3.006l11.241-7.862,50.07-35,1.955-1.365-.048.237-16.44-25.871.236.053-55.233,34.877-.134.085-.063-.145a118.469,118.469,0,0,0-5.79-11.393c-2.011-3.511-4.038-6.756-6.021-9.739-3.943-5.984-7.634-10.968-10.661-15.047s-5.453-7.212-7.082-9.353l-1.853-2.442c-.416-.553-.622-.843-.622-.843" transform="translate(-23.782 -88.026)" fill="#263238"/>
        <path id="Trazado_738324" data-name="Trazado 738324" d="M83.8,258.962c-.05.053-.943-.871-2.616-2.064a23.515,23.515,0,0,0-3.088-1.85,23.568,23.568,0,0,0-8.438-2.386,23.623,23.623,0,0,0-3.6-.042c-2.05.141-3.294.46-3.31.389a4.388,4.388,0,0,1,.865-.247,8.637,8.637,0,0,1,1.036-.206c.407-.061.869-.153,1.389-.182a21.451,21.451,0,0,1,3.647-.032,22.408,22.408,0,0,1,8.556,2.42,21.393,21.393,0,0,1,3.09,1.938c.426.3.772.617,1.087.882a8.892,8.892,0,0,1,.775.719,4.4,4.4,0,0,1,.608.664" transform="translate(-20.553 -82.643)" fill="#263238"/>
        <path id="Trazado_738325" data-name="Trazado 738325" d="M146.917,340.447c.048.042-.57.744-1.389,2a20.605,20.605,0,0,0-3.349,11.035c-.016,1.5.108,2.426.044,2.433a2.377,2.377,0,0,1-.139-.643,13.418,13.418,0,0,1-.153-1.788,18.669,18.669,0,0,1,3.392-11.176,13.326,13.326,0,0,1,1.121-1.4c.288-.311.455-.474.473-.458" transform="translate(-46.492 -111.525)" fill="#263238"/>
        <path id="Trazado_738326" data-name="Trazado 738326" d="M310.344,204.972a19.8,19.8,0,0,0-19.163,24.74l-19.24,13.564,5.383,6.652,17-13.56a19.787,19.787,0,1,0,16.022-31.4" transform="translate(-89.083 -67.146)" fill="#fafafa"/>
        <path id="Trazado_738327" data-name="Trazado 738327" d="M310.226,204.971s.139,0,.412,0l1.212.044a20.044,20.044,0,0,1,4.578.888,19.54,19.54,0,0,1,6.48,3.542,20.316,20.316,0,0,1,5.778,7.881,20.711,20.711,0,0,1,1.365,5.573,21.1,21.1,0,0,1-.389,6.216,19.976,19.976,0,0,1-13.939,14.809,20.173,20.173,0,0,1-7.769.657,19.8,19.8,0,0,1-7.685-2.531,20.254,20.254,0,0,1-6.206-5.583l.25.034-3.553,2.835-13.448,10.722-.133.106-.107-.132-5.379-6.655-.112-.139.146-.1,19.255-13.544-.057.153a19.965,19.965,0,0,1-.6-3.987q-.023-.492-.024-.98.025-.486.049-.967t.05-.954c.021-.315.088-.624.13-.933a20.064,20.064,0,0,1,2.212-6.684,20.714,20.714,0,0,1,3.783-4.874l1.041-.94,1.076-.8c.176-.128.345-.264.522-.381l.541-.326,1.041-.627c.717-.329,1.374-.688,2.029-.935.664-.225,1.267-.492,1.861-.637l1.641-.406,1.39-.2a6.792,6.792,0,0,1,1.1-.1l.8-.03c.431-.015.653-.011.653-.011s-.221.026-.652.054l-.8.051a7.035,7.035,0,0,0-1.1.12l-1.38.221-1.626.423c-.588.151-1.185.422-1.842.65-.649.251-1.3.614-2.006.945l-1.027.63-.534.327c-.176.117-.342.253-.516.381l-1.06.8-1.025.937a20.575,20.575,0,0,0-3.718,4.842,19.892,19.892,0,0,0-2.156,6.61c-.04.305-.106.61-.125.921s-.031.626-.046.942-.03.634-.046.954q0,.48.026.966a19.689,19.689,0,0,0,.6,3.93l.024.1-.081.057-19.226,13.583.034-.241,5.386,6.65-.24-.026,13.444-10.728,3.554-2.834.143-.114.108.148a19.926,19.926,0,0,0,6.1,5.489,19.48,19.48,0,0,0,7.551,2.494,19.86,19.86,0,0,0,7.641-.637,19.689,19.689,0,0,0,13.752-14.553,20.845,20.845,0,0,0,.4-6.13,20.468,20.468,0,0,0-1.326-5.506,20.177,20.177,0,0,0-5.676-7.825,19.538,19.538,0,0,0-6.4-3.562,20.8,20.8,0,0,0-4.543-.946l-1.208-.077c-.272-.02-.412-.038-.412-.038" transform="translate(-88.966 -67.145)" fill="#263238"/>
        <path id="Trazado_738328" data-name="Trazado 738328" d="M278.318,264.652a4.284,4.284,0,1,1-4.285-4.285,4.285,4.285,0,0,1,4.285,4.285" transform="translate(-88.366 -85.292)" fill="#e0e0e0"/>
        <path id="Trazado_738329" data-name="Trazado 738329" d="M278.232,264.579c-.038,0-.024-.382-.2-1.029a4.267,4.267,0,0,0-1.567-2.277,4.168,4.168,0,0,0-3.922-.566,4.081,4.081,0,0,0-1.908,1.442,4.1,4.1,0,0,0,0,4.862,4.087,4.087,0,0,0,1.908,1.442,4.168,4.168,0,0,0,3.922-.565,4.27,4.27,0,0,0,1.567-2.277c.177-.648.163-1.031.2-1.029a.808.808,0,0,1,.021.275,3.35,3.35,0,0,1-.089.787,4.263,4.263,0,0,1-1.549,2.442,4.409,4.409,0,0,1-6.256-.87,4.417,4.417,0,0,1,0-5.268,4.408,4.408,0,0,1,6.255-.87,4.265,4.265,0,0,1,1.549,2.442,3.346,3.346,0,0,1,.089.787.808.808,0,0,1-.021.275" transform="translate(-88.28 -85.22)" fill="#263238"/>
        <path id="Trazado_738330" data-name="Trazado 738330" d="M282.167,265.661l-.241.181a.568.568,0,0,0,.241-.181" transform="translate(-92.355 -87.027)" fill="#ff725e"/>
        <path id="Trazado_738331" data-name="Trazado 738331" d="M324.109,240.311c-1.545-.343-2.947-1.148-4.455-1.629a14.824,14.824,0,0,0-9.752.672,44.144,44.144,0,0,0-8.623,4.952s-2.734-2.62-4.18-1.959S280.886,254.2,280.886,254.2s1.479,1.762.941,2.439l15.049-11.293s1.048-1.077,3.894,1.585a15.642,15.642,0,0,0,27.683-7.779,4.293,4.293,0,0,1-4.344,1.154" transform="translate(-92.014 -78.009)" fill="#ff9d00"/>
        <path id="Trazado_738332" data-name="Trazado 738332" d="M344.33,237.38c-.069-.032.52-1.127,1.073-3.033a14.818,14.818,0,0,0,.379-1.574c.133-.568.2-1.187.284-1.835a20.329,20.329,0,0,0-.886-8.4c-.22-.616-.412-1.208-.66-1.736a15.136,15.136,0,0,0-.7-1.461c-.938-1.748-1.742-2.7-1.682-2.741a4.072,4.072,0,0,1,.575.652,7.483,7.483,0,0,1,.605.822,12.471,12.471,0,0,1,.719,1.148,14.064,14.064,0,0,1,.746,1.463,18.678,18.678,0,0,1,.7,1.752,19.5,19.5,0,0,1,.9,8.54,18.556,18.556,0,0,1-.32,1.86,14.041,14.041,0,0,1-.426,1.586,12.659,12.659,0,0,1-.463,1.272,7.607,7.607,0,0,1-.421.93,4.1,4.1,0,0,1-.426.758" transform="translate(-112.079 -70.954)" fill="#263238"/>
        <path id="Trazado_738333" data-name="Trazado 738333" d="M329.663,213c-.023.1-1.021-.075-2.254-.024s-2.216.292-2.246.193a5.752,5.752,0,0,1,4.5-.169" transform="translate(-106.518 -69.651)" fill="#263238"/>
        <path id="Trazado_738334" data-name="Trazado 738334" d="M259.257,263.707c1.1-.168,1.76-.455,8.916.622,6.707,1.01,9.7-4.925,10.17-5.207s5.239-10.759,6.362-11.789,1.684-1.965,2.9.748a7.476,7.476,0,0,1,.561,4.866s-3.368,10.1-4.117,11.508-10.25,4.491-10.25,4.491" transform="translate(-84.929 -80.685)" fill="#a37166"/>
        <path id="Trazado_738335" data-name="Trazado 738335" d="M296.14,249.2a8.681,8.681,0,0,1,2.091-4.273c.95-1.216,2.995-1.7,4.022-.546a3.7,3.7,0,0,1,.469,3.131,39.579,39.579,0,0,1-2.155,7.062c-2.339,6.153-5.087,12.459-10.126,16.7l-4.687-.834-1.59-7.578,7.391-4.211Z" transform="translate(-93.088 -79.842)" fill="#a37166"/>
        <path id="Trazado_738336" data-name="Trazado 738336" d="M275.814,264.031s-3.963,2.587-3.879,6.634-1.122,74.322-1.122,74.322l5.67-.4s-.9-73.929-.949-74.569,1.376-1.844,1.883-2.958,1.012-4.517-1.6-3.026" transform="translate(-88.714 -86.371)" fill="#ff9d00"/>
        <path id="Trazado_738337" data-name="Trazado 738337" d="M297.022,252.01a5.193,5.193,0,0,1-.175.961c-.139.613-.37,1.493-.7,2.569a44.084,44.084,0,0,1-3.451,8.072,38.119,38.119,0,0,1-5.031,7.2,5.225,5.225,0,0,1-2.25,1.445,2.953,2.953,0,0,1-.725.106.706.706,0,0,1-.254-.023c0-.037.354-.017.939-.212a5.416,5.416,0,0,0,2.113-1.488,42.866,42.866,0,0,0,4.9-7.2,50.546,50.546,0,0,0,3.522-7.98c.356-1.06.622-1.926.8-2.526a5.23,5.23,0,0,1,.307-.927" transform="translate(-93.178 -82.555)" fill="#7c554e"/>
        <path id="Trazado_738338" data-name="Trazado 738338" d="M67.474,328.951a2.858,2.858,0,0,1,.1.451c.061.325.143.761.246,1.314l.867,4.925c.719,4.238,1.724,10.159,2.888,17.017l.005.034-.008.034c-.712,2.94-1.483,6.123-2.281,9.421-2.218,9.043-4.224,17.227-5.685,23.183-.739,2.941-1.339,5.331-1.762,7.016q-.315,1.208-.5,1.9c-.056.2-.1.362-.138.493a.6.6,0,0,1-.058.165.7.7,0,0,1,.024-.173c.028-.132.061-.3.1-.5l.432-1.918c.4-1.691.96-4.09,1.653-7.042l5.585-23.207c.8-3.3,1.579-6.478,2.295-9.417l0,.067c-1.114-6.867-2.076-12.794-2.765-17.037-.325-2.089-.586-3.761-.771-4.942-.081-.556-.145-1-.192-1.323a2.845,2.845,0,0,1-.047-.46" transform="translate(-20.033 -107.759)" fill="#263238"/>
        <g id="Grupo_1034448" data-name="Grupo 1034448" transform="translate(64.072 166.825)" opacity="0.3">
          <g id="Grupo_1034447" data-name="Grupo 1034447">
            <g id="Grupo_1034446" data-name="Grupo 1034446" clip-path="url(#clip-path-10)">
              <path id="Trazado_738339" data-name="Trazado 738339" d="M132.22,299.226l-27.1-40.1,4.105-3.617L95.287,248.1l16.114,6.941-3.581,4.089,23.795,36.6Z" transform="translate(-95.287 -248.098)"/>
            </g>
          </g>
        </g>
        <path id="Trazado_738340" data-name="Trazado 738340" d="M271.687,381.023a5.327,5.327,0,0,0-2.694-6.08,3.4,3.4,0,0,1-1.439-.917,3.282,3.282,0,0,1-.186-2.135,5.935,5.935,0,0,0-7.521-6.17,6.225,6.225,0,0,0-7.89-5.387l-.484,21.045Z" transform="translate(-82.378 -117.965)" fill="#fff"/>
        <path id="Trazado_738341" data-name="Trazado 738341" d="M271.663,381.565a10.173,10.173,0,0,0,.249-1.331,5.343,5.343,0,0,0-.91-3.462,5.185,5.185,0,0,0-1.881-1.62,2.9,2.9,0,0,1-1.6-2.5,6.468,6.468,0,0,1,.093-.8,6.169,6.169,0,0,0,.042-.784,6.01,6.01,0,0,0-.225-1.6,5.391,5.391,0,0,0-1.821-2.794,5.976,5.976,0,0,0-6.04-.818l-.223.1-.007-.245a6.05,6.05,0,0,0-1.551-3.859,5.913,5.913,0,0,0-2.81-1.722,6.357,6.357,0,0,0-2.173-.211c-.51.04-.782.106-.787.082s.063-.032.193-.069a4.232,4.232,0,0,1,.584-.117,5.948,5.948,0,0,1,2.234.125,6.015,6.015,0,0,1,2.961,1.728,6.283,6.283,0,0,1,1.675,4.034l-.229-.143a6.268,6.268,0,0,1,6.394.839,5.706,5.706,0,0,1,1.933,2.975,6.3,6.3,0,0,1,.229,1.689,6.45,6.45,0,0,1-.05.826,6.154,6.154,0,0,0-.1.763,2.61,2.61,0,0,0,1.411,2.244,5.238,5.238,0,0,1,2.79,5.352,4.8,4.8,0,0,1-.235.994,1.24,1.24,0,0,1-.149.323" transform="translate(-82.558 -117.853)" fill="#263238"/>
        <g id="Grupo_1034451" data-name="Grupo 1034451" transform="translate(147.988 160.971)" opacity="0.3">
          <g id="Grupo_1034450" data-name="Grupo 1034450">
            <g id="Grupo_1034449" data-name="Grupo 1034449" clip-path="url(#clip-path-11)">
              <path id="Trazado_738342" data-name="Trazado 738342" d="M220.085,239.393l1.138,33.071a40.875,40.875,0,0,0-1.138-33.071" transform="translate(-220.084 -239.393)"/>
            </g>
          </g>
        </g>
      </g>
    </g>
    <g id="Grupo_1034455" data-name="Grupo 1034455">
      <g id="Grupo_1034454" data-name="Grupo 1034454" clip-path="url(#clip-path)">
        <path id="Trazado_738343" data-name="Trazado 738343" d="M301.861,426.951c0,.1-66.7.175-148.959.175-82.288,0-148.974-.078-148.974-.175s66.686-.175,148.974-.175c82.259,0,148.959.078,148.959.175" transform="translate(-1.286 -139.805)" fill="#263238"/>
      </g>
    </g>
  </g>
</svg>
