<svg id="Grupo_1034186" data-name="Grupo 1034186" xmlns="http://www.w3.org/2000/svg" xmlns:xlink="http://www.w3.org/1999/xlink" width="278.294" height="287.261" viewBox="0 0 278.294 287.261">
  <defs>
    <clipPath id="clip-path">
      <rect id="Rectángulo_350773" data-name="Rectángulo 350773" width="278.294" height="287.261" fill="none"/>
    </clipPath>
    <clipPath id="clip-path-6">
      <rect id="Rectángulo_350756" data-name="Rectángulo 350756" width="5.41" height="63.981" fill="none"/>
    </clipPath>
    <clipPath id="clip-path-7">
      <rect id="Rectángulo_350760" data-name="Rectángulo 350760" width="4.383" height="51.831" fill="none"/>
    </clipPath>
    <clipPath id="clip-path-9">
      <rect id="Rectángulo_350765" data-name="Rectángulo 350765" width="28.313" height="9.562" fill="none"/>
    </clipPath>
    <clipPath id="clip-path-10">
      <rect id="Rectángulo_350766" data-name="Rectángulo 350766" width="29.123" height="2.648" fill="none"/>
    </clipPath>
    <clipPath id="clip-path-11">
      <rect id="Rectángulo_350767" data-name="Rectángulo 350767" width="18.8" height="6.747" fill="none"/>
    </clipPath>
    <clipPath id="clip-path-12">
      <rect id="Rectángulo_350768" data-name="Rectángulo 350768" width="28.407" height="10.909" fill="none"/>
    </clipPath>
    <clipPath id="clip-path-13">
      <rect id="Rectángulo_350770" data-name="Rectángulo 350770" width="20.031" height="23.958" fill="none"/>
    </clipPath>
    <clipPath id="clip-path-14">
      <rect id="Rectángulo_350771" data-name="Rectángulo 350771" width="12.053" height="11.585" fill="none"/>
    </clipPath>
  </defs>
  <g id="Grupo_1034220" data-name="Grupo 1034220" clip-path="url(#clip-path)">
    <g id="Grupo_1034187" data-name="Grupo 1034187">
      <g id="Grupo_1034186-2" data-name="Grupo 1034186" clip-path="url(#clip-path)">
        <path id="Trazado_736773" data-name="Trazado 736773" d="M23.393,70.1,1.254,52.768a3.27,3.27,0,0,1-.559-4.591L37.43,1.254A3.269,3.269,0,0,1,42.02.695L64.16,18.027a3.27,3.27,0,0,1,.559,4.591L27.983,69.541a3.269,3.269,0,0,1-4.59.559" transform="translate(0 0)" fill="#f5f5f5"/>
        <path id="Trazado_736774" data-name="Trazado 736774" d="M29.023,94.317C28.989,94.361,25.4,91.6,21,88.161s-7.938-6.272-7.9-6.315S16.721,84.558,21.121,88s7.937,6.271,7.9,6.315" transform="translate(-4.881 -30.511)" fill="#e0e0e0"/>
        <path id="Trazado_736775" data-name="Trazado 736775" d="M82.111,23.578c-.035.044-3.628-2.713-8.027-6.156s-7.937-6.272-7.9-6.315,3.628,2.712,8.028,6.157,7.937,6.271,7.9,6.315" transform="translate(-24.671 -4.14)" fill="#e0e0e0"/>
        <path id="Trazado_736776" data-name="Trazado 736776" d="M25.077,65.107c-.044-.035,7.56-9.82,16.982-21.855S59.157,21.486,59.2,21.52s-7.559,9.818-16.983,21.857-17.1,21.766-17.14,21.731" transform="translate(-9.348 -8.022)" fill="#e0e0e0"/>
        <path id="Trazado_736777" data-name="Trazado 736777" d="M58.587,24.709l2-2.684,2.531,1.886a1.673,1.673,0,0,1-2,2.683Z" transform="translate(-21.84 -8.211)" fill="#ebebeb"/>
        <path id="Trazado_736778" data-name="Trazado 736778" d="M59.4,21.243l-2,2.684L54.87,22.041a1.673,1.673,0,1,1,2-2.683Z" transform="translate(-20.204 -7.093)" fill="#e0e0e0"/>
        <path id="Trazado_736779" data-name="Trazado 736779" d="M79.243,40.485l2-2.684,2.531,1.887a1.673,1.673,0,1,1-2,2.683Z" transform="translate(-29.541 -14.092)" fill="#ebebeb"/>
        <path id="Trazado_736780" data-name="Trazado 736780" d="M80.056,37.019l-2,2.684-2.53-1.886a1.673,1.673,0,1,1,2-2.683Z" transform="translate(-27.904 -12.974)" fill="#e0e0e0"/>
        <path id="Trazado_736781" data-name="Trazado 736781" d="M49.632,36.5l2-2.684,2.531,1.886a1.673,1.673,0,1,1-2,2.683Z" transform="translate(-18.502 -12.608)" fill="#ebebeb"/>
        <path id="Trazado_736782" data-name="Trazado 736782" d="M50.444,33.039l-2,2.684-2.531-1.886a1.673,1.673,0,0,1,2-2.683Z" transform="translate(-16.865 -11.49)" fill="#e0e0e0"/>
        <path id="Trazado_736783" data-name="Trazado 736783" d="M70.761,52.634l2-2.684,2.531,1.886a1.673,1.673,0,0,1-2,2.683Z" transform="translate(-26.379 -18.621)" fill="#ebebeb"/>
        <path id="Trazado_736784" data-name="Trazado 736784" d="M71.573,49.167l-2,2.684-2.531-1.886a1.673,1.673,0,1,1,2-2.683Z" transform="translate(-24.742 -17.502)" fill="#e0e0e0"/>
        <path id="Trazado_736785" data-name="Trazado 736785" d="M40.676,48.3l2-2.684L45.206,47.5a1.673,1.673,0,1,1-2,2.683Z" transform="translate(-15.163 -17.005)" fill="#ebebeb"/>
        <path id="Trazado_736786" data-name="Trazado 736786" d="M41.489,44.835l-2,2.684-2.531-1.886a1.673,1.673,0,1,1,2-2.683Z" transform="translate(-13.527 -15.888)" fill="#e0e0e0"/>
        <path id="Trazado_736787" data-name="Trazado 736787" d="M62.279,64.783l2-2.683,2.531,1.885a1.673,1.673,0,0,1-2,2.683Z" transform="translate(-23.217 -23.15)" fill="#ebebeb"/>
        <path id="Trazado_736788" data-name="Trazado 736788" d="M63.091,61.316l-2,2.684-2.531-1.886a1.673,1.673,0,0,1,2-2.683Z" transform="translate(-21.58 -22.031)" fill="#e0e0e0"/>
        <path id="Trazado_736789" data-name="Trazado 736789" d="M30.519,60.418l2-2.684,2.531,1.886a1.673,1.673,0,1,1-2,2.683Z" transform="translate(-11.377 -21.522)" fill="#ebebeb"/>
        <path id="Trazado_736790" data-name="Trazado 736790" d="M31.332,56.951l-2,2.684L26.8,57.749a1.673,1.673,0,1,1,2-2.683Z" transform="translate(-9.74 -20.404)" fill="#e0e0e0"/>
        <path id="Trazado_736791" data-name="Trazado 736791" d="M52.3,76.649l2-2.684,2.531,1.886a1.673,1.673,0,0,1-2,2.683Z" transform="translate(-19.498 -27.573)" fill="#ebebeb"/>
        <path id="Trazado_736792" data-name="Trazado 736792" d="M53.117,73.182l-2,2.684L48.587,73.98a1.673,1.673,0,1,1,2-2.683Z" transform="translate(-17.861 -26.455)" fill="#e0e0e0"/>
        <path id="Trazado_736793" data-name="Trazado 736793" d="M21.547,74.066l2-2.684,2.531,1.886a1.673,1.673,0,1,1-2,2.683Z" transform="translate(-8.032 -26.61)" fill="#ebebeb"/>
        <path id="Trazado_736794" data-name="Trazado 736794" d="M22.36,70.6l-2,2.684L17.83,71.4a1.673,1.673,0,1,1,2-2.683Z" transform="translate(-6.396 -25.492)" fill="#e0e0e0"/>
        <path id="Trazado_736795" data-name="Trazado 736795" d="M42.274,89.508l2-2.683L46.8,88.71a1.673,1.673,0,1,1-2,2.683Z" transform="translate(-15.759 -32.367)" fill="#ebebeb"/>
        <path id="Trazado_736796" data-name="Trazado 736796" d="M43.087,86.042l-2,2.684L38.557,86.84a1.673,1.673,0,0,1,2-2.683Z" transform="translate(-14.122 -31.249)" fill="#e0e0e0"/>
        <path id="Trazado_736797" data-name="Trazado 736797" d="M396.942,226.818l-40.29,13.725a3.269,3.269,0,0,1-4.15-2.04L324.395,156a3.271,3.271,0,0,1,2.041-4.15l40.29-13.725a3.271,3.271,0,0,1,4.15,2.041l28.107,82.506a3.27,3.27,0,0,1-2.041,4.15" transform="translate(-120.864 -51.424)" fill="#ebebeb"/>
        <path id="Trazado_736798" data-name="Trazado 736798" d="M352.966,176.869a3.588,3.588,0,1,1-4.554-2.24,3.588,3.588,0,0,1,4.554,2.24" transform="translate(-128.976 -65.027)" fill="#fafafa"/>
        <path id="Trazado_736799" data-name="Trazado 736799" d="M384.475,166.135a3.588,3.588,0,1,1-4.554-2.24,3.588,3.588,0,0,1,4.554,2.24" transform="translate(-140.722 -61.026)" fill="#fafafa"/>
        <path id="Trazado_736800" data-name="Trazado 736800" d="M362.946,206.163a3.588,3.588,0,1,1-4.554-2.24,3.589,3.589,0,0,1,4.554,2.24" transform="translate(-132.696 -75.948)" fill="#fafafa"/>
        <path id="Trazado_736801" data-name="Trazado 736801" d="M394.455,195.428a3.588,3.588,0,1,1-4.554-2.24,3.588,3.588,0,0,1,4.554,2.24" transform="translate(-144.443 -71.946)" fill="#fafafa"/>
        <path id="Trazado_736802" data-name="Trazado 736802" d="M372.925,235.456a3.588,3.588,0,1,1-4.554-2.24,3.588,3.588,0,0,1,4.554,2.24" transform="translate(-136.416 -86.868)" fill="#fafafa"/>
        <path id="Trazado_736803" data-name="Trazado 736803" d="M404.434,224.722a3.588,3.588,0,1,1-4.554-2.24,3.589,3.589,0,0,1,4.554,2.24" transform="translate(-148.163 -82.866)" fill="#fafafa"/>
        <path id="Trazado_736804" data-name="Trazado 736804" d="M382.9,264.75a3.588,3.588,0,1,1-4.554-2.24,3.589,3.589,0,0,1,4.554,2.24" transform="translate(-140.136 -97.788)" fill="#fafafa"/>
        <path id="Trazado_736805" data-name="Trazado 736805" d="M414.414,254.016a3.588,3.588,0,1,1-4.554-2.24,3.589,3.589,0,0,1,4.554,2.24" transform="translate(-151.883 -93.787)" fill="#fafafa"/>
        <path id="Trazado_736806" data-name="Trazado 736806" d="M352.229,175.243a40.092,40.092,0,0,1-3.056,6.024,40.1,40.1,0,0,1,3.056-6.024" transform="translate(-130.164 -65.328)" fill="#e0e0e0"/>
        <path id="Trazado_736807" data-name="Trazado 736807" d="M383.085,164.479a40.1,40.1,0,0,1-3.056,6.024,40.086,40.086,0,0,1,3.056-6.024" transform="translate(-141.667 -61.315)" fill="#e0e0e0"/>
        <path id="Trazado_736808" data-name="Trazado 736808" d="M362.685,204.538a42.136,42.136,0,0,1-2.743,6.349,41.965,41.965,0,0,1,2.743-6.349" transform="translate(-134.178 -76.248)" fill="#e0e0e0"/>
        <path id="Trazado_736809" data-name="Trazado 736809" d="M394.013,193.736a38.807,38.807,0,0,1-2.407,6.192,38.733,38.733,0,0,1,2.407-6.192" transform="translate(-145.982 -72.222)" fill="#e0e0e0"/>
        <path id="Trazado_736810" data-name="Trazado 736810" d="M371.85,233.708a35.3,35.3,0,0,1-2.531,5.8,35.253,35.253,0,0,1,2.531-5.8" transform="translate(-137.674 -87.122)" fill="#e0e0e0"/>
        <path id="Trazado_736811" data-name="Trazado 736811" d="M403.847,223.469a36.4,36.4,0,0,1-3,5.682,36.323,36.323,0,0,1,3-5.682" transform="translate(-149.427 -83.305)" fill="#e0e0e0"/>
        <path id="Trazado_736812" data-name="Trazado 736812" d="M382.276,263.414a39.679,39.679,0,0,1-3.223,5.9,39.683,39.683,0,0,1,3.223-5.9" transform="translate(-141.303 -98.196)" fill="#e0e0e0"/>
        <path id="Trazado_736813" data-name="Trazado 736813" d="M413.986,251.737a47.011,47.011,0,0,1-2.767,6.772,46.935,46.935,0,0,1,2.767-6.772" transform="translate(-153.294 -93.843)" fill="#e0e0e0"/>
        <path id="Trazado_736814" data-name="Trazado 736814" d="M411,271.151c.025.075-6.029,2.2-13.521,4.757s-13.588,4.562-13.614,4.487,6.028-2.2,13.522-4.757,13.587-4.562,13.612-4.487" transform="translate(-143.099 -101.08)" fill="#e0e0e0"/>
        <path id="Trazado_736815" data-name="Trazado 736815" d="M368.177,153.38c.025.075-6.029,2.2-13.521,4.757s-13.588,4.562-13.614,4.487,6.028-2.2,13.522-4.757,13.587-4.561,13.612-4.486" transform="translate(-127.135 -57.177)" fill="#e0e0e0"/>
        <path id="Trazado_736816" data-name="Trazado 736816" d="M363.191,166.542a.2.2,0,0,1-.1.008.112.112,0,0,1-.038-.018l-.013-.014-.005-.008,0,0v0h0l.27-.092h0c.016.048-.031.107-.105.132s-.148.008-.164-.04h0l.27-.092h0v.016l0,.019a.1.1,0,0,1-.02.037.188.188,0,0,1-.087.058" transform="translate(-135.331 -62.035)" fill="#e0e0e0"/>
        <path id="Trazado_736817" data-name="Trazado 736817" d="M388.989,234.643c-.075.026-5.8-16.575-12.78-37.073S363.623,160.426,363.7,160.4s5.8,16.572,12.781,37.077,12.585,37.141,12.51,37.166" transform="translate(-135.581 -59.795)" fill="#e0e0e0"/>
        <path id="Trazado_736818" data-name="Trazado 736818" d="M234.943,408.166l-1.629,24.445a3.939,3.939,0,0,1-4.192,3.668l-63.141-4.207,2.153-32.305,63.141,4.207a3.939,3.939,0,0,1,3.668,4.192" transform="translate(-61.875 -149.027)" fill="#f5f5f5"/>
        <rect id="Rectángulo_350746" data-name="Rectángulo 350746" width="20.35" height="29.092" transform="matrix(0.066, -0.998, 0.998, 0.066, 122.503, 284.27)" fill="#e0e0e0"/>
        <path id="Trazado_736819" data-name="Trazado 736819" d="M169.82,396.783l-2.412,36.205a1.315,1.315,0,0,1-1.4,1.224l-8.591-.573a1.314,1.314,0,0,1-1.224-1.4l2.412-36.205a1.315,1.315,0,0,1,1.4-1.224l8.592.573a1.314,1.314,0,0,1,1.224,1.4" transform="translate(-58.226 -147.179)" fill="#ebebeb"/>
        <path id="Trazado_736820" data-name="Trazado 736820" d="M167.6,452.368a46.075,46.075,0,0,1-5.618-.2,46.1,46.1,0,0,1-5.6-.545,46.051,46.051,0,0,1,5.619.2,46.072,46.072,0,0,1,5.6.545" transform="translate(-58.298 -168.343)" fill="#e0e0e0"/>
        <path id="Trazado_736821" data-name="Trazado 736821" d="M167.932,447.373a46.052,46.052,0,0,1-5.618-.2,46.1,46.1,0,0,1-5.6-.545,46.065,46.065,0,0,1,5.619.2,46.085,46.085,0,0,1,5.6.545" transform="translate(-58.422 -166.481)" fill="#e0e0e0"/>
        <path id="Trazado_736822" data-name="Trazado 736822" d="M168.265,442.378a46.06,46.06,0,0,1-5.618-.2,46.1,46.1,0,0,1-5.6-.545,46.056,46.056,0,0,1,5.619.2,46.071,46.071,0,0,1,5.6.545" transform="translate(-58.546 -164.619)" fill="#e0e0e0"/>
        <path id="Trazado_736823" data-name="Trazado 736823" d="M168.6,437.383a46.045,46.045,0,0,1-5.618-.2,46.1,46.1,0,0,1-5.6-.545,46.061,46.061,0,0,1,5.619.2,46.1,46.1,0,0,1,5.6.545" transform="translate(-58.67 -162.757)" fill="#e0e0e0"/>
        <path id="Trazado_736824" data-name="Trazado 736824" d="M168.931,432.388a46.048,46.048,0,0,1-5.618-.2,46.1,46.1,0,0,1-5.6-.545,46.063,46.063,0,0,1,5.619.2,46.137,46.137,0,0,1,5.6.545" transform="translate(-58.794 -160.895)" fill="#e0e0e0"/>
        <path id="Trazado_736825" data-name="Trazado 736825" d="M169.263,427.393a46.048,46.048,0,0,1-5.618-.2,46.1,46.1,0,0,1-5.6-.545,46.065,46.065,0,0,1,5.619.2,46.1,46.1,0,0,1,5.6.545" transform="translate(-58.918 -159.033)" fill="#e0e0e0"/>
        <path id="Trazado_736826" data-name="Trazado 736826" d="M169.6,422.4a46.026,46.026,0,0,1-5.618-.2,46.084,46.084,0,0,1-5.6-.545,46.065,46.065,0,0,1,5.619.2,46.1,46.1,0,0,1,5.6.545" transform="translate(-59.042 -157.171)" fill="#e0e0e0"/>
        <path id="Trazado_736827" data-name="Trazado 736827" d="M169.929,417.4a46.048,46.048,0,0,1-5.618-.2,46.091,46.091,0,0,1-5.6-.545,46.058,46.058,0,0,1,5.619.2,46.093,46.093,0,0,1,5.6.545" transform="translate(-59.167 -155.309)" fill="#e0e0e0"/>
        <path id="Trazado_736828" data-name="Trazado 736828" d="M170.262,412.408a46.044,46.044,0,0,1-5.618-.2,46.094,46.094,0,0,1-5.6-.545,46.061,46.061,0,0,1,5.619.2,46.1,46.1,0,0,1,5.6.545" transform="translate(-59.291 -153.447)" fill="#e0e0e0"/>
        <path id="Trazado_736829" data-name="Trazado 736829" d="M170.595,407.413a46.053,46.053,0,0,1-5.618-.2,46.1,46.1,0,0,1-5.6-.545,46.062,46.062,0,0,1,5.619.2,46.1,46.1,0,0,1,5.6.545" transform="translate(-59.415 -151.585)" fill="#e0e0e0"/>
        <path id="Trazado_736830" data-name="Trazado 736830" d="M170.928,402.417a46.056,46.056,0,0,1-5.618-.2,46.091,46.091,0,0,1-5.6-.545,46.065,46.065,0,0,1,5.619.2,46.086,46.086,0,0,1,5.6.545" transform="translate(-59.539 -149.722)" fill="#e0e0e0"/>
        <path id="Trazado_736831" data-name="Trazado 736831" d="M171.261,397.422a46.031,46.031,0,0,1-5.618-.2,46.116,46.116,0,0,1-5.6-.545,46.056,46.056,0,0,1,5.619.2,46.12,46.12,0,0,1,5.6.545" transform="translate(-59.663 -147.86)" fill="#e0e0e0"/>
        <path id="Trazado_736832" data-name="Trazado 736832" d="M258.161,434.545l5.606.374-.413,6.2a1.9,1.9,0,0,1-2.018,1.766l-1.823-.122a1.9,1.9,0,0,1-1.765-2.017Z" transform="translate(-96.083 -161.992)" fill="#ebebeb"/>
        <path id="Trazado_736833" data-name="Trazado 736833" d="M263.915,431.683l-5.606-.374.413-6.2a1.9,1.9,0,0,1,2.018-1.766l1.823.122a1.9,1.9,0,0,1,1.765,2.017Z" transform="translate(-96.294 -157.816)" fill="#e0e0e0"/>
        <path id="Trazado_736834" data-name="Trazado 736834" d="M230.473,414.887l1.453-5.427,6,1.606a1.9,1.9,0,0,1,1.341,2.321l-.472,1.765a1.9,1.9,0,0,1-2.321,1.341Z" transform="translate(-85.917 -152.641)" fill="#ebebeb"/>
        <path id="Trazado_736835" data-name="Trazado 736835" d="M228.977,408.856l-1.453,5.427-6-1.606a1.9,1.9,0,0,1-1.341-2.321l.472-1.765a1.9,1.9,0,0,1,2.321-1.341Z" transform="translate(-82.056 -151.792)" fill="#e0e0e0"/>
        <path id="Trazado_736836" data-name="Trazado 736836" d="M256.442,416.446l-1.5-5.414,5.986-1.661a1.9,1.9,0,0,1,2.334,1.32l.489,1.761a1.9,1.9,0,0,1-1.32,2.333Z" transform="translate(-95.037 -152.581)" fill="#ebebeb"/>
        <path id="Trazado_736837" data-name="Trazado 736837" d="M252,411.659l1.5,5.414-5.986,1.661a1.9,1.9,0,0,1-2.334-1.32l-.489-1.761a1.9,1.9,0,0,1,1.32-2.333Z" transform="translate(-91.195 -153.46)" fill="#e0e0e0"/>
        <path id="Trazado_736838" data-name="Trazado 736838" d="M245.319,433.148l5.2,2.122-2.346,5.752a1.9,1.9,0,0,1-2.472,1.039l-1.691-.69a1.9,1.9,0,0,1-1.039-2.471Z" transform="translate(-90.524 -161.471)" fill="#ebebeb"/>
        <path id="Trazado_736839" data-name="Trazado 736839" d="M251.431,432.542l-5.2-2.122,2.346-5.752a1.894,1.894,0,0,1,2.471-1.039l1.692.69a1.9,1.9,0,0,1,1.039,2.471Z" transform="translate(-91.79 -157.87)" fill="#e0e0e0"/>
        <path id="Trazado_736840" data-name="Trazado 736840" d="M382.4,54.027l4.212,5.417a.482.482,0,0,1-.085.677l-5.445,4.236a3.914,3.914,0,1,1-4.805-6.179l5.446-4.235a.482.482,0,0,1,.677.085" transform="translate(-139.707 -20.071)" fill="#ebebeb"/>
        <path id="Trazado_736841" data-name="Trazado 736841" d="M389.437,57.431l-4.212-5.417a.482.482,0,0,1,.085-.677l5.445-4.236a3.913,3.913,0,0,1,4.805,6.178l-5.446,4.236a.482.482,0,0,1-.677-.085" transform="translate(-143.568 -17.252)" fill="#e0e0e0"/>
      </g>
    </g>
    <g id="Grupo_1034189" data-name="Grupo 1034189">
      <g id="Grupo_1034188" data-name="Grupo 1034188" clip-path="url(#clip-path)">
        <path id="Trazado_736842" data-name="Trazado 736842" d="M274.161,457.02c0,.09-60.11.163-134.243.163-74.158,0-134.256-.073-134.256-.163s60.1-.163,134.256-.163c74.133,0,134.243.073,134.243.163" transform="translate(-2.111 -170.309)" fill="#263238"/>
      </g>
    </g>
    <g id="Grupo_1034191" data-name="Grupo 1034191">
      <g id="Grupo_1034190" data-name="Grupo 1034190" clip-path="url(#clip-path)">
        <path id="Trazado_736843" data-name="Trazado 736843" d="M258.394,231.7H107.254a6.336,6.336,0,0,1-6.336-6.335V21.678a6.336,6.336,0,0,1,6.336-6.336h151.14a6.336,6.336,0,0,1,6.335,6.336V225.367a6.335,6.335,0,0,1-6.335,6.335" transform="translate(-37.621 -5.719)" fill="#636363"/>
        <rect id="Rectángulo_350749" data-name="Rectángulo 350749" width="141.872" height="191.269" transform="translate(74.267 19.848)" fill="#fff"/>
        <path id="Trazado_736844" data-name="Trazado 736844" d="M260.182,222.816c0-1.3-.06-78.017-.147-191.269l.147.148-141.855.016h-.016l.163-.164c-.011,71.336-.021,137.428-.029,191.269l-.134-.134,141.872.134-141.872.134h-.134v-.134c-.008-53.84-.019-119.932-.029-191.269v-.163h.179l141.855.016h.148v.147c-.087,113.252-.146,189.965-.147,191.269" transform="translate(-44.043 -11.699)" fill="#263238"/>
        <rect id="Rectángulo_350750" data-name="Rectángulo 350750" width="24.346" height="6.028" transform="translate(142.525 38.367)" fill="#e0e0e0"/>
        <path id="Trazado_736847" data-name="Trazado 736847" d="M305.3,67.141c0,.09-6.66.163-14.873.163s-14.875-.073-14.875-.163,6.659-.163,14.875-.163,14.873.073,14.873.163" transform="translate(-102.721 -24.968)" fill="#263238"/>
        <path id="Trazado_736848" data-name="Trazado 736848" d="M286.73,78.663c0,.09-13.32.163-29.747.163s-29.749-.073-29.749-.163,13.317-.163,29.749-.163,29.747.073,29.747.163" transform="translate(-84.709 -29.264)" fill="#263238"/>
        <path id="Trazado_736849" data-name="Trazado 736849" d="M286.73,89.953c0,.09-13.32.163-29.747.163s-29.749-.073-29.749-.163,13.317-.163,29.749-.163,29.747.073,29.747.163" transform="translate(-84.709 -33.472)" fill="#263238"/>
        <path id="Trazado_736850" data-name="Trazado 736850" d="M258.317,120.053c0,.09-29.6.163-66.1.163s-66.1-.073-66.1-.163,29.589-.163,66.1-.163,66.1.073,66.1.163" transform="translate(-47.015 -44.693)" fill="#263238"/>
        <path id="Trazado_736851" data-name="Trazado 736851" d="M258.317,290.534c0,.09-29.6.163-66.1.163s-66.1-.073-66.1-.163,29.589-.163,66.1-.163,66.1.073,66.1.163" transform="translate(-47.015 -108.246)" fill="#263238"/>
        <rect id="Rectángulo_350751" data-name="Rectángulo 350751" width="40.79" height="7.65" transform="translate(89.995 86.185)" fill="#e0e0e0"/>
        <rect id="Rectángulo_350752" data-name="Rectángulo 350752" width="17.659" height="7.65" transform="translate(89.995 193.205)" fill="#e0e0e0"/>
        <rect id="Rectángulo_350753" data-name="Rectángulo 350753" width="17.659" height="7.65" transform="translate(149.277 193.205)" fill="#e0e0e0"/>
        <path id="Trazado_736852" data-name="Trazado 736852" d="M204.176,316.389c0,.09-5.514.163-12.314.163s-12.315-.073-12.315-.163,5.513-.163,12.315-.163,12.314.073,12.314.163" transform="translate(-66.932 -117.884)" fill="#263238"/>
        <path id="Trazado_736853" data-name="Trazado 736853" d="M305.253,316.389c0,.09-5.514.163-12.314.163s-12.315-.073-12.315-.163,5.513-.163,12.315-.163,12.314.073,12.314.163" transform="translate(-104.612 -117.884)" fill="#263238"/>
        <path id="Trazado_736854" data-name="Trazado 736854" d="M253.415,167.876c0,.09-24.162.163-53.96.163s-53.966-.073-53.966-.163,24.157-.163,53.966-.163,53.96.073,53.96.163" transform="translate(-54.236 -62.521)" fill="#263238"/>
        <path id="Trazado_736855" data-name="Trazado 736855" d="M255.514,181.8c0,.09-24.632.163-55.01.163s-55.015-.073-55.015-.163,24.626-.163,55.015-.163,55.01.073,55.01.163" transform="translate(-54.236 -67.712)" fill="#263238"/>
        <path id="Trazado_736856" data-name="Trazado 736856" d="M198.073,195.724c0,.09-12.222.163-27.3.163s-27.3-.073-27.3-.163,12.219-.163,27.3-.163,27.3.073,27.3.163" transform="translate(-53.487 -72.902)" fill="#263238"/>
        <path id="Trazado_736857" data-name="Trazado 736857" d="M290.545,240.214s-.12.047-.361.124-.6.189-1.071.324a36.576,36.576,0,0,1-4.191.98,19.388,19.388,0,0,1-3.1.291,12.7,12.7,0,0,1-3.679-.456,9.46,9.46,0,0,1-3.723-2.061,7.156,7.156,0,0,1-2.242-4.183,4.965,4.965,0,0,1,.313-2.576,4.775,4.775,0,0,1,1.742-2.077,3.628,3.628,0,0,1,2.752-.585,3.667,3.667,0,0,1,1.332.65,4.2,4.2,0,0,1,.954,1.163,6.349,6.349,0,0,1,.67,2.957,8.43,8.43,0,0,1-.567,3.073,12.222,12.222,0,0,1-3.9,5.134,13.86,13.86,0,0,1-2.915,1.714,13.249,13.249,0,0,1-3.335.918,11.4,11.4,0,0,1-3.533-.04,11.546,11.546,0,0,1-1.749-.426,14.207,14.207,0,0,1-1.665-.735,10.138,10.138,0,0,1-2.832-2.338,7.809,7.809,0,0,1-1.671-3.339,5.457,5.457,0,0,1,.442-3.751,5.739,5.739,0,0,1,2.77-2.649,3.89,3.89,0,0,1,1.935-.334,3.7,3.7,0,0,1,1.829.689,5.519,5.519,0,0,1,1.983,3.22,10.506,10.506,0,0,1,.206,3.725,15.271,15.271,0,0,1-.809,3.573,13.6,13.6,0,0,1-3.94,5.876,10.748,10.748,0,0,1-6.257,2.562,9.034,9.034,0,0,1-9.643-6.655,8.587,8.587,0,0,1,.211-5.656,4.832,4.832,0,0,1,1.646-2.153,2.9,2.9,0,0,1,1.232-.526,2.035,2.035,0,0,1,1.3.25,2.784,2.784,0,0,1,1.242,2.119,6.869,6.869,0,0,1-.094,2.341,16.906,16.906,0,0,1-1.283,4.064,16.673,16.673,0,0,1-1.9,3.18,16.357,16.357,0,0,1-2.092,2.309,15.274,15.274,0,0,1-3.526,2.46,10.263,10.263,0,0,1-1.019.465c-.233.1-.355.138-.355.138s.114-.062.342-.169.576-.248,1-.492a15.748,15.748,0,0,0,3.469-2.5,16.437,16.437,0,0,0,2.053-2.308,16.617,16.617,0,0,0,1.863-3.163,16.79,16.79,0,0,0,1.244-4.024,6.682,6.682,0,0,0,.082-2.272,2.564,2.564,0,0,0-1.139-1.95,1.8,1.8,0,0,0-1.147-.217,2.654,2.654,0,0,0-1.126.49,4.586,4.586,0,0,0-1.552,2.05,8.336,8.336,0,0,0-.184,5.486,8.754,8.754,0,0,0,9.362,6.43,10.445,10.445,0,0,0,6.076-2.5,13.3,13.3,0,0,0,3.84-5.745,14.979,14.979,0,0,0,.789-3.5,10.184,10.184,0,0,0-.2-3.612,5.206,5.206,0,0,0-1.858-3.034,3.423,3.423,0,0,0-3.445-.32,5.416,5.416,0,0,0-2.608,2.5,5.132,5.132,0,0,0-.415,3.535,8.628,8.628,0,0,0,4.342,5.465,13.915,13.915,0,0,0,1.613.714,11.463,11.463,0,0,0,5.137.458,12.955,12.955,0,0,0,3.258-.891,13.6,13.6,0,0,0,2.851-1.67,11.939,11.939,0,0,0,3.82-5,8.141,8.141,0,0,0,.555-2.968,6.081,6.081,0,0,0-.628-2.829,3.946,3.946,0,0,0-.883-1.084,3.061,3.061,0,0,0-3.78-.062,4.531,4.531,0,0,0-1.658,1.963,4.729,4.729,0,0,0-.305,2.451,6.943,6.943,0,0,0,2.156,4.061,9.285,9.285,0,0,0,3.631,2.037,12.624,12.624,0,0,0,3.626.475,19.423,19.423,0,0,0,3.083-.262,39.8,39.8,0,0,0,4.194-.918l1.079-.293c.243-.066.371-.092.371-.092" transform="translate(-90.079 -85.713)" fill="#263238"/>
        <rect id="Rectángulo_350754" data-name="Rectángulo 350754" width="47.343" height="18.099" transform="translate(121.532 7.784)" fill="#e0e0e0"/>
        <path id="Trazado_736858" data-name="Trazado 736858" d="M241.01,30.413S241,30.3,241,30.086s-.007-.536-.013-.939c-.006-.834-.016-2.042-.028-3.6-.014-3.123-.035-7.633-.061-13.236l.112.112-47.34.051h0l.163-.163c0,6.324,0,12.438-.006,18.1l-.157-.157,33.893.073,9.87.044,2.65.02.689.009c.156,0,.24.01.24.01a1.894,1.894,0,0,1-.221.01l-.67.009-2.617.02-9.833.044-34,.073h-.157v-.157c0-5.661,0-11.775-.006-18.1l.164-.163h0l47.34.051h.113v.112c-.026,5.632-.046,10.165-.061,13.3-.012,1.544-.021,2.743-.028,3.571-.006.395-.009.7-.013.919s-.011.3-.011.3" transform="translate(-72.135 -4.53)" fill="#263238"/>
      </g>
    </g>
    <g id="Grupo_1034199" data-name="Grupo 1034199">
      <g id="Grupo_1034198" data-name="Grupo 1034198" clip-path="url(#clip-path)">
        <path id="Trazado_736859" data-name="Trazado 736859" d="M339.5,406.068H308.844a2.491,2.491,0,0,1-2.491-2.469l-.743-82.684h35.641l.743,82.639a2.492,2.492,0,0,1-2.491,2.514" transform="translate(-113.927 -119.632)" fill="#ff9d00"/>
        <g id="Grupo_1034194" data-name="Grupo 1034194" transform="translate(221.066 219.621)" opacity="0.3">
          <g id="Grupo_1034193" data-name="Grupo 1034193">
            <g id="Grupo_1034192" data-name="Grupo 1034192" clip-path="url(#clip-path-6)">
              <path id="Trazado_736860" data-name="Trazado 736860" d="M352.456,350.152v63.671s5.014,1.668,5.262-2.725.11-60.946.11-60.946Z" transform="translate(-352.456 -350.152)" fill="#fff"/>
            </g>
          </g>
        </g>
        <path id="Trazado_736861" data-name="Trazado 736861" d="M338.767,314.23H309.884a1.873,1.873,0,0,0-1.874,1.873v1.829h32.63V316.1a1.873,1.873,0,0,0-1.873-1.873" transform="translate(-114.821 -117.14)" fill="#fafafa"/>
        <path id="Trazado_736862" data-name="Trazado 736862" d="M338.669,314.134a1.063,1.063,0,0,1,.314.006,1.822,1.822,0,0,1,.854.35,1.918,1.918,0,0,1,.754,1.292c.035.605.021,1.28.033,2.054v.08h-.082c-5.978.049-17.523.082-30.755.082h-2.038v-.163q0-.88,0-1.748a2.034,2.034,0,0,1,1.556-2.055,3.562,3.562,0,0,1,.879-.058h1.667l6.342.011,10.689.035,7.168.051,1.942.029.5.016a.087.087,0,1,1,0,.033l-.5.016-1.942.029-7.168.051-10.689.036-6.342.01-1.667,0a3.311,3.311,0,0,0-.8.051,1.734,1.734,0,0,0-.689.346c-.9.684-.541,2-.617,3.145l-.163-.163h1.875c13.232,0,24.777.033,30.755.082l-.08.081c0-.768.025-1.463.005-2.039a1.838,1.838,0,0,0-.682-1.239,2.122,2.122,0,0,0-1.115-.424" transform="translate(-114.724 -117.045)" fill="#263238"/>
        <path id="Trazado_736863" data-name="Trazado 736863" d="M341.116,338.443H301.284a1.657,1.657,0,0,1-1.656-1.656V320.4a1.657,1.657,0,0,1,1.656-1.657h39.833a1.657,1.657,0,0,1,1.656,1.657v16.387a1.657,1.657,0,0,1-1.656,1.656" transform="translate(-111.696 -118.822)" fill="#fafafa"/>
        <path id="Trazado_736864" data-name="Trazado 736864" d="M341.018,338.346c0-.011.109,0,.312-.047a1.652,1.652,0,0,0,.8-.426c.73-.552.437-1.885.484-3.409-.013-3.122-.03-7.616-.052-13.163q0-.519-.006-1.051a1.536,1.536,0,0,0-.346-.919,1.553,1.553,0,0,0-.855-.524,7.148,7.148,0,0,0-1.1-.035l-4.729.009-10.433.015-23.906.013a1.5,1.5,0,0,0-1.222.632,1.463,1.463,0,0,0-.258.654c-.029.223-.011.508-.016.763q0,1.571,0,3.12,0,3.1,0,6.1t0,5.888v.719a1.51,1.51,0,0,0,1.079,1.446,2.144,2.144,0,0,0,.655.062H303.5l19.525.035,13.163.052,3.579.03.93.016c.21.006.317.017.317.017s-.107.011-.317.017l-.93.016-3.579.031-13.163.052L303.5,338.5h-2.085a2.4,2.4,0,0,1-.741-.073,1.815,1.815,0,0,1-1.3-1.741v-.719q0-2.886,0-5.888t0-6.1q0-1.549,0-3.12a7.924,7.924,0,0,1,.019-.808,1.788,1.788,0,0,1,.315-.8,1.828,1.828,0,0,1,1.488-.77l23.906.013,10.433.015,4.729.009a7.013,7.013,0,0,1,1.15.046,1.8,1.8,0,0,1,.988.612,1.776,1.776,0,0,1,.4,1.064q0,.535,0,1.059c-.022,5.547-.04,10.041-.052,13.163-.006.775-.011,1.465-.015,2.066a1.731,1.731,0,0,1-.551,1.391,1.634,1.634,0,0,1-.836.411,1.085,1.085,0,0,1-.319.014" transform="translate(-111.599 -118.725)" fill="#263238"/>
        <path id="Trazado_736865" data-name="Trazado 736865" d="M303.522,338.5c-.09,0-.163-4.194-.163-9.366s.073-9.366.163-9.366.163,4.193.163,9.366-.073,9.366-.163,9.366" transform="translate(-113.088 -119.205)" fill="#263238"/>
        <path id="Trazado_736866" data-name="Trazado 736866" d="M308.725,338.5c-.09,0-.163-4.194-.163-9.366s.073-9.366.163-9.366.163,4.193.163,9.366-.073,9.366-.163,9.366" transform="translate(-115.027 -119.205)" fill="#263238"/>
        <path id="Trazado_736867" data-name="Trazado 736867" d="M313.927,338.5c-.09,0-.163-4.194-.163-9.366s.073-9.366.163-9.366.163,4.193.163,9.366-.073,9.366-.163,9.366" transform="translate(-116.967 -119.205)" fill="#263238"/>
        <path id="Trazado_736868" data-name="Trazado 736868" d="M319.129,338.5c-.09,0-.163-4.194-.163-9.366s.073-9.366.163-9.366.163,4.193.163,9.366-.073,9.366-.163,9.366" transform="translate(-118.906 -119.205)" fill="#263238"/>
        <path id="Trazado_736869" data-name="Trazado 736869" d="M324.332,338.5c-.09,0-.163-4.194-.163-9.366s.073-9.366.163-9.366.163,4.193.163,9.366-.073,9.366-.163,9.366" transform="translate(-120.845 -119.205)" fill="#263238"/>
        <path id="Trazado_736870" data-name="Trazado 736870" d="M329.534,338.5c-.09,0-.164-4.194-.164-9.366s.073-9.366.164-9.366.163,4.193.163,9.366-.073,9.366-.163,9.366" transform="translate(-122.784 -119.205)" fill="#263238"/>
        <path id="Trazado_736871" data-name="Trazado 736871" d="M334.736,338.5c-.09,0-.163-4.194-.163-9.366s.073-9.366.163-9.366.163,4.193.163,9.366-.073,9.366-.163,9.366" transform="translate(-124.724 -119.205)" fill="#263238"/>
        <path id="Trazado_736872" data-name="Trazado 736872" d="M339.939,338.5c-.09,0-.163-4.194-.163-9.366s.073-9.366.163-9.366.163,4.193.163,9.366-.073,9.366-.163,9.366" transform="translate(-126.663 -119.205)" fill="#263238"/>
        <path id="Trazado_736873" data-name="Trazado 736873" d="M345.141,338.5c-.09,0-.163-4.194-.163-9.366s.073-9.366.163-9.366.163,4.193.163,9.366-.073,9.366-.163,9.366" transform="translate(-128.603 -119.205)" fill="#263238"/>
        <path id="Trazado_736874" data-name="Trazado 736874" d="M350.343,338.5c-.09,0-.163-4.194-.163-9.366s.073-9.366.163-9.366.163,4.193.163,9.366-.073,9.366-.163,9.366" transform="translate(-130.542 -119.205)" fill="#263238"/>
        <path id="Trazado_736875" data-name="Trazado 736875" d="M355.545,338.5c-.09,0-.163-4.194-.163-9.366s.073-9.366.163-9.366.163,4.193.163,9.366-.073,9.366-.163,9.366" transform="translate(-132.481 -119.205)" fill="#263238"/>
        <path id="Trazado_736876" data-name="Trazado 736876" d="M360.748,338.5c-.09,0-.163-4.194-.163-9.366s.073-9.366.163-9.366.163,4.193.163,9.366-.073,9.366-.163,9.366" transform="translate(-134.421 -119.205)" fill="#263238"/>
        <path id="Trazado_736877" data-name="Trazado 736877" d="M365.95,338.5c-.09,0-.163-4.194-.163-9.366s.073-9.366.163-9.366.163,4.193.163,9.366-.073,9.366-.163,9.366" transform="translate(-136.36 -119.205)" fill="#263238"/>
        <rect id="Rectángulo_350757" data-name="Rectángulo 350757" width="30.85" height="24.703" transform="translate(194.476 234.46)" fill="#fff"/>
        <path id="Trazado_736878" data-name="Trazado 736878" d="M317.1,384.14l-.718-1.037h-.793v1.037h-.861v-3.723h1.612a2.072,2.072,0,0,1,.859.165,1.232,1.232,0,0,1,.758,1.187,1.213,1.213,0,0,1-.766,1.175l.835,1.2Zm-.218-2.853a.9.9,0,0,0-.59-.168h-.7v1.3h.7a.894.894,0,0,0,.59-.171.671.671,0,0,0,0-.96" transform="translate(-117.326 -141.814)" fill="#263238"/>
        <path id="Trazado_736879" data-name="Trazado 736879" d="M319.954,388.359l-.851-1.224-.837,1.224h-.938l1.306-1.794-1.24-1.734h.926l.812,1.144.8-1.144h.882l-1.23,1.7,1.316,1.824Z" transform="translate(-118.295 -143.459)" fill="#263238"/>
        <rect id="Rectángulo_350758" data-name="Rectángulo 350758" width="17.617" height="2.678" transform="translate(205.447 238.593)" fill="#e0e0e0"/>
        <path id="Trazado_736880" data-name="Trazado 736880" d="M338.8,395.174c0,.09-5.146.163-11.491.163s-11.492-.073-11.492-.163,5.144-.163,11.492-.163,11.491.073,11.491.163" transform="translate(-117.73 -147.254)" fill="#263238"/>
        <path id="Trazado_736881" data-name="Trazado 736881" d="M338.8,399.622c0,.09-5.146.163-11.491.163s-11.492-.073-11.492-.163,5.144-.163,11.492-.163,11.491.073,11.491.163" transform="translate(-117.73 -148.912)" fill="#263238"/>
        <rect id="Rectángulo_350759" data-name="Rectángulo 350759" width="11.905" height="2.296" transform="translate(196.424 254.198)" fill="#e0e0e0"/>
        <path id="Trazado_736882" data-name="Trazado 736882" d="M340.438,397.995s-.01-.155-.015-.44q-.006-.451-.015-1.257c-.008-1.11-.02-2.711-.035-4.746-.017-4.088-.041-9.913-.07-16.936l.135.135-29.571.028c-.038.035.306-.307.161-.159v3.135q0,1.559,0,3.092,0,3.064,0,6.009c0,3.919-.009,7.655-.012,11.14l-.146-.147,21.329.073,6.064.039,1.614.018.419.008a1.03,1.03,0,0,1,.147.009.654.654,0,0,1-.13.008l-.4.009-1.585.018-6.031.039-21.424.073h-.146v-.147c0-3.485-.008-7.221-.013-11.14q0-2.94,0-6.009,0-1.533,0-3.092,0-.779,0-1.565v-1.57c-.146.144.2-.2.166-.167l29.571.028h.136v.135c-.029,7.059-.053,12.913-.07,17.021-.015,2.022-.027,3.613-.035,4.716q-.009.79-.015,1.231c0,.277-.015.411-.015.411" transform="translate(-115.811 -139.589)" fill="#263238"/>
        <path id="Trazado_736883" data-name="Trazado 736883" d="M308.725,411.69c-.09,0-.163-12.9-.163-28.8s.073-28.8.163-28.8.163,12.893.163,28.8-.073,28.8-.163,28.8" transform="translate(-115.027 -131.998)" fill="#fff"/>
        <path id="Trazado_736884" data-name="Trazado 736884" d="M341.432,454.439c0,.09-6.73.163-15.031.163s-15.032-.073-15.032-.163,6.729-.163,15.032-.163,15.031.073,15.031.163" transform="translate(-116.074 -169.347)" fill="#263238"/>
        <path id="Trazado_736885" data-name="Trazado 736885" d="M391.731,415.613H366.895a2.018,2.018,0,0,1-2.018-2l-.6-66.982h28.873l.6,66.946a2.018,2.018,0,0,1-2.018,2.036" transform="translate(-135.796 -129.219)" fill="#15d3ec"/>
        <g id="Grupo_1034197" data-name="Grupo 1034197" transform="translate(252.282 232.268)" opacity="0.3">
          <g id="Grupo_1034196" data-name="Grupo 1034196">
            <g id="Grupo_1034195" data-name="Grupo 1034195" clip-path="url(#clip-path-7)">
              <path id="Trazado_736886" data-name="Trazado 736886" d="M402.225,370.316V421.9s4.062,1.352,4.263-2.207.089-49.372.089-49.372Z" transform="translate(-402.225 -370.316)" fill="#fff"/>
            </g>
          </g>
        </g>
        <path id="Trazado_736887" data-name="Trazado 736887" d="M390.78,341.215H368.092a1.873,1.873,0,0,0-1.873,1.873v1.126h26.433v-1.126a1.873,1.873,0,0,0-1.873-1.873" transform="translate(-136.521 -127.2)" fill="#fafafa"/>
        <path id="Trazado_736888" data-name="Trazado 736888" d="M390.681,341.121a1.028,1.028,0,0,1,.269,0,1.776,1.776,0,0,1,.751.253,1.9,1.9,0,0,1,.813,1,2.255,2.255,0,0,1,.114.823c0,.292.006.6.009.927v.082h-.084c-4.886.048-14.063.08-24.559.08h-2.041l0-.163c.01-.477-.023-.91.023-1.414a2.025,2.025,0,0,1,.71-1.273,2.068,2.068,0,0,1,1.352-.471l1.328,0,5.047.011,8.5.036,5.691.05,1.54.03a3.443,3.443,0,0,1,.536.031,3.472,3.472,0,0,1-.536.031l-1.54.03-5.691.051-8.5.036-5.047.011-1.328,0a1.736,1.736,0,0,0-1.146.4,1.705,1.705,0,0,0-.6,1.071c-.038.413-.01.912-.019,1.369l-.163-.163h1.875c10.5,0,19.673.032,24.559.08l-.083.083q0-.49.009-.927a2.127,2.127,0,0,0-.088-.781,1.827,1.827,0,0,0-.738-.964,2.281,2.281,0,0,0-.973-.326" transform="translate(-136.422 -127.105)" fill="#263238"/>
        <path id="Trazado_736889" data-name="Trazado 736889" d="M392.725,360.831H361.086a1.657,1.657,0,0,1-1.656-1.656V346.527a1.656,1.656,0,0,1,1.656-1.656h31.639a1.656,1.656,0,0,1,1.656,1.656v12.647a1.657,1.657,0,0,1-1.656,1.656" transform="translate(-133.99 -128.563)" fill="#fafafa"/>
        <path id="Trazado_736890" data-name="Trazado 736890" d="M392.628,360.733a1.911,1.911,0,0,0,.926-.324,1.638,1.638,0,0,0,.64-.971,3.35,3.35,0,0,0,.035-.763q0-.418-.008-.886c-.013-2.522-.03-6.141-.052-10.606,0-.277,0-.57-.007-.842a1.53,1.53,0,0,0-.253-.756,1.576,1.576,0,0,0-1.441-.685l-3.81.009-8.406.015-19.261.013a1.5,1.5,0,0,0-1.493,1.442q0,1.263,0,2.508,0,2.5,0,4.915t0,4.743a2.807,2.807,0,0,0,.1,1.084,1.519,1.519,0,0,0,.671.764,1.849,1.849,0,0,0,1.022.188H362.4l15.731.035,10.606.052,2.883.03.75.016a1.471,1.471,0,0,1,.255.017,1.49,1.49,0,0,1-.255.017l-.75.016-2.883.031-10.606.052-15.731.035h-1.117a2.157,2.157,0,0,1-1.17-.223,1.828,1.828,0,0,1-.81-.918,1.733,1.733,0,0,1-.127-.615l0-.584q0-2.325,0-4.743t0-4.915q0-1.25,0-2.519a1.827,1.827,0,0,1,1.819-1.758l19.261.013,8.406.015,3.81.009a1.826,1.826,0,0,1,1.643.8,1.768,1.768,0,0,1,.287.875c.009.3,0,.573,0,.856-.022,4.465-.04,8.084-.052,10.606q0,.469-.008.886a3.4,3.4,0,0,1-.053.785,1.692,1.692,0,0,1-.7,1,1.628,1.628,0,0,1-.706.265.963.963,0,0,1-.257.005" transform="translate(-133.893 -128.465)" fill="#263238"/>
        <path id="Trazado_736891" data-name="Trazado 736891" d="M362.566,360.878c-.09,0-.163-3.4-.163-7.587s.073-7.588.163-7.588.163,3.4.163,7.588-.073,7.587-.163,7.587" transform="translate(-135.098 -128.873)" fill="#263238"/>
        <path id="Trazado_736892" data-name="Trazado 736892" d="M366.78,360.878c-.09,0-.163-3.4-.163-7.587s.073-7.588.163-7.588.163,3.4.163,7.588-.073,7.587-.163,7.587" transform="translate(-136.669 -128.873)" fill="#263238"/>
        <path id="Trazado_736893" data-name="Trazado 736893" d="M371,360.878c-.09,0-.163-3.4-.163-7.587s.073-7.588.163-7.588.163,3.4.163,7.588-.073,7.587-.163,7.587" transform="translate(-138.241 -128.873)" fill="#263238"/>
        <path id="Trazado_736894" data-name="Trazado 736894" d="M375.209,360.878c-.09,0-.163-3.4-.163-7.587s.073-7.588.163-7.588.163,3.4.163,7.588-.073,7.587-.163,7.587" transform="translate(-139.811 -128.873)" fill="#263238"/>
        <path id="Trazado_736895" data-name="Trazado 736895" d="M379.424,360.878c-.09,0-.164-3.4-.164-7.587s.073-7.588.164-7.588.163,3.4.163,7.588-.073,7.587-.163,7.587" transform="translate(-141.382 -128.873)" fill="#263238"/>
        <path id="Trazado_736896" data-name="Trazado 736896" d="M383.638,360.878c-.09,0-.163-3.4-.163-7.587s.073-7.588.163-7.588.163,3.4.163,7.588-.073,7.587-.163,7.587" transform="translate(-142.954 -128.873)" fill="#263238"/>
        <path id="Trazado_736897" data-name="Trazado 736897" d="M387.852,360.878c-.09,0-.163-3.4-.163-7.587s.073-7.588.163-7.588.163,3.4.163,7.588-.073,7.587-.163,7.587" transform="translate(-144.525 -128.873)" fill="#263238"/>
        <path id="Trazado_736898" data-name="Trazado 736898" d="M392.067,360.878c-.09,0-.163-3.4-.163-7.587s.073-7.588.163-7.588.163,3.4.163,7.588-.073,7.587-.163,7.587" transform="translate(-146.096 -128.873)" fill="#263238"/>
        <path id="Trazado_736899" data-name="Trazado 736899" d="M396.281,360.878c-.09,0-.163-3.4-.163-7.587s.073-7.588.163-7.588.163,3.4.163,7.588-.073,7.587-.163,7.587" transform="translate(-147.667 -128.873)" fill="#263238"/>
        <path id="Trazado_736900" data-name="Trazado 736900" d="M400.5,360.878c-.09,0-.163-3.4-.163-7.587s.073-7.588.163-7.588.163,3.4.163,7.588-.073,7.587-.163,7.587" transform="translate(-149.238 -128.873)" fill="#263238"/>
        <path id="Trazado_736901" data-name="Trazado 736901" d="M404.71,360.878c-.09,0-.163-3.4-.163-7.587s.073-7.588.163-7.588.163,3.4.163,7.588-.073,7.587-.163,7.587" transform="translate(-150.809 -128.873)" fill="#263238"/>
        <path id="Trazado_736902" data-name="Trazado 736902" d="M408.924,360.878c-.09,0-.163-3.4-.163-7.587s.073-7.588.163-7.588.163,3.4.163,7.588-.073,7.587-.163,7.587" transform="translate(-152.38 -128.873)" fill="#263238"/>
        <path id="Trazado_736903" data-name="Trazado 736903" d="M413.139,360.878c-.09,0-.163-3.4-.163-7.587s.073-7.588.163-7.588.163,3.4.163,7.588-.073,7.587-.163,7.587" transform="translate(-153.951 -128.873)" fill="#263238"/>
        <rect id="Rectángulo_350761" data-name="Rectángulo 350761" width="24.992" height="20.012" transform="translate(230.741 244.289)" fill="#fff"/>
        <path id="Trazado_736904" data-name="Trazado 736904" d="M373.584,397.85l-.581-.84h-.642v.84h-.7v-3.016h1.305a1.672,1.672,0,0,1,.7.134,1.078,1.078,0,0,1,.453,1.54,1.021,1.021,0,0,1-.46.373l.677.97Zm-.176-2.312a.736.736,0,0,0-.479-.135h-.569v1.051h.569a.726.726,0,0,0,.479-.138.544.544,0,0,0,0-.778" transform="translate(-138.55 -147.188)" fill="#263238"/>
        <path id="Trazado_736905" data-name="Trazado 736905" d="M375.9,401.268l-.69-.992-.677.992h-.76l1.057-1.453-1-1.4h.751l.657.927.645-.927h.714l-1,1.38,1.066,1.478Z" transform="translate(-139.335 -148.521)" fill="#263238"/>
        <rect id="Rectángulo_350762" data-name="Rectángulo 350762" width="14.272" height="2.17" transform="translate(239.629 247.637)" fill="#e0e0e0"/>
        <path id="Trazado_736906" data-name="Trazado 736906" d="M391.159,406.77c0,.09-4.169.163-9.309.163s-9.31-.073-9.31-.163,4.167-.163,9.31-.163,9.309.073,9.309.163" transform="translate(-138.877 -151.577)" fill="#263238"/>
        <path id="Trazado_736907" data-name="Trazado 736907" d="M391.159,410.374c0,.09-4.169.163-9.309.163s-9.31-.073-9.31-.163,4.167-.163,9.31-.163,9.309.073,9.309.163" transform="translate(-138.877 -152.92)" fill="#263238"/>
        <rect id="Rectángulo_350763" data-name="Rectángulo 350763" width="9.644" height="1.86" transform="translate(232.319 260.28)" fill="#e0e0e0"/>
        <path id="Trazado_736908" data-name="Trazado 736908" d="M392.468,409.056s-.01-.127-.015-.36c0-.249-.009-.588-.015-1.02-.008-.907-.02-2.2-.035-3.848-.017-3.316-.041-8.03-.07-13.712l.135.135-23.956.028c-.038.035.307-.308.161-.161v2.54q0,1.263,0,2.5,0,2.483,0,4.868c0,3.174-.009,6.2-.012,9.024l-.146-.147,17.27.073,4.916.039,1.31.018.341.008a.726.726,0,0,1,.121.009.418.418,0,0,1-.1.009l-.325.008-1.282.018-4.882.039-17.364.073h-.147v-.147c0-2.824-.008-5.85-.013-9.024q0-2.382,0-4.868,0-1.242,0-2.5,0-.632,0-1.268v-1.272c-.146.144.2-.2.166-.166l23.956.028h.136v.135c-.029,5.716-.053,10.46-.07,13.8-.015,1.631-.027,2.918-.035,3.817-.006.421-.011.751-.015.995a2.56,2.56,0,0,1-.015.331" transform="translate(-137.301 -145.367)" fill="#263238"/>
        <path id="Trazado_736909" data-name="Trazado 736909" d="M366.78,420.169c-.09,0-.163-10.447-.163-23.331s.073-23.334.163-23.334.163,10.445.163,23.334-.073,23.331-.163,23.331" transform="translate(-136.669 -139.237)" fill="#fff"/>
        <path id="Trazado_736910" data-name="Trazado 736910" d="M393.3,454.781c0,.09-5.452.163-12.176.163s-12.177-.073-12.177-.163,5.451-.163,12.177-.163,12.176.073,12.176.163" transform="translate(-137.536 -169.475)" fill="#263238"/>
      </g>
    </g>
    <g id="Grupo_1034219" data-name="Grupo 1034219">
      <g id="Grupo_1034218" data-name="Grupo 1034218" clip-path="url(#clip-path)">
        <path id="Trazado_736911" data-name="Trazado 736911" d="M76.333,411.738l-4.162,14.769s13.255,9.293,12.746,12.1l-28.24-7.238,5.562-23.284Z" transform="translate(-21.128 -152.128)" fill="#455a64"/>
        <path id="Trazado_736912" data-name="Trazado 736912" d="M67.277,431.882a1.2,1.2,0,0,0-1.126,1.144,1.158,1.158,0,0,0,1.1,1.154,1.27,1.27,0,0,0,1.187-1.218c-.054-.6-.7-1.217-1.271-1.071" transform="translate(-24.66 -160.995)" fill="#e0e0e0"/>
        <g id="Grupo_1034202" data-name="Grupo 1034202" transform="translate(35.549 276.916)" opacity="0.6">
          <g id="Grupo_1034201" data-name="Grupo 1034201">
            <g id="Grupo_1034200" data-name="Grupo 1034200" clip-path="url(#clip-path-9)">
              <path id="Trazado_736913" data-name="Trazado 736913" d="M56.677,443.825l.65-2.324,26.834,7.809s1.12.882.756,1.754Z" transform="translate(-56.677 -441.501)" fill="#fff"/>
            </g>
          </g>
        </g>
        <path id="Trazado_736914" data-name="Trazado 736914" d="M80.408,437.227c-.039.14-.744.028-1.534.308-.8.259-1.3.781-1.409.693-.12-.06.291-.852,1.253-1.174s1.751.051,1.69.173" transform="translate(-28.87 -162.878)" fill="#263238"/>
        <path id="Trazado_736915" data-name="Trazado 736915" d="M85,440.547c0,.145-.658.232-1.272.709-.628.459-.9,1.075-1.04,1.034-.135-.011-.028-.863.746-1.441s1.6-.437,1.566-.3" transform="translate(-30.806 -164.183)" fill="#263238"/>
        <path id="Trazado_736916" data-name="Trazado 736916" d="M87.624,445.8c-.133,0-.152-.757.391-1.44s1.263-.825,1.293-.693c.05.136-.47.444-.908,1.012s-.635,1.142-.775,1.121" transform="translate(-32.636 -165.377)" fill="#263238"/>
        <path id="Trazado_736917" data-name="Trazado 736917" d="M81.332,431.313c-.089.114-.674-.243-1.467-.389-.79-.162-1.462-.049-1.5-.189-.055-.123.665-.494,1.6-.309s1.47.793,1.375.886" transform="translate(-29.211 -160.438)" fill="#263238"/>
        <path id="Trazado_736918" data-name="Trazado 736918" d="M63.554,419.36,62.9,434.718s15.016,5.84,15.165,8.69l-29.11-.232.063-23.972Z" transform="translate(-18.249 -156.273)" fill="#455a64"/>
        <path id="Trazado_736919" data-name="Trazado 736919" d="M56.343,441.734a1.221,1.221,0,0,0-.833,1.384,1.143,1.143,0,0,0,1.332.857,1.287,1.287,0,0,0,.874-1.47,1.178,1.178,0,0,0-1.481-.735" transform="translate(-20.685 -164.654)" fill="#e0e0e0"/>
        <g id="Grupo_1034205" data-name="Grupo 1034205" transform="translate(30.705 284.487)" opacity="0.6">
          <g id="Grupo_1034204" data-name="Grupo 1034204">
            <g id="Grupo_1034203" data-name="Grupo 1034203" clip-path="url(#clip-path-10)">
              <path id="Trazado_736920" data-name="Trazado 736920" d="M48.954,455.987l.1-2.416L76.926,454.7s1.291.588,1.138,1.522Z" transform="translate(-48.954 -453.571)" fill="#fff"/>
            </g>
          </g>
        </g>
        <path id="Trazado_736921" data-name="Trazado 736921" d="M70.357,443.62c-.006.145-.717.206-1.42.669-.715.444-1.08,1.072-1.211,1.013-.13-.03.088-.9.948-1.443s1.714-.372,1.682-.238" transform="translate(-25.234 -165.323)" fill="#263238"/>
        <path id="Trazado_736922" data-name="Trazado 736922" d="M75.638,445.768c.031.141-.586.384-1.074,1-.5.6-.632,1.263-.773,1.255-.134.022-.225-.832.4-1.581s1.45-.809,1.452-.67" transform="translate(-27.472 -166.153)" fill="#263238"/>
        <path id="Trazado_736923" data-name="Trazado 736923" d="M79.414,450.307c-.129.03-.322-.7.05-1.494s1.038-1.106,1.1-.985c.079.12-.356.545-.65,1.2-.31.649-.356,1.263-.5,1.276" transform="translate(-29.542 -166.934)" fill="#263238"/>
        <path id="Trazado_736924" data-name="Trazado 736924" d="M69.776,437.777c-.061.132-.712-.074-1.515-.024-.805.033-1.433.3-1.506.179-.081-.106.533-.64,1.481-.685s1.611.417,1.54.531" transform="translate(-24.883 -162.997)" fill="#263238"/>
        <path id="Trazado_736925" data-name="Trazado 736925" d="M43.309,240.285v12.143l3.183,47.308s-1.981,22.949-3.2,35.9c-1.056,11.25.67,30.843.67,30.843H62.494l6.629-65.341,4.115-40.75L80.4,241.844Z" transform="translate(-16.012 -89.575)" fill="#12263f"/>
        <path id="Trazado_736926" data-name="Trazado 736926" d="M100.973,242.893l-3.549,66L78.679,358.309l-.861,2.976-11.07-2.742,8.233-116.936Z" transform="translate(-24.883 -90.067)" fill="#12263f"/>
        <path id="Trazado_736927" data-name="Trazado 736927" d="M84.8,273.117a1.547,1.547,0,0,1,.006.275c0,.2-.009.465-.015.8L84.7,277.29c-.075,2.688-.263,6.573-.529,11.371-.559,9.6-1.6,22.837-3.228,37.408-1.6,14.58-3.368,27.737-4.66,37.256-.657,4.744-1.188,8.59-1.559,11.269-.189,1.315-.337,2.343-.44,3.061l-.123.8a1.689,1.689,0,0,1-.054.269,1.662,1.662,0,0,1,.019-.274l.089-.8c.088-.721.215-1.752.375-3.07.345-2.684.84-6.534,1.45-11.285C77.27,353.764,79,340.6,80.6,326.03c1.626-14.566,2.706-27.8,3.327-37.385.3-4.8.522-8.677.639-11.361.068-1.327.121-2.365.158-3.09.021-.34.038-.606.05-.8a1.643,1.643,0,0,1,.029-.273" transform="translate(-27.625 -101.814)" fill="#455a64"/>
        <path id="Trazado_736928" data-name="Trazado 736928" d="M91.9,246.213a.954.954,0,1,1-.954-.977.966.966,0,0,1,.954.977" transform="translate(-33.547 -91.42)" fill="#455a64"/>
        <path id="Trazado_736929" data-name="Trazado 736929" d="M116.1,254.9a6.085,6.085,0,0,1-1.306-1.255,15.074,15.074,0,0,1-2.33-3.734,15.322,15.322,0,0,1-1.168-4.269,6.329,6.329,0,0,1-.043-1.835c.057,0,.1.7.285,1.8a18.336,18.336,0,0,0,1.241,4.161,18.131,18.131,0,0,0,2.2,3.719c.677.878,1.158,1.372,1.119,1.415" transform="translate(-41.456 -90.887)" fill="#455a64"/>
        <path id="Trazado_736930" data-name="Trazado 736930" d="M115.47,145.359s3.548,1.391,5.188,6.585c1.142,3.613,6.489,30.508,6.489,30.508l-7.453,4.912-3.028-25.157Z" transform="translate(-43.045 -54.188)" fill="#e0e0e0"/>
        <path id="Trazado_736931" data-name="Trazado 736931" d="M59.588,124.872l-2.334,4.142s-15.593,7.926-15.539,8.708c0,0,.866,29.591,1.032,51.294.063,8.2-.238,15.731-.4,19.352-.433,9.5-.768,46.4-.768,46.4l56.452-1.337-10.1-115.711-7.962-3.484-1.017-2.079-3.659-2.969Z" transform="translate(-15.499 -46.55)" fill="#e0e0e0"/>
        <path id="Trazado_736932" data-name="Trazado 736932" d="M106.365,272.519a1.377,1.377,0,0,0,0-.252c-.008-.183-.018-.427-.031-.738-.036-.668-.087-1.619-.153-2.836-.147-2.482-.357-6.039-.617-10.428-.532-8.821-1.265-20.975-2.075-34.4-.773-13.431-1.473-25.589-1.981-34.411l-.559-10.43c-.069-1.216-.123-2.168-.161-2.835-.021-.31-.038-.554-.05-.737a1.451,1.451,0,0,0-.028-.251,1.316,1.316,0,0,0-.006.252c0,.183.009.428.016.738.023.669.055,1.621.1,2.839.086,2.465.247,6.031.451,10.436.418,8.811,1.08,20.98,1.882,34.418s1.582,25.594,2.175,34.4c.3,4.385.553,7.941.725,10.421.093,1.214.166,2.165.217,2.832.028.31.049.554.065.736a1.436,1.436,0,0,0,.034.25" transform="translate(-37.541 -65.312)" fill="#263238"/>
        <path id="Trazado_736933" data-name="Trazado 736933" d="M86.145,130.612l1.312,9.061,2.346,18.19L79.581,140.316,70.7,128.688l14.624,10.247.186-8.494" transform="translate(-26.357 -47.973)" fill="#7e5ee3"/>
        <path id="Trazado_736934" data-name="Trazado 736934" d="M66.46,132.353a4.576,4.576,0,0,0,.281.712l.874,1.963,3.172,6.9.04.087h.1l2.134.008-.1-.285-1.569,1.285-.144.117.133.13,2.975,2.913,9.56,9.274,2.924,2.783.807.744a1.649,1.649,0,0,0,.3.243,1.636,1.636,0,0,0-.25-.292l-.763-.79-2.848-2.86-9.49-9.345-2.981-2.907-.011.247,1.562-1.292.347-.287-.45,0-2.134.008.138.088L67.78,134.95l-.952-1.926a4.58,4.58,0,0,0-.368-.67" transform="translate(-24.775 -49.339)" fill="#263238"/>
        <path id="Trazado_736935" data-name="Trazado 736935" d="M100.506,160.772a7.335,7.335,0,0,0,.205-1.126c.11-.785.257-1.826.435-3.087.351-2.609.814-6.214,1.3-10.2.156-1.286.307-2.531.45-3.714l.018-.146-.143-.035-2.563-.608-.01.3,2.575-.462.171-.031-.072-.155-1.694-3.679c-.194-.4-.353-.731-.484-1a1.448,1.448,0,0,0-.194-.34,1.476,1.476,0,0,0,.122.371l.418,1.031,1.588,3.726.1-.186-2.582.423-.736.121.726.179,2.558.631-.125-.18c-.147,1.182-.3,2.427-.462,3.712-.49,3.985-.914,7.6-1.2,10.211-.134,1.266-.243,2.311-.327,3.1a7.434,7.434,0,0,0-.073,1.142" transform="translate(-37.06 -50.882)" fill="#263238"/>
        <path id="Trazado_736936" data-name="Trazado 736936" d="M74.955,252.383a2.681,2.681,0,0,0-.363.013l-1.089.072-4.163.3-14.917,1.147-.149.012.013.15c.24,2.806.5,5.849.776,9.066.139,1.608.282,3.26.428,4.947q.109,1.264.221,2.555a6.682,6.682,0,0,0,.2,1.316,4.583,4.583,0,0,0,.589,1.224,5.375,5.375,0,0,0,3.509,2.119,28.587,28.587,0,0,0,3.977.212,33.68,33.68,0,0,0,7.455-.818,11.329,11.329,0,0,0,1.7-.554,5.171,5.171,0,0,0,.791-.406,2.288,2.288,0,0,0,.359-.288,3.42,3.42,0,0,0,.282-.353,8.364,8.364,0,0,0,.975-3.178,40.027,40.027,0,0,0,.295-5.9c-.057-3.61-.315-6.52-.508-8.526-.1-1-.19-1.781-.258-2.308l-.083-.6a.918.918,0,0,0-.041-.2,1.093,1.093,0,0,0,.007.206c.013.154.029.352.05.6.046.551.111,1.326.194,2.312.152,2.008.373,4.917.4,8.516a40.555,40.555,0,0,1-.333,5.859,8.162,8.162,0,0,1-.945,3.053,2.583,2.583,0,0,1-1.3.931,11,11,0,0,1-1.654.532,33.643,33.643,0,0,1-7.381.788,28.539,28.539,0,0,1-3.915-.211,5.048,5.048,0,0,1-3.288-1.979,4.271,4.271,0,0,1-.543-1.128,6.328,6.328,0,0,1-.192-1.249q-.113-1.289-.224-2.555-.223-2.53-.437-4.946c-.286-3.216-.557-6.258-.807-9.063l-.137.161,14.812-1.288,4.189-.383,1.115-.109a3.811,3.811,0,0,0,.393-.05" transform="translate(-20.232 -94.084)" fill="#263238"/>
        <g id="Grupo_1034208" data-name="Grupo 1034208" transform="translate(35.704 177.45)" opacity="0.3">
          <g id="Grupo_1034207" data-name="Grupo 1034207">
            <g id="Grupo_1034206" data-name="Grupo 1034206" clip-path="url(#clip-path-11)">
              <path id="Trazado_736937" data-name="Trazado 736937" d="M56.925,282.918c1.59,4.148,5.753,4.4,10.225,3.744,4.212-.617,8.264-1.5,8.574-2.707a5.732,5.732,0,0,1-3.75,4.772,14.547,14.547,0,0,1-6.477.909c-2.3-.1-4.292,0-6.193-1.307a6.25,6.25,0,0,1-2.38-5.412" transform="translate(-56.925 -282.918)"/>
            </g>
          </g>
        </g>
        <path id="Trazado_736938" data-name="Trazado 736938" d="M121.931,218.64a.562.562,0,0,1-.031-.154c-.015-.122-.035-.27-.057-.454-.046-.427-.109-1.012-.189-1.752-.152-1.55-.367-3.746-.632-6.447-.517-5.444-1.207-12.968-1.936-21.28s-1.356-15.845-1.771-21.3c-.208-2.728-.362-4.936-.449-6.463-.05-.763-.068-1.357-.082-1.76,0-.185-.008-.336-.01-.458a.564.564,0,0,1,.008-.157c.154,1.767,1.2,13.751,2.629,30.107.718,8.3,1.367,15.816,1.84,21.288.221,2.705.4,4.9.527,6.455.054.742.1,1.329.128,1.757.01.185.018.336.025.458a.569.569,0,0,1,0,.157" transform="translate(-43.532 -59.056)" fill="#263238"/>
        <path id="Trazado_736939" data-name="Trazado 736939" d="M131.678,204.124a7.929,7.929,0,0,1,.261,2.676c-.13,1.37-.2,4.745-3.85,5.9s-5.429.056-6.558-1.494l-.553-6.712,3.913-2.585Z" transform="translate(-45.099 -75.267)" fill="#e0e0e0"/>
        <g id="Grupo_1034211" data-name="Grupo 1034211" transform="translate(27.617 133.175)" opacity="0.3">
          <g id="Grupo_1034210" data-name="Grupo 1034210">
            <g id="Grupo_1034209" data-name="Grupo 1034209" clip-path="url(#clip-path-12)">
              <path id="Trazado_736940" data-name="Trazado 736940" d="M72.438,212.328s-9.352,9.24-16.616,10.571-9.859-1.268-11.791-7.758Z" transform="translate(-44.031 -212.328)"/>
            </g>
          </g>
        </g>
        <path id="Trazado_736941" data-name="Trazado 736941" d="M39.361,144.993s-5.942,5.511-4.251,18.549c1.572,12.115,4.362,28.992,8.082,30.949s11.748.979,17.621-2.35S83.72,179.807,83.72,179.807l-7.048-12.531-22.711,8.81s-2.937-20.1-4.7-23.557" transform="translate(-12.975 -54.051)" fill="#e0e0e0"/>
        <path id="Trazado_736942" data-name="Trazado 736942" d="M49.093,152.391s.065.127.177.384c.055.129.128.287.2.481l.222.686c.334,1.041.732,2.6,1.165,4.634.876,4.061,1.933,9.985,3.052,17.355l-.165-.1,22.7-8.843.127-.05.067.119L83.7,179.586l.083.148-.151.082-14.562,7.846-7.143,3.845c-1.172.626-2.34,1.286-3.554,1.808a30.092,30.092,0,0,1-3.712,1.286,24.327,24.327,0,0,1-7.575.876,11.093,11.093,0,0,1-3.643-.764l-.426-.191a4.147,4.147,0,0,1-.409-.254,4.31,4.31,0,0,1-.66-.667,9.013,9.013,0,0,1-.962-1.546,34.955,34.955,0,0,1-2.277-6.573c-.571-2.18-1.023-4.32-1.431-6.392-.8-4.148-1.4-8.038-1.9-11.594a54.537,54.537,0,0,1-.8-9.658,23.994,23.994,0,0,1,1.289-7.195,15.853,15.853,0,0,1,2.153-4.089,8.862,8.862,0,0,1,.778-.92,2.97,2.97,0,0,1,.3-.276s-.1.1-.278.3a10.506,10.506,0,0,0-.748.936,16.3,16.3,0,0,0-2.083,4.093,24.131,24.131,0,0,0-1.223,7.157,55.019,55.019,0,0,0,.852,9.617c.514,3.551,1.123,7.435,1.938,11.573.413,2.067.87,4.2,1.443,6.37a34.761,34.761,0,0,0,2.268,6.507,8.749,8.749,0,0,0,.928,1.489,3.96,3.96,0,0,0,.608.613,3.919,3.919,0,0,0,.361.223l.406.18a10.777,10.777,0,0,0,3.536.734,24.032,24.032,0,0,0,7.468-.874,29.818,29.818,0,0,0,3.666-1.273c1.2-.518,2.341-1.163,3.521-1.794l7.145-3.848,14.571-7.842-.068.229-7.039-12.535.193.069-22.724,8.778-.142.055-.023-.151c-1.088-7.37-2.108-13.3-2.942-17.362-.413-2.033-.789-3.6-1.1-4.642q-.116-.39-.206-.689l-.186-.484c-.1-.26-.144-.4-.144-.4" transform="translate(-12.879 -54.188)" fill="#263238"/>
        <rect id="Rectángulo_350769" data-name="Rectángulo 350769" width="11.27" height="3.753" transform="translate(44.347 109.481)" fill="#fff"/>
        <path id="Trazado_736943" data-name="Trazado 736943" d="M74.424,177.083a19.049,19.049,0,0,1,3.514-.163,19.044,19.044,0,0,1,3.514.163,19.044,19.044,0,0,1-3.514.163,19.049,19.049,0,0,1-3.514-.163" transform="translate(-27.744 -65.953)" fill="#263238"/>
        <g id="Grupo_1034214" data-name="Grupo 1034214" transform="translate(42.841 85.688)" opacity="0.3">
          <g id="Grupo_1034213" data-name="Grupo 1034213">
            <g id="Grupo_1034212" data-name="Grupo 1034212" clip-path="url(#clip-path-13)">
              <path id="Trazado_736944" data-name="Trazado 736944" d="M88.334,160.575,71.747,147.117l.4-1.176H70.7L68.3,136.617l3.449,6.771,2-.1-1.449,1.33Z" transform="translate(-68.303 -136.617)"/>
            </g>
          </g>
        </g>
        <path id="Trazado_736945" data-name="Trazado 736945" d="M65.573,143.055l.6-.253c-.014-.032-1.365-3.272-2.694-6.707a6.617,6.617,0,0,1-.565-3.376,1.567,1.567,0,0,1,1.587-1.275l.442-.231.226-.4a2.673,2.673,0,0,0-2.9,1.794,7.232,7.232,0,0,0,.6,3.725c1.333,3.443,2.688,6.691,2.7,6.723" transform="translate(-23.192 -48.75)" fill="#455a64"/>
        <path id="Trazado_736946" data-name="Trazado 736946" d="M65.2,157.529l.834-.324c-.684-1.759-1.618-4.878-1.216-5.755a2.582,2.582,0,0,1,1.793-1.184,3,3,0,0,1,2.616.536c.955.807,2.4,3.659,2.872,4.69l.812-.374c-.073-.159-1.805-3.9-3.107-5a3.881,3.881,0,0,0-3.388-.726,3.429,3.429,0,0,0-2.41,1.684c-.676,1.475.877,5.634,1.2,6.452" transform="translate(-23.799 -55.65)" fill="#455a64"/>
        <path id="Trazado_736947" data-name="Trazado 736947" d="M75.079,175.751a4.123,4.123,0,0,0,3.016-1.648l-.334-.3c-1.07,1.206-2.169,1.686-3.267,1.429-4.459-1.048-7.853-13.439-7.887-13.564l-.432.117c.141.521,3.5,12.773,8.217,13.882a3,3,0,0,0,.687.081" transform="translate(-24.669 -60.269)" fill="#263238"/>
        <path id="Trazado_736948" data-name="Trazado 736948" d="M83.717,181.211h0a.536.536,0,0,0,.695.048l.968-.719a.641.641,0,1,0-.805-.988l-.869.906a.536.536,0,0,0,.011.753" transform="translate(-31.148 -66.864)" fill="#263238"/>
        <path id="Trazado_736949" data-name="Trazado 736949" d="M76.816,175.057a3.49,3.49,0,0,0,3.042-1.357c2.742-3.845-2.427-14.521-2.648-14.973l-.4.2c.053.109,5.274,10.888,2.686,14.518-.675.946-1.86,1.322-3.525,1.115l-.055.443a7.257,7.257,0,0,0,.9.058" transform="translate(-28.3 -59.171)" fill="#263238"/>
        <path id="Trazado_736950" data-name="Trazado 736950" d="M76.041,183.975h0a.535.535,0,0,1-.49.495l-1.2.1A.641.641,0,1,1,74.3,183.3l1.251.106a.536.536,0,0,1,.489.573" transform="translate(-27.444 -68.33)" fill="#263238"/>
        <path id="Trazado_736951" data-name="Trazado 736951" d="M106.619,156.524a3.189,3.189,0,1,0,3.189-3.189,3.189,3.189,0,0,0-3.189,3.189" transform="translate(-39.746 -57.161)" fill="#263238"/>
        <path id="Trazado_736952" data-name="Trazado 736952" d="M106.619,156.524a3.189,3.189,0,1,0,3.189-3.189,3.189,3.189,0,0,0-3.189,3.189" transform="translate(-39.746 -57.161)" fill="#263238"/>
        <path id="Trazado_736953" data-name="Trazado 736953" d="M107.948,157.019a2.356,2.356,0,1,0,2.355-2.355,2.355,2.355,0,0,0-2.355,2.355" transform="translate(-40.241 -57.656)" fill="#e0e0e0"/>
        <path id="Trazado_736954" data-name="Trazado 736954" d="M99.05,134.368c.3.435,3.628,7.463,5.45,11.007l.531-.273c-.268-.521-5.111-10.516-5.489-11.07l-3.525-2.891-.125.669Z" transform="translate(-35.747 -48.887)" fill="#455a64"/>
        <path id="Trazado_736955" data-name="Trazado 736955" d="M98.611,157.246c2.308,2.3,8.149,8.3,8.149,8.3l1.565-.943-8.234-8.787a1.03,1.03,0,0,0-1.321-.154h0a1.029,1.029,0,0,0-.159,1.586" transform="translate(-36.648 -57.963)" fill="#263238"/>
        <path id="Trazado_736956" data-name="Trazado 736956" d="M101.44,175.535l1.963-5.527a3.1,3.1,0,0,1,2.829-2.123,2.462,2.462,0,0,1,.3.014c1.175.13,7.179.522,7.179.522l2.324,2.6a1.2,1.2,0,0,1,.026,1.574l.667,4.7-1.32.893.13,3.285s-1.175.783-1.7.522l-.522-.261-.783-.783-2.219,3.133-3.068,1.775Z" transform="translate(-37.815 -62.585)" fill="#ffc09d"/>
        <path id="Trazado_736957" data-name="Trazado 736957" d="M120.081,174.361a9.73,9.73,0,0,0-.84-.914,3.9,3.9,0,0,0-1.121-.676,8.7,8.7,0,0,0-1.624-.22,27.529,27.529,0,0,1-4.286-.573,27.431,27.431,0,0,1,4.318.234,7.562,7.562,0,0,1,1.7.263,3.688,3.688,0,0,1,1.179.8,1.963,1.963,0,0,1,.677,1.091" transform="translate(-41.83 -64.098)" fill="#ff9b6c"/>
        <path id="Trazado_736958" data-name="Trazado 736958" d="M120.277,180.36a9.192,9.192,0,0,0-.483-1.2,4.688,4.688,0,0,0-2.321-1.945,8.82,8.82,0,0,0-3.07-.516,7.034,7.034,0,0,1-1.322-.043,4.087,4.087,0,0,1,1.318-.2,7.627,7.627,0,0,1,3.2.44,4.528,4.528,0,0,1,2.409,2.149,2.084,2.084,0,0,1,.27,1.315" transform="translate(-42.155 -65.774)" fill="#ff9b6c"/>
        <path id="Trazado_736959" data-name="Trazado 736959" d="M119.889,186.534a2.549,2.549,0,0,1-.314-1.3,4.3,4.3,0,0,0-.295-1.345,1.666,1.666,0,0,0-1.232-.937,23.183,23.183,0,0,0-3.125-.45,3.55,3.55,0,0,1-1.3-.3,9.732,9.732,0,0,1,1.319.061,15.4,15.4,0,0,1,3.194.362,2.5,2.5,0,0,1,.88.4,1.79,1.79,0,0,1,.551.736,4.039,4.039,0,0,1,.247,1.455c0,.817.112,1.3.073,1.312" transform="translate(-42.358 -67.917)" fill="#ff9b6c"/>
        <path id="Trazado_736960" data-name="Trazado 736960" d="M113.441,172.572,87.553,199.31l1,1.01,18.547-2.089,24.958-23.775-.028-1.145Z" transform="translate(-32.638 -64.332)" fill="#12263f"/>
        <g id="Grupo_1034217" data-name="Grupo 1034217" transform="translate(74.306 119.171)" opacity="0.3">
          <g id="Grupo_1034216" data-name="Grupo 1034216">
            <g id="Grupo_1034215" data-name="Grupo 1034215" clip-path="url(#clip-path-14)">
              <path id="Trazado_736961" data-name="Trazado 736961" d="M129.818,191.542a5.9,5.9,0,0,0-4.544-1.521,8.338,8.338,0,0,0-4.483,1.892,6.026,6.026,0,0,0-2.231,3.194c-.525,2.249,1.324,5.39,3.361,6.479,2.584-2.075,5.1-5.257,7.682-7.333a2.177,2.177,0,0,0,.9-1.145,1.812,1.812,0,0,0-.682-1.567" transform="translate(-118.469 -190.001)"/>
            </g>
          </g>
        </g>
        <path id="Trazado_736962" data-name="Trazado 736962" d="M132.546,175.142a1.591,1.591,0,0,1-.341.019l-.988,0-3.711-.043-12.9-.248.119-.049-6.487,6.727L94.784,195.394l-4.1,4.168-1.128,1.121a3.415,3.415,0,0,1-.41.375,3.418,3.418,0,0,1,.361-.423l1.082-1.165,4.026-4.244,13.377-13.912,6.5-6.712.05-.051.07,0,12.9.371,3.709.135.987.05a1.594,1.594,0,0,1,.34.035" transform="translate(-33.231 -65.07)" fill="#263238"/>
        <path id="Trazado_736963" data-name="Trazado 736963" d="M128.667,188a12.4,12.4,0,0,1,3.329.457,22.55,22.55,0,0,1,3.067,2.807s0,1.631-.652,1.7a6.193,6.193,0,0,1,.13,1.11,1.832,1.832,0,0,1-1.044,2.219s.13,1.5-.326,1.892a9.4,9.4,0,0,1-.979.718s-.071,1.652-2.284,1.631l-2.074.914s-4.616-.433-4.13-.975a21.649,21.649,0,0,0,1.6-3.25s-3.16-2.3-3.095-3.02.326-.783.326-.783-.13-1.37.979-1.5c0,0,.849-1.7,1.7-1.762s6.592,2.023,6.592,2.023l-2.154-1.827s-2.154-.326-2.089-1.044,1.11-1.305,1.11-1.305" transform="translate(-45.556 -70.083)" fill="#ffc09d"/>
        <path id="Trazado_736964" data-name="Trazado 736964" d="M128.433,200.026a31.911,31.911,0,0,1-2.913-1.414,31.86,31.86,0,0,1-2.919-1.4,15.26,15.26,0,0,1,5.832,2.817" transform="translate(-45.704 -73.512)" fill="#ff9b6c"/>
        <path id="Trazado_736965" data-name="Trazado 736965" d="M132.283,196.882a22.777,22.777,0,0,1-3.745-1.215,22.781,22.781,0,0,1-3.627-1.534,22.94,22.94,0,0,1,3.746,1.215,22.82,22.82,0,0,1,3.626,1.534" transform="translate(-46.565 -72.366)" fill="#ff9b6c"/>
        <path id="Trazado_736966" data-name="Trazado 736966" d="M70.4,94.175a51.447,51.447,0,0,1-1.794-8.7,17.985,17.985,0,0,1,1.155-8.725c.178-.413,1.656-3.166,2.1-3.1.318.048-.639,2.639-.492,2.924a15.244,15.244,0,0,1,1.256,8.966A40.148,40.148,0,0,1,70.4,94.175" transform="translate(-25.54 -27.456)" fill="#263238"/>
        <path id="Trazado_736967" data-name="Trazado 736967" d="M71.357,80.487c.141-7.433,4.585-13.547,12.011-13.2l.685.072A13.291,13.291,0,0,1,95.949,80.9c-.159,6.442-.416,13.558-.819,16.981-.835,7.085-8.048,7.44-8.048,7.44-.016,0-1.639,10.928-1.639,10.928L70.294,105.73Z" transform="translate(-26.205 -25.079)" fill="#ffc09d"/>
        <path id="Trazado_736968" data-name="Trazado 736968" d="M91.741,125.821a17.231,17.231,0,0,1-8.949-3.7,8.559,8.559,0,0,0,8.563,6.174Z" transform="translate(-30.864 -45.523)" fill="#ff9b6c"/>
        <path id="Trazado_736969" data-name="Trazado 736969" d="M105.674,97.852a1.019,1.019,0,0,1-1.084.92.975.975,0,0,1-.948-1.024,1.019,1.019,0,0,1,1.084-.92.975.975,0,0,1,.949,1.024" transform="translate(-38.635 -36.096)" fill="#263238"/>
        <path id="Trazado_736970" data-name="Trazado 736970" d="M105.907,92.674c-.139.119-.847-.529-1.937-.642-1.088-.127-1.947.349-2.052.2-.051-.065.1-.291.477-.507a2.8,2.8,0,0,1,1.659-.327,2.7,2.7,0,0,1,1.525.677c.308.293.4.544.328.6" transform="translate(-37.99 -34.067)" fill="#263238"/>
        <path id="Trazado_736971" data-name="Trazado 736971" d="M90.806,97.157a1.019,1.019,0,0,1-1.084.919.975.975,0,0,1-.948-1.024,1.019,1.019,0,0,1,1.084-.919.976.976,0,0,1,.949,1.024" transform="translate(-33.093 -35.836)" fill="#263238"/>
        <path id="Trazado_736972" data-name="Trazado 736972" d="M88.807,91.583c-.14.119-.849-.53-1.938-.642-1.088-.127-1.947.349-2.051.2-.052-.065.1-.29.476-.507a2.794,2.794,0,0,1,1.66-.327,2.694,2.694,0,0,1,1.525.676c.307.293.4.544.329.6" transform="translate(-31.615 -33.66)" fill="#263238"/>
        <path id="Trazado_736973" data-name="Trazado 736973" d="M96.011,100.933a7.224,7.224,0,0,1,1.8-.133c.282,0,.551-.027.618-.212a1.427,1.427,0,0,0-.1-.845l-.6-2.207a36.724,36.724,0,0,1-1.265-5.74,36.617,36.617,0,0,1,1.724,5.624q.294,1.16.563,2.216a1.618,1.618,0,0,1,.029,1.108.7.7,0,0,1-.5.359,1.9,1.9,0,0,1-.48.016,7.111,7.111,0,0,1-1.8-.187" transform="translate(-35.791 -34.22)" fill="#263238"/>
        <path id="Trazado_736974" data-name="Trazado 736974" d="M90.62,107.025c.179.008.056,1.192.98,2.139s2.2.949,2.19,1.116c.009.076-.3.2-.839.158a2.958,2.958,0,0,1-1.835-.864,2.585,2.585,0,0,1-.746-1.786c.007-.5.17-.778.25-.763" transform="translate(-33.688 -39.897)" fill="#263238"/>
        <path id="Trazado_736975" data-name="Trazado 736975" d="M88.844,84.653c-.139.285-1.212.03-2.508.049-1.3-.006-2.367.259-2.509-.024-.062-.135.147-.4.595-.638a4.361,4.361,0,0,1,3.822-.019c.45.238.661.5.6.632" transform="translate(-31.246 -31.161)" fill="#263238"/>
        <path id="Trazado_736976" data-name="Trazado 736976" d="M105.98,86.788c-.218.227-.942-.109-1.843-.216-.9-.139-1.686-.009-1.835-.287-.063-.134.083-.369.442-.568a2.688,2.688,0,0,1,2.964.405c.292.288.37.554.273.666" transform="translate(-38.131 -31.852)" fill="#263238"/>
        <path id="Trazado_736977" data-name="Trazado 736977" d="M69,96.566c-.115-.065-4.723-1.956-5.079,2.911s4.6,4.221,4.622,4.081S69,96.566,69,96.566" transform="translate(-23.822 -35.844)" fill="#ffc09d"/>
        <path id="Trazado_736978" data-name="Trazado 736978" d="M67.929,102.52c-.02-.017-.089.053-.237.108a.849.849,0,0,1-.635-.033,2.1,2.1,0,0,1-.833-1.953,2.806,2.806,0,0,1,.326-1.2.983.983,0,0,1,.686-.6.432.432,0,0,1,.483.269c.055.141.018.236.043.246s.11-.074.086-.278a.541.541,0,0,0-.169-.319.642.642,0,0,0-.46-.159,1.2,1.2,0,0,0-.941.69,2.886,2.886,0,0,0-.393,1.335,2.207,2.207,0,0,0,1.083,2.192.911.911,0,0,0,.785-.071c.159-.11.193-.216.177-.226" transform="translate(-24.56 -36.757)" fill="#ff9b6c"/>
        <path id="Trazado_736979" data-name="Trazado 736979" d="M92.741,72.081c.815-.384-1.385-3.088-3.265-4.092-2.842-1.516-7.259-2.622-10.007-2.03-3.309.712-6.112,2.155-7.933,5.007a19.181,19.181,0,0,0-2.779,9.641,5.823,5.823,0,0,0,.494,3.019c.611,1.121,1.872,1.883,1.72,3.364a2.042,2.042,0,0,0,.41,1.519c.83,1,1.978.184,2.536-.676,1.193-1.838,1.458-4.108,1.693-6.287A14.268,14.268,0,0,0,75.6,76.9c-.186-.827-.52-1.619-.66-2.455a2.931,2.931,0,0,1,.5-2.409,2.993,2.993,0,0,1,.421-.375,5.091,5.091,0,0,1,5.1-.635c2.679,1.147,7.268,2.9,8.551,2.045A7.521,7.521,0,0,0,91.838,71Z" transform="translate(-25.627 -24.528)" fill="#263238"/>
      </g>
    </g>
  </g>
</svg>
