<svg id="Grupo_1034283" data-name="Grupo 1034283" xmlns="http://www.w3.org/2000/svg" xmlns:xlink="http://www.w3.org/1999/xlink" width="306.19" height="305.675" viewBox="0 0 306.19 305.675">
  <defs>
    <clipPath id="clip-path">
      <rect id="Rectángulo_350804" data-name="Rectángulo 350804" width="306.19" height="305.675" fill="none"/>
    </clipPath>
    <clipPath id="clip-path-4">
      <rect id="Rectángulo_350792" data-name="Rectángulo 350792" width="4.302" height="11.121" fill="none"/>
    </clipPath>
    <clipPath id="clip-path-7">
      <rect id="Rectángulo_350795" data-name="Rectángulo 350795" width="1.748" height="1.741" fill="none"/>
    </clipPath>
    <clipPath id="clip-path-8">
      <rect id="Rectángulo_350796" data-name="Rectángulo 350796" width="22.404" height="2.384" fill="none"/>
    </clipPath>
    <clipPath id="clip-path-9">
      <rect id="Rectángulo_350797" data-name="Rectángulo 350797" width="11.127" height="2.754" fill="none"/>
    </clipPath>
    <clipPath id="clip-path-10">
      <rect id="Rectángulo_350798" data-name="Rectángulo 350798" width="1.746" height="1.741" fill="none"/>
    </clipPath>
    <clipPath id="clip-path-11">
      <rect id="Rectángulo_350799" data-name="Rectángulo 350799" width="22.408" height="1.815" fill="none"/>
    </clipPath>
    <clipPath id="clip-path-12">
      <rect id="Rectángulo_350800" data-name="Rectángulo 350800" width="11.1" height="2.421" fill="none"/>
    </clipPath>
    <clipPath id="clip-path-14">
      <rect id="Rectángulo_350802" data-name="Rectángulo 350802" width="61.765" height="80.651" fill="#81d4fa"/>
    </clipPath>
  </defs>
  <g id="Grupo_1034282" data-name="Grupo 1034282" clip-path="url(#clip-path)">
    <g id="Grupo_1034249" data-name="Grupo 1034249">
      <g id="Grupo_1034248" data-name="Grupo 1034248" clip-path="url(#clip-path)">
        <path id="Trazado_737288" data-name="Trazado 737288" d="M105.655,283.117,56.824,307.864a3.6,3.6,0,0,1-4.84-1.585L1.8,207.262a3.6,3.6,0,0,1,1.584-4.84l48.831-24.748a3.6,3.6,0,0,1,4.84,1.585l50.182,99.017a3.6,3.6,0,0,1-1.585,4.84" transform="translate(-0.437 -54.818)" fill="#ebebeb"/>
        <path id="Trazado_737289" data-name="Trazado 737289" d="M37.342,228.15a4.527,4.527,0,1,1-6.084-1.992,4.527,4.527,0,0,1,6.084,1.992" transform="translate(-8.898 -69.779)" fill="#fafafa"/>
        <path id="Trazado_737290" data-name="Trazado 737290" d="M71.352,210.914a4.527,4.527,0,1,1-6.084-1.992,4.527,4.527,0,0,1,6.084,1.992" transform="translate(-19.414 -64.45)" fill="#fafafa"/>
        <path id="Trazado_737291" data-name="Trazado 737291" d="M53.366,259.769a4.527,4.527,0,1,1-6.084-1.992,4.527,4.527,0,0,1,6.084,1.992" transform="translate(-13.853 -79.556)" fill="#fafafa"/>
        <path id="Trazado_737292" data-name="Trazado 737292" d="M87.377,242.533a4.527,4.527,0,1,1-6.084-1.992,4.527,4.527,0,0,1,6.084,1.992" transform="translate(-24.369 -74.227)" fill="#fafafa"/>
        <path id="Trazado_737293" data-name="Trazado 737293" d="M69.391,291.389a4.527,4.527,0,1,1-6.084-1.992,4.527,4.527,0,0,1,6.084,1.992" transform="translate(-18.808 -89.334)" fill="#fafafa"/>
        <path id="Trazado_737294" data-name="Trazado 737294" d="M103.4,274.152a4.527,4.527,0,1,1-6.084-1.992,4.527,4.527,0,0,1,6.084,1.992" transform="translate(-29.324 -84.004)" fill="#fafafa"/>
        <path id="Trazado_737295" data-name="Trazado 737295" d="M85.415,323.008a4.527,4.527,0,1,1-6.084-1.992,4.527,4.527,0,0,1,6.084,1.992" transform="translate(-23.763 -99.11)" fill="#fafafa"/>
        <path id="Trazado_737296" data-name="Trazado 737296" d="M119.426,305.772a4.527,4.527,0,1,1-6.084-1.992,4.527,4.527,0,0,1,6.084,1.992" transform="translate(-34.279 -93.781)" fill="#fafafa"/>
        <path id="Trazado_737297" data-name="Trazado 737297" d="M35.964,226.27a25.37,25.37,0,0,1-1.205,4.091,25.312,25.312,0,0,1-1.547,3.975,25.438,25.438,0,0,1,1.206-4.092,25.441,25.441,0,0,1,1.546-3.974" transform="translate(-10.266 -69.965)" fill="#e0e0e0"/>
        <path id="Trazado_737298" data-name="Trazado 737298" d="M69.229,209.1a25.393,25.393,0,0,1-1.205,4.091,25.251,25.251,0,0,1-1.547,3.974,50.609,50.609,0,0,1,2.752-8.065" transform="translate(-20.552 -64.657)" fill="#e0e0e0"/>
        <path id="Trazado_737299" data-name="Trazado 737299" d="M52.518,257.844a26.594,26.594,0,0,1-.977,4.255,26.545,26.545,0,0,1-1.325,4.16,52.9,52.9,0,0,1,2.3-8.415" transform="translate(-15.523 -79.728)" fill="#e0e0e0"/>
        <path id="Trazado_737300" data-name="Trazado 737300" d="M86.262,240.592a48.994,48.994,0,0,1-1.911,8.16,48.813,48.813,0,0,1,1.911-8.16" transform="translate(-26.077 -74.394)" fill="#e0e0e0"/>
        <path id="Trazado_737301" data-name="Trazado 737301" d="M67.533,289.475a22.319,22.319,0,0,1-.894,3.9,22.32,22.32,0,0,1-1.241,3.8,44.521,44.521,0,0,1,2.135-7.7" transform="translate(-20.217 -89.509)" fill="#e0e0e0"/>
        <path id="Trazado_737302" data-name="Trazado 737302" d="M102.221,272.676a45.805,45.805,0,0,1-2.745,7.628,45.75,45.75,0,0,1,2.745-7.628" transform="translate(-30.756 -84.314)" fill="#e0e0e0"/>
        <path id="Trazado_737303" data-name="Trazado 737303" d="M84.218,321.424a25.115,25.115,0,0,1-1.323,4.032,25.109,25.109,0,0,1-1.66,3.906,50.2,50.2,0,0,1,2.983-7.938" transform="translate(-25.116 -99.388)" fill="#e0e0e0"/>
        <path id="Trazado_737304" data-name="Trazado 737304" d="M118.32,303.129a59.42,59.42,0,0,1-2.258,8.948,59.368,59.368,0,0,1,2.258-8.948" transform="translate(-35.884 -93.731)" fill="#e0e0e0"/>
        <path id="Trazado_737305" data-name="Trazado 737305" d="M121.051,323.3c.045.088-7.141,3.821-16.046,8.334s-16.167,8.1-16.211,8.015,7.139-3.82,16.048-8.335,16.164-8.1,16.209-8.013" transform="translate(-27.456 -99.968)" fill="#e0e0e0"/>
        <path id="Trazado_737306" data-name="Trazado 737306" d="M53.563,196.613c.045.088-7.141,3.82-16.047,8.334s-16.166,8.1-16.211,8.015,7.139-3.82,16.048-8.335,16.164-8.1,16.209-8.013" transform="translate(-6.588 -60.795)" fill="#e0e0e0"/>
        <path id="Trazado_737307" data-name="Trazado 737307" d="M46.2,214.925a.241.241,0,0,1-.128.028.133.133,0,0,1-.052-.015L46,214.923l-.008-.009,0,0v0h0l.321-.163h0c.029.057-.019.139-.108.184s-.184.035-.213-.021h0l.321-.163h0l0,0v.006l0,.011v.024a.16.16,0,0,1-.018.05.232.232,0,0,1-.1.088" transform="translate(-14.22 -66.4)" fill="#e0e0e0"/>
        <path id="Trazado_737308" data-name="Trazado 737308" d="M90.489,296.146c-.088.045-10.175-19.678-22.524-44.046S45.671,207.932,45.76,207.887s10.172,19.674,22.526,44.05,22.292,44.164,22.2,44.209" transform="translate(-14.149 -64.281)" fill="#e0e0e0"/>
        <path id="Trazado_737309" data-name="Trazado 737309" d="M13.51,346.881c-.086,15.475-.142,40.463-.164,51.94a6.139,6.139,0,0,0,6.113,6.149l42.265.193a6.141,6.141,0,0,0,6.168-6.113l.235-51.487a13.632,13.632,0,0,0-13.57-13.694l.035-7.572-27.677-.126-.033,7.159-.1,0A13.629,13.629,0,0,0,13.51,346.881" transform="translate(-4.127 -100.855)" fill="#f5f5f5"/>
        <path id="Trazado_737310" data-name="Trazado 737310" d="M32.973,327.564l-.016,3.444,27.673,1.109.02-4.426Z" transform="translate(-10.191 -101.286)" fill="#e0e0e0"/>
        <path id="Trazado_737311" data-name="Trazado 737311" d="M61.183,324.75,29.7,324.606a1.333,1.333,0,0,1-1.328-1.34l.047-10.339A2.066,2.066,0,0,1,30.5,310.87l30.015.137a2.066,2.066,0,0,1,2.056,2.076l-.047,10.34a1.334,1.334,0,0,1-1.34,1.328" transform="translate(-8.774 -96.124)" fill="#f5f5f5"/>
        <path id="Trazado_737312" data-name="Trazado 737312" d="M34.544,324.729c-.2,0-.35-3.064-.332-6.84s.194-6.838.394-6.837.35,3.063.332,6.841-.194,6.837-.394,6.837" transform="translate(-10.578 -96.18)" fill="#e0e0e0"/>
        <path id="Trazado_737313" data-name="Trazado 737313" d="M39.824,324.753c-.2,0-.35-3.064-.332-6.84s.194-6.838.394-6.837.35,3.063.332,6.841-.194,6.837-.394,6.837" transform="translate(-12.211 -96.188)" fill="#e0e0e0"/>
        <path id="Trazado_737314" data-name="Trazado 737314" d="M45.1,324.777c-.2,0-.35-3.064-.332-6.84s.194-6.838.394-6.837.35,3.063.332,6.841-.194,6.837-.394,6.837" transform="translate(-13.843 -96.195)" fill="#e0e0e0"/>
        <path id="Trazado_737315" data-name="Trazado 737315" d="M50.384,324.8c-.2,0-.35-3.064-.332-6.84s.194-6.838.394-6.837.35,3.063.332,6.841-.194,6.837-.394,6.837" transform="translate(-15.476 -96.203)" fill="#e0e0e0"/>
        <path id="Trazado_737316" data-name="Trazado 737316" d="M55.664,324.826c-.2,0-.35-3.064-.332-6.84s.194-6.838.394-6.837.35,3.063.332,6.841-.194,6.837-.394,6.837" transform="translate(-17.109 -96.21)" fill="#e0e0e0"/>
        <path id="Trazado_737317" data-name="Trazado 737317" d="M60.944,324.85c-.2,0-.35-3.064-.332-6.84s.194-6.838.394-6.837.35,3.063.332,6.841-.194,6.837-.394,6.837" transform="translate(-18.741 -96.218)" fill="#e0e0e0"/>
        <path id="Trazado_737318" data-name="Trazado 737318" d="M66.224,324.874c-.2,0-.35-3.064-.332-6.84s.194-6.838.394-6.837.35,3.063.332,6.841-.194,6.837-.394,6.837" transform="translate(-20.374 -96.225)" fill="#e0e0e0"/>
        <path id="Trazado_737319" data-name="Trazado 737319" d="M71.5,324.9c-.2,0-.35-3.064-.332-6.84s.194-6.838.394-6.837.35,3.063.332,6.841S71.7,324.9,71.5,324.9" transform="translate(-22.007 -96.233)" fill="#e0e0e0"/>
        <path id="Trazado_737320" data-name="Trazado 737320" d="M63.189,393.405l-37.609-.171a1.024,1.024,0,0,1-1.02-1.029l.11-24.183A1.025,1.025,0,0,1,25.7,367l37.609.172a1.023,1.023,0,0,1,1.02,1.029l-.111,24.183a1.023,1.023,0,0,1-1.029,1.02" transform="translate(-7.595 -113.481)" fill="#ebebeb"/>
        <path id="Trazado_737321" data-name="Trazado 737321" d="M62.416,392.178a2.671,2.671,0,0,1-.029-.439c-.007-.327-.016-.729-.027-1.223-.012-1.125-.03-2.665-.052-4.6-.019-4.006-.045-9.648-.077-16.508l.287.29-34.758-.084c-.082.078.688-.684.362-.359v.374l0,.379,0,.756-.007,1.5q-.008,1.5-.015,2.977-.017,2.954-.032,5.815c-.025,3.808-.049,7.476-.072,10.963l-.332-.335,24.943.278,7.191.123,1.933.049a5.15,5.15,0,0,1,.693.043,3.339,3.339,0,0,1-.616.037l-1.867.032-7.117.057-25.163.05H27.32v-.336c.009-3.486.018-7.155.028-10.963q.01-2.859.021-5.816.006-1.478.012-2.977l.006-1.5,0-.756,0-.379v-.374c-.327.321.445-.443.368-.365l34.758.233.292,0,0,.288c-.1,6.933-.173,12.637-.229,16.685-.039,1.911-.071,3.428-.094,4.538-.015.471-.028.855-.037,1.168a1.554,1.554,0,0,1-.033.378" transform="translate(-8.446 -114.062)" fill="#e0e0e0"/>
        <path id="Trazado_737322" data-name="Trazado 737322" d="M59.869,380.088c0,.2-5.29.339-11.812.309s-11.81-.216-11.81-.417,5.289-.339,11.813-.309,11.81.217,11.809.417" transform="translate(-11.208 -117.397)" fill="#e0e0e0"/>
        <path id="Trazado_737323" data-name="Trazado 737323" d="M59.842,385.9c0,.2-5.29.339-11.812.309s-11.81-.216-11.81-.417,5.289-.339,11.813-.309,11.81.217,11.809.417" transform="translate(-11.2 -119.195)" fill="#e0e0e0"/>
        <path id="Trazado_737324" data-name="Trazado 737324" d="M59.817,391.486c0,.2-5.29.339-11.812.309s-11.81-.216-11.81-.417,5.289-.339,11.813-.309,11.81.217,11.809.417" transform="translate(-11.192 -120.922)" fill="#e0e0e0"/>
        <path id="Trazado_737325" data-name="Trazado 737325" d="M59.175,336.768c0,.2-5.774.337-12.892.3s-12.891-.222-12.889-.422,5.772-.337,12.892-.3,12.889.221,12.889.422" transform="translate(-10.326 -104)" fill="#e0e0e0"/>
        <path id="Trazado_737326" data-name="Trazado 737326" d="M16.58,400.813a15.543,15.543,0,0,1-.123-2.437c-.017-1.69-.039-3.931-.066-6.644-.024-5.61-.007-13.36.057-21.918.043-4.275.084-8.347.122-12.069.032-3.705.408-7.152,1.641-9.762a10.734,10.734,0,0,1,4.411-4.987,7.537,7.537,0,0,1,1.7-.674,2.052,2.052,0,0,1,.631-.088,14.958,14.958,0,0,0-2.187,1.007,10.831,10.831,0,0,0-4.085,4.952c-1.123,2.531-1.444,5.874-1.44,9.561-.02,3.721-.041,7.792-.064,12.066-.064,8.558-.163,16.307-.271,21.916-.067,2.713-.123,4.954-.165,6.643a15.631,15.631,0,0,1-.16,2.435" transform="translate(-5.065 -105.819)" fill="#fff"/>
        <path id="Trazado_737327" data-name="Trazado 737327" d="M67.474,435.294a10.468,10.468,0,0,1-1.9-.6c-.6-.222-1.331-.484-2.2-.741s-1.835-.609-2.941-.879a67.931,67.931,0,0,0-7.8-1.668,73.21,73.21,0,0,0-9.732-.761,73.158,73.158,0,0,0-9.74.674,67.875,67.875,0,0,0-7.818,1.6c-1.109.26-2.082.6-2.95.852s-1.606.5-2.206.72a10.472,10.472,0,0,1-1.9.582,10.407,10.407,0,0,1,1.8-.846c.587-.258,1.313-.554,2.177-.841s1.831-.667,2.94-.962a60.181,60.181,0,0,1,7.858-1.766,67.656,67.656,0,0,1,9.842-.738,67.584,67.584,0,0,1,9.833.826,60.022,60.022,0,0,1,7.842,1.836c1.106.3,2.073.686,2.931.988s1.585.6,2.169.861a10.386,10.386,0,0,1,1.793.862" transform="translate(-5.655 -132.936)" fill="#fff"/>
        <path id="Trazado_737328" data-name="Trazado 737328" d="M338.967,115.348a2.055,2.055,0,0,1,.269-.192l.808-.529a13.315,13.315,0,0,0,1.285-.9,20.458,20.458,0,0,0,1.67-1.335l.956-.84.989-1a14.351,14.351,0,0,0,1.031-1.129c.34-.408.725-.8,1.053-1.273a29.9,29.9,0,0,0,6.23-15.715,28.315,28.315,0,0,0-.015-5.216,51.414,51.414,0,0,0-.943-5.47c-.787-3.707-1.834-7.668-1.516-11.877A28.649,28.649,0,0,1,355,57.766a37.332,37.332,0,0,1,8.088-9.989,20.014,20.014,0,0,1,5.268-3.16,23.3,23.3,0,0,1,5.714-1.422,70.466,70.466,0,0,1,10.844-.173,49.324,49.324,0,0,0,9.385-.381,18.87,18.87,0,0,0,7.228-2.6,14.266,14.266,0,0,0,4.222-3.974A10.446,10.446,0,0,0,407.3,32.74c.218-.817.258-1.265.286-1.26a7.276,7.276,0,0,1-.21,1.279,10.174,10.174,0,0,1-1.507,3.394,14.269,14.269,0,0,1-4.231,4.072,18.973,18.973,0,0,1-7.3,2.685,49.037,49.037,0,0,1-9.438.433,70.9,70.9,0,0,0-10.79.207,22.993,22.993,0,0,0-5.621,1.411,19.674,19.674,0,0,0-5.164,3.11,37.09,37.09,0,0,0-7.994,9.891,28.342,28.342,0,0,0-4.17,11.944c-.319,4.123.7,8.054,1.486,11.772a51.538,51.538,0,0,1,.933,5.51,28.483,28.483,0,0,1,0,5.28,29.923,29.923,0,0,1-6.381,15.82c-.334.469-.725.866-1.071,1.272a14.7,14.7,0,0,1-1.049,1.126l-1.006.991-.974.832a19.677,19.677,0,0,1-1.7,1.313,12.5,12.5,0,0,1-1.31.87l-.83.5a2.014,2.014,0,0,1-.289.158" transform="translate(-104.812 -9.734)" fill="#e0e0e0"/>
        <path id="Trazado_737329" data-name="Trazado 737329" d="M311.779,86.927s.041-.108.139-.31l.443-.894c.2-.389.49-.85.813-1.406.365-.528.749-1.165,1.274-1.814a25.452,25.452,0,0,1,4.239-4.345,25.825,25.825,0,0,1,6.952-4.03,26.416,26.416,0,0,1,4.518-1.259,34,34,0,0,1,5.059-.468c3.508-.1,7.248.189,11.161-.046a26.994,26.994,0,0,0,5.9-1,25.745,25.745,0,0,0,5.726-2.479,28.976,28.976,0,0,0,9.455-8.994,32.787,32.787,0,0,0,4.824-12.168,39.886,39.886,0,0,0,.334-12.235c-.493-3.889-1.441-7.519-1.988-10.984a28.056,28.056,0,0,1-.137-9.733,20.925,20.925,0,0,1,3.04-7.429A20.429,20.429,0,0,1,380.7.591l.89-.45c.2-.1.309-.141.309-.141s-.1.066-.292.176l-.87.483a22.884,22.884,0,0,0-3.093,2.234,21.517,21.517,0,0,0-3.924,4.561,20.816,20.816,0,0,0-2.952,7.362,27.894,27.894,0,0,0,.184,9.63c.557,3.445,1.517,7.07,2.025,10.991a40.1,40.1,0,0,1-.316,12.35A33.073,33.073,0,0,1,367.787,60.1a29.288,29.288,0,0,1-9.587,9.109,26.045,26.045,0,0,1-5.814,2.505,27.3,27.3,0,0,1-5.986,1c-3.949.226-7.688-.078-11.176.011a34.03,34.03,0,0,0-5.016.441,26.292,26.292,0,0,0-4.472,1.221A26.124,26.124,0,0,0,314.568,82.6c-.531.639-.922,1.266-1.3,1.784-.331.546-.627,1-.842,1.381l-.476.875c-.11.2-.175.292-.175.292" transform="translate(-96.406)" fill="#e0e0e0"/>
        <path id="Trazado_737330" data-name="Trazado 737330" d="M400.853,10.319a7.306,7.306,0,0,1,1.06.616c.671.415,1.623,1.044,2.782,1.846a106.683,106.683,0,0,1,16.678,14.359c.966,1.027,1.729,1.875,2.24,2.476a7.389,7.389,0,0,1,.766.957,7.389,7.389,0,0,1-.878-.855l-2.325-2.388c-1.976-2-4.773-4.7-8.025-7.507s-6.34-5.162-8.615-6.818l-2.707-1.945a7.426,7.426,0,0,1-.975-.742" transform="translate(-123.948 -3.19)" fill="#e0e0e0"/>
        <path id="Trazado_737331" data-name="Trazado 737331" d="M396.9,21a5.513,5.513,0,0,1,.788.7l2.066,1.991c1.747,1.677,4.194,3.959,6.989,6.374s5.414,4.5,7.329,5.983l2.272,1.753a5.432,5.432,0,0,1,.81.676,5.46,5.46,0,0,1-.9-.553c-.565-.376-1.368-.941-2.348-1.657-1.961-1.429-4.612-3.488-7.418-5.908s-5.228-4.742-6.929-6.472c-.851-.866-1.527-1.577-1.982-2.081A5.467,5.467,0,0,1,396.9,21" transform="translate(-122.725 -6.495)" fill="#e0e0e0"/>
        <path id="Trazado_737332" data-name="Trazado 737332" d="M398.217,34.109a11.859,11.859,0,0,1,1.78,1.3c1.064.848,2.508,2.053,4.067,3.426s2.936,2.654,3.913,3.6a11.829,11.829,0,0,1,1.518,1.6,12.931,12.931,0,0,1-1.7-1.4l-3.983-3.513-3.988-3.507a13.05,13.05,0,0,1-1.6-1.515" transform="translate(-123.133 -10.546)" fill="#e0e0e0"/>
        <path id="Trazado_737333" data-name="Trazado 737333" d="M388.287,49.852a7.613,7.613,0,0,1,1.35.989l3.146,2.508,3.176,2.472a7.546,7.546,0,0,1,1.278,1.08,6.776,6.776,0,0,1-1.439-.858c-.857-.578-2.016-1.413-3.255-2.389s-2.322-1.906-3.084-2.6a6.785,6.785,0,0,1-1.172-1.2" transform="translate(-120.062 -15.414)" fill="#e0e0e0"/>
        <path id="Trazado_737334" data-name="Trazado 737334" d="M376.5,54.613c.043-.041.857.75,2.211,1.982s3.265,2.888,5.484,4.581,4.326,3.094,5.874,4.071,2.526,1.552,2.5,1.6a3.189,3.189,0,0,1-.732-.324c-.46-.229-1.113-.584-1.908-1.046a58.995,58.995,0,0,1-11.4-8.687c-.656-.644-1.172-1.178-1.516-1.562a3.154,3.154,0,0,1-.506-.62" transform="translate(-116.416 -16.887)" fill="#e0e0e0"/>
        <path id="Trazado_737335" data-name="Trazado 737335" d="M369.022,63.569c.066-.085,4.087,2.89,8.981,6.645s8.811,6.869,8.745,6.954-4.086-2.89-8.982-6.645-8.81-6.869-8.745-6.953" transform="translate(-114.105 -19.656)" fill="#e0e0e0"/>
        <path id="Trazado_737336" data-name="Trazado 737336" d="M359.969,71.691a4.67,4.67,0,0,1,.786.567l2.062,1.639c1.738,1.386,4.151,3.287,6.864,5.323s5.213,3.821,7.031,5.1l2.15,1.521a4.6,4.6,0,0,1,.764.6,4.715,4.715,0,0,1-.848-.47c-.533-.323-1.292-.808-2.222-1.42-1.86-1.225-4.389-2.979-7.109-5.018s-5.109-3.978-6.8-5.421c-.848-.721-1.526-1.315-1.985-1.736a4.633,4.633,0,0,1-.688-.683" transform="translate(-111.306 -22.167)" fill="#e0e0e0"/>
        <path id="Trazado_737337" data-name="Trazado 737337" d="M357.228,83.379c.066-.085,3.484,2.44,7.634,5.638s7.462,5.862,7.4,5.947-3.483-2.439-7.635-5.639-7.462-5.861-7.4-5.946" transform="translate(-110.458 -25.781)" fill="#e0e0e0"/>
        <path id="Trazado_737338" data-name="Trazado 737338" d="M354.62,95.573a35.176,35.176,0,0,1,4.445,2.736,35.107,35.107,0,0,1,4.229,3.059,35.234,35.234,0,0,1-4.445-2.736,35.248,35.248,0,0,1-4.229-3.06" transform="translate(-109.652 -29.551)" fill="#e0e0e0"/>
        <path id="Trazado_737339" data-name="Trazado 737339" d="M342.006,107.234a12.34,12.34,0,0,1,2,1.132c1.2.75,2.835,1.831,4.592,3.09s3.3,2.46,4.4,3.357a12.421,12.421,0,0,1,1.713,1.528,14.592,14.592,0,0,1-1.882-1.31c-1.137-.841-2.707-2-4.459-3.259s-3.357-2.369-4.517-3.176a14.576,14.576,0,0,1-1.846-1.362" transform="translate(-105.752 -33.157)" fill="#e0e0e0"/>
        <path id="Trazado_737340" data-name="Trazado 737340" d="M330.984,107.439a4.688,4.688,0,0,1,.8.549c.5.372,1.215.927,2.086,1.627,1.741,1.4,4.1,3.388,6.621,5.682s4.721,4.461,6.274,6.065c.777.8,1.4,1.46,1.814,1.925a4.743,4.743,0,0,1,.621.748,4.683,4.683,0,0,1-.729-.642l-1.9-1.836c-1.6-1.552-3.828-3.681-6.342-5.973s-4.841-4.308-6.535-5.758l-2-1.721a4.683,4.683,0,0,1-.707-.667" transform="translate(-102.344 -33.221)" fill="#e0e0e0"/>
        <path id="Trazado_737341" data-name="Trazado 737341" d="M321.734,115.645a5.473,5.473,0,0,1,.866.607c.542.41,1.315,1.017,2.264,1.776,1.9,1.518,4.488,3.653,7.3,6.067s5.318,4.651,7.108,6.3c.894.822,1.611,1.495,2.1,1.968a5.475,5.475,0,0,1,.732.763,5.544,5.544,0,0,1-.833-.651l-2.181-1.875-7.177-6.207-7.224-6.15L322.5,116.37a5.567,5.567,0,0,1-.77-.725" transform="translate(-99.483 -35.758)" fill="#e0e0e0"/>
        <path id="Trazado_737342" data-name="Trazado 737342" d="M299.312,13.543a10.452,10.452,0,0,1,3.773,7.265,18.446,18.446,0,0,1-1.311,8.24c-1.9,5.087-6.189,9.63-10.434,13.015-3.45-4.945-2.792-11.909-2.236-15.421.878-5.55,5.836-15.049,10.208-13.1" transform="translate(-89.256 -4.107)" fill="#f5f5f5"/>
        <path id="Trazado_737343" data-name="Trazado 737343" d="M296.842,65.394a8.918,8.918,0,0,1,4.847-7.531,11.847,11.847,0,0,1,9.137-.536,4.989,4.989,0,0,1,3.3,2.6,3.814,3.814,0,0,1-.877,3.765,7.737,7.737,0,0,1-3.458,2.043c-4.417,1.445-8.957,2.033-12.952-.34" transform="translate(-91.787 -17.521)" fill="#f5f5f5"/>
        <path id="Trazado_737344" data-name="Trazado 737344" d="M284.921,78.45a17.526,17.526,0,0,1,1.45-3.283,16.666,16.666,0,0,1,2.217-3.237,36.577,36.577,0,0,1,3.282-3.485,17.857,17.857,0,0,1,7.606-4.174,12.943,12.943,0,0,1,2.624-.341,2.861,2.861,0,0,1,.967.084c0,.111-1.38.076-3.481.673a19.138,19.138,0,0,0-7.311,4.21,43.084,43.084,0,0,0-3.263,3.4,18.423,18.423,0,0,0-2.266,3.081,25.962,25.962,0,0,1-1.826,3.074" transform="translate(-88.099 -19.768)" fill="#e0e0e0"/>
        <path id="Trazado_737345" data-name="Trazado 737345" d="M294.612,24.613a10.283,10.283,0,0,1-.262,1.8c-.207,1.149-.529,2.807-.946,4.853-.833,4.09-2.047,9.729-3.54,15.923s-3.006,11.765-4.183,15.771c-.589,2-1.085,3.618-1.449,4.728a10.346,10.346,0,0,1-.622,1.706,10.363,10.363,0,0,1,.4-1.772c.326-1.234.75-2.841,1.262-4.777,1.07-4.031,2.513-9.61,4.007-15.8l3.711-15.872c.459-1.949.841-3.568,1.134-4.811a10.379,10.379,0,0,1,.493-1.748" transform="translate(-87.693 -7.611)" fill="#e0e0e0"/>
        <path id="Trazado_737346" data-name="Trazado 737346" d="M279.521,61.994a20.865,20.865,0,0,0-9.707-16.407c-1.432-.884-3.352-1.567-4.713-.577s-1.3,3.04-.859,4.668a17.827,17.827,0,0,0,15.125,12.746" transform="translate(-81.619 -13.767)" fill="#f5f5f5"/>
        <path id="Trazado_737347" data-name="Trazado 737347" d="M273.239,53.152c.027-.032.309.156.8.526s1.173.935,1.993,1.664a23.549,23.549,0,0,1,5.311,6.74,14.77,14.77,0,0,1,1.382,4.563,14.374,14.374,0,0,1-.7,6.42,2.911,2.911,0,0,1-.376.879c-.117-.035.331-1.323.582-3.466a15.4,15.4,0,0,0-.058-3.759A15.189,15.189,0,0,0,280.8,62.35a26.492,26.492,0,0,0-5.062-6.7,30.349,30.349,0,0,1-2.494-2.5" transform="translate(-84.488 -16.434)" fill="#e0e0e0"/>
      </g>
    </g>
    <rect id="Rectángulo_350791" data-name="Rectángulo 350791" width="167.521" height="229.551" transform="translate(67.516 55.855)" fill="#455a64"/>
    <path id="Trazado_737348" data-name="Trazado 737348" d="M264.88,300.909H117.929V94.288H264.88V300.909Z" transform="translate(-36.465 -29.155)" fill="#e0e0e0"/>
    <path id="Trazado_737349" data-name="Trazado 737349" d="M262.112,295.853H116.486V90.333H262.112v205.52Z" transform="translate(-36.019 -27.932)" fill="#ebebeb"/>
    <path id="Trazado_737350" data-name="Trazado 737350" d="M245.247,280.092,228.474,293.75H112.55V91.088H259.5v177.45Z" transform="translate(-34.802 -28.165)" fill="#fafafa"/>
    <g id="Grupo_1034254" data-name="Grupo 1034254">
      <g id="Grupo_1034253" data-name="Grupo 1034253" clip-path="url(#clip-path)">
        <path id="Trazado_737351" data-name="Trazado 737351" d="M245.167,280.012s.3-.254.9-.745l2.686-2.2,10.635-8.657-.021.044c-.017-29.149-.056-93.918-.106-177.45l.163.162-145.668.017H112.47l.18-.18c-.014,76.191-.026,146.478-.036,202.662l-.144-.144,115.924.082-.039.014,12.6-10.218,3.156-2.55c.7-.566,1.06-.842,1.06-.842s-.343.293-1.039.867l-3.137,2.574-12.559,10.264-.017.014h-.022l-115.924.083h-.144v-.144c-.01-56.184-.023-126.472-.036-202.662v-.18h1.462l145.668.017h.162v.163c-.049,83.532-.088,148.3-.1,177.45v.028l-.021.017-10.67,8.613-2.705,2.175c-.605.484-.915.722-.915.722" transform="translate(-34.721 -28.085)" fill="#263238"/>
        <path id="Trazado_737352" data-name="Trazado 737352" d="M235.6,91.2H175.458V80.779a10.194,10.194,0,0,1,10.194-10.195h40.171a9.778,9.778,0,0,1,9.777,9.778Z" transform="translate(-54.254 -21.825)" fill="#ff9d00"/>
        <path id="Trazado_737353" data-name="Trazado 737353" d="M195.8,65.606l-2.2-11.121h34.629L226.3,65.606Z" transform="translate(-59.863 -16.847)" fill="#ff9d00"/>
        <path id="Trazado_737354" data-name="Trazado 737354" d="M159.557,162.584H134.8V137.827h24.757Zm-24.066-.691h23.376V138.518H135.491Z" transform="translate(-41.682 -42.618)" fill="#ff9d00"/>
        <path id="Trazado_737355" data-name="Trazado 737355" d="M262.826,146.4c0,.1-17.232.18-38.485.18s-38.489-.08-38.489-.18,17.229-.18,38.489-.18,38.485.08,38.485.18" transform="translate(-57.467 -45.213)" fill="#263238"/>
        <path id="Trazado_737356" data-name="Trazado 737356" d="M262.826,153.849c0,.1-17.232.18-38.485.18s-38.489-.08-38.489-.18,17.229-.18,38.489-.18,38.485.08,38.485.18" transform="translate(-57.467 -47.516)" fill="#263238"/>
        <path id="Trazado_737357" data-name="Trazado 737357" d="M262.826,161.3c0,.1-17.232.18-38.485.18s-38.489-.08-38.489-.18,17.229-.18,38.489-.18,38.485.08,38.485.18" transform="translate(-57.467 -49.819)" fill="#263238"/>
        <path id="Trazado_737358" data-name="Trazado 737358" d="M262.826,168.744c0,.1-17.232.18-38.485.18s-38.489-.08-38.489-.18,17.229-.18,38.489-.18,38.485.08,38.485.18" transform="translate(-57.467 -52.122)" fill="#263238"/>
        <path id="Trazado_737359" data-name="Trazado 737359" d="M159.557,217.817H134.8V193.061h24.757Zm-24.066-.691h23.376V193.752H135.491Z" transform="translate(-41.682 -59.697)" fill="#ff9d00"/>
        <path id="Trazado_737360" data-name="Trazado 737360" d="M141.927,206.65l3.287-3.53,5.477,4.382,12.538-12.172,3,3.54-15.785,15.57Z" transform="translate(-43.885 -60.398)" fill="#ff9d00"/>
        <path id="Trazado_737361" data-name="Trazado 737361" d="M262.826,201.635c0,.1-17.232.18-38.485.18s-38.489-.08-38.489-.18,17.229-.18,38.489-.18,38.485.08,38.485.18" transform="translate(-57.467 -62.292)" fill="#263238"/>
        <path id="Trazado_737362" data-name="Trazado 737362" d="M262.826,209.083c0,.1-17.232.18-38.485.18s-38.489-.08-38.489-.18,17.229-.18,38.489-.18,38.485.08,38.485.18" transform="translate(-57.467 -64.595)" fill="#263238"/>
        <path id="Trazado_737363" data-name="Trazado 737363" d="M262.826,216.53c0,.1-17.232.18-38.485.18s-38.489-.08-38.489-.18,17.229-.18,38.489-.18,38.485.08,38.485.18" transform="translate(-57.467 -66.898)" fill="#263238"/>
        <path id="Trazado_737364" data-name="Trazado 737364" d="M262.826,223.977c0,.1-17.232.18-38.485.18s-38.489-.08-38.489-.18,17.229-.18,38.489-.18,38.485.08,38.485.18" transform="translate(-57.467 -69.201)" fill="#263238"/>
        <path id="Trazado_737365" data-name="Trazado 737365" d="M159.557,271.265H134.8V246.508h24.757Zm-24.066-.691h23.376V247.2H135.491Z" transform="translate(-41.682 -76.223)" fill="#ff9d00"/>
        <path id="Trazado_737366" data-name="Trazado 737366" d="M141.927,260.1l3.287-3.53,5.477,4.382,12.538-12.172,3,3.54-15.785,15.57Z" transform="translate(-43.885 -76.925)" fill="#ff9d00"/>
        <path id="Trazado_737367" data-name="Trazado 737367" d="M262.826,255.084c0,.1-17.232.18-38.485.18s-38.489-.08-38.489-.18,17.229-.18,38.489-.18,38.485.08,38.485.18" transform="translate(-57.467 -78.819)" fill="#263238"/>
        <path id="Trazado_737368" data-name="Trazado 737368" d="M262.826,262.531c0,.1-17.232.18-38.485.18s-38.489-.08-38.489-.18,17.229-.18,38.489-.18,38.485.08,38.485.18" transform="translate(-57.467 -81.122)" fill="#263238"/>
        <path id="Trazado_737369" data-name="Trazado 737369" d="M262.826,269.978c0,.1-17.232.18-38.485.18s-38.489-.081-38.489-.18,17.229-.18,38.489-.18,38.485.08,38.485.18" transform="translate(-57.467 -83.425)" fill="#263238"/>
        <path id="Trazado_737370" data-name="Trazado 737370" d="M262.826,277.425c0,.1-17.232.18-38.485.18s-38.489-.08-38.489-.18,17.229-.18,38.489-.18,38.485.08,38.485.18" transform="translate(-57.467 -85.727)" fill="#263238"/>
        <path id="Trazado_737371" data-name="Trazado 737371" d="M159.557,322.871H134.8V298.114h24.757Zm-24.066-.691h23.376V298.8H135.491Z" transform="translate(-41.682 -92.18)" fill="#ff9d00"/>
        <path id="Trazado_737372" data-name="Trazado 737372" d="M141.927,311.7l3.287-3.53,5.477,4.382,12.538-12.172,3,3.54-15.785,15.57Z" transform="translate(-43.885 -92.882)" fill="#ff9d00"/>
        <path id="Trazado_737373" data-name="Trazado 737373" d="M262.826,306.689c0,.1-17.232.18-38.485.18s-38.489-.08-38.489-.18,17.229-.18,38.489-.18,38.485.08,38.485.18" transform="translate(-57.467 -94.776)" fill="#263238"/>
        <path id="Trazado_737374" data-name="Trazado 737374" d="M262.826,314.136c0,.1-17.232.18-38.485.18s-38.489-.08-38.489-.18,17.229-.18,38.489-.18,38.485.08,38.485.18" transform="translate(-57.467 -97.079)" fill="#263238"/>
        <path id="Trazado_737375" data-name="Trazado 737375" d="M262.826,321.584c0,.1-17.232.18-38.485.18s-38.489-.08-38.489-.18,17.229-.18,38.489-.18,38.485.08,38.485.18" transform="translate(-57.467 -99.382)" fill="#263238"/>
        <path id="Trazado_737376" data-name="Trazado 737376" d="M262.826,329.031c0,.1-17.232.18-38.485.18s-38.489-.08-38.489-.18,17.229-.18,38.489-.18,38.485.08,38.485.18" transform="translate(-57.467 -101.684)" fill="#263238"/>
        <path id="Trazado_737377" data-name="Trazado 737377" d="M279.823,335.893l-16.111,33.366h11.5Z" transform="translate(-81.543 -103.862)" fill="#e0e0e0"/>
        <path id="Trazado_737378" data-name="Trazado 737378" d="M280.364,369.53l4.608-33.366,26.419,8.153Z" transform="translate(-86.692 -103.946)" fill="#fafafa"/>
        <path id="Trazado_737379" data-name="Trazado 737379" d="M280.364,369.432l8.884-7.313,22.031-18.036.059.3-10.2-3.144-16.216-5.015.218-.139c-1.381,9.692-2.564,17.994-3.4,23.9-.832,5.738-1.263,8.7-1.371,9.447a1.227,1.227,0,0,1,.015-.148c.015-.12.034-.271.058-.462q.085-.649.238-1.817c.213-1.621.521-3.951.908-6.877.8-5.948,1.915-14.316,3.222-24.084l.026-.2.191.059,16.223,5,10.2,3.151.316.1-.257.207-22.3,17.986-6.512,5.233-1.737,1.393-.445.354c-.1.077-.149.115-.146.111" transform="translate(-86.691 -103.847)" fill="#263238"/>
        <g id="Grupo_1034252" data-name="Grupo 1034252" transform="translate(164.063 37.638)" opacity="0.3">
          <g id="Grupo_1034251" data-name="Grupo 1034251">
            <g id="Grupo_1034250" data-name="Grupo 1034250" clip-path="url(#clip-path-4)">
              <path id="Trazado_737380" data-name="Trazado 737380" d="M239.411,54.485,237.5,65.606h2.378L241.8,54.485h-3.028" transform="translate(-237.501 -54.485)"/>
            </g>
          </g>
        </g>
      </g>
    </g>
    <g id="Grupo_1034256" data-name="Grupo 1034256">
      <g id="Grupo_1034255" data-name="Grupo 1034255" clip-path="url(#clip-path)">
        <path id="Trazado_737381" data-name="Trazado 737381" d="M306.974,441.289c0,.1-67.523.18-150.8.18-83.3,0-150.812-.08-150.812-.18s67.508-.18,150.812-.18c83.275,0,150.8.08,150.8.18" transform="translate(-1.659 -136.396)" fill="#263238"/>
      </g>
    </g>
    <g id="Grupo_1034276" data-name="Grupo 1034276">
      <g id="Grupo_1034275" data-name="Grupo 1034275" clip-path="url(#clip-path)">
        <path id="Trazado_737382" data-name="Trazado 737382" d="M394.786,415.932l-.708,11.524s11.475,4.59,11.551,6.732l-22.393-.571.367-18Z" transform="translate(-118.501 -128.513)" fill="#636363"/>
        <g id="Grupo_1034259" data-name="Grupo 1034259" transform="translate(268.003 297.762)" opacity="0.6">
          <g id="Grupo_1034258" data-name="Grupo 1034258">
            <g id="Grupo_1034257" data-name="Grupo 1034257" clip-path="url(#clip-path-7)">
              <path id="Trazado_737383" data-name="Trazado 737383" d="M388.641,431.08a.915.915,0,0,0-.659,1.027.88.88,0,0,0,1.013.662.966.966,0,0,0,.692-1.092.912.912,0,0,0-1.129-.572" transform="translate(-387.967 -431.047)" fill="#fff"/>
            </g>
          </g>
        </g>
        <g id="Grupo_1034262" data-name="Grupo 1034262" transform="translate(264.736 303.291)" opacity="0.6">
          <g id="Grupo_1034261" data-name="Grupo 1034261">
            <g id="Grupo_1034260" data-name="Grupo 1034260" clip-path="url(#clip-path-8)">
              <path id="Trazado_737384" data-name="Trazado 737384" d="M383.237,440.864l.108-1.813,21.43,1.225s.986.459.855,1.158Z" transform="translate(-383.237 -439.05)" fill="#fff"/>
            </g>
          </g>
        </g>
        <path id="Trazado_737385" data-name="Trazado 737385" d="M398.533,432.554c-.006.109-.555.145-1.1.483s-.846.79-.945.744c-.1-.023.079-.673.749-1.071s1.324-.256,1.3-.156" transform="translate(-122.59 -133.716)" fill="#263238"/>
        <path id="Trazado_737386" data-name="Trazado 737386" d="M402.143,434.075c.022.106-.456.28-.839.734s-.5.94-.611.932c-.1.015-.163-.628.325-1.182s1.126-.588,1.126-.484" transform="translate(-123.876 -134.206)" fill="#263238"/>
        <path id="Trazado_737387" data-name="Trazado 737387" d="M404.6,437.38c-.1.021-.238-.529.058-1.121s.813-.817.857-.725c.059.091-.28.4-.516.894s-.29.944-.4.952" transform="translate(-125.069 -134.666)" fill="#263238"/>
        <path id="Trazado_737388" data-name="Trazado 737388" d="M398.229,428.588c-.048.1-.546-.065-1.165-.039s-1.106.209-1.161.113.419-.473,1.149-.494,1.233.335,1.177.419" transform="translate(-122.416 -132.394)" fill="#263238"/>
        <g id="Grupo_1034265" data-name="Grupo 1034265" transform="translate(265.016 289.001)" opacity="0.3">
          <g id="Grupo_1034264" data-name="Grupo 1034264">
            <g id="Grupo_1034263" data-name="Grupo 1034263" clip-path="url(#clip-path-9)">
              <path id="Trazado_737389" data-name="Trazado 737389" d="M394.768,419.064l-.124,2.054-11-.381.043-2.374Z" transform="translate(-383.642 -418.363)"/>
            </g>
          </g>
        </g>
        <path id="Trazado_737390" data-name="Trazado 737390" d="M397.908,424.567a2.11,2.11,0,0,1-1.121-.035,5,5,0,0,1-1.165-.39,5.219,5.219,0,0,1-.635-.358,1.381,1.381,0,0,1-.332-.272.478.478,0,0,1-.035-.584.6.6,0,0,1,.486-.238,1.486,1.486,0,0,1,.419.069,4.017,4.017,0,0,1,.691.257,3.931,3.931,0,0,1,1.017.705c.508.494.674.907.636.927-.05.035-.294-.314-.813-.724a4.443,4.443,0,0,0-.986-.589,4.155,4.155,0,0,0-.639-.215c-.236-.068-.437-.075-.5.028-.023.04-.026.056.021.126a1.111,1.111,0,0,0,.245.2,5.869,5.869,0,0,0,.584.354,6.251,6.251,0,0,0,1.073.443,7.6,7.6,0,0,1,1.055.295" transform="translate(-121.995 -130.701)" fill="#263238"/>
        <path id="Trazado_737391" data-name="Trazado 737391" d="M399.084,424.045a1.791,1.791,0,0,1-.268-1.091A3.638,3.638,0,0,1,399,421.73a3.7,3.7,0,0,1,.3-.674.929.929,0,0,1,.73-.548.523.523,0,0,1,.46.325,1.53,1.53,0,0,1,.105.414,2.5,2.5,0,0,1-.019.756,2.585,2.585,0,0,1-.508,1.146c-.452.569-.912.688-.92.651-.035-.055.351-.257.7-.806a2.578,2.578,0,0,0,.381-1.044,2.3,2.3,0,0,0,0-.649c-.029-.239-.113-.433-.2-.411-.111,0-.3.17-.4.357a3.733,3.733,0,0,0-.294.6,4.013,4.013,0,0,0-.245,1.114c-.048.656.059,1.069,0,1.084" transform="translate(-123.318 -130.026)" fill="#263238"/>
        <path id="Trazado_737392" data-name="Trazado 737392" d="M398.707,314.462l-17.8,5.72c.211.158,3.3,20.167,3.3,20.167l-2.574,53.1,14.127.173,6.323-55.706Z" transform="translate(-117.78 -97.235)" fill="#263238"/>
        <path id="Trazado_737393" data-name="Trazado 737393" d="M365.7,416.011l-.359,11.54s11.609,4.24,11.75,6.379l-22.4.108-.179-18Z" transform="translate(-109.619 -128.635)" fill="#636363"/>
        <g id="Grupo_1034268" data-name="Grupo 1034268" transform="translate(248.143 297.939)" opacity="0.6">
          <g id="Grupo_1034267" data-name="Grupo 1034267">
            <g id="Grupo_1034266" data-name="Grupo 1034266" clip-path="url(#clip-path-10)">
              <path id="Trazado_737394" data-name="Trazado 737394" d="M359.865,431.342a.914.914,0,0,0-.627,1.047.879.879,0,0,0,1.032.631.965.965,0,0,0,.659-1.112.912.912,0,0,0-1.147-.537" transform="translate(-359.217 -431.303)" fill="#fff"/>
            </g>
          </g>
        </g>
        <g id="Grupo_1034271" data-name="Grupo 1034271" transform="translate(245.073 303.587)" opacity="0.6">
          <g id="Grupo_1034270" data-name="Grupo 1034270">
            <g id="Grupo_1034269" data-name="Grupo 1034269" clip-path="url(#clip-path-11)">
              <path id="Trazado_737395" data-name="Trazado 737395" d="M354.772,441.294l.053-1.815,21.457.575s1,.429.89,1.132Z" transform="translate(-354.772 -439.479)" fill="#fff"/>
            </g>
          </g>
        </g>
        <path id="Trazado_737396" data-name="Trazado 737396" d="M369.8,432.5c0,.109-.55.162-1.087.516s-.821.815-.922.772c-.1-.021.059-.675.716-1.093s1.315-.3,1.292-.2" transform="translate(-113.717 -133.704)" fill="#263238"/>
        <path id="Trazado_737397" data-name="Trazado 737397" d="M373.46,433.919c.026.106-.447.294-.817.758s-.474.955-.583.95c-.1.018-.182-.622.289-1.191s1.108-.622,1.111-.517" transform="translate(-115.021 -134.159)" fill="#263238"/>
        <path id="Trazado_737398" data-name="Trazado 737398" d="M376.012,437.153c-.1.024-.254-.522.024-1.122s.788-.841.834-.75c.062.09-.268.413-.489.909s-.261.953-.37.964" transform="translate(-116.226 -134.588)" fill="#263238"/>
        <path id="Trazado_737399" data-name="Trazado 737399" d="M369.367,428.554c-.046.1-.548-.048-1.166,0s-1.1.242-1.156.148.4-.486,1.133-.528,1.243.3,1.19.383" transform="translate(-113.492 -132.394)" fill="#263238"/>
        <g id="Grupo_1034274" data-name="Grupo 1034274" transform="translate(244.907 289.297)" opacity="0.3">
          <g id="Grupo_1034273" data-name="Grupo 1034273">
            <g id="Grupo_1034272" data-name="Grupo 1034272" clip-path="url(#clip-path-12)">
              <path id="Trazado_737400" data-name="Trazado 737400" d="M365.632,419.156l-.061,2.056-11.009-.047-.03-2.374Z" transform="translate(-354.532 -418.792)"/>
            </g>
          </g>
        </g>
        <path id="Trazado_737401" data-name="Trazado 737401" d="M368.924,424.554a2.1,2.1,0,0,1-1.122,0,5.024,5.024,0,0,1-1.176-.354,5.336,5.336,0,0,1-.645-.339,1.378,1.378,0,0,1-.341-.262.477.477,0,0,1-.053-.582.6.6,0,0,1,.478-.252,1.456,1.456,0,0,1,.421.056,4.04,4.04,0,0,1,.7.236,3.968,3.968,0,0,1,1.038.674c.522.479.7.886.664.908-.05.037-.3-.3-.834-.7a4.507,4.507,0,0,0-1-.559,4.152,4.152,0,0,0-.645-.2c-.238-.061-.439-.061-.5.044-.022.04-.025.056.026.126a1.117,1.117,0,0,0,.25.191,6.043,6.043,0,0,0,.594.336,6.2,6.2,0,0,0,1.087.41,7.7,7.7,0,0,1,1.063.263" transform="translate(-113.02 -130.723)" fill="#263238"/>
        <path id="Trazado_737402" data-name="Trazado 737402" d="M370.109,423.989a1.785,1.785,0,0,1-.3-1.082,3.629,3.629,0,0,1,.43-1.911.926.926,0,0,1,.713-.57.522.522,0,0,1,.47.31,1.5,1.5,0,0,1,.117.411,2.479,2.479,0,0,1,0,.756,2.571,2.571,0,0,1-.473,1.161c-.435.583-.891.716-.9.679-.037-.055.343-.268.676-.828a2.579,2.579,0,0,0,.35-1.056,2.284,2.284,0,0,0-.023-.648c-.036-.238-.126-.43-.216-.4-.111,0-.3.179-.39.369a3.765,3.765,0,0,0-.275.609,4.038,4.038,0,0,0-.212,1.121c-.028.657.091,1.066.032,1.083" transform="translate(-114.347 -130)" fill="#263238"/>
        <path id="Trazado_737403" data-name="Trazado 737403" d="M349.96,318.565c0,4.015,1.589,78.572,1.589,78.572l13.408-1.2,2.739-45.812,1.442-3.994,1.681-24.683Z" transform="translate(-108.211 -98.504)" fill="#263238"/>
        <path id="Trazado_737404" data-name="Trazado 737404" d="M390.143,178.614c.183.241,10.655,16.858,10.655,16.858l11.777-12.324,6.023,8.7S406,209.622,404.157,210.265s-7.808-.369-7.808-.369l-8.316-10.977Z" transform="translate(-119.984 -55.229)" fill="#ebebeb"/>
        <path id="Trazado_737405" data-name="Trazado 737405" d="M406.544,206.856a4.771,4.771,0,0,1-.226-1.918,5.9,5.9,0,0,1,.135-1.92,4.79,4.79,0,0,1,.225,1.918,5.889,5.889,0,0,1-.134,1.92" transform="translate(-125.638 -62.775)" fill="#263238"/>
        <path id="Trazado_737406" data-name="Trazado 737406" d="M347.163,160.676l-1.81,4.464s-9.29,7.842-10.134,9.049,6.635,40.3,6.635,40.3-.482,57.427,0,57.427,6.877,2.051,20.027,1.086,15.563-2.293,15.563-2.293l-4.1-50.792-6.275-34.143L356.3,171.9Z" transform="translate(-103.633 -49.683)" fill="#ebebeb"/>
        <path id="Trazado_737407" data-name="Trazado 737407" d="M373.877,179.369s-1.373-6.627-1.262-6.832-3.1-8.033-3.1-8.033-1.074-3.582-1.074-3.569-14.643-2.478-14.643-2.478l-.711,2.213,19.524,24.669,2,10.588,2.068-2.887Z" transform="translate(-109.18 -48.997)" fill="#15d3ec"/>
        <path id="Trazado_737408" data-name="Trazado 737408" d="M394.068,231.192,390.89,192.98l-2.6-14.91a16.129,16.129,0,0,0-2.342-5.97l-7.622-4.4a32.867,32.867,0,0,1-2.175-2.908l3.6,9.193,1.262,7.345.785,16.852,4.156,22.617,4.058,49.754,8.83-1.723Z" transform="translate(-116.308 -50.955)" fill="#ebebeb"/>
        <path id="Trazado_737409" data-name="Trazado 737409" d="M382.1,186.676l1.708-12.536-5.49-6.443-2.176-2.908,3.374,9.706Z" transform="translate(-116.308 -50.955)" fill="#ebebeb"/>
        <path id="Trazado_737410" data-name="Trazado 737410" d="M370.962,221.9l13.269-18.878,23.1,6.988-17.471,22.6-21.689-7.052Z" transform="translate(-113.841 -62.775)" fill="#7e5ee3"/>
        <path id="Trazado_737411" data-name="Trazado 737411" d="M414.576,211.616a.572.572,0,1,1-.571-.571.571.571,0,0,1,.571.571" transform="translate(-127.838 -65.257)" fill="#263238"/>
        <path id="Trazado_737412" data-name="Trazado 737412" d="M401.214,207.887a.572.572,0,1,1-.571-.571.571.571,0,0,1,.571.571" transform="translate(-123.706 -64.104)" fill="#263238"/>
        <path id="Trazado_737413" data-name="Trazado 737413" d="M386.051,185.453c-.037.01.249,1.232.64,2.729s.736,2.7.774,2.694-.249-1.232-.64-2.729-.737-2.7-.774-2.693" transform="translate(-119.37 -57.344)" fill="#263238"/>
        <path id="Trazado_737414" data-name="Trazado 737414" d="M390.255,195.975a2.869,2.869,0,0,1-.207,1.59,1.955,1.955,0,0,1-1.194,1.1,2.184,2.184,0,0,1-2.108-.449,5.5,5.5,0,0,1-1.32-3.988,2.421,2.421,0,0,1,1.513-2.056,2.192,2.192,0,0,1,2.5,1.073" transform="translate(-119.169 -59.394)" fill="#e0e0e0"/>
        <path id="Trazado_737415" data-name="Trazado 737415" d="M389.407,193.219a1.783,1.783,0,0,0-.353-.5,2.335,2.335,0,0,0-.569-.445,2.03,2.03,0,0,0-.921-.261,2.093,2.093,0,0,0-.56.054,1.7,1.7,0,0,0-.567.231,2.384,2.384,0,0,0-.852,1.024,3.119,3.119,0,0,0-.282,1.444,5.676,5.676,0,0,0,.282,1.55,4.333,4.333,0,0,0,1.232,2.043,2.046,2.046,0,0,0,1.019.421,2.4,2.4,0,0,0,1.006-.089l-.008,0a1.5,1.5,0,0,0,.647-.352,2.341,2.341,0,0,0,.426-.5,2.685,2.685,0,0,0,.346-.991,2.558,2.558,0,0,0,.017-.67,1.667,1.667,0,0,0-.028-.173c-.009-.039-.014-.058-.018-.058a3.56,3.56,0,0,1-.035.89,2.681,2.681,0,0,1-.359.952,2.283,2.283,0,0,1-.416.47,1.415,1.415,0,0,1-.6.319h0l-.006,0a2.124,2.124,0,0,1-1.907-.328,4.272,4.272,0,0,1-1.181-1.983,4.023,4.023,0,0,1-.016-2.9,2.288,2.288,0,0,1,.8-.982,1.593,1.593,0,0,1,.529-.223,2.019,2.019,0,0,1,.532-.06,1.986,1.986,0,0,1,.888.231,2.406,2.406,0,0,1,.566.414,4.841,4.841,0,0,1,.392.461" transform="translate(-119.14 -59.373)" fill="#263238"/>
        <path id="Trazado_737416" data-name="Trazado 737416" d="M391.144,195.822a2.868,2.868,0,0,1-.207,1.59,1.956,1.956,0,0,1-1.194,1.1,2.184,2.184,0,0,1-2.108-.449,5.494,5.494,0,0,1-1.32-3.987,2.422,2.422,0,0,1,1.513-2.056,2.192,2.192,0,0,1,2.5,1.073" transform="translate(-119.444 -59.347)" fill="#e0e0e0"/>
        <path id="Trazado_737417" data-name="Trazado 737417" d="M390.3,193.066a1.779,1.779,0,0,0-.354-.5,2.338,2.338,0,0,0-.569-.445,2.028,2.028,0,0,0-.922-.261,2.094,2.094,0,0,0-.559.054,1.694,1.694,0,0,0-.566.231,2.386,2.386,0,0,0-.852,1.024,3.128,3.128,0,0,0-.282,1.444,5.678,5.678,0,0,0,.282,1.55,4.33,4.33,0,0,0,1.232,2.043,2.046,2.046,0,0,0,1.02.421,2.4,2.4,0,0,0,1.007-.089l-.008,0a1.5,1.5,0,0,0,.647-.352,2.322,2.322,0,0,0,.426-.5,2.654,2.654,0,0,0,.345-.991,2.572,2.572,0,0,0,.018-.67,1.319,1.319,0,0,0-.029-.173.158.158,0,0,0-.017-.058,3.644,3.644,0,0,1-.035.89,2.686,2.686,0,0,1-.36.952,2.259,2.259,0,0,1-.415.47,1.412,1.412,0,0,1-.6.319h0l-.006,0a2.123,2.123,0,0,1-1.907-.328,4.262,4.262,0,0,1-1.181-1.983,4.016,4.016,0,0,1-.016-2.9,2.278,2.278,0,0,1,.8-.982,1.574,1.574,0,0,1,.528-.222,1.983,1.983,0,0,1,1.42.171,2.391,2.391,0,0,1,.566.414,5.248,5.248,0,0,1,.392.461" transform="translate(-119.414 -59.325)" fill="#263238"/>
        <path id="Trazado_737418" data-name="Trazado 737418" d="M390.153,193.514a1.365,1.365,0,0,1,1.585.435,2.353,2.353,0,0,1,.433,1.675,2.135,2.135,0,0,1-.231.866,1.164,1.164,0,0,1-.668.571,1.378,1.378,0,0,1-1.223-.35,2.466,2.466,0,0,1-.875-1.874,1.142,1.142,0,0,1,.666-1.149" transform="translate(-120.337 -59.804)" fill="#e0e0e0"/>
        <path id="Trazado_737419" data-name="Trazado 737419" d="M389.821,193.676a.268.268,0,0,0-.1.024.726.726,0,0,0-.254.166,1.408,1.408,0,0,0-.356,1.036,2.5,2.5,0,0,0,.567,1.529,2.124,2.124,0,0,0,.772.605,1.149,1.149,0,0,0,1.052-.021,1.427,1.427,0,0,0,.622-.852,2.988,2.988,0,0,0,.1-.973,2.036,2.036,0,0,0-.66-1.482,1.425,1.425,0,0,0-1.044-.336,1.025,1.025,0,0,0-.293.076c-.062.031-.093.049-.09.053a1.974,1.974,0,0,1,.388-.075,1.405,1.405,0,0,1,.976.356,1.962,1.962,0,0,1,.6,1.415,2.9,2.9,0,0,1-.1.927,1.3,1.3,0,0,1-.562.772,1.016,1.016,0,0,1-.929.017,2.012,2.012,0,0,1-.727-.562,2.451,2.451,0,0,1-.568-1.451,1.393,1.393,0,0,1,.3-1,1.129,1.129,0,0,1,.318-.228" transform="translate(-120.316 -59.79)" fill="#263238"/>
        <path id="Trazado_737420" data-name="Trazado 737420" d="M390.3,199.73c.021,0,.028-.093.088-.219a.99.99,0,0,1,.365-.4,2.5,2.5,0,0,1,.517-.225c.141-.048.229-.083.224-.1s-.1-.017-.247.007a1.577,1.577,0,0,0-.566.2.88.88,0,0,0-.383.477c-.045.157-.013.256,0,.254" transform="translate(-120.676 -61.464)" fill="#263238"/>
        <path id="Trazado_737421" data-name="Trazado 737421" d="M388.294,193.565c-.009.015.064.082.207.145a1.319,1.319,0,0,0,1.183-.09c.133-.085.194-.162.183-.175a1.994,1.994,0,0,1-1.574.12" transform="translate(-120.064 -59.814)" fill="#263238"/>
        <path id="Trazado_737422" data-name="Trazado 737422" d="M371.594,207.048c-.7.2-1.478-.314-2.158-.053a1.012,1.012,0,1,0,.783,1.865c.7-.32.849-1.31,1.509-1.7" transform="translate(-114.035 -63.982)" fill="#263238"/>
        <path id="Trazado_737423" data-name="Trazado 737423" d="M360.685,201.722a4.361,4.361,0,0,0,.631-.264l-.115-.224a2.888,2.888,0,0,1-2.272.275,4.192,4.192,0,0,1-2.25-2.324l-.023-.048c-.247-.5-3.664-10.68-4.293-12.621a3.479,3.479,0,0,1,1.653-4.359c.1-.055,2.389-1.241,4.744,1.653,2.466,3.032,6.777,9.017,7.172,9.754.048.09.113.2.189.328.548.93,1.688,2.865.685,4.518-1.117,1.841-2.508,1.719-2.566,1.713l-.028.249c.066.007,1.6.153,2.809-1.833,1.08-1.78-.111-3.8-.684-4.775-.073-.124-.137-.231-.184-.319-.4-.743-4.726-6.754-7.2-9.793-2.492-3.063-5.028-1.732-5.054-1.718a3.779,3.779,0,0,0-1.777,4.659c.518,1.6,4.045,12.13,4.307,12.655l.023.047a4.423,4.423,0,0,0,2.4,2.452,2.888,2.888,0,0,0,1.834-.026" transform="translate(-108.808 -56.163)" fill="#263238"/>
        <path id="Trazado_737424" data-name="Trazado 737424" d="M353.288,189.5a4.7,4.7,0,0,1,.112-1.353,4.237,4.237,0,0,1,.613-1.328,4.283,4.283,0,0,1,1.3-1.222,4.727,4.727,0,0,1,3.153-.585,5.606,5.606,0,0,1,1.3.413s-.024-.023-.078-.056a2.306,2.306,0,0,0-.24-.133,3.8,3.8,0,0,0-.96-.315,4.668,4.668,0,0,0-3.237.564,4.289,4.289,0,0,0-1.331,1.266,4.155,4.155,0,0,0-.6,1.375,3.323,3.323,0,0,0-.081,1.009,1.9,1.9,0,0,0,.035.272c.011.062.019.094.023.093" transform="translate(-109.219 -57.154)" fill="#263238"/>
        <path id="Trazado_737425" data-name="Trazado 737425" d="M349.92,165.14l11.454,14.191,10.26,6.44-19.9-25.094Z" transform="translate(-108.199 -49.683)" fill="#ebebeb"/>
        <path id="Trazado_737426" data-name="Trazado 737426" d="M334,180.075a20.444,20.444,0,0,0-2.785,7.655c-.15,1.518,3.621,29.925,4.047,31.2s5.431,4.473,6.922,5.112,19.7,6.709,27.156,6.6l1.6-14.058L351.77,213.4a16.021,16.021,0,0,0-3.408-2.556l-1.6-15.655-2.342-12.567s-6.679-4.129-10.421-2.543" transform="translate(-102.414 -55.569)" fill="#ebebeb"/>
        <path id="Trazado_737427" data-name="Trazado 737427" d="M395.705,196.522c-.1.022-1.128-4.134-2.3-9.282s-2.05-9.341-1.953-9.363,1.128,4.134,2.3,9.283,2.05,9.34,1.953,9.362" transform="translate(-121.038 -55.001)" fill="#263238"/>
        <path id="Trazado_737428" data-name="Trazado 737428" d="M345.781,193.959s.026.1.061.294.084.5.146.868c.124.782.3,1.909.533,3.361.452,2.945,1.106,7.2,1.921,12.5l-.078-.1a7.767,7.767,0,0,1,1.784,1.132c.566.445,1.12.927,1.673,1.442l-.069-.035,19.174,3.161.156.026-.018.157c-.5,4.395-1.031,9.134-1.587,14.059l-.018.16-.155,0a49.914,49.914,0,0,1-10.547-1.645c-4.422-1.059-8.678-2.319-12.758-3.625-1.018-.332-2.027-.663-3.02-1.016a12.749,12.749,0,0,1-2.824-1.389c-.882-.54-1.735-1.1-2.553-1.7a12.279,12.279,0,0,1-2.266-2.005,1.469,1.469,0,0,1-.325-.717c-.059-.251-.1-.492-.138-.732q-.116-.72-.23-1.431-.211-1.423-.417-2.806-.384-2.769-.746-5.371c-.47-3.466-.889-6.7-1.254-9.65s-.683-5.625-.923-7.977c-.053-.589-.121-1.155-.155-1.706a6.45,6.45,0,0,1-.01-1.6,18.852,18.852,0,0,1,.649-2.7,21.246,21.246,0,0,1,1.485-3.536c.206-.388.379-.674.5-.864a2.877,2.877,0,0,1,.193-.28s-.053.1-.162.3-.271.488-.465.879a22.6,22.6,0,0,0-1.416,3.544,19.039,19.039,0,0,0-.613,2.686,6.321,6.321,0,0,0,.027,1.556c.039.546.112,1.112.17,1.7.258,2.347.594,5.017.975,7.965.4,2.949.831,6.178,1.3,9.642l.764,5.366q.209,1.381.424,2.8.116.708.233,1.425c.039.24.08.479.133.7a1.152,1.152,0,0,0,.273.6,12.109,12.109,0,0,0,2.2,1.931c.81.589,1.659,1.148,2.533,1.681a12.425,12.425,0,0,0,2.762,1.355c.987.35,1.995.678,3.012,1.009,4.074,1.3,8.325,2.555,12.733,3.611a49.862,49.862,0,0,0,10.458,1.639l-.173.158c.563-4.925,1.105-9.663,1.608-14.056l.138.183-19.164-3.228-.039-.007-.03-.028c-.542-.51-1.093-.993-1.648-1.435a7.613,7.613,0,0,0-1.71-1.1l-.068-.028-.01-.068L346.392,198.5c-.2-1.455-.361-2.586-.47-3.37-.048-.373-.086-.662-.113-.874s-.027-.3-.027-.3" transform="translate(-102.376 -55.732)" fill="#263238"/>
        <path id="Trazado_737429" data-name="Trazado 737429" d="M346.79,190.1a11.628,11.628,0,0,1-.884-1.708,19.073,19.073,0,0,0-2.394-3.905,8.574,8.574,0,0,0-3.656-2.613,13.756,13.756,0,0,0-1.853-.4,1.281,1.281,0,0,1,.521-.055,5.217,5.217,0,0,1,1.409.216,8.128,8.128,0,0,1,3.855,2.624,16.022,16.022,0,0,1,2.349,4.031,9.186,9.186,0,0,1,.652,1.814" transform="translate(-104.514 -56.097)" fill="#263238"/>
        <path id="Trazado_737430" data-name="Trazado 737430" d="M346.282,227.367a7.33,7.33,0,0,1,6.644-2.547,11.558,11.558,0,0,0-6.644,2.547" transform="translate(-107.073 -69.482)" fill="#263238"/>
        <path id="Trazado_737431" data-name="Trazado 737431" d="M349.427,229.6a7.14,7.14,0,0,1,4.757-4.854,11.776,11.776,0,0,0-4.757,4.854" transform="translate(-108.044 -69.49)" fill="#263238"/>
        <path id="Trazado_737432" data-name="Trazado 737432" d="M371.571,185.771a5.437,5.437,0,0,1-.794-.431l-2.154-1.293-7.4-4.57-.023-.015-.019-.023-3.442-4.25c-3.168-3.926-6.008-7.478-7.974-9.971l-.046-.058.028-.066,1.38-3.253c.155-.349.283-.636.388-.871a1.183,1.183,0,0,1,.157-.294,1.268,1.268,0,0,1-.093.32l-.327.9-1.276,3.3-.018-.124c2.021,2.449,4.894,5.974,8.063,9.9l3.428,4.261-.042-.037,7.335,4.68,2.1,1.377a5.378,5.378,0,0,1,.734.528" transform="translate(-108.135 -49.683)" fill="#263238"/>
        <path id="Trazado_737433" data-name="Trazado 737433" d="M381.415,189.708a4.921,4.921,0,0,1,.07-.923c.083-.654.19-1.5.318-2.516.285-2.132.7-5.1,1.194-8.43l.019.111-.681-1.265c-1.754-3.263-3.323-6.225-4.444-8.377l-1.31-2.559a5.861,5.861,0,0,1-.437-.961,5.954,5.954,0,0,1,.56.9l1.411,2.5c1.178,2.122,2.783,5.066,4.537,8.327l.679,1.266.028.052-.009.059c-.5,3.332-.961,6.29-1.309,8.412-.173,1.011-.316,1.85-.427,2.5a4.916,4.916,0,0,1-.2.9" transform="translate(-116.307 -50.954)" fill="#263238"/>
        <path id="Trazado_737434" data-name="Trazado 737434" d="M351.6,177.3l.591-.357-.593.354a35.333,35.333,0,0,1-2.578-4.806l-.123-.3c-.7-1.692-1.493-3.609-1.158-5.461l.01-.048a3.636,3.636,0,0,1,1.259-2.07l.193-.161.571,0,0,1.07.124.15c-.043.037-.086.074-.126.113v.049h-.05a2.19,2.19,0,0,0-.614,1.133l-.008.04c-.249,1.445.457,3.151,1.08,4.656l.123.3a34.541,34.541,0,0,0,2.483,4.616Z" transform="translate(-107.499 -50.852)" fill="#263238"/>
        <path id="Trazado_737435" data-name="Trazado 737435" d="M389.932,244a2.857,2.857,0,0,1,.1.518q.077.563.2,1.493c.17,1.3.4,3.177.66,5.5.528,4.648,1.187,11.079,1.788,18.193s1.03,13.566,1.289,18.238c.13,2.336.222,4.227.272,5.534.021.627.038,1.127.05,1.506a2.872,2.872,0,0,1-.007.526,2.9,2.9,0,0,1-.066-.522c-.03-.378-.069-.877-.117-1.5-.094-1.344-.225-3.222-.386-5.526-.324-4.666-.794-11.111-1.394-18.223s-1.22-13.542-1.683-18.2c-.227-2.3-.413-4.172-.546-5.512-.056-.624-.1-1.123-.135-1.5a2.842,2.842,0,0,1-.023-.526" transform="translate(-120.57 -75.448)" fill="#263238"/>
        <path id="Trazado_737436" data-name="Trazado 737436" d="M370.659,267.464c.015.019-.152.178-.468.449s-.781.652-1.366,1.111a41.8,41.8,0,0,1-4.794,3.294,25.374,25.374,0,0,1-2.883,1.42,17.647,17.647,0,0,1-2.5.8,11.764,11.764,0,0,1-1.743.3,2.243,2.243,0,0,1-.649.019c-.008-.066.908-.165,2.327-.565a20.644,20.644,0,0,0,2.437-.864,29.468,29.468,0,0,0,2.832-1.425c1.95-1.129,3.613-2.326,4.82-3.186a17.492,17.492,0,0,1,1.987-1.357" transform="translate(-110.158 -82.702)" fill="#263238"/>
        <path id="Trazado_737437" data-name="Trazado 737437" d="M372.116,271.357a2.43,2.43,0,0,1-.371.559,14.137,14.137,0,0,1-1.2,1.383,19.6,19.6,0,0,1-10.507,5.594,14.06,14.06,0,0,1-1.814.219,2.375,2.375,0,0,1-.671,0c-.006-.064.944-.139,2.434-.464a21.738,21.738,0,0,0,10.378-5.526c1.1-1.055,1.695-1.8,1.745-1.761" transform="translate(-110.561 -83.906)" fill="#263238"/>
        <path id="Trazado_737438" data-name="Trazado 737438" d="M357.055,281.223a10.315,10.315,0,0,1-.388-3.82,10.358,10.358,0,0,1,.388,3.82" transform="translate(-110.264 -85.776)" fill="#263238"/>
        <path id="Trazado_737439" data-name="Trazado 737439" d="M353.5,139.119a1.346,1.346,0,0,1-1.192-.806,4.659,4.659,0,0,1-.4-1.545l-.972-7.059a36.206,36.206,0,0,1-.488-6.019,12.868,12.868,0,0,1,1.774-5.542c1.065-2.048,5.373-5.661,12.529-3.635" transform="translate(-108.359 -35.224)" fill="#263238"/>
        <path id="Trazado_737440" data-name="Trazado 737440" d="M352.7,138.079c-.1-.039-3.822-1.054-3.631,2.726s3.946,2.809,3.948,2.7-.316-5.426-.316-5.426" transform="translate(-107.935 -42.648)" fill="#ffbe9d"/>
        <path id="Trazado_737441" data-name="Trazado 737441" d="M352.224,142.69c-.017-.011-.064.05-.172.106a.661.661,0,0,1-.492.035,1.63,1.63,0,0,1-.828-1.424,2.173,2.173,0,0,1,.137-.952.762.762,0,0,1,.47-.531.336.336,0,0,1,.4.161c.056.1.035.18.056.185s.078-.068.039-.222a.425.425,0,0,0-.16-.229.5.5,0,0,0-.369-.077.925.925,0,0,0-.658.62,2.233,2.233,0,0,0-.175,1.065,1.711,1.711,0,0,0,1.043,1.584.706.706,0,0,0,.6-.13c.113-.1.129-.185.115-.191" transform="translate(-108.367 -43.208)" fill="#eb996e"/>
        <path id="Trazado_737442" data-name="Trazado 737442" d="M373.493,138.28c-.017-2.672-.5-8.171-.991-13.144a10.311,10.311,0,0,0-10.451-9.292l-.534.01c-5.75.442-8.587,5.573-7.985,11.308l.808,18.293,13.716,7.525-.046-8.2s5.518-.962,5.484-6.5" transform="translate(-109.292 -35.82)" fill="#ffbe9d"/>
        <path id="Trazado_737443" data-name="Trazado 737443" d="M371.29,156.865a12.868,12.868,0,0,1-7.251-1.917s1.741,4.012,7.253,3.412Z" transform="translate(-112.565 -47.912)" fill="#eb996e"/>
        <path id="Trazado_737444" data-name="Trazado 737444" d="M377.674,134.228a.79.79,0,0,1-.747.811.756.756,0,0,1-.828-.7.789.789,0,0,1,.746-.812.756.756,0,0,1,.828.7" transform="translate(-116.294 -41.288)" fill="#263238"/>
        <path id="Trazado_737445" data-name="Trazado 737445" d="M378.094,132.461c-.1.1-.7-.327-1.553-.309s-1.465.455-1.56.352c-.046-.045.05-.233.318-.436a2.17,2.17,0,0,1,1.246-.409,2.082,2.082,0,0,1,1.239.374c.265.2.357.381.309.428" transform="translate(-115.945 -40.71)" fill="#263238"/>
        <path id="Trazado_737446" data-name="Trazado 737446" d="M365.712,134.477a.79.79,0,0,1-.747.811.755.755,0,0,1-.828-.7.791.791,0,0,1,.747-.812.756.756,0,0,1,.828.7" transform="translate(-112.595 -41.365)" fill="#263238"/>
        <path id="Trazado_737447" data-name="Trazado 737447" d="M365.831,132.411c-.084.115-.735-.249-1.578-.139s-1.407.611-1.512.519c-.05-.04.024-.237.269-.468a2.163,2.163,0,0,1,1.194-.542,2.086,2.086,0,0,1,1.272.238c.284.166.4.34.354.392" transform="translate(-112.159 -40.743)" fill="#263238"/>
        <path id="Trazado_737448" data-name="Trazado 737448" d="M371.685,139.573a5.618,5.618,0,0,1,1.375-.275c.218-.026.421-.073.455-.222a1.105,1.105,0,0,0-.157-.641l-.672-1.641a28.442,28.442,0,0,1-1.522-4.3,28.45,28.45,0,0,1,1.864,4.165c.225.577.441,1.126.646,1.652a1.255,1.255,0,0,1,.129.85.546.546,0,0,1-.351.324,1.477,1.477,0,0,1-.368.058,5.522,5.522,0,0,1-1.4.028" transform="translate(-114.766 -40.969)" fill="#263238"/>
        <path id="Trazado_737449" data-name="Trazado 737449" d="M368.257,143.659c.138-.011.157.913.959,1.553s1.782.521,1.792.649c.014.058-.216.183-.631.2a2.3,2.3,0,0,1-1.495-.49,2,2,0,0,1-.745-1.3c-.042-.385.056-.615.12-.611" transform="translate(-113.829 -44.421)" fill="#263238"/>
        <path id="Trazado_737450" data-name="Trazado 737450" d="M365.558,127.115c-.079.233-.93.139-1.926.278-1,.118-1.8.426-1.933.22-.061-.1.075-.318.4-.548a3.383,3.383,0,0,1,2.94-.38c.369.141.556.319.522.43" transform="translate(-111.837 -39.117)" fill="#263238"/>
        <path id="Trazado_737451" data-name="Trazado 737451" d="M377.565,129.307c-.146.2-.736.006-1.44.01-.7-.021-1.3.154-1.44-.046-.062-.1.028-.292.285-.479a2.083,2.083,0,0,1,2.32.029c.252.193.338.391.274.486" transform="translate(-115.851 -39.719)" fill="#263238"/>
        <path id="Trazado_737452" data-name="Trazado 737452" d="M365.617,114.793c-1.956-.77-3.938-.363-6.018-.059a9.5,9.5,0,0,0-4.425,1.762,8.507,8.507,0,0,0-3.257,6.638,24.378,24.378,0,0,0,.818,7.456l.205-.047a3.6,3.6,0,0,0-.029,1.925,1.243,1.243,0,0,0,1.527.833c.7-.3.719-1.265.656-2.022a54.385,54.385,0,0,1-.03-7.68,6.98,6.98,0,0,1,2.689-5.158c2.714-1.806,6.247-.331,7.448-.122,1.838-1.576,3.558-.344,4.684,1.024a6.826,6.826,0,0,0-4.267-4.549" transform="translate(-108.809 -35.358)" fill="#263238"/>
        <path id="Trazado_737453" data-name="Trazado 737453" d="M370.369,118.233c1.21.012,2.178-.815,3.529-.595.816.133,1.635,1.462,2.347,3.122a2.4,2.4,0,0,0-.705-4.385,2.18,2.18,0,0,0,1.078.352.751.751,0,0,0,.759-.695,1.009,1.009,0,0,0-.452-.667,5.9,5.9,0,0,0-8.316.953" transform="translate(-113.978 -35.273)" fill="#263238"/>
        <path id="Trazado_737454" data-name="Trazado 737454" d="M377.385,116.356c-.035.049-.392-.209-1.045-.413a4.034,4.034,0,0,0-4.643,1.61c-.387.564-.508.989-.565.971a1.951,1.951,0,0,1,.348-1.106,3.936,3.936,0,0,1,4.946-1.715c.674.283.985.624.959.652" transform="translate(-114.754 -35.685)" fill="#455a64"/>
        <path id="Trazado_737455" data-name="Trazado 737455" d="M377.125,121.114a4.253,4.253,0,0,0,.009-1.286,2.7,2.7,0,0,0-.605-1.208,2.864,2.864,0,0,0-1.407-.844,3.781,3.781,0,0,0-2.946.511c-.682.426-1.021.817-1.065.775-.032-.022.24-.48.923-.986a4.115,4.115,0,0,1,1.343-.644,3.565,3.565,0,0,1,1.837,0,3.046,3.046,0,0,1,1.567.976,2.77,2.77,0,0,1,.6,1.38,1.658,1.658,0,0,1-.26,1.329" transform="translate(-114.751 -36.274)" fill="#455a64"/>
        <path id="Trazado_737456" data-name="Trazado 737456" d="M351.208,131.172a1.353,1.353,0,0,1-.144-.5,7.9,7.9,0,0,1-.125-1.424,9.532,9.532,0,0,1,4.331-8.012,7.908,7.908,0,0,1,1.259-.675,1.4,1.4,0,0,1,.5-.156c.026.057-.66.347-1.616,1.04a10.122,10.122,0,0,0-4.221,7.809c-.057,1.181.077,1.913.015,1.922" transform="translate(-108.514 -37.228)" fill="#455a64"/>
        <path id="Trazado_737457" data-name="Trazado 737457" d="M352.478,133.571a8.52,8.52,0,0,1,2.552-7.664,17.482,17.482,0,0,0-1.9,3.625,17.455,17.455,0,0,0-.651,4.04" transform="translate(-108.94 -38.931)" fill="#455a64"/>
        <path id="Trazado_737458" data-name="Trazado 737458" d="M437.168,178.709c-.162-.424-.96-.516-.96-.516l.16-.24a1.163,1.163,0,0,0,.079-1.153c-.027-.056-.058-.113-.091-.171a1.919,1.919,0,0,0-.923-.665s.586-.8.442-1.192a1.9,1.9,0,0,0-1.806-1.061,28.072,28.072,0,0,0-3.766,1.123.833.833,0,0,1-1.107-.615,12.037,12.037,0,0,0-1.21-3.485c-.689-1.156-1.5-1.2-1.992-1.092a.388.388,0,0,0-.277.526,20.875,20.875,0,0,1,.88,2.433c.128.624-.321,5.119-.321,5.119L424,180.8l5.18,7.481,2.277-3.384,4.888-2.153s.924-1.164.826-1.563a1.227,1.227,0,0,0-.48-.645l.6-.852a2.656,2.656,0,0,0-.122-.971" transform="translate(-131.104 -52.444)" fill="#ffbe9d"/>
        <path id="Trazado_737459" data-name="Trazado 737459" d="M438.595,178.182a.5.5,0,0,1-.1.067l-.3.173-1.115.617-1.661.9c-.316.164-.632.359-1,.511a1.325,1.325,0,0,1-1.2-.029.9.9,0,0,1-.367-.517,1.276,1.276,0,0,1-.01-.612,1.726,1.726,0,0,1,.629-.939,6.83,6.83,0,0,1,.847-.562l.755-.451,1.1-.645.3-.171a.491.491,0,0,1,.109-.053.484.484,0,0,1-.1.073l-.291.189-1.079.677-.748.462a6.993,6.993,0,0,0-.828.562,1.63,1.63,0,0,0-.587.882.948.948,0,0,0,.331,1.009.974.974,0,0,0,.547.142,1.589,1.589,0,0,0,.554-.122c.35-.143.674-.338.989-.5l1.672-.879,1.132-.585.311-.153a.467.467,0,0,1,.112-.047" transform="translate(-133.828 -54.567)" fill="#eb996e"/>
        <path id="Trazado_737460" data-name="Trazado 737460" d="M439.823,182.2a1.234,1.234,0,0,1-.232.14c-.153.082-.378.2-.658.334-.559.274-1.342.63-2.225.981a6.31,6.31,0,0,1-.658.236,1.305,1.305,0,0,1-.665.021,1.018,1.018,0,0,1-.731-.8,1,1,0,0,1,.171-.723.891.891,0,0,1,.137-.151c.037-.028.057-.041.06-.038s-.07.068-.16.213a1,1,0,0,0-.129.685.942.942,0,0,0,.678.715,1.214,1.214,0,0,0,.61-.028,6.422,6.422,0,0,0,.645-.233c.88-.35,1.666-.694,2.233-.948l.671-.3a1.269,1.269,0,0,1,.252-.1" transform="translate(-134.397 -56.336)" fill="#eb996e"/>
        <path id="Trazado_737461" data-name="Trazado 737461" d="M440.4,185.081a1.047,1.047,0,0,1-.233.092l-.649.209c-.549.172-1.31.4-2.153.649a5.927,5.927,0,0,1-.626.164,1.148,1.148,0,0,1-.617-.046.674.674,0,0,1-.4-.4.763.763,0,0,1,0-.491,1.034,1.034,0,0,1,.446-.527.675.675,0,0,1,.229-.106c0,.008-.076.049-.2.144a1.041,1.041,0,0,0-.393.515.68.68,0,0,0,.007.433.579.579,0,0,0,.352.331,1.053,1.053,0,0,0,.56.034,6.337,6.337,0,0,0,.613-.163c.842-.247,1.607-.464,2.162-.616l.659-.174a1.062,1.062,0,0,1,.246-.049" transform="translate(-134.718 -57.088)" fill="#eb996e"/>
        <path id="Trazado_737462" data-name="Trazado 737462" d="M440.753,187.693a4.719,4.719,0,0,1-.736.074c-.455.031-1.084.066-1.779.1l-.508.022a2.1,2.1,0,0,1-.484-.017.7.7,0,0,1-.4-.217.453.453,0,0,1-.1-.384.652.652,0,0,1,.345-.43.349.349,0,0,1,.195-.053c0,.01-.068.024-.173.091a.629.629,0,0,0-.287.405.37.37,0,0,0,.1.307.6.6,0,0,0,.346.175,2.054,2.054,0,0,0,.459.009l.507-.024c.695-.032,1.325-.054,1.781-.064a4.7,4.7,0,0,1,.739.007" transform="translate(-135.044 -57.756)" fill="#eb996e"/>
        <path id="Trazado_737463" data-name="Trazado 737463" d="M434.642,185.5a4.394,4.394,0,0,0-2.53-.274,2.824,2.824,0,0,1,2.53.274" transform="translate(-133.614 -57.217)" fill="#eb996e"/>
        <path id="Trazado_737464" data-name="Trazado 737464" d="M388.28,231.029l1.072-.281s.379-1.8.852-2.179,5.22-2.542,6.263-3.111,5.119-2.426,5.632-1.439c.579,1.118-1.08,2.036-1.981,2.462s-3.468,1.424-2.948,2.04,6.261.337,6.261.337l.72-.966s1.264,1.2,1.123,2.24a4.553,4.553,0,0,1-.569,1.706h-.426a1.188,1.188,0,0,1,.048,1.232,11.363,11.363,0,0,1-1.138,1.422,4.221,4.221,0,0,1-2.7,1.973c-.237.065-9.719.888-9.719.888l-3.173.319Z" transform="translate(-119.849 -69.181)" fill="#ffbe9d"/>
      </g>
    </g>
    <g id="Grupo_1034281" data-name="Grupo 1034281">
      <g id="Grupo_1034280" data-name="Grupo 1034280" clip-path="url(#clip-path)">
        <path id="Trazado_737465" data-name="Trazado 737465" d="M88.429,26.213,63.271,16.947,38.359,26.088c-3.18,1.541-5.97,2.463-5.97,5.5V46.721A58.294,58.294,0,0,0,40.6,76.834,51.549,51.549,0,0,0,63.516,97.6C73.7,94.2,81.3,85.16,85.947,77.425a58.29,58.29,0,0,0,8.207-30.114V33.7c0-4.333-2.239-6.449-5.725-7.492" transform="translate(-10.015 -5.24)" fill="#15d3ec"/>
        <g id="Grupo_1034279" data-name="Grupo 1034279" transform="translate(22.155 11.707)" opacity="0.8">
          <g id="Grupo_1034278" data-name="Grupo 1034278">
            <g id="Grupo_1034277" data-name="Grupo 1034277" clip-path="url(#clip-path-14)">
              <path id="Trazado_737466" data-name="Trazado 737466" d="M88.429,26.213,63.271,16.947,38.359,26.088c-3.18,1.541-5.97,2.463-5.97,5.5V46.721A58.294,58.294,0,0,0,40.6,76.834,51.549,51.549,0,0,0,63.516,97.6C73.7,94.2,81.3,85.16,85.947,77.425a58.29,58.29,0,0,0,8.207-30.114V33.7c0-4.333-2.239-6.449-5.725-7.492" transform="translate(-32.389 -16.947)" fill="#81d4fa"/>
            </g>
          </g>
        </g>
        <path id="Trazado_737467" data-name="Trazado 737467" d="M86.188,35.922,66,28.488,46.017,35.822c-2.552,1.237-4.79,1.976-4.79,4.414v12.14a46.768,46.768,0,0,0,6.584,24.16A41.358,41.358,0,0,0,66.2,93.195c8.17-2.722,14.268-9.979,18-16.185a46.771,46.771,0,0,0,6.585-24.16V41.933c0-3.477-1.8-5.175-4.594-6.011" transform="translate(-12.748 -8.809)" fill="#15d3ec"/>
        <path id="Trazado_737468" data-name="Trazado 737468" d="M85.535,64.136H73.665V52.265h-6.82V64.136H54.975v6.819h11.87v11.87h6.82V70.955h11.87Z" transform="translate(-16.999 -16.161)" fill="#fff"/>
        <path id="Trazado_737469" data-name="Trazado 737469" d="M96.7,88.193s.116-.163.352-.473l.2-.26c.067-.1.127-.218.2-.343a5.262,5.262,0,0,0,.446-.893c.07-.176.153-.359.223-.558s.116-.419.178-.645a4.5,4.5,0,0,0,.149-.718,7.386,7.386,0,0,0,.11-.79,14.951,14.951,0,0,0-.174-3.81,34.28,34.28,0,0,0-3.5-9.855A77.013,77.013,0,0,0,87.365,58.16,119.646,119.646,0,0,0,76.158,45.571,137.1,137.1,0,0,0,61.444,33.012c-2.747-2.018-5.643-3.977-8.7-5.821a83.9,83.9,0,0,0-9.661-5.066,45.151,45.151,0,0,0-10.749-3.37,19,19,0,0,0-5.732-.141,10.734,10.734,0,0,0-2.769.8,7.819,7.819,0,0,0-2.324,1.7,7.834,7.834,0,0,0-1.429,2.5,10.729,10.729,0,0,0-.484,2.843,18.951,18.951,0,0,0,.79,5.681,45.126,45.126,0,0,0,4.57,10.3,84.013,84.013,0,0,0,6.133,9.024c2.18,2.825,4.456,5.481,6.774,7.98A137.056,137.056,0,0,0,52.019,72.635a119.68,119.68,0,0,0,13.783,9.7,76.966,76.966,0,0,0,12.467,6.137,34.262,34.262,0,0,0,10.189,2.354,14.938,14.938,0,0,0,3.806-.26,7.493,7.493,0,0,0,.772-.2,4.47,4.47,0,0,0,.7-.229l.62-.249c.19-.093.362-.2.529-.285a5.356,5.356,0,0,0,.837-.545c.115-.086.226-.16.318-.237l.236-.227c.281-.269.43-.4.43-.4s-.137.144-.414.42l-.233.231c-.091.079-.2.155-.316.243a5.306,5.306,0,0,1-.834.557c-.167.091-.34.2-.531.292l-.621.256a4.526,4.526,0,0,1-.7.236,7.744,7.744,0,0,1-.776.206,14.962,14.962,0,0,1-3.823.283,34.177,34.177,0,0,1-10.229-2.325A76.621,76.621,0,0,1,65.72,82.474,119.232,119.232,0,0,1,51.9,72.781,136.792,136.792,0,0,1,37.714,59.587c-2.324-2.5-4.605-5.161-6.792-7.99a84.062,84.062,0,0,1-6.154-9.044,45.28,45.28,0,0,1-4.6-10.35,19.186,19.186,0,0,1-.8-5.749,10.975,10.975,0,0,1,.495-2.907,8.058,8.058,0,0,1,1.475-2.579,8.053,8.053,0,0,1,2.4-1.754,10.975,10.975,0,0,1,2.832-.821,19.241,19.241,0,0,1,5.8.142,45.34,45.34,0,0,1,10.8,3.389,83.971,83.971,0,0,1,9.683,5.084c3.06,1.85,5.96,3.814,8.709,5.838A136.762,136.762,0,0,1,76.289,45.437a119.316,119.316,0,0,1,11.2,12.626,76.71,76.71,0,0,1,7.5,11.728,34.188,34.188,0,0,1,3.473,9.9,14.9,14.9,0,0,1,.155,3.831,7.652,7.652,0,0,1-.115.794,4.591,4.591,0,0,1-.155.72q-.1.34-.184.647c-.073.2-.157.383-.229.56a5.305,5.305,0,0,1-.459.893c-.075.124-.137.242-.205.342l-.2.258c-.242.306-.37.459-.37.459" transform="translate(-5.988 -5.637)" fill="#81d4fa"/>
        <path id="Trazado_737470" data-name="Trazado 737470" d="M106.246,62.637s-.021-.2-.053-.586c-.008-.1-.016-.206-.025-.326s-.051-.248-.079-.389a5.349,5.349,0,0,0-.262-.964c-.065-.178-.125-.37-.205-.565l-.3-.6a4.539,4.539,0,0,0-.367-.634,7.555,7.555,0,0,0-.444-.663,14.938,14.938,0,0,0-2.667-2.727,34.26,34.26,0,0,0-9.172-5.025,77.031,77.031,0,0,0-13.39-3.719A119.623,119.623,0,0,0,62.544,44.5a137.108,137.108,0,0,0-19.34.422c-3.393.322-6.858.79-10.365,1.446a83.89,83.89,0,0,0-10.581,2.651,45.132,45.132,0,0,0-10.265,4.641,19.021,19.021,0,0,0-4.371,3.71,10.759,10.759,0,0,0-1.533,2.442,6.907,6.907,0,0,0,0,5.633,10.739,10.739,0,0,0,1.531,2.443,18.976,18.976,0,0,0,4.371,3.714A45.155,45.155,0,0,0,22.254,76.25,83.959,83.959,0,0,0,32.838,78.9c3.507.657,6.973,1.125,10.367,1.447a137.14,137.14,0,0,0,19.342.422A119.721,119.721,0,0,0,79.29,78.835a77.022,77.022,0,0,0,13.389-3.719,34.265,34.265,0,0,0,9.171-5.025,14.933,14.933,0,0,0,2.666-2.727,7.878,7.878,0,0,0,.444-.663,4.568,4.568,0,0,0,.367-.634l.3-.6c.079-.2.14-.388.205-.565a5.4,5.4,0,0,0,.261-.964c.028-.141.062-.269.079-.388s.017-.229.025-.326c.031-.388.053-.586.053-.586s-.006.2-.029.589c-.006.1-.013.207-.02.327s-.048.249-.074.392a5.272,5.272,0,0,1-.252.971c-.064.18-.122.373-.2.571l-.294.605a4.53,4.53,0,0,1-.364.64,7.657,7.657,0,0,1-.442.67,14.936,14.936,0,0,1-2.665,2.756,34.186,34.186,0,0,1-9.181,5.075,76.66,76.66,0,0,1-13.4,3.759,119.3,119.3,0,0,1-16.765,1.965,136.9,136.9,0,0,1-19.37-.4c-3.4-.321-6.872-.786-10.387-1.442a84.24,84.24,0,0,1-10.613-2.653A45.325,45.325,0,0,1,11.865,71.8a19.19,19.19,0,0,1-4.423-3.759,10.954,10.954,0,0,1-1.565-2.5,7.127,7.127,0,0,1,0-5.81,10.975,10.975,0,0,1,1.567-2.5,19.238,19.238,0,0,1,4.424-3.755,45.3,45.3,0,0,1,10.318-4.662A84.029,84.029,0,0,1,32.8,46.161c3.514-.656,6.986-1.121,10.385-1.441a136.773,136.773,0,0,1,19.368-.4,119.2,119.2,0,0,1,16.764,1.965,76.685,76.685,0,0,1,13.405,3.759,34.172,34.172,0,0,1,9.181,5.075,14.942,14.942,0,0,1,2.666,2.756,7.5,7.5,0,0,1,.442.67,4.541,4.541,0,0,1,.365.641l.293.6c.079.2.137.392.2.571a5.292,5.292,0,0,1,.252.972c.026.142.059.271.074.392s.014.23.02.327c.023.39.029.589.029.589" transform="translate(-1.626 -13.651)" fill="#81d4fa"/>
        <path id="Trazado_737471" data-name="Trazado 737471" d="M95.606,9.7s-.171-.1-.5-.318l-.274-.18c-.1-.06-.227-.112-.356-.175a5.326,5.326,0,0,0-.922-.384c-.18-.057-.369-.128-.573-.184l-.655-.133a4.556,4.556,0,0,0-.726-.1,7.659,7.659,0,0,0-.8-.055,14.943,14.943,0,0,0-3.79.437,34.257,34.257,0,0,0-9.591,4.17,76.888,76.888,0,0,0-11.142,8.3A119.633,119.633,0,0,0,54.5,33.134,137.035,137.035,0,0,0,42.985,48.678c-1.824,2.879-3.578,5.9-5.207,9.078a83.9,83.9,0,0,0-4.389,9.987A45.124,45.124,0,0,0,30.768,78.7a19,19,0,0,0,.255,5.728,10.726,10.726,0,0,0,.99,2.707,6.9,6.9,0,0,0,4.449,3.455,10.737,10.737,0,0,0,2.87.287A18.974,18.974,0,0,0,44.945,89.7,45.134,45.134,0,0,0,54.9,84.426a83.807,83.807,0,0,0,8.58-6.74c2.669-2.369,5.161-4.822,7.5-7.307A136.978,136.978,0,0,0,83.162,55.351a119.5,119.5,0,0,0,8.729-14.418,76.923,76.923,0,0,0,5.264-12.86A34.284,34.284,0,0,0,98.8,17.745a14.96,14.96,0,0,0-.522-3.779,7.778,7.778,0,0,0-.252-.757,4.575,4.575,0,0,0-.276-.678l-.292-.6c-.106-.183-.22-.348-.321-.508a5.314,5.314,0,0,0-.6-.8c-.094-.109-.175-.215-.258-.3l-.242-.22c-.287-.262-.432-.4-.432-.4s.153.126.447.383l.247.217c.085.085.168.19.263.3a5.215,5.215,0,0,1,.614.794c.1.16.22.326.327.509l.3.6a4.537,4.537,0,0,1,.283.68,7.652,7.652,0,0,1,.258.76,14.948,14.948,0,0,1,.546,3.795,34.192,34.192,0,0,1-1.614,10.365A76.676,76.676,0,0,1,92.035,41a119.268,119.268,0,0,1-8.718,14.453A136.831,136.831,0,0,1,71.131,70.522c-2.336,2.49-4.831,4.95-7.5,7.326a84.17,84.17,0,0,1-8.6,6.762,45.294,45.294,0,0,1-10.01,5.3,19.156,19.156,0,0,1-5.68,1.193,10.952,10.952,0,0,1-2.933-.294,7.122,7.122,0,0,1-4.59-3.564A10.963,10.963,0,0,1,30.8,84.475a19.206,19.206,0,0,1-.257-5.8,45.312,45.312,0,0,1,2.636-11.01,84.05,84.05,0,0,1,4.405-10.011c1.634-3.18,3.393-6.208,5.223-9.091A136.8,136.8,0,0,1,54.358,33.012,119.24,119.24,0,0,1,66.181,20.967a76.719,76.719,0,0,1,11.183-8.292A34.187,34.187,0,0,1,87,8.528a14.924,14.924,0,0,1,3.811-.419,7.7,7.7,0,0,1,.8.061,4.6,4.6,0,0,1,.73.1L93,8.414c.2.059.394.131.574.191A5.265,5.265,0,0,1,94.5,9c.128.066.251.12.354.182l.271.185c.322.22.483.337.483.337" transform="translate(-9.413 -2.505)" fill="#81d4fa"/>
        <path id="Trazado_737472" data-name="Trazado 737472" d="M3.2,100.8a1.873,1.873,0,1,1-2.649,0,1.873,1.873,0,0,1,2.649,0" transform="translate(0 -30.999)" fill="#81d4fa"/>
        <path id="Trazado_737473" data-name="Trazado 737473" d="M155.944,16.183a1.873,1.873,0,1,1-1.873-1.873,1.873,1.873,0,0,1,1.873,1.873" transform="translate(-47.061 -4.425)" fill="#81d4fa"/>
        <path id="Trazado_737474" data-name="Trazado 737474" d="M21.327,109.751a.476.476,0,1,1-.476-.476.476.476,0,0,1,.476.476" transform="translate(-6.3 -33.789)" fill="#81d4fa"/>
        <path id="Trazado_737475" data-name="Trazado 737475" d="M36.035,33.767a.476.476,0,1,1-.476-.476.476.476,0,0,1,.476.476" transform="translate(-10.848 -10.294)" fill="#e8505b"/>
        <path id="Trazado_737476" data-name="Trazado 737476" d="M143.573,70.7a.476.476,0,1,1-.476-.476.476.476,0,0,1,.476.476" transform="translate(-44.1 -21.714)" fill="#81d4fa"/>
        <path id="Trazado_737477" data-name="Trazado 737477" d="M153.15,38.574a.476.476,0,1,1-.476-.476.476.476,0,0,1,.476.476" transform="translate(-47.061 -11.78)" fill="#81d4fa"/>
      </g>
    </g>
  </g>
</svg>
