<svg id="Grupo_1034589" data-name="Grupo 1034589" xmlns="http://www.w3.org/2000/svg" xmlns:xlink="http://www.w3.org/1999/xlink" width="295.418" height="344.646" viewBox="0 0 295.418 344.646">
  <defs>
    <clipPath id="clip-path">
      <rect id="Rectángulo_351019" data-name="Rectángulo 351019" width="295.418" height="344.646" fill="none"/>
    </clipPath>
    <clipPath id="clip-path-3">
      <rect id="Rectángulo_351011" data-name="Rectángulo 351011" width="28.139" height="14.494" fill="none"/>
    </clipPath>
    <clipPath id="clip-path-4">
      <rect id="Rectángulo_351016" data-name="Rectángulo 351016" width="50.376" height="22.452" fill="none"/>
    </clipPath>
    <clipPath id="clip-path-5">
      <rect id="Rectángulo_351017" data-name="Rectángulo 351017" width="55.982" height="13.832" fill="none"/>
    </clipPath>
  </defs>
  <g id="Grupo_1034588" data-name="Grupo 1034588" clip-path="url(#clip-path)">
    <path id="Trazado_738759" data-name="Trazado 738759" d="M0,0H11.695V13.572H0Z" transform="translate(4.741 325.596)" fill="#6bcfc6"/>
    <g id="Grupo_1034587" data-name="Grupo 1034587">
      <g id="Grupo_1034586" data-name="Grupo 1034586" clip-path="url(#clip-path)">
        <path id="Trazado_738717" data-name="Trazado 738717" d="M14.634,4139.374h0a1.779,1.779,0,0,1,1.792-1.768h0a1.779,1.779,0,0,1,1.667,1.186,7.99,7.99,0,0,0,4.956,4.9l8.1,2.758a3.879,3.879,0,0,1,2.629,3.7.482.482,0,0,1-.485.479l-32.824-.209a.482.482,0,0,1-.479-.485l.029-4.456s.149-5.606,4.725-6.658c0,0,2.22,4.709,6.719,4.292,2.8-.261,3.163-3.732,3.163-3.732" transform="translate(0 -3805.975)" fill="#3c4150"/>
        <path id="Trazado_738718" data-name="Trazado 738718" d="M3.98,4205.05a3.374,3.374,0,0,1-.259,2.65l-3.512-.023.017-2.326A9.317,9.317,0,0,1,.77,4202.7a3.375,3.375,0,0,1,3.21,2.351" transform="translate(-0.192 -3865.852)" fill="#75819e"/>
        <rect id="Rectángulo_350988" data-name="Rectángulo 350988" width="11.695" height="13.572" transform="translate(55.454 325.596)" fill="#6bcfc6"/>
        <path id="Trazado_738719" data-name="Trazado 738719" d="M647.358,4139.374h0a1.779,1.779,0,0,1,1.792-1.768h0a1.779,1.779,0,0,1,1.667,1.186,7.991,7.991,0,0,0,4.956,4.9l8.1,2.758a3.879,3.879,0,0,1,2.629,3.7.482.482,0,0,1-.484.479l-32.824-.209a.482.482,0,0,1-.478-.485l.028-4.456s.149-5.606,4.725-6.658c0,0,2.22,4.709,6.719,4.292,2.8-.261,3.163-3.732,3.163-3.732" transform="translate(-582.011 -3805.975)" fill="#3c4150"/>
        <path id="Trazado_738720" data-name="Trazado 738720" d="M636.7,4205.05a3.374,3.374,0,0,1-.259,2.65l-3.512-.023.017-2.326a9.315,9.315,0,0,1,.544-2.652,3.376,3.376,0,0,1,3.21,2.351" transform="translate(-582.203 -3865.852)" fill="#75819e"/>
        <path id="Trazado_738721" data-name="Trazado 738721" d="M21.733,1938.985h60.22l5.176,169.138a3.193,3.193,0,0,1-3.19,3.336h-15.5a3.2,3.2,0,0,1-3.159-2.65c-6.631-60.861-7.188-65.81-14-128.15L34.96,2109.422a3.2,3.2,0,0,1-3.138,2.566H18.894a3.2,3.2,0,0,1-3.2-3.357Z" transform="translate(-14.432 -1783.575)" fill="#12263f"/>
        <path id="Trazado_739601" data-name="Trazado 739601" d="M0,0H206.7V9.427H0Z" transform="translate(88.715)" fill="#15d3ec"/>
        <rect id="Rectángulo_350990" data-name="Rectángulo 350990" width="172.612" height="9.427" transform="translate(105.76 93.043)" fill="#15d3ec"/>
        <rect id="Rectángulo_350991" data-name="Rectángulo 350991" width="172.612" height="9.427" transform="translate(105.76 191.614)" fill="#15d3ec"/>
        <rect id="Rectángulo_350992" data-name="Rectángulo 350992" width="172.612" height="9.427" transform="translate(105.76 290.185)" fill="#15d3ec"/>
        <rect id="Rectángulo_350993" data-name="Rectángulo 350993" width="9.079" height="319.179" transform="translate(278.373 9.429)" fill="#e1e5e2"/>
        <rect id="Rectángulo_350994" data-name="Rectángulo 350994" width="9.079" height="319.179" transform="translate(96.682 9.426)" fill="#e1e5e2"/>
        <rect id="Rectángulo_350995" data-name="Rectángulo 350995" width="21.023" height="54.451" transform="translate(250.523 38.592)" fill="#cbd1cc"/>
        <rect id="Rectángulo_350996" data-name="Rectángulo 350996" width="53.101" height="54.451" transform="translate(197.422 38.592)" fill="#e1e5e2"/>
        <path id="Trazado_738722" data-name="Trazado 738722" d="M2729.516,481.494V500.67l-6.194-3.6-6.194,3.6V481.494Z" transform="translate(-2499.349 -442.902)" fill="#ff9d00"/>
        <rect id="Rectángulo_350997" data-name="Rectángulo 350997" width="21.023" height="54.451" transform="translate(168.812 137.163)" fill="#cbd1cc"/>
        <rect id="Rectángulo_350998" data-name="Rectángulo 350998" width="53.101" height="54.451" transform="translate(115.711 137.163)" fill="#e1e5e2"/>
        <path id="Trazado_738723" data-name="Trazado 738723" d="M1710.042,1711.325V1730.5l-6.194-3.6-6.194,3.6v-19.176Z" transform="translate(-1561.587 -1574.162)" fill="#ff9d00"/>
        <rect id="Rectángulo_350999" data-name="Rectángulo 350999" width="21.023" height="54.451" transform="translate(250.523 137.163)" fill="#cbd1cc"/>
        <rect id="Rectángulo_351000" data-name="Rectángulo 351000" width="53.101" height="54.451" transform="translate(197.422 137.163)" fill="#e1e5e2"/>
        <path id="Trazado_738724" data-name="Trazado 738724" d="M2729.516,1711.325V1730.5l-6.194-3.6-6.194,3.6v-19.176Z" transform="translate(-2499.349 -1574.162)" fill="#ff9d00"/>
        <rect id="Rectángulo_351001" data-name="Rectángulo 351001" width="52.644" height="11.228" transform="translate(140.029 237.318)" fill="#e1e5e2"/>
        <rect id="Rectángulo_351002" data-name="Rectángulo 351002" width="49.931" height="41.639" transform="translate(140.029 248.546)" fill="#cbd1cc"/>
        <rect id="Rectángulo_351003" data-name="Rectángulo 351003" width="19.982" height="11.228" transform="translate(120.048 237.318)" fill="#cbd1cc"/>
        <rect id="Rectángulo_351004" data-name="Rectángulo 351004" width="17.637" height="41.639" transform="translate(122.393 248.546)" fill="#c2c6c3"/>
        <rect id="Rectángulo_351005" data-name="Rectángulo 351005" width="18.582" height="12.076" transform="translate(144.912 272.239)" fill="#fff"/>
        <rect id="Rectángulo_351006" data-name="Rectángulo 351006" width="52.644" height="11.228" transform="translate(221.516 237.318)" fill="#e1e5e2"/>
        <rect id="Rectángulo_351007" data-name="Rectángulo 351007" width="49.931" height="41.639" transform="translate(221.516 248.546)" fill="#cbd1cc"/>
        <rect id="Rectángulo_351008" data-name="Rectángulo 351008" width="19.982" height="11.228" transform="translate(201.534 237.318)" fill="#cbd1cc"/>
        <rect id="Rectángulo_351009" data-name="Rectángulo 351009" width="17.637" height="41.639" transform="translate(203.879 248.546)" fill="#c2c6c3"/>
        <rect id="Rectángulo_351010" data-name="Rectángulo 351010" width="18.582" height="12.076" transform="translate(226.399 272.239)" fill="#fff"/>
        <path id="Trazado_738725" data-name="Trazado 738725" d="M1430.813,968.293l2.442,5.653,5.633,1.652c-1.786-5.322-4.219-7.193-6.734-8.625Z" transform="translate(-1316.133 -889.47)" fill="#3c4150"/>
        <path id="Trazado_738726" data-name="Trazado 738726" d="M1447.543,802c.133,3.488,2.059,5.358,4.975,7.005l3.21-3.626c5.879-.308,12.695-4.6,9.875-7.055,1.324-1.633-.7-2.42-.7-2.42.765-2.078-1.747-2.26-1.747-2.26.544-.429,4.35-3.442,5.8-4.589.993-.925,1.21-2.785.16-2.751a48.521,48.521,0,0,0-20.811,14.7c-.274.331-.525.662-.765.993" transform="translate(-1331.522 -723.283)" fill="#f5c4ac"/>
        <path id="Trazado_738727" data-name="Trazado 738727" d="M65.1,821.337c.2,11.057.447,22.27.52,32.2-.229,9.841,62.29,11.306,62.529,1.465-.215-3.874-.609-29.234-1.517-53.311,5.165,4.884,11.317,9.685,16.035,10.381C153.689,813.7,182.4,783.52,182.4,783.52c-4.063-1.3-6.692-3.835-6.734-8.625l-29.16,15.214a2.2,2.2,0,0,1-2.234-.7l-21.013-24.775v.021c-6.329-8.2-47.2-9.322-54.506.572a21,21,0,0,0-3.429,13.239c-.686,11.036-.52,26.791-.229,42.867" transform="translate(-59.647 -697.392)" fill="#f6f6f6"/>
        <path id="Trazado_738728" data-name="Trazado 738728" d="M841.52,1525.655c2.537.184,1.457,14.935-1.081,14.75l-2.3-10.126Z" transform="translate(-770.962 -1403.373)" fill="#3c4150"/>
        <path id="Trazado_738729" data-name="Trazado 738729" d="M848.138,1517.956s9.167,1.414,12.566.968c2.731-.424,2.09,2.965-3.2,2.842a18.631,18.631,0,0,0,4.986.439c2.295-.356,2.2,2.037-1.128,2.7,1.449.159.747,2.241-2.072,2.838l-.029-.015-.131.042c.044-.014.116-.013.16-.027,3.18-.3,2.036,2.885-7.955,2.086-4.494-.359-12.6-3.12-13.162-3.372a17.6,17.6,0,0,1,.527-5.087,13.746,13.746,0,0,1,1.814-4.683.032.032,0,0,1,.044-.014c.233-.1,5.873-3.016,7.686-3.134,5.169-.335,3.417,4.01-.1,4.415" transform="translate(-770.962 -1392.213)" fill="#f5c4ac"/>
        <path id="Trazado_738730" data-name="Trazado 738730" d="M1047.863,1611.9a.271.271,0,0,1-.237-.3.292.292,0,0,1,.3-.237,20.65,20.65,0,0,0,2.6.124.254.254,0,0,1,.279.258.268.268,0,0,1-.258.279,20.334,20.334,0,0,1-2.687-.124" transform="translate(-963.657 -1482.213)" fill="#3c4150"/>
        <path id="Trazado_738731" data-name="Trazado 738731" d="M1071.234,1648.222a.272.272,0,0,1-.195-.329.285.285,0,0,1,.331-.192,12.849,12.849,0,0,0,4.207.3h.031a.268.268,0,0,1,.268.237.272.272,0,0,1-.237.3,12.965,12.965,0,0,1-4.407-.318" transform="translate(-985.187 -1515.632)" fill="#3c4150"/>
        <path id="Trazado_738732" data-name="Trazado 738732" d="M1056.49,1683.805a11.819,11.819,0,0,1-2.971-.405.272.272,0,0,1-.195-.328.287.287,0,0,1,.332-.192,10.018,10.018,0,0,0,3.571.35.263.263,0,0,1,.3.229.269.269,0,0,1-.231.3,5.709,5.709,0,0,1-.81.045" transform="translate(-968.892 -1547.991)" fill="#3c4150"/>
        <path id="Trazado_738733" data-name="Trazado 738733" d="M929.164,1565.866a.265.265,0,0,1-.263-.221.269.269,0,0,1,.216-.313l2.961-.537a.27.27,0,0,1,.095.531l-3.008.539" transform="translate(-854.445 -1439.373)" fill="#3c4150"/>
        <g id="Grupo_1034579" data-name="Grupo 1034579" transform="translate(5.3 114.702)" opacity="0.5">
          <g id="Grupo_1034578" data-name="Grupo 1034578">
            <g id="Grupo_1034577" data-name="Grupo 1034577" clip-path="url(#clip-path-3)">
              <path id="Trazado_738734" data-name="Trazado 738734" d="M66.131,1431.085l.349,8.679c8.136,4.789,17.777,5.772,27.79,5.815l-22.8-11.111a58.417,58.417,0,0,0-5.34-3.384" transform="translate(-66.131 -1431.085)" fill="#c2c6c3"/>
            </g>
          </g>
        </g>
        <path id="Trazado_738735" data-name="Trazado 738735" d="M456.593,2402.152h-.032a.273.273,0,0,1-.237-.3l.563-4.7a.268.268,0,0,1,.268-.236h.032a.273.273,0,0,1,.237.3l-.563,4.7a.268.268,0,0,1-.268.236" transform="translate(-419.749 -2204.801)" fill="#3c4150"/>
        <path id="Trazado_738736" data-name="Trazado 738736" d="M39.926,824.871c-4.4,3.721-6.493,9.671-7.17,15.4-1.725,14.58-3.5,36.06,9.779,41.682C52.791,886.3,80.746,892.876,93.777,895.1c1.954.333,3.564.572,4.739.686C96.76,890.507,97,885.145,99.6,881.039L46.328,862.76" transform="translate(-29.041 -758.757)" fill="#f5f5f5"/>
        <path id="Trazado_738737" data-name="Trazado 738737" d="M521.7,258.121c0,6.307-2.99,11.417-6.675,11.417s-6.681-5.11-6.681-11.417,2.991-11.417,6.681-11.417,6.675,5.11,6.675,11.417" transform="translate(-467.601 -226.931)" fill="#3c4150"/>
        <path id="Trazado_738738" data-name="Trazado 738738" d="M326.786,263.91l.084,1.973-4.841,19.9L312.2,266.174s-2.287-21.273-2.287-23.767c0,0-.677-20.169,15.568-19.588,8.959.321,11.56,9.694,11.56,21.063,0,10.813,1.246,20.2-10.258,20.028" transform="translate(-285.072 -204.948)" fill="#ffbe9d"/>
        <path id="Trazado_738739" data-name="Trazado 738739" d="M366.437,819.637l7.586,15.14,3.683-15.14a18.747,18.747,0,0,1-11.27,0" transform="translate(-337.067 -753.943)" fill="#3c4150"/>
        <path id="Trazado_738740" data-name="Trazado 738740" d="M278.1,168.969c6.992-3.29,3-14.829-6.92-13.678s-11.61-1.25-15.263-2.234c-5.712-1.539-16.477,6.006-13.778,19.027,3.4,16.407,10.954,7.678,10.954,7.678.672-3.851,1.03-7.395.139-9.718,0,0,17.877,2.215,24.868-1.075" transform="translate(-222.339 -140.608)" fill="#3c4150"/>
        <path id="Trazado_738741" data-name="Trazado 738741" d="M432.394,705.73h-.026a25.156,25.156,0,0,1-7.441-2.372.273.273,0,0,1-.121-.36.264.264,0,0,1,.363-.118,25.193,25.193,0,0,0,7.252,2.314.273.273,0,0,1,.242.3.27.27,0,0,1-.268.239" transform="translate(-390.733 -646.514)" fill="#3c4150"/>
        <path id="Trazado_738742" data-name="Trazado 738742" d="M542.031,536.165a.269.269,0,0,1-.021-.536,3.764,3.764,0,0,0,1.046-.189c.295-.116.289-.218.279-.386a7.26,7.26,0,0,0-.657-2.485.271.271,0,0,1,.137-.355.264.264,0,0,1,.358.134,7.9,7.9,0,0,1,.7,2.669.822.822,0,0,1-.615.923,4.112,4.112,0,0,1-1.2.226Z" transform="translate(-498.34 -489.531)" fill="#3c4150"/>
        <path id="Trazado_738743" data-name="Trazado 738743" d="M531.907,619.194a1.838,1.838,0,0,1-.289-.021,2.2,2.2,0,0,1-1.367-.826.271.271,0,0,1,.442-.313,1.652,1.652,0,0,0,1.015.607,1.99,1.99,0,0,0,1.478-.5.268.268,0,1,1,.326.426,2.645,2.645,0,0,1-1.6.623" transform="translate(-487.706 -568.394)" fill="#3c4150"/>
        <path id="Trazado_738744" data-name="Trazado 738744" d="M533.308,469.161a.267.267,0,0,1-.242-.147.276.276,0,0,1,.121-.363,2.765,2.765,0,0,1,2.55,0,.27.27,0,0,1,.126.36.273.273,0,0,1-.358.124,2.2,2.2,0,0,0-2.077,0,.27.27,0,0,1-.121.026" transform="translate(-490.316 -430.802)" fill="#3c4150"/>
        <path id="Trazado_738745" data-name="Trazado 738745" d="M381.886,464.96h-.021l-4.281-.331a.27.27,0,0,1-.247-.289.265.265,0,0,1,.268-.247h.021l4.281.331a.27.27,0,0,1,.247.289.265.265,0,0,1-.268.247" transform="translate(-347.093 -426.895)" fill="#3c4150"/>
        <path id="Trazado_738746" data-name="Trazado 738746" d="M433.717,436.488a4.9,4.9,0,1,1,4.486-4.883,4.669,4.669,0,0,1-4.486,4.883m0-9.227a4.365,4.365,0,1,0,3.949,4.344,4.132,4.132,0,0,0-3.949-4.344" transform="translate(-394.901 -392.523)" fill="#3c4150"/>
        <path id="Trazado_738747" data-name="Trazado 738747" d="M493.372,489.622a.976.976,0,1,1-.967-1.106,1.044,1.044,0,0,1,.967,1.106" transform="translate(-452.049 -449.361)" fill="#3c4150"/>
        <path id="Trazado_738748" data-name="Trazado 738748" d="M463.226,450.965a.243.243,0,0,1-.147-.045.268.268,0,0,1-.079-.371,2.908,2.908,0,0,1,1.7-1.186,2.084,2.084,0,0,1,1.651.46.27.27,0,0,1-.326.431,1.52,1.52,0,0,0-1.231-.36,2.393,2.393,0,0,0-1.341.952.272.272,0,0,1-.226.118" transform="translate(-425.851 -413.321)" fill="#3c4150"/>
        <path id="Trazado_738749" data-name="Trazado 738749" d="M567.173,436.488a4.9,4.9,0,1,1,4.486-4.883,4.669,4.669,0,0,1-4.486,4.883m0-9.227a4.365,4.365,0,1,0,3.949,4.344,4.132,4.132,0,0,0-3.949-4.344" transform="translate(-517.66 -392.523)" fill="#3c4150"/>
        <path id="Trazado_738750" data-name="Trazado 738750" d="M626.834,489.622a.976.976,0,1,1-.967-1.106,1.043,1.043,0,0,1,.967,1.106" transform="translate(-574.814 -449.361)" fill="#3c4150"/>
        <path id="Trazado_738751" data-name="Trazado 738751" d="M596.683,450.965a.244.244,0,0,1-.147-.045.268.268,0,0,1-.079-.371,2.908,2.908,0,0,1,1.7-1.186,2.084,2.084,0,0,1,1.651.46.27.27,0,0,1-.326.431,1.515,1.515,0,0,0-1.231-.36,2.393,2.393,0,0,0-1.341.952.272.272,0,0,1-.226.118" transform="translate(-548.612 -413.321)" fill="#3c4150"/>
        <path id="Trazado_738752" data-name="Trazado 738752" d="M307.761,443.91a6.408,6.408,0,0,0-.615-4.056c-1.171-2.489-3.338-3.938-4.846-3.235s-1.771,3.294-.6,5.8a6.648,6.648,0,0,0,2.518,2.928" transform="translate(-276.851 -401.461)" fill="#f5c4ac"/>
        <path id="Trazado_738753" data-name="Trazado 738753" d="M301.057,442.483a.255.255,0,0,1-.137-.037A6.928,6.928,0,0,1,298.3,439.4c-1.246-2.658-.925-5.359.726-6.15s3.955.7,5.206,3.36a6.646,6.646,0,0,1,.636,4.231.27.27,0,1,1-.526-.121,6.138,6.138,0,0,0-.594-3.878c-1.115-2.359-3.176-3.739-4.491-3.105-1.357.649-1.572,3.09-.473,5.438a6.453,6.453,0,0,0,2.414,2.811.271.271,0,0,1,.095.368.263.263,0,0,1-.231.131" transform="translate(-273.69 -398.331)" fill="#3c4150"/>
        <path id="Trazado_738754" data-name="Trazado 738754" d="M327.8,474.01a.28.28,0,0,1-.258-.181,1.642,1.642,0,0,1,.063-1.383,1.753,1.753,0,0,1,1.094-.757.259.259,0,0,1,.316.208.266.266,0,0,1-.21.318,1.226,1.226,0,0,0-.731.5,1.1,1.1,0,0,0-.016.936.271.271,0,0,1-.174.342.236.236,0,0,1-.084.013" transform="translate(-301.182 -433.87)" fill="#3c4150"/>
        <rect id="Rectángulo_351012" data-name="Rectángulo 351012" width="14.672" height="56.835" transform="matrix(0.954, -0.299, 0.299, 0.954, 151.086, 31.692)" fill="#cbd1cc"/>
        <rect id="Rectángulo_351013" data-name="Rectángulo 351013" width="37.06" height="56.835" transform="translate(115.718 42.763) rotate(-17.38)" fill="#e1e5e2"/>
        <path id="Trazado_738755" data-name="Trazado 738755" d="M1621.178,448.361l2.989,9.551-4.686-.5-3.565,3.082-2.99-9.551Z" transform="translate(-1483.65 -412.425)" fill="#ff9d00"/>
        <path id="Trazado_738756" data-name="Trazado 738756" d="M1458.456,864.942c4.289-3.088,2.742-6.425,2.742-6.425s1.7-1.6,2.183-2.2c.935-1.154.894-2.931.443-3.3-1.62-1.312-11.462,9.732-11.462,9.732" transform="translate(-1335.954 -784.554)" fill="#f5c4ac"/>
        <rect id="Rectángulo_351014" data-name="Rectángulo 351014" width="17.277" height="7.497" transform="translate(92.583 327.88)" fill="#636363"/>
        <rect id="Rectángulo_351015" data-name="Rectángulo 351015" width="17.277" height="7.497" transform="translate(274.274 327.88)" fill="#636363"/>
        <g id="Grupo_1034582" data-name="Grupo 1034582" transform="translate(20.18 99.83)" opacity="0.5">
          <g id="Grupo_1034581" data-name="Grupo 1034581">
            <g id="Grupo_1034580" data-name="Grupo 1034580" clip-path="url(#clip-path-4)">
              <path id="Trazado_738757" data-name="Trazado 738757" d="M302.152,1267.992c-16.624-4.84-38.232-12.679-40.131-13.333-2.119-.854-4.631-1.35-6.353-3.191a56.583,56.583,0,0,1-3.891-5.928,57.244,57.244,0,0,0,4.257,5.548c1.644,1.63,4.032,2.005,6.256,2.787,2.056.7,23.763,7.728,39.863,14.116" transform="translate(-251.776 -1245.541)" fill="#c2c6c3"/>
            </g>
          </g>
        </g>
        <g id="Grupo_1034585" data-name="Grupo 1034585" transform="translate(13.493 123.197)" opacity="0.5">
          <g id="Grupo_1034584" data-name="Grupo 1034584">
            <g id="Grupo_1034583" data-name="Grupo 1034583" clip-path="url(#clip-path-5)">
              <path id="Trazado_738758" data-name="Trazado 738758" d="M168.347,1537.074c11.377,4.078,44.187,11.691,55.982,13.831-14.241-1.236-42.749-7.935-55.982-13.831" transform="translate(-168.347 -1537.073)" fill="#c2c6c3"/>
            </g>
          </g>
        </g>
      </g>
    </g>
  </g>
</svg>
