<svg xmlns="http://www.w3.org/2000/svg" width="491.3" height="216.717" viewBox="0 0 491.3 216.717">
  <g id="Grupo_1036324" data-name="Grupo 1036324" transform="translate(-1172 267.384)">
    <rect id="Rectángulo_49826" data-name="Rectángulo 49826" width="491" height="27" transform="translate(1172 -267)" fill="#15d3ec"/>
    <rect id="Rectángulo_49827" data-name="Rectángulo 49827" width="491" height="15" transform="translate(1172 -158)" fill="#15d3ec"/>
    <g id="Grupo_172405" data-name="Grupo 172405" transform="translate(1150.281 -330.766)">
      <g id="Grupo_172403" data-name="Grupo 172403" transform="translate(22.923 63.433)">
        <line id="Línea_582" data-name="Línea 582" y2="81.598" transform="translate(0.442 0.017)" fill="none" stroke="#040405" stroke-linejoin="round" stroke-width="1"/>
        <line id="Línea_583" data-name="Línea 583" x2="489.569" transform="translate(0.01 81.184)" fill="none" stroke="#040405" stroke-linejoin="round" stroke-width="1"/>
        <g id="Grupo_172402" data-name="Grupo 172402">
          <line id="Línea_584" data-name="Línea 584" y2="54.686" transform="translate(20.805 26.929)" fill="none" stroke="#040405" stroke-linejoin="round" stroke-width="1"/>
          <line id="Línea_585" data-name="Línea 585" y2="54.686" transform="translate(81.892 26.929)" fill="none" stroke="#040405" stroke-linejoin="round" stroke-width="1"/>
          <line id="Línea_586" data-name="Línea 586" y2="54.686" transform="translate(102.256 26.929)" fill="none" stroke="#040405" stroke-linejoin="round" stroke-width="1"/>
          <line id="Línea_587" data-name="Línea 587" y2="54.686" transform="translate(163.343 26.929)" fill="none" stroke="#040405" stroke-linejoin="round" stroke-width="1"/>
          <line id="Línea_588" data-name="Línea 588" y2="54.686" transform="translate(183.706 26.929)" fill="none" stroke="#040405" stroke-linejoin="round" stroke-width="1"/>
          <line id="Línea_589" data-name="Línea 589" y2="54.686" transform="translate(244.794 26.929)" fill="none" stroke="#040405" stroke-linejoin="round" stroke-width="1"/>
          <line id="Línea_590" data-name="Línea 590" y2="54.686" transform="translate(258.941 26.929)" fill="none" stroke="#040405" stroke-linejoin="round" stroke-width="1"/>
          <line id="Línea_591" data-name="Línea 591" y2="54.686" transform="translate(332.462 26.929)" fill="none" stroke="#040405" stroke-linejoin="round" stroke-width="1"/>
          <line id="Línea_592" data-name="Línea 592" y2="54.686" transform="translate(346.609 26.929)" fill="none" stroke="#040405" stroke-linejoin="round" stroke-width="1"/>
          <line id="Línea_593" data-name="Línea 593" y2="54.686" transform="translate(407.697 26.929)" fill="none" stroke="#040405" stroke-linejoin="round" stroke-width="1"/>
          <line id="Línea_594" data-name="Línea 594" y2="54.686" transform="translate(428.06 26.929)" fill="none" stroke="#040405" stroke-linejoin="round" stroke-width="1"/>
          <line id="Línea_595" data-name="Línea 595" x2="489.569" transform="translate(0.01 27.361)" fill="none" stroke="#040405" stroke-linejoin="round" stroke-width="1"/>
          <line id="Línea_596" data-name="Línea 596" x2="489.569" transform="translate(0.01 54.272)" fill="none" stroke="#040405" stroke-linejoin="round" stroke-width="1"/>
          <line id="Línea_597" data-name="Línea 597" y2="81.598" transform="translate(489.148 0.017)" fill="none" stroke="#040405" stroke-linejoin="round" stroke-width="1"/>
          <line id="Línea_598" data-name="Línea 598" x2="489.569" transform="translate(0.01 0.449)" fill="none" stroke="#040405" stroke-linejoin="round" stroke-width="1"/>
          <text id="Controles_en_proceso" data-name="Controles en proceso" transform="translate(200.546 11.168)" fill="#fff" font-size="7" font-family="Roboto-Bold, Roboto" font-weight="700"><tspan x="0" y="0">Controles en proceso</tspan></text>
          <rect id="Rectángulo_49766" data-name="Rectángulo 49766" width="490.096" height="83.321" fill="none"/>
          <text id="Procesos_a_realizar" data-name="Procesos a realizar" transform="translate(205.721 21.526)" fill="#fff" font-size="7" font-family="Roboto-Bold, Roboto" font-weight="700"><tspan x="0" y="0">Procesos a realizar</tspan></text>
          <rect id="Rectángulo_49767" data-name="Rectángulo 49767" width="490.096" height="83.321" fill="none"/>
          <text id="Otro:" transform="translate(448.991 43.251)" fill="#040405" font-size="7" font-family="Roboto-Regular, Roboto"><tspan x="0" y="0">Otro:</tspan></text>
          <rect id="Rectángulo_49768" data-name="Rectángulo 49768" width="490.096" height="83.321" fill="none"/>
          <rect id="Rectángulo_49769" data-name="Rectángulo 49769" width="490.096" height="83.321" fill="none"/>
          <rect id="Rectángulo_49770" data-name="Rectángulo 49770" width="490.096" height="83.321" fill="none"/>
          <text id="Sticker" transform="translate(364.017 38.082)" fill="#040405" font-size="7" font-family="Roboto-Italic, Roboto" font-style="italic"><tspan x="0" y="0">Sticker</tspan></text>
          <rect id="Rectángulo_49771" data-name="Rectángulo 49771" width="490.096" height="83.321" fill="none"/>
          <text id="colocado." transform="translate(358.741 48.433)" fill="#040405" font-size="7" font-family="Roboto-Regular, Roboto"><tspan x="0" y="0">colocado.</tspan></text>
          <rect id="Rectángulo_49772" data-name="Rectángulo 49772" width="490.096" height="83.321" fill="none"/>
          <path id="Trazado_208796" data-name="Trazado 208796" d="M23.039,146.755h490.1V63.433H23.039v83.321Z" transform="translate(-23.039 -63.433)" fill="none" fill-rule="evenodd"/>
          <path id="Trazado_208797" data-name="Trazado 208797" d="M23.039,146.755h490.1V63.433H23.039v83.321Z" transform="translate(-23.039 -63.433)" fill="none" fill-rule="evenodd"/>
          <path id="Trazado_208798" data-name="Trazado 208798" d="M23.039,146.755h490.1V63.433H23.039v83.321Z" transform="translate(-23.039 -63.433)" fill="none" fill-rule="evenodd"/>
          <path id="Trazado_208799" data-name="Trazado 208799" d="M23.039,146.755h490.1V63.433H23.039v83.321Z" transform="translate(-23.039 -63.433)" fill="none" fill-rule="evenodd"/>
          <path id="Trazado_208800" data-name="Trazado 208800" d="M23.039,146.755h490.1V63.433H23.039v83.321Z" transform="translate(-23.039 -63.433)" fill="none" fill-rule="evenodd"/>
          <path id="Trazado_208801" data-name="Trazado 208801" d="M23.039,146.755h490.1V63.433H23.039v83.321Z" transform="translate(-23.039 -63.433)" fill="none" fill-rule="evenodd"/>
          <path id="Trazado_208802" data-name="Trazado 208802" d="M23.039,146.755h490.1V63.433H23.039v83.321Z" transform="translate(-23.039 -63.433)" fill="none" fill-rule="evenodd"/>
          <text id="_9" data-name="9" transform="translate(337.164 43.251)" fill="#040405" font-size="7" font-family="Roboto-Regular, Roboto"><tspan x="0" y="0">9</tspan></text>
          <text id="_10" data-name="10" transform="translate(334.576 71.451)" fill="#040405" font-size="7" font-family="Roboto-Regular, Roboto"><tspan x="0" y="0">10</tspan></text>
          <text id="_12" data-name="12" transform="translate(411.515 71.451)" fill="#040405" font-size="7" font-family="Roboto-Regular, Roboto"><tspan x="0" y="0">12</tspan></text>
          <text id="_11" data-name="11" transform="translate(411.515 44.019)" fill="#040405" font-size="7" font-family="Roboto-Regular, Roboto"><tspan x="0" y="0">11</tspan></text>
          <rect id="Rectángulo_49773" data-name="Rectángulo 49773" width="14.18" height="72.557" transform="translate(332.458 4.554)" fill="none"/>
          <path id="Trazado_208803" data-name="Trazado 208803" d="M408.479,141.27h14.18V68.713h-14.18V141.27Z" transform="translate(-76.021 -64.159)" fill="none" fill-rule="evenodd"/>
          <text id="Termoencogido." transform="translate(265.708 43.258)" fill="#040405" font-size="7" font-family="Roboto-Regular, Roboto"><tspan x="0" y="0">Termoencogido.</tspan></text>
          <rect id="Rectángulo_49774" data-name="Rectángulo 49774" width="490.096" height="83.321" fill="none"/>
          <rect id="Rectángulo_49775" data-name="Rectángulo 49775" width="490.096" height="83.321" fill="none"/>
          <path id="Trazado_208804" data-name="Trazado 208804" d="M23.039,146.755h490.1V63.433H23.039v83.321Z" transform="translate(-23.039 -63.433)" fill="none" fill-rule="evenodd"/>
          <path id="Trazado_208805" data-name="Trazado 208805" d="M23.039,146.755h490.1V63.433H23.039v83.321Z" transform="translate(-23.039 -63.433)" fill="none" fill-rule="evenodd"/>
          <text id="_7" data-name="7" transform="translate(249.495 43.251)" fill="#040405" font-size="7" font-family="Roboto-Regular, Roboto"><tspan x="0" y="0">7</tspan></text>
          <rect id="Rectángulo_49776" data-name="Rectángulo 49776" width="14.18" height="72.557" transform="translate(244.789 4.554)" fill="none"/>
          <path id="Trazado_208806" data-name="Trazado 208806" d="M306.839,141.27h14.18V68.713h-14.18V141.27Z" transform="translate(-62.049 -64.159)" fill="none" fill-rule="evenodd"/>
          <text id="Codificado." transform="translate(192.736 43.251)" fill="#040405" font-size="7" font-family="Roboto-Regular, Roboto"><tspan x="0" y="0">Codificado.</tspan></text>
          <rect id="Rectángulo_49777" data-name="Rectángulo 49777" width="490.096" height="83.321" fill="none"/>
          <text id="_5" data-name="5" transform="translate(171.145 43.251)" fill="#040405" font-size="7" font-family="Roboto-Regular, Roboto"><tspan x="0" y="0">5</tspan></text>
          <rect id="Rectángulo_49778" data-name="Rectángulo 49778" width="490.096" height="83.321" fill="none"/>
          <text id="Empacado." transform="translate(110.969 43.251)" fill="#040405" font-size="7" font-family="Roboto-Regular, Roboto"><tspan x="0" y="0">Empacado.</tspan></text>
          <rect id="Rectángulo_49779" data-name="Rectángulo 49779" width="490.096" height="83.321" fill="none"/>
          <text id="_3" data-name="3" transform="translate(89.696 43.251)" fill="#040405" font-size="7" font-family="Roboto-Regular, Roboto"><tspan x="0" y="0">3</tspan></text>
          <rect id="Rectángulo_49780" data-name="Rectángulo 49780" width="490.096" height="83.321" fill="none"/>
          <text id="Seleccionado." transform="translate(26.238 43.258)" fill="#040405" font-size="7" font-family="Roboto-Regular, Roboto"><tspan x="0" y="0">Seleccionado.</tspan></text>
          <rect id="Rectángulo_49781" data-name="Rectángulo 49781" width="490.096" height="83.321" fill="none"/>
          <rect id="Rectángulo_49782" data-name="Rectángulo 49782" width="490.096" height="83.321" fill="none"/>
          <text id="_1" data-name="1" transform="translate(8.246 43.251)" fill="#040405" font-size="7" font-family="Roboto-Regular, Roboto"><tspan x="0" y="0">1</tspan></text>
          <rect id="Rectángulo_49783" data-name="Rectángulo 49783" width="490.096" height="83.321" fill="none"/>
          <text id="Otro:-2" data-name="Otro:" transform="translate(448.991 70.165)" fill="#040405" font-size="7" font-family="Roboto-Regular, Roboto"><tspan x="0" y="0">Otro:</tspan></text>
          <rect id="Rectángulo_49784" data-name="Rectángulo 49784" width="490.096" height="83.321" fill="none"/>
          <rect id="Rectángulo_49785" data-name="Rectángulo 49785" width="490.096" height="83.321" fill="none"/>
          <rect id="Rectángulo_49786" data-name="Rectángulo 49786" width="490.096" height="83.321" fill="none"/>
          <text id="Otro:-3" data-name="Otro:" transform="translate(367.535 70.165)" fill="#040405" font-size="7" font-family="Roboto-Regular, Roboto"><tspan x="0" y="0">Otro:</tspan></text>
          <rect id="Rectángulo_49787" data-name="Rectángulo 49787" width="490.096" height="83.321" fill="none"/>
          <path id="Trazado_208807" data-name="Trazado 208807" d="M23.039,146.755h490.1V63.433H23.039v83.321Z" transform="translate(-23.039 -63.433)" fill="none" fill-rule="evenodd"/>
          <path id="Trazado_208808" data-name="Trazado 208808" d="M23.039,146.755h490.1V63.433H23.039v83.321Z" transform="translate(-23.039 -63.433)" fill="none" fill-rule="evenodd"/>
          <path id="Trazado_208809" data-name="Trazado 208809" d="M23.039,146.755h490.1V63.433H23.039v83.321Z" transform="translate(-23.039 -63.433)" fill="none" fill-rule="evenodd"/>
          <path id="Trazado_208810" data-name="Trazado 208810" d="M23.039,146.755h490.1V63.433H23.039v83.321Z" transform="translate(-23.039 -63.433)" fill="none" fill-rule="evenodd"/>
          <path id="Trazado_208811" data-name="Trazado 208811" d="M23.039,146.755h490.1V63.433H23.039v83.321Z" transform="translate(-23.039 -63.433)" fill="none" fill-rule="evenodd"/>
          <path id="Trazado_208812" data-name="Trazado 208812" d="M23.039,146.755h490.1V63.433H23.039v83.321Z" transform="translate(-23.039 -63.433)" fill="none" fill-rule="evenodd"/>
          <path id="Trazado_208813" data-name="Trazado 208813" d="M23.039,146.755h490.1V63.433H23.039v83.321Z" transform="translate(-23.039 -63.433)" fill="none" fill-rule="evenodd"/>
          <path id="Trazado_208814" data-name="Trazado 208814" d="M23.039,146.755h490.1V63.433H23.039v83.321Z" transform="translate(-23.039 -63.433)" fill="none" fill-rule="evenodd"/>
          <path id="Trazado_208815" data-name="Trazado 208815" d="M23.039,146.755h490.1V63.433H23.039v83.321Z" transform="translate(-23.039 -63.433)" fill="none" fill-rule="evenodd"/>
          <path id="Trazado_208816" data-name="Trazado 208816" d="M23.039,146.755h490.1V63.433H23.039v83.321Z" transform="translate(-23.039 -63.433)" fill="none" fill-rule="evenodd"/>
          <path id="Trazado_208817" data-name="Trazado 208817" d="M23.039,146.755h490.1V63.433H23.039v83.321Z" transform="translate(-23.039 -63.433)" fill="none" fill-rule="evenodd"/>
          <rect id="Rectángulo_49788" data-name="Rectángulo 49788" width="14.18" height="83.321" transform="translate(332.458)" fill="none"/>
          <path id="Trazado_208818" data-name="Trazado 208818" d="M408.479,146.755h14.18V63.433h-14.18v83.321Z" transform="translate(-76.021 -63.433)" fill="none" fill-rule="evenodd"/>
          <rect id="Rectángulo_49789" data-name="Rectángulo 49789" width="14.18" height="83.321" transform="translate(332.458)" fill="none"/>
          <path id="Trazado_208819" data-name="Trazado 208819" d="M408.479,146.755h14.18V63.433h-14.18v83.321Z" transform="translate(-76.021 -63.433)" fill="none" fill-rule="evenodd"/>
          <text id="Embalado." transform="translate(275.122 70.165)" fill="#040405" font-size="7" font-family="Roboto-Regular, Roboto"><tspan x="0" y="0">Embalado.</tspan></text>
          <rect id="Rectángulo_49790" data-name="Rectángulo 49790" width="490.096" height="83.321" fill="none"/>
          <path id="Trazado_208820" data-name="Trazado 208820" d="M23.039,146.755h490.1V63.433H23.039v83.321Z" transform="translate(-23.039 -63.433)" fill="none" fill-rule="evenodd"/>
          <text id="_8" data-name="8" transform="translate(249.495 70.165)" fill="#040405" font-size="7" font-family="Roboto-Regular, Roboto"><tspan x="0" y="0">8</tspan></text>
          <rect id="Rectángulo_49791" data-name="Rectángulo 49791" width="14.18" height="51.856" transform="translate(244.789 31.465)" fill="none"/>
          <path id="Trazado_208821" data-name="Trazado 208821" d="M306.839,151.769h14.18V99.913h-14.18v51.856Z" transform="translate(-62.049 -68.448)" fill="none" fill-rule="evenodd"/>
          <text id="Sellado." transform="translate(198.841 70.165)" fill="#040405" font-size="7" font-family="Roboto-Regular, Roboto"><tspan x="0" y="0">Sellado.</tspan></text>
          <rect id="Rectángulo_49792" data-name="Rectángulo 49792" width="490.096" height="83.321" fill="none"/>
          <text id="_6" data-name="6" transform="translate(171.145 70.165)" fill="#040405" font-size="7" font-family="Roboto-Regular, Roboto"><tspan x="0" y="0">6</tspan></text>
          <rect id="Rectángulo_49793" data-name="Rectángulo 49793" width="490.096" height="83.321" fill="none"/>
          <text id="Limpiado." transform="translate(114.177 70.165)" fill="#040405" font-size="7" font-family="Roboto-Regular, Roboto"><tspan x="0" y="0">Limpiado.</tspan></text>
          <rect id="Rectángulo_49794" data-name="Rectángulo 49794" width="490.096" height="83.321" fill="none"/>
          <text id="_4" data-name="4" transform="translate(89.696 70.165)" fill="#040405" font-size="7" font-family="Roboto-Regular, Roboto"><tspan x="0" y="0">4</tspan></text>
          <rect id="Rectángulo_49795" data-name="Rectángulo 49795" width="490.096" height="83.321" fill="none"/>
          <text id="Etiquetado." transform="translate(29.729 70.165)" fill="#040405" font-size="7" font-family="Roboto-Regular, Roboto"><tspan x="0" y="0">Etiquetado.</tspan></text>
          <rect id="Rectángulo_49796" data-name="Rectángulo 49796" width="490.096" height="83.321" fill="none"/>
          <text id="_2" data-name="2" transform="translate(8.246 70.165)" fill="#040405" font-size="7" font-family="Roboto-Regular, Roboto"><tspan x="0" y="0">2</tspan></text>
          <rect id="Rectángulo_49797" data-name="Rectángulo 49797" width="490.096" height="83.321" fill="none"/>
          <path id="Trazado_208822" data-name="Trazado 208822" d="M23.039,146.755h490.1V63.433H23.039v83.321Z" transform="translate(-23.039 -63.433)" fill="none" fill-rule="evenodd"/>
          <path id="Trazado_208823" data-name="Trazado 208823" d="M23.039,146.755h490.1V63.433H23.039v83.321Z" transform="translate(-23.039 -63.433)" fill="none" fill-rule="evenodd"/>
          <path id="Trazado_208824" data-name="Trazado 208824" d="M23.039,146.755h490.1V63.433H23.039v83.321Z" transform="translate(-23.039 -63.433)" fill="none" fill-rule="evenodd"/>
          <path id="Trazado_208825" data-name="Trazado 208825" d="M23.039,146.755h490.1V63.433H23.039v83.321Z" transform="translate(-23.039 -63.433)" fill="none" fill-rule="evenodd"/>
          <path id="Trazado_208826" data-name="Trazado 208826" d="M23.039,146.755h490.1V63.433H23.039v83.321Z" transform="translate(-23.039 -63.433)" fill="none" fill-rule="evenodd"/>
          <path id="Trazado_208827" data-name="Trazado 208827" d="M23.039,146.755h490.1V63.433H23.039v83.321Z" transform="translate(-23.039 -63.433)" fill="none" fill-rule="evenodd"/>
        </g>
      </g>
      <g id="Grupo_172404" data-name="Grupo 172404" transform="translate(22.2 172.147)">
        <line id="Línea_599" data-name="Línea 599" y2="106.385" transform="translate(89.809 0.034)" fill="none" stroke="#040405" stroke-linejoin="round" stroke-width="1"/>
        <line id="Línea_600" data-name="Línea 600" y2="91.299" transform="translate(120.629 15.12)" fill="none" stroke="#040405" stroke-linejoin="round" stroke-width="1"/>
        <line id="Línea_601" data-name="Línea 601" y2="91.299" transform="translate(151.448 15.12)" fill="none" stroke="#040405" stroke-linejoin="round" stroke-width="1"/>
        <line id="Línea_602" data-name="Línea 602" y2="91.299" transform="translate(182.267 15.12)" fill="none" stroke="#040405" stroke-linejoin="round" stroke-width="1"/>
        <line id="Línea_603" data-name="Línea 603" y2="91.299" transform="translate(213.086 15.12)" fill="none" stroke="#040405" stroke-linejoin="round" stroke-width="1"/>
        <line id="Línea_604" data-name="Línea 604" y2="91.299" transform="translate(243.905 15.12)" fill="none" stroke="#040405" stroke-linejoin="round" stroke-width="1"/>
        <line id="Línea_605" data-name="Línea 605" y2="106.385" transform="translate(274.725 0.034)" fill="none" stroke="#040405" stroke-linejoin="round" stroke-width="1"/>
        <line id="Línea_606" data-name="Línea 606" y2="91.299" transform="translate(305.544 15.12)" fill="none" stroke="#040405" stroke-linejoin="round" stroke-width="1"/>
        <line id="Línea_607" data-name="Línea 607" y2="91.299" transform="translate(336.363 15.12)" fill="none" stroke="#040405" stroke-linejoin="round" stroke-width="1"/>
        <line id="Línea_608" data-name="Línea 608" y2="106.385" transform="translate(367.182 0.034)" fill="none" stroke="#040405" stroke-linejoin="round" stroke-width="1"/>
        <line id="Línea_609" data-name="Línea 609" y2="91.299" transform="translate(382.327 15.12)" fill="none" stroke="#040405" stroke-linejoin="round" stroke-width="1"/>
        <line id="Línea_610" data-name="Línea 610" y2="91.299" transform="translate(397.471 15.12)" fill="none" stroke="#040405" stroke-linejoin="round" stroke-width="1"/>
        <line id="Línea_611" data-name="Línea 611" y2="91.299" transform="translate(412.616 15.12)" fill="none" stroke="#040405" stroke-linejoin="round" stroke-width="1"/>
        <line id="Línea_612" data-name="Línea 612" y2="91.299" transform="translate(427.76 15.12)" fill="none" stroke="#040405" stroke-linejoin="round" stroke-width="1"/>
        <line id="Línea_613" data-name="Línea 613" y2="91.299" transform="translate(442.904 15.12)" fill="none" stroke="#040405" stroke-linejoin="round" stroke-width="1"/>
        <line id="Línea_614" data-name="Línea 614" y2="91.299" transform="translate(458.049 15.12)" fill="none" stroke="#040405" stroke-linejoin="round" stroke-width="1"/>
        <line id="Línea_615" data-name="Línea 615" y2="91.299" transform="translate(473.193 15.12)" fill="none" stroke="#040405" stroke-linejoin="round" stroke-width="1"/>
        <line id="Línea_616" data-name="Línea 616" x2="488.398" transform="translate(0.332 15.512)" fill="none" stroke="#040405" stroke-linejoin="round" stroke-width="1"/>
        <line id="Línea_617" data-name="Línea 617" x2="488.398" transform="translate(0.332 30.598)" fill="none" stroke="#040405" stroke-linejoin="round" stroke-width="1"/>
        <line id="Línea_618" data-name="Línea 618" x2="488.398" transform="translate(0.332 45.684)" fill="none" stroke="#040405" stroke-linejoin="round" stroke-width="1"/>
        <line id="Línea_619" data-name="Línea 619" x2="488.398" transform="translate(0.332 60.769)" fill="none" stroke="#040405" stroke-linejoin="round" stroke-width="1"/>
        <line id="Línea_620" data-name="Línea 620" x2="488.398" transform="translate(0.332 75.855)" fill="none" stroke="#040405" stroke-linejoin="round" stroke-width="1"/>
        <line id="Línea_621" data-name="Línea 621" x2="488.398" transform="translate(0.332 90.94)" fill="none" stroke="#040405" stroke-linejoin="round" stroke-width="1"/>
        <line id="Línea_622" data-name="Línea 622" y2="106.385" transform="translate(0.725 0.034)" fill="none" stroke="#040405" stroke-linejoin="round" stroke-width="1"/>
        <line id="Línea_623" data-name="Línea 623" y2="106.385" transform="translate(488.337 0.034)" fill="none" stroke="#040405" stroke-linejoin="round" stroke-width="1"/>
        <line id="Línea_624" data-name="Línea 624" x2="488.398" transform="translate(0.332 0.427)" fill="none" stroke="#040405" stroke-linejoin="round" stroke-width="1"/>
        <line id="Línea_625" data-name="Línea 625" x2="488.398" transform="translate(0.332 106.026)" fill="none" stroke="#040405" stroke-linejoin="round" stroke-width="1"/>
        <text id="CK00000001" transform="translate(405.013 10.121)" fill="#fff" font-size="7" font-family="Roboto-Regular, Roboto"><tspan x="0" y="0">CK00000001</tspan></text>
        <rect id="Rectángulo_49798" data-name="Rectángulo 49798" width="488.848" height="107.952" transform="translate(0.286)" fill="none"/>
        <text id="Stock" transform="translate(295.816 10.121)" fill="#fff" font-size="7" font-family="Roboto-Italic, Roboto" font-style="italic"><tspan x="0" y="0">Stock</tspan></text>
        <rect id="Rectángulo_49799" data-name="Rectángulo 49799" width="488.848" height="107.952" transform="translate(0.286)" fill="none"/>
        <text id="producto" transform="translate(316.502 10.121)" fill="#fff" font-size="7" font-family="Roboto-Regular, Roboto"><tspan x="0" y="0">producto</tspan></text>
        <rect id="Rectángulo_49800" data-name="Rectángulo 49800" width="488.848" height="107.952" transform="translate(0.286)" fill="none"/>
        <text id="_01_01_2021" data-name="01/01/2021" transform="translate(162.724 10.121)" fill="#fff" font-size="7" font-family="Roboto-Regular, Roboto"><tspan x="0" y="0">01/01/2021</tspan></text>
        <rect id="Rectángulo_49801" data-name="Rectángulo 49801" width="488.848" height="107.952" transform="translate(0.286)" fill="none"/>
        <text id="Fecha:" transform="translate(32.634 10.121)" fill="#fff" font-size="7" font-family="Roboto-Bold, Roboto" font-weight="700"><tspan x="0" y="0">Fecha:</tspan></text>
        <rect id="Rectángulo_49802" data-name="Rectángulo 49802" width="488.848" height="107.952" transform="translate(0.286)" fill="none"/>
        <text id="_10:30" data-name="10:30" transform="translate(342.055 25.214)" fill="#040405" font-size="7" font-family="Roboto-Regular, Roboto"><tspan x="0" y="0">10:30</tspan></text>
        <rect id="Rectángulo_49803" data-name="Rectángulo 49803" width="488.848" height="107.952" transform="translate(0.286)" fill="none"/>
        <text id="_10:00" data-name="10:00" transform="translate(311.229 25.214)" fill="#040405" font-size="7" font-family="Roboto-Regular, Roboto"><tspan x="0" y="0">10:00</tspan></text>
        <rect id="Rectángulo_49804" data-name="Rectángulo 49804" width="488.848" height="107.952" transform="translate(0.286)" fill="none"/>
        <text id="_9:30" data-name="9:30" transform="translate(282.485 25.214)" fill="#040405" font-size="7" font-family="Roboto-Regular, Roboto"><tspan x="0" y="0">9:30</tspan></text>
        <rect id="Rectángulo_49805" data-name="Rectángulo 49805" width="488.848" height="107.952" transform="translate(0.286)" fill="none"/>
        <text id="_9:00" data-name="9:00" transform="translate(251.665 25.214)" fill="#040405" font-size="7" font-family="Roboto-Regular, Roboto"><tspan x="0" y="0">9:00</tspan></text>
        <rect id="Rectángulo_49806" data-name="Rectángulo 49806" width="488.848" height="107.952" transform="translate(0.286)" fill="none"/>
        <text id="_8:30" data-name="8:30" transform="translate(220.846 25.214)" fill="#040405" font-size="7" font-family="Roboto-Regular, Roboto"><tspan x="0" y="0">8:30</tspan></text>
        <rect id="Rectángulo_49807" data-name="Rectángulo 49807" width="488.848" height="107.952" transform="translate(0.286)" fill="none"/>
        <text id="_8:00" data-name="8:00" transform="translate(190.026 25.214)" fill="#040405" font-size="7" font-family="Roboto-Regular, Roboto"><tspan x="0" y="0">8:00</tspan></text>
        <rect id="Rectángulo_49808" data-name="Rectángulo 49808" width="488.848" height="107.952" transform="translate(0.286)" fill="none"/>
        <text id="_7:30" data-name="7:30" transform="translate(159.207 25.214)" fill="#040405" font-size="7" font-family="Roboto-Regular, Roboto"><tspan x="0" y="0">7:30</tspan></text>
        <rect id="Rectángulo_49809" data-name="Rectángulo 49809" width="488.848" height="107.952" transform="translate(0.286)" fill="none"/>
        <text id="_7:00" data-name="7:00" transform="translate(128.387 25.214)" fill="#040405" font-size="7" font-family="Roboto-Regular, Roboto"><tspan x="0" y="0">7:00</tspan></text>
        <rect id="Rectángulo_49810" data-name="Rectángulo 49810" width="488.848" height="107.952" transform="translate(0.286)" fill="none"/>
        <text id="_6:30" data-name="6:30" transform="translate(97.574 25.214)" fill="#040405" font-size="7" font-family="Roboto-Regular, Roboto"><tspan x="0" y="0">6:30</tspan></text>
        <text id="_2214" data-name="2214" transform="translate(97.574 100.87)" fill="#040405" font-size="7" font-family="Roboto-Regular, Roboto"><tspan x="0" y="0">2214</tspan></text>
        <text id="_2214-2" data-name="2214" transform="translate(128.247 100.87)" fill="#040405" font-size="7" font-family="Roboto-Regular, Roboto"><tspan x="0" y="0">2214</tspan></text>
        <text id="_2214-3" data-name="2214" transform="translate(158.608 100.87)" fill="#040405" font-size="7" font-family="Roboto-Regular, Roboto"><tspan x="0" y="0">2214</tspan></text>
        <text id="_2214-4" data-name="2214" transform="translate(191.006 100.87)" fill="#040405" font-size="7" font-family="Roboto-Regular, Roboto"><tspan x="0" y="0">2214</tspan></text>
        <text id="_2214-5" data-name="2214" transform="translate(220.751 100.87)" fill="#040405" font-size="7" font-family="Roboto-Regular, Roboto"><tspan x="0" y="0">2214</tspan></text>
        <text id="_2214-6" data-name="2214" transform="translate(251.971 100.87)" fill="#040405" font-size="7" font-family="Roboto-Regular, Roboto"><tspan x="0" y="0">2214</tspan></text>
        <rect id="Rectángulo_49811" data-name="Rectángulo 49811" width="488.848" height="107.952" transform="translate(0.286)" fill="none"/>
        <text id="Proceso:_" data-name="Proceso: " transform="translate(15.005 25.214)" fill="#040405" font-size="7" font-family="Roboto-Bold, Roboto" font-weight="700"><tspan x="0" y="0">Proceso: </tspan></text>
        <rect id="Rectángulo_49812" data-name="Rectángulo 49812" width="488.848" height="107.952" transform="translate(0.286)" fill="none"/>
        <text id="_" data-name="\" transform="translate(47.192 25.214)" fill="#040405" font-size="7" font-family="Roboto-Bold, Roboto" font-weight="700"><tspan x="0" y="0">\</tspan></text>
        <rect id="Rectángulo_49813" data-name="Rectángulo 49813" width="488.848" height="107.952" transform="translate(0.286)" fill="none"/>
        <text id="Hora:" transform="translate(51.532 25.214)" fill="#040405" font-size="7" font-family="Roboto-Bold, Roboto" font-weight="700"><tspan x="0" y="0">Hora:</tspan></text>
        <rect id="Rectángulo_49814" data-name="Rectángulo 49814" width="488.848" height="107.952" transform="translate(0.286)" fill="none"/>
        <text id="_-" data-name="-" transform="translate(350.44 40.302)" fill="#040405" font-size="7" font-family="Roboto-Regular, Roboto"><tspan x="0" y="0">-</tspan></text>
        <rect id="Rectángulo_49815" data-name="Rectángulo 49815" width="488.848" height="107.952" transform="translate(0.286)" fill="none"/>
        <text id="_--2" data-name="-" transform="translate(319.626 40.302)" fill="#040405" font-size="7" font-family="Roboto-Regular, Roboto"><tspan x="0" y="0">-</tspan></text>
        <rect id="Rectángulo_49816" data-name="Rectángulo 49816" width="488.848" height="107.952" transform="translate(0.286)" fill="none"/>
        <text id="_--3" data-name="-" transform="translate(288.801 40.302)" fill="#040405" font-size="7" font-family="Roboto-Regular, Roboto"><tspan x="0" y="0">-</tspan></text>
        <rect id="Rectángulo_49817" data-name="Rectángulo 49817" width="488.848" height="107.952" transform="translate(0.286)" fill="none"/>
        <text id="C" transform="translate(256.477 40.302)" fill="#040405" font-size="7" font-family="Roboto-Regular, Roboto"><tspan x="0" y="0">C</tspan></text>
        <rect id="Rectángulo_49818" data-name="Rectángulo 49818" width="488.848" height="107.952" transform="translate(0.286)" fill="none"/>
        <text id="C-2" data-name="C" transform="translate(225.652 40.302)" fill="#040405" font-size="7" font-family="Roboto-Regular, Roboto"><tspan x="0" y="0">C</tspan></text>
        <rect id="Rectángulo_49819" data-name="Rectángulo 49819" width="488.848" height="107.952" transform="translate(0.286)" fill="none"/>
        <text id="C-3" data-name="C" transform="translate(194.838 40.302)" fill="#040405" font-size="7" font-family="Roboto-Regular, Roboto"><tspan x="0" y="0">C</tspan></text>
        <rect id="Rectángulo_49820" data-name="Rectángulo 49820" width="488.848" height="107.952" transform="translate(0.286)" fill="none"/>
        <text id="C-4" data-name="C" transform="translate(164.014 40.302)" fill="#040405" font-size="7" font-family="Roboto-Regular, Roboto"><tspan x="0" y="0">C</tspan></text>
        <rect id="Rectángulo_49821" data-name="Rectángulo 49821" width="488.848" height="107.952" transform="translate(0.286)" fill="none"/>
        <text id="C-5" data-name="C" transform="translate(133.2 40.302)" fill="#040405" font-size="7" font-family="Roboto-Regular, Roboto"><tspan x="0" y="0">C</tspan></text>
        <rect id="Rectángulo_49822" data-name="Rectángulo 49822" width="488.848" height="107.952" transform="translate(0.286)" fill="none"/>
        <text id="C-6" data-name="C" transform="translate(102.381 40.302)" fill="#040405" font-size="7" font-family="Roboto-Regular, Roboto"><tspan x="0" y="0">C</tspan></text>
        <rect id="Rectángulo_49823" data-name="Rectángulo 49823" width="488.848" height="107.952" transform="translate(0.286)" fill="none"/>
        <text id="_5-2" data-name="5" transform="translate(43.105 40.302)" fill="#040405" font-size="7" font-family="Roboto-Regular, Roboto"><tspan x="0" y="0">5</tspan></text>
        <text id="_--4" data-name="-" transform="translate(133.2 55.549)" fill="#040405" font-size="7" font-family="Roboto-Regular, Roboto"><tspan x="0" y="0">-</tspan></text>
        <text id="C-7" data-name="C" transform="translate(194.686 55.549)" fill="#040405" font-size="7" font-family="Roboto-Regular, Roboto"><tspan x="0" y="0">C</tspan></text>
        <text id="C-8" data-name="C" transform="translate(225.526 55.549)" fill="#040405" font-size="7" font-family="Roboto-Regular, Roboto"><tspan x="0" y="0">C</tspan></text>
        <text id="C-9" data-name="C" transform="translate(256.005 55.549)" fill="#040405" font-size="7" font-family="Roboto-Regular, Roboto"><tspan x="0" y="0">C</tspan></text>
        <text id="C-10" data-name="C" transform="translate(287.482 55.549)" fill="#040405" font-size="7" font-family="Roboto-Regular, Roboto"><tspan x="0" y="0">C</tspan></text>
        <text id="C-11" data-name="C" transform="translate(349.626 55.549)" fill="#040405" font-size="7" font-family="Roboto-Regular, Roboto"><tspan x="0" y="0">C</tspan></text>
        <text id="C-12" data-name="C" transform="translate(318.533 55.549)" fill="#040405" font-size="7" font-family="Roboto-Regular, Roboto"><tspan x="0" y="0">C</tspan></text>
        <text id="_--5" data-name="-" transform="translate(166.007 55.549)" fill="#040405" font-size="7" font-family="Roboto-Regular, Roboto"><tspan x="0" y="0">-</tspan></text>
        <text id="_--6" data-name="-" transform="translate(102.381 55.549)" fill="#040405" font-size="7" font-family="Roboto-Regular, Roboto"><tspan x="0" y="0">-</tspan></text>
        <text id="_8-2" data-name="8" transform="translate(43.105 55.549)" fill="#040405" font-size="7" font-family="Roboto-Regular, Roboto"><tspan x="0" y="0">8</tspan></text>
        <rect id="Rectángulo_49824" data-name="Rectángulo 49824" width="488.848" height="107.952" transform="translate(0.286)" fill="none"/>
        <rect id="Rectángulo_49825" data-name="Rectángulo 49825" width="488.848" height="107.952" transform="translate(0.286)" fill="none"/>
        <path id="Trazado_208828" data-name="Trazado 208828" d="M22.532,275.4H511.38V167.444H22.532V275.4Z" transform="translate(-22.246 -167.444)" fill="none" fill-rule="evenodd"/>
        <path id="Trazado_208829" data-name="Trazado 208829" d="M22.532,275.4H511.38V167.444H22.532V275.4Z" transform="translate(-22.246 -167.444)" fill="none" fill-rule="evenodd"/>
        <path id="Trazado_208830" data-name="Trazado 208830" d="M22.532,275.4H511.38V167.444H22.532V275.4Z" transform="translate(-22.246 -167.444)" fill="none" fill-rule="evenodd"/>
        <path id="Trazado_208831" data-name="Trazado 208831" d="M22.532,275.4H511.38V167.444H22.532V275.4Z" transform="translate(-22.246 -167.444)" fill="none" fill-rule="evenodd"/>
        <path id="Trazado_208832" data-name="Trazado 208832" d="M22.532,275.4H511.38V167.444H22.532V275.4Z" transform="translate(-22.246 -167.444)" fill="none" fill-rule="evenodd"/>
        <path id="Trazado_208833" data-name="Trazado 208833" d="M22.532,275.4H511.38V167.444H22.532V275.4Z" transform="translate(-22.246 -167.444)" fill="none" fill-rule="evenodd"/>
        <path id="Trazado_208834" data-name="Trazado 208834" d="M22.532,275.4H511.38V167.444H22.532V275.4Z" transform="translate(-22.246 -167.444)" fill="none" fill-rule="evenodd"/>
        <path id="Trazado_208835" data-name="Trazado 208835" d="M22.532,275.4H511.38V167.444H22.532V275.4Z" transform="translate(-22.246 -167.444)" fill="none" fill-rule="evenodd"/>
        <path id="Trazado_208836" data-name="Trazado 208836" d="M22.532,275.4H511.38V167.444H22.532V275.4Z" transform="translate(-22.246 -167.444)" fill="none" fill-rule="evenodd"/>
        <path id="Trazado_208837" data-name="Trazado 208837" d="M22.532,275.4H511.38V167.444H22.532V275.4Z" transform="translate(-22.246 -167.444)" fill="none" fill-rule="evenodd"/>
        <path id="Trazado_208838" data-name="Trazado 208838" d="M22.532,275.4H511.38V167.444H22.532V275.4Z" transform="translate(-22.246 -167.444)" fill="none" fill-rule="evenodd"/>
        <path id="Trazado_208839" data-name="Trazado 208839" d="M22.532,275.4H511.38V167.444H22.532V275.4Z" transform="translate(-22.246 -167.444)" fill="none" fill-rule="evenodd"/>
        <path id="Trazado_208840" data-name="Trazado 208840" d="M22.532,275.4H511.38V167.444H22.532V275.4Z" transform="translate(-22.246 -167.444)" fill="none" fill-rule="evenodd"/>
        <path id="Trazado_208841" data-name="Trazado 208841" d="M22.532,275.4H511.38V167.444H22.532V275.4Z" transform="translate(-22.246 -167.444)" fill="none" fill-rule="evenodd"/>
        <path id="Trazado_208842" data-name="Trazado 208842" d="M22.532,275.4H511.38V167.444H22.532V275.4Z" transform="translate(-22.246 -167.444)" fill="none" fill-rule="evenodd"/>
        <path id="Trazado_208843" data-name="Trazado 208843" d="M22.532,275.4H511.38V167.444H22.532V275.4Z" transform="translate(-22.246 -167.444)" fill="none" fill-rule="evenodd"/>
        <path id="Trazado_208844" data-name="Trazado 208844" d="M22.532,275.4H511.38V167.444H22.532V275.4Z" transform="translate(-22.246 -167.444)" fill="none" fill-rule="evenodd"/>
        <path id="Trazado_208845" data-name="Trazado 208845" d="M22.532,275.4H511.38V167.444H22.532V275.4Z" transform="translate(-22.246 -167.444)" fill="none" fill-rule="evenodd"/>
        <path id="Trazado_208846" data-name="Trazado 208846" d="M22.532,275.4H511.38V167.444H22.532V275.4Z" transform="translate(-22.246 -167.444)" fill="none" fill-rule="evenodd"/>
        <path id="Trazado_208847" data-name="Trazado 208847" d="M22.532,275.4H511.38V167.444H22.532V275.4Z" transform="translate(-22.246 -167.444)" fill="none" fill-rule="evenodd"/>
        <path id="Trazado_208848" data-name="Trazado 208848" d="M22.532,275.4H511.38V167.444H22.532V275.4Z" transform="translate(-22.246 -167.444)" fill="none" fill-rule="evenodd"/>
        <path id="Trazado_208849" data-name="Trazado 208849" d="M22.532,275.4H511.38V167.444H22.532V275.4Z" transform="translate(-22.246 -167.444)" fill="none" fill-rule="evenodd"/>
        <path id="Trazado_208850" data-name="Trazado 208850" d="M22.532,275.4H511.38V167.444H22.532V275.4Z" transform="translate(-22.246 -167.444)" fill="none" fill-rule="evenodd"/>
        <path id="Trazado_208851" data-name="Trazado 208851" d="M22.532,275.4H511.38V167.444H22.532V275.4Z" transform="translate(-22.246 -167.444)" fill="none" fill-rule="evenodd"/>
        <path id="Trazado_208852" data-name="Trazado 208852" d="M22.532,275.4H511.38V167.444H22.532V275.4Z" transform="translate(-22.246 -167.444)" fill="none" fill-rule="evenodd"/>
        <path id="Trazado_208853" data-name="Trazado 208853" d="M22.532,275.4H511.38V167.444H22.532V275.4Z" transform="translate(-22.246 -167.444)" fill="none" fill-rule="evenodd"/>
        <path id="Trazado_208854" data-name="Trazado 208854" d="M22.532,275.4H511.38V167.444H22.532V275.4Z" transform="translate(-22.246 -167.444)" fill="none" fill-rule="evenodd"/>
        <path id="Trazado_208855" data-name="Trazado 208855" d="M22.532,275.4H511.38V167.444H22.532V275.4Z" transform="translate(-22.246 -167.444)" fill="none" fill-rule="evenodd"/>
        <line id="Línea_626" data-name="Línea 626" y1="30.361" x2="366.753" transform="translate(0 57.925)" fill="none" stroke="#040405" stroke-miterlimit="10" stroke-width="1"/>
        <line id="Línea_627" data-name="Línea 627" y1="86.599" x2="117.996" transform="translate(370.203 19.283)" fill="none" stroke="#040405" stroke-miterlimit="10" stroke-width="1"/>
      </g>
    </g>
  </g>
</svg>
