<svg xmlns="http://www.w3.org/2000/svg" width="89.646" height="83.862" viewBox="0 0 89.646 83.862">
  <g id="_20-manual" data-name=" 20-manual" transform="translate(-8 -24)">
    <path id="Trazado_208922" data-name="Trazado 208922" d="M300.823,61.784v60.728a5.784,5.784,0,0,1-5.784,5.784H256v-5.784h33.256V113.88q2.147-.043,4.338-.043V56h1.446A5.784,5.784,0,0,1,300.823,61.784Z" transform="translate(-203.177 -26.216)" fill="#43c7b5"/>
    <path id="Trazado_208923" data-name="Trazado 208923" d="M289.256,87.663c-12.724.3-24.161,2.14-33.256,8.632V32.675C266.121,25.446,279.135,24,293.594,24V87.62Q291.4,87.62,289.256,87.663Z" transform="translate(-203.177)" fill="#e1e4ed"/>
    <path id="Trazado_208924" data-name="Trazado 208924" d="M289.256,376.24v8.632H256C265.095,378.38,276.532,376.544,289.256,376.24Z" transform="translate(-203.177 -288.577)" fill="#afb4c8"/>
    <path id="Trazado_208925" data-name="Trazado 208925" d="M52.823,122.512V128.3H13.784A5.784,5.784,0,0,1,8,122.512V61.784A5.784,5.784,0,0,1,13.784,56H15.23v57.836q2.191,0,4.338.043v8.632Z" transform="translate(0 -26.216)" fill="#5ce0bf"/>
    <path id="Trazado_208926" data-name="Trazado 208926" d="M52.338,87.663Q50.191,87.62,48,87.62V24c14.459,0,27.472,1.446,37.594,8.675V96.3C76.5,89.8,65.062,87.967,52.338,87.663Z" transform="translate(-32.77)" fill="#f6fafd"/>
    <path id="Trazado_208927" data-name="Trazado 208927" d="M105.256,384.872H72V376.24C84.724,376.544,96.161,378.38,105.256,384.872Z" transform="translate(-52.433 -288.577)" fill="#afb4c8"/>
    <path id="Trazado_208928" data-name="Trazado 208928" d="M346.7,310.459v5.784h-4.67a12.674,12.674,0,0,1-1.677,4.02l3.311,3.311-4.092,4.092-3.311-3.311a12.674,12.674,0,0,1-4.02,1.677v4.67h-5.784v-4.67a12.674,12.674,0,0,1-4.02-1.677l-3.311,3.311-4.092-4.092,3.311-3.311a12.672,12.672,0,0,1-1.677-4.02H312v-5.784h4.67a12.672,12.672,0,0,1,1.677-4.02l-3.311-3.311,4.092-4.092,3.311,3.311a12.672,12.672,0,0,1,4.02-1.677V296h5.784v4.67a12.672,12.672,0,0,1,4.02,1.677l3.311-3.311,4.092,4.092-3.311,3.311a12.674,12.674,0,0,1,1.677,4.02Zm-10.121,2.892a7.23,7.23,0,1,0-7.23,7.23A7.23,7.23,0,0,0,336.58,313.351Z" transform="translate(-249.056 -222.839)" fill="#ffca6b"/>
    <path id="Trazado_208929" data-name="Trazado 208929" d="M110.276,303.112c-5.808-2.486-12.786-3.787-22.628-4.221L87.775,296c10.207.45,17.5,1.825,23.641,4.453Z" transform="translate(-65.253 -222.839)" fill="#e1e4ed"/>
    <path id="Trazado_208930" data-name="Trazado 208930" d="M110.276,263.112c-5.808-2.485-12.786-3.787-22.628-4.221L87.775,256c10.207.45,17.5,1.825,23.641,4.453Z" transform="translate(-65.253 -190.069)" fill="#e1e4ed"/>
    <path id="Trazado_208931" data-name="Trazado 208931" d="M110.276,223.112c-5.808-2.486-12.786-3.787-22.628-4.221L87.775,216c10.207.45,17.5,1.825,23.641,4.453Z" transform="translate(-65.253 -157.298)" fill="#e1e4ed"/>
    <path id="Trazado_208932" data-name="Trazado 208932" d="M110.276,183.112c-5.808-2.486-12.786-3.787-22.628-4.221L87.775,176c10.207.45,17.5,1.825,23.641,4.453Z" transform="translate(-65.253 -124.528)" fill="#e1e4ed"/>
    <path id="Trazado_208933" data-name="Trazado 208933" d="M110.276,143.112c-5.808-2.486-12.786-3.787-22.628-4.221L87.775,136c10.207.45,17.5,1.825,23.641,4.453Z" transform="translate(-65.253 -91.757)" fill="#e1e4ed"/>
    <path id="Trazado_208934" data-name="Trazado 208934" d="M110.276,103.112c-5.808-2.486-12.786-3.787-22.628-4.221L87.775,96c10.207.45,17.5,1.825,23.641,4.453Z" transform="translate(-65.253 -58.987)" fill="#e1e4ed"/>
    <path id="Trazado_208935" data-name="Trazado 208935" d="M293.987,263.119l-1.139-2.658c6.144-2.629,13.434-4,23.641-4.453l.127,2.892C306.773,259.332,299.8,260.633,293.987,263.119Z" transform="translate(-233.365 -190.075)" fill="#afb4c8"/>
    <path id="Trazado_208936" data-name="Trazado 208936" d="M293.987,223.119l-1.139-2.658c6.144-2.629,13.434-4,23.641-4.453l.127,2.892C306.773,219.332,299.8,220.633,293.987,223.119Z" transform="translate(-233.365 -157.305)" fill="#afb4c8"/>
    <path id="Trazado_208937" data-name="Trazado 208937" d="M293.987,183.119l-1.139-2.658c6.144-2.629,13.434-4,23.641-4.453l.127,2.892C306.773,179.332,299.8,180.633,293.987,183.119Z" transform="translate(-233.365 -124.534)" fill="#afb4c8"/>
    <path id="Trazado_208938" data-name="Trazado 208938" d="M293.987,143.119l-1.139-2.658c6.144-2.629,13.434-4,23.641-4.453l.127,2.892C306.773,139.332,299.8,140.633,293.987,143.119Z" transform="translate(-233.365 -91.764)" fill="#afb4c8"/>
    <path id="Trazado_208939" data-name="Trazado 208939" d="M293.987,103.119l-1.139-2.658c6.144-2.629,13.434-4,23.641-4.453l.127,2.892C306.773,99.332,299.8,100.633,293.987,103.119Z" transform="translate(-233.365 -58.993)" fill="#afb4c8"/>
    <path id="Trazado_208940" data-name="Trazado 208940" d="M368.675,361.351a8.675,8.675,0,1,1,8.675-8.675A8.675,8.675,0,0,1,368.675,361.351Zm0-14.459a5.784,5.784,0,1,0,5.784,5.784A5.784,5.784,0,0,0,368.675,346.892Z" transform="translate(-288.38 -262.164)" fill="#faac65"/>
  </g>
</svg>
