<svg id="Grupo_1034369" data-name="Grupo 1034369" xmlns="http://www.w3.org/2000/svg" xmlns:xlink="http://www.w3.org/1999/xlink" width="399.203" height="288.485" viewBox="0 0 399.203 288.485">
  <defs>
    <clipPath id="clip-path">
      <rect id="Rectángulo_350839" data-name="Rectángulo 350839" width="399.203" height="288.485" fill="none"/>
    </clipPath>
    <clipPath id="clip-path-3">
      <rect id="Rectángulo_350805" data-name="Rectángulo 350805" width="11.095" height="6.974" fill="none"/>
    </clipPath>
    <clipPath id="clip-path-4">
      <rect id="Rectángulo_350806" data-name="Rectángulo 350806" width="1.588" height="1.465" fill="none"/>
    </clipPath>
    <clipPath id="clip-path-5">
      <rect id="Rectángulo_350807" data-name="Rectángulo 350807" width="11.094" height="6.974" fill="none"/>
    </clipPath>
    <clipPath id="clip-path-6">
      <rect id="Rectángulo_350808" data-name="Rectángulo 350808" width="1.588" height="1.466" fill="none"/>
    </clipPath>
    <clipPath id="clip-path-7">
      <rect id="Rectángulo_350809" data-name="Rectángulo 350809" width="9.301" height="9.309" fill="none"/>
    </clipPath>
    <clipPath id="clip-path-8">
      <rect id="Rectángulo_350810" data-name="Rectángulo 350810" width="1.585" height="1.467" fill="none"/>
    </clipPath>
    <clipPath id="clip-path-9">
      <rect id="Rectángulo_350811" data-name="Rectángulo 350811" width="9.302" height="9.309" fill="none"/>
    </clipPath>
    <clipPath id="clip-path-11">
      <rect id="Rectángulo_350813" data-name="Rectángulo 350813" width="11.135" height="6.914" fill="none"/>
    </clipPath>
    <clipPath id="clip-path-12">
      <rect id="Rectángulo_350814" data-name="Rectángulo 350814" width="1.585" height="1.473" fill="none"/>
    </clipPath>
    <clipPath id="clip-path-17">
      <rect id="Rectángulo_350821" data-name="Rectángulo 350821" width="1.548" height="29.054" fill="none"/>
    </clipPath>
    <clipPath id="clip-path-18">
      <rect id="Rectángulo_350822" data-name="Rectángulo 350822" width="15.905" height="11.166" fill="none"/>
    </clipPath>
    <clipPath id="clip-path-19">
      <rect id="Rectángulo_350823" data-name="Rectángulo 350823" width="2.595" height="2.372" fill="none"/>
    </clipPath>
    <clipPath id="clip-path-20">
      <rect id="Rectángulo_350824" data-name="Rectángulo 350824" width="15.906" height="11.166" fill="none"/>
    </clipPath>
    <clipPath id="clip-path-21">
      <rect id="Rectángulo_350825" data-name="Rectángulo 350825" width="2.594" height="2.372" fill="none"/>
    </clipPath>
    <clipPath id="clip-path-24">
      <rect id="Rectángulo_350828" data-name="Rectángulo 350828" width="12.369" height="18.504" fill="none"/>
    </clipPath>
    <clipPath id="clip-path-26">
      <rect id="Rectángulo_350830" data-name="Rectángulo 350830" width="2.073" height="2.125" fill="none"/>
    </clipPath>
    <clipPath id="clip-path-27">
      <rect id="Rectángulo_350833" data-name="Rectángulo 350833" width="62.341" height="3.039" fill="none"/>
    </clipPath>
    <clipPath id="clip-path-28">
      <rect id="Rectángulo_350834" data-name="Rectángulo 350834" width="20.391" height="32.779" fill="none"/>
    </clipPath>
    <clipPath id="clip-path-29">
      <rect id="Rectángulo_350835" data-name="Rectángulo 350835" width="5.09" height="5.569" fill="none"/>
    </clipPath>
    <clipPath id="clip-path-30">
      <rect id="Rectángulo_350836" data-name="Rectángulo 350836" width="20.392" height="32.779" fill="none"/>
    </clipPath>
  </defs>
  <g id="Grupo_1034368" data-name="Grupo 1034368" clip-path="url(#clip-path)">
    <g id="Grupo_1034321" data-name="Grupo 1034321">
      <g id="Grupo_1034320" data-name="Grupo 1034320" clip-path="url(#clip-path)">
        <path id="Trazado_737478" data-name="Trazado 737478" d="M326.806,68.412A62.329,62.329,0,1,1,264.477,6.083a62.33,62.33,0,0,1,62.329,62.329" transform="translate(-68.954 -2.075)" fill="#e0e0e0"/>
        <path id="Trazado_737479" data-name="Trazado 737479" d="M508.179,322.107l-13.092,4.823a8.852,8.852,0,1,0,6.12,16.613L514.3,338.72Z" transform="translate(-166.889 -109.873)" fill="#ebebeb"/>
        <path id="Trazado_737480" data-name="Trazado 737480" d="M522.42,336.742l13.092-4.823a9.2,9.2,0,0,0-6.36-17.262l-13.092,4.823Z" transform="translate(-176.032 -107.15)" fill="#f5f5f5"/>
        <path id="Trazado_737481" data-name="Trazado 737481" d="M522.416,339.511c-.089.033-1.585-3.807-3.342-8.575s-3.109-8.662-3.02-8.695,1.585,3.806,3.342,8.576,3.109,8.661,3.02,8.694" transform="translate(-176.029 -109.919)" fill="#e0e0e0"/>
        <g id="Grupo_1034286" data-name="Grupo 1034286" transform="translate(351.662 205.998)" opacity="0.3">
          <g id="Grupo_1034285" data-name="Grupo 1034285">
            <g id="Grupo_1034284" data-name="Grupo 1034284" clip-path="url(#clip-path-3)">
              <path id="Trazado_737482" data-name="Trazado 737482" d="M533.923,316.986a2.456,2.456,0,0,1,.832-2.917,5.38,5.38,0,0,1,2.125-1.158,7.04,7.04,0,0,1,5.749.855,5.391,5.391,0,0,1,1.7,1.732,2.451,2.451,0,0,1-.06,3.034,4.212,4.212,0,0,1-2.618,1.013,10.547,10.547,0,0,1-5.518-.822,4.187,4.187,0,0,1-2.207-1.737" transform="translate(-533.717 -312.643)" fill="#fff"/>
            </g>
          </g>
        </g>
        <g id="Grupo_1034289" data-name="Grupo 1034289" transform="translate(348.81 210.254)" opacity="0.3">
          <g id="Grupo_1034288" data-name="Grupo 1034288">
            <g id="Grupo_1034287" data-name="Grupo 1034287" clip-path="url(#clip-path-4)">
              <path id="Trazado_737483" data-name="Trazado 737483" d="M530.647,320.392a.664.664,0,0,0,.276-.8.681.681,0,0,0-.257-.372.876.876,0,0,0-.7-.079.771.771,0,0,0-.571.594.723.723,0,0,0,.329.741.883.883,0,0,0,.919-.081" transform="translate(-529.389 -319.102)" fill="#fff"/>
            </g>
          </g>
        </g>
        <g id="Grupo_1034292" data-name="Grupo 1034292" transform="translate(325.649 227.617)" opacity="0.3">
          <g id="Grupo_1034291" data-name="Grupo 1034291">
            <g id="Grupo_1034290" data-name="Grupo 1034290" clip-path="url(#clip-path-5)">
              <path id="Trazado_737484" data-name="Trazado 737484" d="M505.127,348.085a2.454,2.454,0,0,1-.832,2.917,5.38,5.38,0,0,1-2.125,1.158,7.04,7.04,0,0,1-5.75-.855,5.392,5.392,0,0,1-1.7-1.732,2.451,2.451,0,0,1,.06-3.034,4.2,4.2,0,0,1,2.618-1.013,10.536,10.536,0,0,1,5.518.821,4.185,4.185,0,0,1,2.207,1.737" transform="translate(-494.238 -345.454)" fill="#fff"/>
            </g>
          </g>
        </g>
        <g id="Grupo_1034295" data-name="Grupo 1034295" transform="translate(338.008 228.87)" opacity="0.3">
          <g id="Grupo_1034294" data-name="Grupo 1034294">
            <g id="Grupo_1034293" data-name="Grupo 1034293" clip-path="url(#clip-path-6)">
              <path id="Trazado_737485" data-name="Trazado 737485" d="M513.324,347.531a.664.664,0,0,0-.275.8.678.678,0,0,0,.257.372.876.876,0,0,0,.7.079.771.771,0,0,0,.571-.594.723.723,0,0,0-.329-.741.884.884,0,0,0-.919.081" transform="translate(-512.994 -347.356)" fill="#fff"/>
            </g>
          </g>
        </g>
        <path id="Trazado_737486" data-name="Trazado 737486" d="M142.8,8.878,129.411,4.945a8.852,8.852,0,1,0-4.991,16.986l13.387,3.933Z" transform="translate(-40.258 -1.562)" fill="#ebebeb"/>
        <path id="Trazado_737487" data-name="Trazado 737487" d="M146.127,27.729l13.386,3.933a9.05,9.05,0,0,0,11.127-6.318A9.05,9.05,0,0,0,164.7,14.012l-13.386-3.933Z" transform="translate(-49.845 -3.438)" fill="#f5f5f5"/>
        <path id="Trazado_737488" data-name="Trazado 737488" d="M146.124,27.724c-.091-.027,1-4,2.429-8.877s2.668-8.808,2.759-8.781-1,4-2.429,8.878-2.668,8.807-2.759,8.78" transform="translate(-49.842 -3.434)" fill="#e0e0e0"/>
        <g id="Grupo_1034298" data-name="Grupo 1034298" transform="translate(112.123 10.233)" opacity="0.3">
          <g id="Grupo_1034297" data-name="Grupo 1034297">
            <g id="Grupo_1034296" data-name="Grupo 1034296" clip-path="url(#clip-path-7)">
              <path id="Trazado_737489" data-name="Trazado 737489" d="M170.2,17.4a2.455,2.455,0,0,1,2.408-1.846,5.378,5.378,0,0,1,2.4.337,7.045,7.045,0,0,1,4.106,4.114,5.384,5.384,0,0,1,.33,2.4,2.452,2.452,0,0,1-1.857,2.4,4.21,4.21,0,0,1-2.706-.748,10.543,10.543,0,0,1-3.941-3.949,4.189,4.189,0,0,1-.736-2.71" transform="translate(-170.169 -15.531)" fill="#fff"/>
            </g>
          </g>
        </g>
        <g id="Grupo_1034301" data-name="Grupo 1034301" transform="translate(109.159 10.528)" opacity="0.3">
          <g id="Grupo_1034300" data-name="Grupo 1034300">
            <g id="Grupo_1034299" data-name="Grupo 1034299" clip-path="url(#clip-path-8)">
              <path id="Trazado_737490" data-name="Trazado 737490" d="M166.508,17.447a.665.665,0,0,0,.7-.48.683.683,0,0,0,.016-.452.88.88,0,0,0-.511-.478.772.772,0,0,0-.813.136.724.724,0,0,0-.177.791.882.882,0,0,0,.786.483" transform="translate(-165.671 -15.979)" fill="#fff"/>
            </g>
          </g>
        </g>
        <g id="Grupo_1034304" data-name="Grupo 1034304" transform="translate(78.718 11.506)" opacity="0.3">
          <g id="Grupo_1034303" data-name="Grupo 1034303">
            <g id="Grupo_1034302" data-name="Grupo 1034302" clip-path="url(#clip-path-9)">
              <path id="Trazado_737491" data-name="Trazado 737491" d="M128.736,24.9a2.455,2.455,0,0,1-2.407,1.846,5.379,5.379,0,0,1-2.4-.337,7.043,7.043,0,0,1-4.106-4.115,5.38,5.38,0,0,1-.33-2.4,2.452,2.452,0,0,1,1.857-2.4,4.21,4.21,0,0,1,2.706.748A10.543,10.543,0,0,1,128,22.192a4.189,4.189,0,0,1,.736,2.71" transform="translate(-119.47 -17.462)" fill="#fff"/>
            </g>
          </g>
        </g>
        <g id="Grupo_1034307" data-name="Grupo 1034307" transform="translate(89.398 19.053)" opacity="0.3">
          <g id="Grupo_1034306" data-name="Grupo 1034306">
            <g id="Grupo_1034305" data-name="Grupo 1034305" clip-path="url(#clip-path-8)">
              <path id="Trazado_737492" data-name="Trazado 737492" d="M136.426,28.916a.665.665,0,0,0-.7.48.683.683,0,0,0-.016.452.88.88,0,0,0,.511.478.772.772,0,0,0,.813-.136.723.723,0,0,0,.177-.791.882.882,0,0,0-.786-.483" transform="translate(-135.679 -28.916)" fill="#fff"/>
            </g>
          </g>
        </g>
        <path id="Trazado_737493" data-name="Trazado 737493" d="M470.918,22.98l12.847-5.442a8.853,8.853,0,1,0-6.907-16.3L464.012,6.679Z" transform="translate(-158.278 -0.179)" fill="#ebebeb"/>
        <path id="Trazado_737494" data-name="Trazado 737494" d="M456.086,8.659,443.239,14.1a9.05,9.05,0,0,0-4.6,11.939,9.05,9.05,0,0,0,11.778,5L463.262,25.6Z" transform="translate(-149.366 -2.954)" fill="#f5f5f5"/>
        <path id="Trazado_737495" data-name="Trazado 737495" d="M465.507,8.659c.087-.037,1.765,3.727,3.748,8.406s3.519,8.5,3.432,8.541-1.765-3.726-3.748-8.407-3.518-8.5-3.432-8.54" transform="translate(-158.787 -2.954)" fill="#e0e0e0"/>
        <g id="Grupo_1034310" data-name="Grupo 1034310" transform="translate(291.28 22.862)" opacity="0.3">
          <g id="Grupo_1034309" data-name="Grupo 1034309">
            <g id="Grupo_1034308" data-name="Grupo 1034308" clip-path="url(#clip-path-11)">
              <path id="Trazado_737496" data-name="Trazado 737496" d="M452.961,37.032a2.455,2.455,0,0,1-.692,2.953,5.383,5.383,0,0,1-2.068,1.259,7.045,7.045,0,0,1-5.783-.58,5.383,5.383,0,0,1-1.778-1.649,2.452,2.452,0,0,1-.084-3.033,4.205,4.205,0,0,1,2.567-1.137,10.549,10.549,0,0,1,5.551.557,4.184,4.184,0,0,1,2.287,1.629" transform="translate(-442.075 -34.697)" fill="#fff"/>
            </g>
          </g>
        </g>
        <g id="Grupo_1034313" data-name="Grupo 1034313" transform="translate(303.603 23.706)" opacity="0.3">
          <g id="Grupo_1034312" data-name="Grupo 1034312">
            <g id="Grupo_1034311" data-name="Grupo 1034311" clip-path="url(#clip-path-12)">
              <path id="Trazado_737497" data-name="Trazado 737497" d="M461.081,36.181a.665.665,0,0,0-.237.815.677.677,0,0,0,.274.359.878.878,0,0,0,.7.046.772.772,0,0,0,.542-.621.724.724,0,0,0-.364-.724.883.883,0,0,0-.915.125" transform="translate(-460.778 -35.979)" fill="#fff"/>
            </g>
          </g>
        </g>
        <g id="Grupo_1034316" data-name="Grupo 1034316" transform="translate(316.278)" opacity="0.3">
          <g id="Grupo_1034315" data-name="Grupo 1034315">
            <g id="Grupo_1034314" data-name="Grupo 1034314" clip-path="url(#clip-path-11)">
              <path id="Trazado_737498" data-name="Trazado 737498" d="M480.263,4.58a2.456,2.456,0,0,1,.692-2.954A5.39,5.39,0,0,1,483.022.368a7.046,7.046,0,0,1,5.783.58A5.382,5.382,0,0,1,490.584,2.6a2.452,2.452,0,0,1,.084,3.033A4.2,4.2,0,0,1,488.1,6.766a10.806,10.806,0,0,1-2.811.1,10.8,10.8,0,0,1-2.741-.652,4.184,4.184,0,0,1-2.287-1.629" transform="translate(-480.015 0)" fill="#fff"/>
            </g>
          </g>
        </g>
        <g id="Grupo_1034319" data-name="Grupo 1034319" transform="translate(313.504 4.597)" opacity="0.3">
          <g id="Grupo_1034318" data-name="Grupo 1034318">
            <g id="Grupo_1034317" data-name="Grupo 1034317" clip-path="url(#clip-path-12)">
              <path id="Trazado_737499" data-name="Trazado 737499" d="M477.088,8.247a.664.664,0,0,0,.237-.814.676.676,0,0,0-.274-.36.878.878,0,0,0-.7-.046.772.772,0,0,0-.542.621.724.724,0,0,0,.364.724.883.883,0,0,0,.915-.125" transform="translate(-475.805 -6.977)" fill="#fff"/>
            </g>
          </g>
        </g>
        <path id="Trazado_737500" data-name="Trazado 737500" d="M48.021,136.275,20.245,126.233a3.435,3.435,0,0,1-2.062-4.4L39.469,62.962a3.434,3.434,0,0,1,4.4-2.062L71.643,70.942a3.435,3.435,0,0,1,2.062,4.4L52.419,134.213a3.435,3.435,0,0,1-4.4,2.062" transform="translate(-6.132 -20.703)" fill="#f5f5f5"/>
        <path id="Trazado_737501" data-name="Trazado 737501" d="M51.232,161.756c-.02.055-4.511-1.519-10.029-3.514s-9.978-3.658-9.958-3.713,4.509,1.518,10.03,3.515,9.977,3.658,9.957,3.712" transform="translate(-10.658 -52.711)" fill="#e0e0e0"/>
        <path id="Trazado_737502" data-name="Trazado 737502" d="M79.6,77.986c-.02.055-4.511-1.519-10.029-3.514s-9.978-3.658-9.958-3.713,4.509,1.518,10.03,3.515,9.977,3.658,9.957,3.712" transform="translate(-20.335 -24.136)" fill="#e0e0e0"/>
        <path id="Trazado_737503" data-name="Trazado 737503" d="M45.491,131.19c-.055-.02,4.327-12.279,9.787-27.378S65.209,76.483,65.263,76.5s-4.326,12.276-9.787,27.381-9.931,27.326-9.986,27.306" transform="translate(-15.517 -26.096)" fill="#e0e0e0"/>
        <path id="Trazado_737504" data-name="Trazado 737504" d="M57.141,85.842l1.116-3.334L61.4,83.561a1.758,1.758,0,1,1-1.116,3.333Z" transform="translate(-19.491 -28.144)" fill="#ebebeb"/>
        <path id="Trazado_737505" data-name="Trazado 737505" d="M56.857,82.2l-1.116,3.334L52.6,84.481a1.758,1.758,0,1,1,1.116-3.333Z" transform="translate(-17.532 -27.649)" fill="#e0e0e0"/>
        <path id="Trazado_737506" data-name="Trazado 737506" d="M81.688,94.386,82.8,91.053l3.144,1.052a1.758,1.758,0,1,1-1.116,3.333Z" transform="translate(-27.864 -31.059)" fill="#ebebeb"/>
        <path id="Trazado_737507" data-name="Trazado 737507" d="M81.4,90.745l-1.116,3.333-3.144-1.052a1.758,1.758,0,1,1,1.116-3.333Z" transform="translate(-25.905 -30.564)" fill="#e0e0e0"/>
        <path id="Trazado_737508" data-name="Trazado 737508" d="M52.313,99.843l1.116-3.334,3.144,1.053a1.758,1.758,0,1,1-1.116,3.333Z" transform="translate(-17.844 -32.92)" fill="#ebebeb"/>
        <path id="Trazado_737509" data-name="Trazado 737509" d="M52.029,96.2l-1.116,3.334L47.77,98.482a1.758,1.758,0,1,1,1.116-3.333Z" transform="translate(-15.885 -32.425)" fill="#e0e0e0"/>
        <path id="Trazado_737510" data-name="Trazado 737510" d="M77.419,108.575l1.116-3.334,3.144,1.053a1.758,1.758,0,1,1-1.116,3.333Z" transform="translate(-26.408 -35.899)" fill="#ebebeb"/>
        <path id="Trazado_737511" data-name="Trazado 737511" d="M77.135,104.934l-1.116,3.333-3.144-1.052a1.758,1.758,0,1,1,1.116-3.333Z" transform="translate(-24.449 -35.404)" fill="#e0e0e0"/>
        <path id="Trazado_737512" data-name="Trazado 737512" d="M47.484,113.844,48.6,110.51l3.144,1.053a1.758,1.758,0,0,1-1.115,3.333Z" transform="translate(-16.197 -37.696)" fill="#ebebeb"/>
        <path id="Trazado_737513" data-name="Trazado 737513" d="M47.2,110.2l-1.117,3.334-3.143-1.053a1.758,1.758,0,1,1,1.116-3.333Z" transform="translate(-14.238 -37.201)" fill="#e0e0e0"/>
        <path id="Trazado_737514" data-name="Trazado 737514" d="M73.15,122.763l1.116-3.333,3.144,1.052a1.758,1.758,0,1,1-1.116,3.333Z" transform="translate(-24.952 -40.739)" fill="#ebebeb"/>
        <path id="Trazado_737515" data-name="Trazado 737515" d="M72.866,119.122l-1.116,3.334L68.607,121.4a1.758,1.758,0,1,1,1.116-3.333Z" transform="translate(-22.993 -40.243)" fill="#e0e0e0"/>
        <path id="Trazado_737516" data-name="Trazado 737516" d="M41.614,128.524l1.116-3.334,3.144,1.053a1.758,1.758,0,1,1-1.116,3.333Z" transform="translate(-14.195 -42.703)" fill="#ebebeb"/>
        <path id="Trazado_737517" data-name="Trazado 737517" d="M41.33,124.883l-1.116,3.333-3.144-1.052a1.758,1.758,0,1,1,1.116-3.333Z" transform="translate(-12.236 -42.208)" fill="#e0e0e0"/>
        <path id="Trazado_737518" data-name="Trazado 737518" d="M67.376,137.149l1.116-3.333,3.144,1.052A1.758,1.758,0,1,1,70.52,138.2Z" transform="translate(-22.982 -45.646)" fill="#ebebeb"/>
        <path id="Trazado_737519" data-name="Trazado 737519" d="M67.092,133.508l-1.116,3.333-3.144-1.052a1.758,1.758,0,1,1,1.116-3.333Z" transform="translate(-21.023 -45.15)" fill="#e0e0e0"/>
        <path id="Trazado_737520" data-name="Trazado 737520" d="M37.348,144.29l1.116-3.333,3.144,1.052a1.758,1.758,0,0,1-1.116,3.334Z" transform="translate(-12.74 -48.082)" fill="#ebebeb"/>
        <path id="Trazado_737521" data-name="Trazado 737521" d="M37.064,140.649l-1.116,3.333L32.8,142.93a1.758,1.758,0,1,1,1.116-3.333Z" transform="translate(-10.78 -47.586)" fill="#e0e0e0"/>
        <path id="Trazado_737522" data-name="Trazado 737522" d="M61.858,152.5l1.116-3.333,3.144,1.052A1.758,1.758,0,1,1,65,153.549Z" transform="translate(-21.1 -50.881)" fill="#ebebeb"/>
        <path id="Trazado_737523" data-name="Trazado 737523" d="M61.574,148.855l-1.116,3.333-3.144-1.052a1.758,1.758,0,1,1,1.116-3.333Z" transform="translate(-19.141 -50.385)" fill="#e0e0e0"/>
        <path id="Trazado_737524" data-name="Trazado 737524" d="M555.8,220.307l-43.74,9.279a3.435,3.435,0,0,1-4.073-2.647l-19-89.571a3.436,3.436,0,0,1,2.647-4.073l43.74-9.279a3.435,3.435,0,0,1,4.073,2.647l19,89.571a3.435,3.435,0,0,1-2.647,4.073" transform="translate(-166.773 -42.277)" fill="#ebebeb"/>
        <path id="Trazado_737525" data-name="Trazado 737525" d="M516.176,158.162a3.769,3.769,0,1,1-4.47-2.906,3.769,3.769,0,0,1,4.47,2.906" transform="translate(-173.528 -52.931)" fill="#fafafa"/>
        <path id="Trazado_737526" data-name="Trazado 737526" d="M548.738,151.254a3.77,3.77,0,1,1-4.47-2.906,3.769,3.769,0,0,1,4.47,2.906" transform="translate(-184.635 -50.575)" fill="#fafafa"/>
        <path id="Trazado_737527" data-name="Trazado 737527" d="M522.6,188.435a3.77,3.77,0,1,1-4.47-2.906,3.769,3.769,0,0,1,4.47,2.906" transform="translate(-175.718 -63.257)" fill="#fafafa"/>
        <path id="Trazado_737528" data-name="Trazado 737528" d="M555.16,181.527a3.77,3.77,0,1,1-4.47-2.906,3.77,3.77,0,0,1,4.47,2.906" transform="translate(-186.826 -60.901)" fill="#fafafa"/>
        <path id="Trazado_737529" data-name="Trazado 737529" d="M529.02,218.708a3.769,3.769,0,1,1-4.47-2.906,3.77,3.77,0,0,1,4.47,2.906" transform="translate(-177.909 -73.584)" fill="#fafafa"/>
        <path id="Trazado_737530" data-name="Trazado 737530" d="M561.582,211.8a3.77,3.77,0,1,1-4.47-2.906,3.769,3.769,0,0,1,4.47,2.906" transform="translate(-189.016 -71.227)" fill="#fafafa"/>
        <path id="Trazado_737531" data-name="Trazado 737531" d="M535.442,248.981a3.77,3.77,0,1,1-4.47-2.905,3.77,3.77,0,0,1,4.47,2.905" transform="translate(-180.099 -83.91)" fill="#fafafa"/>
        <path id="Trazado_737532" data-name="Trazado 737532" d="M568,242.073a3.77,3.77,0,1,1-4.47-2.906,3.769,3.769,0,0,1,4.47,2.906" transform="translate(-191.207 -81.554)" fill="#fafafa"/>
        <path id="Trazado_737533" data-name="Trazado 737533" d="M515.312,156.292a21.143,21.143,0,0,1-1.846,3.034,21.055,21.055,0,0,1-2.1,2.867,42.14,42.14,0,0,1,3.941-5.9" transform="translate(-174.431 -53.312)" fill="#e0e0e0"/>
        <path id="Trazado_737534" data-name="Trazado 737534" d="M547.23,149.277a21.261,21.261,0,0,1-1.846,3.034,21.039,21.039,0,0,1-2.1,2.867,42.061,42.061,0,0,1,3.942-5.9" transform="translate(-185.319 -50.919)" fill="#e0e0e0"/>
        <path id="Trazado_737535" data-name="Trazado 737535" d="M522.171,186.6a44.16,44.16,0,0,1-3.655,6.279,44.065,44.065,0,0,1,3.655-6.279" transform="translate(-176.868 -63.651)" fill="#e0e0e0"/>
        <path id="Trazado_737536" data-name="Trazado 737536" d="M554.554,179.582a40.65,40.65,0,0,1-3.285,6.158,40.827,40.827,0,0,1,3.285-6.158" transform="translate(-188.041 -61.256)" fill="#e0e0e0"/>
        <path id="Trazado_737537" data-name="Trazado 737537" d="M527.824,216.64a37.013,37.013,0,0,1-3.366,5.738,37.046,37.046,0,0,1,3.366-5.738" transform="translate(-178.895 -73.897)" fill="#e0e0e0"/>
        <path id="Trazado_737538" data-name="Trazado 737538" d="M560.844,210.315a38.208,38.208,0,0,1-3.842,5.55,38.055,38.055,0,0,1,3.842-5.55" transform="translate(-189.996 -71.74)" fill="#e0e0e0"/>
        <path id="Trazado_737539" data-name="Trazado 737539" d="M534.669,247.424a41.742,41.742,0,0,1-4.1,5.749,41.634,41.634,0,0,1,4.1-5.749" transform="translate(-180.98 -84.398)" fill="#e0e0e0"/>
        <path id="Trazado_737540" data-name="Trazado 737540" d="M567.464,239.573a49.295,49.295,0,0,1-3.732,6.717,49.277,49.277,0,0,1,3.732-6.717" transform="translate(-192.292 -81.72)" fill="#e0e0e0"/>
        <path id="Trazado_737541" data-name="Trazado 737541" d="M563.248,260.216c.017.081-6.564,1.546-14.7,3.271s-14.743,3.059-14.761,2.978,6.562-1.545,14.7-3.271,14.742-3.059,14.759-2.978" transform="translate(-182.08 -88.761)" fill="#e0e0e0"/>
        <path id="Trazado_737542" data-name="Trazado 737542" d="M534.747,138.185c.017.081-6.564,1.545-14.7,3.271s-14.743,3.059-14.761,2.978,6.562-1.545,14.7-3.271,14.742-3.059,14.759-2.978" transform="translate(-172.358 -47.135)" fill="#e0e0e0"/>
        <path id="Trazado_737543" data-name="Trazado 737543" d="M527.47,148.768a.2.2,0,0,1-.109-.005.117.117,0,0,1-.038-.023l-.013-.016,0-.009,0,0v0h0l.293-.063h0c.011.051-.045.107-.126.125s-.156-.011-.166-.063h0l.293-.062h0v.017l-.005.019a.1.1,0,0,1-.025.036.2.2,0,0,1-.1.049" transform="translate(-179.868 -50.703)" fill="#e0e0e0"/>
        <path id="Trazado_737544" data-name="Trazado 737544" d="M545.8,223.3c-.081.017-3.974-18.013-8.7-40.267s-8.483-40.316-8.4-40.333,3.974,18.009,8.7,40.271,8.483,40.312,8.4,40.329" transform="translate(-180.343 -48.677)" fill="#e0e0e0"/>
        <path id="Trazado_737545" data-name="Trazado 737545" d="M34.3,390.838l-25.733-.4a4.138,4.138,0,0,1-4.073-4.2l1.03-66.468,34.008.527L38.5,386.764a4.137,4.137,0,0,1-4.2,4.073" transform="translate(-1.531 -109.076)" fill="#f5f5f5"/>
        <rect id="Rectángulo_350817" data-name="Rectángulo 350817" width="30.561" height="21.377" transform="translate(3.214 260.617) rotate(-89.112)" fill="#e0e0e0"/>
        <path id="Trazado_737546" data-name="Trazado 737546" d="M39.473,322.556l-38.114-.59A1.382,1.382,0,0,1,0,320.563l.14-9.044a1.381,1.381,0,0,1,1.4-1.359l38.114.591a1.38,1.38,0,0,1,1.359,1.4l-.14,9.044a1.381,1.381,0,0,1-1.4,1.359" transform="translate(0 -105.798)" fill="#ebebeb"/>
        <path id="Trazado_737547" data-name="Trazado 737547" d="M4.858,322.009a96.587,96.587,0,0,1,.183-11.8,48.418,48.418,0,0,1,.089,5.906,48.5,48.5,0,0,1-.272,5.9" transform="translate(-1.619 -105.813)" fill="#e0e0e0"/>
        <path id="Trazado_737548" data-name="Trazado 737548" d="M9.864,322.087a96.588,96.588,0,0,1,.183-11.8,48.411,48.411,0,0,1,.089,5.9,48.508,48.508,0,0,1-.272,5.9" transform="translate(-3.327 -105.84)" fill="#e0e0e0"/>
        <path id="Trazado_737549" data-name="Trazado 737549" d="M14.869,322.165a96.412,96.412,0,0,1,.183-11.8,48.172,48.172,0,0,1,.09,5.906,48.5,48.5,0,0,1-.272,5.9" transform="translate(-5.034 -105.866)" fill="#e0e0e0"/>
        <path id="Trazado_737550" data-name="Trazado 737550" d="M19.875,322.242a96.588,96.588,0,0,1,.183-11.8,48.418,48.418,0,0,1,.089,5.906,48.5,48.5,0,0,1-.272,5.9" transform="translate(-6.741 -105.893)" fill="#e0e0e0"/>
        <path id="Trazado_737551" data-name="Trazado 737551" d="M24.88,322.32a96.41,96.41,0,0,1,.183-11.8,48.418,48.418,0,0,1,.089,5.906,48.75,48.75,0,0,1-.271,5.9" transform="translate(-8.449 -105.919)" fill="#e0e0e0"/>
        <path id="Trazado_737552" data-name="Trazado 737552" d="M29.886,322.4a96.587,96.587,0,0,1,.183-11.8,48.417,48.417,0,0,1,.089,5.906,48.5,48.5,0,0,1-.272,5.9" transform="translate(-10.156 -105.945)" fill="#e0e0e0"/>
        <path id="Trazado_737553" data-name="Trazado 737553" d="M34.891,322.475a96.236,96.236,0,0,1,.183-11.8,48.668,48.668,0,0,1,.088,5.906,48.592,48.592,0,0,1-.271,5.9" transform="translate(-11.864 -105.972)" fill="#e0e0e0"/>
        <path id="Trazado_737554" data-name="Trazado 737554" d="M39.9,322.553a96.588,96.588,0,0,1,.183-11.8,48.41,48.41,0,0,1,.089,5.9,48.5,48.5,0,0,1-.272,5.9" transform="translate(-13.571 -105.999)" fill="#e0e0e0"/>
        <path id="Trazado_737555" data-name="Trazado 737555" d="M44.9,322.63a96.238,96.238,0,0,1,.183-11.8,48.418,48.418,0,0,1,.089,5.906,48.5,48.5,0,0,1-.272,5.9" transform="translate(-15.279 -106.025)" fill="#e0e0e0"/>
        <path id="Trazado_737556" data-name="Trazado 737556" d="M49.908,322.708a96.588,96.588,0,0,1,.183-11.8,96.586,96.586,0,0,1-.183,11.8" transform="translate(-16.986 -106.052)" fill="#e0e0e0"/>
        <path id="Trazado_737557" data-name="Trazado 737557" d="M54.914,322.785a96.586,96.586,0,0,1,.183-11.8,48.416,48.416,0,0,1,.089,5.906,48.5,48.5,0,0,1-.272,5.9" transform="translate(-18.694 -106.078)" fill="#e0e0e0"/>
        <path id="Trazado_737558" data-name="Trazado 737558" d="M59.919,322.863a96.586,96.586,0,0,1,.183-11.8,48.411,48.411,0,0,1,.089,5.9,48.506,48.506,0,0,1-.272,5.9" transform="translate(-20.401 -106.104)" fill="#e0e0e0"/>
        <path id="Trazado_737559" data-name="Trazado 737559" d="M23.026,412.137l-.062,3.982a.96.96,0,0,1-.974.945l-4.606-.072a2.951,2.951,0,0,1,.092-5.9l4.606.071a.96.96,0,0,1,.945.974" transform="translate(-4.939 -140.227)" fill="#ebebeb"/>
        <path id="Trazado_737560" data-name="Trazado 737560" d="M25.854,416.149l.062-3.982a.96.96,0,0,1,.974-.945l4.606.072a2.951,2.951,0,0,1-.092,5.9l-4.606-.071a.96.96,0,0,1-.945-.974" transform="translate(-8.819 -140.271)" fill="#e0e0e0"/>
        <path id="Trazado_737561" data-name="Trazado 737561" d="M42.761,382.778l3.895.832a.96.96,0,0,1,.738,1.139l-.963,4.5a2.951,2.951,0,0,1-5.771-1.233l.963-4.5a.959.959,0,0,1,1.139-.738" transform="translate(-13.847 -130.561)" fill="#ebebeb"/>
        <path id="Trazado_737562" data-name="Trazado 737562" d="M47.071,380.962l-3.895-.832a.96.96,0,0,1-.738-1.139l.963-4.5a2.951,2.951,0,1,1,5.771,1.233l-.963,4.5a.959.959,0,0,1-1.139.738" transform="translate(-14.469 -126.944)" fill="#e0e0e0"/>
        <path id="Trazado_737563" data-name="Trazado 737563" d="M42.3,408.3l3.778-1.26a.96.96,0,0,1,1.214.607l1.457,4.37a2.951,2.951,0,0,1-5.6,1.867l-1.457-4.37A.96.96,0,0,1,42.3,408.3" transform="translate(-14.204 -138.829)" fill="#ebebeb"/>
        <path id="Trazado_737564" data-name="Trazado 737564" d="M45.428,404.561l-3.778,1.26a.961.961,0,0,1-1.214-.607l-1.456-4.37a2.951,2.951,0,1,1,5.6-1.867l1.457,4.37a.96.96,0,0,1-.607,1.214" transform="translate(-13.244 -135.406)" fill="#e0e0e0"/>
        <path id="Trazado_737565" data-name="Trazado 737565" d="M23.207,399.424l-1.314,3.76a.96.96,0,0,1-1.223.589l-4.348-1.519a2.951,2.951,0,0,1,1.947-5.572l4.349,1.52a.96.96,0,0,1,.589,1.222" transform="translate(-4.893 -135.255)" fill="#ebebeb"/>
        <path id="Trazado_737566" data-name="Trazado 737566" d="M24.354,403.861l1.314-3.76a.96.96,0,0,1,1.223-.589l4.348,1.519a2.951,2.951,0,0,1-1.947,5.572l-4.349-1.52a.96.96,0,0,1-.589-1.222" transform="translate(-8.289 -136.258)" fill="#e0e0e0"/>
        <path id="Trazado_737567" data-name="Trazado 737567" d="M18.987,255.532l6.238-4.768a.959.959,0,0,1,1.345.18l5.013,6.559a4.885,4.885,0,0,1-7.763,5.933l-5.013-6.559a.959.959,0,0,1,.18-1.345" transform="translate(-6.348 -85.47)" fill="#ebebeb"/>
        <path id="Trazado_737568" data-name="Trazado 737568" d="M23.12,247.758l-6.238,4.768a.959.959,0,0,1-1.345-.18l-5.013-6.559a4.885,4.885,0,1,1,7.763-5.933l5.013,6.559a.959.959,0,0,1-.18,1.345" transform="translate(-3.247 -81.162)" fill="#e0e0e0"/>
        <path id="Trazado_737569" data-name="Trazado 737569" d="M316.141,236.568l1.265,12.208-11.513,1.193a6.137,6.137,0,0,1-1.265-12.208Z" transform="translate(-102.033 -80.695)" fill="#ebebeb"/>
        <path id="Trazado_737570" data-name="Trazado 737570" d="M323.106,248.463l-1.265-12.208,11.513-1.193a6.137,6.137,0,0,1,1.264,12.209Z" transform="translate(-109.783 -80.17)" fill="#e0e0e0"/>
      </g>
    </g>
    <g id="Grupo_1034323" data-name="Grupo 1034323">
      <g id="Grupo_1034322" data-name="Grupo 1034322" clip-path="url(#clip-path)">
        <path id="Trazado_737571" data-name="Trazado 737571" d="M404.389,426.016c0,.095-87.129.171-194.584.171-107.492,0-194.6-.076-194.6-.171s87.111-.171,194.6-.171c107.455,0,194.584.076,194.584.171" transform="translate(-5.186 -145.259)" fill="#263238"/>
      </g>
    </g>
    <g id="Grupo_1034340" data-name="Grupo 1034340">
      <g id="Grupo_1034339" data-name="Grupo 1034339" clip-path="url(#clip-path)">
        <path id="Trazado_737572" data-name="Trazado 737572" d="M508.075,381.626l-22.891-.1a14.524,14.524,0,1,0-.132,29.047l22.891.1Z" transform="translate(-160.5 -130.14)" fill="#e0e0e0"/>
        <path id="Trazado_737573" data-name="Trazado 737573" d="M524.276,410.988l22.891.1a15.1,15.1,0,0,0,.138-30.182l-22.891-.1Z" transform="translate(-178.835 -129.896)" fill="#ff9d00"/>
        <g id="Grupo_1034326" data-name="Grupo 1034326" transform="translate(344.028 251.471)" opacity="0.3">
          <g id="Grupo_1034325" data-name="Grupo 1034325">
            <g id="Grupo_1034324" data-name="Grupo 1034324" clip-path="url(#clip-path-17)">
              <rect id="Rectángulo_350820" data-name="Rectángulo 350820" width="29.048" height="1.416" transform="translate(-0.001 29.048) rotate(-89.733)"/>
            </g>
          </g>
        </g>
        <path id="Trazado_737574" data-name="Trazado 737574" d="M524.216,410.98c-.095,0-.141-6.761-.1-15.1s.146-15.1.24-15.1.141,6.76.1,15.1-.146,15.1-.241,15.1" transform="translate(-178.775 -129.888)" fill="#263238"/>
        <g id="Grupo_1034329" data-name="Grupo 1034329" transform="translate(364.911 251.948)" opacity="0.3">
          <g id="Grupo_1034328" data-name="Grupo 1034328">
            <g id="Grupo_1034327" data-name="Grupo 1034327" clip-path="url(#clip-path-18)">
              <path id="Trazado_737575" data-name="Trazado 737575" d="M553.832,385.085c-.105-.915.876-1.952,2.845-2.454a9.474,9.474,0,0,1,3.513-.155,11.892,11.892,0,0,1,7.494,4.145,9.495,9.495,0,0,1,1.734,3.065c.619,1.938.256,3.321-.577,3.714-.871.418-2.039-.106-3.349-.86-.658-.382-1.363-.824-2.11-1.282s-1.541-.927-2.383-1.4-1.672-.872-2.456-1.274-1.536-.752-2.209-1.11c-1.337-.711-2.4-1.426-2.5-2.386" transform="translate(-553.825 -382.381)" fill="#fff"/>
            </g>
          </g>
        </g>
        <g id="Grupo_1034332" data-name="Grupo 1034332" transform="translate(359.758 253.147)" opacity="0.3">
          <g id="Grupo_1034331" data-name="Grupo 1034331">
            <g id="Grupo_1034330" data-name="Grupo 1034330" clip-path="url(#clip-path-19)">
              <path id="Trazado_737576" data-name="Trazado 737576" d="M547.709,386.52a1.09,1.09,0,0,0,.884-1.075,1.118,1.118,0,0,0-.181-.719,1.438,1.438,0,0,0-1.023-.521,1.266,1.266,0,0,0-1.22.585,1.188,1.188,0,0,0,.081,1.327,1.449,1.449,0,0,0,1.459.4" transform="translate(-546.005 -384.201)" fill="#fff"/>
            </g>
          </g>
        </g>
        <g id="Grupo_1034335" data-name="Grupo 1034335" transform="translate(314.03 267.983)" opacity="0.3">
          <g id="Grupo_1034334" data-name="Grupo 1034334">
            <g id="Grupo_1034333" data-name="Grupo 1034333" clip-path="url(#clip-path-20)">
              <path id="Trazado_737577" data-name="Trazado 737577" d="M492.5,415.18c.105.915-.876,1.952-2.845,2.454a9.487,9.487,0,0,1-3.513.155,11.9,11.9,0,0,1-7.494-4.146,9.482,9.482,0,0,1-1.734-3.064c-.619-1.938-.256-3.321.577-3.714.871-.418,2.039.106,3.348.861.658.381,1.363.824,2.11,1.282s1.541.927,2.383,1.4,1.672.873,2.456,1.274,1.536.752,2.209,1.11c1.337.711,2.4,1.426,2.5,2.386" transform="translate(-476.603 -406.717)" fill="#fff"/>
            </g>
          </g>
        </g>
        <g id="Grupo_1034338" data-name="Grupo 1034338" transform="translate(332.493 275.577)" opacity="0.3">
          <g id="Grupo_1034337" data-name="Grupo 1034337">
            <g id="Grupo_1034336" data-name="Grupo 1034336" clip-path="url(#clip-path-21)">
              <path id="Trazado_737578" data-name="Trazado 737578" d="M505.515,418.3a1.091,1.091,0,0,0-.884,1.075,1.117,1.117,0,0,0,.181.719,1.438,1.438,0,0,0,1.023.521,1.265,1.265,0,0,0,1.22-.585,1.186,1.186,0,0,0-.081-1.326,1.447,1.447,0,0,0-1.459-.4" transform="translate(-504.625 -418.243)" fill="#fff"/>
            </g>
          </g>
        </g>
      </g>
    </g>
    <g id="Grupo_1034342" data-name="Grupo 1034342">
      <g id="Grupo_1034341" data-name="Grupo 1034341" clip-path="url(#clip-path)">
        <path id="Trazado_737579" data-name="Trazado 737579" d="M253.477,54.023c-4.2,17.053-10.884,44.611-13.951,57.269a6.966,6.966,0,0,0,5.114,8.406l46.585,11.418a6.97,6.97,0,0,0,8.428-5.11l13.909-56.75a15.472,15.472,0,0,0-11.344-18.709l2.046-8.347-30.507-7.477-1.934,7.892-.113-.024a15.467,15.467,0,0,0-18.233,11.432" transform="translate(-81.637 -11.844)" fill="#f5f5f5"/>
        <path id="Trazado_737580" data-name="Trazado 737580" d="M253.393,53.944s.132-.528.434-1.539a16.214,16.214,0,0,1,2.188-4.1,15.583,15.583,0,0,1,15.747-5.873l-.13.082,1.919-7.895.03-.123.123.03L304.22,41.96l.161.04-.04.162L302.3,50.51l-.127-.21a16.091,16.091,0,0,1,6.872,3.679A15.74,15.74,0,0,1,313.665,69.2l-2.055,8.406-8.753,35.739q-.874,3.565-1.738,7.087-.431,1.76-.86,3.509l-.428,1.745a8.489,8.489,0,0,1-.6,1.73,7.185,7.185,0,0,1-5.742,3.976,7,7,0,0,1-1.8-.051c-.6-.1-1.154-.254-1.722-.391l-3.376-.828-25.846-6.347-12.035-2.958-2.9-.714a12.423,12.423,0,0,1-2.838-.9,7.172,7.172,0,0,1-3.625-4.428,7.031,7.031,0,0,1-.2-2.843c.148-.947.413-1.809.615-2.7l1.274-5.2,2.4-9.778,7.253-29.5c.863-3.474,1.533-6.174,1.991-8.016q.345-1.363.528-2.082c.121-.469.193-.706.193-.706s-.045.244-.154.716-.275,1.179-.489,2.092c-.441,1.847-1.087,4.552-1.919,8.034L243.7,94.318l-2.371,9.785q-.618,2.552-1.262,5.2c-.2.882-.468,1.784-.6,2.669a6.712,6.712,0,0,0,.2,2.711,6.835,6.835,0,0,0,3.462,4.214,12.106,12.106,0,0,0,2.765.867l2.906.71,12.039,2.943,25.852,6.324,3.377.826a8.993,8.993,0,0,0,3.389.432,6.79,6.79,0,0,0,5.423-3.758,18.82,18.82,0,0,0,.994-3.4q.429-1.748.86-3.509l1.737-7.087,8.766-35.736,2.062-8.4a15.375,15.375,0,0,0-4.494-14.87,15.738,15.738,0,0,0-6.71-3.606l-.169-.043.041-.167c.716-2.907,1.414-5.748,2.053-8.346l.122.2-30.5-7.516.152-.092-1.949,7.888-.026.1-.1-.022a15.47,15.47,0,0,0-15.607,5.728,16.632,16.632,0,0,0-2.225,4.054l-.36,1.136c-.082.255-.13.383-.13.383" transform="translate(-81.553 -11.766)" fill="#263238"/>
        <path id="Trazado_737581" data-name="Trazado 737581" d="M321.506,40.029,286.339,31.41a1.273,1.273,0,0,1-.933-1.539l2.939-11.994a1.971,1.971,0,0,1,2.384-1.446l33.81,8.287a1.97,1.97,0,0,1,1.445,2.383L323.044,39.1a1.271,1.271,0,0,1-1.538.933" transform="translate(-97.342 -5.585)" fill="#7e5ee3"/>
        <path id="Trazado_737582" data-name="Trazado 737582" d="M302.793,119.157l-41.814-10.248a.977.977,0,0,1-.716-1.181l6.621-27.016A.977.977,0,0,1,268.065,80l41.814,10.248a.977.977,0,0,1,.716,1.181l-6.621,27.016a.977.977,0,0,1-1.181.716" transform="translate(-88.768 -27.277)" fill="#7e5ee3"/>
        <path id="Trazado_737583" data-name="Trazado 737583" d="M270.226,83.545c-.111.065.94-.573.495-.3l0,.007,0,.013-.007.026-.013.052-.026.1-.051.209-.1.417-.2.833-.407,1.658q-.405,1.652-.806,3.281-.8,3.256-1.577,6.408c-1.037,4.2-2.036,8.237-2.986,12.078l-.277-.458,27.449,6.919,7.9,2.042,2.12.567a5.762,5.762,0,0,1,.753.231,3.918,3.918,0,0,1-.69-.123l-2.068-.46-7.868-1.823L264.08,108.61l-.368-.088.09-.37c.934-3.845,1.917-7.89,2.937-12.09L268.3,89.65l.8-3.281.406-1.658.2-.833.1-.417.051-.209.026-.1.013-.052.007-.026,0-.013v-.007c-.445.268.608-.372.5-.305l38.292,9.472.322.08-.081.317c-1.942,7.626-3.54,13.9-4.675,18.351l-1.307,4.982-.351,1.279a1.783,1.783,0,0,1-.136.409,3.076,3.076,0,0,1,.084-.492l.295-1.356,1.162-5.093c1.042-4.424,2.508-10.658,4.292-18.235l.24.4" transform="translate(-89.954 -28.223)" fill="#fff"/>
        <path id="Trazado_737584" data-name="Trazado 737584" d="M244.663,114.527a17.746,17.746,0,0,1,.51-2.722l1.689-7.349c1.461-6.2,3.535-14.743,5.875-24.17L256.07,67c1.019-4.08,2.347-7.784,4.4-10.337a12.17,12.17,0,0,1,6.19-4.334,8.543,8.543,0,0,1,2.054-.295,2.349,2.349,0,0,1,.719.071,16.875,16.875,0,0,0-2.681.531,12.3,12.3,0,0,0-5.821,4.382c-1.911,2.495-3.151,6.1-4.124,10.168-1.009,4.1-2.112,8.587-3.27,13.3-2.34,9.427-4.5,17.951-6.109,24.112l-1.944,7.285a17.79,17.79,0,0,1-.822,2.645" transform="translate(-83.453 -17.75)" fill="#fff"/>
        <path id="Trazado_737585" data-name="Trazado 737585" d="M297.883,171.963a11.872,11.872,0,0,1-1.933-1.163c-.6-.4-1.34-.887-2.23-1.4s-1.864-1.158-3.013-1.749a76.955,76.955,0,0,0-8.168-3.909,75.4,75.4,0,0,0-21.463-5.259,76.912,76.912,0,0,0-9.051-.309c-1.292-.007-2.455.106-3.48.158s-1.906.131-2.625.211a11.915,11.915,0,0,1-2.251.138,11.732,11.732,0,0,1,2.211-.456c.716-.129,1.6-.264,2.625-.352s2.2-.251,3.5-.281a68.344,68.344,0,0,1,9.14.134,70.646,70.646,0,0,1,21.686,5.313,68.226,68.226,0,0,1,8.166,4.106c1.14.629,2.106,1.306,2.973,1.867s1.59,1.08,2.165,1.525a11.863,11.863,0,0,1,1.75,1.427" transform="translate(-83.117 -53.723)" fill="#fff"/>
        <path id="Trazado_737586" data-name="Trazado 737586" d="M297.495,102.862l.945-3.933a.381.381,0,0,0-.281-.46l-4.993-1.2a.381.381,0,0,0-.46.281l-.945,3.933a.381.381,0,0,1-.459.281l-3.934-.945a.381.381,0,0,0-.459.281l-1.2,4.994a.382.382,0,0,0,.281.459l3.934.945a.382.382,0,0,1,.281.459l-.945,3.933a.38.38,0,0,0,.281.459l4.993,1.2a.381.381,0,0,0,.46-.281l.945-3.933a.381.381,0,0,1,.459-.281l3.933.945a.38.38,0,0,0,.459-.281l1.2-4.993a.381.381,0,0,0-.281-.46l-3.933-.945a.381.381,0,0,1-.281-.459" transform="translate(-97.454 -33.176)" fill="#fff"/>
        <path id="Trazado_737587" data-name="Trazado 737587" d="M291.886,31.759a71.093,71.093,0,0,1,1.566-7.372,71.124,71.124,0,0,1,1.954-7.28,71.045,71.045,0,0,1-1.566,7.374,71.184,71.184,0,0,1-1.954,7.279" transform="translate(-99.561 -5.835)" fill="#263238"/>
        <path id="Trazado_737588" data-name="Trazado 737588" d="M299.2,33.516a71.167,71.167,0,0,1,1.566-7.372,71.187,71.187,0,0,1,1.955-7.28,71.108,71.108,0,0,1-1.566,7.374,71.184,71.184,0,0,1-1.954,7.279" transform="translate(-102.055 -6.435)" fill="#263238"/>
        <path id="Trazado_737589" data-name="Trazado 737589" d="M306.508,35.272a71.167,71.167,0,0,1,1.566-7.372,71.2,71.2,0,0,1,1.955-7.28,71.1,71.1,0,0,1-1.566,7.374,71.194,71.194,0,0,1-1.954,7.279" transform="translate(-104.549 -7.034)" fill="#263238"/>
        <path id="Trazado_737590" data-name="Trazado 737590" d="M313.82,37.029a71.171,71.171,0,0,1,1.566-7.372,71.216,71.216,0,0,1,1.955-7.28,71.1,71.1,0,0,1-1.566,7.374,71.189,71.189,0,0,1-1.954,7.279" transform="translate(-107.043 -7.633)" fill="#263238"/>
        <path id="Trazado_737591" data-name="Trazado 737591" d="M321.13,38.785a71.093,71.093,0,0,1,1.566-7.372,71.12,71.12,0,0,1,1.954-7.28,71.1,71.1,0,0,1-1.566,7.374,71.165,71.165,0,0,1-1.954,7.279" transform="translate(-109.536 -8.232)" fill="#263238"/>
        <path id="Trazado_737592" data-name="Trazado 737592" d="M328.441,40.542a71.073,71.073,0,0,1,1.566-7.372,71.109,71.109,0,0,1,1.954-7.28,71.094,71.094,0,0,1-1.566,7.374,71.2,71.2,0,0,1-1.954,7.279" transform="translate(-112.03 -8.831)" fill="#263238"/>
        <path id="Trazado_737593" data-name="Trazado 737593" d="M335.752,42.3a71.078,71.078,0,0,1,1.566-7.372,71.1,71.1,0,0,1,1.954-7.28,71.108,71.108,0,0,1-1.566,7.374,71.2,71.2,0,0,1-1.954,7.279" transform="translate(-114.524 -9.431)" fill="#263238"/>
      </g>
    </g>
    <g id="Grupo_1034347" data-name="Grupo 1034347">
      <g id="Grupo_1034346" data-name="Grupo 1034346" clip-path="url(#clip-path)">
        <path id="Trazado_737594" data-name="Trazado 737594" d="M380.414,151.279l-8.7,15.52L368.2,151.877l-9.6,1.851,4.313,21.717a8.829,8.829,0,0,0,5.921,6.8c4.5,1.378,8.756-1.523,11.4-6.634,1.162-2.243.179-24.335.179-24.335" transform="translate(-122.32 -51.602)" fill="#e0e0e0"/>
        <path id="Trazado_737595" data-name="Trazado 737595" d="M377.321,182.034a20.226,20.226,0,0,1,.248-3.707,20.183,20.183,0,0,1,.59-3.669,20.231,20.231,0,0,1-.248,3.708,20.2,20.2,0,0,1-.59,3.668" transform="translate(-128.696 -59.577)" fill="#263238"/>
        <path id="Trazado_737596" data-name="Trazado 737596" d="M399.3,140.475c-2.046.468-6.854,2.382-8.364,3.839a12.421,12.421,0,0,0-1.969,2.359c-1.3,2.133-5.293,16.781-5.293,16.781,5.346,6.872,5.794,14.532,4.135,22.529l5.136.92,8.611-42.6.661-6.526Z" transform="translate(-130.875 -46.997)" fill="#e0e0e0"/>
        <path id="Trazado_737597" data-name="Trazado 737597" d="M385.866,200.7s-4.771,11.865-8.446,24.378-6.242,47.111-6.242,47.111l54.99-.018-22.5-64.958Z" transform="translate(-126.612 -68.46)" fill="#e0e0e0"/>
        <path id="Trazado_737598" data-name="Trazado 737598" d="M394.007,181.478a2.462,2.462,0,0,0-.031-.455l-.143-1.295c-.126-1.125-.31-2.751-.5-4.764s-.391-4.413-.476-7.081a41.432,41.432,0,0,1,.046-4.178,19.314,19.314,0,0,1,.9-4.372,107.232,107.232,0,0,1,4.562-12.485l-.082.071,2.247-.675.447-.134-.457-.089-1.5-.293.059.167,2.407-2.945.629-.793a1.678,1.678,0,0,0,.2-.286,1.615,1.615,0,0,0-.246.249l-.671.758-2.479,2.885-.113.13.171.036,1.494.317-.009-.223-2.256.647-.057.016-.024.055a99.124,99.124,0,0,0-4.637,12.5c-.215.743-.407,1.484-.588,2.216-.086.368-.138.747-.208,1.116-.047.371-.072.741-.108,1.106a40.654,40.654,0,0,0-.028,4.212c.1,2.679.331,5.081.548,7.094s.439,3.636.6,4.757l.2,1.288a2.34,2.34,0,0,0,.1.445" transform="translate(-133.89 -48.394)" fill="#263238"/>
        <path id="Trazado_737599" data-name="Trazado 737599" d="M390.481,161.856c.057.02-.319,1.083-.752,2.844a34.565,34.565,0,0,0-.517,14.05c.3,1.788.6,2.875.54,2.891a3.529,3.529,0,0,1-.264-.748c-.154-.487-.333-1.205-.515-2.1a30.658,30.658,0,0,1,.521-14.154c.248-.879.48-1.582.668-2.056a3.492,3.492,0,0,1,.318-.727" transform="translate(-132.481 -55.21)" fill="#263238"/>
        <path id="Trazado_737600" data-name="Trazado 737600" d="M369.175,157.034l-1.763-7.919H359.94l1.26,8.395Z" transform="translate(-122.778 -50.864)" fill="#ae7461"/>
        <path id="Trazado_737601" data-name="Trazado 737601" d="M366.227,142.932s2.423-6.518.895-8.335c-2.032-2.417-7.247-4.579-8.687-3.15a1.81,1.81,0,0,0-.142,2.419s-2.045.65-.742,2.344c0,0-1.44.434-.409,2.491a1.57,1.57,0,0,0-.372,2.147,2.125,2.125,0,0,0,1.985.975s.091,2.728.132,2.73,4.166-.838,4.166-.838Z" transform="translate(-121.593 -44.682)" fill="#ae7461"/>
        <path id="Trazado_737602" data-name="Trazado 737602" d="M365.285,125.983h0a.824.824,0,0,1,.53,1.063c-1.056,2.948-4.614,13.138-5.754,16.409a1,1,0,1,1-1.877-.683l6.078-16.29a.825.825,0,0,1,1.023-.5" transform="translate(-122.158 -42.961)" fill="#455a64"/>
        <path id="Trazado_737603" data-name="Trazado 737603" d="M362.491,131.492c-2.653-.978-3.369-.7-4.017-.094a1.832,1.832,0,0,0-.142,2.419,1.366,1.366,0,0,0-.742,2.344,1.045,1.045,0,0,0-.872,1.065,3.034,3.034,0,0,0,.464,1.426,1.156,1.156,0,0,0-.543,1.41,2.593,2.593,0,0,0,1.051,1.248,2.417,2.417,0,0,0,.9.44,1.043,1.043,0,0,0,.937-.233,1.082,1.082,0,0,0,.2-1.069,3.306,3.306,0,0,0-.776-.951s1.279.435,1.684.042a1.569,1.569,0,0,0,.309-1.577c-.169-.538-1.007-1.1-1.007-1.1s1.087.548,1.654.29a1.231,1.231,0,0,0,.584-1.576" transform="translate(-121.633 -44.633)" fill="#ae7461"/>
        <path id="Trazado_737604" data-name="Trazado 737604" d="M362.083,135.53a1,1,0,0,1,.067.948,1.159,1.159,0,0,1-.852.774,2.932,2.932,0,0,1-1.5-.335l.113-.194a3.8,3.8,0,0,1,.832.735,1.651,1.651,0,0,1,.324,1.214,1.6,1.6,0,0,1-.212.656,1.227,1.227,0,0,1-.233.286.768.768,0,0,1-.371.164,3.335,3.335,0,0,1-1.438-.184l.153-.264a5.348,5.348,0,0,1,.509.513,2.262,2.262,0,0,1,.227.31,1.036,1.036,0,0,1,.137.4,1.279,1.279,0,0,1-.126.823,1.021,1.021,0,0,1-.715.5,2.043,2.043,0,0,1-1.562-.519,2.645,2.645,0,0,1-1.057-1.321,1.316,1.316,0,0,1,.652-1.585l-.087.237a3.119,3.119,0,0,1-.479-1.539,1.409,1.409,0,0,1,.29-.786,1,1,0,0,1,.741-.407l-.1.28a1.52,1.52,0,0,1,.833-2.606l-.09.238a1.958,1.958,0,0,1,.313-2.725,1.832,1.832,0,0,1,1.146-.436,3.857,3.857,0,0,1,1.015.114,9.889,9.889,0,0,1,1.344.42,2.107,2.107,0,0,1,.452.208c-.013.044-.658-.223-1.83-.462a2.221,2.221,0,0,0-1.975.339,1.641,1.641,0,0,0-.591,1.068,1.676,1.676,0,0,0,.349,1.287l.166.2-.257.04a1.254,1.254,0,0,0-.963.8,1.24,1.24,0,0,0,.312,1.283l.287.269-.391.011a.882.882,0,0,0-.711.883,2.843,2.843,0,0,0,.446,1.367l.09.169-.177.068a.984.984,0,0,0-.449,1.175,2.327,2.327,0,0,0,.928,1.14,1.735,1.735,0,0,0,1.3.465.756.756,0,0,0,.583-.94.705.705,0,0,0-.094-.284,1.975,1.975,0,0,0-.193-.267,5.28,5.28,0,0,0-.471-.484l-.527-.48.68.215a3.136,3.136,0,0,0,1.286.189.491.491,0,0,0,.233-.094.962.962,0,0,0,.18-.215,1.326,1.326,0,0,0,.182-.538,1.391,1.391,0,0,0-.25-1.03,3.642,3.642,0,0,0-.758-.7l.113-.194a2.826,2.826,0,0,0,1.377.361,1.035,1.035,0,0,0,.762-.644,1.412,1.412,0,0,0,.047-.9" transform="translate(-121.544 -44.582)" fill="#6f4439"/>
        <path id="Trazado_737605" data-name="Trazado 737605" d="M367.828,140.877a11.3,11.3,0,0,0,.689-3.426,3.819,3.819,0,0,0-1.393-3.083,5.652,5.652,0,0,0-2.038-.781c-.919-.221-1.863-.4-2.8-.53-.911-.128-2.612-.621-2.786-.419-.492.571.014,2.015.837,2.568a9.273,9.273,0,0,0,2.261.86c.346.111.75.3.777.666a1.1,1.1,0,0,1-.255.629,3.505,3.505,0,0,0,1.159,4.709" transform="translate(-122.562 -45.227)" fill="#ae7461"/>
        <path id="Trazado_737606" data-name="Trazado 737606" d="M364.192,141.981c-.006.011-.092-.032-.252-.125a2.919,2.919,0,0,1-.613-.53,3.667,3.667,0,0,1-.859-2.8,3.514,3.514,0,0,1,.267-.973c.131-.324.422-.627.412-.886s-.362-.451-.709-.552c-.367-.113-.756-.215-1.15-.347a4.486,4.486,0,0,1-1.18-.551,2.656,2.656,0,0,1-.843-1.1,1.94,1.94,0,0,1-.113-1.457.765.765,0,0,1,.108-.183.307.307,0,0,1,.138-.11.842.842,0,0,1,.131-.028,2,2,0,0,1,.385.02c.241.032.474.078.708.125,1.834.42,3.64.634,5.238,1.081a3.448,3.448,0,0,1,1.971,1.33,4.165,4.165,0,0,1,.689,1.956,7.585,7.585,0,0,1-.4,2.929c-.1.332-.194.587-.258.758a.873.873,0,0,1-.116.256,7.84,7.84,0,0,1,.246-1.049,8.083,8.083,0,0,0,.29-2.867,3.972,3.972,0,0,0-.679-1.819,3.175,3.175,0,0,0-1.83-1.191c-1.568-.42-3.359-.625-5.216-1.048-.23-.047-.459-.092-.681-.121a1.751,1.751,0,0,0-.311-.019.2.2,0,0,1-.038.007c.013,0-.013-.057-.038-.074l-.011-.009c-.074-.063.087.075.07.063l0,.007-.009.013a.456.456,0,0,0-.067.114,1.644,1.644,0,0,0,.11,1.185,2.347,2.347,0,0,0,.726.967,4.26,4.26,0,0,0,1.09.518c.381.132.766.238,1.139.358a2.047,2.047,0,0,1,.559.26.737.737,0,0,1,.344.567,1.016,1.016,0,0,1-.207.577,4.42,4.42,0,0,0-.25.433,3.341,3.341,0,0,0-.266.892,3.615,3.615,0,0,0,.721,2.689,6,6,0,0,0,.762.74" transform="translate(-122.475 -45.139)" fill="#6f4439"/>
        <path id="Trazado_737607" data-name="Trazado 737607" d="M365.309,106.274c1.422-4.357,4.4-7.42,7.123-7.623-.028-.01-.053-.024-.08-.034-3.032-.99-6.817,2.271-8.452,7.283s-.5,9.876,2.53,10.866a3.514,3.514,0,0,0,.447.105c-2.331-1.6-3.058-6.029-1.567-10.6" transform="translate(-123.874 -33.579)" fill="#263238"/>
        <g id="Grupo_1034345" data-name="Grupo 1034345" transform="translate(239.654 64.949)" opacity="0.3">
          <g id="Grupo_1034344" data-name="Grupo 1034344">
            <g id="Grupo_1034343" data-name="Grupo 1034343" clip-path="url(#clip-path-24)">
              <path id="Trazado_737608" data-name="Trazado 737608" d="M375.4,109.543c-1.571,5.02-5.3,8.32-8.334,7.372s-4.216-5.788-2.645-10.808,5.3-8.32,8.334-7.371,4.216,5.787,2.645,10.807" transform="translate(-363.723 -98.573)" fill="#fff"/>
            </g>
          </g>
        </g>
        <path id="Trazado_737609" data-name="Trazado 737609" d="M375.751,98.906a3.592,3.592,0,0,0-1.391-.152c2.97,1.051,4.07,5.867,2.45,10.833-1.556,4.769-5.057,7.944-8.006,7.387a3.511,3.511,0,0,0,.9.458c3.033.99,6.845-2.356,8.514-7.471s.565-10.065-2.468-11.055" transform="translate(-125.802 -33.682)" fill="#455a64"/>
        <path id="Trazado_737610" data-name="Trazado 737610" d="M373.538,115.539a23.421,23.421,0,0,1-1.017-3.32,23.269,23.269,0,0,1-.85-3.367,14.342,14.342,0,0,1,1.181,3.275,14.308,14.308,0,0,1,.686,3.412" transform="translate(-126.776 -37.13)" fill="#263238"/>
        <path id="Trazado_737611" data-name="Trazado 737611" d="M374.473,109.821a9.43,9.43,0,0,1-.89-2.848c.086-.036.411.562.659,1.357a2.966,2.966,0,0,1,.231,1.49" transform="translate(-127.425 -36.489)" fill="#263238"/>
        <path id="Trazado_737612" data-name="Trazado 737612" d="M372.235,118.855a9.428,9.428,0,0,1-.89-2.848c.086-.036.411.562.659,1.357a2.966,2.966,0,0,1,.231,1.49" transform="translate(-126.661 -39.57)" fill="#263238"/>
        <path id="Trazado_737613" data-name="Trazado 737613" d="M390.386,92.079c1.3-.612,2.87-.65,3.974-1.6,1.132-.973,1.445-2.606,1.8-4.086a12.4,12.4,0,0,1,1.894-4.544,5.356,5.356,0,0,1,4.052-2.336c1.188-.016,2.375.5,3.537.231,1.322-.305,2.238-1.52,3.294-2.408a7.751,7.751,0,0,1,7.082-1.519,5.625,5.625,0,0,1,3.794,3.342,3.882,3.882,0,0,1-1.593,4.643l3.453,10.5a12.042,12.042,0,0,1-.743,9.462,11.338,11.338,0,0,1-7.346,5.689c-1.39.316-2.9.376-4.067,1.224a15.384,15.384,0,0,0-2.2,2.5,2.9,2.9,0,0,1-2.87,1.18c-.787-.261-1.343-1.069-2.155-1.226s-1.589.381-2.373.668a4.227,4.227,0,0,1-5.073-2.051c-.468-.924-.664-2.089-1.5-2.663s-1.969-.3-2.967-.484a3.6,3.6,0,0,1-2.4-4.811,6.839,6.839,0,0,0,.962-2.208,5.128,5.128,0,0,0-.946-2.429,5.49,5.49,0,0,1,2.4-7.071" transform="translate(-132.178 -25.76)" fill="#12263f"/>
        <path id="Trazado_737614" data-name="Trazado 737614" d="M405.238,114.6a2.969,2.969,0,0,0-1.077-.948l.091.005a1.709,1.709,0,0,0-.246-.075,1.134,1.134,0,0,0-.932.006h.009a2.218,2.218,0,0,0-1.319.933,2.791,2.791,0,0,0-.034,2.8,2.138,2.138,0,0,0,2.022,1.177,2.245,2.245,0,0,0,1.669-1.441,2.643,2.643,0,0,0-.183-2.455" transform="translate(-136.911 -38.711)" fill="#455a64"/>
        <path id="Trazado_737615" data-name="Trazado 737615" d="M423.313,121.806l3.578-26.883c.217-1.287,1.011-3.031-.2-3.354l-12.164-5.262c-3.989-1.063-7.465,3.732-8.356,7.936-.99,4.67-2.023,10.412-2.013,14.01.019,7.237,5.491,9,5.491,9,.005-.024-.177,1.8-.533,4.372l-2.3,9.308Z" transform="translate(-137.862 -29.389)" fill="#ae7461"/>
        <path id="Trazado_737616" data-name="Trazado 737616" d="M408.357,107.888a.9.9,0,0,0,.7,1.042.853.853,0,0,0,1.02-.681.9.9,0,0,0-.7-1.043.853.853,0,0,0-1.021.682" transform="translate(-139.289 -36.562)" fill="#263238"/>
        <path id="Trazado_737617" data-name="Trazado 737617" d="M408.349,102.886c.09.134.826-.273,1.761-.128s1.549.737,1.669.633c.057-.045-.02-.275-.286-.548a2.354,2.354,0,0,0-1.313-.654,2.259,2.259,0,0,0-1.425.25c-.322.186-.452.386-.407.447" transform="translate(-139.288 -34.849)" fill="#263238"/>
        <path id="Trazado_737618" data-name="Trazado 737618" d="M420.735,109.775a.9.9,0,0,0,.7,1.042.852.852,0,0,0,1.019-.681.9.9,0,0,0-.7-1.043.853.853,0,0,0-1.02.682" transform="translate(-143.511 -37.206)" fill="#263238"/>
        <path id="Trazado_737619" data-name="Trazado 737619" d="M422.276,105.287c.09.134.826-.273,1.762-.128s1.549.737,1.668.633c.058-.045-.019-.275-.285-.548a2.352,2.352,0,0,0-1.314-.653,2.254,2.254,0,0,0-1.424.25c-.322.186-.452.386-.407.447" transform="translate(-144.039 -35.668)" fill="#263238"/>
        <path id="Trazado_737620" data-name="Trazado 737620" d="M414.295,111.685a6.048,6.048,0,0,0-1.478-.517c-.235-.062-.454-.146-.469-.322a1.323,1.323,0,0,1,.27-.715l.991-1.79a34,34,0,0,0,2.331-4.722,33.6,33.6,0,0,0-2.689,4.52l-.963,1.806a1.517,1.517,0,0,0-.27.959.619.619,0,0,0,.339.424,1.58,1.58,0,0,0,.4.121,5.919,5.919,0,0,0,1.541.237" transform="translate(-140.538 -35.345)" fill="#263238"/>
        <path id="Trazado_737621" data-name="Trazado 737621" d="M412.363,132.721a15.92,15.92,0,0,0,9.058-1.217s-2.615,5.038-9.306,3.344Z" transform="translate(-140.576 -44.857)" fill="#6f4439"/>
        <path id="Trazado_737622" data-name="Trazado 737622" d="M416.9,117.9a1.5,1.5,0,0,1,1.127.886,1.579,1.579,0,0,1-.258,1.573,1.417,1.417,0,0,1-1.605.339,1.84,1.84,0,0,1-.231-.117,1.462,1.462,0,0,1,.945-2.686l.021,0" transform="translate(-141.648 -40.208)" fill="#6f4439"/>
        <path id="Trazado_737623" data-name="Trazado 737623" d="M417.762,117.522c-.151-.032-.311,1.027-1.294,1.647s-2.047.339-2.077.486c-.024.065.211.242.666.325a2.49,2.49,0,0,0,1.725-.345,2.348,2.348,0,0,0,1.019-1.391c.1-.437.031-.716-.04-.721" transform="translate(-141.352 -40.087)" fill="#263238"/>
        <path id="Trazado_737624" data-name="Trazado 737624" d="M422.887,100.307c.053.279,1.006.3,2.084.6,1.084.283,1.919.752,2.1.536.082-.1-.035-.377-.355-.689a3.513,3.513,0,0,0-1.494-.817,3.461,3.461,0,0,0-1.694-.049c-.428.108-.663.286-.642.418" transform="translate(-144.25 -34.045)" fill="#263238"/>
        <path id="Trazado_737625" data-name="Trazado 737625" d="M409.709,97.015c.132.246.811.115,1.588.222.781.078,1.411.366,1.6.157.083-.1.013-.34-.243-.594a2.242,2.242,0,0,0-2.565-.306c-.308.186-.433.4-.376.52" transform="translate(-139.751 -32.823)" fill="#263238"/>
        <path id="Trazado_737626" data-name="Trazado 737626" d="M435.081,107.1a3.55,3.55,0,0,1-.757-1.51,4.2,4.2,0,0,1,.447-1.585,3.332,3.332,0,0,0-1.538-3.91c-.765-.385-1.79-.534-2.1-1.357s.309-1.648.706-2.421a5.169,5.169,0,0,0,.188-4.191,6.939,6.939,0,0,0-.239-.876,6.272,6.272,0,0,0-4.923-4.25,4.226,4.226,0,0,0-6.055-3.7,4.616,4.616,0,0,0-3.5-1.611c-1.009.075-1.938.629-2.941.766-1.357.185-2.7-.406-4.063-.427a5.178,5.178,0,0,0-4.248,2.231c-.749,1.083-1.152,2.5-2.237,3.2a17.152,17.152,0,0,1-1.628.735,4.916,4.916,0,0,0-2.123,2.467,15.121,15.121,0,0,0-.872,3.238c1.141.511,2.435-.29,3.343-1.187s1.793-1.988,3.024-2.21c1.593-.287,3.39.974,4.733.027.939-.662,1.161-2.156,2.189-2.652.978-.471,2.06.221,3.083.548a4.647,4.647,0,0,0,3.47-.292h0a10.5,10.5,0,0,0,.469,4.984,13.791,13.791,0,0,0,2,2.815c-.678,1.279-.944,6.269,1.426,6.006a1.21,1.21,0,0,0,.957-.6l-1.75,14.958a1.842,1.842,0,0,0,1.947-.756,3.1,3.1,0,0,0,.69.476,3.328,3.328,0,0,0,3.812-.75c.5-.542.859-1.27,1.514-1.586a4.936,4.936,0,0,1,1.857-.209,4.078,4.078,0,0,0,3.31-2.271,4.341,4.341,0,0,0-.2-4.1" transform="translate(-136.17 -27.863)" fill="#263238"/>
        <path id="Trazado_737627" data-name="Trazado 737627" d="M435.193,112.582c.258-1.512,2.083-1.62,3.256-.7.644.5,1.073,1.409.812,3.016a3.133,3.133,0,0,1-4.665,2.594c.008-.077.3-3.136.6-4.906" transform="translate(-148.244 -37.963)" fill="#ae7461"/>
        <path id="Trazado_737628" data-name="Trazado 737628" d="M436.9,116.853c.02-.011.063.065.175.142a.7.7,0,0,0,.534.1,1.885,1.885,0,0,0,1.089-1.521,2.587,2.587,0,0,0-.028-1.1.86.86,0,0,0-.445-.662.364.364,0,0,0-.455.135c-.075.111-.063.2-.086.2s-.076-.087-.014-.258a.484.484,0,0,1,.2-.242.532.532,0,0,1,.414-.043,1.039,1.039,0,0,1,.64.789,2.661,2.661,0,0,1,.054,1.235,1.964,1.964,0,0,1-1.344,1.677.752.752,0,0,1-.636-.221c-.11-.127-.117-.227-.1-.232" transform="translate(-149.027 -38.744)" fill="#6f4439"/>
        <path id="Trazado_737629" data-name="Trazado 737629" d="M433.468,120.63a2.056,2.056,0,0,1,1.228-.949,1.712,1.712,0,0,1,1.015.009l.155.07a2.967,2.967,0,0,1,1.076.948,2.641,2.641,0,0,1,.183,2.455,2.244,2.244,0,0,1-1.669,1.441,2.138,2.138,0,0,1-2.022-1.177,2.791,2.791,0,0,1,.034-2.8" transform="translate(-147.725 -40.8)" fill="#455a64"/>
        <path id="Trazado_737630" data-name="Trazado 737630" d="M394.339,189.159l1.077-4.258a141.658,141.658,0,0,1-.546-14.7c.314-10.771,3.9-17.052,4.416-18.129.293-.609,6.3-11.123,6.3-11.123s-.249,2.845,4.671,2.57a19.26,19.26,0,0,0,10.814-3.766l9.524,3.307s-.088,15.394-.138,19.952c-.027,2.445-.4,13.381-.4,13.381l.534,8.761c.107.395-2.543,10.981-3.061,11.357s-9.076,1.294-9.223,1.637-16.714,5.022-16.671,4.753-6.452-10.213-6.452-10.213Z" transform="translate(-134.512 -47.672)" fill="#15d3ec"/>
        <path id="Trazado_737631" data-name="Trazado 737631" d="M441.127,213.4a1.688,1.688,0,0,0,.123.521,11.922,11.922,0,0,0,.513,1.363,17.585,17.585,0,0,0,6.051,7.339,12.228,12.228,0,0,0,1.239.764,1.686,1.686,0,0,0,.488.219c.028-.047-.623-.435-1.593-1.169a20.224,20.224,0,0,1-5.978-7.25c-.536-1.091-.792-1.8-.844-1.786" transform="translate(-150.47 -72.794)" fill="#455a64"/>
        <path id="Trazado_737632" data-name="Trazado 737632" d="M425.171,218.752a76.559,76.559,0,0,1,4.639,16.488c3.97,26.913,5.568,54.4,6.763,64.244,1.432,11.779,3.37,31.258,4.48,44.542L426.2,346.9s-10.349-49.609-13.6-61.368c-3.367-12.186-8.382-33.54-8.382-33.54l-5.072,93.1-14.61.173s-3.584-32.41-3.484-47.235-1.465-46.609-.916-54.283,9.423-29.527,9.423-29.527,4.382,4.21,13.6,3.926c7.339-.225,20.65-2.514,20.65-2.514Z" transform="translate(-129.627 -73.069)" fill="#12263f"/>
        <path id="Trazado_737633" data-name="Trazado 737633" d="M412.6,224.5a5.97,5.97,0,0,0-.049,1.005c-.011.648-.011,1.584,0,2.742.025,2.315.116,5.512.312,9.039s.463,6.716.7,9.02c.116,1.152.22,2.082.3,2.724a5.957,5.957,0,0,0,.161.994,5.955,5.955,0,0,0-.036-1.006c-.051-.7-.119-1.622-.2-2.732-.174-2.306-.4-5.493-.6-9.017s-.324-6.715-.407-9.026c-.042-1.113-.078-2.035-.1-2.738a5.972,5.972,0,0,0-.077-1" transform="translate(-140.722 -76.58)" fill="#455a64"/>
        <path id="Trazado_737634" data-name="Trazado 737634" d="M418.137,224.816c.017,0,0-.158-.21-.282a1.6,1.6,0,0,0-.938-.145,1.9,1.9,0,0,0-.648.177,1.041,1.041,0,0,0-.505.635,1.594,1.594,0,0,0,.517,1.657,1.64,1.64,0,0,0,1.714.287,1.13,1.13,0,0,0,.554-.584,1.6,1.6,0,0,0,.128-.663,1.359,1.359,0,0,0-.313-.9c-.16-.169-.293-.2-.3-.182s.089.09.2.259a1.37,1.37,0,0,1,.184.818,1.1,1.1,0,0,1-.577.981,1.371,1.371,0,0,1-1.38-.264,1.319,1.319,0,0,1-.439-1.325.779.779,0,0,1,.347-.483,1.8,1.8,0,0,1,.551-.186,1.715,1.715,0,0,1,.851.031c.188.069.24.182.266.169" transform="translate(-141.824 -76.537)" fill="#455a64"/>
        <path id="Trazado_737635" data-name="Trazado 737635" d="M403.271,257.079a12.272,12.272,0,0,0,1.371,1.208c.861.725,2.037,1.743,3.285,2.921s2.331,2.294,3.105,3.113a12.131,12.131,0,0,0,1.285,1.3,8.826,8.826,0,0,0-1.115-1.453,43,43,0,0,0-6.416-6.059,8.782,8.782,0,0,0-1.515-1.029" transform="translate(-137.559 -87.691)" fill="#455a64"/>
        <path id="Trazado_737636" data-name="Trazado 737636" d="M381.564,397.19l.35,12.978s-13.074,4.714-13.242,7.119l25.188.225.284-20.244Z" transform="translate(-125.757 -135.485)" fill="#263238"/>
        <path id="Trazado_737637" data-name="Trazado 737637" d="M393.855,426.975l-.051-2.042-24.131.548s-1.125.478-1.005,1.269Z" transform="translate(-125.752 -144.948)" fill="#455a64"/>
        <path id="Trazado_737638" data-name="Trazado 737638" d="M388.152,416.629c0,.123.617.184,1.219.585.612.385.92.921,1.033.873.113-.023-.063-.76-.8-1.232s-1.477-.339-1.452-.226" transform="translate(-132.401 -142.078)" fill="#fff"/>
        <path id="Trazado_737639" data-name="Trazado 737639" d="M384.127,418.284c-.029.119.5.333.915.857.428.512.529,1.075.652,1.071.115.021.207-.7-.319-1.34s-1.244-.7-1.247-.587" transform="translate(-131.029 -142.663)" fill="#fff"/>
        <path id="Trazado_737640" data-name="Trazado 737640" d="M381.308,421.984c.111.027.288-.586-.022-1.262s-.882-.949-.936-.847c-.071.1.3.465.546,1.025s.29,1.072.412,1.085" transform="translate(-129.738 -143.215)" fill="#fff"/>
        <path id="Trazado_737641" data-name="Trazado 737641" d="M388.527,411.961c.051.113.616-.052,1.311,0s1.235.277,1.3.173c.072-.088-.453-.548-1.272-.6s-1.4.328-1.34.426" transform="translate(-132.528 -140.376)" fill="#fff"/>
        <path id="Trazado_737642" data-name="Trazado 737642" d="M459.59,393.368l2.978,15.422,5.872,11.519a1.61,1.61,0,0,1-2.272,2.105c-2.83-1.739-13.208-8.186-13.362-9.327-.179-1.322-4.22-16.06-4.22-16.06Z" transform="translate(-153.016 -134.181)" fill="#263238"/>
        <path id="Trazado_737643" data-name="Trazado 737643" d="M469.705,432.194l-15.056-10.469.141.65a2.422,2.422,0,0,0,.894,1.413c1.223.934,4.657,3.439,12.505,8.309a1.608,1.608,0,0,0,1.516.1" transform="translate(-155.084 -143.854)" fill="#455a64"/>
        <path id="Trazado_737644" data-name="Trazado 737644" d="M469.949,427.4a3.474,3.474,0,0,1,2.781-2.207c.005-.04-.216-.118-.585-.09a2.565,2.565,0,0,0-2.151,1.707c-.111.354-.086.586-.045.59" transform="translate(-160.292 -145.003)" fill="#fff"/>
        <path id="Trazado_737645" data-name="Trazado 737645" d="M472.3,430.533c.088.051.472-.555,1.216-.955a13.1,13.1,0,0,1,1.457-.519,1.786,1.786,0,0,0-1.624.216c-.846.461-1.139,1.233-1.05,1.257" transform="translate(-161.098 -146.321)" fill="#fff"/>
        <path id="Trazado_737646" data-name="Trazado 737646" d="M466.006,423.884a8.267,8.267,0,0,1,3.94-2.625,4.4,4.4,0,0,0-3.94,2.625" transform="translate(-158.955 -143.683)" fill="#fff"/>
        <path id="Trazado_737647" data-name="Trazado 737647" d="M464.041,417.629c.061.083.832-.455,1.927-.734,1.092-.295,2.027-.2,2.04-.306a3.994,3.994,0,0,0-3.967,1.04" transform="translate(-158.287 -142.041)" fill="#fff"/>
        <path id="Trazado_737648" data-name="Trazado 737648" d="M462.718,413.388a5.112,5.112,0,0,1,4.132-.748c.017-.038-.192-.194-.59-.322a3.505,3.505,0,0,0-3.1.561c-.329.26-.47.479-.439.508" transform="translate(-157.835 -140.596)" fill="#fff"/>
        <path id="Trazado_737649" data-name="Trazado 737649" d="M438.039,183.495l3.785,23.346A109.847,109.847,0,0,1,447,220.383a137.293,137.293,0,0,1,2.719,16.472l2.682,29.507-27.724,4.363-2.582-80.858Z" transform="translate(-143.98 -62.592)" fill="#e0e0e0"/>
        <path id="Trazado_737650" data-name="Trazado 737650" d="M439.974,141.4l-7.462-2.481-2.369-2.961s-4.619,6.4-5.6,10.233c-3.627,14.094-1.807,45.865-1.807,45.865l17.185-7.008,4.309-26.665Z" transform="translate(-144.041 -46.378)" fill="#e0e0e0"/>
        <path id="Trazado_737651" data-name="Trazado 737651" d="M426.619,173.714a2,2,0,0,0,.036-.4c.015-.3.035-.674.059-1.143.053-.992.136-2.427.3-4.2s.4-3.868.774-6.184c.2-1.154.385-2.373.708-3.609s.644-2.517.98-3.828l1.06-4.172.127-.5.063-.248.015-.061a.221.221,0,0,0,.009-.1.2.2,0,0,0-.065-.116,1.331,1.331,0,0,0-.118-.09,9.572,9.572,0,0,0-.891-.507,9,9,0,0,0-1.822-.753l-.054.289c.139.025.273.052.42.072a2.672,2.672,0,0,0,.433.007c.27-.008.536-.009.8-.006l1.525.033.11,0,.024-.1a29.5,29.5,0,0,1,1.947-5.608q.432-.931.694-1.5a3.262,3.262,0,0,0,.231-.534,3.238,3.238,0,0,0-.3.5c-.184.333-.446.828-.76,1.47a27.26,27.26,0,0,0-2.068,5.614l.133-.1-1.532-.049c-.265-.005-.535-.007-.809,0a2.428,2.428,0,0,1-.389-.008c-.127-.018-.266-.047-.4-.072l-.054.289a9.012,9.012,0,0,1,1.734.737,9.579,9.579,0,0,1,.853.49c.036.023.057.043.084.063l.067-.069.012-.01.006,0c-.019,0,0,0-.116-.021l-.016.062-.064.249-.129.5c-.345,1.345-.7,2.746-1.071,4.183-.335,1.316-.661,2.6-.976,3.843s-.5,2.468-.693,3.627c-.358,2.328-.574,4.438-.708,6.213s-.181,3.215-.2,4.209c-.008.5,0,.884,0,1.146a1.737,1.737,0,0,0,.029.4" transform="translate(-145.511 -47.911)" fill="#263238"/>
        <path id="Trazado_737652" data-name="Trazado 737652" d="M447.512,143.9s4.237,1.188,5.784,2.645c2.146,2.022,18.548,17.335,21.463,21.907a7.487,7.487,0,0,1-.406,8.594l-17.419,16.827-6.456-6.59,10.454-14.533-13.42-10.7Z" transform="translate(-152.65 -49.085)" fill="#e0e0e0"/>
        <path id="Trazado_737653" data-name="Trazado 737653" d="M474.744,183.751a13.438,13.438,0,0,0-7.347,2.861,8.779,8.779,0,0,1,7.347-2.861" transform="translate(-159.432 -62.652)" fill="#263238"/>
        <path id="Trazado_737654" data-name="Trazado 737654" d="M449.382,162.643a3.112,3.112,0,0,1-.41-.625c-.243-.413-.586-1.017-.979-1.782a16.089,16.089,0,0,1-1.947-6.42,8.817,8.817,0,0,1,.568-3.684,7.076,7.076,0,0,1,1.711-2.521,5.629,5.629,0,0,1,1.724-1.112,3.638,3.638,0,0,1,.532-.168c.124-.028.19-.038.193-.027a7.377,7.377,0,0,0-2.281,1.482,7.118,7.118,0,0,0-1.585,2.461,8.789,8.789,0,0,0-.52,3.552,17.2,17.2,0,0,0,1.822,6.329l.879,1.826a3.162,3.162,0,0,1,.293.687" transform="translate(-152.146 -49.905)" fill="#263238"/>
        <path id="Trazado_737655" data-name="Trazado 737655" d="M436.054,236.557a.894.894,0,0,1,.032.161c.019.122.042.27.069.449q.088.629.24,1.7c.2,1.494.487,3.6.837,6.193q.127.977.267,2.043a9.817,9.817,0,0,0,.472,2.161,7.433,7.433,0,0,0,2.937,3.77,6.22,6.22,0,0,0,5.131.733,6.555,6.555,0,0,0,2.454-1.363,7.491,7.491,0,0,0,1.743-2.321,8.114,8.114,0,0,0,.8-3.934c-.1-1.324-.3-2.652-.433-3.924-.295-2.549-.572-4.95-.826-7.143l.161.128-10.027,1-2.833.266-.756.064a2,2,0,0,1-.271.013,1.207,1.207,0,0,1,.236-.041l.725-.095,2.792-.337,10.1-1.16.143-.016.018.144c.265,2.192.555,4.59.862,7.139.142,1.282.335,2.574.445,3.946a8.432,8.432,0,0,1-.834,4.1,7.809,7.809,0,0,1-1.826,2.427,6.887,6.887,0,0,1-2.584,1.428,6.533,6.533,0,0,1-5.4-.789,7.7,7.7,0,0,1-3.035-3.941,10.032,10.032,0,0,1-.467-2.23q-.128-1.084-.246-2.079c-.3-2.614-.539-4.74-.711-6.246q-.114-1.059-.18-1.679a4.7,4.7,0,0,1-.046-.569" transform="translate(-148.741 -80.129)" fill="#263238"/>
        <path id="Trazado_737656" data-name="Trazado 737656" d="M436.319,207.39l2.077-.5a7.591,7.591,0,0,0-2.711-.994c-1.119-.047-2.294,1.042-2.61-.92,0,0,3-1.382,4.763-.541s6.212,3.661,8.021,3.88l5.4,5.653s-2.084,2.454-4.021,2.166-6.026-3.223-6.026-3.223l-2.339-.169-3.74,1.38a.834.834,0,0,1-.045-1.211c.573-.673,3.089-1.393,3.089-1.393l1.885-.561-1.9-.366s-3.073,1.538-4.351.9a2.44,2.44,0,0,1-1.405-1.751Z" transform="translate(-147.499 -69.643)" fill="#ae7461"/>
        <path id="Trazado_737657" data-name="Trazado 737657" d="M441.36,210.931a3.185,3.185,0,0,1-1.249-.084,6.361,6.361,0,0,0-1.314-.129,5.855,5.855,0,0,0-1.558.389,24.53,24.53,0,0,0-2.695,1.278,6.126,6.126,0,0,1-1.123.543,5.29,5.29,0,0,1,1.027-.711,16.591,16.591,0,0,1,2.695-1.367,4.176,4.176,0,0,1,3.006-.193c.745.19,1.21.237,1.212.273" transform="translate(-147.843 -71.792)" fill="#6f4439"/>
      </g>
    </g>
    <g id="Grupo_1034367" data-name="Grupo 1034367">
      <g id="Grupo_1034366" data-name="Grupo 1034366" clip-path="url(#clip-path)">
        <path id="Trazado_737658" data-name="Trazado 737658" d="M177.117,77.5a2.971,2.971,0,0,0,1.737-5.65,3.09,3.09,0,0,0-2.248-5.417,3.7,3.7,0,0,0-5.3-3.487,4.158,4.158,0,0,0-5.093-.531,2.957,2.957,0,0,0-3.022,4.781" transform="translate(-55.427 -21.074)" fill="#12263f"/>
        <path id="Trazado_737659" data-name="Trazado 737659" d="M172.25,95.873c.318-3.252.426-10,.453-16.112A12.6,12.6,0,0,0,161.169,67.15l-.65-.055c-7.047-.187-11.143,5.693-11.135,12.742l-.99,24.7,15.451,14.193.919-15.653s6.83-.474,7.487-7.207" transform="translate(-50.618 -22.885)" fill="#ffc09d"/>
        <path id="Trazado_737660" data-name="Trazado 737660" d="M168.866,119.978a16.405,16.405,0,0,1-8.611-3.337s1.664,5.027,8.441,4.993Z" transform="translate(-54.664 -39.787)" fill="#ff9b6c"/>
        <path id="Trazado_737661" data-name="Trazado 737661" d="M179.459,94.575a.966.966,0,0,1-1.011.892.924.924,0,0,1-.918-.952.966.966,0,0,1,1.009-.893.924.924,0,0,1,.919.953" transform="translate(-60.557 -31.935)" fill="#263238"/>
        <path id="Trazado_737662" data-name="Trazado 737662" d="M180.7,90.531c-.13.115-.813-.486-1.849-.572s-1.839.368-1.94.232c-.051-.061.09-.277.441-.49a2.654,2.654,0,0,1,1.567-.341,2.543,2.543,0,0,1,1.459.612c.3.271.386.507.322.559" transform="translate(-60.341 -30.478)" fill="#263238"/>
        <path id="Trazado_737663" data-name="Trazado 737663" d="M164.93,93.948a.966.966,0,0,1-1.011.891.925.925,0,0,1-.919-.952.967.967,0,0,1,1.011-.892.925.925,0,0,1,.919.953" transform="translate(-55.6 -31.721)" fill="#263238"/>
        <path id="Trazado_737664" data-name="Trazado 737664" d="M165.375,89.668c-.121.125-.849-.422-1.888-.426-1.038-.02-1.8.509-1.917.381-.055-.057.068-.283.4-.523a2.648,2.648,0,0,1,1.535-.461,2.553,2.553,0,0,1,1.5.5c.317.248.424.476.365.532" transform="translate(-55.108 -30.235)" fill="#263238"/>
        <path id="Trazado_737665" data-name="Trazado 737665" d="M171.9,97.775a6.859,6.859,0,0,1,1.708-.16c.267,0,.522-.036.582-.213a1.353,1.353,0,0,0-.11-.8q-.292-.991-.611-2.08a34.738,34.738,0,0,1-1.308-5.417,34.871,34.871,0,0,1,1.741,5.3q.3,1.094.577,2.089a1.537,1.537,0,0,1,.049,1.05.666.666,0,0,1-.468.35,1.793,1.793,0,0,1-.455.024,6.789,6.789,0,0,1-1.705-.143" transform="translate(-58.636 -30.394)" fill="#263238"/>
        <path id="Trazado_737666" data-name="Trazado 737666" d="M165.393,84.1c-.139.262-1.034-.029-2.138-.071-1.1-.067-2.033.133-2.133-.141-.043-.131.154-.366.553-.575a3.328,3.328,0,0,1,1.657-.335,3.215,3.215,0,0,1,1.6.5c.365.246.526.5.464.625" transform="translate(-54.958 -28.304)" fill="#263238"/>
        <path id="Trazado_737667" data-name="Trazado 737667" d="M180.943,85.632c-.233.2-.972-.154-1.9-.3-.926-.18-1.745-.1-1.891-.371-.062-.13.1-.346.475-.515a2.857,2.857,0,0,1,1.606-.152,2.826,2.826,0,0,1,1.45.7c.293.289.366.546.262.646" transform="translate(-60.423 -28.735)" fill="#263238"/>
        <path id="Trazado_737668" data-name="Trazado 737668" d="M171.967,76.208s-1.418-4.372-3.37-5.53c-2.362-1.4-3.653,1.212-5.945.356s-4.547-2.2-7.1-.59c-2.8,1.763-1.683,3.262-2.1,6.238-1.69,12.068-4.2,15.308-4.339,9.543-.016-.631-1.71-1.277-1.742-3.941-.042-3.457.181-7.629,1.153-10a9.629,9.629,0,0,1,4.338-4.7c3.518-2.184,8.069-1.85,11.129-1.276s8.709,4.632,7.978,9.893" transform="translate(-50.267 -22.475)" fill="#12263f"/>
        <path id="Trazado_737669" data-name="Trazado 737669" d="M148.259,95.531a1.836,1.836,0,0,0-1.825-1.931c-1.267.013-2.727.608-2.865,3.211-.245,4.62,4.444,3.913,4.459,3.781.011-.09.146-3.127.231-5.062" transform="translate(-48.969 -31.928)" fill="#ffc09d"/>
        <path id="Trazado_737670" data-name="Trazado 737670" d="M147.934,99.577c-.02-.016-.084.052-.223.107a.808.808,0,0,1-.6-.02,1.993,1.993,0,0,1-.826-1.836,2.651,2.651,0,0,1,.286-1.141.93.93,0,0,1,.638-.585.41.41,0,0,1,.463.246c.055.132.021.223.045.232s.1-.072.075-.265a.514.514,0,0,0-.166-.3.608.608,0,0,0-.439-.141,1.133,1.133,0,0,0-.879.671,2.726,2.726,0,0,0-.347,1.273,2.092,2.092,0,0,0,1.068,2.058.864.864,0,0,0,.743-.083c.149-.107.179-.209.163-.218" transform="translate(-49.788 -32.704)" fill="#ff9b6c"/>
        <path id="Trazado_737671" data-name="Trazado 737671" d="M149.829,76.407a4.395,4.395,0,0,0,1.875,1.067,1.51,1.51,0,0,0,1.758-.915c.082-.316.035-.7.267-.925.277-.274.733-.142,1.116-.068a2.953,2.953,0,0,0,3.233-1.849,1.239,1.239,0,0,0,1.643.3,6.635,6.635,0,0,0,1.369-1.235,1.9,1.9,0,0,1,1.649-.657,4.549,4.549,0,0,0,.984.306c.609,0,.965-.686,1.108-1.279s.274-1.287.814-1.57a2.425,2.425,0,0,1,1.651.095c.55.13,1.28.06,1.469-.472a1.1,1.1,0,0,0-.135-.853,3,3,0,0,0-3.426-1.43,4.06,4.06,0,0,0-7.365-1.417,4.12,4.12,0,0,0-6.689.938,2.986,2.986,0,0,0-3.723,4.042,2.834,2.834,0,0,0-1.746,2.117,1.623,1.623,0,0,0,1.691,1.809,1.654,1.654,0,0,0,2.71,1.886" transform="translate(-49.69 -21.723)" fill="#12263f"/>
        <path id="Trazado_737672" data-name="Trazado 737672" d="M165.6,70.7a.248.248,0,0,1-.008.084c-.011.055-.022.138-.051.244a2.916,2.916,0,0,1-.41.859,3.307,3.307,0,0,1-1.115,1,3.078,3.078,0,0,1-1.933.378l.087-.1a1.673,1.673,0,0,1-.2,1.264,4.776,4.776,0,0,1-.885,1.066,3.447,3.447,0,0,1-.561.485,1.619,1.619,0,0,1-.753.209,1.686,1.686,0,0,1-1.438-.658l.176-.034a3.469,3.469,0,0,1-1.669,2.267,2.533,2.533,0,0,1-1.556.367,4.56,4.56,0,0,1-1.463-.454l.127-.044a3.638,3.638,0,0,1-1.211,1.33,1.941,1.941,0,0,1-1.643.3,2.547,2.547,0,0,1-1.786-2.152l.1.057a2.387,2.387,0,0,1-1.6.1,2.589,2.589,0,0,1-1.062-.586,2.215,2.215,0,0,1-.466-.607,1.1,1.1,0,0,1-.1-.248,2.8,2.8,0,0,0,.615.8,2.568,2.568,0,0,0,1.039.536,2.284,2.284,0,0,0,1.515-.118l.091-.042.01.1a2.4,2.4,0,0,0,1.693,2,1.761,1.761,0,0,0,1.492-.289,3.479,3.479,0,0,0,1.14-1.262l.043-.082.084.038a4.4,4.4,0,0,0,1.4.434,2.332,2.332,0,0,0,1.436-.343,3.281,3.281,0,0,0,1.578-2.135l.047-.215.129.181a1.5,1.5,0,0,0,1.27.58,1.439,1.439,0,0,0,.667-.18,3.328,3.328,0,0,0,.528-.454,4.666,4.666,0,0,0,.863-1.019,1.512,1.512,0,0,0,.2-1.143L162,73.093l.115.018a2.975,2.975,0,0,0,1.85-.333,3.3,3.3,0,0,0,1.1-.945A3.581,3.581,0,0,0,165.6,70.7" transform="translate(-49.865 -24.115)" fill="#455a64"/>
        <path id="Trazado_737673" data-name="Trazado 737673" d="M166.6,104.662a15.96,15.96,0,0,1,3.562,1.454l.008.034a3.138,3.138,0,0,1-1.324,2.17,1.84,1.84,0,0,1-1.851-.159,2.066,2.066,0,0,1-.9-1.564,4.314,4.314,0,0,1,.507-1.935" transform="translate(-56.653 -35.701)" fill="#ff9b6c"/>
        <path id="Trazado_737674" data-name="Trazado 737674" d="M167.9,108.441a2.006,2.006,0,0,1-1.144-.425,1.85,1.85,0,0,1-.635-1.117,3.008,3.008,0,0,1,.211-1.6,2.86,2.86,0,0,1,.17-.368c.033-.022-.023-.007.022-.007l.188.072.777.3,1.322.492a5.113,5.113,0,0,0,1.249.376,5.144,5.144,0,0,0-1.162-.592l-1.3-.558-.77-.32c-.073-.028-.121-.053-.219-.086a.341.341,0,0,0-.371.119,2.441,2.441,0,0,0-.218.45,3.152,3.152,0,0,0-.2,1.781,2.016,2.016,0,0,0,.79,1.244,1.581,1.581,0,0,0,.936.323c.237-.005.356-.065.352-.082" transform="translate(-56.544 -35.676)" fill="#263238"/>
        <path id="Trazado_737675" data-name="Trazado 737675" d="M155.669,235.128c0,.606-4.467,56.227-6.175,59.861s-35.453,45.2-35.453,45.2l-14.08-9.7,29.9-43.341.837-40.594,6.934-15.919Z" transform="translate(-34.098 -78.671)" fill="#12263f"/>
        <path id="Trazado_737676" data-name="Trazado 737676" d="M115.522,380.107l-11.915,13.406-6.367,13.321a1.838,1.838,0,0,1-2.561.808,1.762,1.762,0,0,1-.924-1.406c-.213-3.654-.335-20.335.281-21.015,1.023-1.129,10.528-12.549,10.528-12.549Z" transform="translate(-31.922 -127.121)" fill="#263238"/>
        <path id="Trazado_737677" data-name="Trazado 737677" d="M94.633,413.659l.14-23.343-.492.579a2.761,2.761,0,0,0-.66,1.792c0,1.758-.424,10.1.046,19.532a1.768,1.768,0,0,0,.966,1.44" transform="translate(-31.875 -133.14)" fill="#455a64"/>
        <g id="Grupo_1034350" data-name="Grupo 1034350" transform="translate(66.306 256.793)" opacity="0.6">
          <g id="Grupo_1034349" data-name="Grupo 1034349">
            <g id="Grupo_1034348" data-name="Grupo 1034348" clip-path="url(#clip-path-26)">
              <path id="Trazado_737678" data-name="Trazado 737678" d="M102.673,390.514a1.112,1.112,0,0,1-.708,1.3,1.069,1.069,0,0,1-1.3-.69,1.173,1.173,0,0,1,.756-1.377,1.109,1.109,0,0,1,1.272.868" transform="translate(-100.633 -389.735)" fill="#fff"/>
            </g>
          </g>
        </g>
        <path id="Trazado_737679" data-name="Trazado 737679" d="M98.2,412.382a3.964,3.964,0,0,1,3.932.989c.04-.024-.043-.277-.324-.594a2.929,2.929,0,0,0-3.041-.765c-.4.146-.591.329-.567.37" transform="translate(-33.496 -140.49)" fill="#fff"/>
        <path id="Trazado_737680" data-name="Trazado 737680" d="M97.319,416.6a15.076,15.076,0,0,1,1.709.44c.888.378,1.388,1.027,1.482.961.1-.037-.313-.886-1.322-1.322a2.039,2.039,0,0,0-1.869-.079" transform="translate(-33.196 -142.046)" fill="#fff"/>
        <path id="Trazado_737681" data-name="Trazado 737681" d="M98.471,406.662a18.334,18.334,0,0,1,2.686.5,18.339,18.339,0,0,1,2.429,1.249,5.023,5.023,0,0,0-5.115-1.749" transform="translate(-33.589 -138.656)" fill="#fff"/>
        <path id="Trazado_737682" data-name="Trazado 737682" d="M103.451,400.1c-.033.113.99.438,2,1.237s1.592,1.7,1.693,1.636a4.565,4.565,0,0,0-3.7-2.873" transform="translate(-35.288 -136.467)" fill="#fff"/>
        <path id="Trazado_737683" data-name="Trazado 737683" d="M106.892,395.695a8.961,8.961,0,0,1,2.12,1.232,9.02,9.02,0,0,1,1.427,1.994c.047-.01.043-.308-.118-.758a4,4,0,0,0-2.663-2.423c-.463-.117-.76-.093-.766-.045" transform="translate(-36.462 -134.961)" fill="#fff"/>
        <path id="Trazado_737684" data-name="Trazado 737684" d="M118.343,220.193c-.353.845-5,14.1-5.35,19.732s10.048,105.548,10.048,105.548l17.175-1.372.824-96.021,2.124-21.249Z" transform="translate(-38.54 -75.11)" fill="#12263f"/>
        <path id="Trazado_737685" data-name="Trazado 737685" d="M144.9,395.217l-.356,13.03s13.126,4.738,13.294,7.152l-25.29.218-.279-20.326Z" transform="translate(-45.12 -134.812)" fill="#263238"/>
        <path id="Trazado_737686" data-name="Trazado 737686" d="M138.643,413.41a1.033,1.033,0,0,0-.7,1.185.993.993,0,0,0,1.168.708,1.09,1.09,0,0,0,.739-1.258,1.03,1.03,0,0,0-1.3-.6" transform="translate(-47.044 -141.002)" fill="#e0e0e0"/>
        <path id="Trazado_737687" data-name="Trazado 737687" d="M132.7,425.118l.052-2.05,24.228.557s1.131.48,1.01,1.274Z" transform="translate(-45.264 -144.312)" fill="#455a64"/>
        <path id="Trazado_737688" data-name="Trazado 737688" d="M150.336,414.736c0,.123-.62.185-1.224.587-.615.387-.924.924-1.037.876-.115-.023.063-.763.8-1.237s1.483-.339,1.457-.226" transform="translate(-50.499 -141.432)" fill="#fff"/>
        <path id="Trazado_737689" data-name="Trazado 737689" d="M154.7,416.4c.029.119-.5.334-.918.86-.43.514-.532,1.079-.655,1.075-.115.02-.207-.7.321-1.346s1.249-.707,1.253-.589" transform="translate(-52.204 -142.02)" fill="#fff"/>
        <path id="Trazado_737690" data-name="Trazado 737690" d="M157.813,420.115c-.112.027-.289-.588.022-1.267s.886-.953.94-.851c.07.1-.3.467-.548,1.028s-.291,1.077-.414,1.09" transform="translate(-53.779 -142.575)" fill="#fff"/>
        <path id="Trazado_737691" data-name="Trazado 737691" d="M149.785,410.047c-.051.113-.619-.053-1.316,0-.7.039-1.24.278-1.305.173-.072-.089.454-.551,1.277-.6s1.4.331,1.345.428" transform="translate(-50.196 -139.722)" fill="#fff"/>
        <path id="Trazado_737692" data-name="Trazado 737692" d="M118.82,295.809a.69.69,0,0,0,0,.078l0,.043c.038.012.014.032.024.051.005.04.011.084.017.133.024.213.059.511.1.9.087.8.213,1.974.376,3.488.316,3.056.775,7.492,1.351,13.063,1.114,11.171,2.682,26.885,4.5,45.108l-.176-.148,17.167-1.3-.157.17c0-2.879,0-5.933,0-9.025.02-24.7.038-47.049.051-63.242.023-8.083.042-14.629.054-19.165.014-2.255.025-4.007.032-5.211.007-.588.013-1.038.017-1.355s.018-.462.018-.462.012.157.017.462.01.767.017,1.355c.007,1.2.018,2.956.032,5.211.013,4.536.032,11.081.055,19.165.013,16.192.03,38.547.05,63.242,0,3.092,0,6.146,0,9.025v.158l-.158.012-17.167,1.291-.16.012-.016-.16c-1.768-18.227-3.294-33.945-4.378-45.119-.536-5.575-.963-10.013-1.257-13.072-.14-1.516-.248-2.688-.322-3.493-.033-.389-.058-.689-.076-.9,0-.049-.007-.094-.01-.134.007-.02-.02-.034.014-.054l-.007-.043a.616.616,0,0,0-.014-.076" transform="translate(-40.53 -88.323)" fill="#455a64"/>
        <path id="Trazado_737693" data-name="Trazado 737693" d="M181.848,161.53l-2.688-24.843a12.272,12.272,0,0,0-6.54-6.763L162.406,125.5l-2.163-3.484-3.25,3.9-1.919,5.189-1.437-5.3-10.508-6.843-2.076,4.426-3.565,9.322-.38,30.816-3.687,30.72s9,2.683,14.809,2.979a80.2,80.2,0,0,0,12.391-.9h0l.022,0c1.4-.186,2.615-.364,3.487-.5l2.489-.355,2.723-2.686,1.667-17.961.66-3.189a8.915,8.915,0,0,0,11.585,3.481Z" transform="translate(-45.511 -40.579)" fill="#15d3ec"/>
        <path id="Trazado_737694" data-name="Trazado 737694" d="M157.3,128.4a7.291,7.291,0,0,1-.959,1.116c-.631.677-1.535,1.62-2.6,2.713l-.1.1-.121-.073c-.73-.447-1.52-.954-2.328-1.508a51.743,51.743,0,0,1-4.5-3.446,11.892,11.892,0,0,1-1.7-1.62,18.95,18.95,0,0,1,1.865,1.417c1.135.892,2.723,2.1,4.54,3.343.8.55,1.583,1.061,2.3,1.518l-.216.025c1.087-1.074,2.025-1.984,2.7-2.618a7.271,7.271,0,0,1,1.111-.965" transform="translate(-49.461 -42.87)" fill="#263238"/>
        <path id="Trazado_737695" data-name="Trazado 737695" d="M175,129.151a12.722,12.722,0,0,1-2.631,3.887l-.341.363-.159.169-.129-.194a25.217,25.217,0,0,1-2.18-3.577,25.406,25.406,0,0,1,2.488,3.37l-.287-.024.333-.359c1.739-1.886,2.81-3.692,2.906-3.634" transform="translate(-57.838 -44.054)" fill="#263238"/>
        <path id="Trazado_737696" data-name="Trazado 737696" d="M159.79,204.565a.9.9,0,0,1,0-.165c.009-.122.02-.281.034-.484.036-.439.088-1.062.155-1.858.14-1.627.34-3.958.587-6.831.49-5.769,1.127-13.741,1.726-22.554s1.044-16.8,1.338-22.584c.143-2.88.26-5.216.341-6.847.042-.8.075-1.422.1-1.862l.032-.484a.8.8,0,0,1,.019-.165.851.851,0,0,1,.005.165c0,.122,0,.282-.007.485-.013.441-.03,1.066-.053,1.864-.049,1.618-.139,3.959-.265,6.852-.25,5.785-.669,13.774-1.266,22.592s-1.263,16.787-1.8,22.553c-.266,2.883-.494,5.215-.664,6.825-.085.793-.152,1.415-.2,1.853-.024.2-.043.361-.058.482a.813.813,0,0,1-.028.163" transform="translate(-54.505 -48.004)" fill="#263238"/>
        <path id="Trazado_737697" data-name="Trazado 737697" d="M173.634,126.185l2.223,1.851s12.7,4.888,14.417,8.81a15.81,15.81,0,0,1,1.279,4.467l5.425,24.15,15.8.93-.6,12.957-19.863,2.522c-5.728-1.3-7.21-5.044-8.476-7.532l-.66,3.188-1.145,72.54-13.59-.664,3.9-73.489c1.935-17.882,2.13-45.4,1.3-49.729" transform="translate(-57.456 -43.043)" fill="#e0e0e0"/>
        <path id="Trazado_737698" data-name="Trazado 737698" d="M195.419,151.527a1.83,1.83,0,0,1-.013.344c-.022.248-.05.575-.085.983-.09.878-.214,2.1-.366,3.608-.326,3.045-.815,7.248-1.416,11.882s-1.2,8.824-1.666,11.852c-.236,1.492-.428,2.709-.567,3.582q-.1.6-.169.972a1.9,1.9,0,0,1-.075.336,1.885,1.885,0,0,1,.027-.343c.031-.247.072-.573.124-.978.119-.875.287-2.1.491-3.592.419-3.034.993-7.224,1.6-11.858s1.116-8.83,1.485-11.87c.184-1.5.335-2.723.443-3.6.054-.406.1-.731.13-.977a1.862,1.862,0,0,1,.062-.339" transform="translate(-65.172 -51.687)" fill="#263238"/>
        <path id="Trazado_737699" data-name="Trazado 737699" d="M178.911,129.442c-.03.011.092.39.236,1.1s.311,1.755.455,3.065.276,2.883.408,4.651c.072.886.147,1.817.225,2.786a.946.946,0,0,1-.567,1.029,4.139,4.139,0,0,1-1.43.3l-.795.061.754.316a2.039,2.039,0,0,1,.8.782,5.241,5.241,0,0,1,.461,1.171,11.277,11.277,0,0,1,.2,3.412,28.652,28.652,0,0,1-.431,3.2c-.219,1.009-.408,1.972-.663,2.857-.229.89-.455,1.717-.7,2.462-.443,1.5-.864,2.7-1.144,3.529l-.31.962a1.256,1.256,0,0,0-.084.345,1.2,1.2,0,0,0,.157-.317l.379-.938c.324-.816.786-2,1.264-3.5.261-.741.5-1.568.747-2.461.271-.885.474-1.854.7-2.871a27.9,27.9,0,0,0,.46-3.243,11.473,11.473,0,0,0-.207-3.535,3.148,3.148,0,0,0-1.527-2.226l-.04.377a4.435,4.435,0,0,0,1.569-.339,1.352,1.352,0,0,0,.628-.58,1.449,1.449,0,0,0,.14-.819c-.088-.968-.172-1.9-.253-2.784-.154-1.767-.314-3.344-.494-4.655a26.856,26.856,0,0,0-.573-3.065,8.362,8.362,0,0,0-.251-.8.914.914,0,0,0-.12-.268" transform="translate(-60.146 -44.154)" fill="#263238"/>
        <path id="Trazado_737700" data-name="Trazado 737700" d="M105.291,144.581S93.4,174.124,92.983,184.764s-.793,29.327-.793,29.327l12.168.98,2.338-28.865,7.173-21.537Z" transform="translate(-31.447 -49.318)" fill="#e0e0e0"/>
        <path id="Trazado_737701" data-name="Trazado 737701" d="M112.85,173.176l.7-14.935-7.386-21.355a11.946,11.946,0,0,1,7.448-7.254l11.687-4.223,3.644-3.387,1.668,12.468c.5,3.761.412,9.684.027,19.416l-1.7,13.171c-.22,3.184-2.331,21.235-3.211,24.3l-11.249,52.465s-19.593.2-19.73-2.468,18.106-68.2,18.106-68.2" transform="translate(-32.318 -41.623)" fill="#e0e0e0"/>
        <path id="Trazado_737702" data-name="Trazado 737702" d="M142.223,127.2a1.011,1.011,0,0,0-.08.281c-.047.186-.092.465-.145.828a30.135,30.135,0,0,0-.213,3.107c-.035,1.321-.026,2.9.006,4.672.013.887.027,1.819.041,2.789a1.555,1.555,0,0,0,.2.792,1.165,1.165,0,0,0,.608.49,3.492,3.492,0,0,0,1.417.123l-.121-.329a5.994,5.994,0,0,0-.984,2.634,20.528,20.528,0,0,0,.279,6.808,44.048,44.048,0,0,0,1.355,5.307l.662,1.979.565,1.463.37.917a1.246,1.246,0,0,0,.15.308,1.34,1.34,0,0,0-.086-.341l-.309-.946q-.219-.639-.509-1.484c-.183-.6-.387-1.262-.611-1.992a48.586,48.586,0,0,1-1.274-5.291,20.7,20.7,0,0,1-.252-6.665,5.78,5.78,0,0,1,.876-2.42l.267-.356-.389.026a3.235,3.235,0,0,1-1.289-.1.91.91,0,0,1-.6-.942c-.023-.97-.045-1.9-.066-2.788-.052-1.767-.086-3.341-.082-4.656s.051-2.369.109-3.092.131-1.115.1-1.121" transform="translate(-48.356 -43.388)" fill="#263238"/>
        <path id="Trazado_737703" data-name="Trazado 737703" d="M93.393,235.608a4.691,4.691,0,0,0,.822.108l2.319.2,8.193.6.171.013.015-.173c.218-2.628.466-5.611.729-8.765.425-5.527.81-10.528,1.094-14.217.119-1.779.216-3.238.287-4.312.024-.473.043-.861.059-1.173a1.653,1.653,0,0,0-.006-.412,1.606,1.606,0,0,0-.072.405c-.035.311-.078.7-.131,1.168-.1,1.071-.241,2.527-.41,4.3-.314,3.686-.739,8.684-1.208,14.208-.248,3.155-.483,6.139-.69,8.768l.186-.161-8.2-.457-2.325-.1a4.688,4.688,0,0,0-.83,0" transform="translate(-31.857 -70.77)" fill="#263238"/>
        <path id="Trazado_737704" data-name="Trazado 737704" d="M109.073,290.384l-36.313-4.359a1.9,1.9,0,0,1-1.655-2.106l2.982-24.842a1.894,1.894,0,0,1,2.106-1.655l36.314,4.359a1.894,1.894,0,0,1,1.654,2.107l-2.981,24.842a1.894,1.894,0,0,1-2.106,1.655" transform="translate(-24.249 -87.804)" fill="#727997"/>
        <path id="Trazado_737705" data-name="Trazado 737705" d="M107.15,257.825a.773.773,0,0,0-1.068.658c-.131.793-.094,6.269-.094,6.269s.966,6.2.43,6.818a1.1,1.1,0,0,1-1.722-.127c-.192-.341-1.488-5.582-1.488-5.582l-.161-2.784s-.057,8.753-.686,9.363a.95.95,0,0,1-1.525-.111c-.336-.389-.272-4.253-.272-4.253l-.275-5.2-.868,8.287s-.213.912-.938.855c-1-.079-1.082-1.174-1.082-1.174l.022-8.689s-.332,5.6-.74,5.85c-.546.329-.988.146-1.1-.3a55.185,55.185,0,0,1-.118-5.969l1.336-9.692-.143-1.478,3.535.36,5.274.3c.2,1.09,3.03,2.777,3.646,3.76a11.771,11.771,0,0,1,1.019,3.181Z" transform="translate(-32.554 -85.47)" fill="#ffc09d"/>
        <rect id="Rectángulo_350831" data-name="Rectángulo 350831" width="12.836" height="4.356" transform="translate(85.673 193.116) rotate(-83.154)" fill="#455a64"/>
        <path id="Trazado_737706" data-name="Trazado 737706" d="M136.046,282.334l3.625-.644-.487,4.239-3.3-1.189Z" transform="translate(-46.352 -96.086)" fill="#455a64"/>
        <path id="Trazado_737707" data-name="Trazado 737707" d="M132.235,286.688a14.177,14.177,0,0,0-2.267-.4l.114.146c.229-1.575.532-3.89.841-6.468.3-2.462.54-4.689.694-6.276l-.151.119a16.345,16.345,0,0,0,2.506.164,16.175,16.175,0,0,0-2.473-.434l-.132-.018-.02.138c-.226,1.579-.515,3.8-.81,6.262-.31,2.578-.563,4.9-.714,6.483l-.013.132.127.013a14.2,14.2,0,0,0,2.3.144" transform="translate(-44.279 -93.298)" fill="#263238"/>
        <path id="Trazado_737708" data-name="Trazado 737708" d="M114.157,183.409a2.941,2.941,0,0,1,.133-.5q.167-.533.445-1.419l1.7-5.2,2.558-7.695c.96-2.9,2.06-6.063,3.112-9.431a58.35,58.35,0,0,0,2.682-9.52,17.574,17.574,0,0,0-.384-7.963,6.627,6.627,0,0,0-1.527-2.63,7.178,7.178,0,0,0-1.84-1.405,10.235,10.235,0,0,0-1.855-.72,5.453,5.453,0,0,1,1.916.6,7.08,7.08,0,0,1,1.917,1.391,6.756,6.756,0,0,1,1.618,2.684,17.559,17.559,0,0,1,.468,8.089,56.719,56.719,0,0,1-2.67,9.582c-1.048,3.356-2.161,6.529-3.136,9.42l-2.628,7.673-1.8,5.164-.506,1.4a2.938,2.938,0,0,1-.2.48" transform="translate(-38.939 -46.707)" fill="#263238"/>
        <path id="Trazado_737709" data-name="Trazado 737709" d="M200.283,303.65v49.128a31.171,31.171,0,1,0,62.341,0V303.65Z" transform="translate(-68.318 -103.577)" fill="#e0e0e0"/>
        <path id="Trazado_737710" data-name="Trazado 737710" d="M263.211,268.513V219.384c0-17.3-14.5-31.318-32.388-31.318s-32.388,14.022-32.388,31.318v49.128Z" transform="translate(-67.688 -64.151)" fill="#ff9d00"/>
        <g id="Grupo_1034353" data-name="Grupo 1034353" transform="translate(131.965 204.362)" opacity="0.3">
          <g id="Grupo_1034352" data-name="Grupo 1034352">
            <g id="Grupo_1034351" data-name="Grupo 1034351" clip-path="url(#clip-path-27)">
              <rect id="Rectángulo_350832" data-name="Rectángulo 350832" width="62.341" height="3.039"/>
            </g>
          </g>
        </g>
        <path id="Trazado_737711" data-name="Trazado 737711" d="M263.194,310.071c0,.095-14.509.171-32.4.171s-32.406-.076-32.406-.171,14.506-.171,32.406-.171,32.4.076,32.4.171" transform="translate(-67.671 -105.709)" fill="#263238"/>
        <g id="Grupo_1034356" data-name="Grupo 1034356" transform="translate(135.961 130.046)" opacity="0.3">
          <g id="Grupo_1034355" data-name="Grupo 1034355">
            <g id="Grupo_1034354" data-name="Grupo 1034354" clip-path="url(#clip-path-28)">
              <path id="Trazado_737712" data-name="Trazado 737712" d="M208.974,230.146c-.471.05-.958-.453-1.438-1.459a8.275,8.275,0,0,1-.648-1.875q-.133-.558-.256-1.2a9.261,9.261,0,0,1-.179-1.363,20.045,20.045,0,0,1-.067-3.163c.038-.569.045-1.166.133-1.769s.186-1.225.3-1.863a27.326,27.326,0,0,1,7.988-14.6q.719-.653,1.412-1.253c.459-.4.961-.727,1.42-1.065a19.886,19.886,0,0,1,2.7-1.645,15.338,15.338,0,0,1,2.4-1.013,8.232,8.232,0,0,1,1.93-.46c1.106-.134,1.792.007,2,.432s-.069,1.09-.707,1.9c-.322.4-.735.842-1.187,1.374s-1.022,1.027-1.566,1.674c-.561.624-1.2,1.253-1.811,2-.308.369-.66.712-.969,1.116s-.637.806-.973,1.214a40.657,40.657,0,0,0-6.531,11.936q-.244.755-.5,1.473c-.17.479-.273.96-.418,1.419-.3.917-.487,1.8-.714,2.6-.12.4-.224.793-.3,1.164s-.178.725-.271,1.058c-.207.666-.353,1.251-.523,1.739-.345.976-.758,1.568-1.228,1.618" transform="translate(-206.348 -197.37)" fill="#fff"/>
            </g>
          </g>
        </g>
        <g id="Grupo_1034359" data-name="Grupo 1034359" transform="translate(135.398 168.329)" opacity="0.3">
          <g id="Grupo_1034358" data-name="Grupo 1034358">
            <g id="Grupo_1034357" data-name="Grupo 1034357" clip-path="url(#clip-path-29)">
              <path id="Trazado_737713" data-name="Trazado 737713" d="M210.467,257.374a2.341,2.341,0,0,0-2.317-1.887,2.4,2.4,0,0,0-1.543.4,3.092,3.092,0,0,0-1.106,2.2,2.712,2.712,0,0,0,1.267,2.611,2.547,2.547,0,0,0,2.846-.186,3.11,3.11,0,0,0,.853-3.135" transform="translate(-205.494 -255.473)" fill="#fff"/>
            </g>
          </g>
        </g>
        <g id="Grupo_1034362" data-name="Grupo 1034362" transform="translate(167.937 237.698)" opacity="0.3">
          <g id="Grupo_1034361" data-name="Grupo 1034361">
            <g id="Grupo_1034360" data-name="Grupo 1034360" clip-path="url(#clip-path-30)">
              <path id="Trazado_737714" data-name="Trazado 737714" d="M272.645,360.758c.471-.05.958.453,1.438,1.459a8.277,8.277,0,0,1,.648,1.875q.133.558.256,1.2a9.256,9.256,0,0,1,.179,1.363,20.04,20.04,0,0,1,.067,3.163c-.038.569-.045,1.166-.133,1.769s-.186,1.225-.3,1.863a27.326,27.326,0,0,1-7.988,14.6q-.719.653-1.412,1.252c-.459.4-.961.727-1.42,1.066a19.884,19.884,0,0,1-2.7,1.645,15.341,15.341,0,0,1-2.4,1.013,8.23,8.23,0,0,1-1.93.46c-1.106.134-1.792-.007-2-.432s.069-1.09.707-1.9c.322-.4.736-.842,1.187-1.374s1.022-1.027,1.566-1.674c.561-.624,1.2-1.253,1.811-2,.308-.369.66-.712.969-1.116s.637-.806.973-1.214a40.657,40.657,0,0,0,6.531-11.936q.245-.755.5-1.473c.17-.479.273-.96.418-1.419.3-.916.487-1.8.714-2.6.12-.4.224-.793.3-1.164s.177-.725.271-1.058c.207-.666.353-1.251.522-1.739.345-.976.758-1.568,1.228-1.618" transform="translate(-254.878 -360.755)" fill="#fff"/>
            </g>
          </g>
        </g>
        <g id="Grupo_1034365" data-name="Grupo 1034365" transform="translate(183.802 226.625)" opacity="0.3">
          <g id="Grupo_1034364" data-name="Grupo 1034364">
            <g id="Grupo_1034363" data-name="Grupo 1034363" clip-path="url(#clip-path-29)">
              <path id="Trazado_737715" data-name="Trazado 737715" d="M279.073,347.616a2.339,2.339,0,0,0,2.316,1.887,2.4,2.4,0,0,0,1.543-.4,3.09,3.09,0,0,0,1.107-2.2,2.715,2.715,0,0,0-1.267-2.611,2.548,2.548,0,0,0-2.847.186,3.108,3.108,0,0,0-.852,3.135" transform="translate(-278.956 -343.949)" fill="#fff"/>
            </g>
          </g>
        </g>
        <path id="Trazado_737716" data-name="Trazado 737716" d="M236.206,179.958a1.824,1.824,0,0,0-1.975.628,11.821,11.821,0,0,0-1.659,4.668s-1.827.123-1.967.849.221,1.49,1.948,1.649c0,0,.918,2.3,2.114,1.643s.94-1.589.94-1.589.843,1.8,2.657-.209a1.926,1.926,0,0,0,1.442.509,1.787,1.787,0,0,0,1.157-.612s.918.64,1.561.006a27.251,27.251,0,0,0,3.231-4.227,2.416,2.416,0,0,0-.49-2.757,2.957,2.957,0,0,0-2.12-.255,2.163,2.163,0,0,0-2.74-.552,2.587,2.587,0,0,0-4.1.249" transform="translate(-78.652 -60.988)" fill="#ffc09d"/>
        <path id="Trazado_737717" data-name="Trazado 737717" d="M248.455,185.027a10.078,10.078,0,0,1-1.058,2.314c-.324.619-.605,1.182-.79,1.6s-.275.682-.322.673-.027-.3.11-.751a10.167,10.167,0,0,1,.718-1.665,10.451,10.451,0,0,1,1.342-2.167" transform="translate(-84.003 -63.114)" fill="#ff9b6c"/>
        <path id="Trazado_737718" data-name="Trazado 737718" d="M244.656,183.719a13.959,13.959,0,0,1-1.009,2.864,10.942,10.942,0,0,1-1.408,2.694,21.729,21.729,0,0,1,1.114-2.818,15.161,15.161,0,0,1,1.3-2.74" transform="translate(-82.627 -62.668)" fill="#ff9b6c"/>
        <path id="Trazado_737719" data-name="Trazado 737719" d="M239.9,183.246c.082.044-.562,1.349-1.138,3.039a15.643,15.643,0,0,0-.625,2.18,4.325,4.325,0,0,0,.022.923c-.028.028-.28-.316-.246-.943a9.7,9.7,0,0,1,.548-2.265,9.464,9.464,0,0,1,1.44-2.935" transform="translate(-81.154 -62.506)" fill="#ff9b6c"/>
        <path id="Trazado_737720" data-name="Trazado 737720" d="M234.523,183.259c.1.039-.475,1.38-.827,3.109a14.517,14.517,0,0,0-.254,2.238,4.016,4.016,0,0,0,.147.906c-.024.032-.323-.273-.372-.894a9.233,9.233,0,0,1,.166-2.311,8.365,8.365,0,0,1,1.14-3.047" transform="translate(-79.547 -62.511)" fill="#ff9b6c"/>
      </g>
    </g>
  </g>
</svg>
