<svg xmlns="http://www.w3.org/2000/svg" width="252" height="454.351" viewBox="0 0 252 454.351">
  <g id="Grupo_172401" data-name="Grupo 172401" transform="translate(-1800 385)">
    <rect id="Rectángulo_49757" data-name="Rectángulo 49757" width="252" height="20" transform="translate(1800 -385)" fill="#15d3ec"/>
    <rect id="Rectángulo_49758" data-name="Rectángulo 49758" width="252" height="20" transform="translate(1800 -365)" fill="#81d4fa"/>
    <rect id="Rectángulo_49761" data-name="Rectángulo 49761" width="252" height="87" transform="translate(1800 -345)" fill="#fff"/>
    <rect id="Rectángulo_49762" data-name="Rectángulo 49762" width="252" height="94" transform="translate(1800 -238)" fill="#fff"/>
    <rect id="Rectángulo_49763" data-name="Rectángulo 49763" width="252" height="88" transform="translate(1800 -129)" fill="#fff"/>
    <rect id="Rectángulo_49765" data-name="Rectángulo 49765" width="252" height="88" transform="translate(1800 -21)" fill="#fff"/>
    <rect id="Rectángulo_49759" data-name="Rectángulo 49759" width="252" height="20" transform="translate(1800 -258)" fill="#81d4fa"/>
    <rect id="Rectángulo_49760" data-name="Rectángulo 49760" width="252" height="20" transform="translate(1800 -149)" fill="#81d4fa"/>
    <rect id="Rectángulo_49764" data-name="Rectángulo 49764" width="252" height="20" transform="translate(1800 -41)" fill="#81d4fa"/>
    <g id="Grupo_172398" data-name="Grupo 172398" transform="translate(1627.134 -475.43)">
      <line id="Línea_539" data-name="Línea 539" y2="32.201" transform="translate(227.874 167.364)" fill="none" stroke="#040405" stroke-linejoin="round" stroke-width="1"/>
      <line id="Línea_540" data-name="Línea 540" y2="32.201" transform="translate(227.874 275.368)" fill="none" stroke="#040405" stroke-linejoin="round" stroke-width="1"/>
      <line id="Línea_541" data-name="Línea 541" y2="32.201" transform="translate(227.874 383.372)" fill="none" stroke="#040405" stroke-linejoin="round" stroke-width="1"/>
      <line id="Línea_542" data-name="Línea 542" y2="32.201" transform="translate(227.874 491.376)" fill="none" stroke="#040405" stroke-linejoin="round" stroke-width="1"/>
      <line id="Línea_543" data-name="Línea 543" y2="32.201" transform="translate(252.756 167.364)" fill="none" stroke="#040405" stroke-linejoin="round" stroke-width="1"/>
      <line id="Línea_544" data-name="Línea 544" y2="32.201" transform="translate(252.756 275.368)" fill="none" stroke="#040405" stroke-linejoin="round" stroke-width="1"/>
      <line id="Línea_545" data-name="Línea 545" y2="32.201" transform="translate(252.756 383.372)" fill="none" stroke="#040405" stroke-linejoin="round" stroke-width="1"/>
      <line id="Línea_546" data-name="Línea 546" y2="32.201" transform="translate(252.756 491.376)" fill="none" stroke="#040405" stroke-linejoin="round" stroke-width="1"/>
      <line id="Línea_547" data-name="Línea 547" y2="32.201" transform="translate(292.441 167.364)" fill="none" stroke="#040405" stroke-linejoin="round" stroke-width="1"/>
      <line id="Línea_548" data-name="Línea 548" y2="32.201" transform="translate(292.441 275.368)" fill="none" stroke="#040405" stroke-linejoin="round" stroke-width="1"/>
      <line id="Línea_549" data-name="Línea 549" y2="32.201" transform="translate(292.441 383.372)" fill="none" stroke="#040405" stroke-linejoin="round" stroke-width="1"/>
      <line id="Línea_550" data-name="Línea 550" y2="32.201" transform="translate(292.441 491.376)" fill="none" stroke="#040405" stroke-linejoin="round" stroke-width="1"/>
      <line id="Línea_551" data-name="Línea 551" y2="433.016" transform="translate(308.843 109.762)" fill="none" stroke="#040405" stroke-linejoin="round" stroke-width="1"/>
      <line id="Línea_552" data-name="Línea 552" y2="413.815" transform="translate(325.245 109.762)" fill="none" stroke="#040405" stroke-linejoin="round" stroke-width="1"/>
      <line id="Línea_553" data-name="Línea 553" y2="413.815" transform="translate(341.646 109.762)" fill="none" stroke="#040405" stroke-linejoin="round" stroke-width="1"/>
      <line id="Línea_554" data-name="Línea 554" y2="413.815" transform="translate(358.048 109.762)" fill="none" stroke="#040405" stroke-linejoin="round" stroke-width="1"/>
      <line id="Línea_555" data-name="Línea 555" y2="413.815" transform="translate(374.449 109.762)" fill="none" stroke="#040405" stroke-linejoin="round" stroke-width="1"/>
      <line id="Línea_556" data-name="Línea 556" y2="413.815" transform="translate(390.851 109.762)" fill="none" stroke="#040405" stroke-linejoin="round" stroke-width="1"/>
      <line id="Línea_557" data-name="Línea 557" y2="413.815" transform="translate(407.252 109.762)" fill="none" stroke="#040405" stroke-linejoin="round" stroke-width="1"/>
      <line id="Línea_558" data-name="Línea 558" x2="251.268" transform="translate(172.886 110.262)" fill="none" stroke="#040405" stroke-linejoin="round" stroke-width="1"/>
      <line id="Línea_559" data-name="Línea 559" x2="251.268" transform="translate(172.886 129.463)" fill="none" stroke="#040405" stroke-linejoin="round" stroke-width="1"/>
      <line id="Línea_560" data-name="Línea 560" x2="251.268" transform="translate(172.886 148.663)" fill="none" stroke="#040405" stroke-linejoin="round" stroke-width="1"/>
      <line id="Línea_561" data-name="Línea 561" x2="251.268" transform="translate(172.886 167.864)" fill="none" stroke="#040405" stroke-linejoin="round" stroke-width="1"/>
      <line id="Línea_562" data-name="Línea 562" x2="251.268" transform="translate(172.886 199.065)" fill="none" stroke="#040405" stroke-linejoin="round" stroke-width="1"/>
      <line id="Línea_563" data-name="Línea 563" x2="251.268" transform="translate(172.886 218.266)" fill="none" stroke="#040405" stroke-linejoin="round" stroke-width="1"/>
      <line id="Línea_564" data-name="Línea 564" x2="251.268" transform="translate(172.886 237.467)" fill="none" stroke="#040405" stroke-linejoin="round" stroke-width="1"/>
      <line id="Línea_565" data-name="Línea 565" x2="251.268" transform="translate(172.886 256.667)" fill="none" stroke="#040405" stroke-linejoin="round" stroke-width="1"/>
      <line id="Línea_566" data-name="Línea 566" x2="251.268" transform="translate(172.886 275.868)" fill="none" stroke="#040405" stroke-linejoin="round" stroke-width="1"/>
      <line id="Línea_567" data-name="Línea 567" x2="251.268" transform="translate(172.886 307.069)" fill="none" stroke="#040405" stroke-linejoin="round" stroke-width="1"/>
      <line id="Línea_568" data-name="Línea 568" x2="251.268" transform="translate(172.886 326.27)" fill="none" stroke="#040405" stroke-linejoin="round" stroke-width="1"/>
      <line id="Línea_569" data-name="Línea 569" x2="251.268" transform="translate(172.886 345.47)" fill="none" stroke="#040405" stroke-linejoin="round" stroke-width="1"/>
      <line id="Línea_570" data-name="Línea 570" x2="251.268" transform="translate(172.886 364.671)" fill="none" stroke="#040405" stroke-linejoin="round" stroke-width="1"/>
      <line id="Línea_571" data-name="Línea 571" x2="251.268" transform="translate(172.886 383.872)" fill="none" stroke="#040405" stroke-linejoin="round" stroke-width="1"/>
      <line id="Línea_572" data-name="Línea 572" x2="251.268" transform="translate(172.886 415.073)" fill="none" stroke="#040405" stroke-linejoin="round" stroke-width="1"/>
      <line id="Línea_573" data-name="Línea 573" x2="251.268" transform="translate(172.886 434.274)" fill="none" stroke="#040405" stroke-linejoin="round" stroke-width="1"/>
      <line id="Línea_574" data-name="Línea 574" x2="251.268" transform="translate(172.886 453.474)" fill="none" stroke="#040405" stroke-linejoin="round" stroke-width="1"/>
      <line id="Línea_575" data-name="Línea 575" x2="251.268" transform="translate(172.886 472.675)" fill="none" stroke="#040405" stroke-linejoin="round" stroke-width="1"/>
      <line id="Línea_576" data-name="Línea 576" x2="251.268" transform="translate(172.886 491.876)" fill="none" stroke="#040405" stroke-linejoin="round" stroke-width="1"/>
      <line id="Línea_577" data-name="Línea 577" x2="251.268" transform="translate(172.886 523.077)" fill="none" stroke="#040405" stroke-linejoin="round" stroke-width="1"/>
      <line id="Línea_578" data-name="Línea 578" y2="452.217" transform="translate(173.386 90.561)" fill="none" stroke="#040405" stroke-linejoin="round" stroke-width="1"/>
      <line id="Línea_579" data-name="Línea 579" y2="452.217" transform="translate(423.654 90.561)" fill="none" stroke="#040405" stroke-linejoin="round" stroke-width="1"/>
      <line id="Línea_580" data-name="Línea 580" x2="251.268" transform="translate(172.886 91.061)" fill="none" stroke="#040405" stroke-linejoin="round" stroke-width="1"/>
      <line id="Línea_581" data-name="Línea 581" x2="251.268" transform="translate(172.886 542.278)" fill="none" stroke="#040405" stroke-linejoin="round" stroke-width="1"/>
      <text id="Controles_en_el_proceso_" data-name="Controles en el proceso " transform="translate(241.722 104.372)" fill="#fff" font-size="9.96" font-family="Roboto-Bold, Roboto" font-weight="700"><tspan x="0" y="0">Controles en el proceso </tspan></text>
      <rect id="Rectángulo_49729" data-name="Rectángulo 49729" width="251.88" height="454.32" transform="translate(172.866 90.461)" fill="none"/>
      <text id="Stock_producto:_" data-name="Stock producto: " transform="translate(180.59 123.575)" fill="#040405" font-size="9.96" font-family="Roboto-Bold, Roboto" font-weight="700"><tspan x="0" y="0">Stock producto: </tspan></text>
      <rect id="Rectángulo_49730" data-name="Rectángulo 49730" width="251.88" height="454.32" transform="translate(172.866 90.461)" fill="none"/>
      <text id="Fecha:" transform="translate(180.59 142.778)" fill="#040405" font-size="9.96" font-family="Roboto-Regular, Roboto"><tspan x="0" y="0">Fecha:</tspan></text>
      <rect id="Rectángulo_49731" data-name="Rectángulo 49731" width="251.88" height="454.32" transform="translate(172.866 90.461)" fill="none"/>
      <text id="Hora:" transform="translate(180.59 161.981)" fill="#040405" font-size="9.96" font-family="Roboto-Regular, Roboto"><tspan x="0" y="0">Hora:</tspan></text>
      <rect id="Rectángulo_49732" data-name="Rectángulo 49732" width="251.88" height="454.32" transform="translate(172.866 90.461)" fill="none"/>
      <text id="Peso:" transform="translate(259.957 181.184)" fill="#040405" font-size="9.96" font-family="Roboto-Regular, Roboto"><tspan x="0" y="0">Peso:</tspan></text>
      <rect id="Rectángulo_49733" data-name="Rectángulo 49733" width="251.88" height="454.32" transform="translate(172.866 90.461)" fill="none"/>
      <rect id="Rectángulo_49734" data-name="Rectángulo 49734" width="251.88" height="454.32" transform="translate(172.866 90.461)" fill="none"/>
      <text id="Volumen:" transform="translate(180.59 181.184)" fill="#040405" font-size="9.96" font-family="Roboto-Regular, Roboto"><tspan x="0" y="0">Volumen:</tspan></text>
      <rect id="Rectángulo_49735" data-name="Rectángulo 49735" width="251.88" height="454.32" transform="translate(172.866 90.461)" fill="none"/>
      <rect id="Rectángulo_49736" data-name="Rectángulo 49736" width="251.88" height="454.32" transform="translate(172.866 90.461)" fill="none"/>
      <text id="Código_realizado_por:" data-name="Código realizado por:" transform="translate(180.59 212.379)" fill="#040405" font-size="9.96" font-family="Roboto-Regular, Roboto"><tspan x="0" y="0">Código realizado por:</tspan></text>
      <rect id="Rectángulo_49737" data-name="Rectángulo 49737" width="251.88" height="454.32" transform="translate(172.866 90.461)" fill="none"/>
      <text id="Stock_producto:_2" data-name="Stock producto: " transform="translate(180.59 231.583)" fill="#040405" font-size="9.96" font-family="Roboto-Bold, Roboto" font-weight="700"><tspan x="0" y="0">Stock producto: </tspan></text>
      <rect id="Rectángulo_49738" data-name="Rectángulo 49738" width="251.88" height="454.32" transform="translate(172.866 90.461)" fill="none"/>
      <text id="Fecha:-2" data-name="Fecha:" transform="translate(180.59 250.778)" fill="#040405" font-size="9.96" font-family="Roboto-Regular, Roboto"><tspan x="0" y="0">Fecha:</tspan></text>
      <rect id="Rectángulo_49739" data-name="Rectángulo 49739" width="251.88" height="454.32" transform="translate(172.866 90.461)" fill="none"/>
      <text id="Hora:-2" data-name="Hora:" transform="translate(180.59 269.981)" fill="#040405" font-size="9.96" font-family="Roboto-Regular, Roboto"><tspan x="0" y="0">Hora:</tspan></text>
      <rect id="Rectángulo_49740" data-name="Rectángulo 49740" width="251.88" height="454.32" transform="translate(172.866 90.461)" fill="none"/>
      <text id="Peso:-2" data-name="Peso:" transform="translate(259.957 289.176)" fill="#040405" font-size="9.96" font-family="Roboto-Regular, Roboto"><tspan x="0" y="0">Peso:</tspan></text>
      <rect id="Rectángulo_49741" data-name="Rectángulo 49741" width="251.88" height="454.32" transform="translate(172.866 90.461)" fill="none"/>
      <rect id="Rectángulo_49742" data-name="Rectángulo 49742" width="251.88" height="454.32" transform="translate(172.866 90.461)" fill="none"/>
      <text id="Volumen:-2" data-name="Volumen:" transform="translate(180.59 289.176)" fill="#040405" font-size="9.96" font-family="Roboto-Regular, Roboto"><tspan x="0" y="0">Volumen:</tspan></text>
      <rect id="Rectángulo_49743" data-name="Rectángulo 49743" width="251.88" height="454.32" transform="translate(172.866 90.461)" fill="none"/>
      <rect id="Rectángulo_49744" data-name="Rectángulo 49744" width="251.88" height="454.32" transform="translate(172.866 90.461)" fill="none"/>
      <text id="Código_realizado_por:-2" data-name="Código realizado por:" transform="translate(180.59 320.379)" fill="#040405" font-size="9.96" font-family="Roboto-Regular, Roboto"><tspan x="0" y="0">Código realizado por:</tspan></text>
      <rect id="Rectángulo_49745" data-name="Rectángulo 49745" width="251.88" height="454.32" transform="translate(172.866 90.461)" fill="none"/>
      <text id="Stock_producto:_3" data-name="Stock producto: " transform="translate(180.59 339.59)" fill="#040405" font-size="9.96" font-family="Roboto-Bold, Roboto" font-weight="700"><tspan x="0" y="0">Stock producto: </tspan></text>
      <rect id="Rectángulo_49746" data-name="Rectángulo 49746" width="251.88" height="454.32" transform="translate(172.866 90.461)" fill="none"/>
      <text id="Fecha:-3" data-name="Fecha:" transform="translate(180.59 358.786)" fill="#040405" font-size="9.96" font-family="Roboto-Regular, Roboto"><tspan x="0" y="0">Fecha:</tspan></text>
      <rect id="Rectángulo_49747" data-name="Rectángulo 49747" width="251.88" height="454.32" transform="translate(172.866 90.461)" fill="none"/>
      <text id="Hora:-3" data-name="Hora:" transform="translate(180.59 377.989)" fill="#040405" font-size="9.96" font-family="Roboto-Regular, Roboto"><tspan x="0" y="0">Hora:</tspan></text>
      <rect id="Rectángulo_49748" data-name="Rectángulo 49748" width="251.88" height="454.32" transform="translate(172.866 90.461)" fill="none"/>
      <text id="Peso:-3" data-name="Peso:" transform="translate(259.957 397.184)" fill="#040405" font-size="9.96" font-family="Roboto-Regular, Roboto"><tspan x="0" y="0">Peso:</tspan></text>
      <rect id="Rectángulo_49749" data-name="Rectángulo 49749" width="251.88" height="454.32" transform="translate(172.866 90.461)" fill="none"/>
      <rect id="Rectángulo_49750" data-name="Rectángulo 49750" width="251.88" height="454.32" transform="translate(172.866 90.461)" fill="none"/>
      <text id="Volumen:-3" data-name="Volumen:" transform="translate(180.59 397.184)" fill="#040405" font-size="9.96" font-family="Roboto-Regular, Roboto"><tspan x="0" y="0">Volumen:</tspan></text>
      <rect id="Rectángulo_49751" data-name="Rectángulo 49751" width="251.88" height="454.32" transform="translate(172.866 90.461)" fill="none"/>
      <rect id="Rectángulo_49752" data-name="Rectángulo 49752" width="251.88" height="454.32" transform="translate(172.866 90.461)" fill="none"/>
      <text id="Código_realizado_por:-3" data-name="Código realizado por:" transform="translate(180.59 428.387)" fill="#040405" font-size="9.96" font-family="Roboto-Regular, Roboto"><tspan x="0" y="0">Código realizado por:</tspan></text>
      <rect id="Rectángulo_49753" data-name="Rectángulo 49753" width="251.88" height="454.32" transform="translate(172.866 90.461)" fill="none"/>
      <text id="Stock_producto:_4" data-name="Stock producto: " transform="translate(180.59 447.59)" fill="#040405" font-size="9.96" font-family="Roboto-Bold, Roboto" font-weight="700"><tspan x="0" y="0">Stock producto: </tspan></text>
      <rect id="Rectángulo_49754" data-name="Rectángulo 49754" width="251.88" height="454.32" transform="translate(172.866 90.461)" fill="none"/>
      <text id="Fecha:-4" data-name="Fecha:" transform="translate(180.59 466.786)" fill="#040405" font-size="9.96" font-family="Roboto-Regular, Roboto"><tspan x="0" y="0">Fecha:</tspan></text>
      <rect id="Rectángulo_49755" data-name="Rectángulo 49755" width="251.88" height="454.32" transform="translate(172.866 90.461)" fill="none"/>
      <rect id="Rectángulo_49756" data-name="Rectángulo 49756" width="251.88" height="454.32" transform="translate(172.866 90.461)" fill="none"/>
      <path id="Trazado_208768" data-name="Trazado 208768" d="M172.866,544.781h251.88V90.461H172.866v454.32Z" fill="none" fill-rule="evenodd"/>
      <path id="Trazado_208769" data-name="Trazado 208769" d="M172.866,544.781h251.88V90.461H172.866v454.32Z" fill="none" fill-rule="evenodd"/>
      <path id="Trazado_208770" data-name="Trazado 208770" d="M172.866,544.781h251.88V90.461H172.866v454.32Z" fill="none" fill-rule="evenodd"/>
      <path id="Trazado_208771" data-name="Trazado 208771" d="M172.866,544.781h251.88V90.461H172.866v454.32Z" fill="none" fill-rule="evenodd"/>
      <path id="Trazado_208772" data-name="Trazado 208772" d="M172.866,544.781h251.88V90.461H172.866v454.32Z" fill="none" fill-rule="evenodd"/>
      <path id="Trazado_208773" data-name="Trazado 208773" d="M172.866,544.781h251.88V90.461H172.866v454.32Z" fill="none" fill-rule="evenodd"/>
      <path id="Trazado_208774" data-name="Trazado 208774" d="M172.866,544.781h251.88V90.461H172.866v454.32Z" fill="none" fill-rule="evenodd"/>
      <path id="Trazado_208775" data-name="Trazado 208775" d="M172.866,544.781h251.88V90.461H172.866v454.32Z" fill="none" fill-rule="evenodd"/>
      <path id="Trazado_208776" data-name="Trazado 208776" d="M172.866,544.781h251.88V90.461H172.866v454.32Z" fill="none" fill-rule="evenodd"/>
      <path id="Trazado_208777" data-name="Trazado 208777" d="M172.866,544.781h251.88V90.461H172.866v454.32Z" fill="none" fill-rule="evenodd"/>
      <path id="Trazado_208778" data-name="Trazado 208778" d="M172.866,544.781h251.88V90.461H172.866v454.32Z" fill="none" fill-rule="evenodd"/>
      <path id="Trazado_208779" data-name="Trazado 208779" d="M172.866,544.781h251.88V90.461H172.866v454.32Z" fill="none" fill-rule="evenodd"/>
      <path id="Trazado_208780" data-name="Trazado 208780" d="M172.866,544.781h251.88V90.461H172.866v454.32Z" fill="none" fill-rule="evenodd"/>
      <path id="Trazado_208781" data-name="Trazado 208781" d="M172.866,544.781h251.88V90.461H172.866v454.32Z" fill="none" fill-rule="evenodd"/>
      <path id="Trazado_208782" data-name="Trazado 208782" d="M172.866,544.781h251.88V90.461H172.866v454.32Z" fill="none" fill-rule="evenodd"/>
      <path id="Trazado_208783" data-name="Trazado 208783" d="M172.866,544.781h251.88V90.461H172.866v454.32Z" fill="none" fill-rule="evenodd"/>
      <path id="Trazado_208784" data-name="Trazado 208784" d="M172.866,544.781h251.88V90.461H172.866v454.32Z" fill="none" fill-rule="evenodd"/>
      <path id="Trazado_208785" data-name="Trazado 208785" d="M172.866,544.781h251.88V90.461H172.866v454.32Z" fill="none" fill-rule="evenodd"/>
      <path id="Trazado_208786" data-name="Trazado 208786" d="M172.866,544.781h251.88V90.461H172.866v454.32Z" fill="none" fill-rule="evenodd"/>
      <path id="Trazado_208787" data-name="Trazado 208787" d="M172.866,544.781h251.88V90.461H172.866v454.32Z" fill="none" fill-rule="evenodd"/>
      <path id="Trazado_208788" data-name="Trazado 208788" d="M172.866,544.781h251.88V90.461H172.866v454.32Z" fill="none" fill-rule="evenodd"/>
      <path id="Trazado_208789" data-name="Trazado 208789" d="M172.866,544.781h251.88V90.461H172.866v454.32Z" fill="none" fill-rule="evenodd"/>
      <path id="Trazado_208790" data-name="Trazado 208790" d="M172.866,544.781h251.88V90.461H172.866v454.32Z" fill="none" fill-rule="evenodd"/>
      <path id="Trazado_208791" data-name="Trazado 208791" d="M172.866,544.781h251.88V90.461H172.866v454.32Z" fill="none" fill-rule="evenodd"/>
      <path id="Trazado_208792" data-name="Trazado 208792" d="M172.866,544.781h251.88V90.461H172.866v454.32Z" fill="none" fill-rule="evenodd"/>
      <path id="Trazado_208793" data-name="Trazado 208793" d="M172.866,544.781h251.88V90.461H172.866v454.32Z" fill="none" fill-rule="evenodd"/>
      <path id="Trazado_208794" data-name="Trazado 208794" d="M172.866,544.781h251.88V90.461H172.866v454.32Z" fill="none" fill-rule="evenodd"/>
      <path id="Trazado_208795" data-name="Trazado 208795" d="M172.866,544.781h251.88V90.461H172.866v454.32Z" fill="none" fill-rule="evenodd"/>
    </g>
  </g>
</svg>
