<svg xmlns="http://www.w3.org/2000/svg" xmlns:xlink="http://www.w3.org/1999/xlink" width="402" height="279.86" viewBox="0 0 402 279.86">
  <defs>
    <clipPath id="clip-path">
      <rect id="Rectángulo_49668" data-name="Rectángulo 49668" width="401.76" height="279.72" transform="translate(105.469 255.895)" fill="none"/>
    </clipPath>
    <clipPath id="clip-path-2">
      <path id="Trazado_208713" data-name="Trazado 208713" d="M105.469,535.615h401.76V255.895H105.469v279.72Z" fill="none" clip-rule="evenodd"/>
    </clipPath>
  </defs>
  <g id="Grupo_1036402" data-name="Grupo 1036402" transform="translate(-1216 1724)">
    <path id="Trazado_740098" data-name="Trazado 740098" d="M0,0H402V20H0Z" transform="translate(1216 -1724)" fill="#15d3ec"/>
    <path id="Trazado_740089" data-name="Trazado 740089" d="M0,0H402V56H0Z" transform="translate(1216 -1704)" fill="#81d4fa"/>
    <path id="Trazado_740071" data-name="Trazado 740071" d="M0,0V151.914" transform="translate(1273.931 -1704.618)" fill="none" stroke="#040405" stroke-width="1"/>
    <path id="Trazado_740063" data-name="Trazado 740063" d="M0,0V18.423" transform="translate(1273.931 -1552.703)" fill="none" stroke="#040405" stroke-width="0.75"/>
    <path id="Trazado_740056" data-name="Trazado 740056" d="M0,0V20.048" transform="translate(1273.931 -1534.28)" fill="none" stroke="#040405" stroke-width="1"/>
    <path id="Trazado_740054" data-name="Trazado 740054" d="M0,0V39.346" transform="translate(1273.931 -1484.059)" fill="none" stroke="#040405" stroke-width="1"/>
    <path id="Trazado_740072" data-name="Trazado 740072" d="M0,0V151.914" transform="translate(1331.091 -1704.618)" fill="none" stroke="#040405" stroke-width="1"/>
    <path id="Trazado_740064" data-name="Trazado 740064" d="M0,0V18.423" transform="translate(1331.091 -1552.703)" fill="none" stroke="#040405" stroke-width="0.75"/>
    <path id="Trazado_740057" data-name="Trazado 740057" d="M0,0V20.048" transform="translate(1331.091 -1534.28)" fill="none" stroke="#040405" stroke-width="1"/>
    <path id="Trazado_740031" data-name="Trazado 740031" d="M0,0V39.346" transform="translate(1331.091 -1484.059)" fill="none" stroke="#040405" stroke-width="1"/>
    <path id="Trazado_740073" data-name="Trazado 740073" d="M0,0V151.914" transform="translate(1388.25 -1704.618)" fill="none" stroke="#040405" stroke-width="1"/>
    <path id="Trazado_740065" data-name="Trazado 740065" d="M0,0V18.423" transform="translate(1388.25 -1552.703)" fill="none" stroke="#040405" stroke-width="0.75"/>
    <path id="Trazado_740058" data-name="Trazado 740058" d="M0,0V20.048" transform="translate(1388.25 -1534.28)" fill="none" stroke="#040405" stroke-width="1"/>
    <path id="Trazado_740032" data-name="Trazado 740032" d="M0,0V39.346" transform="translate(1388.25 -1484.059)" fill="none" stroke="#040405" stroke-width="1"/>
    <path id="Trazado_740074" data-name="Trazado 740074" d="M0,0V151.914" transform="translate(1445.41 -1704.618)" fill="none" stroke="#040405" stroke-width="1"/>
    <path id="Trazado_740066" data-name="Trazado 740066" d="M0,0V18.423" transform="translate(1445.41 -1552.703)" fill="none" stroke="#040405" stroke-width="0.75"/>
    <path id="Trazado_740059" data-name="Trazado 740059" d="M0,0V20.048" transform="translate(1445.41 -1534.28)" fill="none" stroke="#040405" stroke-width="1"/>
    <path id="Trazado_740033" data-name="Trazado 740033" d="M0,0V39.346" transform="translate(1445.41 -1484.059)" fill="none" stroke="#040405" stroke-width="1"/>
    <path id="Trazado_740075" data-name="Trazado 740075" d="M0,0V151.914" transform="translate(1502.569 -1704.618)" fill="none" stroke="#040405" stroke-width="1"/>
    <path id="Trazado_740067" data-name="Trazado 740067" d="M0,0V18.423" transform="translate(1502.569 -1552.703)" fill="none" stroke="#040405" stroke-width="0.75"/>
    <path id="Trazado_740060" data-name="Trazado 740060" d="M0,0V20.048" transform="translate(1502.569 -1534.28)" fill="none" stroke="#040405" stroke-width="1"/>
    <path id="Trazado_740034" data-name="Trazado 740034" d="M0,0V39.346" transform="translate(1502.569 -1484.059)" fill="none" stroke="#040405" stroke-width="1"/>
    <path id="Trazado_740076" data-name="Trazado 740076" d="M0,0V151.914" transform="translate(1559.729 -1704.618)" fill="none" stroke="#040405" stroke-width="1"/>
    <path id="Trazado_740068" data-name="Trazado 740068" d="M0,0V18.423" transform="translate(1559.729 -1552.703)" fill="none" stroke="#040405" stroke-width="0.75"/>
    <path id="Trazado_740061" data-name="Trazado 740061" d="M0,0V20.048" transform="translate(1559.729 -1534.28)" fill="none" stroke="#040405" stroke-width="1"/>
    <path id="Trazado_740035" data-name="Trazado 740035" d="M0,0V39.346" transform="translate(1559.729 -1484.059)" fill="none" stroke="#040405" stroke-width="1"/>
    <path id="Trazado_740099" data-name="Trazado 740099" d="M0,0H401.116" transform="translate(1216.272 -1704.118)" fill="none" stroke="#040405" stroke-width="1"/>
    <path id="Trazado_740090" data-name="Trazado 740090" d="M0,0H401.116" transform="translate(1216.272 -1648.944)" fill="none" stroke="#040405" stroke-width="1"/>
    <path id="Trazado_740088" data-name="Trazado 740088" d="M0,0H401.116" transform="translate(1216.272 -1629.771)" fill="none" stroke="#040405" stroke-width="1"/>
    <path id="Trazado_740087" data-name="Trazado 740087" d="M0,0H401.116" transform="translate(1216.272 -1610.598)" fill="none" stroke="#040405" stroke-width="1"/>
    <path id="Trazado_740083" data-name="Trazado 740083" d="M0,0H401.116" transform="translate(1216.272 -1591.425)" fill="none" stroke="#040405" stroke-width="1"/>
    <path id="Trazado_740082" data-name="Trazado 740082" d="M0,0H401.116" transform="translate(1216.272 -1572.251)" fill="none" stroke="#040405" stroke-width="1"/>
    <path id="Trazado_740077" data-name="Trazado 740077" d="M0,0H401.116" transform="translate(1216.272 -1553.078)" fill="none" stroke="#040405" stroke-width="0.75"/>
    <path id="Trazado_740069" data-name="Trazado 740069" d="M0,0H401.116" transform="translate(1216.272 -1533.905)" fill="none" stroke="#040405" stroke-width="0.75"/>
    <path id="Trazado_740062" data-name="Trazado 740062" d="M0,0H401.116" transform="translate(1216.272 -1514.732)" fill="none" stroke="#040405" stroke-width="1"/>
    <path id="Trazado_740055" data-name="Trazado 740055" d="M0,0H401.116" transform="translate(1216.272 -1483.559)" fill="none" stroke="#040405" stroke-width="1"/>
    <path id="Trazado_740053" data-name="Trazado 740053" d="M0,0H401.116" transform="translate(1216.272 -1464.385)" fill="none" stroke="#040405" stroke-width="1"/>
    <path id="Trazado_740078" data-name="Trazado 740078" d="M0,0V171.088" transform="translate(1216.772 -1723.791)" fill="none" stroke="#040405" stroke-width="1"/>
    <path id="Trazado_740079" data-name="Trazado 740079" d="M0,0V18.423" transform="translate(1216.772 -1552.703)" fill="none" stroke="#040405" stroke-width="0.75"/>
    <path id="Trazado_740080" data-name="Trazado 740080" d="M0,0V89.568" transform="translate(1216.772 -1534.28)" fill="none" stroke="#040405" stroke-width="1"/>
    <path id="Trazado_740081" data-name="Trazado 740081" d="M0,0V171.088" transform="translate(1616.888 -1723.791)" fill="none" stroke="#040405" stroke-width="1"/>
    <path id="Trazado_740070" data-name="Trazado 740070" d="M0,0V18.423" transform="translate(1616.888 -1552.703)" fill="none" stroke="#040405" stroke-width="0.75"/>
    <path id="Trazado_740036" data-name="Trazado 740036" d="M0,0V89.568" transform="translate(1616.888 -1534.28)" fill="none" stroke="#040405" stroke-width="1"/>
    <path id="Trazado_740101" data-name="Trazado 740101" d="M0,0H401.116" transform="translate(1216.272 -1723.291)" fill="none" stroke="#040405" stroke-width="1"/>
    <path id="Trazado_740037" data-name="Trazado 740037" d="M0,0H401.116" transform="translate(1216.272 -1445.212)" fill="none" stroke="#040405" stroke-width="1"/>
    <path id="Trazado_740100" data-name="Trazado 740100" d="M3.262-1.763,4.873-7.109H6.5L4.028,0H2.5L.034-7.109H1.66ZM9.3.1A2.594,2.594,0,0,1,7.4-.615a2.534,2.534,0,0,1-.73-1.9v-.137a3.192,3.192,0,0,1,.308-1.423,2.258,2.258,0,0,1,.872-.967,2.446,2.446,0,0,1,1.287-.339,2.193,2.193,0,0,1,1.707.684,2.778,2.778,0,0,1,.623,1.938v.576H8.105a1.311,1.311,0,0,0,.413.83,1.247,1.247,0,0,0,.872.313,1.523,1.523,0,0,0,1.274-.591l.693.776a2.118,2.118,0,0,1-.859.7A2.819,2.819,0,0,1,9.3.1ZM9.136-4.243a.882.882,0,0,0-.681.284,1.473,1.473,0,0,0-.334.814h1.963v-.113a1.051,1.051,0,0,0-.254-.728A.91.91,0,0,0,9.136-4.243Zm6.1.283A3.834,3.834,0,0,0,14.731-4a1.034,1.034,0,0,0-1.05.542V0H12.271V-5.283H13.6l.039.63a1.308,1.308,0,0,1,1.177-.728,1.479,1.479,0,0,1,.439.063ZM17.407,0H15.991V-5.283h1.416Zm-1.5-6.65a.7.7,0,0,1,.212-.522.8.8,0,0,1,.579-.205.8.8,0,0,1,.576.205.691.691,0,0,1,.215.522.693.693,0,0,1-.217.527.8.8,0,0,1-.574.205.8.8,0,0,1-.574-.205A.693.693,0,0,1,15.908-6.65Zm3,6.65V-4.248h-.786V-5.283h.786v-.244a1.981,1.981,0,0,1,.613-1.536,2.465,2.465,0,0,1,1.7-.54,5.644,5.644,0,0,1,1.6.288l-.205,1.167a6.249,6.249,0,0,0-.742-.183,3.647,3.647,0,0,0-.566-.042q-.986,0-.986.874v.215h1.04v1.035h-1.04V0Zm4.575,0H22.07V-5.283h1.416Zm3.364-1.04a.926.926,0,0,0,.635-.215.753.753,0,0,0,.254-.571h1.323a1.81,1.81,0,0,1-.293.984,1.933,1.933,0,0,1-.789.693A2.468,2.468,0,0,1,26.875.1a2.294,2.294,0,0,1-1.787-.72,2.85,2.85,0,0,1-.654-1.99v-.093a2.817,2.817,0,0,1,.649-1.948,2.267,2.267,0,0,1,1.782-.728,2.222,2.222,0,0,1,1.589.564,2,2,0,0,1,.608,1.5H27.739a.97.97,0,0,0-.254-.67.847.847,0,0,0-.645-.258.85.85,0,0,0-.745.359,2.083,2.083,0,0,0-.251,1.166v.147A2.109,2.109,0,0,0,26.094-1.4.861.861,0,0,0,26.851-1.04ZM32.93,0a1.567,1.567,0,0,1-.142-.474A1.707,1.707,0,0,1,31.455.1a1.876,1.876,0,0,1-1.287-.449,1.445,1.445,0,0,1-.51-1.133,1.493,1.493,0,0,1,.623-1.289,3.072,3.072,0,0,1,1.8-.454h.649v-.3a.871.871,0,0,0-.188-.586.74.74,0,0,0-.593-.22.841.841,0,0,0-.559.171.581.581,0,0,0-.2.469H29.775a1.417,1.417,0,0,1,.283-.85,1.872,1.872,0,0,1,.8-.613,2.918,2.918,0,0,1,1.162-.222,2.306,2.306,0,0,1,1.55.491,1.717,1.717,0,0,1,.574,1.379v2.29a2.526,2.526,0,0,0,.21,1.138V0ZM31.763-.981a1.215,1.215,0,0,0,.576-.139.914.914,0,0,0,.391-.374V-2.4H32.2q-1.06,0-1.128.732l0,.083a.565.565,0,0,0,.186.435A.721.721,0,0,0,31.763-.981Zm5.664-.059a.926.926,0,0,0,.635-.215.753.753,0,0,0,.254-.571h1.323a1.81,1.81,0,0,1-.293.984,1.933,1.933,0,0,1-.789.693A2.468,2.468,0,0,1,37.451.1a2.294,2.294,0,0,1-1.787-.72,2.85,2.85,0,0,1-.654-1.99v-.093a2.817,2.817,0,0,1,.649-1.948,2.267,2.267,0,0,1,1.782-.728,2.222,2.222,0,0,1,1.589.564,2,2,0,0,1,.608,1.5H38.315a.97.97,0,0,0-.254-.67.847.847,0,0,0-.645-.258.85.85,0,0,0-.745.359,2.083,2.083,0,0,0-.251,1.166v.147A2.109,2.109,0,0,0,36.67-1.4.861.861,0,0,0,37.427-1.04ZM41.934,0H40.518V-5.283h1.416Zm-1.5-6.65a.7.7,0,0,1,.212-.522.8.8,0,0,1,.579-.205.8.8,0,0,1,.576.205.691.691,0,0,1,.215.522.693.693,0,0,1-.217.527.8.8,0,0,1-.574.205.8.8,0,0,1-.574-.205A.693.693,0,0,1,40.435-6.65Zm2.441,3.96a3.133,3.133,0,0,1,.3-1.4,2.216,2.216,0,0,1,.872-.952,2.543,2.543,0,0,1,1.321-.337,2.406,2.406,0,0,1,1.746.654,2.626,2.626,0,0,1,.754,1.777l.01.361A2.761,2.761,0,0,1,47.2-.637,2.359,2.359,0,0,1,45.381.1a2.371,2.371,0,0,1-1.824-.732,2.81,2.81,0,0,1-.681-1.992Zm1.411.1a1.975,1.975,0,0,0,.283,1.152.934.934,0,0,0,.811.4.936.936,0,0,0,.8-.394,2.161,2.161,0,0,0,.288-1.259,1.955,1.955,0,0,0-.288-1.144.936.936,0,0,0-.811-.406.921.921,0,0,0-.8.4A2.2,2.2,0,0,0,44.287-2.59ZM45.649-7.5h1.538L45.835-5.986H44.688Zm4.4,2.217.044.61a1.845,1.845,0,0,1,1.519-.708,1.533,1.533,0,0,1,1.25.493,2.3,2.3,0,0,1,.42,1.475V0H51.87V-3.379a.915.915,0,0,0-.2-.652.874.874,0,0,0-.649-.2.971.971,0,0,0-.894.508V0H48.721V-5.283Zm6.572,2.6a3.184,3.184,0,0,1,.554-1.968,1.8,1.8,0,0,1,1.516-.732,1.618,1.618,0,0,1,1.274.576V-7.5h1.416V0H60.107l-.068-.562A1.661,1.661,0,0,1,58.682.1a1.793,1.793,0,0,1-1.5-.735A3.286,3.286,0,0,1,56.621-2.681Zm1.411.105a2.086,2.086,0,0,0,.259,1.139.843.843,0,0,0,.752.4.944.944,0,0,0,.923-.553V-3.681a.931.931,0,0,0-.913-.553Q58.032-4.233,58.032-2.576ZM64.907.1a2.594,2.594,0,0,1-1.892-.713,2.534,2.534,0,0,1-.73-1.9v-.137a3.192,3.192,0,0,1,.308-1.423,2.258,2.258,0,0,1,.872-.967,2.446,2.446,0,0,1,1.287-.339,2.193,2.193,0,0,1,1.707.684,2.778,2.778,0,0,1,.623,1.938v.576H63.716a1.311,1.311,0,0,0,.413.83A1.247,1.247,0,0,0,65-1.04a1.523,1.523,0,0,0,1.274-.591l.693.776a2.118,2.118,0,0,1-.859.7A2.819,2.819,0,0,1,64.907.1Zm-.161-4.341a.882.882,0,0,0-.681.284,1.473,1.473,0,0,0-.334.814h1.963v-.113a1.051,1.051,0,0,0-.254-.728A.91.91,0,0,0,64.746-4.243Zm6.948-1.04.044.591a1.857,1.857,0,0,1,1.519-.688,1.409,1.409,0,0,1,1.4.806,1.814,1.814,0,0,1,1.587-.806,1.576,1.576,0,0,1,1.279.5,2.3,2.3,0,0,1,.42,1.506V0H76.528V-3.369a1.006,1.006,0,0,0-.176-.657.779.779,0,0,0-.62-.208.881.881,0,0,0-.879.605l0,3.628H73.447V-3.364a.994.994,0,0,0-.181-.664.787.787,0,0,0-.615-.205.914.914,0,0,0-.869.5V0H70.371V-5.283ZM82.09,0a1.567,1.567,0,0,1-.142-.474A1.707,1.707,0,0,1,80.615.1a1.876,1.876,0,0,1-1.287-.449,1.445,1.445,0,0,1-.51-1.133,1.493,1.493,0,0,1,.623-1.289,3.072,3.072,0,0,1,1.8-.454h.649v-.3a.871.871,0,0,0-.188-.586.74.74,0,0,0-.593-.22.841.841,0,0,0-.559.171.581.581,0,0,0-.2.469H78.936a1.417,1.417,0,0,1,.283-.85,1.872,1.872,0,0,1,.8-.613,2.918,2.918,0,0,1,1.162-.222,2.306,2.306,0,0,1,1.55.491,1.717,1.717,0,0,1,.574,1.379v2.29a2.526,2.526,0,0,0,.21,1.138V0ZM80.923-.981a1.215,1.215,0,0,0,.576-.139.914.914,0,0,0,.391-.374V-2.4h-.527q-1.06,0-1.128.732l0,.083a.565.565,0,0,0,.186.435A.721.721,0,0,0,80.923-.981Zm5.156-5.6v1.3h.9v1.035h-.9v2.637a.63.63,0,0,0,.112.42.564.564,0,0,0,.43.127,2.25,2.25,0,0,0,.415-.034V-.029A2.905,2.905,0,0,1,86.182.1a1.347,1.347,0,0,1-1.514-1.5V-4.248H83.9V-5.283h.771v-1.3ZM90.2.1a2.594,2.594,0,0,1-1.892-.713,2.534,2.534,0,0,1-.73-1.9v-.137a3.192,3.192,0,0,1,.308-1.423,2.258,2.258,0,0,1,.872-.967,2.446,2.446,0,0,1,1.287-.339A2.193,2.193,0,0,1,91.75-4.7a2.778,2.778,0,0,1,.623,1.938v.576H89.009a1.311,1.311,0,0,0,.413.83,1.247,1.247,0,0,0,.872.313,1.523,1.523,0,0,0,1.274-.591l.693.776a2.118,2.118,0,0,1-.859.7A2.819,2.819,0,0,1,90.2.1Zm-.161-4.341a.882.882,0,0,0-.681.284,1.473,1.473,0,0,0-.334.814h1.963v-.113a1.051,1.051,0,0,0-.254-.728A.91.91,0,0,0,90.039-4.243Zm6.1.283A3.834,3.834,0,0,0,95.635-4a1.034,1.034,0,0,0-1.05.542V0H93.174V-5.283h1.333l.039.63a1.308,1.308,0,0,1,1.177-.728,1.479,1.479,0,0,1,.439.063ZM98.311,0H96.895V-5.283h1.416Zm-1.5-6.65a.7.7,0,0,1,.212-.522.8.8,0,0,1,.579-.205.8.8,0,0,1,.576.205.691.691,0,0,1,.215.522.693.693,0,0,1-.217.527.8.8,0,0,1-.574.205.8.8,0,0,1-.574-.205A.693.693,0,0,1,96.812-6.65ZM102.534,0a1.567,1.567,0,0,1-.142-.474A1.707,1.707,0,0,1,101.06.1a1.876,1.876,0,0,1-1.287-.449,1.445,1.445,0,0,1-.51-1.133,1.493,1.493,0,0,1,.623-1.289,3.072,3.072,0,0,1,1.8-.454h.649v-.3a.871.871,0,0,0-.188-.586.74.74,0,0,0-.593-.22.841.841,0,0,0-.559.171.581.581,0,0,0-.2.469H99.38a1.417,1.417,0,0,1,.283-.85,1.872,1.872,0,0,1,.8-.613,2.918,2.918,0,0,1,1.162-.222,2.306,2.306,0,0,1,1.55.491,1.717,1.717,0,0,1,.574,1.379v2.29a2.526,2.526,0,0,0,.21,1.138V0Zm-1.167-.981a1.215,1.215,0,0,0,.576-.139.914.914,0,0,0,.391-.374V-2.4h-.527q-1.06,0-1.128.732l0,.083a.565.565,0,0,0,.186.435A.721.721,0,0,0,101.367-.981ZM112.08-2.593a3.169,3.169,0,0,1-.554,1.956,1.777,1.777,0,0,1-1.5.735,1.646,1.646,0,0,1-1.294-.557v2.49h-1.411V-5.283h1.309l.049.518a1.658,1.658,0,0,1,1.338-.615,1.789,1.789,0,0,1,1.519.723,3.254,3.254,0,0,1,.542,1.992Zm-1.411-.1a2.079,2.079,0,0,0-.261-1.138.851.851,0,0,0-.759-.4.924.924,0,0,0-.913.508v2.163a.94.94,0,0,0,.923.522Q110.669-1.04,110.669-2.7Zm5.254-1.265A3.834,3.834,0,0,0,115.415-4a1.034,1.034,0,0,0-1.05.542V0h-1.411V-5.283h1.333l.039.63a1.308,1.308,0,0,1,1.177-.728,1.479,1.479,0,0,1,.439.063ZM118.091,0h-1.416V-5.283h1.416Zm-1.5-6.65a.7.7,0,0,1,.212-.522.8.8,0,0,1,.579-.205.8.8,0,0,1,.576.205.691.691,0,0,1,.215.522.693.693,0,0,1-.217.527.8.8,0,0,1-.574.205.8.8,0,0,1-.574-.205A.693.693,0,0,1,116.592-6.65Zm3.984,1.367.044.591a1.857,1.857,0,0,1,1.519-.688,1.409,1.409,0,0,1,1.4.806,1.814,1.814,0,0,1,1.587-.806,1.576,1.576,0,0,1,1.279.5,2.3,2.3,0,0,1,.42,1.506V0H125.41V-3.369a1.006,1.006,0,0,0-.176-.657.779.779,0,0,0-.62-.208.881.881,0,0,0-.879.605l0,3.628h-1.411V-3.364a.994.994,0,0,0-.181-.664.787.787,0,0,0-.615-.205.914.914,0,0,0-.869.5V0h-1.411V-5.283ZM130.972,0a1.567,1.567,0,0,1-.142-.474A1.707,1.707,0,0,1,129.5.1a1.876,1.876,0,0,1-1.287-.449,1.445,1.445,0,0,1-.51-1.133,1.493,1.493,0,0,1,.623-1.289,3.072,3.072,0,0,1,1.8-.454h.649v-.3a.871.871,0,0,0-.188-.586.74.74,0,0,0-.593-.22.841.841,0,0,0-.559.171.581.581,0,0,0-.2.469h-1.411a1.417,1.417,0,0,1,.283-.85,1.872,1.872,0,0,1,.8-.613,2.918,2.918,0,0,1,1.162-.222,2.306,2.306,0,0,1,1.55.491,1.717,1.717,0,0,1,.574,1.379v2.29a2.526,2.526,0,0,0,.21,1.138V0ZM129.8-.981a1.215,1.215,0,0,0,.576-.139.914.914,0,0,0,.391-.374V-2.4h-.527q-1.06,0-1.128.732l0,.083a.565.565,0,0,0,.186.435A.721.721,0,0,0,129.8-.981Z" transform="translate(1347.437 -1709.988)" fill="#fff"/>
    <path id="Trazado_740038" data-name="Trazado 740038" d="M0,0H401.76V279.72H0Z" transform="translate(1216.24 -1723.86)" fill="none"/>
    <path id="Trazado_740039" data-name="Trazado 740039" d="M0,0H401.76V279.72H0Z" transform="translate(1216.24 -1723.86)" fill="none"/>
    <path id="Trazado_740040" data-name="Trazado 740040" d="M0,0H401.76V279.72H0Z" transform="translate(1216.24 -1723.86)" fill="none"/>
    <path id="Trazado_740041" data-name="Trazado 740041" d="M0,0H401.76V279.72H0Z" transform="translate(1216.24 -1723.86)" fill="none"/>
    <path id="Trazado_208694" data-name="Trazado 208694" d="M105.469,535.615h401.76V255.895H105.469v279.72Z" transform="translate(1110.771 -1979.755)" fill="none" fill-rule="evenodd"/>
    <path id="Trazado_208695" data-name="Trazado 208695" d="M105.469,535.615h401.76V255.895H105.469v279.72Z" transform="translate(1110.771 -1979.755)" fill="none" fill-rule="evenodd"/>
    <path id="Trazado_208696" data-name="Trazado 208696" d="M105.469,535.615h401.76V255.895H105.469v279.72Z" transform="translate(1110.771 -1979.755)" fill="none" fill-rule="evenodd"/>
    <path id="Trazado_208697" data-name="Trazado 208697" d="M105.469,535.615h401.76V255.895H105.469v279.72Z" transform="translate(1110.771 -1979.755)" fill="none" fill-rule="evenodd"/>
    <path id="Trazado_740084" data-name="Trazado 740084" d="M0,0H57.24V131.4H0Z" transform="translate(1502.56 -1723.86)" fill="none"/>
    <path id="Trazado_208698" data-name="Trazado 208698" d="M391.789,387.295h57.24v-131.4h-57.24v131.4Z" transform="translate(1110.771 -1979.755)" fill="none" fill-rule="evenodd"/>
    <path id="Trazado_740042" data-name="Trazado 740042" d="M0,0H401.76V279.72H0Z" transform="translate(1216.24 -1723.86)" fill="none"/>
    <path id="Trazado_740043" data-name="Trazado 740043" d="M0,0H401.76V279.72H0Z" transform="translate(1216.24 -1723.86)" fill="none"/>
    <path id="Trazado_740044" data-name="Trazado 740044" d="M0,0H401.76V279.72H0Z" transform="translate(1216.24 -1723.86)" fill="none"/>
    <path id="Trazado_740045" data-name="Trazado 740045" d="M0,0H401.76V279.72H0Z" transform="translate(1216.24 -1723.86)" fill="none"/>
    <path id="Trazado_208699" data-name="Trazado 208699" d="M105.469,535.615h401.76V255.895H105.469v279.72Z" transform="translate(1110.771 -1979.755)" fill="none" fill-rule="evenodd"/>
    <path id="Trazado_208700" data-name="Trazado 208700" d="M105.469,535.615h401.76V255.895H105.469v279.72Z" transform="translate(1110.771 -1979.755)" fill="none" fill-rule="evenodd"/>
    <path id="Trazado_208701" data-name="Trazado 208701" d="M105.469,535.615h401.76V255.895H105.469v279.72Z" transform="translate(1110.771 -1979.755)" fill="none" fill-rule="evenodd"/>
    <path id="Trazado_208702" data-name="Trazado 208702" d="M105.469,535.615h401.76V255.895H105.469v279.72Z" transform="translate(1110.771 -1979.755)" fill="none" fill-rule="evenodd"/>
    <path id="Trazado_208703" data-name="Trazado 208703" d="M105.469,535.615h401.76V255.895H105.469v279.72Z" transform="translate(1110.771 -1979.755)" fill="none" fill-rule="evenodd"/>
    <path id="Trazado_740085" data-name="Trazado 740085" d="M0,0H57.24V131.4H0Z" transform="translate(1331.08 -1723.86)" fill="none"/>
    <path id="Trazado_208704" data-name="Trazado 208704" d="M220.309,387.295h57.24v-131.4h-57.24v131.4Z" transform="translate(1110.771 -1979.755)" fill="none" fill-rule="evenodd"/>
    <path id="Trazado_740046" data-name="Trazado 740046" d="M0,0H401.76V279.72H0Z" transform="translate(1216.24 -1723.86)" fill="none"/>
    <path id="Trazado_208705" data-name="Trazado 208705" d="M105.469,535.615h401.76V255.895H105.469v279.72Z" transform="translate(1110.771 -1979.755)" fill="none" fill-rule="evenodd"/>
    <path id="Trazado_740086" data-name="Trazado 740086" d="M0,0H57.36V131.4H0Z" transform="translate(1273.84 -1723.86)" fill="none"/>
    <path id="Trazado_208706" data-name="Trazado 208706" d="M163.069,387.295h57.36v-131.4h-57.36v131.4Z" transform="translate(1110.771 -1979.755)" fill="none" fill-rule="evenodd"/>
    <path id="Trazado_740047" data-name="Trazado 740047" d="M0,0H401.76V279.72H0Z" transform="translate(1216.24 -1723.86)" fill="none"/>
    <path id="Trazado_740048" data-name="Trazado 740048" d="M0,0H401.76V279.72H0Z" transform="translate(1216.24 -1723.86)" fill="none"/>
    <path id="Trazado_740049" data-name="Trazado 740049" d="M0,0H401.76V279.72H0Z" transform="translate(1216.24 -1723.86)" fill="none"/>
    <path id="Trazado_740091" data-name="Trazado 740091" d="M5.5,2.246l1.735,4.9,1.726-4.9h1.828V9h-1.4V7.154l.139-3.187L7.711,9H6.755L4.937,3.972l.139,3.182V9H3.684V2.246ZM14.827,9a1.489,1.489,0,0,1-.135-.45,1.622,1.622,0,0,1-1.266.543A1.782,1.782,0,0,1,12.2,8.666a1.373,1.373,0,0,1-.485-1.076,1.418,1.418,0,0,1,.591-1.225,2.918,2.918,0,0,1,1.709-.431h.617V5.646a.827.827,0,0,0-.179-.557.7.7,0,0,0-.564-.209.8.8,0,0,0-.531.162.552.552,0,0,0-.193.445H11.83a1.347,1.347,0,0,1,.269-.807A1.778,1.778,0,0,1,12.86,4.1a2.772,2.772,0,0,1,1.1-.211,2.19,2.19,0,0,1,1.473.466,1.631,1.631,0,0,1,.545,1.31V7.84a2.4,2.4,0,0,0,.2,1.081V9Zm-1.109-.932a1.155,1.155,0,0,0,.547-.132.868.868,0,0,0,.371-.355V6.718h-.5q-1.007,0-1.072.7l0,.079a.537.537,0,0,0,.176.413A.685.685,0,0,0,13.718,8.068Zm4.9-5.321V3.981h.858v.983h-.858v2.5a.6.6,0,0,0,.107.4.536.536,0,0,0,.408.121,2.138,2.138,0,0,0,.394-.032V8.972a2.76,2.76,0,0,1-.812.121,1.28,1.28,0,0,1-1.438-1.424v-2.7h-.733V3.981h.733V2.747Zm3.915,6.346a2.464,2.464,0,0,1-1.8-.677,2.407,2.407,0,0,1-.693-1.8v-.13a3.032,3.032,0,0,1,.292-1.352,2.145,2.145,0,0,1,.828-.918,2.324,2.324,0,0,1,1.222-.322A2.083,2.083,0,0,1,24,4.538,2.639,2.639,0,0,1,24.6,6.379v.547H21.4a1.245,1.245,0,0,0,.392.789,1.185,1.185,0,0,0,.828.3,1.447,1.447,0,0,0,1.211-.561l.659.738a2.012,2.012,0,0,1-.816.666A2.679,2.679,0,0,1,22.531,9.093Zm-.153-4.124a.838.838,0,0,0-.647.27,1.4,1.4,0,0,0-.318.773h1.865V5.905a1,1,0,0,0-.241-.692A.864.864,0,0,0,22.378,4.969Zm5.8.269a3.642,3.642,0,0,0-.482-.037.982.982,0,0,0-1,.515V9H25.356V3.981h1.266l.037.6a1.242,1.242,0,0,1,1.118-.691,1.4,1.4,0,0,1,.417.06ZM30.236,9H28.891V3.981h1.345ZM28.812,2.682a.66.66,0,0,1,.2-.5.87.87,0,0,1,1.1,0,.656.656,0,0,1,.2.5.658.658,0,0,1-.206.5.86.86,0,0,1-1.09,0A.658.658,0,0,1,28.812,2.682ZM34.249,9a1.489,1.489,0,0,1-.135-.45,1.622,1.622,0,0,1-1.266.543,1.782,1.782,0,0,1-1.222-.427,1.373,1.373,0,0,1-.485-1.076,1.418,1.418,0,0,1,.591-1.225,2.918,2.918,0,0,1,1.709-.431h.617V5.646a.827.827,0,0,0-.179-.557.7.7,0,0,0-.564-.209.8.8,0,0,0-.531.162.552.552,0,0,0-.193.445H31.252a1.347,1.347,0,0,1,.269-.807,1.778,1.778,0,0,1,.761-.582,2.772,2.772,0,0,1,1.1-.211,2.19,2.19,0,0,1,1.473.466,1.631,1.631,0,0,1,.545,1.31V7.84a2.4,2.4,0,0,0,.2,1.081V9ZM33.14,8.068a1.155,1.155,0,0,0,.547-.132.868.868,0,0,0,.371-.355V6.718h-.5q-1.007,0-1.072.7l0,.079a.537.537,0,0,0,.176.413A.685.685,0,0,0,33.14,8.068ZM12.208,18.537a3.01,3.01,0,0,1-.526,1.858,1.688,1.688,0,0,1-1.422.7,1.564,1.564,0,0,1-1.229-.529V22.93H7.69V15.981H8.933l.046.492a1.576,1.576,0,0,1,1.271-.584,1.7,1.7,0,0,1,1.443.687,3.092,3.092,0,0,1,.515,1.893Zm-1.341-.1a1.975,1.975,0,0,0-.248-1.081.808.808,0,0,0-.721-.38.878.878,0,0,0-.867.482v2.055a.893.893,0,0,0,.877.5Q10.867,20.012,10.867,18.439Zm4.991-1.2a3.642,3.642,0,0,0-.482-.037.982.982,0,0,0-1,.515V21H13.038V15.981H14.3l.037.6a1.242,1.242,0,0,1,1.118-.691,1.4,1.4,0,0,1,.417.06ZM17.918,21H16.573V15.981h1.345Zm-1.424-6.318a.66.66,0,0,1,.2-.5.87.87,0,0,1,1.1,0,.708.708,0,0,1,0,1,.86.86,0,0,1-1.09,0A.658.658,0,0,1,16.494,14.682Zm3.785,1.3.042.561a1.764,1.764,0,0,1,1.443-.654,1.339,1.339,0,0,1,1.331.765,1.723,1.723,0,0,1,1.508-.765,1.5,1.5,0,0,1,1.215.475,2.185,2.185,0,0,1,.4,1.431V21H24.872V17.8a.956.956,0,0,0-.167-.624.74.74,0,0,0-.589-.2.837.837,0,0,0-.835.575l0,3.447H21.945V17.8a.944.944,0,0,0-.172-.631.747.747,0,0,0-.584-.195.869.869,0,0,0-.826.473V21H19.022V15.981ZM30.155,21a1.489,1.489,0,0,1-.135-.45,1.622,1.622,0,0,1-1.266.543,1.782,1.782,0,0,1-1.222-.427,1.373,1.373,0,0,1-.485-1.076,1.418,1.418,0,0,1,.591-1.225,2.918,2.918,0,0,1,1.709-.431h.617v-.288a.827.827,0,0,0-.179-.557.7.7,0,0,0-.564-.209.8.8,0,0,0-.531.162.552.552,0,0,0-.193.445H27.158a1.347,1.347,0,0,1,.269-.807,1.778,1.778,0,0,1,.761-.582,2.772,2.772,0,0,1,1.1-.211,2.19,2.19,0,0,1,1.473.466,1.631,1.631,0,0,1,.545,1.31V19.84a2.4,2.4,0,0,0,.2,1.081V21Zm-1.109-.932a1.155,1.155,0,0,0,.547-.132.868.868,0,0,0,.371-.355v-.863h-.5q-1.007,0-1.072.7l0,.079a.537.537,0,0,0,.176.413A.685.685,0,0,0,29.046,20.068ZM18.176,33H16.784l-2.709-4.444V33H12.683V26.246h1.392L16.789,30.7V26.246h1.387Zm.918-2.556a2.977,2.977,0,0,1,.288-1.331,2.105,2.105,0,0,1,.828-.9,2.416,2.416,0,0,1,1.255-.32,2.285,2.285,0,0,1,1.658.622,2.5,2.5,0,0,1,.717,1.688l.009.343a2.623,2.623,0,0,1-.645,1.853,2.5,2.5,0,0,1-3.463,0,2.669,2.669,0,0,1-.647-1.893Zm1.341.1a1.876,1.876,0,0,0,.269,1.094.967.967,0,0,0,1.531,0,2.053,2.053,0,0,0,.274-1.2,1.857,1.857,0,0,0-.274-1.087.89.89,0,0,0-.77-.386.875.875,0,0,0-.761.383A2.087,2.087,0,0,0,20.435,30.539Zm4.309,1.8a.675.675,0,0,1,.216-.52.838.838,0,0,1,1.085,0,.675.675,0,0,1,.216.52.666.666,0,0,1-.213.513.852.852,0,0,1-1.09,0A.666.666,0,0,1,24.744,32.341Z" transform="translate(1225 -1693)" fill="#12263f"/>
    <path id="Trazado_740092" data-name="Trazado 740092" d="M7.326,6.75a2.39,2.39,0,0,1-.8,1.716,2.827,2.827,0,0,1-1.913.626,2.542,2.542,0,0,1-2.043-.874,3.585,3.585,0,0,1-.745-2.4V5.405a4.049,4.049,0,0,1,.343-1.716A2.572,2.572,0,0,1,3.144,2.55a2.748,2.748,0,0,1,1.482-.4A2.753,2.753,0,0,1,6.51,2.78a2.568,2.568,0,0,1,.826,1.758H5.944a1.411,1.411,0,0,0-.364-.949,1.348,1.348,0,0,0-.953-.295,1.182,1.182,0,0,0-1.041.5A2.8,2.8,0,0,0,3.23,5.34v.51a2.991,2.991,0,0,0,.332,1.6,1.16,1.16,0,0,0,1.046.506,1.374,1.374,0,0,0,.963-.295,1.33,1.33,0,0,0,.364-.911ZM11.06,9a1.489,1.489,0,0,1-.135-.45,1.622,1.622,0,0,1-1.266.543,1.782,1.782,0,0,1-1.222-.427A1.373,1.373,0,0,1,7.952,7.59a1.418,1.418,0,0,1,.591-1.225,2.918,2.918,0,0,1,1.709-.431h.617V5.646a.827.827,0,0,0-.179-.557.7.7,0,0,0-.564-.209.8.8,0,0,0-.531.162.552.552,0,0,0-.193.445H8.064a1.347,1.347,0,0,1,.269-.807A1.778,1.778,0,0,1,9.094,4.1a2.772,2.772,0,0,1,1.1-.211,2.19,2.19,0,0,1,1.473.466,1.631,1.631,0,0,1,.545,1.31V7.84a2.4,2.4,0,0,0,.2,1.081V9ZM9.952,8.068a1.155,1.155,0,0,0,.547-.132.868.868,0,0,0,.371-.355V6.718h-.5q-1.007,0-1.072.7l0,.079a.537.537,0,0,0,.176.413A.685.685,0,0,0,9.952,8.068Zm4.527-4.087.042.58a1.752,1.752,0,0,1,1.443-.673,1.456,1.456,0,0,1,1.188.469,2.186,2.186,0,0,1,.4,1.4V9H16.209V5.79a.87.87,0,0,0-.186-.619.831.831,0,0,0-.617-.193.922.922,0,0,0-.849.482V9H13.217V3.981Zm5.692-1.234V3.981h.858v.983h-.858v2.5a.6.6,0,0,0,.107.4.536.536,0,0,0,.408.121,2.138,2.138,0,0,0,.394-.032V8.972a2.76,2.76,0,0,1-.812.121A1.28,1.28,0,0,1,18.83,7.669v-2.7H18.1V3.981h.733V2.747ZM23.19,9H21.845V3.981H23.19ZM21.766,2.682a.66.66,0,0,1,.2-.5.87.87,0,0,1,1.1,0,.656.656,0,0,1,.2.5.658.658,0,0,1-.206.5.86.86,0,0,1-1.09,0A.658.658,0,0,1,21.766,2.682Zm2.319,3.771a3.025,3.025,0,0,1,.526-1.869,1.708,1.708,0,0,1,1.44-.7,1.537,1.537,0,0,1,1.211.547V1.875h1.345V9H27.4l-.065-.533a1.578,1.578,0,0,1-1.29.626,1.7,1.7,0,0,1-1.422-.7A3.122,3.122,0,0,1,24.086,6.453Zm1.341.1a1.981,1.981,0,0,0,.246,1.082.8.8,0,0,0,.714.376.9.9,0,0,0,.877-.525V5.5a.884.884,0,0,0-.867-.525Q25.426,4.978,25.426,6.553ZM32.556,9a1.489,1.489,0,0,1-.135-.45,1.622,1.622,0,0,1-1.266.543,1.782,1.782,0,0,1-1.222-.427,1.373,1.373,0,0,1-.485-1.076,1.418,1.418,0,0,1,.591-1.225,2.918,2.918,0,0,1,1.709-.431h.617V5.646a.827.827,0,0,0-.179-.557.7.7,0,0,0-.564-.209.8.8,0,0,0-.531.162.552.552,0,0,0-.193.445H29.559a1.347,1.347,0,0,1,.269-.807,1.778,1.778,0,0,1,.761-.582,2.772,2.772,0,0,1,1.1-.211,2.19,2.19,0,0,1,1.473.466,1.631,1.631,0,0,1,.545,1.31V7.84a2.4,2.4,0,0,0,.2,1.081V9Zm-1.109-.932a1.155,1.155,0,0,0,.547-.132.868.868,0,0,0,.371-.355V6.718h-.5q-1.007,0-1.072.7l0,.079a.537.537,0,0,0,.176.413A.685.685,0,0,0,31.447,8.068Zm3.085-1.614a3.025,3.025,0,0,1,.526-1.869,1.708,1.708,0,0,1,1.44-.7,1.537,1.537,0,0,1,1.211.547V1.875h1.345V9H37.844l-.065-.533a1.578,1.578,0,0,1-1.29.626,1.7,1.7,0,0,1-1.422-.7A3.122,3.122,0,0,1,34.532,6.453Zm1.341.1a1.981,1.981,0,0,0,.246,1.082.8.8,0,0,0,.714.376.9.9,0,0,0,.877-.525V5.5a.884.884,0,0,0-.867-.525Q35.873,4.978,35.873,6.553ZM7.746,14.747v1.234H8.6v.983H7.746v2.5a.6.6,0,0,0,.107.4.536.536,0,0,0,.408.121,2.138,2.138,0,0,0,.394-.032v1.016a2.76,2.76,0,0,1-.812.121,1.28,1.28,0,0,1-1.438-1.424v-2.7H5.672v-.983h.733V14.747Zm3.915,6.346a2.464,2.464,0,0,1-1.8-.677,2.407,2.407,0,0,1-.693-1.8v-.13a3.032,3.032,0,0,1,.292-1.352,2.145,2.145,0,0,1,.828-.918,2.324,2.324,0,0,1,1.222-.322,2.083,2.083,0,0,1,1.621.649,2.639,2.639,0,0,1,.591,1.842v.547h-3.2a1.245,1.245,0,0,0,.392.789,1.185,1.185,0,0,0,.828.3,1.447,1.447,0,0,0,1.211-.561l.659.738a2.012,2.012,0,0,1-.816.666A2.678,2.678,0,0,1,11.661,21.093Zm-.153-4.124a.838.838,0,0,0-.647.27,1.4,1.4,0,0,0-.318.773h1.865v-.107a1,1,0,0,0-.241-.692A.864.864,0,0,0,11.508,16.969Zm2.769,1.475a2.977,2.977,0,0,1,.288-1.331,2.105,2.105,0,0,1,.828-.9,2.416,2.416,0,0,1,1.255-.32,2.285,2.285,0,0,1,1.658.622,2.5,2.5,0,0,1,.717,1.688l.009.343a2.623,2.623,0,0,1-.645,1.853,2.241,2.241,0,0,1-1.73.7,2.252,2.252,0,0,1-1.733-.7,2.669,2.669,0,0,1-.647-1.893Zm1.341.1a1.876,1.876,0,0,0,.269,1.094.967.967,0,0,0,1.531,0,2.053,2.053,0,0,0,.274-1.2,1.857,1.857,0,0,0-.274-1.087.89.89,0,0,0-.77-.386.875.875,0,0,0-.761.383A2.087,2.087,0,0,0,15.618,18.539Zm1.294-4.664h1.461l-1.285,1.438H16Zm5.766,3.363A3.642,3.642,0,0,0,22.2,17.2a.982.982,0,0,0-1,.515V21H19.858V15.981h1.266l.037.6a1.242,1.242,0,0,1,1.118-.691,1.4,1.4,0,0,1,.417.06ZM24.737,21H23.392V15.981h1.345Zm-1.424-6.318a.66.66,0,0,1,.2-.5.87.87,0,0,1,1.1,0,.708.708,0,0,1,0,1,.86.86,0,0,1-1.09,0A.658.658,0,0,1,23.313,14.682Zm4.615,5.33a.879.879,0,0,0,.6-.2.715.715,0,0,0,.241-.543H30.03a1.72,1.72,0,0,1-.278.935,1.836,1.836,0,0,1-.749.659,2.345,2.345,0,0,1-1.051.234,2.179,2.179,0,0,1-1.7-.684,2.708,2.708,0,0,1-.622-1.89V18.43a2.677,2.677,0,0,1,.617-1.851,2.154,2.154,0,0,1,1.693-.691,2.111,2.111,0,0,1,1.51.536,1.9,1.9,0,0,1,.578,1.426H28.773a.921.921,0,0,0-.241-.637.9.9,0,0,0-1.32.1,1.979,1.979,0,0,0-.239,1.108v.139a2,2,0,0,0,.237,1.115A.818.818,0,0,0,27.929,20.012ZM33.7,21a1.489,1.489,0,0,1-.135-.45,1.622,1.622,0,0,1-1.266.543,1.782,1.782,0,0,1-1.222-.427A1.373,1.373,0,0,1,30.6,19.59a1.418,1.418,0,0,1,.591-1.225,2.918,2.918,0,0,1,1.709-.431h.617v-.288a.827.827,0,0,0-.179-.557.7.7,0,0,0-.564-.209.8.8,0,0,0-.531.162.552.552,0,0,0-.193.445H30.707a1.347,1.347,0,0,1,.269-.807,1.778,1.778,0,0,1,.761-.582,2.772,2.772,0,0,1,1.1-.211,2.19,2.19,0,0,1,1.473.466,1.631,1.631,0,0,1,.545,1.31V19.84a2.4,2.4,0,0,0,.2,1.081V21ZM32.6,20.068a1.155,1.155,0,0,0,.547-.132.868.868,0,0,0,.371-.355v-.863h-.5q-1.007,0-1.072.7l0,.079a.537.537,0,0,0,.176.413A.685.685,0,0,0,32.6,20.068Z" transform="translate(1281 -1685)" fill="#12263f"/>
    <path id="Trazado_740093" data-name="Trazado 740093" d="M7.326,6.75a2.39,2.39,0,0,1-.8,1.716,2.827,2.827,0,0,1-1.913.626,2.542,2.542,0,0,1-2.043-.874,3.585,3.585,0,0,1-.745-2.4V5.405a4.049,4.049,0,0,1,.343-1.716A2.572,2.572,0,0,1,3.144,2.55a2.748,2.748,0,0,1,1.482-.4A2.753,2.753,0,0,1,6.51,2.78a2.568,2.568,0,0,1,.826,1.758H5.944a1.411,1.411,0,0,0-.364-.949,1.348,1.348,0,0,0-.953-.295,1.182,1.182,0,0,0-1.041.5A2.8,2.8,0,0,0,3.23,5.34v.51a2.991,2.991,0,0,0,.332,1.6,1.16,1.16,0,0,0,1.046.506,1.374,1.374,0,0,0,.963-.295,1.33,1.33,0,0,0,.364-.911ZM11.06,9a1.489,1.489,0,0,1-.135-.45,1.622,1.622,0,0,1-1.266.543,1.782,1.782,0,0,1-1.222-.427A1.373,1.373,0,0,1,7.952,7.59a1.418,1.418,0,0,1,.591-1.225,2.918,2.918,0,0,1,1.709-.431h.617V5.646a.827.827,0,0,0-.179-.557.7.7,0,0,0-.564-.209.8.8,0,0,0-.531.162.552.552,0,0,0-.193.445H8.064a1.347,1.347,0,0,1,.269-.807A1.778,1.778,0,0,1,9.094,4.1a2.772,2.772,0,0,1,1.1-.211,2.19,2.19,0,0,1,1.473.466,1.631,1.631,0,0,1,.545,1.31V7.84a2.4,2.4,0,0,0,.2,1.081V9ZM9.952,8.068a1.155,1.155,0,0,0,.547-.132.868.868,0,0,0,.371-.355V6.718h-.5q-1.007,0-1.072.7l0,.079a.537.537,0,0,0,.176.413A.685.685,0,0,0,9.952,8.068Zm4.527-4.087.042.58a1.752,1.752,0,0,1,1.443-.673,1.456,1.456,0,0,1,1.188.469,2.186,2.186,0,0,1,.4,1.4V9H16.209V5.79a.87.87,0,0,0-.186-.619.831.831,0,0,0-.617-.193.922.922,0,0,0-.849.482V9H13.217V3.981Zm5.692-1.234V3.981h.858v.983h-.858v2.5a.6.6,0,0,0,.107.4.536.536,0,0,0,.408.121,2.138,2.138,0,0,0,.394-.032V8.972a2.76,2.76,0,0,1-.812.121A1.28,1.28,0,0,1,18.83,7.669v-2.7H18.1V3.981h.733V2.747ZM23.19,9H21.845V3.981H23.19ZM21.766,2.682a.66.66,0,0,1,.2-.5.87.87,0,0,1,1.1,0,.656.656,0,0,1,.2.5.658.658,0,0,1-.206.5.86.86,0,0,1-1.09,0A.658.658,0,0,1,21.766,2.682Zm2.319,3.771a3.025,3.025,0,0,1,.526-1.869,1.708,1.708,0,0,1,1.44-.7,1.537,1.537,0,0,1,1.211.547V1.875h1.345V9H27.4l-.065-.533a1.578,1.578,0,0,1-1.29.626,1.7,1.7,0,0,1-1.422-.7A3.122,3.122,0,0,1,24.086,6.453Zm1.341.1a1.981,1.981,0,0,0,.246,1.082.8.8,0,0,0,.714.376.9.9,0,0,0,.877-.525V5.5a.884.884,0,0,0-.867-.525Q25.426,4.978,25.426,6.553ZM32.556,9a1.489,1.489,0,0,1-.135-.45,1.622,1.622,0,0,1-1.266.543,1.782,1.782,0,0,1-1.222-.427,1.373,1.373,0,0,1-.485-1.076,1.418,1.418,0,0,1,.591-1.225,2.918,2.918,0,0,1,1.709-.431h.617V5.646a.827.827,0,0,0-.179-.557.7.7,0,0,0-.564-.209.8.8,0,0,0-.531.162.552.552,0,0,0-.193.445H29.559a1.347,1.347,0,0,1,.269-.807,1.778,1.778,0,0,1,.761-.582,2.772,2.772,0,0,1,1.1-.211,2.19,2.19,0,0,1,1.473.466,1.631,1.631,0,0,1,.545,1.31V7.84a2.4,2.4,0,0,0,.2,1.081V9Zm-1.109-.932a1.155,1.155,0,0,0,.547-.132.868.868,0,0,0,.371-.355V6.718h-.5q-1.007,0-1.072.7l0,.079a.537.537,0,0,0,.176.413A.685.685,0,0,0,31.447,8.068Zm3.085-1.614a3.025,3.025,0,0,1,.526-1.869,1.708,1.708,0,0,1,1.44-.7,1.537,1.537,0,0,1,1.211.547V1.875h1.345V9H37.844l-.065-.533a1.578,1.578,0,0,1-1.29.626,1.7,1.7,0,0,1-1.422-.7A3.122,3.122,0,0,1,34.532,6.453Zm1.341.1a1.981,1.981,0,0,0,.246,1.082.8.8,0,0,0,.714.376.9.9,0,0,0,.877-.525V5.5a.884.884,0,0,0-.867-.525Q35.873,4.978,35.873,6.553Zm-20.1,10.685a3.642,3.642,0,0,0-.482-.037.982.982,0,0,0-1,.515V21H12.953V15.981h1.266l.037.6a1.242,1.242,0,0,1,1.118-.691,1.4,1.4,0,0,1,.417.06Zm2.867,3.855a2.464,2.464,0,0,1-1.8-.677,2.407,2.407,0,0,1-.693-1.8v-.13a3.032,3.032,0,0,1,.292-1.352,2.145,2.145,0,0,1,.828-.918,2.324,2.324,0,0,1,1.222-.322,2.083,2.083,0,0,1,1.621.649,2.639,2.639,0,0,1,.591,1.842v.547h-3.2a1.245,1.245,0,0,0,.392.789,1.185,1.185,0,0,0,.828.3,1.447,1.447,0,0,0,1.211-.561l.659.738a2.012,2.012,0,0,1-.816.666A2.678,2.678,0,0,1,18.64,21.093Zm-.153-4.124a.838.838,0,0,0-.647.27,1.4,1.4,0,0,0-.318.773h1.865v-.107a1,1,0,0,0-.241-.692A.864.864,0,0,0,18.487,16.969ZM24.373,21a1.489,1.489,0,0,1-.135-.45,1.622,1.622,0,0,1-1.266.543,1.782,1.782,0,0,1-1.222-.427,1.373,1.373,0,0,1-.485-1.076,1.418,1.418,0,0,1,.591-1.225,2.918,2.918,0,0,1,1.709-.431h.617v-.288A.827.827,0,0,0,24,17.09a.7.7,0,0,0-.564-.209.8.8,0,0,0-.531.162.552.552,0,0,0-.193.445H21.377a1.347,1.347,0,0,1,.269-.807,1.778,1.778,0,0,1,.761-.582,2.772,2.772,0,0,1,1.1-.211,2.19,2.19,0,0,1,1.473.466,1.631,1.631,0,0,1,.545,1.31V19.84a2.4,2.4,0,0,0,.2,1.081V21Zm-1.109-.932a1.155,1.155,0,0,0,.547-.132.868.868,0,0,0,.371-.355v-.863h-.5q-1.007,0-1.072.7l0,.079a.537.537,0,0,0,.176.413A.685.685,0,0,0,23.265,20.068ZM27.973,21H26.628V13.875h1.345Z" transform="translate(1339 -1685)" fill="#12263f"/>
    <path id="Trazado_740094" data-name="Trazado 740094" d="M13.437,6.24H10.765V9H9.373V2.246h4.4V3.373H10.765V5.117h2.672ZM16.7,9.093a2.464,2.464,0,0,1-1.8-.677,2.407,2.407,0,0,1-.693-1.8v-.13A3.032,3.032,0,0,1,14.5,5.129a2.145,2.145,0,0,1,.828-.918,2.324,2.324,0,0,1,1.222-.322,2.083,2.083,0,0,1,1.621.649,2.639,2.639,0,0,1,.591,1.842v.547h-3.2a1.245,1.245,0,0,0,.392.789,1.185,1.185,0,0,0,.828.3A1.447,1.447,0,0,0,18,7.451l.659.738a2.012,2.012,0,0,1-.816.666A2.679,2.679,0,0,1,16.7,9.093Zm-.153-4.124a.838.838,0,0,0-.647.27,1.4,1.4,0,0,0-.318.773h1.865V5.905a1,1,0,0,0-.241-.692A.864.864,0,0,0,16.549,4.969Zm5.065,3.043a.879.879,0,0,0,.6-.2.715.715,0,0,0,.241-.543h1.257a1.72,1.72,0,0,1-.278.935,1.836,1.836,0,0,1-.749.659,2.345,2.345,0,0,1-1.051.234,2.179,2.179,0,0,1-1.7-.684,2.708,2.708,0,0,1-.622-1.89V6.43a2.677,2.677,0,0,1,.617-1.851,2.154,2.154,0,0,1,1.693-.691,2.111,2.111,0,0,1,1.51.536,1.9,1.9,0,0,1,.578,1.426H22.459a.921.921,0,0,0-.241-.637.9.9,0,0,0-1.32.1,1.979,1.979,0,0,0-.239,1.108v.139A2,2,0,0,0,20.9,7.673.818.818,0,0,0,21.615,8.012ZM25.79,4.528a1.673,1.673,0,0,1,1.341-.64q1.633,0,1.656,1.9V9H27.446V5.823a.932.932,0,0,0-.186-.638.8.8,0,0,0-.617-.206.912.912,0,0,0-.854.455V9H24.449V1.875H25.79ZM32.706,9a1.489,1.489,0,0,1-.135-.45,1.622,1.622,0,0,1-1.266.543,1.782,1.782,0,0,1-1.222-.427A1.373,1.373,0,0,1,29.6,7.59a1.418,1.418,0,0,1,.591-1.225A2.918,2.918,0,0,1,31.9,5.934h.617V5.646a.827.827,0,0,0-.179-.557.7.7,0,0,0-.564-.209.8.8,0,0,0-.531.162.552.552,0,0,0-.193.445H29.709a1.347,1.347,0,0,1,.269-.807,1.778,1.778,0,0,1,.761-.582,2.772,2.772,0,0,1,1.1-.211,2.19,2.19,0,0,1,1.473.466,1.631,1.631,0,0,1,.545,1.31V7.84a2.4,2.4,0,0,0,.2,1.081V9ZM31.6,8.068a1.155,1.155,0,0,0,.547-.132.868.868,0,0,0,.371-.355V6.718h-.5q-1.007,0-1.072.7l0,.079a.537.537,0,0,0,.176.413A.685.685,0,0,0,31.6,8.068Zm5.45-1.614a3.025,3.025,0,0,1,.526-1.869,1.708,1.708,0,0,1,1.44-.7,1.537,1.537,0,0,1,1.211.547V1.875H41.57V9H40.36l-.065-.533a1.578,1.578,0,0,1-1.29.626,1.7,1.7,0,0,1-1.422-.7A3.122,3.122,0,0,1,37.048,6.453Zm1.341.1a1.981,1.981,0,0,0,.246,1.082.8.8,0,0,0,.714.376.9.9,0,0,0,.877-.525V5.5a.884.884,0,0,0-.867-.525Q38.388,4.978,38.388,6.553Zm6.531,2.54a2.464,2.464,0,0,1-1.8-.677,2.407,2.407,0,0,1-.693-1.8v-.13a3.032,3.032,0,0,1,.292-1.352,2.145,2.145,0,0,1,.828-.918,2.324,2.324,0,0,1,1.222-.322,2.083,2.083,0,0,1,1.621.649,2.639,2.639,0,0,1,.591,1.842v.547h-3.2a1.245,1.245,0,0,0,.392.789,1.185,1.185,0,0,0,.828.3,1.447,1.447,0,0,0,1.211-.561l.659.738a2.012,2.012,0,0,1-.816.666A2.679,2.679,0,0,1,44.92,9.093Zm-.153-4.124a.838.838,0,0,0-.647.27,1.4,1.4,0,0,0-.318.773h1.865V5.905a1,1,0,0,0-.241-.692A.864.864,0,0,0,44.766,4.969ZM4.238,19.363l.932-3.382h1.4L4.879,21H3.6L1.905,15.981h1.4Zm5.172,1.73a2.464,2.464,0,0,1-1.8-.677,2.407,2.407,0,0,1-.693-1.8v-.13a3.032,3.032,0,0,1,.292-1.352,2.145,2.145,0,0,1,.828-.918,2.324,2.324,0,0,1,1.222-.322,2.083,2.083,0,0,1,1.621.649,2.639,2.639,0,0,1,.591,1.842v.547h-3.2a1.245,1.245,0,0,0,.392.789,1.185,1.185,0,0,0,.828.3,1.447,1.447,0,0,0,1.211-.561l.659.738a2.012,2.012,0,0,1-.816.666A2.678,2.678,0,0,1,9.411,21.093Zm-.153-4.124a.838.838,0,0,0-.647.27,1.4,1.4,0,0,0-.318.773h1.865v-.107a1,1,0,0,0-.241-.692A.864.864,0,0,0,9.257,16.969Zm4.212-.988.042.58a1.752,1.752,0,0,1,1.443-.673,1.456,1.456,0,0,1,1.188.469,2.186,2.186,0,0,1,.4,1.4V21H15.2V17.79a.87.87,0,0,0-.186-.619.831.831,0,0,0-.617-.193.922.922,0,0,0-.849.482V21H12.208V15.981Zm6.174,4.031a.879.879,0,0,0,.6-.2.715.715,0,0,0,.241-.543h1.257a1.72,1.72,0,0,1-.278.935,1.836,1.836,0,0,1-.749.659,2.345,2.345,0,0,1-1.051.234,2.179,2.179,0,0,1-1.7-.684,2.708,2.708,0,0,1-.622-1.89V18.43a2.677,2.677,0,0,1,.617-1.851,2.154,2.154,0,0,1,1.693-.691,2.111,2.111,0,0,1,1.51.536,1.9,1.9,0,0,1,.578,1.426H20.488a.921.921,0,0,0-.241-.637.9.9,0,0,0-1.32.1,1.979,1.979,0,0,0-.239,1.108v.139a2,2,0,0,0,.237,1.115A.818.818,0,0,0,19.643,20.012ZM23.925,21H22.58V15.981h1.345ZM22.5,14.682a.66.66,0,0,1,.2-.5.87.87,0,0,1,1.1,0,.708.708,0,0,1,0,1,.86.86,0,0,1-1.09,0A.658.658,0,0,1,22.5,14.682Zm3.785,1.3.042.561a1.764,1.764,0,0,1,1.443-.654,1.339,1.339,0,0,1,1.331.765,1.723,1.723,0,0,1,1.508-.765,1.5,1.5,0,0,1,1.215.475,2.185,2.185,0,0,1,.4,1.431V21H30.878V17.8a.956.956,0,0,0-.167-.624.74.74,0,0,0-.589-.2.837.837,0,0,0-.835.575l0,3.447H27.951V17.8a.944.944,0,0,0-.172-.631.747.747,0,0,0-.584-.195.869.869,0,0,0-.826.473V21H25.029V15.981ZM34.668,21H33.323V15.981h1.345Zm-1.424-6.318a.66.66,0,0,1,.2-.5.87.87,0,0,1,1.1,0,.708.708,0,0,1,0,1,.86.86,0,0,1-1.09,0A.658.658,0,0,1,33.244,14.682Zm4.838,6.411a2.464,2.464,0,0,1-1.8-.677,2.407,2.407,0,0,1-.693-1.8v-.13a3.032,3.032,0,0,1,.292-1.352,2.145,2.145,0,0,1,.828-.918,2.324,2.324,0,0,1,1.222-.322,2.083,2.083,0,0,1,1.621.649,2.639,2.639,0,0,1,.591,1.842v.547h-3.2a1.245,1.245,0,0,0,.392.789,1.185,1.185,0,0,0,.828.3,1.447,1.447,0,0,0,1.211-.561l.659.738a2.012,2.012,0,0,1-.816.666A2.678,2.678,0,0,1,38.082,21.093Zm-.153-4.124a.838.838,0,0,0-.647.27,1.4,1.4,0,0,0-.318.773h1.865v-.107a1,1,0,0,0-.241-.692A.864.864,0,0,0,37.929,16.969Zm4.212-.988.042.58a1.752,1.752,0,0,1,1.443-.673,1.456,1.456,0,0,1,1.188.469,2.186,2.186,0,0,1,.4,1.4V21H43.871V17.79a.87.87,0,0,0-.186-.619.831.831,0,0,0-.617-.193.922.922,0,0,0-.849.482V21H40.879V15.981Zm5.692-1.234v1.234h.858v.983h-.858v2.5a.6.6,0,0,0,.107.4.536.536,0,0,0,.408.121,2.138,2.138,0,0,0,.394-.032v1.016a2.76,2.76,0,0,1-.812.121,1.28,1.28,0,0,1-1.438-1.424v-2.7h-.733v-.983h.733V14.747Zm1.257,3.7a2.977,2.977,0,0,1,.288-1.331,2.105,2.105,0,0,1,.828-.9,2.416,2.416,0,0,1,1.255-.32,2.285,2.285,0,0,1,1.658.622,2.5,2.5,0,0,1,.717,1.688l.009.343a2.623,2.623,0,0,1-.645,1.853,2.5,2.5,0,0,1-3.463,0A2.669,2.669,0,0,1,49.09,18.5Zm1.341.1a1.876,1.876,0,0,0,.269,1.094.967.967,0,0,0,1.531,0,2.053,2.053,0,0,0,.274-1.2,1.857,1.857,0,0,0-.274-1.087.89.89,0,0,0-.77-.386.875.875,0,0,0-.761.383A2.087,2.087,0,0,0,50.43,18.539Z" transform="translate(1446 -1685)" fill="#12263f"/>
    <path id="Trazado_740095" data-name="Trazado 740095" d="M3.561,9V2.246H5.639a3.156,3.156,0,0,1,1.593.4,2.8,2.8,0,0,1,1.1,1.141A3.52,3.52,0,0,1,8.724,5.47v.311a3.53,3.53,0,0,1-.387,1.675A2.774,2.774,0,0,1,7.244,8.592,3.18,3.18,0,0,1,5.653,9ZM4.953,3.373V7.882h.673a1.511,1.511,0,0,0,1.248-.533,2.411,2.411,0,0,0,.441-1.526V5.465A2.449,2.449,0,0,0,6.887,3.9a1.506,1.506,0,0,0-1.248-.531ZM11.062,9H9.717V3.981h1.345ZM9.638,2.682a.66.66,0,0,1,.2-.5.87.87,0,0,1,1.1,0,.656.656,0,0,1,.2.5.658.658,0,0,1-.206.5.86.86,0,0,1-1.09,0A.658.658,0,0,1,9.638,2.682Zm5.246,4.931a.432.432,0,0,0-.244-.387,2.766,2.766,0,0,0-.782-.253Q12.068,6.6,12.068,5.451a1.379,1.379,0,0,1,.554-1.116,2.236,2.236,0,0,1,1.45-.448,2.407,2.407,0,0,1,1.528.45,1.418,1.418,0,0,1,.573,1.169H14.833a.649.649,0,0,0-.186-.475.785.785,0,0,0-.58-.188A.8.8,0,0,0,13.544,5a.483.483,0,0,0-.186.39.413.413,0,0,0,.211.359,2.171,2.171,0,0,0,.712.237,5.816,5.816,0,0,1,.844.225,1.387,1.387,0,0,1,1.062,1.35A1.309,1.309,0,0,1,15.6,8.668a2.541,2.541,0,0,1-1.521.424,2.654,2.654,0,0,1-1.12-.225,1.88,1.88,0,0,1-.768-.617,1.433,1.433,0,0,1-.278-.847h1.271a.7.7,0,0,0,.264.547,1.049,1.049,0,0,0,.659.19A.971.971,0,0,0,14.687,8,.455.455,0,0,0,14.884,7.613Zm6.684-1.076a3.01,3.01,0,0,1-.526,1.858,1.688,1.688,0,0,1-1.422.7,1.564,1.564,0,0,1-1.229-.529V10.93H17.05V3.981h1.243l.046.492a1.576,1.576,0,0,1,1.271-.584,1.7,1.7,0,0,1,1.443.687,3.092,3.092,0,0,1,.515,1.893Zm-1.341-.1a1.975,1.975,0,0,0-.248-1.081.808.808,0,0,0-.721-.38.878.878,0,0,0-.867.482V7.516a.893.893,0,0,0,.877.5Q20.228,8.012,20.228,6.439Zm4.481,2.653a2.464,2.464,0,0,1-1.8-.677,2.407,2.407,0,0,1-.693-1.8v-.13a3.032,3.032,0,0,1,.292-1.352,2.145,2.145,0,0,1,.828-.918,2.324,2.324,0,0,1,1.222-.322,2.083,2.083,0,0,1,1.621.649,2.639,2.639,0,0,1,.591,1.842v.547h-3.2a1.245,1.245,0,0,0,.392.789,1.185,1.185,0,0,0,.828.3,1.447,1.447,0,0,0,1.211-.561l.659.738a2.012,2.012,0,0,1-.816.666A2.679,2.679,0,0,1,24.709,9.093Zm-.153-4.124a.838.838,0,0,0-.647.27,1.4,1.4,0,0,0-.318.773h1.865V5.905a1,1,0,0,0-.241-.692A.864.864,0,0,0,24.556,4.969Zm4.212-.988.042.58a1.752,1.752,0,0,1,1.443-.673,1.456,1.456,0,0,1,1.188.469,2.186,2.186,0,0,1,.4,1.4V9H30.5V5.79a.87.87,0,0,0-.186-.619.831.831,0,0,0-.617-.193.922.922,0,0,0-.849.482V9H27.506V3.981Zm6.8,3.632a.432.432,0,0,0-.244-.387,2.766,2.766,0,0,0-.782-.253Q32.757,6.6,32.757,5.451a1.379,1.379,0,0,1,.554-1.116,2.236,2.236,0,0,1,1.45-.448,2.407,2.407,0,0,1,1.528.45,1.418,1.418,0,0,1,.573,1.169H35.522a.649.649,0,0,0-.186-.475.785.785,0,0,0-.58-.188A.8.8,0,0,0,34.232,5a.483.483,0,0,0-.186.39.413.413,0,0,0,.211.359,2.171,2.171,0,0,0,.712.237,5.816,5.816,0,0,1,.844.225,1.387,1.387,0,0,1,1.062,1.35,1.309,1.309,0,0,1-.589,1.111,2.541,2.541,0,0,1-1.521.424,2.654,2.654,0,0,1-1.12-.225,1.88,1.88,0,0,1-.768-.617A1.433,1.433,0,0,1,32.6,7.4H33.87a.7.7,0,0,0,.264.547,1.049,1.049,0,0,0,.659.19A.971.971,0,0,0,35.375,8,.455.455,0,0,0,35.573,7.613ZM40.647,9a1.489,1.489,0,0,1-.135-.45,1.622,1.622,0,0,1-1.266.543,1.782,1.782,0,0,1-1.222-.427,1.373,1.373,0,0,1-.485-1.076,1.418,1.418,0,0,1,.591-1.225,2.918,2.918,0,0,1,1.709-.431h.617V5.646a.827.827,0,0,0-.179-.557.7.7,0,0,0-.564-.209.8.8,0,0,0-.531.162.552.552,0,0,0-.193.445H37.651a1.347,1.347,0,0,1,.269-.807,1.778,1.778,0,0,1,.761-.582,2.772,2.772,0,0,1,1.1-.211,2.19,2.19,0,0,1,1.473.466,1.631,1.631,0,0,1,.545,1.31V7.84A2.4,2.4,0,0,0,42,8.921V9Zm-1.109-.932a1.155,1.155,0,0,0,.547-.132.868.868,0,0,0,.371-.355V6.718h-.5q-1.007,0-1.072.7l0,.079a.537.537,0,0,0,.176.413A.685.685,0,0,0,39.539,8.068Zm3.085-1.614a3.025,3.025,0,0,1,.526-1.869,1.708,1.708,0,0,1,1.44-.7,1.537,1.537,0,0,1,1.211.547V1.875h1.345V9H45.935l-.065-.533a1.578,1.578,0,0,1-1.29.626,1.7,1.7,0,0,1-1.422-.7A3.122,3.122,0,0,1,42.623,6.453Zm1.341.1a1.981,1.981,0,0,0,.246,1.082.8.8,0,0,0,.714.376.9.9,0,0,0,.877-.525V5.5a.884.884,0,0,0-.867-.525Q43.964,4.978,43.964,6.553Zm4.012-.109a2.977,2.977,0,0,1,.288-1.331,2.105,2.105,0,0,1,.828-.9,2.416,2.416,0,0,1,1.255-.32,2.285,2.285,0,0,1,1.658.622A2.5,2.5,0,0,1,52.722,6.2l.009.343a2.623,2.623,0,0,1-.645,1.853,2.5,2.5,0,0,1-3.463,0A2.669,2.669,0,0,1,47.976,6.5Zm1.341.1a1.876,1.876,0,0,0,.269,1.094.967.967,0,0,0,1.531,0,2.053,2.053,0,0,0,.274-1.2,1.857,1.857,0,0,0-.274-1.087.89.89,0,0,0-.77-.386.875.875,0,0,0-.761.383A2.087,2.087,0,0,0,49.317,6.539Zm-23.377,12a3.01,3.01,0,0,1-.526,1.858,1.688,1.688,0,0,1-1.422.7,1.564,1.564,0,0,1-1.229-.529V22.93H21.422V15.981h1.243l.046.492a1.576,1.576,0,0,1,1.271-.584,1.7,1.7,0,0,1,1.443.687,3.092,3.092,0,0,1,.515,1.893Zm-1.341-.1a1.975,1.975,0,0,0-.248-1.081.808.808,0,0,0-.721-.38.878.878,0,0,0-.867.482v2.055a.893.893,0,0,0,.877.5Q24.6,20.012,24.6,18.439Zm1.962,0a2.977,2.977,0,0,1,.288-1.331,2.105,2.105,0,0,1,.828-.9,2.416,2.416,0,0,1,1.255-.32,2.285,2.285,0,0,1,1.658.622,2.5,2.5,0,0,1,.717,1.688l.009.343a2.623,2.623,0,0,1-.645,1.853,2.5,2.5,0,0,1-3.463,0,2.669,2.669,0,0,1-.647-1.893Zm1.341.1a1.876,1.876,0,0,0,.269,1.094.967.967,0,0,0,1.531,0,2.053,2.053,0,0,0,.274-1.2,1.857,1.857,0,0,0-.274-1.087.89.89,0,0,0-.77-.386.875.875,0,0,0-.761.383A2.087,2.087,0,0,0,27.9,18.539Zm7.06-1.3a3.642,3.642,0,0,0-.482-.037.982.982,0,0,0-1,.515V21H32.142V15.981h1.266l.037.6a1.242,1.242,0,0,1,1.118-.691,1.4,1.4,0,0,1,.417.06Z" transform="translate(1503 -1685)" fill="#12263f"/>
    <path id="Trazado_740096" data-name="Trazado 740096" d="M9.26,7.325l1.531-5.079H12.34L9.988,9H8.536L6.194,2.246H7.738Zm5.733,1.767a2.464,2.464,0,0,1-1.8-.677,2.407,2.407,0,0,1-.693-1.8v-.13a3.032,3.032,0,0,1,.292-1.352,2.145,2.145,0,0,1,.828-.918,2.324,2.324,0,0,1,1.222-.322,2.083,2.083,0,0,1,1.621.649,2.639,2.639,0,0,1,.591,1.842v.547h-3.2a1.245,1.245,0,0,0,.392.789,1.185,1.185,0,0,0,.828.3,1.447,1.447,0,0,0,1.211-.561l.659.738a2.012,2.012,0,0,1-.816.666A2.679,2.679,0,0,1,14.993,9.093ZM14.84,4.969a.838.838,0,0,0-.647.27,1.4,1.4,0,0,0-.318.773H15.74V5.905a1,1,0,0,0-.241-.692A.864.864,0,0,0,14.84,4.969Zm5.8.269a3.642,3.642,0,0,0-.482-.037.982.982,0,0,0-1,.515V9H17.818V3.981h1.266l.037.6a1.242,1.242,0,0,1,1.118-.691,1.4,1.4,0,0,1,.417.06ZM22.7,9H21.353V3.981H22.7ZM21.274,2.682a.66.66,0,0,1,.2-.5.87.87,0,0,1,1.1,0,.656.656,0,0,1,.2.5.658.658,0,0,1-.206.5.86.86,0,0,1-1.09,0A.658.658,0,0,1,21.274,2.682ZM24.127,9V4.964H23.38V3.981h.747V3.749a1.882,1.882,0,0,1,.582-1.459,2.342,2.342,0,0,1,1.617-.513,5.362,5.362,0,0,1,1.521.274L27.652,3.16a5.936,5.936,0,0,0-.705-.174,3.464,3.464,0,0,0-.538-.039q-.937,0-.937.83v.2h.988v.983h-.988V9Zm4.346,0H27.128V3.981h1.345Zm3.2-.988a.879.879,0,0,0,.6-.2.715.715,0,0,0,.241-.543h1.257a1.72,1.72,0,0,1-.278.935,1.836,1.836,0,0,1-.749.659,2.345,2.345,0,0,1-1.051.234,2.179,2.179,0,0,1-1.7-.684,2.708,2.708,0,0,1-.622-1.89V6.43a2.677,2.677,0,0,1,.617-1.851,2.154,2.154,0,0,1,1.693-.691,2.111,2.111,0,0,1,1.51.536,1.9,1.9,0,0,1,.578,1.426H32.513a.921.921,0,0,0-.241-.637.9.9,0,0,0-1.32.1,1.979,1.979,0,0,0-.239,1.108v.139a2,2,0,0,0,.237,1.115A.818.818,0,0,0,31.669,8.012ZM37.444,9a1.489,1.489,0,0,1-.135-.45,1.622,1.622,0,0,1-1.266.543,1.782,1.782,0,0,1-1.222-.427,1.373,1.373,0,0,1-.485-1.076,1.418,1.418,0,0,1,.591-1.225,2.918,2.918,0,0,1,1.709-.431h.617V5.646a.827.827,0,0,0-.179-.557.7.7,0,0,0-.564-.209.8.8,0,0,0-.531.162.552.552,0,0,0-.193.445H34.448a1.347,1.347,0,0,1,.269-.807,1.778,1.778,0,0,1,.761-.582,2.772,2.772,0,0,1,1.1-.211,2.19,2.19,0,0,1,1.473.466,1.631,1.631,0,0,1,.545,1.31V7.84a2.4,2.4,0,0,0,.2,1.081V9Zm-1.109-.932a1.155,1.155,0,0,0,.547-.132.868.868,0,0,0,.371-.355V6.718h-.5q-1.007,0-1.072.7l0,.079a.537.537,0,0,0,.176.413A.685.685,0,0,0,36.336,8.068ZM39.42,6.453a3.025,3.025,0,0,1,.526-1.869,1.708,1.708,0,0,1,1.44-.7,1.537,1.537,0,0,1,1.211.547V1.875h1.345V9H42.732l-.065-.533a1.578,1.578,0,0,1-1.29.626,1.7,1.7,0,0,1-1.422-.7A3.122,3.122,0,0,1,39.42,6.453Zm1.341.1a1.981,1.981,0,0,0,.246,1.082.8.8,0,0,0,.714.376.9.9,0,0,0,.877-.525V5.5a.884.884,0,0,0-.867-.525Q40.761,4.978,40.761,6.553Zm4.012-.109a2.977,2.977,0,0,1,.288-1.331,2.105,2.105,0,0,1,.828-.9,2.416,2.416,0,0,1,1.255-.32A2.285,2.285,0,0,1,48.8,4.51,2.5,2.5,0,0,1,49.519,6.2l.009.343a2.623,2.623,0,0,1-.645,1.853,2.5,2.5,0,0,1-3.463,0A2.669,2.669,0,0,1,44.773,6.5Zm1.341.1a1.876,1.876,0,0,0,.269,1.094.967.967,0,0,0,1.531,0,2.053,2.053,0,0,0,.274-1.2,1.857,1.857,0,0,0-.274-1.087.89.89,0,0,0-.77-.386.875.875,0,0,0-.761.383A2.087,2.087,0,0,0,46.114,6.539Zm-20.174,12a3.01,3.01,0,0,1-.526,1.858,1.688,1.688,0,0,1-1.422.7,1.564,1.564,0,0,1-1.229-.529V22.93H21.422V15.981h1.243l.046.492a1.576,1.576,0,0,1,1.271-.584,1.7,1.7,0,0,1,1.443.687,3.092,3.092,0,0,1,.515,1.893Zm-1.341-.1a1.975,1.975,0,0,0-.248-1.081.808.808,0,0,0-.721-.38.878.878,0,0,0-.867.482v2.055a.893.893,0,0,0,.877.5Q24.6,20.012,24.6,18.439Zm1.962,0a2.977,2.977,0,0,1,.288-1.331,2.105,2.105,0,0,1,.828-.9,2.416,2.416,0,0,1,1.255-.32,2.285,2.285,0,0,1,1.658.622,2.5,2.5,0,0,1,.717,1.688l.009.343a2.623,2.623,0,0,1-.645,1.853,2.5,2.5,0,0,1-3.463,0,2.669,2.669,0,0,1-.647-1.893Zm1.341.1a1.876,1.876,0,0,0,.269,1.094.967.967,0,0,0,1.531,0,2.053,2.053,0,0,0,.274-1.2,1.857,1.857,0,0,0-.274-1.087.89.89,0,0,0-.77-.386.875.875,0,0,0-.761.383A2.087,2.087,0,0,0,27.9,18.539Zm7.06-1.3a3.642,3.642,0,0,0-.482-.037.982.982,0,0,0-1,.515V21H32.142V15.981h1.266l.037.6a1.242,1.242,0,0,1,1.118-.691,1.4,1.4,0,0,1,.417.06Z" transform="translate(1560 -1685)" fill="#12263f"/>
    <path id="Trazado_740097" data-name="Trazado 740097" d="M13.064,7.882h2.955V9H11.673V2.246h1.392ZM16.52,6.444a2.977,2.977,0,0,1,.288-1.331,2.105,2.105,0,0,1,.828-.9,2.416,2.416,0,0,1,1.255-.32,2.285,2.285,0,0,1,1.658.622A2.5,2.5,0,0,1,21.265,6.2l.009.343a2.623,2.623,0,0,1-.645,1.853,2.241,2.241,0,0,1-1.73.7,2.252,2.252,0,0,1-1.733-.7A2.669,2.669,0,0,1,16.52,6.5Zm1.341.1a1.876,1.876,0,0,0,.269,1.094.967.967,0,0,0,1.531,0,2.053,2.053,0,0,0,.274-1.2,1.857,1.857,0,0,0-.274-1.087.89.89,0,0,0-.77-.386.875.875,0,0,0-.761.383A2.087,2.087,0,0,0,17.861,6.539Zm5.845-3.792V3.981h.858v.983h-.858v2.5a.6.6,0,0,0,.107.4.536.536,0,0,0,.408.121,2.138,2.138,0,0,0,.394-.032V8.972a2.76,2.76,0,0,1-.812.121,1.28,1.28,0,0,1-1.438-1.424v-2.7h-.733V3.981h.733V2.747ZM27.62,9.093a2.464,2.464,0,0,1-1.8-.677,2.407,2.407,0,0,1-.693-1.8v-.13a3.032,3.032,0,0,1,.292-1.352,2.145,2.145,0,0,1,.828-.918,2.324,2.324,0,0,1,1.222-.322,2.083,2.083,0,0,1,1.621.649,2.639,2.639,0,0,1,.591,1.842v.547h-3.2a1.245,1.245,0,0,0,.392.789,1.185,1.185,0,0,0,.828.3,1.447,1.447,0,0,0,1.211-.561l.659.738a2.012,2.012,0,0,1-.816.666A2.679,2.679,0,0,1,27.62,9.093Zm-.153-4.124a.838.838,0,0,0-.647.27,1.4,1.4,0,0,0-.318.773h1.865V5.905a1,1,0,0,0-.241-.692A.864.864,0,0,0,27.467,4.969Z" transform="translate(1395 -1682)" fill="#12263f"/>
    <path id="Trazado_740050" data-name="Trazado 740050" d="M0,0H401.76V279.72H0Z" transform="translate(1216.24 -1723.86)" fill="none"/>
    <path id="Trazado_740051" data-name="Trazado 740051" d="M3.711,0H2.835V-5.578a4.524,4.524,0,0,1-.829.6,5.878,5.878,0,0,1-.922.452v-.846a5.287,5.287,0,0,0,1.284-.836,3.29,3.29,0,0,0,.778-.953h.564Z" transform="translate(1242.578 -1635.645)" fill="#040405"/>
    <path id="Trazado_740052" data-name="Trazado 740052" d="M0,0H401.76V279.72H0Z" transform="translate(1216.24 -1723.86)" fill="none"/>
    <g id="Grupo_172329" data-name="Grupo 172329" transform="translate(1110.771 -1979.755)" clip-path="url(#clip-path)">
      <text id="_2" data-name="2" transform="translate(131.806 363.282)" fill="#040405" font-size="9.96" font-family="ArialMT, Arial"><tspan x="0" y="0">2</tspan></text>
    </g>
    <g id="Grupo_172357" data-name="Grupo 172357" transform="translate(1110.771 -1979.755)" clip-path="url(#clip-path-2)">
      <g id="Grupo_172332" data-name="Grupo 172332">
        <g id="Grupo_172331" data-name="Grupo 172331" clip-path="url(#clip-path)">
          <text id="_3" data-name="3" transform="translate(131.806 382.454)" fill="#040405" font-size="9.96" font-family="ArialMT, Arial"><tspan x="0" y="0">3</tspan></text>
        </g>
      </g>
      <g id="Grupo_172356" data-name="Grupo 172356">
        <g id="Grupo_172355" data-name="Grupo 172355" clip-path="url(#clip-path-2)">
          <g id="Grupo_172334" data-name="Grupo 172334">
            <g id="Grupo_172333" data-name="Grupo 172333" clip-path="url(#clip-path)">
              <text id="_4" data-name="4" transform="translate(131.806 401.634)" fill="#040405" font-size="9.96" font-family="ArialMT, Arial"><tspan x="0" y="0">4</tspan></text>
            </g>
          </g>
          <g id="Grupo_172354" data-name="Grupo 172354">
            <g id="Grupo_172353" data-name="Grupo 172353" clip-path="url(#clip-path-2)">
              <g id="Grupo_172336" data-name="Grupo 172336">
                <g id="Grupo_172335" data-name="Grupo 172335" clip-path="url(#clip-path)">
                  <text id="_5" data-name="5" transform="translate(131.806 420.806)" fill="#040405" font-size="9.96" font-family="ArialMT, Arial"><tspan x="0" y="0">5</tspan></text>
                </g>
              </g>
              <g id="Grupo_172352" data-name="Grupo 172352">
                <g id="Grupo_172351" data-name="Grupo 172351" clip-path="url(#clip-path-2)">
                  <g id="Grupo_172338" data-name="Grupo 172338">
                    <g id="Grupo_172337" data-name="Grupo 172337" clip-path="url(#clip-path)">
                      <text id="_" data-name="…" transform="translate(129.525 439.97)" fill="#040405" font-size="9.96" font-family="ArialMT, Arial"><tspan x="0" y="0">…</tspan></text>
                    </g>
                  </g>
                  <g id="Grupo_172350" data-name="Grupo 172350">
                    <g id="Grupo_172349" data-name="Grupo 172349" clip-path="url(#clip-path-2)">
                      <g id="Grupo_172340" data-name="Grupo 172340">
                        <g id="Grupo_172339" data-name="Grupo 172339" clip-path="url(#clip-path)">
                          <text id="_34" data-name="34" transform="translate(129.049 459.157)" fill="#040405" font-size="9.96" font-family="ArialMT, Arial"><tspan x="0" y="0">34</tspan></text>
                        </g>
                      </g>
                      <g id="Grupo_172348" data-name="Grupo 172348">
                        <g id="Grupo_172347" data-name="Grupo 172347" clip-path="url(#clip-path-2)">
                          <g id="Grupo_172342" data-name="Grupo 172342">
                            <g id="Grupo_172341" data-name="Grupo 172341" clip-path="url(#clip-path)">
                              <text id="Especificar_en_las_siguientes_casillas_si_se_tiene_más_de_un_lote_de_la_misma_" data-name="Especificar en las siguientes casillas si se tiene más de un lote de la misma " transform="translate(127.346 478.321)" fill="#12263f" font-size="10" font-family="Roboto-Regular, Roboto"><tspan x="0" y="0">Especificar en las siguientes casillas si se tiene más de un lote de la misma </tspan></text>
                            </g>
                          </g>
                          <g id="Grupo_172346" data-name="Grupo 172346">
                            <g id="Grupo_172345" data-name="Grupo 172345" clip-path="url(#clip-path-2)">
                              <g id="Grupo_172344" data-name="Grupo 172344">
                                <g id="Grupo_172343" data-name="Grupo 172343" clip-path="url(#clip-path)">
                                  <text id="materia_prima_o_más_materiales_para_la_fabricación." data-name="materia prima o más materiales para la fabricación." transform="translate(185.064 490.329)" fill="#12263f" font-size="10" font-family="Roboto-Regular, Roboto"><tspan x="0" y="0">materia prima o más materiales para la fabricación.</tspan></text>
                                </g>
                              </g>
                            </g>
                          </g>
                        </g>
                      </g>
                    </g>
                  </g>
                </g>
              </g>
            </g>
          </g>
        </g>
      </g>
    </g>
    <path id="Trazado_208714" data-name="Trazado 208714" d="M105.469,535.615h401.76V255.895H105.469v279.72Z" transform="translate(1110.771 -1979.755)" fill="none" fill-rule="evenodd"/>
    <path id="Trazado_208715" data-name="Trazado 208715" d="M105.469,535.615h401.76V255.895H105.469v279.72Z" transform="translate(1110.771 -1979.755)" fill="none" fill-rule="evenodd"/>
    <path id="Trazado_208716" data-name="Trazado 208716" d="M105.469,535.615h401.76V255.895H105.469v279.72Z" transform="translate(1110.771 -1979.755)" fill="none" fill-rule="evenodd"/>
    <path id="Trazado_208717" data-name="Trazado 208717" d="M105.469,535.615h401.76V255.895H105.469v279.72Z" transform="translate(1110.771 -1979.755)" fill="none" fill-rule="evenodd"/>
    <path id="Trazado_208718" data-name="Trazado 208718" d="M105.469,535.615h401.76V255.895H105.469v279.72Z" transform="translate(1110.771 -1979.755)" fill="none" fill-rule="evenodd"/>
    <path id="Trazado_208719" data-name="Trazado 208719" d="M105.469,535.615h401.76V255.895H105.469v279.72Z" transform="translate(1110.771 -1979.755)" fill="none" fill-rule="evenodd"/>
    <path id="Trazado_208720" data-name="Trazado 208720" d="M105.469,535.615h401.76V255.895H105.469v279.72Z" transform="translate(1110.771 -1979.755)" fill="none" fill-rule="evenodd"/>
  </g>
</svg>
