<svg xmlns="http://www.w3.org/2000/svg" xmlns:xlink="http://www.w3.org/1999/xlink" width="478.3" height="122.027" viewBox="0 0 478.3 122.027">
  <defs>
    <clipPath id="clip-path">
      <rect id="Rectángulo_49723" data-name="Rectángulo 49723" width="478" height="122" transform="translate(0 -0.001)" fill="none"/>
    </clipPath>
    <clipPath id="clip-path-2">
      <path id="Trazado_208750" data-name="Trazado 208750" d="M112.392,393.341H590.377V271.372H112.392V393.341Z" transform="translate(-112.392 -271.372)" fill="none" clip-rule="evenodd"/>
    </clipPath>
  </defs>
  <g id="Grupo_172396" data-name="Grupo 172396" transform="translate(-1178 772.027)">
    <rect id="Rectángulo_49726" data-name="Rectángulo 49726" width="477" height="21" transform="translate(1178 -772)" fill="#15d3ec"/>
    <rect id="Rectángulo_49727" data-name="Rectángulo 49727" width="477" height="34" transform="translate(1178 -750)" fill="#81d4fa"/>
    <g id="Grupo_172395" data-name="Grupo 172395" transform="translate(1065.908 -1043.399)">
      <line id="Línea_525" data-name="Línea 525" y2="98.677" transform="translate(190.099 292.529)" fill="none" stroke="#040405" stroke-linejoin="round" stroke-width="1"/>
      <line id="Línea_526" data-name="Línea 526" y2="98.677" transform="translate(259.473 292.529)" fill="none" stroke="#040405" stroke-linejoin="round" stroke-width="1"/>
      <line id="Línea_527" data-name="Línea 527" y2="98.677" transform="translate(351.657 292.529)" fill="none" stroke="#040405" stroke-linejoin="round" stroke-width="1"/>
      <line id="Línea_528" data-name="Línea 528" y2="64.393" transform="translate(414.38 326.813)" fill="none" stroke="#040405" stroke-linejoin="round" stroke-width="1"/>
      <line id="Línea_529" data-name="Línea 529" y2="64.393" transform="translate(437.189 326.813)" fill="none" stroke="#040405" stroke-linejoin="round" stroke-width="1"/>
      <line id="Línea_530" data-name="Línea 530" y2="98.677" transform="translate(496.11 292.529)" fill="none" stroke="#040405" stroke-linejoin="round" stroke-width="1"/>
      <line id="Línea_531" data-name="Línea 531" x2="477.353" transform="translate(112.442 293.078)" fill="none" stroke="#040405" stroke-linejoin="round" stroke-width="1"/>
      <line id="Línea_532" data-name="Línea 532" x2="477.353" transform="translate(112.442 327.362)" fill="none" stroke="#040405" stroke-linejoin="round" stroke-width="1"/>
      <line id="Línea_533" data-name="Línea 533" x2="477.353" transform="translate(112.442 348.46)" fill="none" stroke="#040405" stroke-linejoin="round" stroke-width="1"/>
      <line id="Línea_534" data-name="Línea 534" x2="477.353" transform="translate(112.442 369.559)" fill="none" stroke="#040405" stroke-linejoin="round" stroke-width="1"/>
      <line id="Línea_535" data-name="Línea 535" y2="119.775" transform="translate(112.991 271.431)" fill="none" stroke="#040405" stroke-linejoin="round" stroke-width="1"/>
      <line id="Línea_536" data-name="Línea 536" y2="119.775" transform="translate(589.245 271.431)" fill="none" stroke="#040405" stroke-linejoin="round" stroke-width="1"/>
      <line id="Línea_537" data-name="Línea 537" x2="477.353" transform="translate(112.442 271.98)" fill="none" stroke="#040405" stroke-linejoin="round" stroke-width="1"/>
      <line id="Línea_538" data-name="Línea 538" x2="477.353" transform="translate(112.442 390.657)" fill="none" stroke="#040405" stroke-linejoin="round" stroke-width="1"/>
      <text id="Información_para_envasado_volumen_o_densidad_" data-name="Información para envasado (volumen o densidad)" transform="translate(239.628 285.716)" fill="#fff" font-size="9" font-family="Roboto-Bold, Roboto" font-weight="700"><tspan x="0" y="0">Información para envasado (volumen o densidad)</tspan></text>
      <rect id="Rectángulo_49708" data-name="Rectángulo 49708" width="478" height="122" transform="translate(112.092 271.399)" fill="none"/>
      <text id="Vo._Bo._para_" data-name="Vo. Bo. para " transform="translate(510.678 306.817)" fill="#040405" font-size="9" font-family="Roboto-Bold, Roboto" font-weight="700"><tspan x="0" y="0">Vo. Bo. para </tspan></text>
      <rect id="Rectángulo_49709" data-name="Rectángulo 49709" width="478" height="122" transform="translate(112.092 271.399)" fill="none"/>
      <text id="llenado" transform="translate(523.469 320.003)" fill="#040405" font-size="9" font-family="Roboto-Bold, Roboto" font-weight="700"><tspan x="0" y="0">llenado</tspan></text>
      <rect id="Rectángulo_49710" data-name="Rectángulo 49710" width="478" height="122" transform="translate(112.092 271.399)" fill="none"/>
      <text id="Intervalo_de_llenado_" data-name="Intervalo de llenado " transform="translate(372.391 306.817)" fill="#040405" font-size="9" font-family="Roboto-Bold, Roboto" font-weight="700"><tspan x="0" y="0">Intervalo de llenado </tspan></text>
      <rect id="Rectángulo_49711" data-name="Rectángulo 49711" width="478" height="122" transform="translate(112.092 271.399)" fill="none"/>
      <text id="_m" data-name="(m" transform="translate(383.336 320.003)" fill="#040405" font-size="9" font-family="Roboto-Bold, Roboto" font-weight="700"><tspan x="0" y="0">(m</tspan></text>
      <rect id="Rectángulo_49712" data-name="Rectángulo 49712" width="478" height="122" transform="translate(112.092 271.399)" fill="none"/>
      <text id="í" transform="translate(396.788 320.003)" fill="#040405" font-size="9" font-family="Roboto-Bold, Roboto" font-weight="700"><tspan x="0" y="0">í</tspan></text>
      <rect id="Rectángulo_49713" data-name="Rectángulo 49713" width="478" height="122" transform="translate(112.092 271.399)" fill="none"/>
      <text id="n._" data-name="n. " transform="translate(399.818 320.003)" fill="#040405" font-size="9" font-family="Roboto-Bold, Roboto" font-weight="700"><tspan x="0" y="0">n. </tspan></text>
      <rect id="Rectángulo_49714" data-name="Rectángulo 49714" width="478" height="122" transform="translate(112.092 271.399)" fill="none"/>
      <text id="_" data-name="–" transform="translate(409.312 320.003)" fill="#040405" font-size="9" font-family="Roboto-Bold, Roboto" font-weight="700"><tspan x="0" y="0">–</tspan></text>
      <rect id="Rectángulo_49715" data-name="Rectángulo 49715" width="478" height="122" transform="translate(112.092 271.399)" fill="none"/>
      <text id="máx._g_" data-name="máx.) (g)" transform="translate(418.678 320.003)" fill="#040405" font-size="9" font-family="Roboto-Bold, Roboto" font-weight="700"><tspan x="0" y="0">máx.) (g)</tspan></text>
      <rect id="Rectángulo_49716" data-name="Rectángulo 49716" width="478" height="122" transform="translate(112.092 271.399)" fill="none"/>
      <text id="Densidad_" data-name="Densidad " transform="translate(280.897 306.817)" fill="#040405" font-size="9" font-family="Roboto-Bold, Roboto" font-weight="700"><tspan x="0" y="0">Densidad </tspan></text>
      <rect id="Rectángulo_49717" data-name="Rectángulo 49717" width="478" height="122" transform="translate(112.092 271.399)" fill="none"/>
      <text id="_mg_ml_" data-name="(mg/ml)" transform="translate(285.644 320.003)" fill="#040405" font-size="9" font-family="Roboto-Bold, Roboto" font-weight="700"><tspan x="0" y="0">(mg/ml)</tspan></text>
      <rect id="Rectángulo_49718" data-name="Rectángulo 49718" width="478" height="122" transform="translate(112.092 271.399)" fill="none"/>
      <text id="Volumen_" data-name="Volumen " transform="translate(201.628 306.817)" fill="#040405" font-size="9" font-family="Roboto-Bold, Roboto" font-weight="700"><tspan x="0" y="0">Volumen </tspan></text>
      <rect id="Rectángulo_49719" data-name="Rectángulo 49719" width="478" height="122" transform="translate(112.092 271.399)" fill="none"/>
      <text id="_ml_" data-name="(ml)" transform="translate(214.685 320.003)" fill="#040405" font-size="9" font-family="Roboto-Bold, Roboto" font-weight="700"><tspan x="0" y="0">(ml)</tspan></text>
      <rect id="Rectángulo_49720" data-name="Rectángulo 49720" width="478" height="122" transform="translate(112.092 271.399)" fill="none"/>
      <text id="Stock" transform="translate(136.609 306.817)" fill="#040405" font-size="9" font-family="Roboto-BoldItalic, Roboto" font-weight="700" font-style="italic"><tspan x="0" y="0">Stock</tspan></text>
      <rect id="Rectángulo_49721" data-name="Rectángulo 49721" width="478" height="122" transform="translate(112.092 271.399)" fill="none"/>
      <text id="producto_" data-name="producto " transform="translate(127.776 320.003)" fill="#040405" font-size="9" font-family="Roboto-Bold, Roboto" font-weight="700"><tspan x="0" y="0">producto </tspan></text>
      <rect id="Rectángulo_49722" data-name="Rectángulo 49722" width="478" height="122" transform="translate(112.092 271.399)" fill="none"/>
      <g id="Grupo_172386" data-name="Grupo 172386" transform="translate(112.092 271.401)">
        <g id="Grupo_172385" data-name="Grupo 172385" transform="translate(0 0)" clip-path="url(#clip-path)">
          <text id="_-" data-name="-" transform="translate(311.849 69.703)" fill="#040405" font-size="10" font-family="ArialMT, Arial"><tspan x="0" y="0">-</tspan></text>
        </g>
      </g>
      <g id="Grupo_172394" data-name="Grupo 172394" transform="translate(112.407 271.372)">
        <g id="Grupo_172393" data-name="Grupo 172393" clip-path="url(#clip-path-2)">
          <g id="Grupo_172388" data-name="Grupo 172388" transform="translate(-0.315 0.028)">
            <g id="Grupo_172387" data-name="Grupo 172387" clip-path="url(#clip-path)">
              <text id="_--2" data-name="-" transform="translate(311.849 90.795)" fill="#040405" font-size="10" font-family="ArialMT, Arial"><tspan x="0" y="0">-</tspan></text>
            </g>
          </g>
          <g id="Grupo_172392" data-name="Grupo 172392">
            <g id="Grupo_172391" data-name="Grupo 172391" clip-path="url(#clip-path-2)">
              <g id="Grupo_172390" data-name="Grupo 172390" transform="translate(-0.315 0.028)">
                <g id="Grupo_172389" data-name="Grupo 172389" clip-path="url(#clip-path)">
                  <text id="_--3" data-name="-" transform="translate(311.849 111.904)" fill="#040405" font-size="10" font-family="ArialMT, Arial"><tspan x="0" y="0">-</tspan></text>
                </g>
              </g>
            </g>
          </g>
        </g>
      </g>
      <path id="Trazado_208751" data-name="Trazado 208751" d="M112.392,393.341H590.377V271.372H112.392V393.341Z" transform="translate(0.015 0)" fill="none" fill-rule="evenodd"/>
      <path id="Trazado_208752" data-name="Trazado 208752" d="M112.392,393.341H590.377V271.372H112.392V393.341Z" transform="translate(0.015 0)" fill="none" fill-rule="evenodd"/>
      <path id="Trazado_208753" data-name="Trazado 208753" d="M112.392,393.341H590.377V271.372H112.392V393.341Z" transform="translate(0.015 0)" fill="none" fill-rule="evenodd"/>
      <path id="Trazado_208754" data-name="Trazado 208754" d="M112.392,393.341H590.377V271.372H112.392V393.341Z" transform="translate(0.015 0)" fill="none" fill-rule="evenodd"/>
      <path id="Trazado_208755" data-name="Trazado 208755" d="M112.392,393.341H590.377V271.372H112.392V393.341Z" transform="translate(0.015 0)" fill="none" fill-rule="evenodd"/>
      <path id="Trazado_208756" data-name="Trazado 208756" d="M112.392,393.341H590.377V271.372H112.392V393.341Z" transform="translate(0.015 0)" fill="none" fill-rule="evenodd"/>
      <path id="Trazado_208757" data-name="Trazado 208757" d="M112.392,393.341H590.377V271.372H112.392V393.341Z" transform="translate(0.015 0)" fill="none" fill-rule="evenodd"/>
      <path id="Trazado_208758" data-name="Trazado 208758" d="M112.392,393.341H590.377V271.372H112.392V393.341Z" transform="translate(0.015 0)" fill="none" fill-rule="evenodd"/>
      <path id="Trazado_208759" data-name="Trazado 208759" d="M112.392,393.341H590.377V271.372H112.392V393.341Z" transform="translate(0.015 0)" fill="none" fill-rule="evenodd"/>
      <path id="Trazado_208760" data-name="Trazado 208760" d="M112.392,393.341H590.377V271.372H112.392V393.341Z" transform="translate(0.015 0)" fill="none" fill-rule="evenodd"/>
      <path id="Trazado_208761" data-name="Trazado 208761" d="M112.392,393.341H590.377V271.372H112.392V393.341Z" transform="translate(0.015 0)" fill="none" fill-rule="evenodd"/>
      <path id="Trazado_208762" data-name="Trazado 208762" d="M112.392,393.341H590.377V271.372H112.392V393.341Z" transform="translate(0.015 0)" fill="none" fill-rule="evenodd"/>
      <path id="Trazado_208763" data-name="Trazado 208763" d="M112.392,393.341H590.377V271.372H112.392V393.341Z" transform="translate(0.015 0)" fill="none" fill-rule="evenodd"/>
      <path id="Trazado_208764" data-name="Trazado 208764" d="M112.392,393.341H590.377V271.372H112.392V393.341Z" transform="translate(0.015 0)" fill="none" fill-rule="evenodd"/>
      <path id="Trazado_208765" data-name="Trazado 208765" d="M112.392,393.341H590.377V271.372H112.392V393.341Z" transform="translate(0.015 0)" fill="none" fill-rule="evenodd"/>
      <path id="Trazado_208766" data-name="Trazado 208766" d="M112.392,393.341H590.377V271.372H112.392V393.341Z" transform="translate(0.015 0)" fill="none" fill-rule="evenodd"/>
    </g>
  </g>
</svg>
