<svg xmlns="http://www.w3.org/2000/svg" xmlns:xlink="http://www.w3.org/1999/xlink" width="397.713" height="507.823" viewBox="0 0 397.713 507.823">
  <defs>
    <clipPath id="clip-path">
      <rect id="Rectángulo_350740" data-name="Rectángulo 350740" width="397.713" height="507.823" fill="none"/>
    </clipPath>
    <clipPath id="clip-path-2">
      <rect id="Rectángulo_350733" data-name="Rectángulo 350733" width="530.537" height="493.125" fill="none"/>
    </clipPath>
    <clipPath id="clip-path-3">
      <rect id="Rectángulo_350731" data-name="Rectángulo 350731" width="30.245" height="303.62" fill="none"/>
    </clipPath>
    <clipPath id="clip-path-4">
      <rect id="Rectángulo_350735" data-name="Rectángulo 350735" width="397.713" height="369.667" fill="none"/>
    </clipPath>
    <clipPath id="clip-path-5">
      <rect id="Rectángulo_350734" data-name="Rectángulo 350734" width="2.546" height="2.538" fill="none"/>
    </clipPath>
    <clipPath id="clip-path-7">
      <rect id="Rectángulo_350736" data-name="Rectángulo 350736" width="38.265" height="3.396" fill="none"/>
    </clipPath>
    <clipPath id="clip-path-8">
      <rect id="Rectángulo_350737" data-name="Rectángulo 350737" width="37.201" height="12.264" fill="none"/>
    </clipPath>
    <clipPath id="clip-path-9">
      <rect id="Rectángulo_350738" data-name="Rectángulo 350738" width="16.917" height="36.335" fill="none"/>
    </clipPath>
  </defs>
  <g id="Grupo_1030268" data-name="Grupo 1030268" transform="translate(0 155)">
    <g id="Grupo_1030267" data-name="Grupo 1030267" transform="translate(0 -155)" clip-path="url(#clip-path)">
      <g id="Grupo_1030250" data-name="Grupo 1030250" transform="translate(-37.255 10.696)">
        <g id="Grupo_1030249" data-name="Grupo 1030249" clip-path="url(#clip-path-2)">
          <path id="Trazado_728340" data-name="Trazado 728340" d="M110.041,34.845H51.734A4.941,4.941,0,0,1,46.8,29.668l1.183-24.7A4.942,4.942,0,0,1,52.918.26h58.306a4.942,4.942,0,0,1,4.936,5.177l-1.183,24.7a4.941,4.941,0,0,1-4.936,4.7" transform="translate(6.996 0.038)" fill="#fafafa"/>
          <path id="Trazado_728341" data-name="Trazado 728341" d="M110.077,34.884A6.1,6.1,0,0,0,112,34.427a4.919,4.919,0,0,0,2.906-4.475c.217-5.012.53-12.215.915-21.1-.018-2.185.718-4.734-.913-6.58A4.65,4.65,0,0,0,111.887.586c-1.2-.091-2.534-.021-3.829-.039L91.316.575,52.959.6a4.669,4.669,0,0,0-3.973,2.237,4.735,4.735,0,0,0-.672,2.239q-.06,1.25-.12,2.491-.241,4.966-.472,9.777t-.46,9.435q-.057,1.155-.113,2.3a5.754,5.754,0,0,0,.148,2.166,4.678,4.678,0,0,0,2.736,3.027,5.1,5.1,0,0,0,2.048.343l2.168,0,4.251.007,8.126.015,14.586.037,21.121.1,5.742.056,1.493.029a3.206,3.206,0,0,1,.509.031,3.206,3.206,0,0,1-.509.031l-1.493.029L102.333,35l-21.121.1-14.586.037-8.126.015-4.251.007-2.168,0a5.654,5.654,0,0,1-2.254-.376A5.228,5.228,0,0,1,46.758,31.4a6.3,6.3,0,0,1-.176-2.351q.053-1.143.108-2.3.217-4.624.445-9.436T47.6,7.537q.06-1.24.12-2.491A5.245,5.245,0,0,1,52.959,0L91.316.023l16.741.028c1.323.026,2.569-.045,3.892.06a5.12,5.12,0,0,1,3.319,1.867,5.2,5.2,0,0,1,1.148,3.473q-.088,1.748-.171,3.42c-.466,8.883-.843,16.083-1.106,21.093A5.079,5.079,0,0,1,114,33.078a4.961,4.961,0,0,1-1.955,1.459,5.019,5.019,0,0,1-1.46.351c-.339.01-.512,0-.512,0" transform="translate(6.959 0)" fill="#263238"/>
          <path id="Trazado_728342" data-name="Trazado 728342" d="M259.618,33.355l2.5-15.611,10.636-6.179,8.731,9.362-2.631,16.01Z" transform="translate(38.814 1.728)" fill="#7e5ee3"/>
          <path id="Trazado_728343" data-name="Trazado 728343" d="M332.747,47.514l-12.906,283.26L111.724,324.86,99.342,303.231,121.725,39.974l193.684-12.82Z" transform="translate(14.852 4.059)" fill="#e0e0e0"/>
          <g id="Grupo_1030248" data-name="Grupo 1030248" transform="translate(317.355 31.214)" opacity="0.3">
            <g id="Grupo_1030247" data-name="Grupo 1030247" transform="translate(0 0)">
              <g id="Grupo_1030246" data-name="Grupo 1030246" clip-path="url(#clip-path-3)">
                <path id="Trazado_728344" data-name="Trazado 728344" d="M293.419,330.774,276.08,310.413,288.985,27.154l17.339,20.36Z" transform="translate(-276.08 -27.154)"/>
              </g>
            </g>
          </g>
          <path id="Trazado_728345" data-name="Trazado 728345" d="M315.408,27.526,302.5,310.786,99.341,303.6,114.709,24.662Z" transform="translate(14.852 3.687)" fill="#fafafa"/>
          <path id="Trazado_728346" data-name="Trazado 728346" d="M315.449,27.559l-200.7-2.622.246-.229c-4.278,77.949-9.579,174.5-15.311,278.945l-.289-.316,3.354.118,199.806,7.091-.282.26c7.783-167.282,13.065-280.83,13.178-283.247-.108,2.416-5.172,115.976-12.633,283.272l-.011.269-.27-.009-199.809-7.037-3.353-.118-.306-.011.017-.3c5.775-104.437,11.115-200.99,15.425-278.938l.013-.233.232,0,200.7,3.107" transform="translate(14.811 3.655)" fill="#263238"/>
          <path id="Trazado_728347" data-name="Trazado 728347" d="M133.393,85.127l70.949,2.081a2.7,2.7,0,0,0,2.775-2.619l.078-2.659a2.7,2.7,0,0,0-2.617-2.776l-70.949-2.079a2.7,2.7,0,0,0-2.775,2.617l-.078,2.659a2.7,2.7,0,0,0,2.617,2.776" transform="translate(19.551 11.522)" fill="#e0e0e0"/>
          <path id="Trazado_728348" data-name="Trazado 728348" d="M132.8,98.673l70.947,2.081a2.7,2.7,0,0,0,2.776-2.619l.078-2.659a2.7,2.7,0,0,0-2.617-2.776l-70.949-2.079a2.7,2.7,0,0,0-2.775,2.617L130.18,95.9a2.7,2.7,0,0,0,2.617,2.776" transform="translate(19.463 13.547)" fill="#e0e0e0"/>
          <path id="Trazado_728349" data-name="Trazado 728349" d="M132.2,112.219l70.949,2.081a2.7,2.7,0,0,0,2.775-2.619l.078-2.659a2.7,2.7,0,0,0-2.617-2.776l-70.947-2.079a2.7,2.7,0,0,0-2.776,2.617l-.078,2.659a2.7,2.7,0,0,0,2.617,2.776" transform="translate(19.374 15.573)" fill="#e0e0e0"/>
          <path id="Trazado_728350" data-name="Trazado 728350" d="M131.608,125.764l70.949,2.082a2.7,2.7,0,0,0,2.775-2.619l.078-2.659a2.7,2.7,0,0,0-2.617-2.776l-70.949-2.079a2.7,2.7,0,0,0-2.775,2.617l-.078,2.659a2.7,2.7,0,0,0,2.617,2.775" transform="translate(19.285 17.597)" fill="#e0e0e0"/>
          <path id="Trazado_728351" data-name="Trazado 728351" d="M131.013,139.31l70.949,2.081a2.7,2.7,0,0,0,2.775-2.619l.078-2.659a2.7,2.7,0,0,0-2.617-2.776l-70.949-2.079a2.7,2.7,0,0,0-2.775,2.617l-.078,2.659a2.7,2.7,0,0,0,2.617,2.776" transform="translate(19.196 19.624)" fill="#e0e0e0"/>
          <path id="Trazado_728352" data-name="Trazado 728352" d="M130.418,152.856l70.948,2.081a2.7,2.7,0,0,0,2.776-2.619l.078-2.659a2.7,2.7,0,0,0-2.617-2.776L130.653,144.8a2.7,2.7,0,0,0-2.775,2.617l-.078,2.659a2.7,2.7,0,0,0,2.617,2.776" transform="translate(19.107 21.648)" fill="#e0e0e0"/>
          <path id="Trazado_728353" data-name="Trazado 728353" d="M129.823,166.4l70.949,2.081a2.7,2.7,0,0,0,2.775-2.619l.078-2.659a2.7,2.7,0,0,0-2.617-2.776l-70.947-2.079a2.7,2.7,0,0,0-2.776,2.617l-.078,2.659a2.7,2.7,0,0,0,2.617,2.776" transform="translate(19.018 23.673)" fill="#e0e0e0"/>
          <path id="Trazado_728354" data-name="Trazado 728354" d="M203.621,154.882l70.949,2.081a2.7,2.7,0,0,0,2.775-2.619l.078-2.659a2.7,2.7,0,0,0-2.617-2.776l-70.949-2.079a2.7,2.7,0,0,0-2.775,2.617L201,152.106a2.7,2.7,0,0,0,2.617,2.776" transform="translate(30.051 21.951)" fill="#e0e0e0"/>
          <path id="Trazado_728355" data-name="Trazado 728355" d="M203.026,168.428l70.947,2.081a2.7,2.7,0,0,0,2.776-2.619l.078-2.659a2.7,2.7,0,0,0-2.617-2.776l-70.949-2.079a2.7,2.7,0,0,0-2.775,2.617l-.078,2.659a2.7,2.7,0,0,0,2.617,2.776" transform="translate(29.962 23.976)" fill="#e0e0e0"/>
          <path id="Trazado_728356" data-name="Trazado 728356" d="M202.308,182.712l70.949,2.079a2.7,2.7,0,0,0,2.775-2.617l.078-2.659a2.7,2.7,0,0,0-2.617-2.776l-70.949-2.079a2.7,2.7,0,0,0-2.775,2.617l-.078,2.659a2.7,2.7,0,0,0,2.617,2.776" transform="translate(29.855 26.112)" fill="#e0e0e0"/>
          <path id="Trazado_728357" data-name="Trazado 728357" d="M201.589,197l70.949,2.079a2.7,2.7,0,0,0,2.775-2.617l.078-2.659a2.7,2.7,0,0,0-2.617-2.776l-70.949-2.079a2.7,2.7,0,0,0-2.775,2.617l-.078,2.659A2.7,2.7,0,0,0,201.589,197" transform="translate(29.747 28.247)" fill="#e0e0e0"/>
          <path id="Trazado_728358" data-name="Trazado 728358" d="M200.871,211.281l70.949,2.081a2.7,2.7,0,0,0,2.775-2.619l.078-2.659a2.7,2.7,0,0,0-2.617-2.776l-70.949-2.079a2.7,2.7,0,0,0-2.775,2.617l-.078,2.659a2.7,2.7,0,0,0,2.617,2.776" transform="translate(29.64 30.382)" fill="#e0e0e0"/>
          <path id="Trazado_728359" data-name="Trazado 728359" d="M200.153,225.565l70.949,2.079a2.7,2.7,0,0,0,2.775-2.617l.078-2.659a2.7,2.7,0,0,0-2.617-2.776l-70.949-2.079a2.7,2.7,0,0,0-2.775,2.617l-.078,2.659a2.7,2.7,0,0,0,2.617,2.776" transform="translate(29.532 32.518)" fill="#e0e0e0"/>
          <path id="Trazado_728360" data-name="Trazado 728360" d="M199.435,239.849l70.949,2.079a2.7,2.7,0,0,0,2.775-2.617l.078-2.659a2.7,2.7,0,0,0-2.617-2.776L199.67,231.8a2.7,2.7,0,0,0-2.775,2.617l-.078,2.659a2.7,2.7,0,0,0,2.617,2.776" transform="translate(29.425 34.654)" fill="#e0e0e0"/>
          <path id="Trazado_728361" data-name="Trazado 728361" d="M123.764,250.5l156.583,4.591a2.7,2.7,0,0,0,2.776-2.619l.078-2.659a2.7,2.7,0,0,0-2.619-2.776L124,242.446a2.7,2.7,0,0,0-2.775,2.617l-.078,2.659a2.7,2.7,0,0,0,2.617,2.776" transform="translate(18.112 36.246)" fill="#e0e0e0"/>
          <path id="Trazado_728362" data-name="Trazado 728362" d="M134.46,67.489l47.846,1.4a2.7,2.7,0,0,0,2.775-2.617l.078-2.659a2.7,2.7,0,0,0-2.617-2.776l-47.846-1.4a2.7,2.7,0,0,0-2.775,2.617l-.078,2.659a2.7,2.7,0,0,0,2.617,2.776" transform="translate(19.711 8.885)" fill="#e0e0e0"/>
          <path id="Trazado_728363" data-name="Trazado 728363" d="M109.107,306.824s.334.03.989.061l2.912.124,11.24.425,41.722,1.471,140.937,4.76.3.01.015-.3c.532-11.2,1.09-22.948,1.656-34.9,3.008-64.242,5.731-122.393,7.7-164.5.955-21.041,1.729-38.068,2.263-49.853.253-5.876.45-10.442.584-13.556q.09-2.309.137-3.526c.026-.794.025-1.2.025-1.2s-.041.406-.088,1.2q-.069,1.214-.2,3.523c-.161,3.113-.4,7.676-.7,13.55-.582,11.782-1.422,28.808-2.46,49.844-2.018,42.1-4.8,100.252-7.883,164.491-.566,11.956-1.121,23.7-1.651,34.9l.316-.292L165.983,308.5l-41.728-1.285-11.244-.318-2.913-.069c-.655-.012-.991,0-.991,0" transform="translate(16.312 6.852)" fill="#263238"/>
          <path id="Trazado_728364" data-name="Trazado 728364" d="M123.467,314.688s.315.03.933.062l2.747.125,10.618.433,39.477,1.508,133.924,4.913.3.011.016-.3c.713-13.515,1.455-27.572,2.214-41.937,3.3-63.388,6.295-120.767,8.459-162.315,1.052-20.76,1.9-37.562,2.493-49.191.279-5.8.5-10.3.646-13.376q.1-2.279.153-3.48c.031-.784.03-1.186.03-1.186s-.041.4-.093,1.183-.121,1.959-.214,3.476c-.176,3.071-.432,7.574-.763,13.37-.636,11.626-1.554,28.424-2.689,49.18-2.212,41.545-5.266,98.921-8.641,162.305-.755,14.365-1.493,28.423-2.2,41.937l.315-.287-133.931-4.7-39.484-1.325-10.621-.329-2.75-.071c-.62-.014-.936-.006-.936-.006" transform="translate(18.459 7.468)" fill="#263238"/>
          <path id="Trazado_728365" data-name="Trazado 728365" d="M181.99,24.4l3.067-3,36.586.179,1.773,3.345Z" transform="translate(27.208 3.198)" fill="#263238"/>
          <rect id="Rectángulo_350732" data-name="Rectángulo 350732" width="17.432" height="41.429" transform="translate(208.98 45.026) rotate(-89.278)" fill="#263238"/>
          <path id="Trazado_728366" data-name="Trazado 728366" d="M224.815,40.466l.008-.6a1.44,1.44,0,0,0-1.422-1.458l-41.424-.522a1.439,1.439,0,0,0-1.458,1.422l-.008.6a1.44,1.44,0,0,0,1.421,1.458l41.425.521a1.438,1.438,0,0,0,1.458-1.421" transform="translate(26.988 5.664)" fill="#263238"/>
          <path id="Trazado_728367" data-name="Trazado 728367" d="M210.386,40.222h-.021l-18.221-.23a1.606,1.606,0,0,1-1.486-2.167l5.366-14.432a9.517,9.517,0,1,1,11.1.184l4.79,14.535a1.606,1.606,0,0,1-1.525,2.109M201.7,7.395c-.074,0-.148,0-.222,0a8.5,8.5,0,0,0-8.144,8.487,8.374,8.374,0,0,0,3.7,6.819l.376.253-5.679,15.27a.456.456,0,0,0,.051.418.45.45,0,0,0,.372.2l18.221.23a.442.442,0,0,0,.375-.186.457.457,0,0,0,.067-.414l-5.07-15.382.382-.239A8.363,8.363,0,0,0,201.7,7.395" transform="translate(28.489 0.933)" fill="#455a64"/>
          <path id="Trazado_728368" data-name="Trazado 728368" d="M222.9,38.408a2.014,2.014,0,0,0-.417-.024l-1.189-.03-4.38-.091-14.452-.236-14.455-.162-4.381-.014-1.192.014a1.971,1.971,0,0,0-.416.028,1.938,1.938,0,0,0,.415.04l1.191.051,4.38.121c3.7.087,8.807.183,14.454.262s10.754.128,14.453.137c1.851,0,3.347,0,4.382-.017.518-.011.918-.016,1.194-.033a1.877,1.877,0,0,0,.413-.045" transform="translate(27.213 5.658)" fill="#455a64"/>
          <path id="Trazado_728369" data-name="Trazado 728369" d="M223.419,24.221A2.055,2.055,0,0,0,223,24.2l-1.189-.03-4.378-.091-14.453-.236-14.455-.162-4.381-.014-1.192.014a1.972,1.972,0,0,0-.416.028,1.937,1.937,0,0,0,.415.04l1.191.051,4.38.122c3.7.086,8.808.182,14.454.261s10.754.128,14.453.137c1.851,0,3.347,0,4.382-.017.518-.011.918-.016,1.194-.033a1.9,1.9,0,0,0,.414-.045" transform="translate(27.29 3.537)" fill="#455a64"/>
          <path id="Trazado_728370" data-name="Trazado 728370" d="M186.047,241.354,136,239.887a10.261,10.261,0,0,1-9.955-10.556l1.282-43.7a10.257,10.257,0,0,1,10.555-9.954l50.049,1.467a10.259,10.259,0,0,1,9.954,10.556L196.6,231.4a10.26,10.26,0,0,1-10.556,9.955" transform="translate(18.843 26.263)" fill="#ebebeb"/>
          <path id="Trazado_728371" data-name="Trazado 728371" d="M126.182,221.931a1.722,1.722,0,0,1,.761-1.368l23.1-15.5a4.782,4.782,0,0,1,6.107.111,1.511,1.511,0,0,0,.3.21l10.47,5.375a1.723,1.723,0,0,0,1.992-.3l15.862-15.51a4.923,4.923,0,0,1,7.128.607l5.09,6.389a1.723,1.723,0,0,1,.375,1.091l-.24,25.808a9.748,9.748,0,0,1-10.055,9.65l-51.642-1.632a9.747,9.747,0,0,1-9.432-10.1Z" transform="translate(18.837 28.958)" fill="#e0e0e0"/>
          <path id="Trazado_728372" data-name="Trazado 728372" d="M157.668,191.578a7.056,7.056,0,1,1-7.371-6.726,7.056,7.056,0,0,1,7.371,6.726" transform="translate(21.464 27.634)" fill="#e0e0e0"/>
          <path id="Trazado_728373" data-name="Trazado 728373" d="M265.368,146.772l-50.048-1.467a10.261,10.261,0,0,1-9.955-10.556l1.282-43.7A10.257,10.257,0,0,1,217.2,81.093l50.049,1.467A10.259,10.259,0,0,1,277.2,93.115l-1.281,43.7a10.26,10.26,0,0,1-10.556,9.955" transform="translate(30.703 12.122)" fill="#ebebeb"/>
          <path id="Trazado_728374" data-name="Trazado 728374" d="M205.527,126.471l23.83-15.991a4.78,4.78,0,0,1,6.245.237l11.74,6.028,16.751-16.378a4.923,4.923,0,0,1,7.128.607l5.47,6.868-.231,24.705a11.422,11.422,0,0,1-11.782,11.31l-48.245-1.525A11.421,11.421,0,0,1,205.38,130.5Z" transform="translate(30.705 14.818)" fill="#e0e0e0"/>
          <path id="Trazado_728375" data-name="Trazado 728375" d="M236.99,97a7.056,7.056,0,1,1-7.371-6.726A7.056,7.056,0,0,1,236.99,97" transform="translate(33.323 13.494)" fill="#e0e0e0"/>
          <path id="Trazado_728376" data-name="Trazado 728376" d="M136.014,115.683a3.023,3.023,0,0,1-.926-.259,5.1,5.1,0,0,1-2.1-1.778,5.976,5.976,0,0,1-1.026-4.218,8.394,8.394,0,0,1,2.79-5.036,14.649,14.649,0,0,1,6.284-3.09,34.554,34.554,0,0,1,7.969-1.03,35.111,35.111,0,0,1,17.693,4.488,12.908,12.908,0,0,1,3.749,3.146,7.806,7.806,0,0,1,1.684,4.473,5.971,5.971,0,0,1-1.679,4.295,9.874,9.874,0,0,1-3.737,2.345,25.319,25.319,0,0,1-7.938,1.283,45.22,45.22,0,0,1-6.986-.3,43.742,43.742,0,0,1-9.816-2.368c-1.12-.414-1.973-.776-2.54-1.045a5.448,5.448,0,0,1-.854-.432,5.9,5.9,0,0,1,.9.322c.58.232,1.445.557,2.57.936a46.729,46.729,0,0,0,9.788,2.167,45.867,45.867,0,0,0,6.917.226,25.107,25.107,0,0,0,7.763-1.3,9.344,9.344,0,0,0,3.515-2.22,5.4,5.4,0,0,0,1.51-3.888,7.234,7.234,0,0,0-1.569-4.124,12.376,12.376,0,0,0-3.581-2.994A34.883,34.883,0,0,0,149,100.824a34.493,34.493,0,0,0-7.852.959,14.32,14.32,0,0,0-6.123,2.924,8.082,8.082,0,0,0-2.742,4.767,5.782,5.782,0,0,0,.889,4.042,5.214,5.214,0,0,0,1.962,1.8c.556.274.885.336.876.368" transform="translate(19.72 14.991)" fill="#263238"/>
          <path id="Trazado_728377" data-name="Trazado 728377" d="M161.86,255.379a3.024,3.024,0,0,1-.926-.259,5.11,5.11,0,0,1-2.1-1.778,5.982,5.982,0,0,1-1.027-4.218,8.394,8.394,0,0,1,2.79-5.036,14.649,14.649,0,0,1,6.284-3.09,34.554,34.554,0,0,1,7.97-1.03,35.108,35.108,0,0,1,17.693,4.488,12.946,12.946,0,0,1,3.75,3.146,7.813,7.813,0,0,1,1.683,4.473,5.971,5.971,0,0,1-1.679,4.295,9.864,9.864,0,0,1-3.737,2.345A25.319,25.319,0,0,1,184.617,260a45.081,45.081,0,0,1-6.986-.3,43.737,43.737,0,0,1-9.816-2.368c-1.12-.414-1.973-.776-2.54-1.045a5.453,5.453,0,0,1-.854-.432,5.889,5.889,0,0,1,.9.322c.581.232,1.446.557,2.57.936a46.728,46.728,0,0,0,9.788,2.167,45.864,45.864,0,0,0,6.917.226,25.136,25.136,0,0,0,7.763-1.3,9.347,9.347,0,0,0,3.515-2.221,5.4,5.4,0,0,0,1.51-3.888,7.234,7.234,0,0,0-1.569-4.124,12.375,12.375,0,0,0-3.581-2.994,34.883,34.883,0,0,0-17.384-4.452,34.477,34.477,0,0,0-7.852.959,14.318,14.318,0,0,0-6.125,2.924,8.088,8.088,0,0,0-2.742,4.767,5.782,5.782,0,0,0,.889,4.042,5.222,5.222,0,0,0,1.962,1.8c.556.274.885.336.876.368" transform="translate(23.584 35.876)" fill="#263238"/>
          <path id="Trazado_728378" data-name="Trazado 728378" d="M131.858,69.934a3.023,3.023,0,0,1-.926-.259,5.1,5.1,0,0,1-2.1-1.778,5.982,5.982,0,0,1-1.027-4.218,8.394,8.394,0,0,1,2.79-5.036,14.647,14.647,0,0,1,6.285-3.09,34.536,34.536,0,0,1,7.968-1.03,35.108,35.108,0,0,1,17.693,4.488,12.946,12.946,0,0,1,3.75,3.146,7.813,7.813,0,0,1,1.683,4.473,5.971,5.971,0,0,1-1.679,4.295,9.865,9.865,0,0,1-3.737,2.345,25.319,25.319,0,0,1-7.938,1.283,45.219,45.219,0,0,1-6.986-.3,43.743,43.743,0,0,1-9.816-2.368c-1.12-.414-1.973-.776-2.54-1.045a5.582,5.582,0,0,1-.854-.432,5.9,5.9,0,0,1,.9.322c.582.232,1.446.558,2.57.936a46.73,46.73,0,0,0,9.788,2.167,45.874,45.874,0,0,0,6.917.226,25.107,25.107,0,0,0,7.763-1.3,9.344,9.344,0,0,0,3.515-2.22,5.4,5.4,0,0,0,1.51-3.888,7.234,7.234,0,0,0-1.569-4.124,12.358,12.358,0,0,0-3.581-2.994,34.882,34.882,0,0,0-17.384-4.452,34.477,34.477,0,0,0-7.852.959,14.318,14.318,0,0,0-6.125,2.924,8.088,8.088,0,0,0-2.742,4.767,5.782,5.782,0,0,0,.889,4.042,5.223,5.223,0,0,0,1.962,1.8c.556.274.885.336.876.368" transform="translate(19.098 8.151)" fill="#263238"/>
          <path id="Trazado_728379" data-name="Trazado 728379" d="M284.9,208.238l15.8.394,7.541,9.718-8.116,9.9-16.218-.476Z" transform="translate(42.446 31.132)" fill="#cc8027"/>
          <path id="Trazado_728380" data-name="Trazado 728380" d="M286.2,184.121l15.8.394,7.541,9.718-8.116,9.9-16.218-.476Z" transform="translate(42.64 27.526)" fill="#455a64"/>
          <path id="Trazado_728381" data-name="Trazado 728381" d="M105.293,10.716H55.3a.593.593,0,0,0-.593.594v.247a.593.593,0,0,0,.593.594h49.994a.593.593,0,0,0,.593-.594V11.31a.593.593,0,0,0-.593-.594" transform="translate(8.179 1.601)" fill="#e0e0e0"/>
          <path id="Trazado_728382" data-name="Trazado 728382" d="M105.293,14.68H55.3a.593.593,0,0,0-.593.594v.247a.594.594,0,0,0,.593.594h49.994a.594.594,0,0,0,.593-.594v-.247a.593.593,0,0,0-.593-.594" transform="translate(8.179 2.194)" fill="#e0e0e0"/>
          <path id="Trazado_728383" data-name="Trazado 728383" d="M105.293,18.643H55.3a.593.593,0,0,0-.593.593v.248a.593.593,0,0,0,.593.594h49.994a.593.593,0,0,0,.593-.594v-.248a.593.593,0,0,0-.593-.593" transform="translate(8.179 2.786)" fill="#e0e0e0"/>
          <path id="Trazado_728384" data-name="Trazado 728384" d="M107.257,14.414c.132-.1,8.087,10.2,17.766,23s17.421,23.268,17.29,23.368-8.086-10.2-17.768-23.006-17.42-23.266-17.287-23.366" transform="translate(16.035 2.154)" fill="#263238"/>
          <path id="Trazado_728385" data-name="Trazado 728385" d="M109.2,13.863a1.947,1.947,0,1,1-1.947-1.947,1.947,1.947,0,0,1,1.947,1.947" transform="translate(15.744 1.781)" fill="#263238"/>
          <path id="Trazado_728386" data-name="Trazado 728386" d="M162.338,361.333H104.031a4.941,4.941,0,0,1-4.935-5.177l1.183-24.7a4.942,4.942,0,0,1,4.936-4.7h58.306a4.941,4.941,0,0,1,4.936,5.177l-1.183,24.7a4.941,4.941,0,0,1-4.936,4.7" transform="translate(14.815 48.849)" fill="#fafafa"/>
          <path id="Trazado_728387" data-name="Trazado 728387" d="M162.374,361.372a6.1,6.1,0,0,0,1.924-.458,4.919,4.919,0,0,0,2.906-4.475c.217-5.013.53-12.215.915-21.1-.018-2.185.718-4.733-.913-6.58a4.657,4.657,0,0,0-3.023-1.684c-1.2-.09-2.534-.019-3.829-.038l-16.741.028-38.358.024a4.669,4.669,0,0,0-3.973,2.237,4.736,4.736,0,0,0-.672,2.239q-.06,1.25-.12,2.491-.24,4.966-.474,9.777t-.459,9.434q-.057,1.157-.113,2.3a5.754,5.754,0,0,0,.148,2.166,4.678,4.678,0,0,0,2.736,3.027,5.123,5.123,0,0,0,2.048.343l2.168,0,4.251.007,8.126.015,14.586.037,21.121.1,5.742.055,1.493.03a3.2,3.2,0,0,1,.509.031,3.2,3.2,0,0,1-.509.031l-1.493.029-5.742.056-21.121.1-14.586.037-8.126.015-4.251.007-2.168,0a5.653,5.653,0,0,1-2.254-.376,5.228,5.228,0,0,1-3.069-3.381,6.294,6.294,0,0,1-.176-2.35q.053-1.145.108-2.3.217-4.625.445-9.436t.463-9.777q.06-1.241.12-2.491a5.245,5.245,0,0,1,5.241-5.046l38.358.023,16.741.028c1.323.025,2.569-.045,3.892.06a5.12,5.12,0,0,1,3.319,1.867,5.2,5.2,0,0,1,1.148,3.473q-.088,1.748-.171,3.42c-.466,8.883-.843,16.083-1.106,21.093a5.079,5.079,0,0,1-1.136,3.115,4.9,4.9,0,0,1-3.415,1.809c-.339.01-.512,0-.512,0" transform="translate(14.778 48.81)" fill="#263238"/>
          <path id="Trazado_728388" data-name="Trazado 728388" d="M157.589,337.2H107.6a.593.593,0,0,0-.593.594v.247a.593.593,0,0,0,.593.594h49.994a.593.593,0,0,0,.593-.594V337.8a.593.593,0,0,0-.593-.594" transform="translate(15.997 50.414)" fill="#e0e0e0"/>
          <path id="Trazado_728389" data-name="Trazado 728389" d="M157.589,341.167H107.6a.593.593,0,0,0-.593.594v.247a.593.593,0,0,0,.593.594h49.994a.593.593,0,0,0,.593-.594v-.247a.593.593,0,0,0-.593-.594" transform="translate(15.997 51.005)" fill="#e0e0e0"/>
          <path id="Trazado_728390" data-name="Trazado 728390" d="M157.589,345.131H107.6a.593.593,0,0,0-.593.594v.247a.593.593,0,0,0,.593.594h49.994a.593.593,0,0,0,.593-.594v-.247a.593.593,0,0,0-.593-.594" transform="translate(15.997 51.598)" fill="#e0e0e0"/>
          <path id="Trazado_728391" data-name="Trazado 728391" d="M178.8,256.327c.147.076-9.176,18.261-20.821,40.611s-21.207,40.415-21.353,40.338,9.174-18.256,20.822-40.614,21.2-40.411,21.352-40.335" transform="translate(20.425 38.321)" fill="#263238"/>
          <path id="Trazado_728392" data-name="Trazado 728392" d="M138.821,327a1.947,1.947,0,1,1-1.947-1.947A1.946,1.946,0,0,1,138.821,327" transform="translate(20.173 48.597)" fill="#263238"/>
        </g>
      </g>
      <g id="Grupo_1030255" data-name="Grupo 1030255" transform="translate(0 138.156)">
        <g id="Grupo_1030254" data-name="Grupo 1030254" clip-path="url(#clip-path-4)">
          <path id="Trazado_728393" data-name="Trazado 728393" d="M340.533,80.872s-3.915,14.636-4.252,24.992l-.112,3.45s8.637,7.172,15.882,7.614L358.124,102Z" transform="translate(-46.486 -11.183)" fill="#263238"/>
          <path id="Trazado_728394" data-name="Trazado 728394" d="M379.324,87.388c-1.651-7.138-2.285-15.447-8.222-20.1-4.405-3.454-9.424-4.416-15.017-4.183a19.821,19.821,0,0,0-8.262,2.744c-3.288,1.862-4.682,5.637-6.269,9.067-3.179,6.872-2.776,16.177-.623,18.763l28.715,15.164c5.734-2.984,9.325-4.172,10.242-11.816a28,28,0,0,0-.564-9.637" transform="translate(-46.911 -8.721)" fill="#263238"/>
          <path id="Trazado_728395" data-name="Trazado 728395" d="M371.119,73.678l-18.071-5.332c-5.822-.848-9.992,6.2-10.592,12.049-.667,6.5-1.225,14.466-.644,19.359,1.168,9.84,8.614,11.379,8.614,11.379,0-.033.017.147-.041,3.054l-.022,5.988a4.966,4.966,0,0,0,1.423,4.053c2.665,3.453,7.523,3.914,13.251,1.795,3.32-1.228,5.628-3.7,5.882-7.064l3.142-41.671a3.443,3.443,0,0,0-2.94-3.61" transform="translate(-47.233 -9.441)" fill="#ae7461"/>
          <path id="Trazado_728396" data-name="Trazado 728396" d="M344.591,92.5a1.255,1.255,0,0,0,1.16,1.312,1.2,1.2,0,0,0,1.336-1.08,1.255,1.255,0,0,0-1.158-1.313,1.2,1.2,0,0,0-1.338,1.081" transform="translate(-47.65 -12.641)" fill="#263238"/>
          <path id="Trazado_728397" data-name="Trazado 728397" d="M343.983,88.985c.149.17,1.127-.5,2.477-.439,1.349.037,2.311.77,2.465.611.075-.07-.072-.371-.491-.7a3.449,3.449,0,0,0-1.965-.692,3.308,3.308,0,0,0-1.979.554c-.427.3-.58.593-.506.669" transform="translate(-47.564 -12.136)" fill="#263238"/>
          <path id="Trazado_728398" data-name="Trazado 728398" d="M358.36,92.724a1.255,1.255,0,0,0,1.159,1.312,1.2,1.2,0,0,0,1.337-1.08,1.255,1.255,0,0,0-1.158-1.313,1.2,1.2,0,0,0-1.338,1.081" transform="translate(-49.554 -12.672)" fill="#263238"/>
          <path id="Trazado_728399" data-name="Trazado 728399" d="M359.388,89.17c.149.17,1.129-.5,2.477-.439,1.349.037,2.312.77,2.465.61.074-.07-.071-.371-.492-.7a3.447,3.447,0,0,0-1.965-.692,3.307,3.307,0,0,0-1.979.554c-.427.3-.58.593-.507.669" transform="translate(-49.695 -12.161)" fill="#263238"/>
          <path id="Trazado_728400" data-name="Trazado 728400" d="M352.745,97.72a8.9,8.9,0,0,0-2.177-.482c-.343-.049-.666-.131-.715-.368a1.75,1.75,0,0,1,.271-1.013l1.122-2.584a45.22,45.22,0,0,0,2.559-6.773,45.118,45.118,0,0,0-3.1,6.552q-.565,1.362-1.08,2.6A1.989,1.989,0,0,0,349.395,97a.865.865,0,0,0,.546.527,2.363,2.363,0,0,0,.583.1,8.77,8.77,0,0,0,2.221.09" transform="translate(-48.308 -11.961)" fill="#263238"/>
          <path id="Trazado_728401" data-name="Trazado 728401" d="M351.8,117.533a24.892,24.892,0,0,0,13.233-2.978s-3.506,6.715-13.258,5.415Z" transform="translate(-48.644 -15.841)" fill="#6f4439"/>
          <path id="Trazado_728402" data-name="Trazado 728402" d="M357.705,102.846a1.961,1.961,0,0,0-1.593-.95,2.547,2.547,0,0,0-2.363,1.057,1.582,1.582,0,0,0-.148,1.138c.078.2.015.1.16.239a4.466,4.466,0,0,0,1.776,1.2,1.911,1.911,0,0,0,2.046-.664,1.951,1.951,0,0,0,.122-2.021" transform="translate(-48.891 -14.089)" fill="#6f4439"/>
          <path id="Trazado_728403" data-name="Trazado 728403" d="M357.422,100.853c-.219-.022-.288,1.442-1.588,2.425s-2.851.751-2.872.956c-.025.091.334.3.993.347a3.644,3.644,0,0,0,2.394-.714,3.178,3.178,0,0,0,1.237-2.038c.084-.609-.063-.979-.164-.975" transform="translate(-48.808 -13.946)" fill="#263238"/>
          <path id="Trazado_728404" data-name="Trazado 728404" d="M358.8,83.508c.1.378,1.456.335,3.014.679,1.566.312,2.793.9,3.034.59.109-.148-.08-.514-.56-.918a5.379,5.379,0,0,0-4.608-.967c-.6.178-.921.436-.881.615" transform="translate(-49.615 -11.44)" fill="#263238"/>
          <path id="Trazado_728405" data-name="Trazado 728405" d="M344.107,84.676c.306.265,1.29-.2,2.524-.392,1.229-.232,2.315-.127,2.509-.478.084-.17-.126-.45-.625-.671a3.846,3.846,0,0,0-2.128-.2,3.8,3.8,0,0,0-1.928.9c-.392.376-.49.708-.353.84" transform="translate(-47.576 -11.46)" fill="#263238"/>
          <path id="Trazado_728406" data-name="Trazado 728406" d="M354.81,67.134c-.016.071-.03.141-.046.212l.034.015c0-.076.008-.151.012-.227" transform="translate(-49.058 -9.283)" fill="#263238"/>
          <path id="Trazado_728407" data-name="Trazado 728407" d="M365.343,114.74c.277-2.564-.755-5.14-.456-7.7.317-2.715,2.076-5.043,2.8-7.68,1.156-4.224-.43-8.715-1.011-13.08a10.361,10.361,0,0,1-6.36-3.672,28.705,28.705,0,0,1-4.3-7.9,13.228,13.228,0,0,0,2.661,7.6,3.569,3.569,0,0,1-3.049-.99,7.985,7.985,0,0,1-1.789-2.778,21.717,21.717,0,0,1-1.732-7.824,28.117,28.117,0,0,0,1.278,11.425,4.876,4.876,0,0,0-2.127.081,2.333,2.333,0,0,1-2.023-.43,2.552,2.552,0,0,1-.554-1.3,29.328,29.328,0,0,1-.325-9.954,30.336,30.336,0,0,0-2.243,5.516,10.688,10.688,0,0,0-.041,5.886.864.864,0,0,1-1.215-.008,2.06,2.06,0,0,1-.532-1.229,15.141,15.141,0,0,1,.322-4.955A25.085,25.085,0,0,0,342.8,81.4a8.443,8.443,0,0,1-3.067,4.97,26.056,26.056,0,0,1,.245-7.506,22.642,22.642,0,0,1,2.2-5.957,17.7,17.7,0,0,1,3.966-5.519c2.882-2.524,4.086-1.437,5.926-.476l.218.091c.006-.045.009-.09.015-.135l.083-.392a27.607,27.607,0,0,1,14.538.68c3.469,1.131,3.787,8.6,4.633,5.051.513-2.147,3.3-.187,3.331-.125,4.091,7.38,8.428,19.086,8.627,37.585Z" transform="translate(-46.956 -9.101)" fill="#263238"/>
          <path id="Trazado_728408" data-name="Trazado 728408" d="M381.09,56.679a9.216,9.216,0,0,0-6.362-3.1,6.944,6.944,0,0,0-6.141,3.2,5.6,5.6,0,0,0,.756,6.693l3.023,2.419a8.279,8.279,0,0,0,6.866.666,5.967,5.967,0,0,0,3.875-5.446,7.019,7.019,0,0,0-2.016-4.434" transform="translate(-50.862 -7.409)" fill="#263238"/>
          <path id="Trazado_728409" data-name="Trazado 728409" d="M378.746,71.459c-.585.273-2.24-2.261-5.194-4.253-2.91-2.06-5.866-2.709-5.817-3.354.025-.293.857-.529,2.206-.39a11.3,11.3,0,0,1,8.389,5.8c.608,1.212.681,2.074.416,2.2" transform="translate(-50.851 -8.77)" fill="#455a64"/>
          <path id="Trazado_728410" data-name="Trazado 728410" d="M329.234,164.34l11.323-10.605,7.671,12.186c-.153,1.093-9.93,22.163-14.164,26.528-4.83,4.982-11.414,4.6-14.319-2.282-2.29-5.423-6.091-22.119-6.091-22.119Z" transform="translate(-43.373 -21.259)" fill="#ff9d00"/>
          <path id="Trazado_728411" data-name="Trazado 728411" d="M343.311,128.749c-2.7.975-8.927,4.375-10.739,6.607a17.064,17.064,0,0,0-2.287,3.535c-1.417,3.117-4.109,26.226-4.109,26.226l12.059,8.734,10.5-40.419-.67-6.409Z" transform="translate(-45.104 -17.565)" fill="#ff9d00"/>
          <path id="Trazado_728412" data-name="Trazado 728412" d="M340.984,195.007l.759-5.969a194.044,194.044,0,0,1-3.178-19.9c-1.357-14.7,2.476-23.837,3-25.386.3-.878,8.172-17.19,8.172-17.19s1.654,5.025,8.3,3.836c9.267-1.657,12.643-6.681,12.643-6.681l11.974,2.589s4.665,18.736,5.352,24.944c.368,3.328-4.017,22.139-4.017,22.139l7.062,10.564c.211.52-3.068,14.956-3.709,15.552s-12.129,3.264-12.271,3.755-21.9,9.6-21.884,9.227-10.467-12.821-10.467-12.821Z" transform="translate(-46.778 -17.108)" fill="#ff9d00"/>
          <path id="Trazado_728413" data-name="Trazado 728413" d="M338.058,149.571a1.709,1.709,0,0,1-.028.437c-.041.334-.089.744-.148,1.239-.128,1.075-.31,2.633-.47,4.562a65.482,65.482,0,0,0,.282,15.067c.774,5.857,1.9,11.1,2.633,14.9.371,1.9.653,3.448.833,4.518.077.494.14.9.191,1.235a1.586,1.586,0,0,1,.036.436,1.663,1.663,0,0,1-.125-.42c-.074-.329-.165-.731-.274-1.218-.245-1.126-.573-2.643-.973-4.487-.807-3.789-1.989-9.026-2.767-14.909a60.716,60.716,0,0,1-.152-15.156c.2-1.932.431-3.487.612-4.557.092-.535.172-.95.232-1.229a1.556,1.556,0,0,1,.117-.422" transform="translate(-46.559 -20.683)" fill="#263238"/>
          <path id="Trazado_728414" data-name="Trazado 728414" d="M392.706,202.847c2.146,3.643,7.049,17.589,8.954,24.711,8.7,32.5,16.053,76.206,18.5,85.113,3.256,11.868,10.547,38.72,14.257,56.6l-17.82,7.772s-23.34-62.892-29.708-78.346c-6.6-16.013-17.607-46.219-17.607-46.219L362.92,372.287l-17.071.527s-5.838-33.76-8.159-53.937-2.581-61.713-2.6-72.254c-.024-12.836,5.54-41.716,5.54-41.716s6.659,5,19.144,3.084c9.943-1.524,30.558-9.172,30.558-9.172Z" transform="translate(-46.337 -27.493)" fill="#12263f"/>
          <path id="Trazado_728415" data-name="Trazado 728415" d="M361.676,214.288a8.256,8.256,0,0,0,.1,1.376c.091.882.246,2.156.456,3.728.417,3.144,1.071,7.477,1.922,12.241s1.742,9.058,2.44,12.151c.349,1.547.645,2.8.865,3.655a8.187,8.187,0,0,0,.383,1.324,8.2,8.2,0,0,0-.215-1.362c-.187-.945-.431-2.185-.726-3.682-.619-3.108-1.458-7.4-2.31-12.164s-1.552-9.078-2.049-12.208c-.242-1.505-.442-2.754-.6-3.706a8.261,8.261,0,0,0-.271-1.352" transform="translate(-50.012 -29.632)" fill="#455a64"/>
          <path id="Trazado_728416" data-name="Trazado 728416" d="M368.249,213.921c.024,0-.027-.215-.333-.348a2.179,2.179,0,0,0-1.3-.042,2.608,2.608,0,0,0-.851.348,1.431,1.431,0,0,0-.583.946,2.185,2.185,0,0,0,.978,2.169,2.249,2.249,0,0,0,2.378.107,1.55,1.55,0,0,0,.657-.886,2.208,2.208,0,0,0,.064-.924,1.86,1.86,0,0,0-.575-1.172c-.246-.2-.431-.219-.435-.2-.016.036.136.107.312.32a1.88,1.88,0,0,1,.385,1.081,1.5,1.5,0,0,1-.621,1.43,1.879,1.879,0,0,1-1.922-.13,1.809,1.809,0,0,1-.817-1.729,1.069,1.069,0,0,1,.393-.714,2.464,2.464,0,0,1,.718-.345,2.346,2.346,0,0,1,1.162-.1c.268.062.356.207.389.185" transform="translate(-50.494 -29.517)" fill="#455a64"/>
          <path id="Trazado_728417" data-name="Trazado 728417" d="M356.076,249.347a16.512,16.512,0,0,0,2.064,1.416c1.292.844,3.058,2.034,4.951,3.428s3.55,2.734,4.739,3.718a16.7,16.7,0,0,0,1.963,1.555,12.054,12.054,0,0,0-1.757-1.792,58.854,58.854,0,0,0-9.73-7.176,12.075,12.075,0,0,0-2.229-1.149" transform="translate(-49.239 -34.48)" fill="#455a64"/>
          <path id="Trazado_728418" data-name="Trazado 728418" d="M406.236,323.668a2.365,2.365,0,0,0,.739.025c.474-.01,1.158-.061,2-.157a35.751,35.751,0,0,0,12.585-3.944c.746-.4,1.337-.751,1.732-1.013s.607-.414.592-.441a26.349,26.349,0,0,0-2.466,1.175,44.923,44.923,0,0,1-12.486,3.913,26.653,26.653,0,0,0-2.7.443" transform="translate(-56.175 -43.992)" fill="#455a64"/>
          <path id="Trazado_728419" data-name="Trazado 728419" d="M409.595,321.631a6.7,6.7,0,0,0,1.748-.465c1.057-.353,2.5-.9,4.053-1.6s2.92-1.415,3.886-1.973a6.707,6.707,0,0,0,1.508-1c-.065-.113-2.489,1.182-5.577,2.567s-5.66,2.348-5.618,2.471" transform="translate(-56.64 -43.778)" fill="#455a64"/>
          <path id="Trazado_728420" data-name="Trazado 728420" d="M344.477,386.317l-.09,17.787s-18.109,5.882-18.445,9.168l34.48,1.412,1.277-27.708Z" transform="translate(-45.072 -53.421)" fill="#263238"/>
          <path id="Trazado_728421" data-name="Trazado 728421" d="M359.513,405.719a1.408,1.408,0,0,1,.907,1.647,1.354,1.354,0,0,1-1.624.914,1.486,1.486,0,0,1-.951-1.749,1.4,1.4,0,0,1,1.795-.763" transform="translate(-49.475 -56.094)" fill="#e0e0e0"/>
          <path id="Trazado_728422" data-name="Trazado 728422" d="M360.421,418.737l.019-2.8-33.066-.308s-1.563.6-1.434,1.693Z" transform="translate(-45.071 -57.474)" fill="#455a64"/>
          <path id="Trazado_728423" data-name="Trazado 728423" d="M346.707,406.705c0,.169.837.279,1.642.855.823.554,1.218,1.3,1.377,1.241.156-.027-.053-1.044-1.041-1.723s-2.009-.529-1.978-.373" transform="translate(-47.943 -56.221)" fill="#fff"/>
          <path id="Trazado_728424" data-name="Trazado 728424" d="M342.439,408.281c-.045.161.672.477,1.215,1.213.564.72.677,1.5.845,1.5.157.033.314-.949-.378-1.85s-1.672-1.019-1.682-.858" transform="translate(-47.353 -56.45)" fill="#fff"/>
          <path id="Trazado_728425" data-name="Trazado 728425" d="M339.651,412.742c.152.042.421-.789.026-1.729s-1.167-1.339-1.243-1.2c-.1.134.389.65.7,1.426.331.77.35,1.481.516,1.5" transform="translate(-46.798 -56.666)" fill="#fff"/>
          <path id="Trazado_728426" data-name="Trazado 728426" d="M347.251,401.939c.065.157.846-.044,1.795.059.951.084,1.68.433,1.773.293.1-.118-.595-.77-1.715-.877s-1.93.389-1.853.525" transform="translate(-48.018 -55.506)" fill="#fff"/>
          <path id="Trazado_728427" data-name="Trazado 728427" d="M439.646,384.151l6.605,20.48,9.9,14.692a2.2,2.2,0,0,1-2.74,3.239c-4.137-1.9-19.319-8.944-19.719-10.469-.462-1.767-8.4-21.141-8.4-21.141Z" transform="translate(-58.81 -53.121)" fill="#263238"/>
          <path id="Trazado_728428" data-name="Trazado 728428" d="M456.693,426.728l-22.212-11.742.3.862a3.316,3.316,0,0,0,1.45,1.773c1.818,1.068,6.9,3.905,18.384,9.228a2.2,2.2,0,0,0,2.078-.121" transform="translate(-60.081 -57.385)" fill="#455a64"/>
          <g id="Grupo_1030253" data-name="Grupo 1030253" transform="translate(374.691 349.537)" opacity="0.6">
            <g id="Grupo_1030252" data-name="Grupo 1030252">
              <g id="Grupo_1030251" data-name="Grupo 1030251" clip-path="url(#clip-path-5)">
                <path id="Trazado_728429" data-name="Trazado 728429" d="M436.418,405.685a1.335,1.335,0,0,1,.918,1.525,1.283,1.283,0,0,1-1.5.923,1.407,1.407,0,0,1-.963-1.621,1.331,1.331,0,0,1,1.671-.786" transform="translate(-434.819 -405.629)" fill="#fff"/>
              </g>
            </g>
          </g>
          <path id="Trazado_728430" data-name="Trazado 728430" d="M451.268,419.615a4.758,4.758,0,0,1,3.416-3.462c0-.056-.312-.125-.811-.027a3.517,3.517,0,0,0-2.642,2.678c-.092.5-.019.812.037.811" transform="translate(-62.391 -57.536)" fill="#fff"/>
          <path id="Trazado_728431" data-name="Trazado 728431" d="M454.055,422.35c.128.054.55-.833,1.5-1.5a18.077,18.077,0,0,1,1.9-.946,2.444,2.444,0,0,0-2.172.563c-1.075.767-1.344,1.866-1.219,1.884" transform="translate(-62.784 -58.054)" fill="#fff"/>
          <path id="Trazado_728432" data-name="Trazado 728432" d="M446.742,416.541a11.328,11.328,0,0,1,4.923-4.223,6.029,6.029,0,0,0-4.923,4.223" transform="translate(-61.774 -57.012)" fill="#fff"/>
          <path id="Trazado_728433" data-name="Trazado 728433" d="M443.811,409.84c.1.1,1.056-.757,2.5-1.318,1.435-.582,2.723-.614,2.722-.755a5.473,5.473,0,0,0-5.221,2.072" transform="translate(-61.37 -56.37)" fill="#fff"/>
          <path id="Trazado_728434" data-name="Trazado 728434" d="M441.384,402.934a7,7,0,0,1,5.5-1.7c.018-.054-.292-.232-.855-.34a4.8,4.8,0,0,0-4.127,1.278c-.4.407-.559.729-.514.763" transform="translate(-61.034 -55.427)" fill="#fff"/>
          <path id="Trazado_728435" data-name="Trazado 728435" d="M443.229,399.626a1.86,1.86,0,0,0-.24-.778,5.669,5.669,0,0,0-1.312-1.8,2.5,2.5,0,0,0-1.41-.777.886.886,0,0,0-.878.514,1.44,1.44,0,0,0,0,1.029,3.115,3.115,0,0,0,3.527,1.826,3.613,3.613,0,0,0,2.732-2.952,1.253,1.253,0,0,0-.287-1,.869.869,0,0,0-1.01-.136,3.09,3.09,0,0,0-1.1,1.162,6.33,6.33,0,0,0-.838,2.062,1.944,1.944,0,0,0-.068.811,10.058,10.058,0,0,1,1.185-2.689,2.874,2.874,0,0,1,.981-.989.462.462,0,0,1,.551.071.858.858,0,0,1,.15.671,3.226,3.226,0,0,1-2.4,2.533,2.706,2.706,0,0,1-3.016-1.506,1.048,1.048,0,0,1-.029-.719.481.481,0,0,1,.481-.291,2.269,2.269,0,0,1,1.205.636,8.347,8.347,0,0,1,1.773,2.329" transform="translate(-60.747 -54.683)" fill="#fff"/>
          <path id="Trazado_728436" data-name="Trazado 728436" d="M315.112,149.571l8.223,8.494.333,7.4-9.544,2.195h-.486l-.617-4.774-5.5-7.313Z" transform="translate(-42.525 -20.683)" fill="#ae7461"/>
          <path id="Trazado_728437" data-name="Trazado 728437" d="M292.224,128.912a50.118,50.118,0,1,1,12.541-44.021,49.745,49.745,0,0,1-12.541,44.021m-68.48-.133a46.759,46.759,0,1,0-13.862-24.961,46.4,46.4,0,0,0,13.862,24.961" transform="translate(-28.435 -6.169)" fill="#455a64"/>
          <path id="Trazado_728438" data-name="Trazado 728438" d="M292.224,128.912a50.118,50.118,0,1,1,12.541-44.021,49.745,49.745,0,0,1-12.541,44.021m-68.48-.133a46.759,46.759,0,1,0-13.862-24.961,46.4,46.4,0,0,0,13.862,24.961" transform="translate(-28.435 -6.169)" fill="#263238"/>
          <path id="Trazado_728439" data-name="Trazado 728439" d="M293.652,126.116A50.118,50.118,0,1,1,306.193,82.1a49.74,49.74,0,0,1-12.541,44.021m-68.48-.133a46.759,46.759,0,1,0-13.862-24.961,46.406,46.406,0,0,0,13.862,24.961" transform="translate(-28.633 -5.782)" fill="#455a64"/>
          <path id="Trazado_728440" data-name="Trazado 728440" d="M361.993,202.5l1.593-1.542c1.421-1.375.624-4.519-.867-6.045l-55.938-57.818-7.479,7.237,55.854,57.731c1.885,1.85,5.007,2.207,6.836.437" transform="translate(-41.388 -18.958)" fill="#455a64"/>
          <path id="Trazado_728441" data-name="Trazado 728441" d="M311.44,145.127a1.318,1.318,0,0,0-1.132-.3,2.212,2.212,0,0,0-.888.619,10.147,10.147,0,0,0-2.882,7.014,3.108,3.108,0,0,0,1.282,2.892l1.123-.65c.349-.45,1.389-1.2,1.527-1.754.581-2.323-.252-2.226,1.2-6.254a1.39,1.39,0,0,0-.234-1.566" transform="translate(-42.389 -20.022)" fill="#ae7461"/>
          <path id="Trazado_728442" data-name="Trazado 728442" d="M311.587,148.689a5.54,5.54,0,0,1,1.112-1.466,1.616,1.616,0,0,1,1.48-.442c.776.244,1.153,1.36,1.064,2.4a9.028,9.028,0,0,1-.964,2.953q-1.38,2.995-2.764,5.991l-.535-.394a.757.757,0,0,1-1.193-.263,3.177,3.177,0,0,1-.263-1.631,15.637,15.637,0,0,1,2.063-7.146" transform="translate(-42.801 -20.29)" fill="#ae7461"/>
          <path id="Trazado_728443" data-name="Trazado 728443" d="M313.277,155.173a14.025,14.025,0,0,1,2.766-3.707,3.405,3.405,0,0,1,1.285-.975,1.208,1.208,0,0,1,1.443.424,1.669,1.669,0,0,1-.2,1.469,68.656,68.656,0,0,1-4.757,8.353l-1.652-1.664c-.75-1.351.474-2.494,1.11-3.9" transform="translate(-43.135 -20.8)" fill="#ae7461"/>
          <path id="Trazado_728444" data-name="Trazado 728444" d="M360.586,175.439l-1.517-.321-7.936-6.764-4.344-3.648a2.647,2.647,0,0,0-1.272-.586l-4.3-.717a2.443,2.443,0,0,0,1.287,2.948l2.356,1.219,2.156,2.548-.276.551s-14.128,2.192-15.01,3.269a1.469,1.469,0,0,0,.392,2.254,2.287,2.287,0,0,0,1.078.1s-.686,1.667,1.372,3.038c0,0-1.568,2.058,1.175,3.038a4.426,4.426,0,0,0,2.352,2.058,101.749,101.749,0,0,0,10.877,1.47c.882,0,10.129.015,10.129.015l2.034.333Z" transform="translate(-45.82 -22.596)" fill="#ae7461"/>
          <path id="Trazado_728445" data-name="Trazado 728445" d="M333.121,178.317a11.266,11.266,0,0,0,3.907.21,15.656,15.656,0,0,0,3.867-.574,19.3,19.3,0,0,0-3.9.131,37.233,37.233,0,0,0-3.878.233" transform="translate(-46.065 -24.599)" fill="#6f4439"/>
          <path id="Trazado_728446" data-name="Trazado 728446" d="M335.089,181.864c0,.063.367.113.956.191s1.4.189,2.323.246a20.131,20.131,0,0,0,2.344-.051,3.767,3.767,0,0,0,.964-.086c.017-.064-.358-.188-.961-.227-.606-.057-1.429-.021-2.321-.079s-1.726-.122-2.329-.115-.976.063-.976.122" transform="translate(-46.337 -25.132)" fill="#6f4439"/>
          <path id="Trazado_728447" data-name="Trazado 728447" d="M336.127,185.325a16.734,16.734,0,0,0,3.81.511,9.074,9.074,0,0,1,2.607.4c.623.234.907.569.963.519.042-.021-.173-.461-.832-.8a6.89,6.89,0,0,0-2.7-.562,16.742,16.742,0,0,0-3.843-.068" transform="translate(-46.48 -25.617)" fill="#6f4439"/>
          <path id="Trazado_728448" data-name="Trazado 728448" d="M386.379,126.725s5.972,1.031,10.5,9.928c2.5,4.919,14.2,34.5,14.891,37.089,2.968,11.1-2.775,18.249-8.3,18.735-6.085.535-37.559-9.62-37.559-9.62l-.7-13.447,28.71,4.359-13.793-26.774s-.528-17.832,6.251-20.269" transform="translate(-50.502 -17.524)" fill="#ff9d00"/>
          <path id="Trazado_728449" data-name="Trazado 728449" d="M408.087,188.667a4.89,4.89,0,0,0-.772-1.792,12.109,12.109,0,0,0-7.525-5.37,4.9,4.9,0,0,0-1.946-.147c-.005.078.735.131,1.869.452a13.655,13.655,0,0,1,7.339,5.238c.672.969.963,1.651,1.035,1.621" transform="translate(-55.015 -25.073)" fill="#263238"/>
          <path id="Trazado_728450" data-name="Trazado 728450" d="M395.543,194.735a.472.472,0,0,1-.148-.02l-.43-.092c-.382-.078-.931-.243-1.653-.439-1.435-.415-3.524-1.055-6.153-1.892-5.258-1.678-12.687-4.131-21.421-7.086l-.133-.045-.008-.14c-.2-3.869-.424-8.087-.655-12.486l-.015-.275.272.044,7.063,1.143,21.651,3.533-.212.293c-3.9-7.643-7.2-14.1-9.535-18.668l-2.673-5.307-.694-1.413a3.292,3.292,0,0,1-.218-.5,3.424,3.424,0,0,1,.277.466l.75,1.385,2.774,5.256c2.371,4.554,5.717,10.98,9.679,18.592l.186.357-.4-.065-21.658-3.49-7.063-1.147.258-.231c.22,4.4.431,8.619.625,12.489l-.14-.185,21.365,7.238,6.114,2c.713.215,1.257.4,1.63.5l.421.125a.522.522,0,0,1,.14.053" transform="translate(-50.463 -20.934)" fill="#263238"/>
          <path id="Trazado_728451" data-name="Trazado 728451" d="M389.964,127.354c.042.072-.813.564-2,1.589a17.025,17.025,0,0,0-5.717,10.523c-.213,1.557-.16,2.541-.243,2.545a2.122,2.122,0,0,1-.1-.688,10.987,10.987,0,0,1,.028-1.892,14.854,14.854,0,0,1,.517-2.767,15.845,15.845,0,0,1,3.275-6.027,14.8,14.8,0,0,1,2.039-1.939,10.945,10.945,0,0,1,1.573-1.054,2.117,2.117,0,0,1,.632-.29" transform="translate(-52.806 -17.61)" fill="#263238"/>
        </g>
      </g>
      <g id="Grupo_1030266" data-name="Grupo 1030266" transform="translate(0 138.156)">
        <g id="Grupo_1030265" data-name="Grupo 1030265" clip-path="url(#clip-path-4)">
          <path id="Trazado_728452" data-name="Trazado 728452" d="M6.049,148.375S-.3,183.668.011,186.968s1.993,8.55,5.821,9.45a17.194,17.194,0,0,0,7.35,0l-4.595-43.35Z" transform="translate(0 -20.518)" fill="#ffc09d"/>
          <path id="Trazado_728453" data-name="Trazado 728453" d="M28.444,104.8,28,68.334c-.406-9.069,4.533-16.864,13.61-17.018l.839.034A16.228,16.228,0,0,1,58,66.926c.308,7.862.548,16.554.322,20.755-.467,8.7-9.227,9.693-9.227,9.693-.02,0-.054,5.294-.049,7.851l-7,9.718v.52Z" transform="translate(-3.869 -7.096)" fill="#ffc09d"/>
          <path id="Trazado_728454" data-name="Trazado 728454" d="M50.685,104.152a21.036,21.036,0,0,1-11.193-3.818s2.456,6.656,11.172,6.231Z" transform="translate(-5.461 -13.874)" fill="#ff9b6c"/>
          <path id="Trazado_728455" data-name="Trazado 728455" d="M59.2,77.957a1.244,1.244,0,0,1-1.25,1.2,1.189,1.189,0,0,1-1.234-1.174,1.243,1.243,0,0,1,1.249-1.206A1.19,1.19,0,0,1,59.2,77.957" transform="translate(-7.843 -10.618)" fill="#263238"/>
          <path id="Trazado_728456" data-name="Trazado 728456" d="M59.7,73.577c-.16.156-1.075-.58-2.411-.632-1.337-.072-2.346.576-2.483.407-.069-.076.1-.362.54-.655a3.412,3.412,0,0,1,2-.527,3.279,3.279,0,0,1,1.91.7c.4.333.527.632.447.7" transform="translate(-7.576 -9.979)" fill="#263238"/>
          <path id="Trazado_728457" data-name="Trazado 728457" d="M45.338,77.957a1.243,1.243,0,0,1-1.25,1.2,1.188,1.188,0,0,1-1.235-1.173A1.245,1.245,0,0,1,44.1,76.782a1.191,1.191,0,0,1,1.236,1.175" transform="translate(-5.926 -10.618)" fill="#263238"/>
          <path id="Trazado_728458" data-name="Trazado 728458" d="M44.467,73.308c-.161.156-1.075-.58-2.412-.632-1.335-.071-2.345.576-2.483.407-.068-.075.1-.361.542-.655a3.417,3.417,0,0,1,2-.527,3.288,3.288,0,0,1,1.911.706c.4.333.525.632.446.7" transform="translate(-5.47 -9.942)" fill="#263238"/>
          <path id="Trazado_728459" data-name="Trazado 728459" d="M50.3,83.9a8.909,8.909,0,0,1,2.189-.3c.343-.021.669-.075.736-.306a1.743,1.743,0,0,0-.186-1.022l-.9-2.642a44.669,44.669,0,0,1-1.988-6.9,44.806,44.806,0,0,1,2.538,6.72c.3.928.587,1.811.859,2.657a1.979,1.979,0,0,1,.122,1.348.857.857,0,0,1-.583.476,2.293,2.293,0,0,1-.583.057,8.661,8.661,0,0,1-2.2-.088" transform="translate(-6.933 -10.057)" fill="#263238"/>
          <path id="Trazado_728460" data-name="Trazado 728460" d="M44.976,68.452c-.2.333-1.479-.078-3.057-.177-1.577-.131-2.906.09-3.051-.268-.063-.171.216-.467.784-.72a5.326,5.326,0,0,1,4.654.34c.524.333.758.667.67.826" transform="translate(-5.373 -9.252)" fill="#263238"/>
          <path id="Trazado_728461" data-name="Trazado 728461" d="M59.88,69.009c-.286.3-1.368-.047-2.677-.1-1.307-.088-2.425.14-2.671-.184-.108-.157.075-.457.567-.732a4.22,4.22,0,0,1,2.19-.44,4.147,4.147,0,0,1,2.12.667c.455.325.6.642.472.787" transform="translate(-7.537 -9.341)" fill="#263238"/>
          <path id="Trazado_728462" data-name="Trazado 728462" d="M27.562,78.52c-.146-.071-5.907-2.016-5.962,3.942s5.937,4.784,5.949,4.614.013-8.556.013-8.556" transform="translate(-2.987 -10.808)" fill="#ffc09d"/>
          <path id="Trazado_728463" data-name="Trazado 728463" d="M25.992,85.11c-.026-.019-.1.072-.281.151a1.042,1.042,0,0,1-.776.009,2.569,2.569,0,0,1-1.167-2.315,3.431,3.431,0,0,1,.3-1.483,1.2,1.2,0,0,1,.788-.789.528.528,0,0,1,.61.29c.078.167.039.285.071.3.016.015.128-.1.083-.346a.66.66,0,0,0-.231-.376.782.782,0,0,0-.572-.157,1.459,1.459,0,0,0-1.093.913,3.518,3.518,0,0,0-.376,1.657,2.693,2.693,0,0,0,1.49,2.587,1.11,1.11,0,0,0,.95-.148c.186-.146.219-.278.2-.29" transform="translate(-3.229 -11.116)" fill="#ff9b6c"/>
          <path id="Trazado_728464" data-name="Trazado 728464" d="M45.423,86.651c.205-.013.214,1.355,1.389,2.321s2.631.808,2.643,1c.019.086-.324.267-.939.287a3.412,3.412,0,0,1-2.206-.757,2.965,2.965,0,0,1-1.076-1.947c-.055-.572.1-.912.19-.9" transform="translate(-6.253 -11.982)" fill="#263238"/>
          <path id="Trazado_728465" data-name="Trazado 728465" d="M68.592,58.1a1.41,1.41,0,0,0-.654-.832,4.344,4.344,0,0,0-2.224-.388,12.546,12.546,0,0,1-5.436-1.43,6.216,6.216,0,0,0,1.616-1.107,3.742,3.742,0,0,0,1.118-3.706.831.831,0,0,0-.461-.575c-.386-.123-.729.253-1,.551A3.219,3.219,0,0,1,58.5,51.865a5.276,5.276,0,0,1-2.257-.7c-.026-.027-.048-.057-.074-.084-.306-.323-.6-.633-.9-.932l0,0v0a19.713,19.713,0,0,0-6.1-4.632,20.242,20.242,0,0,0-10.8-.973c-3.043.761-5.794,3.191-6.251,6.293-1.685-1.457-4.238-1.474-6.319-.665l-.052-.023c-2.316.8-3.655,3.219-4.362,5.563-.039.128-.072.259-.109.388a9.146,9.146,0,0,1-3.138,3c-.225.128-.483.284-.513.54s.183.467.389.619a4.606,4.606,0,0,0,1.858.8,10.307,10.307,0,0,1-.783,1.612c-.265.438-.581.963-.358,1.424a.975.975,0,0,0,1.013.456,2.861,2.861,0,0,0,1.08-.474q-.4.919-.793,1.839a5.444,5.444,0,0,0,2.511-.139c.465,2.206.787,6.285,1.337,7.782,1.581.046,1.967-.122,2.762.152,1.028.354.614,2.176,1.962,1.673.686-.257,1.765-2.835,2-3.529A34.016,34.016,0,0,0,32.246,57.47a10.946,10.946,0,0,1,3.4-2.4l-.1.092c2.446-.819,5.211-1.619,7.509-.45,1.782.908,2.815,2.78,4.139,4.28a12.473,12.473,0,0,0,9.152,4.583c.311,2.634.364,6.937.464,9.392l2.152-4.889v.02c.173-.286.316-.575.454-.863l.047-.088v-.011a15.367,15.367,0,0,1,.707-1.388l.023.022a1.533,1.533,0,0,0,2.264-2.025,3.474,3.474,0,0,0-.732-.754,2.425,2.425,0,0,0,2.3.626A1.9,1.9,0,0,0,65.4,61.749a1.618,1.618,0,0,0-.95-1.309,5.47,5.47,0,0,0,3.117-.65c.618-.343,1.226-.913,1.027-1.687" transform="translate(-2.438 -6.111)" fill="#263238"/>
          <path id="Trazado_728466" data-name="Trazado 728466" d="M35.542,53.107a7.528,7.528,0,0,0-.884.79,6.268,6.268,0,0,0-1.371,2.88,11.043,11.043,0,0,0-.248,2.213c-.012.8.042,1.663.094,2.571a23.08,23.08,0,0,1,.033,2.86,10.19,10.19,0,0,1-.214,1.506,3.145,3.145,0,0,1-.632,1.456,1.316,1.316,0,0,1-1.235.4,1.957,1.957,0,0,1-1.1-.638,4.523,4.523,0,0,1-.814-2.227l.183.024a7.3,7.3,0,0,1-1.082,1.815,2.594,2.594,0,0,1-1.706.9,1.671,1.671,0,0,1-.9-.167,1.452,1.452,0,0,1-.6-.608,1.5,1.5,0,0,1-.177-.776,1.086,1.086,0,0,1,.288-.675l.091.084A5.614,5.614,0,0,1,23.376,66.9a5.032,5.032,0,0,1-.583.219.973.973,0,0,1-.209.049,1.017,1.017,0,0,1,.2-.082c.13-.052.324-.128.565-.246a5.786,5.786,0,0,0,1.824-1.405l.091.084a1.119,1.119,0,0,0-.072,1.3,1.307,1.307,0,0,0,.546.539,1.518,1.518,0,0,0,.813.142,2.435,2.435,0,0,0,1.584-.86,7.179,7.179,0,0,0,1.042-1.776l.129-.278.054.3a4.366,4.366,0,0,0,.776,2.127,1.764,1.764,0,0,0,.984.57,1.109,1.109,0,0,0,1.05-.339,2.973,2.973,0,0,0,.583-1.362,10.032,10.032,0,0,0,.213-1.474,23.468,23.468,0,0,0-.022-2.836c-.046-.907-.095-1.771-.075-2.584a10.95,10.95,0,0,1,.277-2.242,6.166,6.166,0,0,1,1.454-2.9,3.527,3.527,0,0,1,.942-.736" transform="translate(-3.123 -7.344)" fill="#455a64"/>
          <path id="Trazado_728467" data-name="Trazado 728467" d="M64.547,61.122a.323.323,0,0,1-.071.059l-.22.157a2.91,2.91,0,0,1-.371.232,4.757,4.757,0,0,1-.534.274,7.739,7.739,0,0,1-3.74.628,9.878,9.878,0,0,1-5.24-2,17.117,17.117,0,0,1-4.461-5.263c-.622-1.062-1.127-2.151-1.686-3.157a11.574,11.574,0,0,0-1.918-2.676,5.954,5.954,0,0,0-2.495-1.554,4.263,4.263,0,0,0-1.324-.167,4.693,4.693,0,0,0-1.215.219,5.038,5.038,0,0,0-2.829,2.34,6.079,6.079,0,0,0-.465,1.3.305.305,0,0,1,.008-.091l.045-.267a4.379,4.379,0,0,1,.342-.981,4.976,4.976,0,0,1,.991-1.312,5.112,5.112,0,0,1,1.863-1.127,4.807,4.807,0,0,1,1.255-.239,4.38,4.38,0,0,1,1.376.162,6.1,6.1,0,0,1,2.581,1.582,11.634,11.634,0,0,1,1.96,2.714c.565,1.013,1.07,2.1,1.686,3.152a17.125,17.125,0,0,0,4.4,5.213,9.83,9.83,0,0,0,5.139,2.01,7.852,7.852,0,0,0,3.7-.558,12.151,12.151,0,0,0,1.228-.648" transform="translate(-5.252 -6.567)" fill="#455a64"/>
          <path id="Trazado_728468" data-name="Trazado 728468" d="M68.3,58.873a1.421,1.421,0,0,1-.316.215,6.727,6.727,0,0,1-.932.459,8.911,8.911,0,0,1-1.471.464,9.5,9.5,0,0,1-3.764.078,8.984,8.984,0,0,1-1.488-.4,6.758,6.758,0,0,1-.95-.421,1.411,1.411,0,0,1-.324-.2c.018-.034.5.219,1.319.485a10.333,10.333,0,0,0,1.475.355,10.147,10.147,0,0,0,3.692-.077A10.285,10.285,0,0,0,67,59.412c.812-.3,1.28-.573,1.3-.539" transform="translate(-8.166 -8.141)" fill="#455a64"/>
          <path id="Trazado_728469" data-name="Trazado 728469" d="M40.239,380.1l-.861,19.7s19.73,7.49,19.925,11.145l-38.248-.3.082-30.744Z" transform="translate(-2.912 -52.533)" fill="#455a64"/>
          <path id="Trazado_728470" data-name="Trazado 728470" d="M28.427,400.944a1.563,1.563,0,0,0-1.094,1.774,1.5,1.5,0,0,0,1.749,1.1,1.647,1.647,0,0,0,1.149-1.885,1.556,1.556,0,0,0-1.946-.942" transform="translate(-3.775 -55.435)" fill="#e0e0e0"/>
          <g id="Grupo_1030258" data-name="Grupo 1030258" transform="translate(18.144 355.007)" opacity="0.6">
            <g id="Grupo_1030257" data-name="Grupo 1030257">
              <g id="Grupo_1030256" data-name="Grupo 1030256" clip-path="url(#clip-path-7)">
                <path id="Trazado_728471" data-name="Trazado 728471" d="M21.055,415.075l.129-3.1,36.624,1.444s1.7.755,1.5,1.953Z" transform="translate(-21.055 -411.976)" fill="#fff"/>
              </g>
            </g>
          </g>
          <path id="Trazado_728472" data-name="Trazado 728472" d="M42.477,402.735c-.008.187-.942.265-1.866.857-.939.57-1.419,1.374-1.591,1.3-.171-.038.115-1.152,1.246-1.851s2.253-.477,2.21-.306" transform="translate(-5.39 -55.667)" fill="#263238"/>
          <path id="Trazado_728473" data-name="Trazado 728473" d="M47.27,404.714c.041.181-.77.493-1.411,1.278-.664.766-.83,1.619-1.016,1.609-.176.028-.3-1.067.519-2.028s1.905-1.038,1.908-.859" transform="translate(-6.183 -55.954)" fill="#263238"/>
          <path id="Trazado_728474" data-name="Trazado 728474" d="M50.245,409.8c-.17.039-.422-.9.065-1.916s1.363-1.419,1.442-1.263c.1.154-.467.7-.855,1.542-.407.833-.467,1.621-.652,1.637" transform="translate(-6.918 -56.224)" fill="#263238"/>
          <path id="Trazado_728475" data-name="Trazado 728475" d="M42.051,397.42c-.079.17-.935-.095-1.991-.031-1.058.042-1.882.39-1.979.228-.107-.135.7-.82,1.946-.878s2.116.534,2.023.681" transform="translate(-5.265 -54.861)" fill="#263238"/>
          <path id="Trazado_728476" data-name="Trazado 728476" d="M43.188,397.271a32.019,32.019,0,0,1,.053,4.743l-.153-.234c2.234.848,5.2,1.992,8.36,3.48a44.864,44.864,0,0,1,8.476,4.882,9.062,9.062,0,0,1,2.1,2.135c.4.614.345,1.084.283,1.061a2.667,2.667,0,0,0-.488-.919,10.654,10.654,0,0,0-2.165-1.916,55.527,55.527,0,0,0-8.474-4.663c-3.135-1.479-6.073-2.674-8.266-3.612l-.162-.07.009-.164a31.992,31.992,0,0,1,.429-4.724" transform="translate(-5.911 -54.936)" fill="#263238"/>
          <path id="Trazado_728477" data-name="Trazado 728477" d="M14.614,220.75V238.6l7.041,57s-2.232,26.731-3.6,41.82c-1.19,13.105.755,35.926.755,35.926H39.684l7.469-76.11,4.636-47.466L60.2,221.655Z" transform="translate(-2.021 -30.526)" fill="#12263f"/>
          <path id="Trazado_728478" data-name="Trazado 728478" d="M53.417,375.41,47.95,394.351S65.366,406.27,64.7,409.868L27.59,400.586,34.9,370.724Z" transform="translate(-3.815 -51.265)" fill="#455a64"/>
          <path id="Trazado_728479" data-name="Trazado 728479" d="M38.131,392.943a1.561,1.561,0,0,0-1.48,1.467,1.5,1.5,0,0,0,1.442,1.48,1.649,1.649,0,0,0,1.56-1.562,1.558,1.558,0,0,0-1.67-1.373" transform="translate(-5.068 -54.335)" fill="#e0e0e0"/>
          <g id="Grupo_1030261" data-name="Grupo 1030261" transform="translate(23.775 346.34)" opacity="0.6">
            <g id="Grupo_1030260" data-name="Grupo 1030260">
              <g id="Grupo_1030259" data-name="Grupo 1030259" clip-path="url(#clip-path-8)">
                <path id="Trazado_728480" data-name="Trazado 728480" d="M27.59,404.9l.854-2.981L63.7,411.933s1.472,1.132.994,2.249Z" transform="translate(-27.59 -401.919)" fill="#fff"/>
              </g>
            </g>
          </g>
          <path id="Trazado_728481" data-name="Trazado 728481" d="M51.345,398.035c-.051.18-.978.035-2.015.395-1.047.333-1.7,1-1.852.889-.158-.078.383-1.093,1.647-1.506s2.3.065,2.22.222" transform="translate(-6.562 -54.987)" fill="#263238"/>
          <path id="Trazado_728482" data-name="Trazado 728482" d="M55.521,401.071c0,.186-.864.3-1.671.91-.826.589-1.188,1.379-1.367,1.325-.178-.014-.037-1.106.981-1.848s2.1-.561,2.057-.387" transform="translate(-7.249 -55.439)" fill="#263238"/>
          <path id="Trazado_728483" data-name="Trazado 728483" d="M57.215,406.695c-.174,0-.2-.971.514-1.847s1.66-1.059,1.7-.888c.065.174-.618.569-1.193,1.3-.592.714-.835,1.466-1.019,1.438" transform="translate(-7.898 -55.852)" fill="#263238"/>
          <path id="Trazado_728484" data-name="Trazado 728484" d="M52.233,392.735c-.117.146-.886-.312-1.928-.5-1.038-.209-1.921-.064-1.976-.243-.072-.157.874-.633,2.1-.4s1.931,1.017,1.806,1.137" transform="translate(-6.683 -54.142)" fill="#263238"/>
          <path id="Trazado_728485" data-name="Trazado 728485" d="M70.122,222.163l.958,9.708-1.157,70.494L53.4,358.993l-4,13.733-21.325-4.016L44.511,222.183Z" transform="translate(-3.882 -30.721)" fill="#12263f"/>
          <path id="Trazado_728486" data-name="Trazado 728486" d="M69.441,307.022s-.022.115-.081.335-.153.555-.269.978l-1.075,3.792c-.955,3.321-2.344,8.149-4.094,14.236l-14.381,49.6-.047.163-.167-.031L28,372.085l-.2-.036.037-.2c1.088-5.746,2.225-11.75,3.385-17.873L40.758,303.8v.061c-3.531-22.169-6.347-39.848-7.965-50l.009.027-3.561-6.479-.908-1.675c-.2-.377-.3-.576-.3-.576s.119.184.333.554l.945,1.655,3.63,6.44.007.013,0,.015L41.11,303.8l.005.031-.006.031-9.488,50.189c-1.161,6.123-2.3,12.127-3.389,17.873l-.158-.232L49.4,375.722l-.215.132c5.907-20.162,10.951-37.372,14.52-49.555,1.795-6.074,3.218-10.892,4.2-14.206.492-1.641.871-2.906,1.132-3.775l.3-.97c.069-.217.111-.326.111-.326" transform="translate(-3.845 -33.901)" fill="#455a64"/>
          <path id="Trazado_728487" data-name="Trazado 728487" d="M70.562,228.872a6.7,6.7,0,0,1-1.161,1.7,15.7,15.7,0,0,1-8.4,5.117,6.661,6.661,0,0,1-2.046.25,22.991,22.991,0,0,0,6.447-2.477,23.035,23.035,0,0,0,5.157-4.593" transform="translate(-8.153 -31.649)" fill="#455a64"/>
          <path id="Trazado_728488" data-name="Trazado 728488" d="M123.458,105.217a.9.9,0,0,0-.2-1.243.445.445,0,0,0-.32-.094c-.427.071-1.55.891-2.415.906s-2.336-.251-3.2.552-2.974,5.208-3.242,6.164-1.206,9.357-1.206,9.357Z" transform="translate(-15.608 -14.364)" fill="#ffc09d"/>
          <path id="Trazado_728489" data-name="Trazado 728489" d="M126.865,104.154c-.047.053-10.349,4.6-14.874,6.6a1.538,1.538,0,0,0-.44,2.524,1.609,1.609,0,0,0,1.841.286l14.785-7.2L129.4,104.5Z" transform="translate(-15.359 -14.403)" fill="#263238"/>
          <path id="Trazado_728490" data-name="Trazado 728490" d="M115.894,113.418l3.284-2.42,4.338-6.294s1.776-1.056,2.7-.39,1.22,1.433.793,2.293c0,0,2.45.585,2.626,1.405a9.373,9.373,0,0,1-.354,2.817,4.948,4.948,0,0,1,.018,2.345,3.77,3.77,0,0,0-.309,1.513s1.587,1.942.9,3.929-3.544,6.418-5.076,7.564a33.281,33.281,0,0,1-4.429,2.519l-1.893,3.966-7.856-7.113Z" transform="translate(-15.299 -14.394)" fill="#ffc09d"/>
          <path id="Trazado_728491" data-name="Trazado 728491" d="M124.383,105.116a1.821,1.821,0,0,1-.2.34l-.586.891c-.5.749-1.2,1.777-1.981,2.906l-1.108,1.59a3.956,3.956,0,0,1-.564.647,2.734,2.734,0,0,1-.63.408,5.206,5.206,0,0,1-1.018.342,1.773,1.773,0,0,1-.386.071,1.99,1.99,0,0,1,.37-.131,6.423,6.423,0,0,0,.984-.383c.847-.356,1.41-1.539,2.22-2.635.782-1.13,1.5-2.147,2.02-2.88l.627-.862a1.881,1.881,0,0,1,.248-.3" transform="translate(-16.305 -14.536)" fill="#ff9b6c"/>
          <path id="Trazado_728492" data-name="Trazado 728492" d="M126.592,111.93a24.2,24.2,0,0,1,1.266-2.474,24,24,0,0,1,1.406-2.4A24.29,24.29,0,0,1,128,109.534a24.121,24.121,0,0,1-1.406,2.4" transform="translate(-17.505 -14.804)" fill="#ff9b6c"/>
          <path id="Trazado_728493" data-name="Trazado 728493" d="M127.5,117.056c-.025,0-.037-.141-.117-.346a1.449,1.449,0,0,0-.511-.657,1.481,1.481,0,0,0-.8-.253c-.22-.007-.357.029-.365,0s.122-.094.361-.118a1.363,1.363,0,0,1,.89.235,1.335,1.335,0,0,1,.527.754c.059.233.028.381.009.38" transform="translate(-17.384 -15.997)" fill="#ff9b6c"/>
          <path id="Trazado_728494" data-name="Trazado 728494" d="M131.656,118.481c-.015.017-.137-.073-.324-.222a3.857,3.857,0,0,0-.768-.5,1.471,1.471,0,0,0-.867-.141.879.879,0,0,0-.325.165c-.023,0,.036-.19.294-.275a1.371,1.371,0,0,1,.964.105,2.7,2.7,0,0,1,.776.563c.171.173.264.291.249.307" transform="translate(-17.889 -16.243)" fill="#ff9b6c"/>
          <path id="Trazado_728495" data-name="Trazado 728495" d="M130.39,114.4a13.61,13.61,0,0,1,1.576-2.49,13.609,13.609,0,0,1-1.576,2.49" transform="translate(-18.03 -15.475)" fill="#ff9b6c"/>
          <path id="Trazado_728496" data-name="Trazado 728496" d="M122.824,114.926c-.025,0-.022-.136-.082-.332a1.235,1.235,0,0,0-.444-.634,1.272,1.272,0,0,0-.741-.228c-.206,0-.333.043-.342.02s.109-.1.333-.133a1.187,1.187,0,0,1,.844.211,1.164,1.164,0,0,1,.46.738c.036.224-.01.361-.028.358" transform="translate(-16.762 -15.71)" fill="#ff9b6c"/>
          <path id="Trazado_728497" data-name="Trazado 728497" d="M112.96,114.705c-.018-.022.142-.144.284-.417a1.42,1.42,0,0,0,.077-1.142,1.5,1.5,0,0,0-.817-.809c-.284-.118-.486-.114-.485-.141a.788.788,0,0,1,.524.034,1.494,1.494,0,0,1,.928.858,1.425,1.425,0,0,1-.128,1.256c-.181.282-.375.376-.382.361" transform="translate(-15.49 -15.511)" fill="#455a64"/>
          <path id="Trazado_728498" data-name="Trazado 728498" d="M78.23,136.23,90.691,146.9l15.3-22.851,9.946,5.867s-14.907,34.314-18.947,37.346S89.538,169.5,84.34,167.1s-23.711-21.041-23.711-21.041Z" transform="translate(-8.384 -17.153)" fill="#ffc09d"/>
          <path id="Trazado_728499" data-name="Trazado 728499" d="M95.944,160.021c-.122-.019.217-2.173.066-4.835-.134-2.664-.7-4.77-.582-4.8a16.4,16.4,0,0,1,.515,9.636" transform="translate(-13.194 -20.796)" fill="#ff9b6c"/>
          <path id="Trazado_728500" data-name="Trazado 728500" d="M18.988,117.877s10.593.153,10.747,13.357-2.7,30.866-2.7,30.866L0,157.334s3.354-24.58,6.217-31.66c2.882-7.125,8.386-9,12.771-7.8" transform="translate(0 -16.254)" fill="#ff9d00"/>
          <path id="Trazado_728501" data-name="Trazado 728501" d="M25.314,106.9l-.337,2.153S10.526,118.6,9.709,121.069c-1.268,3.821,1.5,36.1,2.715,45.247s1.467,29.31,1.467,29.31a28,28,0,0,0-2.228,7.83c-.331,3.286,2.228,6.285,2.228,6.285,15.506,5.06,34.447,1.175,54.939-3.5l-.193-5.809-6.7-63.1s1.952-16.4-6.049-21.15c-.879-.521-7.859-4.487-7.859-4.487Z" transform="translate(-1.298 -14.783)" fill="#ff9d00"/>
          <g id="Grupo_1030264" data-name="Grupo 1030264" transform="translate(47.254 119.475)" opacity="0.3">
            <g id="Grupo_1030263" data-name="Grupo 1030263">
              <g id="Grupo_1030262" data-name="Grupo 1030262" clip-path="url(#clip-path-9)">
                <path id="Trazado_728502" data-name="Trazado 728502" d="M54.837,138.647A48.933,48.933,0,0,0,59.6,158.112a57.673,57.673,0,0,0,12.156,16.87L69.586,156.1Z" transform="translate(-54.837 -138.647)"/>
              </g>
            </g>
          </g>
          <path id="Trazado_728503" data-name="Trazado 728503" d="M66.608,119.8c-2.533-2.05-7.245-3.164-9.934-1.321a8.1,8.1,0,0,0-3.262,4.016c-2.295,6.71-.923,13.925.913,19.279s10.709,15.668,10.709,15.668L86.96,144.132s-14.674-17.787-16.2-19.624a38.724,38.724,0,0,0-4.147-4.711" transform="translate(-7.22 -16.254)" fill="#ff9d00"/>
          <path id="Trazado_728504" data-name="Trazado 728504" d="M66.583,119.782a3.849,3.849,0,0,1,.464.37,16.159,16.159,0,0,1,1.209,1.229c1.016,1.118,2.355,2.863,4.164,4.988L87.075,144l.134.16-.179.109-20.715,12.6-1.2.728-.146.089-.109-.13c-2.452-2.9-4.73-5.811-6.775-8.741a46.743,46.743,0,0,1-2.8-4.457,18.58,18.58,0,0,1-1.08-2.328c-.294-.792-.529-1.586-.761-2.374-1.831-6.3-1.878-12.473-.208-17.172a7.02,7.02,0,0,1,7.291-5.034,10.123,10.123,0,0,1,2.27.388,10.767,10.767,0,0,1,2.9,1.281,5.2,5.2,0,0,1,.882.665c-.017.023-.3-.234-.925-.6a11.286,11.286,0,0,0-2.9-1.2,10.076,10.076,0,0,0-2.239-.347,7.283,7.283,0,0,0-2.646.345,7.882,7.882,0,0,0-4.37,4.59c-1.612,4.646-1.54,10.742.295,16.981.233.778.47,1.573.761,2.348a18.064,18.064,0,0,0,1.063,2.274,46.724,46.724,0,0,0,2.782,4.415c2.038,2.911,4.318,5.819,6.758,8.7l-.256-.04,1.2-.728,20.735-12.562-.046.27L72.254,126.508c-1.785-2.146-3.1-3.917-4.085-5.052-.489-.57-.886-.988-1.163-1.261s-.433-.4-.423-.413" transform="translate(-7.195 -16.239)" fill="#263238"/>
          <path id="Trazado_728505" data-name="Trazado 728505" d="M9.428,131.822a1.407,1.407,0,0,1,.063.383c.028.3.06.661.1,1.1.074,1.019.173,2.389.294,4.054.221,3.48.519,8.182.849,13.378.342,5.225.7,9.949,1.011,13.365.154,1.661.282,3.028.376,4.044.039.439.071.8.1,1.1a1.423,1.423,0,0,1,.006.388,1.408,1.408,0,0,1-.086-.377c-.047-.3-.1-.657-.171-1.093-.139-.95-.317-2.328-.5-4.035-.383-3.412-.787-8.139-1.129-13.366S9.758,140.8,9.6,137.375c-.068-1.667-.124-3.04-.166-4.06-.01-.441-.019-.807-.026-1.106a1.411,1.411,0,0,1,.018-.387" transform="translate(-1.301 -18.229)" fill="#263238"/>
          <path id="Trazado_728506" data-name="Trazado 728506" d="M59.042,220.749a1.668,1.668,0,0,1-.406.127l-1.183.288c-.514.127-1.147.259-1.885.4s-1.577.308-2.512.447c-1.864.321-4.1.582-6.591.825-2.491.209-5.238.362-8.124.4-2.888.021-5.637-.078-8.133-.244-2.493-.2-4.736-.427-6.6-.731-.938-.129-1.779-.284-2.516-.426s-1.374-.261-1.887-.388l-1.184-.284a1.752,1.752,0,0,1-.406-.126,1.678,1.678,0,0,1,.424.046l1.2.21c.517.1,1.154.209,1.894.32s1.581.255,2.518.366c1.866.266,4.1.462,6.589.643,2.488.144,5.227.232,8.1.211,2.876-.036,5.612-.178,8.1-.365,2.482-.221,4.716-.452,6.58-.736.935-.121,1.776-.264,2.514-.388s1.376-.226,1.893-.329l1.2-.213a1.749,1.749,0,0,1,.424-.048" transform="translate(-2.435 -30.525)" fill="#263238"/>
        </g>
      </g>
    </g>
  </g>
</svg>
