<svg xmlns="http://www.w3.org/2000/svg" width="95.165" height="111.893" viewBox="0 0 95.165 111.893">
  <g id="Grupo_1036324" data-name="Grupo 1036324" transform="translate(-368.339 -5741.045)">
    <g id="Grupo_172427" data-name="Grupo 172427" transform="translate(398.001 5741.045)">
      <g id="Grupo_163023" data-name="Grupo 163023" transform="translate(0 30.37)">
        <path id="Trazado_202930" data-name="Trazado 202930" d="M248.379,122v55.267c0,6.961-10.608,12.6-23.694,12.6s-23.695-5.643-23.695-12.6v-55.5Z" transform="translate(-200.99 -121.768)" fill="#399ee2"/>
      </g>
      <g id="Grupo_163024" data-name="Grupo 163024" transform="translate(9.437 39.723)">
        <path id="Trazado_202931" data-name="Trazado 202931" d="M220.129,150.744a38.454,38.454,0,0,0,14.257,2.6c13.087,0,23.695-5.643,23.695-12.6V177.77c0,6.961-10.608,12.6-23.695,12.6a38.444,38.444,0,0,1-14.257-2.6Z" transform="translate(-220.129 -140.736)" fill="#efe2e1"/>
      </g>
      <path id="Trazado_202932" data-name="Trazado 202932" d="M230.584,167.241a40.749,40.749,0,0,0,9.1,1.038c13.087,0,23.695-5.643,23.695-12.6v4.232c0,6.96-10.608,12.6-23.695,12.6a40.777,40.777,0,0,1-9.1-1.038Z" transform="translate(-215.992 -108.586)" fill="#422c2a"/>
      <path id="Trazado_202933" data-name="Trazado 202933" d="M202.029,103.676l-.026-.01a11.148,11.148,0,0,1,.661-1.077c.125-.171.238-.342.377-.509,1.706-2.311,5.767-6.59,13.77-8.8,2.772-.764,4.356-.05,5.2,1.43.89-.054,1.761-.143,2.677-.143.937,0,1.828.09,2.736.147.839-1.483,2.424-2.2,5.2-1.433,8.365,2.308,12.475,6.92,14.035,9.137a13.027,13.027,0,0,1,1.725,4.752c0,6.961-10.608,12.6-23.694,12.6s-23.694-5.643-23.694-12.6A7.332,7.332,0,0,1,202.029,103.676Z" transform="translate(-200.991 -76.8)" fill="#65b6f8"/>
      <path id="Trazado_202934" data-name="Trazado 202934" d="M234.888,91.563c7.043,0,12.753,3.037,12.753,6.784s-5.709,6.783-12.753,6.783-12.753-3.037-12.753-6.783S227.845,91.563,234.888,91.563Z" transform="translate(-211.709 -76.086)" fill="#399ee2"/>
      <g id="Grupo_163026" data-name="Grupo 163026" transform="translate(10.412)">
        <path id="Trazado_202935" data-name="Trazado 202935" d="M248.2,74.25V85.016a4.884,4.884,0,0,1-1.936,3.42,8.859,8.859,0,0,1-1.4,1.1,15.014,15.014,0,0,1-3.874,1.6c-.527.143-1.047.259-1.613.364a23.014,23.014,0,0,1-3.8.408c-.149,0-.273.046-.424.046-.422,0-.778-.107-1.19-.128a23.6,23.6,0,0,1-3.918-.428,16.323,16.323,0,0,1-1.613-.578,13.884,13.884,0,0,1-3.23-1.471,8.857,8.857,0,0,1-1.4-1.1,4.73,4.73,0,0,1-1.7-3.233V74.25Z" transform="translate(-222.107 -67.31)" fill="#563937"/>
        <g id="Grupo_163025" data-name="Grupo 163025" transform="translate(1.699 12.25)">
          <path id="Trazado_202936" data-name="Trazado 202936" d="M246.958,90.781a.809.809,0,0,1,.807.807v8.7c-.149,0-.273.045-.424.045-.422,0-.778-.106-1.19-.128V91.588A.809.809,0,0,1,246.958,90.781Z" transform="translate(-235.994 -87.94)" fill="#422c2a"/>
          <path id="Trazado_202937" data-name="Trazado 202937" d="M257.941,89.769a.809.809,0,0,1,.807.807V99c-.527.143-1.047.259-1.613.364V90.576A.809.809,0,0,1,257.941,89.769Z" transform="translate(-241.562 -87.427)" fill="#422c2a"/>
          <path id="Trazado_202938" data-name="Trazado 202938" d="M235.742,89.068a.809.809,0,0,1,.807.806v9.036a16.328,16.328,0,0,1-1.613-.578V89.874A.809.809,0,0,1,235.742,89.068Z" transform="translate(-230.308 -87.072)" fill="#422c2a"/>
          <path id="Trazado_202939" data-name="Trazado 202939" d="M226.25,85.1a1.677,1.677,0,0,1,.7,1.334v8.373a8.858,8.858,0,0,1-1.4-1.1V85.63C225.552,85.118,225.867,84.881,226.25,85.1Z" transform="translate(-225.552 -85.019)" fill="#422c2a"/>
          <path id="Trazado_202940" data-name="Trazado 202940" d="M268.961,85.1c.384-.222.7.016.7.528v8.264a8.86,8.86,0,0,1-1.4,1.1v-8.56A1.68,1.68,0,0,1,268.961,85.1Z" transform="translate(-247.203 -85.019)" fill="#422c2a"/>
        </g>
        <path id="Trazado_202941" data-name="Trazado 202941" d="M235.153,60.176c7.205,0,13.046,3.107,13.046,6.94s-5.841,6.94-13.046,6.94-13.047-3.107-13.047-6.94S227.947,60.176,235.153,60.176Z" transform="translate(-222.106 -60.176)" fill="#644"/>
      </g>
      <g id="Grupo_163027" data-name="Grupo 163027" transform="translate(28.74 64.974)">
        <path id="Trazado_202942" data-name="Trazado 202942" d="M266.432,198.085c3.14-1.482,8.132-1.521,8.132-1.521l1.353,2.638c1.192,2.527-1.122,6.123-5.168,8.032-3.963,1.87-8.1,1.415-9.389-.979l-1.448-2.777S263.291,199.566,266.432,198.085Z" transform="translate(-259.598 -194.287)" fill="#bc9b96"/>
        <path id="Trazado_202943" data-name="Trazado 202943" d="M269.074,202.254c4.046-1.909,6.359-5.505,5.168-8.031s-5.439-3.027-9.485-1.118-6.36,5.5-5.168,8.031S265.028,204.163,269.074,202.254Z" transform="translate(-259.276 -191.945)" fill="#dec9c5"/>
      </g>
      <g id="Grupo_163028" data-name="Grupo 163028" transform="translate(12.713 69.201)">
        <path id="Trazado_202944" data-name="Trazado 202944" d="M230.347,205.523a16.1,16.1,0,0,1,8.389,1.682c3.318,1.544,5.854,3.727,6.985,5.774l1.617.784-1.211,2.539c-1.2,2.57-6.442,2.663-11.72.209s-8.587-6.529-7.391-9.1l1.331-2.86Z" transform="translate(-226.772 -202.563)" fill="#bc9b96"/>
        <path id="Trazado_202945" data-name="Trazado 202945" d="M237.106,211.605c5.277,2.455,10.524,2.361,11.72-.208s-2.114-6.643-7.391-9.1-10.524-2.361-11.72.208S231.829,209.15,237.106,211.605Z" transform="translate(-228.14 -200.518)" fill="#d1b8b4"/>
      </g>
    </g>
    <g id="Grupo_172426" data-name="Grupo 172426" transform="translate(368.339 5796.203)">
      <path id="Trazado_202880" data-name="Trazado 202880" d="M212.962,297.687l-1.145.673a8.8,8.8,0,0,0-1.516-1.1L158.95,267.614c-5-2.889-13.826-2.524-19.6.813L123.9,277.346a12.316,12.316,0,0,0-2.995,2.36l-1.073-.674a6.769,6.769,0,0,0-.193,6.833c.011.019.023.029.034.047a7.051,7.051,0,0,0,2.819,2.752l51.351,29.647c5,2.889,13.826,2.524,19.6-.813l15.449-8.919a10.715,10.715,0,0,0,3.967-3.656c.012-.02.026-.029.038-.051A6.822,6.822,0,0,0,212.962,297.687Z" transform="translate(-118.783 -263.527)" fill="#bc9b96"/>
      <path id="Trazado_202881" data-name="Trazado 202881" d="M174.261,313.451,122.91,283.8c-5-2.889-4.37-7.983,1.408-11.319l15.449-8.919c5.778-3.336,14.6-3.7,19.6-.813L210.722,292.4c5,2.889,4.371,7.982-1.408,11.319l-15.449,8.92C188.087,315.974,179.265,316.34,174.261,313.451Z" transform="translate(-119.204 -260.803)" fill="#dec9c5"/>
      <g id="Grupo_163006" data-name="Grupo 163006" transform="translate(8.36 1.343)">
        <g id="Grupo_162996" data-name="Grupo 162996" transform="translate(0 8.963)">
          <g id="Grupo_162994" data-name="Grupo 162994" transform="translate(2.134 1.635)">
            <path id="Trazado_202882" data-name="Trazado 202882" d="M148.191,297.61c-3.061,0-5.543-1.32-5.543-2.948v3.891c0,1.628,2.481,2.948,5.543,2.948s5.542-1.32,5.542-2.948v-3.891C153.733,296.29,151.251,297.61,148.191,297.61Z" transform="translate(-142.648 -291.714)" fill="#399ee2"/>
            <path id="Trazado_202883" data-name="Trazado 202883" d="M148.191,287.958c-3.061,0-5.543,1.32-5.543,2.948s2.481,2.948,5.543,2.948,5.542-1.32,5.542-2.948S151.251,287.958,148.191,287.958Z" transform="translate(-142.648 -287.958)" fill="#65b6f8"/>
          </g>
          <g id="Grupo_162995" data-name="Grupo 162995">
            <path id="Trazado_202884" data-name="Trazado 202884" d="M145.471,297.611c-4.24,0-7.677-1.829-7.677-4.084v5.389c0,2.255,3.437,4.083,7.677,4.083s7.677-1.828,7.677-4.083v-5.389C153.148,295.782,149.711,297.611,145.471,297.611Z" transform="translate(-137.794 -289.443)" fill="#e6f3ff" opacity="0.5"/>
            <path id="Trazado_202885" data-name="Trazado 202885" d="M145.471,284.24c-4.24,0-7.677,1.828-7.677,4.084s3.437,4.084,7.677,4.084,7.677-1.829,7.677-4.084S149.711,284.24,145.471,284.24Z" transform="translate(-137.794 -284.24)" fill="#fff" opacity="0.5"/>
          </g>
        </g>
        <g id="Grupo_162999" data-name="Grupo 162999" transform="translate(15.354)">
          <g id="Grupo_162997" data-name="Grupo 162997" transform="translate(2.134 1.635)">
            <path id="Trazado_202886" data-name="Trazado 202886" d="M183.108,277.228c-3.061,0-5.543-1.32-5.543-2.948v3.891c0,1.628,2.482,2.948,5.543,2.948s5.542-1.321,5.542-2.948V274.28C188.65,275.908,186.169,277.228,183.108,277.228Z" transform="translate(-177.565 -271.332)" fill="#399ee2"/>
            <path id="Trazado_202887" data-name="Trazado 202887" d="M183.108,267.576c-3.061,0-5.543,1.32-5.543,2.948s2.482,2.948,5.543,2.948,5.542-1.32,5.542-2.948S186.169,267.576,183.108,267.576Z" transform="translate(-177.565 -267.576)" fill="#65b6f8"/>
          </g>
          <g id="Grupo_162998" data-name="Grupo 162998">
            <path id="Trazado_202888" data-name="Trazado 202888" d="M180.388,277.229c-4.24,0-7.677-1.829-7.677-4.084v5.389c0,2.255,3.437,4.083,7.677,4.083s7.677-1.828,7.677-4.083v-5.389C188.065,275.4,184.628,277.229,180.388,277.229Z" transform="translate(-172.711 -269.061)" fill="#e6f3ff" opacity="0.5"/>
            <path id="Trazado_202889" data-name="Trazado 202889" d="M180.388,263.858c-4.24,0-7.677,1.828-7.677,4.084s3.437,4.084,7.677,4.084,7.677-1.829,7.677-4.084S184.628,263.858,180.388,263.858Z" transform="translate(-172.711 -263.858)" fill="#fff" opacity="0.5"/>
          </g>
        </g>
        <g id="Grupo_163002" data-name="Grupo 163002" transform="translate(16.221 18.087)">
          <g id="Grupo_163000" data-name="Grupo 163000" transform="translate(2.135 1.635)">
            <path id="Trazado_202890" data-name="Trazado 202890" d="M185.08,318.361c-3.061,0-5.542-1.32-5.542-2.948V319.3c0,1.628,2.481,2.948,5.542,2.948s5.542-1.32,5.542-2.948v-3.891C190.623,317.041,188.141,318.361,185.08,318.361Z" transform="translate(-179.538 -312.465)" fill="#399ee2"/>
            <path id="Trazado_202891" data-name="Trazado 202891" d="M185.08,308.709c-3.061,0-5.542,1.32-5.542,2.948s2.481,2.948,5.542,2.948,5.542-1.32,5.542-2.948S188.141,308.709,185.08,308.709Z" transform="translate(-179.538 -308.709)" fill="#65b6f8"/>
          </g>
          <g id="Grupo_163001" data-name="Grupo 163001">
            <path id="Trazado_202892" data-name="Trazado 202892" d="M182.36,318.362c-4.24,0-7.677-1.829-7.677-4.084v5.389c0,2.255,3.437,4.083,7.677,4.083s7.677-1.828,7.677-4.083v-5.389C190.037,316.533,186.6,318.362,182.36,318.362Z" transform="translate(-174.683 -310.194)" fill="#e6f3ff" opacity="0.5"/>
            <path id="Trazado_202893" data-name="Trazado 202893" d="M182.36,304.991c-4.24,0-7.677,1.828-7.677,4.084s3.437,4.084,7.677,4.084,7.677-1.829,7.677-4.084S186.6,304.991,182.36,304.991Z" transform="translate(-174.683 -304.991)" fill="#fff" opacity="0.5"/>
          </g>
        </g>
        <g id="Grupo_163005" data-name="Grupo 163005" transform="translate(31.575 9.125)">
          <g id="Grupo_163003" data-name="Grupo 163003" transform="translate(2.135 1.635)">
            <path id="Trazado_202894" data-name="Trazado 202894" d="M220,297.979c-3.061,0-5.542-1.32-5.542-2.948v3.891c0,1.628,2.481,2.948,5.542,2.948s5.542-1.32,5.542-2.948v-3.891C225.54,296.659,223.058,297.979,220,297.979Z" transform="translate(-214.455 -292.083)" fill="#399ee2"/>
            <path id="Trazado_202895" data-name="Trazado 202895" d="M220,288.327c-3.061,0-5.542,1.32-5.542,2.948s2.481,2.948,5.542,2.948,5.542-1.32,5.542-2.948S223.058,288.327,220,288.327Z" transform="translate(-214.455 -288.327)" fill="#65b6f8"/>
          </g>
          <g id="Grupo_163004" data-name="Grupo 163004">
            <path id="Trazado_202896" data-name="Trazado 202896" d="M217.278,297.979c-4.24,0-7.678-1.828-7.678-4.083v5.389c0,2.255,3.437,4.084,7.678,4.084s7.677-1.828,7.677-4.084V293.9C224.954,296.151,221.517,297.979,217.278,297.979Z" transform="translate(-209.6 -289.812)" fill="#e6f3ff" opacity="0.5"/>
            <path id="Trazado_202897" data-name="Trazado 202897" d="M217.278,284.609c-4.24,0-7.678,1.828-7.678,4.084s3.437,4.083,7.678,4.083,7.677-1.828,7.677-4.083S221.517,284.609,217.278,284.609Z" transform="translate(-209.6 -284.609)" fill="#fff" opacity="0.5"/>
          </g>
        </g>
      </g>
      <g id="Grupo_163019" data-name="Grupo 163019" transform="translate(40.803 19.593)">
        <g id="Grupo_163009" data-name="Grupo 163009" transform="translate(0 8.963)">
          <g id="Grupo_163007" data-name="Grupo 163007" transform="translate(2.134 1.635)">
            <path id="Trazado_202898" data-name="Trazado 202898" d="M221.97,339.112c-3.061,0-5.543-1.32-5.543-2.948v3.891c0,1.628,2.481,2.948,5.543,2.948s5.542-1.32,5.542-2.948v-3.891C227.512,337.792,225.03,339.112,221.97,339.112Z" transform="translate(-216.427 -333.216)" fill="#399ee2"/>
            <path id="Trazado_202899" data-name="Trazado 202899" d="M221.97,329.46c-3.061,0-5.543,1.32-5.543,2.948s2.481,2.948,5.543,2.948,5.542-1.32,5.542-2.948S225.03,329.46,221.97,329.46Z" transform="translate(-216.427 -329.46)" fill="#65b6f8"/>
          </g>
          <g id="Grupo_163008" data-name="Grupo 163008">
            <path id="Trazado_202900" data-name="Trazado 202900" d="M219.25,339.112c-4.24,0-7.677-1.828-7.677-4.083v5.389c0,2.255,3.437,4.084,7.677,4.084s7.677-1.828,7.677-4.084v-5.389C226.927,337.284,223.49,339.112,219.25,339.112Z" transform="translate(-211.573 -330.945)" fill="#e6f3ff" opacity="0.5"/>
            <path id="Trazado_202901" data-name="Trazado 202901" d="M219.25,325.742c-4.24,0-7.677,1.828-7.677,4.084s3.437,4.083,7.677,4.083,7.677-1.828,7.677-4.083S223.49,325.742,219.25,325.742Z" transform="translate(-211.573 -325.742)" fill="#fff" opacity="0.5"/>
          </g>
        </g>
        <g id="Grupo_163012" data-name="Grupo 163012" transform="translate(15.354)">
          <g id="Grupo_163010" data-name="Grupo 163010" transform="translate(2.134 1.634)">
            <path id="Trazado_202902" data-name="Trazado 202902" d="M256.887,318.73c-3.061,0-5.543-1.32-5.543-2.948v3.891c0,1.628,2.482,2.948,5.543,2.948s5.542-1.32,5.542-2.948v-3.891C262.429,317.41,259.947,318.73,256.887,318.73Z" transform="translate(-251.344 -312.834)" fill="#399ee2"/>
            <path id="Trazado_202903" data-name="Trazado 202903" d="M256.887,309.077c-3.061,0-5.543,1.32-5.543,2.948s2.482,2.948,5.543,2.948,5.542-1.32,5.542-2.948S259.947,309.077,256.887,309.077Z" transform="translate(-251.344 -309.077)" fill="#65b6f8"/>
          </g>
          <g id="Grupo_163011" data-name="Grupo 163011">
            <path id="Trazado_202904" data-name="Trazado 202904" d="M254.167,318.73c-4.24,0-7.677-1.828-7.677-4.083v5.389c0,2.255,3.437,4.084,7.677,4.084s7.677-1.829,7.677-4.084v-5.389C261.844,316.9,258.407,318.73,254.167,318.73Z" transform="translate(-246.49 -310.563)" fill="#e6f3ff" opacity="0.5"/>
            <path id="Trazado_202905" data-name="Trazado 202905" d="M254.167,305.36c-4.24,0-7.677,1.828-7.677,4.084s3.437,4.083,7.677,4.083,7.677-1.828,7.677-4.083S258.407,305.36,254.167,305.36Z" transform="translate(-246.49 -305.36)" fill="#fff" opacity="0.5"/>
          </g>
        </g>
        <g id="Grupo_163015" data-name="Grupo 163015" transform="translate(16.221 18.087)">
          <g id="Grupo_163013" data-name="Grupo 163013" transform="translate(2.135 1.634)">
            <path id="Trazado_202906" data-name="Trazado 202906" d="M258.859,359.863c-3.061,0-5.542-1.32-5.542-2.948v3.891c0,1.628,2.481,2.948,5.542,2.948s5.542-1.32,5.542-2.948v-3.891C264.4,358.543,261.92,359.863,258.859,359.863Z" transform="translate(-253.317 -353.967)" fill="#399ee2"/>
            <path id="Trazado_202907" data-name="Trazado 202907" d="M258.859,350.21c-3.061,0-5.542,1.32-5.542,2.948s2.481,2.948,5.542,2.948,5.542-1.32,5.542-2.948S261.92,350.21,258.859,350.21Z" transform="translate(-253.317 -350.21)" fill="#65b6f8"/>
          </g>
          <g id="Grupo_163014" data-name="Grupo 163014">
            <path id="Trazado_202908" data-name="Trazado 202908" d="M256.139,359.863c-4.24,0-7.677-1.828-7.677-4.084v5.389c0,2.255,3.437,4.084,7.677,4.084s7.677-1.828,7.677-4.084v-5.389C263.816,358.034,260.379,359.863,256.139,359.863Z" transform="translate(-248.462 -351.696)" fill="#e6f3ff" opacity="0.5"/>
            <path id="Trazado_202909" data-name="Trazado 202909" d="M256.139,346.493c-4.24,0-7.677,1.828-7.677,4.083s3.437,4.084,7.677,4.084,7.677-1.828,7.677-4.084S260.379,346.493,256.139,346.493Z" transform="translate(-248.462 -346.493)" fill="#fff" opacity="0.5"/>
          </g>
        </g>
        <g id="Grupo_163018" data-name="Grupo 163018" transform="translate(31.575 9.125)">
          <g id="Grupo_163016" data-name="Grupo 163016" transform="translate(2.135 1.634)">
            <path id="Trazado_202910" data-name="Trazado 202910" d="M293.776,339.48c-3.061,0-5.542-1.32-5.542-2.948v3.891c0,1.628,2.481,2.948,5.542,2.948s5.542-1.32,5.542-2.948v-3.891C299.319,338.16,296.837,339.48,293.776,339.48Z" transform="translate(-288.234 -333.584)" fill="#399ee2"/>
            <path id="Trazado_202911" data-name="Trazado 202911" d="M293.776,329.828c-3.061,0-5.542,1.32-5.542,2.948s2.481,2.948,5.542,2.948,5.542-1.32,5.542-2.948S296.837,329.828,293.776,329.828Z" transform="translate(-288.234 -329.828)" fill="#65b6f8"/>
          </g>
          <g id="Grupo_163017" data-name="Grupo 163017">
            <path id="Trazado_202912" data-name="Trazado 202912" d="M291.056,339.481c-4.24,0-7.677-1.829-7.677-4.084v5.389c0,2.255,3.437,4.084,7.677,4.084s7.677-1.829,7.677-4.084V335.4C298.733,337.652,295.3,339.481,291.056,339.481Z" transform="translate(-283.379 -331.314)" fill="#e6f3ff" opacity="0.5"/>
            <path id="Trazado_202913" data-name="Trazado 202913" d="M291.056,326.111c-4.24,0-7.677,1.828-7.677,4.083s3.437,4.084,7.677,4.084,7.677-1.829,7.677-4.084S295.3,326.111,291.056,326.111Z" transform="translate(-283.379 -326.111)" fill="#fff" opacity="0.5"/>
          </g>
        </g>
      </g>
    </g>
  </g>
</svg>
