<svg xmlns="http://www.w3.org/2000/svg" width="85" height="85" viewBox="0 0 85 85">
  <g id="Grupo_172429" data-name="Grupo 172429" transform="translate(-390.287 -2518)">
    <circle id="Elipse_5613" data-name="Elipse 5613" cx="42.5" cy="42.5" r="42.5" transform="translate(390.287 2518)" fill="#7e5ee3"/>
    <g id="Grupo_171978" data-name="Grupo 171978" transform="translate(404.945 2529.629)">
      <path id="Trazado_208285" data-name="Trazado 208285" d="M82.28,24.055H42.571L80.712,13.006a1.164,1.164,0,0,0,.794-1.442l-2-6.89A6.516,6.516,0,0,0,73.279,0a6.449,6.449,0,0,0-1.793.255L35.676,10.629a6.493,6.493,0,0,0-4.419,8.024l1.95,6.732v27.73a6.484,6.484,0,0,0,6.477,6.477H53.67a1.164,1.164,0,0,0,0-2.328H39.684a4.154,4.154,0,0,1-4.15-4.15V37.275H81.116V53.114a4.154,4.154,0,0,1-4.15,4.15H62.981a1.164,1.164,0,1,0,0,2.328H76.967a6.485,6.485,0,0,0,6.477-6.477v-27.9A1.164,1.164,0,0,0,82.28,24.055ZM61.757,34.947,66.7,26.383h6.432l-4.945,8.565Zm-9.12,0,4.945-8.565h6.432l-4.945,8.565Zm-9.12,0,4.945-8.565h6.432l-4.945,8.565ZM47.844,19.88l-8.281-7.954,6.2-1.8a1.151,1.151,0,0,0,.153.18L54.2,18.262,48,20.06A1.155,1.155,0,0,0,47.844,19.88Zm15.6-14.646,8.281,7.954-6.2,1.8a1.135,1.135,0,0,0-.153-.18L57.083,6.851l6.2-1.8A1.157,1.157,0,0,0,63.441,5.233ZM54.68,7.771l8.281,7.953-6.2,1.8a1.131,1.131,0,0,0-.153-.18L48.323,9.389l6.2-1.8A1.227,1.227,0,0,0,54.68,7.771Zm17.454-5.28a4.118,4.118,0,0,1,1.145-.163,4.176,4.176,0,0,1,4,2.994l1.672,5.772-4.67,1.353a1.185,1.185,0,0,0-.153-.179L65.843,4.314ZM33.849,14.852a4.119,4.119,0,0,1,2.475-1.987l.684-.2a1.182,1.182,0,0,0,.153.18L45.441,20.8,35.165,23.777,33.493,18A4.12,4.12,0,0,1,33.849,14.852Zm1.685,11.531H45.774l-4.945,8.565H35.535Zm35.342,8.565,4.945-8.565h5.294v8.565Z" transform="translate(-31)" fill="#fff" fill-rule="evenodd"/>
      <path id="Trazado_208286" data-name="Trazado 208286" d="M239.619,351.459a1.163,1.163,0,0,0-.582-1.008l-10.226-5.9a1.164,1.164,0,0,0-1.746,1.008v11.807a1.163,1.163,0,0,0,1.746,1.007l10.226-5.9A1.164,1.164,0,0,0,239.619,351.459Zm-10.226,3.888v-7.775l6.734,3.888Z" transform="translate(-204.246 -304.308)" fill="#fff" fill-rule="evenodd"/>
      <path id="Trazado_208287" data-name="Trazado 208287" d="M256.937,492a1.164,1.164,0,1,0,1.164,1.164A1.166,1.166,0,0,0,256.937,492Z" transform="translate(-229.612 -434.736)" fill="#fff" fill-rule="evenodd"/>
    </g>
  </g>
</svg>
