<svg xmlns="http://www.w3.org/2000/svg" xmlns:xlink="http://www.w3.org/1999/xlink" width="402.097" height="485.423" viewBox="0 0 402.097 485.423">
  <defs>
    <clipPath id="clip-path">
      <rect id="Rectángulo_350971" data-name="Rectángulo 350971" width="402.097" height="485.423" fill="none"/>
    </clipPath>
    <clipPath id="clip-path-2">
      <rect id="Rectángulo_350941" data-name="Rectángulo 350941" width="402.097" height="393.254" fill="none"/>
    </clipPath>
    <clipPath id="clip-path-5">
      <rect id="Rectángulo_350943" data-name="Rectángulo 350943" width="167.606" height="53.417" fill="none"/>
    </clipPath>
    <clipPath id="clip-path-6">
      <rect id="Rectángulo_350944" data-name="Rectángulo 350944" width="4.295" height="16.83" fill="none"/>
    </clipPath>
    <clipPath id="clip-path-8">
      <rect id="Rectángulo_350957" data-name="Rectángulo 350957" width="12.883" height="27.435" fill="none"/>
    </clipPath>
    <clipPath id="clip-path-9">
      <rect id="Rectángulo_350958" data-name="Rectángulo 350958" width="24.077" height="15.067" fill="none"/>
    </clipPath>
    <clipPath id="clip-path-16">
      <rect id="Rectángulo_350969" data-name="Rectángulo 350969" width="8.607" height="21.346" fill="none"/>
    </clipPath>
  </defs>
  <g id="Grupo_1034522" data-name="Grupo 1034522" transform="translate(0 70)">
    <g id="Grupo_1034521" data-name="Grupo 1034521" transform="translate(0 -70)" clip-path="url(#clip-path)">
      <g id="Grupo_1034487" data-name="Grupo 1034487" transform="translate(0 37.838)">
        <g id="Grupo_1034486" data-name="Grupo 1034486" clip-path="url(#clip-path-2)">
          <path id="Trazado_738355" data-name="Trazado 738355" d="M26.219,438.235c-1.152-.988-3.723-4.12-1.741-7.763.727-1.335,2.27-2,3.668-2.584a14.894,14.894,0,0,0,4.022-2.083c2.18-1.856,2.781-4.938,4.229-7.412,1.662-2.841,4.764-4.969,8.04-4.82,3.753.171,6.882,3.236,8.3,6.73s1.468,7.374,1.5,11.148c.017,2.086-.076,4.439-1.608,5.848-1.413,1.3-3.539,1.316-5.453,1.256l-20.506-.63" transform="translate(-3.002 -52.282)" fill="#f5f5f5"/>
          <path id="Trazado_738356" data-name="Trazado 738356" d="M63.667,377.257H9.74l9.714,57.924a6.467,6.467,0,0,0,4.6,5.157c.062.019.127.034.19.051.161.041.315.1.48.124a6.863,6.863,0,0,0,1.1.127c0,.017.005.037.009.055l.263-.042H50.132a6.779,6.779,0,0,0,1.321-.131,6.494,6.494,0,0,0,5.456-5.662l4.683-39.91.211-1.586h-.024l1.855-15.806ZM53.494,414.205H47.96l.558-16.81H54.93Zm1.973-16.81h5.3l-1.973,16.81H54.031ZM39.657,432.841l-.336-14.6h7.97l-.486,14.6Zm-8.616-14.6h7.744l.336,14.6H32.176Zm.6,14.6H25.146c-.617-3.943-1.42-9.068-2.289-14.6H30.5Zm-.911-18.636-1.307-16.81H38.3l.388,16.81Zm8.5,0-.388-16.81h9.142l-.558,16.81Zm-.48-20.842L38.389,377.8H48.634l-.517,15.568Zm-.536,0h-9.1L27.9,377.8h9.954Zm-9.641,0H18.939c-.341-2.15-.665-4.185-.957-6.016-1-6.294-1.383-8.662-1.593-9.552H27.361Zm.314,4.032,1.307,16.81H22.225c-.268-1.705-.54-3.431-.811-5.158-.625-3.969-1.25-7.936-1.838-11.653Zm-7.2,16.81h-5.2l-2.82-16.81h5.375c.821,5.2,1.731,10.977,2.649,16.81m.632,4.032c.793,5.054,1.574,10.037,2.289,14.6h-5l-2.449-14.6Zm25.025,14.6.485-14.6h5.324l-1.247,14.6Zm1.311-39.478.517-15.568h7.436l-1.33,15.568ZM15.88,377.8c.214,1.125,1.2,7.252,2.517,15.568H12.984L10.372,377.8Zm40.727,55.046H52.439l1.247-14.6H58.32Zm4.632-39.478H55.812l1.33-15.568h5.923Z" transform="translate(4.279 -47.692)" fill="#e0e0e0"/>
          <rect id="Rectángulo_350899" data-name="Rectángulo 350899" width="72.683" height="65.027" transform="translate(317.59 82.999)" fill="#fafafa"/>
          <path id="Trazado_738357" data-name="Trazado 738357" d="M436.2,160.009s-.012-.417-.018-1.207-.01-1.964-.019-3.484c-.009-3.053-.024-7.515-.043-13.2-.02-11.362-.049-27.6-.085-47.136l.165.165-72.677.029h-.007l.195-.194c-.009,23.657-.017,45.919-.024,65.027l-.171-.171,52.57.086,14.827.045,3.925.02,1.012.01c.229,0,.349.01.349.01s-.108.006-.329.01l-.994.01-3.892.02-14.788.045-52.68.086h-.17v-.171c-.007-19.108-.015-41.369-.024-65.027v-.194h.2l72.677.03h.165v.164c-.036,19.583-.065,35.854-.085,47.241-.019,5.668-.033,10.118-.043,13.162-.009,1.506-.015,2.662-.019,3.452s-.018,1.171-.018,1.171" transform="translate(-45.931 -11.983)" fill="#e0e0e0"/>
          <path id="Trazado_738358" data-name="Trazado 738358" d="M392.978,108.208c0,.107-3.825.194-8.544.194s-8.544-.087-8.544-.194,3.825-.194,8.544-.194,8.544.086,8.544.194" transform="translate(-47.519 -13.655)" fill="#e0e0e0"/>
          <path id="Trazado_738359" data-name="Trazado 738359" d="M423.911,113.8c0,.107-10.51.194-23.472.194s-23.474-.086-23.474-.194,10.508-.194,23.474-.194,23.472.087,23.472.194" transform="translate(-47.655 -14.361)" fill="#e0e0e0"/>
          <rect id="Rectángulo_350900" data-name="Rectángulo 350900" width="3.062" height="3.062" transform="translate(328.496 107.706)" fill="#e0e0e0"/>
          <rect id="Rectángulo_350901" data-name="Rectángulo 350901" width="3.062" height="3.062" transform="translate(336.033 107.706)" fill="#e0e0e0"/>
          <rect id="Rectángulo_350902" data-name="Rectángulo 350902" width="3.062" height="3.062" transform="translate(343.71 107.567)" fill="#e0e0e0"/>
          <rect id="Rectángulo_350903" data-name="Rectángulo 350903" width="3.062" height="3.062" transform="translate(351.108 107.706)" fill="#e0e0e0"/>
          <rect id="Rectángulo_350904" data-name="Rectángulo 350904" width="3.062" height="3.062" transform="translate(358.646 107.706)" fill="#e0e0e0"/>
          <rect id="Rectángulo_350905" data-name="Rectángulo 350905" width="3.062" height="3.062" transform="translate(366.184 107.706)" fill="#e0e0e0"/>
          <rect id="Rectángulo_350906" data-name="Rectángulo 350906" width="3.062" height="3.062" transform="translate(373.721 107.706)" fill="#ebebeb"/>
          <rect id="Rectángulo_350907" data-name="Rectángulo 350907" width="3.062" height="3.062" transform="translate(328.496 114.216)" fill="#ebebeb"/>
          <rect id="Rectángulo_350908" data-name="Rectángulo 350908" width="3.062" height="3.062" transform="translate(336.033 114.216)" fill="#e0e0e0"/>
          <rect id="Rectángulo_350909" data-name="Rectángulo 350909" width="3.062" height="3.062" transform="translate(343.571 114.216)" fill="#ebebeb"/>
          <rect id="Rectángulo_350910" data-name="Rectángulo 350910" width="3.062" height="3.062" transform="translate(351.108 114.216)" fill="#e0e0e0"/>
          <rect id="Rectángulo_350911" data-name="Rectángulo 350911" width="3.062" height="3.062" transform="translate(358.646 114.216)" fill="#e0e0e0"/>
          <rect id="Rectángulo_350912" data-name="Rectángulo 350912" width="3.062" height="3.062" transform="translate(366.323 114.077)" fill="#e0e0e0"/>
          <rect id="Rectángulo_350913" data-name="Rectángulo 350913" width="3.062" height="3.062" transform="translate(373.721 114.216)" fill="#e0e0e0"/>
          <rect id="Rectángulo_350914" data-name="Rectángulo 350914" width="3.062" height="3.062" transform="translate(328.496 120.726)" fill="#e0e0e0"/>
          <rect id="Rectángulo_350915" data-name="Rectángulo 350915" width="3.062" height="3.062" transform="translate(336.173 120.587)" fill="#e0e0e0"/>
          <rect id="Rectángulo_350916" data-name="Rectángulo 350916" width="3.062" height="3.062" transform="translate(343.571 120.726)" fill="#e0e0e0"/>
          <rect id="Rectángulo_350917" data-name="Rectángulo 350917" width="3.062" height="3.062" transform="translate(351.108 120.726)" fill="#ebebeb"/>
          <rect id="Rectángulo_350918" data-name="Rectángulo 350918" width="3.062" height="3.062" transform="translate(358.646 120.726)" fill="#e0e0e0"/>
          <rect id="Rectángulo_350919" data-name="Rectángulo 350919" width="3.062" height="3.062" transform="translate(366.184 120.726)" fill="#e0e0e0"/>
          <rect id="Rectángulo_350920" data-name="Rectángulo 350920" width="3.062" height="3.062" transform="translate(373.721 120.726)" fill="#e0e0e0"/>
          <rect id="Rectángulo_350921" data-name="Rectángulo 350921" width="3.062" height="3.062" transform="translate(328.496 127.235)" fill="#e0e0e0"/>
          <rect id="Rectángulo_350922" data-name="Rectángulo 350922" width="3.062" height="3.062" transform="translate(336.033 127.235)" fill="#e0e0e0"/>
          <rect id="Rectángulo_350923" data-name="Rectángulo 350923" width="3.062" height="3.062" transform="translate(343.571 127.235)" fill="#e0e0e0"/>
          <rect id="Rectángulo_350924" data-name="Rectángulo 350924" width="3.062" height="3.062" transform="translate(351.247 127.097)" fill="#e0e0e0"/>
          <rect id="Rectángulo_350925" data-name="Rectángulo 350925" width="3.062" height="3.062" transform="translate(358.646 127.235)" fill="#e0e0e0"/>
          <rect id="Rectángulo_350926" data-name="Rectángulo 350926" width="3.062" height="3.062" transform="translate(366.184 127.235)" fill="#ebebeb"/>
          <rect id="Rectángulo_350927" data-name="Rectángulo 350927" width="3.062" height="3.062" transform="translate(373.721 127.235)" fill="#e0e0e0"/>
          <rect id="Rectángulo_350928" data-name="Rectángulo 350928" width="3.062" height="3.062" transform="translate(328.496 133.745)" fill="#e0e0e0"/>
          <rect id="Rectángulo_350929" data-name="Rectángulo 350929" width="3.062" height="3.062" transform="translate(336.033 133.745)" fill="#ebebeb"/>
          <rect id="Rectángulo_350930" data-name="Rectángulo 350930" width="3.062" height="3.062" transform="translate(343.571 133.745)" fill="#e0e0e0"/>
          <rect id="Rectángulo_350931" data-name="Rectángulo 350931" width="3.062" height="3.062" transform="translate(351.108 133.745)" fill="#e0e0e0"/>
          <rect id="Rectángulo_350932" data-name="Rectángulo 350932" width="3.062" height="3.062" transform="translate(358.646 133.745)" fill="#e0e0e0"/>
          <rect id="Rectángulo_350933" data-name="Rectángulo 350933" width="3.062" height="3.062" transform="translate(366.323 133.606)" fill="#e0e0e0"/>
          <rect id="Rectángulo_350934" data-name="Rectángulo 350934" width="3.062" height="3.062" transform="translate(373.721 133.745)" fill="#e0e0e0"/>
          <path id="Trazado_738360" data-name="Trazado 738360" d="M423.424,38.214a26.487,26.487,0,1,1-26.487-26.487,26.487,26.487,0,0,1,26.487,26.487" transform="translate(-46.832 -1.483)" fill="#e0e0e0"/>
          <path id="Trazado_738361" data-name="Trazado 738361" d="M421.588,38.273a23.97,23.97,0,1,1-23.97-23.97,23.971,23.971,0,0,1,23.97,23.97" transform="translate(-47.236 -1.808)" fill="#fff"/>
          <path id="Trazado_738362" data-name="Trazado 738362" d="M373.36,36.821s.007.133.008.391,0,.649,0,1.147q0,.38-.006.845c.012.31.055.648.086,1.015s.069.762.107,1.184a13.161,13.161,0,0,0,.228,1.333,22.958,22.958,0,0,0,2.242,6.561,23.959,23.959,0,0,0,5.649,7.2l.985.84c.349.262.717.506,1.081.764s.722.537,1.124.753l1.2.678.612.342.649.286,1.316.58c.448.182.921.31,1.386.471a12.21,12.21,0,0,0,1.427.423,22.138,22.138,0,0,0,3.005.549c.515.052,1.032.136,1.557.163l1.59.022c.266,0,.536.018.8,0l.807-.07c.538-.053,1.084-.08,1.627-.156a25.207,25.207,0,0,0,3.253-.727l.813-.238c.135-.041.273-.077.407-.123l.4-.16,1.6-.645c.524-.241,1.029-.529,1.55-.792.255-.141.525-.257.77-.418l.74-.481a27.123,27.123,0,0,0,2.866-2.129l1.3-1.261.328-.316.3-.346.6-.7.6-.7.534-.757.533-.761.267-.381c.082-.133.155-.271.232-.405l.923-1.634.765-1.73a25.61,25.61,0,0,0,1.731-7.467,25.611,25.611,0,0,0-.738-7.632l-.532-1.815-.7-1.742-.177-.432-.216-.413-.429-.824-.43-.819-.5-.773-.5-.769-.252-.383-.284-.356q-.566-.714-1.129-1.42a27.043,27.043,0,0,0-2.563-2.486l-.67-.574c-.222-.192-.475-.343-.709-.516-.481-.329-.945-.681-1.433-.988l-1.5-.847-.371-.211c-.128-.063-.26-.116-.388-.176l-.775-.343a25.46,25.46,0,0,0-3.131-1.146c-.529-.146-1.067-.244-1.594-.367l-.79-.175c-.264-.053-.533-.069-.8-.1l-1.579-.185c-.524-.043-1.047-.026-1.565-.043a22.425,22.425,0,0,0-3.051.152,12.224,12.224,0,0,0-1.471.233c-.482.1-.968.164-1.436.286l-1.38.4-.68.2-.652.259-1.283.515c-.427.162-.812.4-1.213.6s-.792.4-1.171.618l-1.087.7a23.986,23.986,0,0,0-6.541,6.4,22.994,22.994,0,0,0-3.081,6.211,13.237,13.237,0,0,0-.4,1.292l-.262,1.159c-.077.359-.165.688-.217,1s-.073.587-.1.838c-.063.494-.112.873-.146,1.137s-.059.387-.059.387.006-.132.031-.39.068-.646.12-1.142c.028-.252.058-.533.092-.842s.132-.639.205-1,.162-.75.251-1.166a12.724,12.724,0,0,1,.39-1.3,22.851,22.851,0,0,1,3.057-6.264,24.024,24.024,0,0,1,6.56-6.474l1.093-.714c.382-.218.782-.414,1.179-.626s.791-.444,1.221-.608l1.292-.523.657-.263.686-.2,1.392-.411c.472-.123.962-.191,1.448-.292a12.449,12.449,0,0,1,1.484-.238A22.4,22.4,0,0,1,397.6,14.2c.522.015,1.051,0,1.579.039l1.6.184c.267.036.538.052.8.1l.8.175c.533.124,1.076.222,1.61.369a25.685,25.685,0,0,1,3.165,1.152l.784.346c.13.059.264.114.392.177l.376.211,1.515.855c.493.31.962.664,1.448,1,.238.174.493.327.717.521l.678.579a27.092,27.092,0,0,1,2.594,2.51l1.143,1.434.287.361.254.386.506.777.508.78.436.828.434.833.218.418.179.437.71,1.761.54,1.835a25.885,25.885,0,0,1,.747,7.717,25.861,25.861,0,0,1-1.752,7.551l-.775,1.748-.935,1.652c-.079.136-.152.276-.235.41l-.27.385-.54.77-.54.764-.605.708-.6.7-.3.349-.332.321-1.319,1.272a27.242,27.242,0,0,1-2.9,2.149l-.748.486c-.247.162-.521.28-.779.422-.525.266-1.037.556-1.565.8l-1.614.65-.4.161c-.135.046-.274.082-.411.124l-.822.24a25.574,25.574,0,0,1-3.288.729c-.549.076-1.1.1-1.644.155l-.815.069c-.271.017-.542,0-.811,0L396,62.579c-.529-.027-1.051-.114-1.571-.167a22.523,22.523,0,0,1-3.032-.562,12.435,12.435,0,0,1-1.44-.431c-.47-.162-.946-.294-1.4-.479l-1.326-.589-.654-.29-.617-.346-1.213-.688c-.405-.218-.757-.514-1.131-.762s-.737-.509-1.088-.775q-.5-.431-.991-.85a24.045,24.045,0,0,1-5.657-7.277,22.851,22.851,0,0,1-2.212-6.61,13.111,13.111,0,0,1-.216-1.34q-.051-.636-.1-1.189c-.026-.369-.065-.708-.073-1.019s.014-.593.019-.847c.014-.5.024-.881.031-1.148s.019-.39.019-.39" transform="translate(-47.191 -1.794)" fill="#ebebeb"/>
          <path id="Trazado_738363" data-name="Trazado 738363" d="M411.958,40.438a4.837,4.837,0,0,1-.853.056l-2.344.048c-1.988.027-4.759.046-7.887.051h-.155v-.155c0-.5,0-1.028,0-1.564,0-3.493.018-6.655.046-8.943.021-1.1.037-2.017.05-2.711a6.009,6.009,0,0,1,.06-.993,5.951,5.951,0,0,1,.061.993c.012.694.029,1.607.049,2.711.029,2.288.046,5.45.046,8.943,0,.535,0,1.063,0,1.564l-.155-.155c3.127,0,5.9.024,7.887.051l2.344.047a4.767,4.767,0,0,1,.853.057" transform="translate(-50.658 -3.316)" fill="#e0e0e0"/>
          <path id="Trazado_738364" data-name="Trazado 738364" d="M400.96,18.577a6.687,6.687,0,0,1,.156,2.025,6.691,6.691,0,0,1-.156,2.026A6.743,6.743,0,0,1,400.8,20.6a6.739,6.739,0,0,1,.156-2.025" transform="translate(-50.669 -2.348)" fill="#e0e0e0"/>
          <path id="Trazado_738365" data-name="Trazado 738365" d="M413.151,22.3a6.492,6.492,0,0,1-1.3,1.522,6.5,6.5,0,0,1-1.522,1.3,6.491,6.491,0,0,1,1.3-1.522,6.494,6.494,0,0,1,1.522-1.3" transform="translate(-51.872 -2.819)" fill="#e0e0e0"/>
          <path id="Trazado_738366" data-name="Trazado 738366" d="M420.419,30.332a8.363,8.363,0,0,1-1.662,1.109,8.367,8.367,0,0,1-1.75.964,5.374,5.374,0,0,1,1.588-1.231,5.339,5.339,0,0,1,1.823-.842" transform="translate(-52.717 -3.833)" fill="#e0e0e0"/>
          <path id="Trazado_738367" data-name="Trazado 738367" d="M424.424,42.232a24.468,24.468,0,0,1-5.524,0,24.469,24.469,0,0,1,5.524,0" transform="translate(-52.956 -5.319)" fill="#e0e0e0"/>
          <path id="Trazado_738368" data-name="Trazado 738368" d="M380.626,41.81a21.834,21.834,0,0,1-5.217,0,21.835,21.835,0,0,1,5.217,0" transform="translate(-47.458 -5.266)" fill="#e0e0e0"/>
          <path id="Trazado_738369" data-name="Trazado 738369" d="M383.883,50.707a11.441,11.441,0,0,1-1.971,1.788,11.383,11.383,0,0,1-2.167,1.544,11.506,11.506,0,0,1,1.972-1.788,11.5,11.5,0,0,1,2.167-1.544" transform="translate(-48.006 -6.41)" fill="#e0e0e0"/>
          <path id="Trazado_738370" data-name="Trazado 738370" d="M391.73,57.571a17.773,17.773,0,0,1-1.342,2.325,17.7,17.7,0,0,1-1.423,2.276,8.739,8.739,0,0,1,1.156-2.436,8.776,8.776,0,0,1,1.609-2.165" transform="translate(-49.171 -7.278)" fill="#e0e0e0"/>
          <path id="Trazado_738371" data-name="Trazado 738371" d="M400.96,65.625a12.424,12.424,0,0,1-.156-2.762,12.413,12.413,0,0,1,.156-2.761,12.316,12.316,0,0,1,.156,2.761,12.327,12.327,0,0,1-.156,2.762" transform="translate(-50.669 -7.598)" fill="#e0e0e0"/>
          <path id="Trazado_738372" data-name="Trazado 738372" d="M414.013,61.689a8.1,8.1,0,0,1-2.278-1.56,8.123,8.123,0,0,1-1.855-2.042,25.561,25.561,0,0,1,2.062,1.807,25.718,25.718,0,0,1,2.072,1.8" transform="translate(-51.816 -7.343)" fill="#e0e0e0"/>
          <path id="Trazado_738373" data-name="Trazado 738373" d="M420.509,54.825a9.579,9.579,0,0,1-1.829-1.608,9.619,9.619,0,0,1-1.608-1.829A9.638,9.638,0,0,1,418.9,53a9.6,9.6,0,0,1,1.608,1.828" transform="translate(-52.725 -6.496)" fill="#e0e0e0"/>
          <path id="Trazado_738374" data-name="Trazado 738374" d="M383.755,32.9a7.391,7.391,0,0,1-1.614-1.393,7.428,7.428,0,0,1-1.393-1.614,7.391,7.391,0,0,1,1.614,1.393,7.365,7.365,0,0,1,1.393,1.614" transform="translate(-48.133 -3.778)" fill="#e0e0e0"/>
          <path id="Trazado_738375" data-name="Trazado 738375" d="M391.657,24.591a7.078,7.078,0,0,1-1.586-1.359,7.055,7.055,0,0,1-1.366-1.58,7.121,7.121,0,0,1,1.586,1.359,7.11,7.11,0,0,1,1.366,1.58" transform="translate(-49.139 -2.737)" fill="#e0e0e0"/>
          <path id="Trazado_738376" data-name="Trazado 738376" d="M376.1,38.543A23.968,23.968,0,0,1,398.65,14.619c-.472-.028-.946-.046-1.426-.046a23.97,23.97,0,0,0,0,47.94c.48,0,.954-.018,1.426-.046A23.968,23.968,0,0,1,376.1,38.543" transform="translate(-47.186 -1.842)" fill="#f5f5f5"/>
          <rect id="Rectángulo_350935" data-name="Rectángulo 350935" width="67.482" height="106.643" transform="translate(15.849 15.352)" fill="#e0e0e0"/>
          <rect id="Rectángulo_350936" data-name="Rectángulo 350936" width="63.615" height="102.887" transform="translate(17.668 17.356)" fill="#f5f5f5"/>
          <rect id="Rectángulo_350937" data-name="Rectángulo 350937" width="25.366" height="39.362" transform="translate(49.475 23.349)" fill="#fff"/>
          <path id="Trazado_738377" data-name="Trazado 738377" d="M72.424,30.575a.947.947,0,1,1-.947-.947.947.947,0,0,1,.947.947" transform="translate(-8.916 -3.746)" fill="#e0e0e0"/>
          <rect id="Rectángulo_350938" data-name="Rectángulo 350938" width="25.366" height="39.362" transform="translate(23.912 73.665)" fill="#fff"/>
          <path id="Trazado_738378" data-name="Trazado 738378" d="M43.161,88.173a.947.947,0,1,1-.947-.947.947.947,0,0,1,.947.947" transform="translate(-5.217 -11.027)" fill="#e0e0e0"/>
          <rect id="Rectángulo_350939" data-name="Rectángulo 350939" width="21.664" height="30.737" transform="translate(23.568 23.349)" fill="#fff"/>
          <path id="Trazado_738379" data-name="Trazado 738379" d="M40.05,29.81a.786.786,0,1,1-.786-.786.786.786,0,0,1,.786.786" transform="translate(-4.864 -3.669)" fill="#e0e0e0"/>
          <rect id="Rectángulo_350940" data-name="Rectángulo 350940" width="23.315" height="12.918" transform="translate(52.507 76.821) rotate(-6.437)" fill="#fff"/>
          <path id="Trazado_738380" data-name="Trazado 738380" d="M74.367,89.112a.8.8,0,1,1-.8-.8.8.8,0,0,1,.8.8" transform="translate(-9.198 -11.164)" fill="#e0e0e0"/>
          <path id="Trazado_738381" data-name="Trazado 738381" d="M49.96,94.576c0,.1-3.984.189-8.9.189s-8.9-.084-8.9-.189,3.983-.189,8.9-.189,8.9.084,8.9.189" transform="translate(-4.067 -11.932)" fill="#e0e0e0"/>
          <path id="Trazado_738382" data-name="Trazado 738382" d="M49.96,97.8c0,.1-3.984.189-8.9.189s-8.9-.084-8.9-.189,3.983-.189,8.9-.189,8.9.085,8.9.189" transform="translate(-4.067 -12.34)" fill="#e0e0e0"/>
          <path id="Trazado_738383" data-name="Trazado 738383" d="M49.96,101.024c0,.1-3.984.189-8.9.189s-8.9-.084-8.9-.189,3.983-.189,8.9-.189,8.9.085,8.9.189" transform="translate(-4.067 -12.747)" fill="#e0e0e0"/>
          <path id="Trazado_738384" data-name="Trazado 738384" d="M49.96,104.248c0,.1-3.984.189-8.9.189s-8.9-.084-8.9-.189,3.983-.189,8.9-.189,8.9.085,8.9.189" transform="translate(-4.067 -13.155)" fill="#e0e0e0"/>
          <path id="Trazado_738385" data-name="Trazado 738385" d="M49.96,107.471c0,.1-3.984.189-8.9.189s-8.9-.084-8.9-.189,3.983-.189,8.9-.189,8.9.085,8.9.189" transform="translate(-4.067 -13.562)" fill="#e0e0e0"/>
          <path id="Trazado_738386" data-name="Trazado 738386" d="M49.96,110.695c0,.1-3.984.189-8.9.189s-8.9-.084-8.9-.189,3.983-.189,8.9-.189,8.9.085,8.9.189" transform="translate(-4.067 -13.97)" fill="#e0e0e0"/>
          <path id="Trazado_738387" data-name="Trazado 738387" d="M49.96,113.919c0,.1-3.984.189-8.9.189s-8.9-.084-8.9-.189,3.983-.189,8.9-.189,8.9.084,8.9.189" transform="translate(-4.067 -14.378)" fill="#e0e0e0"/>
          <path id="Trazado_738388" data-name="Trazado 738388" d="M81.593,91.148c.015.1-3.918.743-8.782,1.43s-8.821,1.159-8.835,1.056,3.917-.743,8.783-1.43,8.82-1.159,8.835-1.056" transform="translate(-8.088 -11.521)" fill="#e0e0e0"/>
          <path id="Trazado_738389" data-name="Trazado 738389" d="M82,93.164c.015.1-3.918.743-8.782,1.43s-8.821,1.159-8.835,1.056,3.916-.743,8.783-1.431,8.82-1.158,8.835-1.055" transform="translate(-8.139 -11.776)" fill="#e0e0e0"/>
          <path id="Trazado_738390" data-name="Trazado 738390" d="M82.367,95.026c.015.1-3.918.744-8.782,1.43s-8.821,1.159-8.835,1.056,3.916-.743,8.783-1.43,8.82-1.159,8.835-1.056" transform="translate(-8.185 -12.011)" fill="#e0e0e0"/>
          <path id="Trazado_738391" data-name="Trazado 738391" d="M80.21,36.127c0,.1-4.5.189-10.05.189s-10.051-.084-10.051-.189,4.5-.189,10.051-.189,10.05.085,10.05.189" transform="translate(-7.599 -4.543)" fill="#e0e0e0"/>
          <path id="Trazado_738392" data-name="Trazado 738392" d="M80.21,38.044c0,.1-4.5.189-10.05.189s-10.051-.084-10.051-.189,4.5-.189,10.051-.189,10.05.085,10.05.189" transform="translate(-7.599 -4.786)" fill="#e0e0e0"/>
          <path id="Trazado_738393" data-name="Trazado 738393" d="M80.21,39.961c0,.1-4.5.189-10.05.189s-10.051-.084-10.051-.189,4.5-.189,10.051-.189,10.05.085,10.05.189" transform="translate(-7.599 -5.028)" fill="#e0e0e0"/>
          <path id="Trazado_738394" data-name="Trazado 738394" d="M80.21,41.878c0,.1-4.5.189-10.05.189s-10.051-.084-10.051-.189,4.5-.189,10.051-.189,10.05.085,10.05.189" transform="translate(-7.599 -5.27)" fill="#e0e0e0"/>
          <path id="Trazado_738395" data-name="Trazado 738395" d="M80.21,43.794c0,.1-4.5.19-10.05.19S60.11,43.9,60.11,43.794s4.5-.189,10.051-.189,10.05.085,10.05.189" transform="translate(-7.599 -5.512)" fill="#e0e0e0"/>
          <path id="Trazado_738396" data-name="Trazado 738396" d="M80.21,45.711c0,.1-4.5.189-10.05.189s-10.051-.084-10.051-.189,4.5-.189,10.051-.189,10.05.084,10.05.189" transform="translate(-7.599 -5.755)" fill="#e0e0e0"/>
          <path id="Trazado_738397" data-name="Trazado 738397" d="M80.21,47.628c0,.1-4.5.189-10.05.189s-10.051-.084-10.051-.189,4.5-.189,10.051-.189,10.05.084,10.05.189" transform="translate(-7.599 -5.997)" fill="#e0e0e0"/>
          <path id="Trazado_738398" data-name="Trazado 738398" d="M80.21,53.316c0,.1-4.5.189-10.05.189s-10.051-.084-10.051-.189,4.5-.189,10.051-.189,10.05.085,10.05.189" transform="translate(-7.599 -6.716)" fill="#e0e0e0"/>
          <path id="Trazado_738399" data-name="Trazado 738399" d="M80.372,55.341c0,.1-4.5.189-10.05.189s-10.051-.084-10.051-.189,4.5-.189,10.051-.189,10.05.085,10.05.189" transform="translate(-7.619 -6.972)" fill="#e0e0e0"/>
          <path id="Trazado_738400" data-name="Trazado 738400" d="M80.534,57.365c0,.106-4.5.189-10.05.189s-10.051-.083-10.051-.189,4.5-.188,10.051-.188,10.05.084,10.05.188" transform="translate(-7.64 -7.228)" fill="#e0e0e0"/>
          <path id="Trazado_738401" data-name="Trazado 738401" d="M80.7,59.39c0,.1-4.5.189-10.05.189S60.6,59.495,60.6,59.39s4.5-.189,10.051-.189,10.05.085,10.05.189" transform="translate(-7.66 -7.484)" fill="#e0e0e0"/>
          <path id="Trazado_738402" data-name="Trazado 738402" d="M80.858,61.414c0,.106-4.5.19-10.05.19s-10.051-.084-10.051-.19,4.5-.188,10.051-.188,10.05.085,10.05.188" transform="translate(-7.681 -7.74)" fill="#e0e0e0"/>
          <path id="Trazado_738403" data-name="Trazado 738403" d="M81.02,63.439c0,.1-4.5.189-10.05.189s-10.051-.084-10.051-.189,4.5-.189,10.051-.189,10.05.085,10.05.189" transform="translate(-7.701 -7.996)" fill="#e0e0e0"/>
        </g>
      </g>
      <g id="Grupo_1034489" data-name="Grupo 1034489" transform="translate(0 92.168)">
        <g id="Grupo_1034488" data-name="Grupo 1034488" clip-path="url(#clip-path-2)">
          <path id="Trazado_738404" data-name="Trazado 738404" d="M402.1,449.869c0,.126-90.02.227-201.039.227C90,450.1,0,449.995,0,449.869s90-.227,201.058-.227c111.019,0,201.039.1,201.039.227" transform="translate(0 -56.843)" fill="#263238"/>
        </g>
      </g>
      <g id="Grupo_1034497" data-name="Grupo 1034497" transform="translate(0 9.702)">
        <g id="Grupo_1034496" data-name="Grupo 1034496" clip-path="url(#clip-path-2)">
          <path id="Trazado_738405" data-name="Trazado 738405" d="M308.669,303.022H125.1a8.068,8.068,0,0,1-8.067-8.068V27.641a8.068,8.068,0,0,1,8.067-8.068H308.669a8.067,8.067,0,0,1,8.068,8.068V294.954a8.067,8.067,0,0,1-8.068,8.068" transform="translate(-14.795 -2.474)" fill="#e0e0e0"/>
          <path id="Trazado_738406" data-name="Trazado 738406" d="M308.641,302.994s.208-.017.619-.041a8.712,8.712,0,0,0,1.8-.349,8.328,8.328,0,0,0,2.638-1.432,8.1,8.1,0,0,0,2.422-3.336,7.7,7.7,0,0,0,.523-2.439c.046-.881.011-1.818.019-2.8q0-2.937-.009-6.417c-.005-4.639-.011-9.99-.018-16.015-.014-24.1-.035-58.972-.061-102.059-.007-21.545-.015-45.144-.024-70.478q-.005-19-.01-39.262,0-10.121,0-20.533-.007-5.2-.015-10.472a7.86,7.86,0,0,0-6.132-7.442,11.133,11.133,0,0,0-2.62-.2h-2.683l-5.391,0H288.818l-22.125,0-45.634,0-95.962,0a7.876,7.876,0,0,0-7.878,7.486c-.039,4.066-.01,8.152-.019,12.207q0,12.177,0,24.189,0,24.017,0,47.291c0,31.005-.007,60.911-.01,89.4s-.013,55.562-.018,80.9q0,4.75,0,9.418c.007,1.553-.018,3.113.016,4.641a7.838,7.838,0,0,0,1.433,4.215,8,8,0,0,0,3.447,2.76,8.5,8.5,0,0,0,2.146.549c.731.065,1.486.05,2.236.051l8.908,0,33.818.013,102.054.061,27.746.037,7.216.018c1.626.007,2.458.02,2.458.02s-.833.013-2.458.02l-7.216.019-27.746.036-102.054.061-33.818.013-8.908,0c-.75,0-1.5.016-2.27-.052a8.777,8.777,0,0,1-2.229-.568,8.321,8.321,0,0,1-3.583-2.864,8.158,8.158,0,0,1-1.491-4.381c-.036-1.554-.01-3.094-.019-4.654q0-4.667,0-9.418c-.005-25.337-.011-52.409-.017-80.9s-.007-58.4-.011-89.4q0-23.253,0-47.291,0-12.01,0-24.189c.009-4.063-.021-8.123.02-12.226a8.26,8.26,0,0,1,8.263-7.854l95.962,0,45.634.005,22.125,0,10.876,0h8.074a11.5,11.5,0,0,1,2.7.211,8.214,8.214,0,0,1,6.405,7.778q.005,5.276.011,10.483,0,10.41,0,20.533-.005,20.243-.01,39.262c-.009,25.334-.017,48.933-.024,70.478-.026,43.087-.047,77.958-.062,102.059-.006,6.024-.012,11.376-.017,16.015q-.005,3.479-.009,6.417c-.012.98.021,1.91-.029,2.8a7.757,7.757,0,0,1-.538,2.462,8.151,8.151,0,0,1-2.457,3.354,8.317,8.317,0,0,1-2.664,1.424,8.438,8.438,0,0,1-1.808.331c-.411.017-.619.021-.619.021" transform="translate(-14.767 -2.446)" fill="#263238"/>
          <g id="Grupo_1034492" data-name="Grupo 1034492" transform="translate(119.662 240.725)" opacity="0.3">
            <g id="Grupo_1034491" data-name="Grupo 1034491">
              <g id="Grupo_1034490" data-name="Grupo 1034490" clip-path="url(#clip-path-5)">
                <path id="Trazado_738407" data-name="Trazado 738407" d="M136.979,328.978H304.585l-1.839-34.861V275.561l-165.767,25.9Z" transform="translate(-136.979 -275.561)"/>
              </g>
            </g>
          </g>
          <g id="Grupo_1034495" data-name="Grupo 1034495" transform="translate(251.996 17.678)" opacity="0.3">
            <g id="Grupo_1034494" data-name="Grupo 1034494">
              <g id="Grupo_1034493" data-name="Grupo 1034493" clip-path="url(#clip-path-6)">
                <path id="Trazado_738408" data-name="Trazado 738408" d="M288.949,20.236l3.809,11.3v5.534h-4.294Z" transform="translate(-288.463 -20.236)"/>
              </g>
            </g>
          </g>
          <path id="Trazado_738409" data-name="Trazado 738409" d="M127.23,32.573V292.949H309.12V32.573Z" transform="translate(-16.084 -4.118)" fill="#fff"/>
          <path id="Trazado_738410" data-name="Trazado 738410" d="M309.091,246.362s-.01-.337-.014-1-.008-1.656-.013-2.959c-.006-2.614-.015-6.484-.026-11.525-.011-10.092-.028-24.868-.048-43.627-.018-37.526-.041-90.978-.07-154.705l.171.171L127.2,32.738l.193-.193v.231c-.018,100.093-.035,191.5-.047,260.144l-.146-.145,99.3.064,27.078.039,7.051.02c1.589.008,2.4.022,2.4.022s-.815.015-2.4.022l-7.051.02L226.5,293l-99.3.064h-.145v-.145c-.012-68.644-.03-160.051-.048-260.144v-.425h.193l181.889.022h.171v.171c-.029,63.727-.053,117.18-.07,154.705-.02,18.758-.037,33.535-.048,43.627-.011,5.041-.02,8.911-.026,11.525-.005,1.3-.01,2.292-.013,2.959s-.014,1-.014,1" transform="translate(-16.056 -4.09)" fill="#263238"/>
          <path id="Trazado_738411" data-name="Trazado 738411" d="M275.7,38.184H183.67V17.017a5.526,5.526,0,0,1,5.526-5.525h80.978a5.526,5.526,0,0,1,5.526,5.525Z" transform="translate(-23.219 -1.453)" fill="#263238"/>
          <path id="Trazado_738412" data-name="Trazado 738412" d="M246.362,0H222.939l2.738,20.078H243.32Z" transform="translate(-28.183 0)" fill="#263238"/>
          <path id="Trazado_738413" data-name="Trazado 738413" d="M270.645,11.463c0,.107-17.957.193-40.1.193s-40.105-.086-40.105-.193,17.953-.192,40.105-.192,40.1.086,40.1.192" transform="translate(-24.075 -1.425)" fill="#455a64"/>
          <path id="Trazado_738414" data-name="Trazado 738414" d="M186,34.676c-.107,0-.193-3.775-.193-8.432s.087-8.434.193-8.434.193,3.776.193,8.434-.087,8.432-.193,8.432" transform="translate(-23.489 -2.252)" fill="#455a64"/>
          <path id="Trazado_738415" data-name="Trazado 738415" d="M285.581,32.615a76.113,76.113,0,0,1-.193-7.656,76.1,76.1,0,0,1,.193-7.656,76.087,76.087,0,0,1,.193,7.656,76.1,76.1,0,0,1-.193,7.656" transform="translate(-36.078 -2.187)" fill="#455a64"/>
          <path id="Trazado_738416" data-name="Trazado 738416" d="M268.614,38.868c0,.107-18.432.193-41.164.193s-41.168-.086-41.168-.193,18.428-.193,41.168-.193,41.164.086,41.164.193" transform="translate(-23.549 -4.889)" fill="#455a64"/>
          <rect id="Rectángulo_350945" data-name="Rectángulo 350945" width="100.45" height="6.174" transform="translate(169.557 78.425)" fill="#e0e0e0"/>
          <rect id="Rectángulo_350946" data-name="Rectángulo 350946" width="45.571" height="6.132" transform="translate(169.556 91.039)" fill="#e0e0e0"/>
          <path id="Trazado_738417" data-name="Trazado 738417" d="M175.658,109.98H159.182a3.374,3.374,0,0,1-3.374-3.375V90.131a3.374,3.374,0,0,1,3.374-3.375h16.476a3.375,3.375,0,0,1,3.375,3.375v16.475a3.375,3.375,0,0,1-3.375,3.375" transform="translate(-19.697 -10.968)" fill="#7e5ee3"/>
          <path id="Trazado_738418" data-name="Trazado 738418" d="M167.778,104.781l-6.506-5.027,1.754-2.27,4.363,3.371,6.2-7.139,2.166,1.883Z" transform="translate(-20.388 -11.847)" fill="#fff"/>
          <rect id="Rectángulo_350947" data-name="Rectángulo 350947" width="100.45" height="6.174" transform="translate(169.557 116.655)" fill="#e0e0e0"/>
          <rect id="Rectángulo_350948" data-name="Rectángulo 350948" width="45.571" height="6.132" transform="translate(169.556 129.268)" fill="#e0e0e0"/>
          <path id="Trazado_738419" data-name="Trazado 738419" d="M175.658,153.742H159.182a3.374,3.374,0,0,1-3.374-3.375V133.893a3.374,3.374,0,0,1,3.374-3.375h16.476a3.375,3.375,0,0,1,3.375,3.375v16.475a3.375,3.375,0,0,1-3.375,3.375" transform="translate(-19.697 -16.5)" fill="#7e5ee3"/>
          <path id="Trazado_738420" data-name="Trazado 738420" d="M167.778,148.543l-6.506-5.027,1.754-2.27,4.363,3.371,6.2-7.139,2.166,1.883Z" transform="translate(-20.388 -17.38)" fill="#fff"/>
          <rect id="Rectángulo_350949" data-name="Rectángulo 350949" width="100.45" height="6.174" transform="translate(169.557 157.616)" fill="#e0e0e0"/>
          <rect id="Rectángulo_350950" data-name="Rectángulo 350950" width="45.571" height="6.132" transform="translate(169.556 170.229)" fill="#e0e0e0"/>
          <rect id="Rectángulo_350951" data-name="Rectángulo 350951" width="100.45" height="6.174" transform="translate(169.557 195.483)" fill="#e0e0e0"/>
          <rect id="Rectángulo_350952" data-name="Rectángulo 350952" width="45.571" height="6.132" transform="translate(169.556 208.097)" fill="#e0e0e0"/>
          <path id="Trazado_738421" data-name="Trazado 738421" d="M175.658,200.631H159.182a3.374,3.374,0,0,1-3.374-3.375V180.782a3.374,3.374,0,0,1,3.374-3.375h16.476a3.375,3.375,0,0,1,3.375,3.375v16.475a3.375,3.375,0,0,1-3.375,3.375" transform="translate(-19.697 -22.427)" fill="#7e5ee3"/>
          <path id="Trazado_738422" data-name="Trazado 738422" d="M167.778,195.431l-6.506-5.027,1.754-2.27,4.363,3.371,6.2-7.139,2.166,1.883Z" transform="translate(-20.388 -23.307)" fill="#fff"/>
          <path id="Trazado_738423" data-name="Trazado 738423" d="M175.932,245.549h-17.14a3.44,3.44,0,0,1-3.436-3.437V224.974a3.44,3.44,0,0,1,3.436-3.437h17.14a3.441,3.441,0,0,1,3.437,3.437v17.139a3.441,3.441,0,0,1-3.437,3.437m-17.14-23.224a2.652,2.652,0,0,0-2.649,2.649v17.139a2.652,2.652,0,0,0,2.649,2.649h17.14a2.652,2.652,0,0,0,2.649-2.649V224.974a2.652,2.652,0,0,0-2.649-2.649Z" transform="translate(-19.64 -28.006)" fill="#7e5ee3"/>
          <rect id="Rectángulo_350953" data-name="Rectángulo 350953" width="100.45" height="6.174" transform="translate(169.557 238.8)" fill="#e0e0e0"/>
          <rect id="Rectángulo_350954" data-name="Rectángulo 350954" width="45.571" height="6.132" transform="translate(169.556 251.413)" fill="#e0e0e0"/>
          <path id="Trazado_738424" data-name="Trazado 738424" d="M175.932,295.134h-17.14a3.44,3.44,0,0,1-3.436-3.437V274.559a3.44,3.44,0,0,1,3.436-3.437h17.14a3.441,3.441,0,0,1,3.437,3.437V291.7a3.441,3.441,0,0,1-3.437,3.437m-17.14-23.224a2.652,2.652,0,0,0-2.649,2.649V291.7a2.652,2.652,0,0,0,2.649,2.649h17.14a2.652,2.652,0,0,0,2.649-2.649V274.559a2.652,2.652,0,0,0-2.649-2.649Z" transform="translate(-19.64 -34.275)" fill="#7e5ee3"/>
          <path id="Trazado_738707" data-name="Trazado 738707" d="M0,0H100.15V8.574H0Z" transform="translate(157.467 54.517)" fill="#7e5ee3"/>
        </g>
      </g>
      <g id="Grupo_1034505" data-name="Grupo 1034505" transform="translate(0 92.168)">
        <g id="Grupo_1034504" data-name="Grupo 1034504" clip-path="url(#clip-path-2)">
          <path id="Trazado_738425" data-name="Trazado 738425" d="M199.635,417.863s-3.015-20.727-2.764-32.786-.015-25.626-.015-25.626h1.39s-.941,23.936.083,38.373,3.719,20.039,3.719,20.039Z" transform="translate(-24.886 -45.441)" fill="#263238"/>
          <path id="Trazado_738426" data-name="Trazado 738426" d="M208.3,332.438a3.658,3.658,0,0,0-1.266-1.853,3.523,3.523,0,0,0-3.02.021c-4.2,1.485-7.919,9.311-9.616,13.427l5.573,18.778c10.058-9.332,11.8-21.574,8.329-30.373" transform="translate(-24.576 -41.749)" fill="#455a64"/>
          <path id="Trazado_738427" data-name="Trazado 738427" d="M207.519,331.5a1.1,1.1,0,0,1-.081.245l-.273.685c-.245.591-.587,1.45-1,2.516-.821,2.132-1.866,5.114-2.8,8.472s-1.572,6.454-1.967,8.7c-.2,1.125-.348,2.038-.443,2.67-.049.3-.088.536-.119.727a1.062,1.062,0,0,1-.058.252,1.105,1.105,0,0,1,.011-.258c.02-.193.045-.435.076-.733.068-.637.193-1.554.372-2.685a79.909,79.909,0,0,1,4.777-17.209c.43-1.061.8-1.911,1.066-2.492l.313-.667a1.084,1.084,0,0,1,.123-.226" transform="translate(-25.382 -41.908)" fill="#263238"/>
          <path id="Trazado_738428" data-name="Trazado 738428" d="M196.7,368.707a17.005,17.005,0,0,1-8.589-14.277c-.2-4.167,1.08-8.255,2.53-12.166a1.575,1.575,0,0,1,.59-.884,1.5,1.5,0,0,1,1.424.222c3.8,2.162,6.1,6.282,7.32,10.475a21.143,21.143,0,0,1,.859,8.613,14.313,14.313,0,0,1-4.133,8.017" transform="translate(-23.778 -43.143)" fill="#455a64"/>
          <path id="Trazado_738429" data-name="Trazado 738429" d="M197.411,369.15a1.036,1.036,0,0,1-.02-.252c0-.19-.009-.429-.014-.721,0-.625-.027-1.53-.079-2.647a72.373,72.373,0,0,0-.97-8.675c-.579-3.363-1.282-6.375-1.8-8.552-.255-1.065-.465-1.938-.619-2.577-.065-.286-.118-.518-.161-.7a1.117,1.117,0,0,1-.041-.249,1,1,0,0,1,.086.238c.054.183.121.411.2.692.172.6.409,1.476.689,2.56.559,2.168,1.289,5.179,1.869,8.552a63.418,63.418,0,0,1,.906,8.706c.031,1.121.031,2.029.005,2.654-.012.293-.022.531-.03.722a1.04,1.04,0,0,1-.025.251" transform="translate(-24.488 -43.586)" fill="#263238"/>
          <g id="Grupo_1034500" data-name="Grupo 1034500" transform="translate(164.313 298.128)" opacity="0.3">
            <g id="Grupo_1034499" data-name="Grupo 1034499">
              <g id="Grupo_1034498" data-name="Grupo 1034498" clip-path="url(#clip-path-8)">
                <path id="Trazado_738430" data-name="Trazado 738430" d="M196.7,368.707a17.005,17.005,0,0,1-8.589-14.277c-.2-4.167,1.08-8.255,2.53-12.166a1.575,1.575,0,0,1,.59-.884,1.5,1.5,0,0,1,1.424.222c3.8,2.162,6.1,6.282,7.32,10.475a21.143,21.143,0,0,1,.859,8.613,14.313,14.313,0,0,1-4.133,8.017" transform="translate(-188.091 -341.271)"/>
              </g>
            </g>
          </g>
          <path id="Trazado_738431" data-name="Trazado 738431" d="M204.693,408.915c5.141,1.13,9.374,4.756,14.334,6.519,3.281,1.166,6.992,1.579,9.612,3.874a8.143,8.143,0,0,0-3.568-3.549,63.954,63.954,0,0,0-12.991-6.2c-2.333-.805-4.865-1.479-7.243-.815" transform="translate(-25.877 -51.638)" fill="#455a64"/>
          <path id="Trazado_738432" data-name="Trazado 738432" d="M193.345,413.239c-6.438-.1-13.217-5.585-19.625-5.912,6.706-2.165,16.308-.4,19.625,5.912" transform="translate(-21.961 -51.382)" fill="#455a64"/>
          <path id="Trazado_738433" data-name="Trazado 738433" d="M199.064,395.408a20.953,20.953,0,0,1,10.293-.7,62.581,62.581,0,0,1,10.049,2.732c-.331-2.234-2.14-3.914-3.839-5.4a26.741,26.741,0,0,0-4.035-3.1,8.987,8.987,0,0,0-4.839-1.365,7.651,7.651,0,0,0-5.34,2.691,8.87,8.87,0,0,0-2.288,5.145" transform="translate(-25.165 -48.995)" fill="#455a64"/>
          <path id="Trazado_738434" data-name="Trazado 738434" d="M181.693,387.962c-4.053-3.46-10.191-3.122-15.519-3a126.39,126.39,0,0,1,24.068,15c.217-3.766-3.43-7.626-8.549-12" transform="translate(-21.007 -48.657)" fill="#455a64"/>
          <g id="Grupo_1034503" data-name="Grupo 1034503" transform="translate(145.167 336.234)" opacity="0.3">
            <g id="Grupo_1034502" data-name="Grupo 1034502">
              <g id="Grupo_1034501" data-name="Grupo 1034501" clip-path="url(#clip-path-9)">
                <path id="Trazado_738435" data-name="Trazado 738435" d="M181.693,387.962c-4.053-3.46-10.191-3.122-15.519-3a126.39,126.39,0,0,1,24.068,15c.217-3.766-3.43-7.626-8.549-12" transform="translate(-166.174 -384.891)"/>
              </g>
            </g>
          </g>
          <path id="Trazado_738436" data-name="Trazado 738436" d="M201.148,380.529a45.193,45.193,0,0,1,6.233-3.623c2.132-.969,4.123-2.513,6.183-3.629a67.5,67.5,0,0,0,7.438-5.25,19.316,19.316,0,0,1,8.146-3.887,16.011,16.011,0,0,0-7.413.429,47.86,47.86,0,0,0-6.977,2.714c-3.161,1.425-6.378,2.884-8.962,5.2s-4.921,4.593-4.647,8.05" transform="translate(-25.426 -46.001)" fill="#455a64"/>
          <path id="Trazado_738437" data-name="Trazado 738437" d="M218.139,413.519a.787.787,0,0,1-.2-.088l-.562-.291c-.485-.258-1.181-.64-2.058-1.081-.433-.23-.914-.468-1.436-.713s-1.077-.51-1.672-.767a24.455,24.455,0,0,0-3.964-1.381,8.5,8.5,0,0,0-4.129-.1,11.763,11.763,0,0,0-1.75.522,9.011,9.011,0,0,0-3.188,2.192c-.373.4-.555.644-.571.632a.829.829,0,0,1,.115-.19,6.267,6.267,0,0,1,.39-.5,8.319,8.319,0,0,1,1.753-1.543,8.768,8.768,0,0,1,1.428-.765,11.59,11.59,0,0,1,1.773-.552,8.587,8.587,0,0,1,4.232.086,23.456,23.456,0,0,1,4,1.411c.6.264,1.157.525,1.671.79s1,.5,1.428.74c.869.46,1.554.865,2.026,1.147l.541.328a.8.8,0,0,1,.181.128" transform="translate(-25.107 -51.662)" fill="#263238"/>
          <path id="Trazado_738438" data-name="Trazado 738438" d="M190.688,410.57a1.493,1.493,0,0,1,.4.118,9.027,9.027,0,0,1,1.048.456,12.734,12.734,0,0,1,5.379,5.168,8.863,8.863,0,0,1,.5,1.03,1.473,1.473,0,0,1,.135.4c-.038.017-.278-.529-.772-1.346a14.275,14.275,0,0,0-5.314-5.106c-.837-.461-1.392-.68-1.377-.717" transform="translate(-24.106 -51.903)" fill="#263238"/>
          <path id="Trazado_738439" data-name="Trazado 738439" d="M174.382,388.035a1.327,1.327,0,0,1,.274.081l.773.275,1.218.449c.475.176.991.437,1.574.694a37.241,37.241,0,0,1,8.382,5.34,41.014,41.014,0,0,1,3.908,3.849,43.11,43.11,0,0,1,2.774,3.515c.736,1.041,1.293,1.909,1.675,2.508l.44.691a1.378,1.378,0,0,1,.143.249,1.3,1.3,0,0,1-.181-.223c-.113-.15-.276-.374-.477-.667-.405-.585-.983-1.437-1.732-2.463s-1.69-2.21-2.8-3.469a42.871,42.871,0,0,0-3.9-3.814,39.188,39.188,0,0,0-8.3-5.368c-.577-.266-1.086-.536-1.554-.723l-1.2-.485-.757-.314a1.364,1.364,0,0,1-.259-.125" transform="translate(-22.045 -49.055)" fill="#263238"/>
          <path id="Trazado_738440" data-name="Trazado 738440" d="M208.6,392.333a2.2,2.2,0,0,1-.514-.066l-.591-.109c-.23-.045-.5-.046-.791-.076a8.1,8.1,0,0,0-4.425.874,8,8,0,0,0-2.014,1.494,9.079,9.079,0,0,0-1.294,1.6,13.229,13.229,0,0,0-.885,1.689,1.868,1.868,0,0,1,.13-.5,7.22,7.22,0,0,1,.617-1.273,8.524,8.524,0,0,1,1.282-1.663,7.832,7.832,0,0,1,6.6-2.381c.3.041.568.054.8.111l.59.149a2.256,2.256,0,0,1,.494.154" transform="translate(-25.042 -49.54)" fill="#263238"/>
          <path id="Trazado_738441" data-name="Trazado 738441" d="M215.03,369.422a1.359,1.359,0,0,1-.244.15l-.718.39c-.625.337-1.524.833-2.616,1.477s-2.367,1.453-3.73,2.427a31.208,31.208,0,0,0-4.163,3.488,10.6,10.6,0,0,0-1.7,2.2c-.422.811-.825,1.593-1.2,2.345a42.275,42.275,0,0,0-1.789,4.072,24.81,24.81,0,0,0-.87,2.867c-.165.689-.225,1.078-.247,1.074a1.354,1.354,0,0,1,.026-.284c.023-.186.062-.46.134-.808a21.368,21.368,0,0,1,.8-2.9,39.248,39.248,0,0,1,1.752-4.11c.367-.757.766-1.543,1.185-2.354a10.652,10.652,0,0,1,1.738-2.262,30.233,30.233,0,0,1,4.206-3.5c1.376-.969,2.67-1.759,3.77-2.395s2.018-1.1,2.657-1.415l.738-.353a1.362,1.362,0,0,1,.265-.108" transform="translate(-24.999 -46.702)" fill="#263238"/>
          <path id="Trazado_738442" data-name="Trazado 738442" d="M196.242,389.8a2.6,2.6,0,0,1-.128-.542c-.075-.4-.169-.9-.282-1.488a38.013,38.013,0,0,0-3.056-9.463l-.628-1.378a2.619,2.619,0,0,1-.206-.518,2.653,2.653,0,0,1,.287.479c.171.315.411.773.694,1.348a31.756,31.756,0,0,1,3.069,9.5c.1.633.174,1.146.211,1.5a2.6,2.6,0,0,1,.039.556" transform="translate(-24.265 -47.585)" fill="#263238"/>
          <path id="Trazado_738443" data-name="Trazado 738443" d="M193.778,372.285a17.462,17.462,0,0,0-2.094-6.95,22.943,22.943,0,0,0-15.551-11.6l14.4,21.46,1.859,3.83a11.008,11.008,0,0,0,1.388-6.741" transform="translate(-22.266 -44.719)" fill="#455a64"/>
          <rect id="Rectángulo_350959" data-name="Rectángulo 350959" width="33.479" height="5.934" transform="translate(158.685 369.857)" fill="#ff9d00"/>
          <path id="Trazado_738444" data-name="Trazado 738444" d="M184.51,428.826l2.85,18.412h22.227l3.4-18.412Z" transform="translate(-23.325 -54.211)" fill="#ff9d00"/>
          <path id="Trazado_738445" data-name="Trazado 738445" d="M215.071,430.165c0,.065-7.552.118-16.865.118s-16.866-.053-16.866-.118,7.549-.118,16.866-.118,16.865.053,16.865.118" transform="translate(-22.925 -54.366)" fill="#263238"/>
        </g>
      </g>
      <g id="Grupo_1034507" data-name="Grupo 1034507" transform="translate(0 92.168)">
        <g id="Grupo_1034506" data-name="Grupo 1034506" clip-path="url(#clip-path-2)">
          <path id="Trazado_738446" data-name="Trazado 738446" d="M356.537,183.252l-1.775-4.213a17.434,17.434,0,1,0-2.941,5.511l0,.01Z" transform="translate(-40.551 -19.764)" fill="#fff"/>
          <path id="Trazado_738447" data-name="Trazado 738447" d="M356.51,183.224a2.134,2.134,0,0,1-.287.1l-.891.266-3.52,1.026a.084.084,0,0,1-.1-.057.089.089,0,0,1,0-.057l0-.009.142.085a17.332,17.332,0,0,1-6.638,5.193,17.947,17.947,0,0,1-5.391,1.427,17.527,17.527,0,0,1-6.317-.541,17.924,17.924,0,0,1-6.248-3.169,17.185,17.185,0,0,1-4.817-5.849,17.972,17.972,0,0,1-1.891-7.835,17.643,17.643,0,0,1,7.649-14.6,17.935,17.935,0,0,1,7.6-2.92,17.15,17.15,0,0,1,7.616.688,17.939,17.939,0,0,1,6.174,3.428,17.62,17.62,0,0,1,4.006,4.965l.64,1.338c.2.443.339.9.506,1.339a15.815,15.815,0,0,1,.675,2.615,17.334,17.334,0,0,1-.609,8.381l0-.056c.55,1.36.981,2.422,1.283,3.168l.32.809a2.008,2.008,0,0,1,.1.267,3.072,3.072,0,0,1-.135-.284l-.363-.812-1.35-3.085a.084.084,0,0,1,0-.057,17.388,17.388,0,0,0,.5-8.285,15.657,15.657,0,0,0-.687-2.57c-.168-.429-.308-.879-.507-1.313l-.638-1.31a17.354,17.354,0,0,0-3.96-4.85,17.646,17.646,0,0,0-6.064-3.335,16.8,16.8,0,0,0-7.451-.652,17.563,17.563,0,0,0-7.422,2.866,17.269,17.269,0,0,0-7.473,14.261,17.616,17.616,0,0,0,1.836,7.66,16.849,16.849,0,0,0,4.7,5.734,17.622,17.622,0,0,0,6.11,3.131,17.3,17.3,0,0,0,6.2.565,17.787,17.787,0,0,0,5.313-1.364,17.4,17.4,0,0,0,6.615-5.054.083.083,0,0,1,.117-.015.087.087,0,0,1,.025.1l0,.009-.1-.113,3.5-.917.92-.235a3.037,3.037,0,0,1,.327-.074" transform="translate(-40.524 -19.736)" fill="#263238"/>
          <path id="Trazado_738448" data-name="Trazado 738448" d="M335.517,176.517a1.9,1.9,0,1,1-1.9-1.9,1.9,1.9,0,0,1,1.9,1.9" transform="translate(-41.934 -22.074)" fill="#263238"/>
          <path id="Trazado_738449" data-name="Trazado 738449" d="M342.858,176.517a1.9,1.9,0,1,1-1.9-1.9,1.9,1.9,0,0,1,1.9,1.9" transform="translate(-42.862 -22.074)" fill="#263238"/>
          <path id="Trazado_738450" data-name="Trazado 738450" d="M350.006,176.517a1.9,1.9,0,1,1-1.9-1.9,1.9,1.9,0,0,1,1.9,1.9" transform="translate(-43.766 -22.074)" fill="#263238"/>
        </g>
      </g>
      <g id="Grupo_1034509" data-name="Grupo 1034509" transform="translate(0 92.168)">
        <g id="Grupo_1034508" data-name="Grupo 1034508" clip-path="url(#clip-path-2)">
          <path id="Trazado_738451" data-name="Trazado 738451" d="M96.857,141.769l.828-4.86a16.557,16.557,0,1,1,3.816,4.539l.005.008Z" transform="translate(-12.075 -14.185)" fill="#fff"/>
          <path id="Trazado_738452" data-name="Trazado 738452" d="M96.841,141.745a2.65,2.65,0,0,0,.289-.008l.884-.044,3.48-.192a.068.068,0,0,0,.065-.072.066.066,0,0,0-.012-.037l-.005-.008-.1.093A16.571,16.571,0,0,0,108.669,145a16.842,16.842,0,0,0,2.55.326c.445.031.9,0,1.36,0,.231-.007.464,0,.7-.02l.706-.081a16.472,16.472,0,0,0,5.78-1.765,16.611,16.611,0,0,0,8.546-18.363,16.847,16.847,0,0,0-6.578-9.971,16.769,16.769,0,0,0-3.5-1.9,16.491,16.491,0,0,0-7.542-1.145A16.663,16.663,0,0,0,95.4,129.171a16.435,16.435,0,0,0,2.208,7.75l-.009-.047c-.251,1.579-.444,2.8-.578,3.645-.06.395-.107.7-.141.924a2.95,2.95,0,0,0-.039.3s.027-.114.068-.327.1-.537.176-.937c.151-.831.37-2.031.653-3.584a.074.074,0,0,0-.008-.047A16.437,16.437,0,0,1,110.713,112.4a16.187,16.187,0,0,1,7.39,1.132,16.52,16.52,0,0,1,3.43,1.864,16.17,16.17,0,0,1,6.446,9.767,16.341,16.341,0,0,1-.092,7.536,16.494,16.494,0,0,1-8.257,10.5,16.26,16.26,0,0,1-5.677,1.764l-.694.085c-.23.025-.46.015-.687.024-.454,0-.9.037-1.341.01a16.355,16.355,0,0,1-9.7-3.715.07.07,0,0,0-.1.093l.005.008.052-.109-3.429.272-.9.077c-.2.018-.315.033-.315.033" transform="translate(-12.059 -14.161)" fill="#263238"/>
          <path id="Trazado_738453" data-name="Trazado 738453" d="M106.259,131.646l1.824-1.824,3.518,3.127,6.9-6.644,1.694,1.824-8.86,8.338Z" transform="translate(-13.433 -15.967)" fill="#ff9d00"/>
        </g>
      </g>
      <g id="Grupo_1034511" data-name="Grupo 1034511" transform="translate(0 92.168)">
        <g id="Grupo_1034510" data-name="Grupo 1034510" clip-path="url(#clip-path-2)">
          <path id="Trazado_738454" data-name="Trazado 738454" d="M432.8,338.344c.022-.205.041-.41.05-.614.176-3.931-1.421-7.7-2.958-11.322-4.121-9.715-8.107-20.022-6.948-30.506,1.53-13.866,11.726-25.332,15.365-38.741a3.635,3.635,0,0,1,3.517-2.665h0a3.637,3.637,0,0,1,3.492,4.721c-4.053,12.541-13.3,23.534-14.753,36.685-1.158,10.485,2.829,20.791,6.948,30.506,1.537,3.624,3.134,7.391,2.959,11.322s-2.7,8.062-6.6,8.692H375.939a3.65,3.65,0,0,1-3.655-3.645v-.789a3.65,3.65,0,0,1,3.655-3.645Z" transform="translate(-47.063 -32.173)" fill="#455a64"/>
          <path id="Trazado_738455" data-name="Trazado 738455" d="M442.174,438.473H358.1a3.694,3.694,0,0,1-3-1.584,4.537,4.537,0,0,1-.614-4.062l23.932-73.335,1.248.408-23.932,73.335a3.217,3.217,0,0,0,.429,2.883,2.4,2.4,0,0,0,1.934,1.042h84.073a2.364,2.364,0,0,0,1.9-.993,3.223,3.223,0,0,0,.5-2.8L424.01,359.873l1.265-.354,20.567,73.493a4.539,4.539,0,0,1-.722,3.949,3.7,3.7,0,0,1-2.945,1.512" transform="translate(-44.785 -45.446)" fill="#e0e0e0"/>
          <path id="Trazado_738456" data-name="Trazado 738456" d="M319.916,295.848s3.062-7.44,6.086-9.015a38.67,38.67,0,0,1,6.877-2.58h13.464l.134,8.717a5.929,5.929,0,0,1-4.61,1.581c-2.665-.369-9.319-2.014-9.319-2.014l-3.285.18-3.027,3.882s-2.457.746-1.593-1.579,1.251-3.35,1.251-3.35-2.907,4.524-4.023,4.732a2.471,2.471,0,0,1-1.956-.556" transform="translate(-40.443 -35.935)" fill="#6f4439"/>
          <path id="Trazado_738457" data-name="Trazado 738457" d="M379.355,265.406,368.64,280.819l-18.509,1.053-.253,8.455,13.947,2.746a22.48,22.48,0,0,0,20.017-5.942l2.041-18.641Z" transform="translate(-44.231 -33.552)" fill="#ae7461"/>
          <path id="Trazado_738458" data-name="Trazado 738458" d="M374.109,409.96l12.455,12.18s-8.992,17.361-6.923,19.846l26-24.465-18.577-19.812Z" transform="translate(-47.294 -50.278)" fill="#263238"/>
          <path id="Trazado_738459" data-name="Trazado 738459" d="M396.311,415.776a1.382,1.382,0,0,1,1.818.453,1.4,1.4,0,0,1-.535,1.82,1.455,1.455,0,0,1-1.922-.488,1.473,1.473,0,0,1,.764-1.844" transform="translate(-50.009 -52.541)" fill="#e0e0e0"/>
          <path id="Trazado_738460" data-name="Trazado 738460" d="M406.378,420.111l-1.956-1.92-24.2,24.175s-.708,1.565.152,2.21Z" transform="translate(-48.033 -52.867)" fill="#455a64"/>
          <path id="Trazado_738461" data-name="Trazado 738461" d="M387.746,425.8c.118.116.8-.427,1.793-.63.986-.228,1.8-.013,1.871-.17.1-.133-.773-.671-1.967-.4s-1.829,1.121-1.7,1.2" transform="translate(-49.016 -53.668)" fill="#fff"/>
          <path id="Trazado_738462" data-name="Trazado 738462" d="M385.78,430.045c.081.143.824-.17,1.735-.07.916.074,1.544.52,1.665.395.137-.093-.439-.877-1.576-.981s-1.93.539-1.824.656" transform="translate(-48.768 -54.281)" fill="#fff"/>
          <path id="Trazado_738463" data-name="Trazado 738463" d="M386.922,435.138c.14-.083-.251-.847-1.2-1.2s-1.789-.052-1.748.1c.022.167.741.156,1.514.454.78.28,1.3.75,1.433.644" transform="translate(-48.541 -54.837)" fill="#fff"/>
          <path id="Trazado_738464" data-name="Trazado 738464" d="M384.868,422.076c.157.059.583-.654,1.344-1.283s1.523-.943,1.492-1.108c-.009-.156-.974-.086-1.861.667s-1.126,1.688-.975,1.724" transform="translate(-48.649 -53.047)" fill="#fff"/>
          <path id="Trazado_738465" data-name="Trazado 738465" d="M365.038,312.358c-2.277,0-57.757,16.161-63.76,21.624s-10.5,73.066-10.5,73.066l23.263,7.976s4.9-33.017,7.874-43.68a54.52,54.52,0,0,0,1.819-16.392l46.061-20.06Z" transform="translate(-36.76 -39.488)" fill="#263238"/>
          <path id="Trazado_738466" data-name="Trazado 738466" d="M370.687,314.978c-1.035.455-41.344,17.666-45.132,29.2-3.087,9.4.5,17.669,4.814,24.134,4.869,7.3,40.571,39.879,40.571,39.879l20.15-14.408L356.545,358.1s18.126-11.189,18.747-11.189,19.463-1.246,25.436-1.922c5.578-.632,8.629-8.63,8.629-8.63l4.975-22.931L376.948,304.8Z" transform="translate(-41.01 -38.532)" fill="#263238"/>
          <path id="Trazado_738467" data-name="Trazado 738467" d="M370.67,314.967s.129-.23.394-.67l1.185-1.956,4.629-7.582.024-.038.044.01,37.4,8.571.115.026-.025.116-4.955,22.935,0,.012,0,.009a20.1,20.1,0,0,1-3.549,5.748,10.232,10.232,0,0,1-2.733,2.175,4.19,4.19,0,0,1-.809.372,4.807,4.807,0,0,1-.854.273c-.294.055-.591.126-.886.168l-.883.093c-4.719.466-9.6.815-14.621,1.181l-7.634.521-1.943.118-.25.011c-.054,0-.047.018-.072.019a.956.956,0,0,0-.1.042c-.139.059-.284.142-.426.213l-.853.472c-1.134.646-2.265,1.316-3.4,1.993-4.54,2.714-9.153,5.543-13.846,8.434l.032-.257,26.979,27.855,7.57,7.819.137.142-.161.114L371.02,408.312l-.11.079-.1-.092q-10.822-9.92-20.721-19.373c-3.288-3.144-6.486-6.244-9.562-9.321s-6.06-6.1-8.751-9.245c-.352-.379-.642-.813-.962-1.217a14.171,14.171,0,0,1-.9-1.252c-.557-.854-1.089-1.718-1.579-2.6a35.771,35.771,0,0,1-2.5-5.389,26.55,26.55,0,0,1-1.389-5.588,23.361,23.361,0,0,1-.039-5.564,20.529,20.529,0,0,1,1.256-5.215,15.136,15.136,0,0,1,2.973-4.209,49.859,49.859,0,0,1,7.436-6.123,144.146,144.146,0,0,1,14.1-8.45c4.253-2.269,7.964-4.083,11-5.526s5.415-2.505,7.024-3.214l1.834-.792c.415-.176.629-.257.629-.257s-.207.1-.617.285l-1.821.819c-1.6.726-3.967,1.807-7,3.265s-6.734,3.289-10.975,5.57a145.55,145.55,0,0,0-14.061,8.478,49.763,49.763,0,0,0-7.387,6.11,14.918,14.918,0,0,0-2.917,4.14,20.276,20.276,0,0,0-1.228,5.149,23.1,23.1,0,0,0,.047,5.5,26.371,26.371,0,0,0,1.383,5.529,35.6,35.6,0,0,0,2.491,5.344c.487.873,1.017,1.731,1.572,2.58a14.192,14.192,0,0,0,.888,1.237c.316.4.6.823.952,1.2,2.679,3.127,5.669,6.147,8.744,9.216s6.276,6.167,9.566,9.308c6.579,6.282,13.512,12.748,20.727,19.355l-.21-.012,20.148-14.411-.024.257-7.57-7.818-26.973-27.862-.144-.149.176-.108c4.695-2.89,9.31-5.716,13.855-8.429,1.137-.676,2.27-1.346,3.409-1.994l.861-.475c.149-.075.287-.154.447-.224a.89.89,0,0,1,.129-.053.646.646,0,0,1,.165-.034l.237-.01,1.938-.116,7.632-.515c5.019-.361,9.9-.7,14.613-1.165a7.826,7.826,0,0,0,3.323-.869,9.915,9.915,0,0,0,2.658-2.112,19.831,19.831,0,0,0,3.5-5.653l-.006.02c1.807-8.294,3.493-16.036,4.994-22.926l.09.142-37.371-8.684.066-.028-4.689,7.563-1.209,1.934c-.272.432-.416.647-.416.647" transform="translate(-40.993 -38.522)" fill="#455a64"/>
          <path id="Trazado_738468" data-name="Trazado 738468" d="M380.93,187.332a3.78,3.78,0,0,1-2.234-7.183,3.932,3.932,0,0,1,2.838-6.9,4.706,4.706,0,0,1,6.734-4.459,5.289,5.289,0,0,1,6.479-.7,3.763,3.763,0,0,1,3.865,6.071" transform="translate(-47.585 -21.149)" fill="#263238"/>
          <path id="Trazado_738469" data-name="Trazado 738469" d="M396.465,172.378l-.827.073a16.037,16.037,0,0,0-14.626,16.1c.06,7.773.226,16.36.643,20.5.864,8.565,9.558,9.14,9.558,9.14l.185,10.365,20.752-2.484-1.462-37.522c-.019-8.97-5.255-16.436-14.222-16.168" transform="translate(-48.167 -21.791)" fill="#ae7461"/>
          <path id="Trazado_738470" data-name="Trazado 738470" d="M392.675,224.2a20.805,20.805,0,0,0,10.883-4.287s-2.208,6.56-10.832,6.544Z" transform="translate(-49.641 -27.801)" fill="#6f4439"/>
          <path id="Trazado_738471" data-name="Trazado 738471" d="M384.552,199.817a1.23,1.23,0,0,0,1.29,1.131,1.175,1.175,0,0,0,1.164-1.216,1.23,1.23,0,0,0-1.288-1.132,1.177,1.177,0,0,0-1.165,1.217" transform="translate(-48.614 -25.107)" fill="#263238"/>
          <path id="Trazado_738472" data-name="Trazado 738472" d="M383.541,195.288c.166.146,1.033-.622,2.351-.736,1.315-.132,2.341.461,2.47.287.065-.079-.116-.353-.563-.622a3.371,3.371,0,0,0-2-.427,3.24,3.24,0,0,0-1.854.784c-.377.347-.489.648-.408.713" transform="translate(-48.483 -24.497)" fill="#263238"/>
          <path id="Trazado_738473" data-name="Trazado 738473" d="M398.114,199.037a1.229,1.229,0,0,0,1.29,1.13,1.175,1.175,0,0,0,1.164-1.215,1.232,1.232,0,0,0-1.289-1.132,1.177,1.177,0,0,0-1.165,1.217" transform="translate(-50.329 -25.008)" fill="#263238"/>
          <path id="Trazado_738474" data-name="Trazado 738474" d="M398.392,194.259c.165.146,1.033-.622,2.35-.735,1.315-.132,2.342.46,2.47.287.064-.078-.114-.353-.564-.622a3.381,3.381,0,0,0-2-.427,3.243,3.243,0,0,0-1.854.784c-.376.347-.488.648-.407.713" transform="translate(-50.361 -24.367)" fill="#263238"/>
          <path id="Trazado_738475" data-name="Trazado 738475" d="M393.412,204.551a8.7,8.7,0,0,0-2.174-.2c-.339,0-.664-.044-.741-.268a1.722,1.722,0,0,1,.136-1.017l.769-2.65a44.186,44.186,0,0,0,1.642-6.9,44.193,44.193,0,0,0-2.194,6.751q-.38,1.393-.725,2.661a1.956,1.956,0,0,0-.058,1.337.849.849,0,0,0,.6.443,2.329,2.329,0,0,0,.578.029,8.622,8.622,0,0,0,2.169-.189" transform="translate(-49.299 -24.464)" fill="#263238"/>
          <path id="Trazado_738476" data-name="Trazado 738476" d="M396.571,188.548c.2.319,1.3-.143,2.687-.311,1.382-.2,2.577-.041,2.673-.4.04-.17-.233-.448-.758-.672a4.189,4.189,0,0,0-2.125-.254,4.041,4.041,0,0,0-1.959.8c-.434.35-.611.688-.519.84" transform="translate(-50.131 -23.624)" fill="#263238"/>
          <path id="Trazado_738477" data-name="Trazado 738477" d="M382.914,189.06c.3.275,1.364-.132,2.671-.262,1.3-.169,2.433-.013,2.66-.349.1-.162-.1-.446-.612-.687a4.271,4.271,0,0,0-2.216-.3,4.2,4.2,0,0,0-2.079.79c-.434.349-.559.67-.424.805" transform="translate(-48.401 -23.695)" fill="#263238"/>
          <path id="Trazado_738478" data-name="Trazado 738478" d="M381.545,184.4s1.786-5.569,4.265-7.051c3-1.794,4.654,1.527,7.567.428s5.777-2.819,9.034-.78c3.565,2.232,2.156,4.143,2.7,7.93,2.2,15.348,5.4,19.462,5.562,12.126.017-.8,2.171-1.632,2.2-5.025.038-4.4-.262-9.707-1.509-12.716-1.051-2.535-2.7-4.205-5.539-5.957-4.488-2.764-10.276-2.319-14.168-1.578s-11.063,5.931-10.111,12.622" transform="translate(-48.223 -21.645)" fill="#263238"/>
          <path id="Trazado_738479" data-name="Trazado 738479" d="M414.249,200.223a2.336,2.336,0,0,1,2.314-2.465c1.613.011,3.473.762,3.659,4.075.33,5.878-5.639,5-5.659,4.83-.013-.114-.2-3.979-.314-6.44" transform="translate(-52.368 -25)" fill="#ae7461"/>
          <path id="Trazado_738480" data-name="Trazado 738480" d="M415.929,204.655c.024-.02.107.066.284.135a1.023,1.023,0,0,0,.766-.027,2.536,2.536,0,0,0,1.045-2.339,3.4,3.4,0,0,0-.37-1.45,1.185,1.185,0,0,0-.814-.743.524.524,0,0,0-.589.314c-.069.169-.025.285-.056.3s-.132-.092-.1-.336a.653.653,0,0,1,.211-.382.775.775,0,0,1,.557-.182,1.441,1.441,0,0,1,1.121.852,3.473,3.473,0,0,1,.447,1.618,2.66,2.66,0,0,1-1.351,2.622,1.1,1.1,0,0,1-.945-.1c-.19-.135-.228-.265-.209-.277" transform="translate(-52.58 -25.276)" fill="#6f4439"/>
          <path id="Trazado_738481" data-name="Trazado 738481" d="M409.47,185.255a5.59,5.59,0,0,1-2.381,1.366,1.921,1.921,0,0,1-2.24-1.157c-.106-.4-.048-.884-.344-1.176-.353-.348-.933-.178-1.42-.082-1.689.331-3.846-1.375-4.426-2.995a1.536,1.536,0,0,1-2.008.6,5.507,5.507,0,0,1-1.524-1.131,2.42,2.42,0,0,0-2.1-.828,5.769,5.769,0,0,1-1.25.393c-.776,0-1.231-.868-1.415-1.622s-.354-1.637-1.042-1.994a3.078,3.078,0,0,0-2.1.128c-.7.167-1.628.081-1.871-.6a1.4,1.4,0,0,1,.168-1.086,3.812,3.812,0,0,1,4.355-1.834,5.165,5.165,0,0,1,9.366-1.833,5.242,5.242,0,0,1,8.516,1.165,3.8,3.8,0,0,1,4.755,5.129,3.608,3.608,0,0,1,2.23,2.687,2.066,2.066,0,0,1-2.145,2.309,2.1,2.1,0,0,1-3.441,2.412" transform="translate(-48.708 -21.379)" fill="#263238"/>
          <path id="Trazado_738482" data-name="Trazado 738482" d="M390.207,175.861c-.005,0,0,.037.01.107s.028.176.066.309a3.686,3.686,0,0,0,.525,1.092,4.211,4.211,0,0,0,1.422,1.271,3.925,3.925,0,0,0,2.462.473l-.111-.121a2.135,2.135,0,0,0,.261,1.608,6.093,6.093,0,0,0,1.13,1.353,4.4,4.4,0,0,0,.715.614,2.058,2.058,0,0,0,.959.263,2.151,2.151,0,0,0,1.828-.843l-.225-.044a4.413,4.413,0,0,0,2.133,2.878,3.226,3.226,0,0,0,1.98.46,5.8,5.8,0,0,0,1.861-.584l-.163-.055a4.639,4.639,0,0,0,1.548,1.687,2.467,2.467,0,0,0,2.09.376,3.242,3.242,0,0,0,2.263-2.747l-.128.073a3.036,3.036,0,0,0,2.041.118,3.292,3.292,0,0,0,1.349-.75,2.842,2.842,0,0,0,.591-.775,1.349,1.349,0,0,0,.122-.316,3.518,3.518,0,0,1-.779,1.017,3.268,3.268,0,0,1-1.321.687,2.9,2.9,0,0,1-1.928-.144l-.115-.052-.012.127a3.059,3.059,0,0,1-2.145,2.549,2.242,2.242,0,0,1-1.9-.363,4.414,4.414,0,0,1-1.455-1.6l-.056-.1-.107.049a5.6,5.6,0,0,1-1.779.556,2.97,2.97,0,0,1-1.83-.43,4.175,4.175,0,0,1-2.016-2.711l-.061-.274-.164.232a1.909,1.909,0,0,1-1.614.743,1.825,1.825,0,0,1-.849-.225,4.192,4.192,0,0,1-.674-.577,5.929,5.929,0,0,1-1.1-1.292,1.934,1.934,0,0,1-.257-1.454l.036-.144-.147.023a3.776,3.776,0,0,1-2.355-.417,4.2,4.2,0,0,1-1.408-1.2,4.546,4.546,0,0,1-.69-1.444" transform="translate(-49.329 -22.232)" fill="#455a64"/>
          <path id="Trazado_738483" data-name="Trazado 738483" d="M394.04,210.416c.013-.221,1.482-.048,2.676-1.178s1.22-2.714,1.427-2.7c.094-.01.243.383.182,1.046a3.685,3.685,0,0,1-1.108,2.264,3.206,3.206,0,0,1-2.232.895c-.621-.017-.965-.225-.944-.325" transform="translate(-49.814 -26.11)" fill="#263238"/>
          <path id="Trazado_738484" data-name="Trazado 738484" d="M293.273,410.792,290.564,429.6s-21.073,3.255-21.931,6.677l38.276,7.147,5.489-29.109Z" transform="translate(-33.96 -51.932)" fill="#263238"/>
          <path id="Trazado_738485" data-name="Trazado 738485" d="M307.31,433.03a1.506,1.506,0,0,1,.771,1.891,1.528,1.528,0,0,1-1.946.7,1.588,1.588,0,0,1-.806-2.008,1.606,1.606,0,0,1,2.115-.513" transform="translate(-38.582 -54.724)" fill="#e0e0e0"/>
          <path id="Trazado_738486" data-name="Trazado 738486" d="M306.909,446.884l.432-2.958-36.859-5.746s-1.833.384-1.849,1.557Z" transform="translate(-33.96 -55.394)" fill="#455a64"/>
          <path id="Trazado_738487" data-name="Trazado 738487" d="M293.067,431.963c-.026.178.894.433,1.709,1.174.836.721,1.17,1.576,1.354,1.538.179,0,.093-1.113-.91-1.994s-2.164-.889-2.152-.719" transform="translate(-37.049 -54.597)" fill="#fff"/>
          <path id="Trazado_738488" data-name="Trazado 738488" d="M288.141,432.911c-.074.163.681.616,1.178,1.483.524.854.535,1.693.723,1.72.17.061.49-.952-.15-2.02s-1.717-1.352-1.751-1.184" transform="translate(-36.426 -54.722)" fill="#fff"/>
          <path id="Trazado_738489" data-name="Trazado 738489" d="M284.44,437.159c.162.069.584-.766.282-1.826s-1.106-1.608-1.212-1.476c-.133.126.34.752.574,1.625.256.867.173,1.624.356,1.676" transform="translate(-35.838 -54.845)" fill="#fff"/>
          <path id="Trazado_738490" data-name="Trazado 738490" d="M294.348,427.1c.049.176.95.092,2,.357,1.048.245,1.808.735,1.934.6.131-.108-.551-.913-1.786-1.209s-2.211.094-2.144.251" transform="translate(-37.21 -53.948)" fill="#fff"/>
          <path id="Trazado_738491" data-name="Trazado 738491" d="M388.939,236.194l.786-3.558,20.906-10.382,1.823,2.845s7.824,6.367,10.819,11.892-.557,50.772-1.058,57.375c-1.006,13.306-5.979,30.722-5.979,30.722s-6.708-4.669-26.444-12.773S369,300.544,369,300.544l11.63-14.749Z" transform="translate(-46.648 -28.097)" fill="#15d3ec"/>
          <path id="Trazado_738492" data-name="Trazado 738492" d="M390.8,239.636c-.117.656-9.566,23.347-9.566,23.347s4.91,2.74,5.594,2.876,3.971-26.223,3.971-26.223" transform="translate(-48.195 -30.294)" fill="#15d3ec"/>
          <path id="Trazado_738493" data-name="Trazado 738493" d="M390.5,243.895c.094.015-.745,5.78-1.872,12.877s-2.117,12.84-2.21,12.825.745-5.78,1.872-12.878,2.117-12.838,2.21-12.823" transform="translate(-48.85 -30.833)" fill="#263238"/>
          <path id="Trazado_738494" data-name="Trazado 738494" d="M315.176,294.12s5.631-8.309,8.987-9.767a41.49,41.49,0,0,1,7.555-2.25L345.878,284l-.252,8.455a6.365,6.365,0,0,1-5.055,1.348c-2.826-.594-9.827-2.852-9.827-2.852l-3.53-.052-3.531,3.93s-2.687.616-1.587-1.809,1.59-3.493,1.59-3.493-3.451,4.627-4.661,4.766a24.3,24.3,0,0,1-3.85-.17" transform="translate(-39.844 -35.663)" fill="#ae7461"/>
          <path id="Trazado_738495" data-name="Trazado 738495" d="M393.56,257.764l-9.816,22.814-33.612.328-.252,8.455s32.412,11.428,41.042,9.208,22.945-32.74,22.945-32.74Z" transform="translate(-44.231 -32.586)" fill="#ae7461"/>
          <path id="Trazado_738496" data-name="Trazado 738496" d="M406.811,235.3c-.918.833-3.955,4.4-7.2,12.155s-7.791,16.818-7.791,16.818L415,273.507s5.283-12.154,7.735-17.561c1.866-4.117,3.174-12.215,1.472-16.135s-9.321-11.832-17.391-4.515" transform="translate(-49.534 -29.367)" fill="#15d3ec"/>
          <path id="Trazado_738497" data-name="Trazado 738497" d="M406.78,235.285s.068-.073.212-.2.355-.33.654-.563a11.527,11.527,0,0,1,2.857-1.689,8.71,8.71,0,0,1,5.2-.385,12.413,12.413,0,0,1,5.938,3.55,14.186,14.186,0,0,1,2.42,3.268,10.626,10.626,0,0,1,1.009,4.289,30.64,30.64,0,0,1-1.206,9.609,35.447,35.447,0,0,1-1.917,4.889l-2.2,5-4.627,10.514-.067.151-.153-.061-.336-.134L391.736,264.4l-.156-.062.075-.15c2.165-4.337,4.081-8.379,5.723-12s2.9-6.879,4.273-9.424a38.875,38.875,0,0,1,3.534-5.7,16.993,16.993,0,0,1,1.147-1.359,4.452,4.452,0,0,1,.449-.417.725.725,0,0,1-.1.116l-.309.335c-.265.3-.645.76-1.1,1.384a41.018,41.018,0,0,0-3.448,5.73c-1.34,2.546-2.563,5.815-4.2,9.444s-3.526,7.684-5.681,12.034l-.081-.213,22.842,9.088.336.134-.22.091,4.634-10.514,2.206-5a35.426,35.426,0,0,0,1.912-4.843,30.536,30.536,0,0,0,1.226-9.505,10.4,10.4,0,0,0-.961-4.185,13.988,13.988,0,0,0-2.359-3.22,12.271,12.271,0,0,0-5.808-3.533,8.622,8.622,0,0,0-5.107.324,11.967,11.967,0,0,0-2.863,1.619c-.3.224-.519.418-.673.536s-.235.177-.235.177" transform="translate(-49.503 -29.356)" fill="#263238"/>
          <path id="Trazado_738498" data-name="Trazado 738498" d="M331.25,286.975a8.463,8.463,0,0,0-6.439,3.255,2.493,2.493,0,0,1,.577-.963,6.685,6.685,0,0,1,4.744-2.4,2.5,2.5,0,0,1,1.118.1" transform="translate(-41.061 -36.265)" fill="#6f4439"/>
          <path id="Trazado_738499" data-name="Trazado 738499" d="M388.993,270.008a.911.911,0,0,1-.074.236c-.069.176-.155.4-.26.666-.252.612-.6,1.451-1.027,2.5-.918,2.171-2.2,5.2-3.711,8.78l-.039.092h-.1l-10.209.117-16.549.111-5.016-.005-1.364-.019a2.415,2.415,0,0,1-.475-.03,2.416,2.416,0,0,1,.475-.039l1.363-.045,5.014-.1,16.548-.211,10.209-.082-.139.094,3.825-8.731c.463-1.032.835-1.859,1.107-2.463.122-.262.223-.475.3-.647a.965.965,0,0,1,.12-.216" transform="translate(-44.268 -34.134)" fill="#6f4439"/>
        </g>
      </g>
      <rect id="Rectángulo_350964" data-name="Rectángulo 350964" width="6.47" height="126.592" transform="translate(40.858 358.437)" fill="#455a64"/>
      <rect id="Rectángulo_350965" data-name="Rectángulo 350965" width="6.47" height="125.714" transform="translate(306.425 359.33)" fill="#455a64"/>
      <rect id="Rectángulo_350966" data-name="Rectángulo 350966" width="294.609" height="7.639" transform="translate(24.694 357.19)" fill="#455a64"/>
      <g id="Grupo_1034513" data-name="Grupo 1034513" transform="translate(0 92.168)">
        <g id="Grupo_1034512" data-name="Grupo 1034512" clip-path="url(#clip-path-2)">
          <path id="Trazado_738500" data-name="Trazado 738500" d="M340.042,312.093c0,.1-34.379.172-76.777.172s-76.785-.077-76.785-.172,34.372-.17,76.785-.17,76.777.077,76.777.17" transform="translate(-23.574 -39.433)" fill="#263238"/>
        </g>
      </g>
      <g id="Grupo_1034515" data-name="Grupo 1034515" transform="translate(0 92.168)">
        <g id="Grupo_1034514" data-name="Grupo 1034514" clip-path="url(#clip-path-2)">
          <path id="Trazado_738501" data-name="Trazado 738501" d="M265.025,252.219h0a1.429,1.429,0,0,1,1.669,1.138l7.972,42.248h38.767a1.05,1.05,0,1,1,0,2.1H272.317v-.169l-.188.035-8.243-43.684a1.428,1.428,0,0,1,1.138-1.669" transform="translate(-33.357 -31.882)" fill="#263238"/>
        </g>
      </g>
      <g id="Grupo_1034520" data-name="Grupo 1034520" transform="translate(0 92.168)">
        <g id="Grupo_1034519" data-name="Grupo 1034519" clip-path="url(#clip-path-2)">
          <path id="Trazado_738502" data-name="Trazado 738502" d="M42.342,137.98a21.047,21.047,0,0,1,15.517-9.53c3.683-.39,5.277.241,8,.721a11.687,11.687,0,0,1,7.029,3.8,19.606,19.606,0,0,1,4.613,8.571,28.153,28.153,0,0,1,.3,9.338A37.054,37.054,0,0,1,73.8,162.3l-5.6,1.192c-4.689.579-9.444,1.158-14.121.494s-9.35-2.733-12.163-6.531c-3.906-5.275-3.261-14.048.428-19.477" transform="translate(-4.964 -16.223)" fill="#263238"/>
          <path id="Trazado_738503" data-name="Trazado 738503" d="M51.06,137.74l10.951-5.525,3,.08c6.676-.571,11.935,6.379,12.46,11.78.584,6,1.061,13.351.5,17.862-1.125,9.071-8.655,10.489-8.655,10.489s1.261,10.58,1.586,13.563l-18.179-5.556-4.39-39.378a3.174,3.174,0,0,1,2.729-3.315" transform="translate(-6.109 -16.714)" fill="#ffc09d"/>
          <path id="Trazado_738504" data-name="Trazado 738504" d="M66.764,164.953a1.9,1.9,0,0,1,.551-1.227,1.942,1.942,0,0,1,2.337-.342,2.6,2.6,0,0,1,1.2,2.346,2.364,2.364,0,0,1-1.6,1.13,2.719,2.719,0,0,1-.315.038,2.124,2.124,0,0,1-1.477-.437,1.9,1.9,0,0,1-.7-1.507" transform="translate(-8.44 -20.623)" fill="#ff9b6c"/>
          <path id="Trazado_738505" data-name="Trazado 738505" d="M79.361,154.923a1.158,1.158,0,0,1-1.076,1.206,1.108,1.108,0,0,1-1.228-1,1.158,1.158,0,0,1,1.075-1.206,1.108,1.108,0,0,1,1.23,1" transform="translate(-9.741 -19.458)" fill="#263238"/>
          <path id="Trazado_738506" data-name="Trazado 738506" d="M79,149.271c-.138.155-1.037-.463-2.283-.418-1.244.028-2.136.7-2.277.552-.068-.066.069-.342.456-.646a3.189,3.189,0,0,1,1.817-.628,3.049,3.049,0,0,1,1.822.521c.393.28.532.549.464.619" transform="translate(-9.409 -18.726)" fill="#263238"/>
          <path id="Trazado_738507" data-name="Trazado 738507" d="M71.4,159.874a8.229,8.229,0,0,1,2.01-.433c.316-.045.615-.118.661-.336a1.614,1.614,0,0,0-.244-.935q-.489-1.14-1.023-2.39a41.8,41.8,0,0,1-2.328-6.26,41.569,41.569,0,0,1,2.826,6.058q.515,1.259.984,2.4a1.837,1.837,0,0,1,.208,1.242.8.8,0,0,1-.507.483,2.171,2.171,0,0,1-.538.093,8.085,8.085,0,0,1-2.049.073" transform="translate(-8.909 -18.902)" fill="#263238"/>
          <path id="Trazado_738508" data-name="Trazado 738508" d="M70.6,177.826a22.967,22.967,0,0,1-12.193-2.811s3.432,6.144,12.434,4.992Z" transform="translate(-7.384 -22.125)" fill="#ff9b6c"/>
          <path id="Trazado_738509" data-name="Trazado 738509" d="M79.006,144.925c-.2.311-1.16.141-2.271.271-1.114.1-2.023.455-2.277.19-.115-.13,0-.431.372-.75a3.54,3.54,0,0,1,3.665-.372c.43.238.6.51.511.66" transform="translate(-9.407 -18.194)" fill="#263238"/>
          <path id="Trazado_738510" data-name="Trazado 738510" d="M65.064,155.975a1.157,1.157,0,0,0,1.2,1.085,1.108,1.108,0,0,0,1.116-1.126,1.158,1.158,0,0,0-1.2-1.086,1.108,1.108,0,0,0-1.117,1.127" transform="translate(-8.225 -19.576)" fill="#263238"/>
          <path id="Trazado_738511" data-name="Trazado 738511" d="M60.416,150.4c.154.14.983-.57,2.226-.656,1.24-.1,2.2.471,2.322.309.061-.072-.1-.334-.522-.594a3.179,3.179,0,0,0-1.873-.434,3.055,3.055,0,0,0-1.758.71c-.361.321-.471.6-.4.665" transform="translate(-7.635 -18.838)" fill="#263238"/>
          <path id="Trazado_738512" data-name="Trazado 738512" d="M62.29,145.365c.26.269,1.2-.077,2.358-.154,1.151-.113,2.141.073,2.35-.234.091-.149-.079-.424-.52-.667a3.768,3.768,0,0,0-3.794.312c-.391.313-.509.611-.394.743" transform="translate(-7.869 -18.196)" fill="#263238"/>
          <path id="Trazado_738513" data-name="Trazado 738513" d="M50.714,159.108c-.024-.672-.855-2.229-1.523-2.311-1.781-.216-4.97.035-4.847,4.537.169,6.154,6.313,4.714,6.319,4.537,0-.138.135-4.444.051-6.763" transform="translate(-5.606 -19.815)" fill="#ffc09d"/>
          <path id="Trazado_738514" data-name="Trazado 738514" d="M49.157,163.973c-.028-.019-.1.078-.284.166a1.071,1.071,0,0,1-.8.038,2.65,2.65,0,0,1-1.292-2.346,3.542,3.542,0,0,1,.257-1.544,1.242,1.242,0,0,1,.784-.845.547.547,0,0,1,.64.276c.087.17.052.294.085.3.017.015.129-.107.073-.359a.682.682,0,0,0-.253-.38.807.807,0,0,0-.6-.14,1.51,1.51,0,0,0-1.094.984,3.643,3.643,0,0,0-.324,1.725,2.784,2.784,0,0,0,1.637,2.615,1.148,1.148,0,0,0,.976-.19c.186-.156.215-.3.193-.306" transform="translate(-5.859 -20.118)" fill="#ff9b6c"/>
          <path id="Trazado_738515" data-name="Trazado 738515" d="M48.983,153.594l1.7,1.474c9.795-6.443,19.754-23.979,17.182-23.263a19.626,19.626,0,0,0-9.685-.186c-4.917,1.3-14.163,4.639-13.493,10.514s4.3,11.461,4.3,11.461" transform="translate(-5.645 -16.572)" fill="#263238"/>
          <path id="Trazado_738516" data-name="Trazado 738516" d="M44.527,128.562c2.384,1.393,4.509,5.456,3.534,8.04a8.1,8.1,0,0,1-10.353,9.055,7.8,7.8,0,0,1-4.392-3.387,9.381,9.381,0,0,1-.958-6.51,10.372,10.372,0,0,1,4.31-6.811,7.659,7.659,0,0,1,7.86-.387" transform="translate(-4.066 -16.138)" fill="#263238"/>
          <path id="Trazado_738517" data-name="Trazado 738517" d="M45.7,153.71a5.91,5.91,0,0,0,1.121-.485c.707-.343,1.716-.866,2.936-1.564a44.419,44.419,0,0,0,8.825-6.525,29.506,29.506,0,0,0,6.384-8.916,21.187,21.187,0,0,0,1.14-3.134,5.392,5.392,0,0,0,.249-1.2c-.088-.026-.473,1.68-1.688,4.191a31.484,31.484,0,0,1-6.41,8.722,49.729,49.729,0,0,1-8.669,6.575c-1.192.73-2.174,1.3-2.852,1.687a6.4,6.4,0,0,0-1.036.645" transform="translate(-5.777 -16.673)" fill="#455a64"/>
          <path id="Trazado_738518" data-name="Trazado 738518" d="M39.544,149.066c.085,0,.121-1.146.464-2.953A23.32,23.32,0,0,1,46.732,133.7c1.326-1.275,2.269-1.933,2.22-2a2.688,2.688,0,0,0-.7.4,15.185,15.185,0,0,0-1.742,1.356,21.192,21.192,0,0,0-6.824,12.6,15.058,15.058,0,0,0-.183,2.2,2.708,2.708,0,0,0,.045.809" transform="translate(-4.993 -16.649)" fill="#455a64"/>
          <path id="Trazado_738519" data-name="Trazado 738519" d="M47.033,167.585a2.3,2.3,0,1,0,2.3-2.3,2.3,2.3,0,0,0-2.3,2.3" transform="translate(-5.946 -20.894)" fill="#263238"/>
          <path id="Trazado_738520" data-name="Trazado 738520" d="M71.233,165.812c-.025-.218-1.464.033-2.7-1.018s-1.35-2.611-1.553-2.587c-.093,0-.219.391-.122,1.041a3.638,3.638,0,0,0,1.214,2.173,3.169,3.169,0,0,0,2.249.761c.612-.051.94-.274.914-.371" transform="translate(-8.447 -20.506)" fill="#263238"/>
          <path id="Trazado_738521" data-name="Trazado 738521" d="M33.7,255.47s-6.872,24.244-2.789,37.407c2.449,7.9,36.818,51.394,38.473,53.266,1.152,1.3-14.7,42.393-17.594,50.953l18.221,8.831s22.8-48.482,24.195-56.979c1.79-10.912-23.859-57.59-22.918-58.216l9.22-19.23-7.652-19.8s-32.248.349-38.833.876Z" transform="translate(-3.744 -31.819)" fill="#263238"/>
          <path id="Trazado_738522" data-name="Trazado 738522" d="M78.1,272.382s44.453,15.772,49.465,18.441c5.465,2.91,9.591,13.119,5.035,21.8s-44.52,33.525-44.52,33.525L78.1,330.959l28.922-22.78L75.711,300.8l-10.2-12.083Z" transform="translate(-8.282 -34.434)" fill="#263238"/>
          <path id="Trazado_738523" data-name="Trazado 738523" d="M100.207,352.021a16.242,16.242,0,0,0-.022-3.09,34.789,34.789,0,0,0-2.249-8.123c-.633-1.67-1.393-3.476-2.193-5.425-.406-.969-.791-2-1.192-3.043s-.865-2.1-1.33-3.181c-1.895-4.334-4.054-9.069-6.324-14.038l-9.774-21.24-.027-.059.015-.061c1.157-4.79,2.174-8.709,2.947-11.419.39-1.354.718-2.406.975-3.112a7.11,7.11,0,0,1,.334-.789,1.171,1.171,0,0,1,.16-.245,1.2,1.2,0,0,1-.11.27c-.079.172-.161.448-.28.8-.222.713-.518,1.771-.877,3.131-.711,2.722-1.676,6.652-2.792,11.447l-.012-.12c2.768,5.867,6.2,13.22,9.856,21.206,2.27,4.97,4.418,9.711,6.3,14.06.461,1.093.923,2.148,1.32,3.208s.766,2.065,1.166,3.041c.784,1.952,1.528,3.77,2.144,5.454a33.092,33.092,0,0,1,2.125,8.218,9.088,9.088,0,0,1-.155,3.107" transform="translate(-9.746 -35.169)" fill="#455a64"/>
          <g id="Grupo_1034518" data-name="Grupo 1034518" transform="translate(67.543 247.077)" opacity="0.3">
            <g id="Grupo_1034517" data-name="Grupo 1034517">
              <g id="Grupo_1034516" data-name="Grupo 1034516" clip-path="url(#clip-path-16)">
                <path id="Trazado_738524" data-name="Trazado 738524" d="M80.221,282.832c-.087.32,0,11.679,0,11.679l5.7,9.667-4.555-1.073-4.053-8.437Z" transform="translate(-77.317 -282.832)"/>
              </g>
            </g>
          </g>
          <path id="Trazado_738525" data-name="Trazado 738525" d="M108.331,279.317c-1.283-1.259-5.047-4.792-7.69-7.268a1.544,1.544,0,0,1,1.026-2.671l30.443-.622a1.545,1.545,0,0,1,1.185.517l6.363,7.148a1.545,1.545,0,0,1-1.114,2.572l-29.095.763a1.536,1.536,0,0,1-1.119-.438" transform="translate(-12.661 -33.976)" fill="#455a64"/>
          <path id="Trazado_738526" data-name="Trazado 738526" d="M95.994,272.626a26.717,26.717,0,0,1,7.075-1.922c3.538-.352,5.307,1.137,7.2.961s7.075.329,7.075,1.719-7.2,1.895-7.2,1.895l6.317,2.021s7.2-.884,7.328,0-6.444,1.769-9.476,2.148-20.594.632-23.121,0-20.468-11.5-20.468-11.5l8.592-8.844Z" transform="translate(-8.941 -32.756)" fill="#ffc09d"/>
          <path id="Trazado_738527" data-name="Trazado 738527" d="M47.3,184.053a14.758,14.758,0,0,0-11.089,10.26c-2.35,7.48,2.132,38.223,4.037,43.773s22.42,23.414,24.224,21.9,11.8-10.363,11.8-10.363l-16.05-18.969s.85-22.524-.212-26.774-8.247-20.247-12.71-19.822" transform="translate(-4.494 -23.267)" fill="#15d3ec"/>
          <path id="Trazado_738528" data-name="Trazado 738528" d="M36.923,220.672c1.174,10.676-1.118,15.267-1.118,15.267a8.292,8.292,0,0,0-2.988,5.47,1.56,1.56,0,0,0,1.607,1.737l38.834-.876s5.434.518,5.318-4.634c-.128-5.752,1.455-25.96-.632-33.9-.72-2.741-9.588-16.11-9.588-16.11l-18.512-10.5-1.959,5.046s-5.873,2.144-8.556,5.6a19.433,19.433,0,0,0-3.715,7.547c-1.607,5.532.68,19.628,1.309,25.354" transform="translate(-4.147 -22.392)" fill="#15d3ec"/>
          <path id="Trazado_738529" data-name="Trazado 738529" d="M145.607,206.559s-.339-.3-1.517.076-4.525,2.023-6.043,2.415-4.81,1.659-4.81,1.659a6.647,6.647,0,0,0-4.16,1.4c-2.327,1.609-8.9,5.948-8.9,5.948l2.256,6.388a13.354,13.354,0,0,1,3.259-.211,10.065,10.065,0,0,0,4.654-.19c1.786-.536,4.2-1.5,4.2-1.5s2.354.193,2.972-.661-.046-2.4-.046-2.4,2.311-2.119,1.317-3.311-2.228-2.511-2.228-2.511,6.852-3.632,8.147-4.6,1.551-1.733.891-2.5" transform="translate(-15.193 -26.098)" fill="#ffc09d"/>
          <path id="Trazado_738530" data-name="Trazado 738530" d="M115.849,219.735l-21.314,7.173-8.612,4.351,12.089,6.517,20.093-11.653Z" transform="translate(-10.862 -27.778)" fill="#ffc09d"/>
          <path id="Trazado_738531" data-name="Trazado 738531" d="M134.834,213.706a10.6,10.6,0,0,1-.262,5.492c-.033.115-.066.23-.1.337l-.178-.289c1.413.254,2.672.5,3.579.707.931.186,1.422.578,1.377.626a12.368,12.368,0,0,0-1.434-.32c-.916-.122-2.187-.32-3.6-.566l-.249-.044.071-.245c.03-.1.062-.215.093-.328a27.908,27.908,0,0,0,.7-5.371" transform="translate(-16.936 -27.016)" fill="#ff9b6c"/>
          <path id="Trazado_738532" data-name="Trazado 738532" d="M134.841,217.174c.017-.038.19-.019.439.143a1.722,1.722,0,0,1,.695.992l-.228-.158a7.6,7.6,0,0,1,1.206-.119,4.677,4.677,0,0,1,2.719.557c-.036.128-1.228-.136-2.71-.1-.418.009-.812.035-1.158.069l-.194.019-.034-.178c-.163-.826-.8-1.146-.734-1.224" transform="translate(-17.046 -27.453)" fill="#ff9b6c"/>
          <path id="Trazado_738533" data-name="Trazado 738533" d="M138.23,215.3c.073.109-.5.595-1.017,1.334s-.794,1.434-.922,1.4-.031-.85.55-1.665,1.33-1.176,1.388-1.071" transform="translate(-17.224 -27.216)" fill="#ff9b6c"/>
          <path id="Trazado_738534" data-name="Trazado 738534" d="M73.038,183.774l2.14,5.75c2.33,2.209,8.131,8.417,9.233,12.69,1.441,5.587,7.935,19.633,7.935,19.633s14.727-6.278,15.743-5.248,6.175,13.133,4.478,15.673-16.736,9.2-22.821,7.7-11.852-10.3-11.852-10.3Z" transform="translate(-9.233 -23.232)" fill="#15d3ec"/>
          <path id="Trazado_738535" data-name="Trazado 738535" d="M84.107,204.947a8.152,8.152,0,0,1,.481,1.311,12.233,12.233,0,0,1,.443,1.579,21.567,21.567,0,0,1,.436,2.13,39.55,39.55,0,0,1,.507,5.632c.035,2.128-.038,4.467-.191,6.913-.336,4.889-.682,9.3-.643,12.5-.017.8.031,1.523.048,2.158s.051,1.182.09,1.627a8.325,8.325,0,0,1,.058,1.394,8.121,8.121,0,0,1-.234-1.377c-.066-.445-.133-.992-.168-1.629s-.112-1.364-.115-2.167c-.122-3.219.176-7.658.51-12.536.153-2.439.238-4.764.226-6.877a43.5,43.5,0,0,0-.405-5.59c-.453-3.163-1.142-5.038-1.042-5.069" transform="translate(-10.631 -25.909)" fill="#263238"/>
          <path id="Trazado_738536" data-name="Trazado 738536" d="M94.861,235.651a40.149,40.149,0,0,1,.123-8.537,40.145,40.145,0,0,1-.123,8.537" transform="translate(-11.97 -28.711)" fill="#15d3ec"/>
          <path id="Trazado_738537" data-name="Trazado 738537" d="M63.4,203.8a2.21,2.21,0,0,1,.034.516c0,.387.01.876.017,1.477.018,1.344.043,3.185.073,5.433.054,4.585.294,10.93.1,17.932a10.085,10.085,0,0,0,.9,4.867,21.842,21.842,0,0,0,2.886,3.707l5.31,6.065,3.549,4.115.948,1.134a2.175,2.175,0,0,1,.307.416,2.3,2.3,0,0,1-.376-.356l-1.012-1.078-3.659-4.02-5.383-6a21.694,21.694,0,0,1-2.964-3.775,10.442,10.442,0,0,1-.957-5.077c.189-7,0-13.334.028-17.927,0-2.3.028-4.154.072-5.437.019-.642.046-1.14.069-1.478a2.214,2.214,0,0,1,.058-.514" transform="translate(-7.986 -25.764)" fill="#263238"/>
          <path id="Trazado_738538" data-name="Trazado 738538" d="M46.537,184.054c.019.052-.881.3-2.346,1.1a16.191,16.191,0,0,0-5.242,4.6,15.512,15.512,0,0,0-2.245,4.266,14.537,14.537,0,0,0-.644,2.608c-.128.912-.2,1.88-.266,2.859a49.746,49.746,0,0,0,.01,6.175c.142,2.134.439,4.35.665,6.62.48,4.54.937,8.863,1.353,12.8a65.06,65.06,0,0,0,1.539,10.355,17.951,17.951,0,0,0,3.016,6.308,14.313,14.313,0,0,0,1.268,1.435,4.35,4.35,0,0,1,.473.478c-.005.006-.053-.026-.144-.094s-.225-.169-.39-.316a11.692,11.692,0,0,1-1.345-1.392,17.457,17.457,0,0,1-3.187-6.331,62.389,62.389,0,0,1-1.647-10.4c-.427-3.938-.9-8.26-1.389-12.8-.226-2.272-.518-4.478-.657-6.641a49.14,49.14,0,0,1,.016-6.23c.071-.993.15-1.951.288-2.893a14.832,14.832,0,0,1,.683-2.672,15.67,15.67,0,0,1,2.344-4.334,15.836,15.836,0,0,1,5.417-4.564,11.813,11.813,0,0,1,1.781-.754,3.727,3.727,0,0,1,.647-.187" transform="translate(-4.459 -23.267)" fill="#263238"/>
          <path id="Trazado_738539" data-name="Trazado 738539" d="M70.426,189.6a4.631,4.631,0,0,1-.9-.536l-2.368-1.609.252-.126c-.011,1.209-.024,2.626-.039,4.184l0,.331-.3-.15-4.905-2.466c-3.345-1.7-6.361-3.255-8.535-4.4l-2.562-1.38a4.908,4.908,0,0,1-.912-.562,4.832,4.832,0,0,1,.992.4l2.628,1.252c2.21,1.075,5.249,2.588,8.594,4.285l4.889,2.5-.3.181c.051-1.557.1-2.973.136-4.181l.01-.309.242.183,2.284,1.725a4.667,4.667,0,0,1,.8.679" transform="translate(-6.34 -23.12)" fill="#263238"/>
          <path id="Trazado_738540" data-name="Trazado 738540" d="M77.5,411.9l-7.181,15.035S84.1,439.573,83.062,442.485l-31.4-13.423,10.17-23.9Z" transform="translate(-6.531 -51.219)" fill="#263238"/>
          <path id="Trazado_738541" data-name="Trazado 738541" d="M62.321,423.863a1.321,1.321,0,0,0-1.483,1,1.339,1.339,0,0,0,1.078,1.459,1.391,1.391,0,0,0,1.565-1.071,1.408,1.408,0,0,0-1.293-1.4" transform="translate(-7.689 -53.582)" fill="#e0e0e0"/>
          <path id="Trazado_738542" data-name="Trazado 738542" d="M51.664,432.178l1.125-2.367,29.682,13.755s1.15,1.172.59,2.035Z" transform="translate(-6.531 -54.336)" fill="#455a64"/>
          <path id="Trazado_738543" data-name="Trazado 738543" d="M73.156,430.085c-.068.142-.864-.12-1.819.024-.961.12-1.62.581-1.736.463-.13-.088.473-.857,1.634-1.011s2.011.405,1.921.524" transform="translate(-8.797 -54.3)" fill="#fff"/>
          <path id="Trazado_738544" data-name="Trazado 738544" d="M76.374,433.215c-.025.156-.8.118-1.581.508-.8.367-1.216.974-1.366.9-.154-.038.107-.932,1.094-1.4s1.911-.15,1.854-.011" transform="translate(-9.277 -54.736)" fill="#fff"/>
          <path id="Trazado_738545" data-name="Trazado 738545" d="M77.1,438.134c-.153-.029-.053-.844.683-1.469s1.59-.635,1.6-.487c.035.156-.614.383-1.21.9s-.916,1.1-1.075,1.05" transform="translate(-9.739 -55.131)" fill="#fff"/>
        </g>
      </g>
    </g>
  </g>
</svg>
