<svg id="Grupo_1034560" data-name="Grupo 1034560" xmlns="http://www.w3.org/2000/svg" xmlns:xlink="http://www.w3.org/1999/xlink" width="394.6" height="448.436" viewBox="0 0 394.6 448.436">
  <defs>
    <clipPath id="clip-path">
      <path id="Trazado_738702" data-name="Trazado 738702" d="M331.6,0H-63V448.06l354.265.376Z" transform="translate(63)" fill="none"/>
    </clipPath>
    <clipPath id="clip-path-2">
      <rect id="Rectángulo_350972" data-name="Rectángulo 350972" width="462.23" height="448.06" fill="none"/>
    </clipPath>
    <clipPath id="clip-path-4">
      <rect id="Rectángulo_350973" data-name="Rectángulo 350973" width="244.002" height="106.533" fill="none"/>
    </clipPath>
    <clipPath id="clip-path-6">
      <rect id="Rectángulo_350976" data-name="Rectángulo 350976" width="16.254" height="4.375" fill="none"/>
    </clipPath>
    <clipPath id="clip-path-7">
      <rect id="Rectángulo_350977" data-name="Rectángulo 350977" width="16.216" height="3.89" fill="none"/>
    </clipPath>
    <clipPath id="clip-path-8">
      <rect id="Rectángulo_350978" data-name="Rectángulo 350978" width="28.374" height="8.379" fill="none"/>
    </clipPath>
    <clipPath id="clip-path-9">
      <rect id="Rectángulo_350979" data-name="Rectángulo 350979" width="4.963" height="20.94" fill="none"/>
    </clipPath>
    <clipPath id="clip-path-10">
      <rect id="Rectángulo_350980" data-name="Rectángulo 350980" width="25.023" height="3.795" fill="none"/>
    </clipPath>
  </defs>
  <g id="Enmascarar_grupo_173140" data-name="Enmascarar grupo 173140" transform="translate(0)" clip-path="url(#clip-path)">
    <g id="Grupo_1034524" data-name="Grupo 1034524" transform="translate(-49.95)">
      <g id="Grupo_1034523" data-name="Grupo 1034523" clip-path="url(#clip-path-2)">
        <path id="Trazado_738546" data-name="Trazado 738546" d="M395.975,117.429a29.07,29.07,0,0,0-7.086-3.079l-1.459-7.013-11.849-.208-1.706,6.956a29.055,29.055,0,0,0-7.19,2.828l-5.989-3.925-8.525,8.233,3.712,6.121a29.027,29.027,0,0,0-3.079,7.088l-7.013,1.459-.208,11.849,6.957,1.706a28.974,28.974,0,0,0,2.828,7.189l-3.925,5.989,8.232,8.526,6.122-3.712a29.038,29.038,0,0,0,7.087,3.078l1.459,7.013,11.849.209,1.706-6.957a29.014,29.014,0,0,0,7.189-2.829l5.989,3.926,8.526-8.233-3.713-6.122a29,29,0,0,0,3.08-7.086l7.013-1.46.208-11.848-6.957-1.706a29.091,29.091,0,0,0-2.828-7.19l3.925-5.989-8.232-8.525Zm-6.317,15.785a12.714,12.714,0,1,1-17.976-.316,12.712,12.712,0,0,1,17.976.316" transform="translate(-292.413 -2.21)" fill="#e0e0e0"/>
        <path id="Trazado_738547" data-name="Trazado 738547" d="M391.01,133.677a9.6,9.6,0,0,0-2.367-2.077,12.66,12.66,0,0,0-8.294-1.962,12.832,12.832,0,0,0-5.637,2,13.018,13.018,0,0,0-4.558,5.137,13.034,13.034,0,0,0-1.228,7.482,12.971,12.971,0,0,0,10.731,11.117,13.044,13.044,0,0,0,7.523-.965,13.013,13.013,0,0,0,5.293-4.376,12.828,12.828,0,0,0,2.2-5.564A12.662,12.662,0,0,0,393,136.116a9.591,9.591,0,0,0-1.993-2.439c-.069.058.768.834,1.747,2.58a12.68,12.68,0,0,1,1.405,8.139,12.428,12.428,0,0,1-7.257,9.4,12.42,12.42,0,0,1-7.129.874,12.32,12.32,0,0,1-10.144-10.509,12.426,12.426,0,0,1,1.124-7.092,12.418,12.418,0,0,1,9.652-6.922,12.676,12.676,0,0,1,8.085,1.69c1.71,1.04,2.456,1.9,2.517,1.836" transform="translate(-293.765 -2.673)" fill="#e0e0e0"/>
        <path id="Trazado_738548" data-name="Trazado 738548" d="M396.059,117.424a2.684,2.684,0,0,0,.395-.208c.288-.167.675-.391,1.174-.679l4.615-2.727-.144-.018,8.182,8.573-.022-.23-3.95,5.972-.071.109.063.115a28.924,28.924,0,0,1,2.782,7.142l.034.14.142.034c2.166.538,4.512,1.119,6.953,1.727l-.2-.258c-.074,3.731-.153,7.692-.236,11.849l.228-.277-7.014,1.447-.179.037-.05.175a28.889,28.889,0,0,1-3.059,7.006l-.1.162.1.164c1.148,1.9,2.414,3.994,3.7,6.128l.052-.4-8.536,8.222.422-.039-5.985-3.932-.175-.115-.183.1a28.85,28.85,0,0,1-7.1,2.79l-.208.051-.051.207c-.536,2.178-1.12,4.555-1.71,6.957l.354-.273-11.849-.213.348.288c-.46-2.215-.957-4.606-1.458-7.012l-.044-.216-.213-.061a28.792,28.792,0,0,1-6.991-3.037l-.006,0-.191-.113-.187.113-6.122,3.714.451.057-8.234-8.523.042.449,3.922-5.991.119-.181-.1-.188a28.655,28.655,0,0,1-2.8-7.1l-.052-.208-.208-.051-6.958-1.7.264.343q.1-6.067.2-11.849l-.267.323,7.011-1.468.194-.042.054-.189a28.754,28.754,0,0,1,3.034-7.013l.1-.164-.1-.162-3.722-6.116-.049.375c2.993-2.9,5.818-5.642,8.509-8.248l-.347.032c2.11,1.374,4.089,2.665,6,3.91l.133.086.138-.077a28.958,28.958,0,0,1,7.12-2.824l.141-.035.034-.141,1.682-6.962-.213.165c4.59.06,8.5.111,11.85.157l-.158-.131c.6,2.8,1.094,5.092,1.5,7l.016.072.068.018a30.075,30.075,0,0,1,5.419,2.085l1.274.666a2.937,2.937,0,0,0,.425.215,4.237,4.237,0,0,0-.395-.269c-.271-.166-.682-.415-1.25-.719a27.961,27.961,0,0,0-5.409-2.2l.082.088-1.414-7.023-.025-.127-.132,0-11.847-.26-.171,0-.042.168c-.535,2.149-1.1,4.425-1.729,6.951l.174-.174a29.283,29.283,0,0,0-7.259,2.832l.27.009-5.979-3.939-.185-.122-.162.156L352.044,121l-.174.167.125.208c1.2,1.991,2.433,4.027,3.7,6.128v-.325a29.365,29.365,0,0,0-3.123,7.16l.248-.231-7.014,1.451-.263.054,0,.269q-.107,5.778-.22,11.847l0,.278.269.067,6.956,1.71-.259-.258a29.384,29.384,0,0,0,2.859,7.278l.013-.368q-1.944,2.962-3.927,5.987l-.159.241.2.207L359.5,171.4l.2.211.249-.153,6.123-3.71h-.377l.006,0a29.5,29.5,0,0,0,7.169,3.112l-.257-.276c.5,2.407,1,4.8,1.461,7.012l.059.284.29.006c4.076.069,8.1.137,11.849.2l.285,0,.068-.278c.588-2.4,1.168-4.778,1.7-6.957l-.258.259a29.539,29.539,0,0,0,7.273-2.87l-.358-.013,5.993,3.92.227.148.195-.187,8.516-8.243.187-.18-.135-.221c-1.3-2.13-2.567-4.221-3.721-6.116v.325a29.386,29.386,0,0,0,3.1-7.167l-.228.212c2.45-.513,4.84-1.016,7.01-1.472l.224-.048,0-.229c.064-4.157.124-8.118.181-11.849l0-.207-.2-.05-6.962-1.686.175.174a29.349,29.349,0,0,0-2.874-7.236l-.008.222c1.4-2.164,2.719-4.186,3.9-6.006l.08-.124-.1-.1-8.28-8.479-.067-.068-.077.049-4.511,2.808c-.494.312-.875.555-1.16.735a3.7,3.7,0,0,0-.393.269" transform="translate(-292.497 -2.205)" fill="#e0e0e0"/>
        <path id="Trazado_738549" data-name="Trazado 738549" d="M84.855,189.368a29.071,29.071,0,0,0-7.086-3.079l-1.459-7.013-11.849-.208-1.705,6.956a29.047,29.047,0,0,0-7.191,2.828l-5.989-3.925L41.05,193.16l3.712,6.122a29,29,0,0,0-3.079,7.087l-7.012,1.459-.209,11.849,6.957,1.706a29.049,29.049,0,0,0,2.828,7.189l-3.925,5.989,8.232,8.526,6.122-3.712a29.037,29.037,0,0,0,7.087,3.078l1.459,7.014,11.849.208,1.705-6.957a29.041,29.041,0,0,0,7.19-2.828l5.989,3.925,8.526-8.232-3.712-6.122a29.055,29.055,0,0,0,3.079-7.087l7.013-1.46.208-11.848-6.957-1.706a29.094,29.094,0,0,0-2.828-7.19l3.925-5.989-8.232-8.525Zm-6.317,15.785a12.714,12.714,0,1,1-17.976-.316,12.712,12.712,0,0,1,17.976.316" transform="translate(300.669 -3.694)" fill="#f5f5f5"/>
        <path id="Trazado_738550" data-name="Trazado 738550" d="M79.89,205.616a9.606,9.606,0,0,0-2.367-2.077,12.661,12.661,0,0,0-8.294-1.961,12.818,12.818,0,0,0-5.637,2,13.011,13.011,0,0,0-4.558,5.137A13.034,13.034,0,0,0,57.8,216.2a12.971,12.971,0,0,0,10.732,11.117,13.042,13.042,0,0,0,7.522-.965,13.006,13.006,0,0,0,5.293-4.376,12.827,12.827,0,0,0,2.2-5.564,12.655,12.655,0,0,0-1.669-8.357,9.593,9.593,0,0,0-1.993-2.439c-.069.059.768.834,1.747,2.58a12.68,12.68,0,0,1,1.405,8.139,12.424,12.424,0,0,1-7.257,9.4,12.419,12.419,0,0,1-7.129.874A12.32,12.32,0,0,1,58.512,216.1a12.426,12.426,0,0,1,1.124-7.092,12.419,12.419,0,0,1,9.652-6.922,12.676,12.676,0,0,1,8.085,1.69c1.71,1.04,2.456,1.9,2.517,1.836" transform="translate(322.057 -4.157)" fill="#f5f5f5"/>
        <path id="Trazado_738551" data-name="Trazado 738551" d="M84.939,189.363a2.772,2.772,0,0,0,.395-.209l1.174-.679,4.615-2.726-.144-.019,8.182,8.573-.022-.229-3.95,5.972-.071.108.063.115a28.958,28.958,0,0,1,2.782,7.142l.034.14.142.035,6.953,1.726-.2-.257c-.074,3.73-.153,7.691-.236,11.848l.228-.276-7.015,1.446-.178.037-.05.176a28.866,28.866,0,0,1-3.059,7.005l-.1.163.1.164,3.7,6.127.052-.4c-2.681,2.583-5.573,5.367-8.536,8.221l.422-.039L84.241,239.6l-.175-.116-.183.1a28.846,28.846,0,0,1-7.1,2.789l-.208.051-.051.208c-.536,2.179-1.12,4.555-1.71,6.956l.354-.272L63.314,249.1l.348.289c-.46-2.215-.958-4.606-1.458-7.013l-.044-.216-.213-.06a28.789,28.789,0,0,1-6.991-3.037l-.006,0-.191-.113-.187.113-6.122,3.713.451.058-8.234-8.523.042.449,3.922-5.991.119-.181-.1-.189a28.7,28.7,0,0,1-2.8-7.1l-.052-.208-.208-.051-6.958-1.7.264.344q.1-6.067.2-11.849l-.267.322,7.011-1.468.194-.04.053-.19a28.792,28.792,0,0,1,3.035-7.013l.1-.164-.1-.163L41.394,193l-.049.375,8.509-8.249-.347.033,6,3.91.134.087.137-.077a28.92,28.92,0,0,1,7.12-2.824l.141-.035.033-.14c.612-2.53,1.163-4.81,1.683-6.962l-.213.165c4.59.06,8.5.111,11.85.156l-.158-.13c.6,2.8,1.094,5.092,1.5,7l.016.07.068.019a30.166,30.166,0,0,1,5.419,2.084l1.274.666a2.892,2.892,0,0,0,.425.216,3.811,3.811,0,0,0-.395-.269c-.271-.167-.682-.416-1.25-.72a28.09,28.09,0,0,0-5.409-2.2l.082.088-1.414-7.022-.025-.127-.132,0-11.847-.26-.171,0-.042.167c-.535,2.15-1.1,4.426-1.729,6.952l.174-.175a29.282,29.282,0,0,0-7.259,2.832l.27.01-5.979-3.94-.185-.122-.162.156-8.542,8.214-.174.167.125.208,3.7,6.128v-.326a29.372,29.372,0,0,0-3.123,7.161l.248-.231L34.687,207.5l-.262.054,0,.268q-.107,5.779-.22,11.848l0,.277.269.067,6.956,1.711-.259-.259a29.377,29.377,0,0,0,2.859,7.279l.013-.369-3.927,5.987-.158.241.2.208,8.229,8.528.2.21.249-.152,6.123-3.711h-.377l.006,0a29.493,29.493,0,0,0,7.169,3.113l-.257-.276c.5,2.407,1,4.8,1.461,7.013l.059.283.29,0,11.849.2.285,0,.068-.277c.588-2.4,1.168-4.778,1.7-6.958l-.258.259a29.5,29.5,0,0,0,7.273-2.869l-.358-.013,5.993,3.919.227.149.195-.188,8.516-8.242.187-.18-.135-.222-3.721-6.116v.325a29.416,29.416,0,0,0,3.1-7.166l-.228.212,7.01-1.473.224-.047,0-.229c.064-4.157.124-8.118.181-11.849l0-.208-.2-.049-6.962-1.686.175.175a29.333,29.333,0,0,0-2.873-7.236l-.008.221c1.4-2.163,2.719-4.185,3.9-6l.08-.125-.1-.1-8.281-8.478-.066-.068-.077.049-4.511,2.807-1.16.736a3.534,3.534,0,0,0-.393.269" transform="translate(323.324 -3.689)" fill="#f5f5f5"/>
        <path id="Trazado_738552" data-name="Trazado 738552" d="M410.295,51.375a21.073,21.073,0,0,0-5.135-2.231L404.1,44.062l-8.586-.151-1.236,5.041A21.052,21.052,0,0,0,389.07,51l-4.34-2.844-6.178,5.965,2.689,4.436a21.022,21.022,0,0,0-2.231,5.136l-5.082,1.058-.151,8.586,5.042,1.237a20.986,20.986,0,0,0,2.05,5.209l-2.845,4.34L383.99,90.3l4.437-2.69a21.036,21.036,0,0,0,5.135,2.231l1.058,5.083,8.586.15,1.237-5.042a21.046,21.046,0,0,0,5.209-2.05l4.34,2.845,6.179-5.965-2.69-4.437a20.982,20.982,0,0,0,2.231-5.135l5.083-1.058.15-8.586L419.9,64.412a21.056,21.056,0,0,0-2.049-5.209l2.844-4.34-5.964-6.179Zm-4.578,11.439a9.213,9.213,0,1,1-13.027-.229,9.212,9.212,0,0,1,13.027.229" transform="translate(-323.828 -0.906)" fill="#f5f5f5"/>
        <path id="Trazado_738553" data-name="Trazado 738553" d="M406.7,63.149a6.973,6.973,0,0,0-1.715-1.505,9.171,9.171,0,0,0-6.01-1.421,9.281,9.281,0,0,0-4.085,1.451,9.425,9.425,0,0,0-3.3,3.722,9.442,9.442,0,0,0-.89,5.422,9.4,9.4,0,0,0,7.777,8.056,9.439,9.439,0,0,0,5.45-.7A9.431,9.431,0,0,0,407.756,75a9.291,9.291,0,0,0,1.593-4.032,9.176,9.176,0,0,0-1.209-6.056,6.961,6.961,0,0,0-1.445-1.767c-.05.042.556.6,1.266,1.87a9.182,9.182,0,0,1,1.018,5.9,9,9,0,0,1-5.259,6.814,9,9,0,0,1-5.165.634,8.926,8.926,0,0,1-7.35-7.615,9,9,0,0,1,.814-5.14,9,9,0,0,1,6.995-5.015,9.181,9.181,0,0,1,5.859,1.224c1.239.754,1.78,1.38,1.824,1.331" transform="translate(-329.76 -1.241)" fill="#f5f5f5"/>
        <path id="Trazado_738554" data-name="Trazado 738554" d="M410.355,51.371a1.891,1.891,0,0,0,.286-.151l.851-.492,3.344-1.975-.1-.014,5.929,6.213-.016-.166-2.863,4.328-.051.078.045.082a21.008,21.008,0,0,1,2.017,5.175l.025.1.1.025,5.038,1.251-.143-.186c-.054,2.7-.111,5.574-.17,8.586l.165-.2-5.084,1.048-.129.026-.036.127a20.952,20.952,0,0,1-2.216,5.077l-.072.118.072.119,2.683,4.44.037-.292-6.185,5.958.306-.028-4.338-2.849-.126-.083-.133.073a20.942,20.942,0,0,1-5.149,2.021l-.15.036-.037.151c-.388,1.579-.812,3.3-1.239,5.041l.256-.2-8.586-.155.252.21c-.333-1.606-.693-3.338-1.057-5.083l-.032-.157-.153-.043a20.822,20.822,0,0,1-5.066-2.2l0,0-.138-.082-.135.082-4.437,2.69.326.042-5.966-6.177.031.325q1.435-2.192,2.842-4.341l.086-.132-.076-.136a20.775,20.775,0,0,1-2.028-5.145l-.037-.151-.15-.036L373.9,73.091l.192.249q.072-4.4.142-8.586l-.193.233,5.08-1.065.141-.029.038-.137a20.845,20.845,0,0,1,2.2-5.082l.072-.118-.072-.119c-.925-1.519-1.822-2.992-2.7-4.432l-.036.272,6.166-5.978-.251.024,4.346,2.833.1.063.1-.056a20.943,20.943,0,0,1,5.159-2.047l.1-.025.024-.1c.443-1.833.842-3.485,1.219-5.045l-.155.118,8.587.113-.114-.094c.436,2.027.792,3.69,1.09,5.075l.011.051.049.014a21.829,21.829,0,0,1,3.926,1.51l.924.483a2.032,2.032,0,0,0,.309.157,2.574,2.574,0,0,0-.286-.195c-.2-.12-.495-.3-.906-.522a20.371,20.371,0,0,0-3.919-1.6l.06.065c-.28-1.389-.615-3.057-1.024-5.089l-.019-.092-.1,0-8.585-.188-.124,0-.03.122c-.388,1.557-.8,3.206-1.253,5.037l.126-.127a21.2,21.2,0,0,0-5.26,2.053l.2.007L384.9,47.985l-.134-.088-.117.113-6.19,5.952-.126.121.091.151,2.682,4.44v-.236a21.254,21.254,0,0,0-2.262,5.189l.178-.167-5.083,1.052-.19.039,0,.195q-.078,4.187-.16,8.586l0,.2.2.048,5.04,1.24-.187-.187a21.341,21.341,0,0,0,2.071,5.274l.01-.267-2.846,4.338-.115.175.145.15,5.963,6.181.146.151.18-.11,4.437-2.688h-.273l0,0a21.332,21.332,0,0,0,5.2,2.256l-.186-.2c.363,1.744.724,3.477,1.059,5.082l.042.206.21,0,8.587.147.207,0,.049-.2c.426-1.74.846-3.463,1.233-5.043l-.187.187a21.349,21.349,0,0,0,5.27-2.078l-.26-.01,4.342,2.841.166.108.14-.137,6.171-5.972.136-.131-.1-.161c-.939-1.543-1.861-3.058-2.7-4.432v.235a21.322,21.322,0,0,0,2.247-5.193l-.166.154,5.08-1.068.163-.035,0-.166c.046-3.013.089-5.882.13-8.586l0-.151-.146-.035L420,64.24l.126.127a21.243,21.243,0,0,0-2.082-5.244l-.006.161,2.826-4.351.059-.09-.074-.076-6-6.144-.047-.049-.057.035-3.268,2.033-.841.534a2.742,2.742,0,0,0-.284.195" transform="translate(-328.841 -0.902)" fill="#f5f5f5"/>
        <path id="Trazado_738555" data-name="Trazado 738555" d="M136.079,26.674a21.073,21.073,0,0,0-5.135-2.231l-1.058-5.082L121.3,19.21l-1.236,5.041a21.052,21.052,0,0,0-5.21,2.05l-4.34-2.844-6.178,5.965,2.689,4.436a21.021,21.021,0,0,0-2.231,5.136l-5.082,1.058-.151,8.586,5.042,1.237a21.023,21.023,0,0,0,2.05,5.209l-2.844,4.34,5.964,6.179,4.437-2.69a21.036,21.036,0,0,0,5.135,2.231l1.058,5.083,8.587.15,1.235-5.042a21.037,21.037,0,0,0,5.21-2.05l4.34,2.845,6.179-5.965-2.69-4.437a20.982,20.982,0,0,0,2.231-5.135l5.082-1.058.151-8.586-5.042-1.237a21.042,21.042,0,0,0-2.049-5.209l2.844-4.34-5.964-6.178ZM131.5,38.113a9.213,9.213,0,1,1-13.027-.229,9.212,9.212,0,0,1,13.027.229" transform="translate(213.994 -0.396)" fill="#e0e0e0"/>
        <path id="Trazado_738556" data-name="Trazado 738556" d="M132.481,38.448a6.974,6.974,0,0,0-1.715-1.505,9.171,9.171,0,0,0-6.01-1.421,9.281,9.281,0,0,0-4.085,1.451,9.432,9.432,0,0,0-3.3,3.722,9.445,9.445,0,0,0-.89,5.422,9.4,9.4,0,0,0,7.777,8.056,9.438,9.438,0,0,0,5.45-.7A9.425,9.425,0,0,0,133.54,50.3a9.271,9.271,0,0,0,1.593-4.031,9.176,9.176,0,0,0-1.209-6.056,6.96,6.96,0,0,0-1.445-1.767c-.05.042.556.6,1.266,1.87a9.187,9.187,0,0,1,1.019,5.9,9,9,0,0,1-5.259,6.814,9,9,0,0,1-5.166.634,8.925,8.925,0,0,1-7.35-7.615,9,9,0,0,1,.814-5.14,9,9,0,0,1,6.995-5.015,9.181,9.181,0,0,1,5.859,1.224c1.239.754,1.78,1.38,1.824,1.331" transform="translate(213.015 -0.732)" fill="#e0e0e0"/>
        <path id="Trazado_738557" data-name="Trazado 738557" d="M136.139,26.67a1.672,1.672,0,0,0,.286-.151c.21-.119.489-.282.851-.491.776-.459,1.893-1.118,3.344-1.975l-.1-.014,5.929,6.212-.016-.166-2.863,4.327-.051.079.045.081a21.012,21.012,0,0,1,2.017,5.175l.025.1.1.025c1.571.392,3.27.813,5.038,1.251l-.143-.186c-.054,2.7-.111,5.575-.17,8.586l.166-.2-5.084,1.048-.129.027-.036.127a20.941,20.941,0,0,1-2.216,5.076l-.071.118.071.119,2.684,4.44.037-.292-6.185,5.958.306-.027-4.338-2.849-.126-.084-.133.073a20.85,20.85,0,0,1-5.149,2.021l-.15.037-.037.15c-.388,1.579-.812,3.3-1.239,5.042l.256-.2-8.586-.155.252.21c-.333-1.606-.693-3.338-1.056-5.082l-.032-.157-.154-.043a20.862,20.862,0,0,1-5.066-2.2l0,0-.138-.083-.135.083L109.7,65.372l.327.043-5.966-6.176.03.324,2.842-4.342.086-.132-.076-.135a20.856,20.856,0,0,1-2.028-5.146l-.037-.151-.15-.035Q102.168,49,99.682,48.39l.192.249q.072-4.4.142-8.586l-.193.233q2.586-.539,5.08-1.064l.141-.03.038-.136a20.809,20.809,0,0,1,2.2-5.082l.071-.119-.071-.118c-.926-1.519-1.822-2.992-2.7-4.432l-.035.271c2.168-2.1,4.216-4.087,6.165-5.978l-.251.024,4.346,2.833.1.063.1-.055a20.943,20.943,0,0,1,5.159-2.047l.1-.025.025-.1c.443-1.834.842-3.486,1.219-5.045l-.155.119,8.587.112-.114-.094c.436,2.027.792,3.69,1.09,5.075l.011.051.049.015a21.714,21.714,0,0,1,3.927,1.511c.4.207.7.364.924.482a1.919,1.919,0,0,0,.308.156,2.507,2.507,0,0,0-.286-.194c-.2-.121-.494-.3-.9-.522a20.4,20.4,0,0,0-3.92-1.6l.06.065c-.28-1.389-.615-3.057-1.024-5.088l-.019-.093-.1,0-8.585-.187-.124,0-.03.122c-.388,1.558-.8,3.207-1.253,5.037l.126-.127a21.238,21.238,0,0,0-5.26,2.053l.2.007c-1.379-.908-2.809-1.849-4.333-2.854l-.134-.088-.117.112-6.191,5.952-.126.121.091.152c.871,1.441,1.763,2.917,2.682,4.44v-.236a21.265,21.265,0,0,0-2.262,5.188l.179-.167L99.723,39.81l-.19.04,0,.195q-.078,4.185-.16,8.586l0,.2.2.049,5.04,1.239-.187-.187a21.31,21.31,0,0,0,2.071,5.274l.01-.267-2.846,4.339-.115.174.145.151q2.94,3.047,5.963,6.181l.146.151.18-.11q2.2-1.334,4.437-2.688h-.268a21.352,21.352,0,0,0,5.2,2.257l-.186-.2c.363,1.745.724,3.477,1.059,5.082l.043.206.209,0c2.955.051,5.868.1,8.587.146l.207,0,.049-.2c.426-1.74.847-3.464,1.233-5.044l-.187.188a21.348,21.348,0,0,0,5.27-2.079l-.26-.01,4.343,2.841.165.109.141-.138,6.17-5.972.136-.131-.1-.161c-.939-1.542-1.861-3.057-2.7-4.432v.235a21.325,21.325,0,0,0,2.247-5.193l-.166.154,5.08-1.067.163-.036,0-.166c.046-3.013.089-5.881.131-8.586l0-.151-.146-.035c-1.771-.429-3.473-.84-5.045-1.222l.126.128a21.237,21.237,0,0,0-2.082-5.245l-.006.161c1.019-1.568,1.97-3.033,2.827-4.35l.058-.091-.074-.076-6-6.144-.047-.049-.057.036q-2.127,1.324-3.268,2.032l-.84.535a2.823,2.823,0,0,0-.285.194" transform="translate(213.934 -0.393)" fill="#e0e0e0"/>
        <path id="Trazado_738558" data-name="Trazado 738558" d="M351.97,53.332l0-.02.929-3.8a15.916,15.916,0,0,0,3.916-1.541l3.283,2.153.015-.014,4.681-4.521-.01-.017-2.024-3.339a15.983,15.983,0,0,0,1.677-3.86l3.843-.8v-.02l.116-6.507-.02,0-3.8-.93a16.024,16.024,0,0,0-1.54-3.915L365.2,22.92l-.015-.015-4.52-4.681-.016.01-3.34,2.025a15.96,15.96,0,0,0-3.859-1.678l-.8-3.844h-.021l-6.506-.114,0,.02-.929,3.794a15.912,15.912,0,0,0-3.916,1.54l-3.282-2.151-.015.013-4.681,4.522.01.017,2.024,3.339a15.878,15.878,0,0,0-1.677,3.859l-3.844.8v.02l-.115,6.508.02,0,3.8.929a15.888,15.888,0,0,0,1.54,3.915l-2.152,3.284.014.014,4.521,4.682.016-.01,3.34-2.025a15.951,15.951,0,0,0,3.86,1.677l.8,3.844h.021Zm4.852-5.412-.012.007a15.9,15.9,0,0,1-3.931,1.546l-.015,0,0,.015-.928,3.79-6.448-.113-.8-3.836-.015,0a15.9,15.9,0,0,1-3.874-1.683l-.013-.008-.012.008-3.337,2.021-4.479-4.639,2.147-3.276-.008-.013a15.855,15.855,0,0,1-1.545-3.929l0-.015-.015,0-3.79-.928.114-6.449,3.834-.8,0-.014a15.861,15.861,0,0,1,1.684-3.874l.008-.013-.008-.013-2.023-3.336L338,17.887l3.275,2.147.012-.007a15.865,15.865,0,0,1,3.931-1.546l.014,0,0-.014.929-3.79,6.448.113.8,3.835.015,0a15.927,15.927,0,0,1,3.873,1.684l.013.008.012-.008,3.336-2.022,4.48,4.64L362.989,26.2l.008.013a15.978,15.978,0,0,1,1.545,3.93l0,.014.015,0,3.79.929-.114,6.448-3.834.8,0,.015a15.9,15.9,0,0,1-1.684,3.874l-.008.013.008.013,2.022,3.335-4.64,4.48Zm-7.98-7.173a6.982,6.982,0,1,0-5.026-2.13,6.967,6.967,0,0,0,5.026,2.13m0-13.915a6.933,6.933,0,1,1-4.817,1.943,6.92,6.92,0,0,1,4.817-1.943" transform="translate(-229.061 -0.302)" fill="#e0e0e0"/>
        <path id="Trazado_738559" data-name="Trazado 738559" d="M354.59,29.184a5.264,5.264,0,0,0-1.3-1.137,6.929,6.929,0,0,0-4.541-1.074,7.038,7.038,0,0,0-3.087,1.1,7.131,7.131,0,0,0-2.5,2.811,7.125,7.125,0,0,0-.672,4.1,7.1,7.1,0,0,0,5.875,6.087,7.117,7.117,0,0,0,4.118-.528,7.135,7.135,0,0,0,2.9-2.395,7.036,7.036,0,0,0,1.2-3.048,6.93,6.93,0,0,0-.914-4.576,5.252,5.252,0,0,0-1.091-1.335c-.037.032.42.456.957,1.412a6.942,6.942,0,0,1,.769,4.456,6.8,6.8,0,0,1-3.973,5.149,6.811,6.811,0,0,1-3.9.479,6.747,6.747,0,0,1-5.554-5.754,6.8,6.8,0,0,1,.615-3.883,6.8,6.8,0,0,1,5.285-3.79,6.941,6.941,0,0,1,4.427.926c.936.57,1.345,1.044,1.378,1.006" transform="translate(-229.802 -0.556)" fill="#ebebeb"/>
        <path id="Trazado_738560" data-name="Trazado 738560" d="M357.355,20.286a1.426,1.426,0,0,0,.216-.114l.642-.372,2.527-1.493-.079-.01,4.481,4.694-.013-.125-2.163,3.27-.038.059.034.063a15.874,15.874,0,0,1,1.523,3.91l.02.076.077.02,3.806.945-.108-.141c-.041,2.043-.084,4.211-.129,6.487l.125-.151-3.841.791-.1.021-.027.1a15.814,15.814,0,0,1-1.675,3.836l-.054.088.054.09,2.028,3.354.028-.219c-1.468,1.413-3.052,2.938-4.674,4.5l.231-.022-3.277-2.153-.1-.064-.1.056a15.776,15.776,0,0,1-3.89,1.528l-.113.027-.028.114c-.293,1.193-.613,2.494-.936,3.809l.194-.149-6.488-.117.191.158c-.253-1.213-.524-2.522-.8-3.84l-.024-.119-.117-.032a15.726,15.726,0,0,1-3.827-1.663l0,0-.1-.062-.1.062-3.351,2.032.247.032-4.508-4.667.023.245q1.086-1.656,2.148-3.28l.066-.1-.058-.1a15.719,15.719,0,0,1-1.533-3.887l-.028-.115-.114-.027-3.809-.93.144.188q.056-3.323.108-6.488l-.146.177,3.838-.8.107-.023.029-.1a15.763,15.763,0,0,1,1.661-3.839l.055-.09-.055-.089c-.7-1.149-1.376-2.261-2.038-3.348l-.026.206c1.638-1.59,3.186-3.089,4.659-4.517l-.19.018,3.284,2.141.073.048.075-.042a15.8,15.8,0,0,1,3.9-1.546l.077-.02.019-.076c.335-1.386.637-2.634.921-3.813l-.117.09,6.488.085-.086-.071c.329,1.532.6,2.788.824,3.835l.009.038.037.011a16.468,16.468,0,0,1,2.966,1.141l.7.364a1.5,1.5,0,0,0,.233.119,2.091,2.091,0,0,0-.216-.147c-.148-.091-.373-.228-.684-.395a15.391,15.391,0,0,0-2.962-1.206l.045.048c-.212-1.049-.465-2.309-.775-3.845l-.014-.07-.073,0-6.486-.142-.094,0-.023.092-.946,3.806.1-.1a16.063,16.063,0,0,0-3.974,1.55l.148.006-3.274-2.158-.1-.067-.088.085-4.676,4.5-.1.092.069.114,2.026,3.355v-.179a16.04,16.04,0,0,0-1.71,3.92l.135-.126-3.841.794-.143.03,0,.147-.12,6.487,0,.152.148.036,3.809.936-.142-.141a16.111,16.111,0,0,0,1.565,3.985l.008-.2-2.151,3.278-.086.132.109.114,4.506,4.67.111.115.136-.083,3.351-2.031h-.206l0,0a16.143,16.143,0,0,0,3.925,1.7l-.14-.151c.274,1.318.547,2.627.8,3.839l.032.156.159,0,6.487.111.157,0,.037-.152c.321-1.315.64-2.617.931-3.81l-.142.141a16.159,16.159,0,0,0,3.983-1.57l-.2-.008,3.281,2.147.125.081.106-.1,4.663-4.512.1-.1-.074-.121-2.037-3.348v.178a16.117,16.117,0,0,0,1.7-3.924l-.124.117,3.837-.807.123-.026,0-.124c.035-2.277.068-4.445.1-6.488l0-.114-.11-.026-3.813-.924.1.1a16.023,16.023,0,0,0-1.573-3.962l0,.121,2.136-3.288.044-.069-.056-.058-4.534-4.641-.036-.037-.043.026L358.2,19.735l-.635.4a1.876,1.876,0,0,0-.215.147" transform="translate(-229.109 -0.3)" fill="#ebebeb"/>
        <path id="Trazado_738561" data-name="Trazado 738561" d="M43.511,172.849l0-.019.929-3.8a15.931,15.931,0,0,0,3.916-1.541l3.283,2.152.015-.014,4.681-4.521-.01-.017L54.3,161.756a15.938,15.938,0,0,0,1.678-3.86l3.844-.8v-.021l.115-6.506-.019,0-3.8-.93a15.946,15.946,0,0,0-1.541-3.916l2.152-3.283-.014-.014-4.52-4.682-.017.01-3.341,2.025a15.911,15.911,0,0,0-3.859-1.677l-.8-3.845h-.02l-6.507-.114,0,.019-.93,3.8a15.89,15.89,0,0,0-3.916,1.54l-3.283-2.152-.014.014-4.682,4.521.01.017,2.025,3.339a15.875,15.875,0,0,0-1.677,3.86l-3.844.8v.02l-.115,6.507.02,0,3.8.929a15.905,15.905,0,0,0,1.54,3.916l-2.152,3.283.014.014,4.521,4.682.017-.01,3.339-2.024a15.927,15.927,0,0,0,3.86,1.676l.8,3.845H37Zm4.852-5.412-.013.007a15.9,15.9,0,0,1-3.93,1.547l-.015,0,0,.015-.928,3.79-6.448-.113-.8-3.836-.015,0a15.9,15.9,0,0,1-3.874-1.684l-.013-.008-.013.008-3.336,2.022-4.479-4.64,2.147-3.275-.008-.013a15.855,15.855,0,0,1-1.545-3.93l0-.015-.015,0-3.79-.928.114-6.448,3.835-.8,0-.015a15.886,15.886,0,0,1,1.683-3.874l.008-.013-.008-.013-2.022-3.335,4.64-4.48,3.275,2.147.013-.008A15.84,15.84,0,0,1,36.753,138l.015,0,0-.015.929-3.79,6.448.113.8,3.836.015,0a15.91,15.91,0,0,1,3.874,1.684l.012.008.014-.008L52.2,137.8l4.479,4.64-2.146,3.275.007.013a15.9,15.9,0,0,1,1.546,3.93l0,.015.014,0,3.79.929-.113,6.447-3.835.8,0,.015a15.875,15.875,0,0,1-1.685,3.874l-.007.013.007.013,2.022,3.335-4.639,4.481Zm-7.98-7.173a6.978,6.978,0,1,0-5.026-2.129,6.961,6.961,0,0,0,5.026,2.129m0-13.918H40.5a6.948,6.948,0,1,1-.125,0" transform="translate(381.495 -2.767)" fill="#e0e0e0"/>
        <path id="Trazado_738562" data-name="Trazado 738562" d="M46.129,148.7a5.263,5.263,0,0,0-1.3-1.137,6.929,6.929,0,0,0-4.541-1.074,7.012,7.012,0,0,0-3.086,1.1,7.122,7.122,0,0,0-2.5,2.812,7.121,7.121,0,0,0-.672,4.1,7.1,7.1,0,0,0,5.875,6.087,7.139,7.139,0,0,0,4.118-.528,7.132,7.132,0,0,0,2.9-2.4,7.02,7.02,0,0,0,1.2-3.046,6.929,6.929,0,0,0-.914-4.576,5.251,5.251,0,0,0-1.091-1.335c-.038.032.42.456.957,1.412a6.943,6.943,0,0,1,.769,4.456,6.8,6.8,0,0,1-3.973,5.149,6.8,6.8,0,0,1-3.9.478,6.744,6.744,0,0,1-5.554-5.753,6.8,6.8,0,0,1,.615-3.883,6.8,6.8,0,0,1,5.285-3.79,6.943,6.943,0,0,1,4.427.926c.936.57,1.345,1.042,1.378,1.006" transform="translate(380.755 -3.021)" fill="#ebebeb"/>
        <path id="Trazado_738563" data-name="Trazado 738563" d="M48.895,139.8a1.392,1.392,0,0,0,.216-.115l.642-.371,2.527-1.493-.078-.01,4.48,4.694-.013-.126-2.161,3.271-.039.059.034.062a15.882,15.882,0,0,1,1.524,3.911l.019.076.077.02,3.807.945-.109-.141c-.04,2.043-.083,4.211-.129,6.487l.125-.151-3.841.791-.1.021-.027.1a15.829,15.829,0,0,1-1.674,3.836l-.055.088.055.09c.628,1.04,1.321,2.187,2.027,3.354l.028-.219c-1.468,1.413-3.052,2.938-4.674,4.5l.231-.023-3.277-2.152-.1-.064-.1.056a15.734,15.734,0,0,1-3.89,1.527l-.113.028-.028.114c-.293,1.193-.613,2.494-.936,3.809l.194-.149-6.488-.117.191.158c-.253-1.213-.524-2.522-.8-3.84l-.024-.119-.117-.032a15.781,15.781,0,0,1-3.827-1.663l0,0-.1-.062-.1.062-3.352,2.032.247.032-4.508-4.667.023.245q1.084-1.656,2.147-3.28l.066-.1-.058-.1a15.717,15.717,0,0,1-1.533-3.887l-.027-.115-.114-.027-3.81-.93.144.187q.056-3.322.108-6.487l-.146.177,3.838-.8.107-.022.029-.1a15.764,15.764,0,0,1,1.661-3.839l.055-.09-.055-.089-2.037-3.349-.027.206,4.659-4.517-.19.018,3.284,2.141.073.048.075-.042a15.809,15.809,0,0,1,3.9-1.546l.077-.02.019-.076.922-3.813-.118.09,6.488.085-.086-.071c.329,1.532.6,2.788.824,3.835l.009.038.037.011a16.471,16.471,0,0,1,2.967,1.141l.7.364a1.5,1.5,0,0,0,.233.118,2.1,2.1,0,0,0-.216-.147c-.148-.091-.373-.228-.684-.395a15.389,15.389,0,0,0-2.962-1.206l.045.048c-.212-1.049-.465-2.309-.775-3.845l-.014-.07-.072,0-6.486-.142-.094,0-.024.092c-.292,1.177-.6,2.423-.946,3.806l.1-.1a16.026,16.026,0,0,0-3.974,1.55l.148.006-3.274-2.158-.1-.067-.088.085-4.676,4.5-.1.092.07.114q.986,1.634,2.026,3.354v-.178a16.077,16.077,0,0,0-1.71,3.92l.135-.126-3.84.794-.144.03,0,.147-.12,6.487,0,.152.148.036,3.809.936-.142-.141a16.151,16.151,0,0,0,1.565,3.985l.008-.2-2.151,3.278-.086.132.11.114,4.505,4.67.111.115.136-.083,3.352-2.032h-.2a16.11,16.11,0,0,0,3.925,1.705l-.14-.151c.274,1.318.547,2.627.8,3.839l.032.156.159,0,6.488.111.156,0,.037-.152c.321-1.315.64-2.617.931-3.81l-.141.141a16.167,16.167,0,0,0,3.982-1.57l-.2-.008,3.282,2.147.124.081.106-.1,4.663-4.513.1-.1-.074-.121c-.709-1.166-1.405-2.311-2.037-3.348v.177a16.094,16.094,0,0,0,1.7-3.923l-.124.117,3.838-.807L60,157.2l0-.124c.035-2.277.069-4.445.1-6.488l0-.114-.11-.026-3.812-.924.095.1a16.023,16.023,0,0,0-1.573-3.962l0,.121c.769-1.185,1.488-2.292,2.135-3.288l.045-.069-.057-.058-4.534-4.641-.036-.037-.043.026-2.469,1.537-.635.4a1.873,1.873,0,0,0-.215.147" transform="translate(381.448 -2.765)" fill="#ebebeb"/>
        <path id="Trazado_738564" data-name="Trazado 738564" d="M312.969,365.684a31.393,31.393,0,0,1,13.429-4.623c2.194-.225,4.592-.161,6.352,1.168a1.308,1.308,0,0,1,.654,1.16,1.421,1.421,0,0,1-.621.794,19.2,19.2,0,0,1-19.815,1.5" transform="translate(-177.699 -7.446)" fill="#e0e0e0"/>
        <path id="Trazado_738565" data-name="Trazado 738565" d="M318.921,364.952a65.545,65.545,0,0,0,8.673-7.631,21.94,21.94,0,0,0,5.438-10.057,4.056,4.056,0,0,0-.43-3.365c-6.913,5.4-12.345,12.383-13.682,21.053" transform="translate(-183.307 -7.094)" fill="#e0e0e0"/>
        <path id="Trazado_738566" data-name="Trazado 738566" d="M340.254,365.292a31.357,31.357,0,0,0-.161-11.388,15.4,15.4,0,0,0-6.066-9.4c-1.195,2.793-.681,6.01.161,8.928A43.36,43.36,0,0,0,340.2,366.1" transform="translate(-204.913 -7.107)" fill="#e0e0e0"/>
        <path id="Trazado_738567" data-name="Trazado 738567" d="M323.407,378.13c4.114.5,7.7,2.669,10.77,5.451a20.38,20.38,0,0,1,6.16,10.574c-4.036-.249-7.46-3.095-9.943-6.286s-4.2-6.693-6.932-9.677" transform="translate(-194.843 -7.8)" fill="#e0e0e0"/>
        <path id="Trazado_738568" data-name="Trazado 738568" d="M344.636,379.584a26.56,26.56,0,0,0-3.067-25.126c-2.344,8.338-1.483,17.756,3.067,25.126" transform="translate(-217.544 -7.312)" fill="#e0e0e0"/>
        <path id="Trazado_738569" data-name="Trazado 738569" d="M332.384,391a19.208,19.208,0,0,1,18.365,10.571c.228.455.429,1.033.124,1.441a1.369,1.369,0,0,1-1.218.358c-3.62-.235-6.827-2.413-9.474-4.892s-4.953-5.344-7.877-7.489" transform="translate(-214.248 -8.065)" fill="#e0e0e0"/>
        <path id="Trazado_738570" data-name="Trazado 738570" d="M355.21,389.872a34.2,34.2,0,0,0,.342-19.107c-.674-2.46-1.8-5.049-4.078-6.2a.8.8,0,0,0-.624-.11.826.826,0,0,0-.394.457,11.5,11.5,0,0,0-.962,5.482,34.417,34.417,0,0,0,.859,5.549c.716,3.392,1.1,7.036,2.958,9.961a20.032,20.032,0,0,1,1.182,2.188c.353.743.355,1,.678,1.6" transform="translate(-236.788 -7.518)" fill="#e0e0e0"/>
        <path id="Trazado_738571" data-name="Trazado 738571" d="M381.072,393.572c1.756-6.68-.108-14.78-4.317-20.255-.31-.4-.722-.836-1.228-.789-.775.072-.976,1.1-.941,1.883a36.6,36.6,0,0,0,6.486,19.161" transform="translate(-286.355 -7.685)" fill="#e0e0e0"/>
        <path id="Trazado_738572" data-name="Trazado 738572" d="M401.614,395.358a29.466,29.466,0,0,1-24.178-4.917,19.576,19.576,0,0,1,13.088-1.606c4.372,1,8.368,2.959,11.089,6.524" transform="translate(-309.034 -8.011)" fill="#e0e0e0"/>
        <path id="Trazado_738573" data-name="Trazado 738573" d="M401.219,390.7c-4.546-7.411-13.261-12.248-21.943-12.689,1,3.532,3.9,6.277,7.177,7.935a39.835,39.835,0,0,0,10.533,3.081c1.4.272,3.324.572,4.233,1.673" transform="translate(-310.441 -7.798)" fill="#e0e0e0"/>
        <path id="Trazado_738574" data-name="Trazado 738574" d="M375.388,368.388a63.674,63.674,0,0,1-2.806-12.851,21.389,21.389,0,0,1,2.559-12.711c4.246,8.216,4.676,17.816.374,26" transform="translate(-281.122 -7.072)" fill="#e0e0e0"/>
        <path id="Trazado_738575" data-name="Trazado 738575" d="M415.658,361.185c-4.965-9.025-15.1-16.233-25.347-17.244,3.955,9.847,14.739,17.455,25.347,17.244" transform="translate(-335.688 -7.095)" fill="#e0e0e0"/>
        <path id="Trazado_738576" data-name="Trazado 738576" d="M416.01,363.323c-7.4,1.128-13.714,5.858-20.635,8.725a9.242,9.242,0,0,1-4.665.893,3.652,3.652,0,0,1-2.286-6.46,9.972,9.972,0,0,1,3.389-2.056c7.537-3.138,15.62-3.216,23.56-1.313" transform="translate(-332.916 -7.464)" fill="#e0e0e0"/>
        <path id="Trazado_738577" data-name="Trazado 738577" d="M403.742,368.649c-1.677.48-2.25,1.348-3.577,2.479a38.608,38.608,0,0,1-15.647,8.039c-.6.148-1.382.208-1.679-.333-.259-.472.069-1.043.4-1.463a21.546,21.546,0,0,1,9.448-6.414c3.611-1.345,6.74-2.966,11.05-2.618" transform="translate(-316.362 -7.598)" fill="#e0e0e0"/>
        <path id="Trazado_738578" data-name="Trazado 738578" d="M401.758,336.61a29.615,29.615,0,0,1-22.7,7.724,1.554,1.554,0,0,1-1.033-.371c-.571-.622.114-1.581.78-2.1,6.675-5.2,14.76-7.362,22.957-5.253" transform="translate(-309.543 -6.927)" fill="#e0e0e0"/>
        <path id="Trazado_738579" data-name="Trazado 738579" d="M411.993,334.355a31.647,31.647,0,0,0-28.33-4.674,22.488,22.488,0,0,0,13.5,5.927,42.74,42.74,0,0,0,14.83-1.253" transform="translate(-325.512 -6.77)" fill="#e0e0e0"/>
        <path id="Trazado_738580" data-name="Trazado 738580" d="M377.428,319.344c.655-6.663.23-11.922.692-18.616.037-.534.152-1.178.652-1.37.7-.268,1.277.588,1.506,1.3a21.34,21.34,0,0,1-2.841,18.54" transform="translate(-288.668 -6.174)" fill="#e0e0e0"/>
        <path id="Trazado_738581" data-name="Trazado 738581" d="M395.486,320.077a39.167,39.167,0,0,1-11.037-10.726c-2.18-2.983-4.017-6.556-3.522-10.217a10.56,10.56,0,0,1,7.96,3.953,22.205,22.205,0,0,1,4.059,8.166c.884,2.931,1.5,5.944,2.539,8.824" transform="translate(-306.246 -6.171)" fill="#e0e0e0"/>
        <path id="Trazado_738582" data-name="Trazado 738582" d="M418.933,317.09a88.99,88.99,0,0,1-27.16-16.015c3.244-1.307,6.958-.525,10.2.785a32.17,32.17,0,0,1,17.1,15.158" transform="translate(-340.536 -6.197)" fill="#e0e0e0"/>
        <path id="Trazado_738583" data-name="Trazado 738583" d="M414.145,324.074a55.208,55.208,0,0,1-15.081.073c-4.89-.817-9.51-2.755-14.079-4.678a1.647,1.647,0,0,1-.956-.726,1.1,1.1,0,0,1,.343-1.2,2.89,2.89,0,0,1,1.2-.562c4.967-1.39,10.328-.739,15.216.908a70.637,70.637,0,0,1,13.359,6.19" transform="translate(-327.953 -6.523)" fill="#e0e0e0"/>
        <path id="Trazado_738584" data-name="Trazado 738584" d="M354.019,336.395c3.421-6.9,3.2-14.963.244-22.079-2.08,3.169-2.335,7.206-1.954,10.978s1.529,7.654,1.6,11.444" transform="translate(-239.199 -6.484)" fill="#e0e0e0"/>
        <path id="Trazado_738585" data-name="Trazado 738585" d="M317.794,329.822a30.792,30.792,0,0,1,22.883,9.748,21.375,21.375,0,0,1-12.53-2.323,63.714,63.714,0,0,1-10.738-7.187" transform="translate(-189.308 -6.804)" fill="#e0e0e0"/>
        <path id="Trazado_738586" data-name="Trazado 738586" d="M309.413,326.676c4.178-.339,8.2-.856,12.216.375a14.652,14.652,0,0,1,9.311,7.895,22.073,22.073,0,0,1-11.453-2.163,65.836,65.836,0,0,1-10.074-6.106" transform="translate(-171.74 -6.731)" fill="#e0e0e0"/>
        <path id="Trazado_738587" data-name="Trazado 738587" d="M320.742,326.694c3.759-2.463,7.618-4.97,11.994-5.991s9.448-.266,12.5,3.032c-3.542,2.079-7.841,2.325-11.948,2.321s-9.142-.049-13.015,1.321" transform="translate(-196.672 -6.607)" fill="#e0e0e0"/>
        <path id="Trazado_738588" data-name="Trazado 738588" d="M338.105,326.478c6.426-6.31,8.861-17.644,6.277-26.272a40.028,40.028,0,0,0-6.277,26.272" transform="translate(-214.058 -6.193)" fill="#e0e0e0"/>
        <path id="Trazado_738589" data-name="Trazado 738589" d="M378.949,308.34c-1.211-2.818-2.064-5.774-3.152-8.642a24.844,24.844,0,0,0-4.492-7.967,11.834,11.834,0,0,0-7.958-4.124,32.05,32.05,0,0,0,15.445,20.778" transform="translate(-272.571 -5.933)" fill="#e0e0e0"/>
        <path id="Trazado_738590" data-name="Trazado 738590" d="M343.11,312.341c2.006-2.76,4.322-6.507,7.042-8.567s6.261-3.308,9.58-2.516a22.311,22.311,0,0,1-16.622,11.083" transform="translate(-233.534 -6.21)" fill="#e0e0e0"/>
        <path id="Trazado_738591" data-name="Trazado 738591" d="M359.107,308.575a47.686,47.686,0,0,0,3.17-10.266,16.015,16.015,0,0,0-1.607-10.438c-3.528,6.667-4.664,13.825-1.743,20.779" transform="translate(-250.17 -5.939)" fill="#e0e0e0"/>
        <path id="Trazado_738592" data-name="Trazado 738592" d="M382.444,287.573c-2-6.61-8.05-11.476-14.585-13.709a5.434,5.434,0,0,0-2.557-.384,2.22,2.22,0,0,0-1.884,1.573c-.238,1.124.69,2.132,1.564,2.879a49.645,49.645,0,0,0,17.462,9.641" transform="translate(-276.098 -5.641)" fill="#e0e0e0"/>
        <path id="Trazado_738593" data-name="Trazado 738593" d="M373.331,281.884c-.254-4.262-.52-8.585-1.906-12.623s-4.057-7.826-7.945-9.593c-.661,4.3,1.238,8.586,3.529,12.29s5.051,7.2,6.427,11.331" transform="translate(-267.057 -5.357)" fill="#e0e0e0"/>
        <path id="Trazado_738594" data-name="Trazado 738594" d="M350.692,284.859c1.651-4.818,1.822-10.936,4.707-15.132,2.017-2.933,5.245-4.932,6.982-8.039a12.229,12.229,0,0,1-.405,9.126,26.423,26.423,0,0,1-5.337,7.639c-2.135,2.28-3.963,3.995-5.947,6.406" transform="translate(-244.314 -5.398)" fill="#e0e0e0"/>
        <path id="Trazado_738595" data-name="Trazado 738595" d="M363.342,427.172c.128,0,.24-32.134.249-71.765s-.088-71.773-.216-71.773-.24,32.128-.249,71.773.088,71.765.216,71.765" transform="translate(-256.996 -5.851)" fill="#e0e0e0"/>
        <path id="Trazado_738596" data-name="Trazado 738596" d="M363.338,331.909a6.912,6.912,0,0,0,1.209.453l3.325,1.122c2.8.955,6.655,2.338,10.835,4.051,4.139,1.776,8.043,3.217,10.265,5.143a7.538,7.538,0,0,1,2.063,2.73c.319.754.376,1.215.418,1.208a.934.934,0,0,0-.014-.337,5.01,5.01,0,0,0-.236-.936,7.236,7.236,0,0,0-2.013-2.909,18.041,18.041,0,0,0-4.454-2.767c-1.781-.831-3.756-1.7-5.853-2.561-4.193-1.718-8.074-3.057-10.909-3.933-1.417-.442-2.574-.768-3.375-.983a6.92,6.92,0,0,0-1.26-.28" transform="translate(-285.073 -6.847)" fill="#e0e0e0"/>
        <path id="Trazado_738597" data-name="Trazado 738597" d="M365.6,308.823a1.963,1.963,0,0,0,.339.361l1.031.969,3.849,3.5,12.813,11.408c5,4.452,9.324,8.706,12.319,11.909,1.5,1.6,2.682,2.924,3.487,3.849l.931,1.064a.249.249,0,1,0,.072-.059c-.194-.258-.477-.643-.865-1.12-.765-.963-1.911-2.324-3.384-3.956a162.169,162.169,0,0,0-12.252-12.033c-5.018-4.442-9.585-8.432-12.9-11.309l-3.947-3.386-1.089-.9a2.047,2.047,0,0,0-.4-.291" transform="translate(-296.536 -6.371)" fill="#e0e0e0"/>
        <path id="Trazado_738598" data-name="Trazado 738598" d="M381.174,329.788c.131-.059-.914-2.471-1.955-5.522s-1.545-5.625-1.679-5.6a18.88,18.88,0,0,0,1.239,5.752,37.41,37.41,0,0,0,1.555,3.862,6,6,0,0,0,.839,1.511" transform="translate(-288.683 -6.574)" fill="#e0e0e0"/>
        <path id="Trazado_738599" data-name="Trazado 738599" d="M344.393,349.388a5.831,5.831,0,0,0,.771-.9l1.974-2.532c1.658-2.143,3.951-5.1,6.521-8.341s4.934-6.144,6.645-8.245c.807-1,1.483-1.835,2.018-2.5a5.773,5.773,0,0,0,.7-.953,5.637,5.637,0,0,0-.833.835c-.515.558-1.244,1.379-2.132,2.4-1.778,2.049-4.182,4.924-6.757,8.168s-4.827,6.237-6.42,8.432c-.8,1.1-1.431,1.994-1.858,2.622a5.769,5.769,0,0,0-.625,1" transform="translate(-238.077 -6.723)" fill="#e0e0e0"/>
        <path id="Trazado_738600" data-name="Trazado 738600" d="M353.868,341.606a11.324,11.324,0,0,0,2.58-4.829,13.793,13.793,0,0,0,.585-4.868l-.2.017c.091.372.159.568.195.562s.039-.214.009-.6l-.206.017a22.1,22.1,0,0,1-.824,4.736,35.967,35.967,0,0,1-2.134,4.962" transform="translate(-241.394 -6.847)" fill="#e0e0e0"/>
        <path id="Trazado_738601" data-name="Trazado 738601" d="M334.807,331.559a8.305,8.305,0,0,1,1.8-1.046,12.026,12.026,0,0,1,5-.4,30.98,30.98,0,0,1,5.036.812,15.12,15.12,0,0,0,2.071.5,7.208,7.208,0,0,0-1.983-.813,23.012,23.012,0,0,0-5.089-.96,10.918,10.918,0,0,0-5.158.556,3.19,3.19,0,0,0-1.678,1.351" transform="translate(-214.384 -6.799)" fill="#e0e0e0"/>
        <path id="Trazado_738602" data-name="Trazado 738602" d="M327.127,329.064c.035.072,1.049-.42,2.759-1A27.761,27.761,0,0,1,343.791,327c1.779.318,2.855.651,2.879.575a2.582,2.582,0,0,0-.732-.312,17.245,17.245,0,0,0-2.083-.585,24.529,24.529,0,0,0-14.081,1.073,17.228,17.228,0,0,0-1.971.894,2.621,2.621,0,0,0-.676.419" transform="translate(-204.82 -6.727)" fill="#e0e0e0"/>
        <path id="Trazado_738603" data-name="Trazado 738603" d="M359.7,318.366a57.075,57.075,0,0,0,2.013-6.99,57.079,57.079,0,0,0,1.562-7.1,57.078,57.078,0,0,0-2.013,6.991,57.032,57.032,0,0,0-1.562,7.1" transform="translate(-253.318 -6.277)" fill="#e0e0e0"/>
        <path id="Trazado_738604" data-name="Trazado 738604" d="M357.865,318.5a33.766,33.766,0,0,1,2.23-4.185,18.438,18.438,0,0,1,3.283-3.388,3.052,3.052,0,0,0-1.267.653,10.227,10.227,0,0,0-2.4,2.468,9.275,9.275,0,0,0-1.85,4.451" transform="translate(-251.615 -6.414)" fill="#e0e0e0"/>
        <path id="Trazado_738605" data-name="Trazado 738605" d="M333.327,411.716c.05.008.145-.773.506-2.137a30.472,30.472,0,0,1,2.148-5.564,77.026,77.026,0,0,1,11.393-16.051c2.544-2.907,5.012-5.648,7.106-8.273a58.217,58.217,0,0,0,5.082-7.33,35.192,35.192,0,0,0,2.565-5.438c.236-.67.408-1.193.5-1.555a2.585,2.585,0,0,0,.132-.555c-.041-.013-.275.735-.8,2.046a39.764,39.764,0,0,1-2.681,5.338,61.54,61.54,0,0,1-5.131,7.227c-2.1,2.6-4.575,5.324-7.123,8.236-5.147,5.776-9.177,11.6-11.339,16.214a27.759,27.759,0,0,0-2.027,5.663,15.639,15.639,0,0,0-.284,1.612,2.66,2.66,0,0,0-.047.569" transform="translate(-226.981 -7.526)" fill="#e0e0e0"/>
        <path id="Trazado_738606" data-name="Trazado 738606" d="M363.377,383.438a11.558,11.558,0,0,0,1.33.746,29.126,29.126,0,0,1,3.449,2.281,39.554,39.554,0,0,1,4.531,4.132c1.59,1.68,3.228,3.631,4.9,5.721,3.343,4.194,6.468,7.9,8.34,10.866.95,1.469,1.641,2.708,2.094,3.578a11.629,11.629,0,0,0,.732,1.339,1.246,1.246,0,0,0-.123-.377c-.1-.24-.233-.6-.447-1.042a33.674,33.674,0,0,0-1.978-3.673,119.833,119.833,0,0,0-8.255-10.982c-1.676-2.094-3.333-4.049-4.954-5.726a36.837,36.837,0,0,0-4.642-4.1,24.175,24.175,0,0,0-3.562-2.177c-.441-.221-.8-.357-1.038-.459a1.277,1.277,0,0,0-.376-.127" transform="translate(-282.407 -7.91)" fill="#e0e0e0"/>
        <path id="Trazado_738607" data-name="Trazado 738607" d="M371.889,392.931a19.422,19.422,0,0,0,2.811.408,37.1,37.1,0,0,1,6.667,1.313,20.035,20.035,0,0,1,5.969,3.132c1.376,1.064,2.025,1.943,2.089,1.891a2.152,2.152,0,0,0-.416-.646,10.631,10.631,0,0,0-1.465-1.5,18.074,18.074,0,0,0-6.034-3.32,30.121,30.121,0,0,0-6.776-1.2,15.522,15.522,0,0,0-2.844-.081" transform="translate(-291.416 -8.105)" fill="#e0e0e0"/>
        <path id="Trazado_738608" data-name="Trazado 738608" d="M376.164,398.576c.147-.083-1.12-2.018-2.1-4.621-.923-2.627-1.138-4.929-1.3-4.9a4.449,4.449,0,0,0,.047,1.508,16.164,16.164,0,0,0,.82,3.553,17.181,17.181,0,0,0,1.631,3.258,4.523,4.523,0,0,0,.909,1.2" transform="translate(-278.975 -8.026)" fill="#e0e0e0"/>
        <path id="Trazado_738609" data-name="Trazado 738609" d="M363.388,357.949a2.142,2.142,0,0,0,.449.239l1.321.6c.579.248,1.281.563,2.072.98s1.721.832,2.686,1.411l1.534.872c.531.306,1.058.669,1.617,1.02,1.13.686,2.263,1.53,3.472,2.393A59.57,59.57,0,0,1,389.911,379.3c.82,1.238,1.626,2.4,2.272,3.552.331.572.676,1.11.964,1.651l.819,1.563c.546.984.936,1.924,1.319,2.732s.68,1.517.908,2.1l.555,1.34a2.128,2.128,0,0,0,.223.458,2.023,2.023,0,0,0-.135-.49l-.475-1.374c-.2-.6-.47-1.324-.838-2.143s-.734-1.777-1.263-2.776q-.382-.76-.8-1.586c-.281-.549-.621-1.1-.947-1.676-.637-1.169-1.435-2.347-2.253-3.6a57.332,57.332,0,0,0-13.468-13.936c-1.224-.86-2.373-1.7-3.521-2.374-.568-.346-1.1-.7-1.641-1l-1.558-.851c-.98-.565-1.923-.969-2.73-1.357s-1.522-.689-2.113-.913l-1.357-.521a2.13,2.13,0,0,0-.485-.152" transform="translate(-290.637 -7.384)" fill="#e0e0e0"/>
        <path id="Trazado_738610" data-name="Trazado 738610" d="M389.177,371.618a3.224,3.224,0,0,0-1.1-1.644,6.962,6.962,0,0,0-4.449-1.707,12.149,12.149,0,0,0-4.682.915,6.654,6.654,0,0,0-1.77.86,10.877,10.877,0,0,0,1.878-.55,14.12,14.12,0,0,1,4.559-.76,7.241,7.241,0,0,1,4.25,1.492,13.07,13.07,0,0,1,1.318,1.4" transform="translate(-296.341 -7.597)" fill="#e0e0e0"/>
        <path id="Trazado_738611" data-name="Trazado 738611" d="M375.881,374.674a11.876,11.876,0,0,1-.98-8.4,2.717,2.717,0,0,0-.522,1.2,8.5,8.5,0,0,0,.719,6.159c.393.71.738,1.077.784,1.045" transform="translate(-280.044 -7.556)" fill="#e0e0e0"/>
        <path id="Trazado_738612" data-name="Trazado 738612" d="M385.041,417.4c-.692,12.28-4.394,24.77-10.086,37.4H350.2c-5.428-12.5-8.873-24.972-9.485-37.4Z" transform="translate(-256.501 -8.611)" fill="#e0e0e0"/>
        <path id="Trazado_738613" data-name="Trazado 738613" d="M344.709,437.691c0,.128,8.15.232,18.2.232s18.2-.1,18.2-.232-8.147-.232-18.2-.232-18.2.1-18.2.232" transform="translate(-256.48 -9.024)" fill="#fafafa"/>
        <path id="Trazado_738614" data-name="Trazado 738614" d="M346.469,442.233c0,.128,7.64.232,17.063.232s17.065-.1,17.065-.232S372.957,442,363.532,442s-17.063.1-17.063.232" transform="translate(-257.688 -9.118)" fill="#fafafa"/>
        <path id="Trazado_738615" data-name="Trazado 738615" d="M351.419,425.638a70.146,70.146,0,0,0,0,11.4,70.128,70.128,0,0,0,0-11.4" transform="translate(-233.364 -8.781)" fill="#fafafa"/>
        <path id="Trazado_738616" data-name="Trazado 738616" d="M364.96,425.638a75.237,75.237,0,0,0,0,11.809,75.2,75.2,0,0,0,0-11.809" transform="translate(-260.166 -8.781)" fill="#fafafa"/>
        <path id="Trazado_738617" data-name="Trazado 738617" d="M377.673,425.536a78.227,78.227,0,0,0,0,12.044,78.258,78.258,0,0,0,0-12.044" transform="translate(-285.33 -8.778)" fill="#fafafa"/>
        <path id="Trazado_738618" data-name="Trazado 738618" d="M341.577,425.633c0,.128,9.559.232,21.347.232s21.349-.1,21.349-.232-9.557-.232-21.349-.232-21.347.1-21.347.232" transform="translate(-256.574 -8.776)" fill="#fafafa"/>
      </g>
    </g>
    <g id="Grupo_1034529" data-name="Grupo 1034529" transform="translate(-49.95)">
      <g id="Grupo_1034528" data-name="Grupo 1034528" clip-path="url(#clip-path-2)">
        <path id="Trazado_738619" data-name="Trazado 738619" d="M273.377,119.543a71.343,71.343,0,0,0-15.609-10.812L257.6,91.123l-28.469-6.168-7.439,15.958a71.353,71.353,0,0,0-18.687,3.381l-12.56-12.328-24.493,15.77,6.021,16.535a71.368,71.368,0,0,0-10.813,15.614l-17.605.165-6.169,28.469,15.958,7.439a71.4,71.4,0,0,0,3.381,18.685L144.4,207.2,160.166,231.7l16.536-6.022a71.334,71.334,0,0,0,15.613,10.812l.165,17.607,28.468,6.169,7.439-15.96a71.392,71.392,0,0,0,18.686-3.381l12.56,12.328,24.493-15.769-6.021-16.536a71.347,71.347,0,0,0,10.814-15.612l17.606-.165L312.7,176.7l-15.959-7.44a71.436,71.436,0,0,0-3.381-18.685l12.327-12.561-15.767-24.493Zm-15.9,32.184a38.576,38.576,0,1,1-53.317-11.555,38.575,38.575,0,0,1,53.317,11.555" transform="translate(14.982 -1.753)" fill="#e0e0e0"/>
        <path id="Trazado_738620" data-name="Trazado 738620" d="M258.637,152.758s-.108-.181-.342-.523-.6-.855-1.051-1.507q-.351-.5-.781-1.109c-.306-.394-.679-.792-1.063-1.242l-1.255-1.439a20.56,20.56,0,0,0-1.554-1.519,36.544,36.544,0,0,0-9.139-6.4,38.463,38.463,0,0,0-14.21-3.974l-2.084-.151c-.7-.009-1.417.026-2.138.038-.719.037-1.452-.008-2.182.1l-2.215.27-1.124.143-1.117.249-2.267.505c-.756.194-1.5.478-2.255.716a19.6,19.6,0,0,0-2.263.818,35.91,35.91,0,0,0-4.437,2.166c-.72.426-1.475.812-2.182,1.282l-2.09,1.5c-.348.258-.715.49-1.046.771l-.982.865c-.65.587-1.336,1.146-1.969,1.766a40.8,40.8,0,0,0-3.537,4.072,40.189,40.189,0,0,0-3.06,4.606c-.45.817-.831,1.677-1.256,2.521-.2.428-.435.84-.6,1.286l-.5,1.337a43.644,43.644,0,0,0-1.684,5.53,44.2,44.2,0,0,0-.769,5.842l-.1,1.488.032,1.5.038,1.5a9.821,9.821,0,0,0,.109,1.505q.185,1.5.372,3.017.333,1.488.669,2.989a38.444,38.444,0,0,0,13.264,20.607l2.445,1.847,2.592,1.589.647.391.679.33,1.353.658,1.351.65,1.4.521a35.538,35.538,0,0,0,11.369,2.477l1.424.1c.473.035.948-.012,1.419-.014.943-.035,1.884-.027,2.815-.1a40.244,40.244,0,0,0,5.46-.879,40.82,40.82,0,0,0,5.17-1.535c.829-.32,1.621-.712,2.424-1.061l1.194-.537c.393-.186.757-.424,1.135-.633q1.121-.648,2.227-1.284c.72-.451,1.384-.976,2.07-1.455a36.094,36.094,0,0,0,3.809-3.143,19.919,19.919,0,0,0,1.682-1.723c.53-.593,1.1-1.147,1.585-1.756l1.4-1.854.689-.914.594-.965,1.163-1.906c.4-.621.66-1.306.991-1.946.309-.651.637-1.285.92-1.93l.726-1.959a38.462,38.462,0,0,0,2.263-14.581,36.628,36.628,0,0,0-2.044-10.969,20.686,20.686,0,0,0-.74-2.042l-.789-1.738c-.251-.535-.46-1.04-.691-1.481l-.686-1.169-.937-1.58c-.214-.355-.335-.529-.335-.529s.092.193.291.556l.891,1.6q.3.527.662,1.176c.224.444.425.951.667,1.487l.765,1.74a20.82,20.82,0,0,1,.715,2.04,36.825,36.825,0,0,1,1.947,10.915,38.324,38.324,0,0,1-2.317,14.448q-.36.958-.727,1.938c-.283.638-.61,1.264-.919,1.908-.33.632-.593,1.31-.988,1.923s-.768,1.249-1.159,1.882l-.592.952-.686.9-1.39,1.831c-.486.6-1.047,1.147-1.574,1.732a19.362,19.362,0,0,1-1.669,1.7,35.514,35.514,0,0,1-3.773,3.1c-.681.471-1.338.99-2.051,1.434l-2.206,1.264c-.373.2-.734.44-1.122.624l-1.181.527c-.794.343-1.579.729-2.4,1.044a40.575,40.575,0,0,1-5.111,1.505,39.81,39.81,0,0,1-5.4.859c-.918.07-1.848.06-2.779.093-.465,0-.933.048-1.4.012l-1.405-.1a35.051,35.051,0,0,1-11.222-2.457l-1.38-.514-1.332-.643-1.335-.65-.67-.326-.64-.387L204.6,205.3l-2.412-1.825A37.987,37.987,0,0,1,189.1,183.142q-.332-1.479-.662-2.949-.185-1.5-.369-2.977a9.685,9.685,0,0,1-.108-1.486l-.038-1.485-.033-1.478.1-1.468a43.575,43.575,0,0,1,.754-5.768,43.125,43.125,0,0,1,1.655-5.462l.491-1.321c.161-.441.4-.847.592-1.271.416-.833.792-1.684,1.235-2.491a39.946,39.946,0,0,1,3.014-4.555,40.515,40.515,0,0,1,3.487-4.029c.625-.614,1.3-1.167,1.941-1.749l.97-.857c.327-.278.689-.508,1.032-.764l2.062-1.484c.7-.466,1.444-.849,2.156-1.273a35.629,35.629,0,0,1,4.382-2.154,19.319,19.319,0,0,1,2.237-.815c.749-.238,1.48-.522,2.228-.716l2.242-.507,1.1-.251,1.112-.145,2.193-.275c.723-.107,1.448-.064,2.16-.1.713-.015,1.419-.053,2.116-.047l2.065.141a38.325,38.325,0,0,1,14.113,3.87,36.776,36.776,0,0,1,9.131,6.291,20.779,20.779,0,0,1,1.562,1.495l1.267,1.417c.388.443.765.835,1.077,1.222l.8,1.09,1.091,1.476c.248.331.385.494.385.494" transform="translate(13.82 -2.783)" fill="#263238"/>
        <path id="Trazado_738621" data-name="Trazado 738621" d="M273.444,119.54s.355-.117,1.061-.366l3.154-1.127,12.353-4.452-.1-.032c4,6.244,9.306,14.508,15.727,24.519l.017-.161-12.342,12.548-.064.065.027.086a71.572,71.572,0,0,1,3.356,18.647l0,.1.092.043,15.952,7.453-.1-.2c-1.948,8.961-4.015,18.474-6.187,28.464l.194-.159-17.606.156h-.127l-.058.114a71.472,71.472,0,0,1-10.789,15.56l-.09.1.045.125c1.865,5.126,3.92,10.78,6.015,16.538l.09-.268-24.5,15.76.295.03-12.557-12.332-.1-.1-.14.046a71.528,71.528,0,0,1-18.623,3.365l-.149.006-.064.136-7.442,15.958.279-.139L192.6,253.844l.2.246c-.052-5.561-.108-11.562-.164-17.607l0-.155-.137-.07A71.357,71.357,0,0,1,176.954,225.5l-.013-.013-.117-.1-.143.052-16.537,6.022.3.1-15.769-24.492-.032.313,12.325-12.563.106-.109-.046-.144a71.179,71.179,0,0,1-3.373-18.619l-.006-.15-.136-.064-15.959-7.435.134.271q3.156-14.579,6.161-28.47l-.227.185,17.605-.171h.138l.064-.123A71.224,71.224,0,0,1,172.2,124.415l.09-.1-.046-.125c-2.067-5.67-4.071-11.165-6.029-16.532l-.084.251,24.483-15.785-.242-.024,12.569,12.319.079.078.1-.034a71.35,71.35,0,0,1,18.639-3.388l.1,0,.043-.092,7.424-15.965-.168.084,28.477,6.132-.09-.111c.078,7.051.143,12.824.2,17.607v.05l.044.023a71.992,71.992,0,0,1,12.038,7.717c1.24.976,2.127,1.75,2.724,2.257s.885.765.885.765-1.1-1.1-3.556-3.088a70.62,70.62,0,0,0-12.016-7.8l.044.071c-.036-4.783-.079-10.556-.132-17.607v-.091l-.089-.02-28.462-6.2-.118-.025-.051.109c-2.3,4.93-4.744,10.151-7.454,15.951l.144-.1a71.631,71.631,0,0,0-18.735,3.374l.184.044c-3.995-3.926-8.138-8-12.553-12.338l-.112-.109-.131.084-24.5,15.756-.142.091.058.16,6.013,16.538.044-.224a71.681,71.681,0,0,0-10.853,15.659l.2-.124-17.605.158-.188,0-.04.183q-3.012,13.884-6.177,28.467l-.041.19.176.081,15.956,7.443-.142-.212a71.635,71.635,0,0,0,3.389,18.75l.06-.252-12.328,12.56-.141.144.109.17q7.776,12.079,15.765,24.493l.111.171.191-.07,16.537-6.022-.259-.051.014.013a71.792,71.792,0,0,0,15.654,10.838l-.138-.223c.057,6.045.114,12.046.166,17.607l0,.2.2.043,28.468,6.165.2.042.084-.181,7.436-15.96-.212.142a71.987,71.987,0,0,0,18.748-3.4l-.244-.058,12.564,12.324.136.133.159-.1,24.488-15.778.153-.1-.063-.171-6.028-16.532-.044.223a71.828,71.828,0,0,0,10.839-15.665l-.186.115,17.606-.174.161,0,.034-.157c2.158-9.993,4.213-19.508,6.149-28.472l.03-.142-.131-.062-15.965-7.428.1.144a71.777,71.777,0,0,0-3.406-18.724l-.035.151L305.842,138.1l.073-.073-.056-.087-15.808-24.467-.035-.055-.061.023-12.292,4.522-3.152,1.168c-.707.264-1.068.408-1.068.408" transform="translate(14.914 -1.749)" fill="#263238"/>
        <path id="Trazado_738622" data-name="Trazado 738622" d="M382.3,271.6,439,307.835H253.1V271.6Z" transform="translate(-174.707 -5.603)" fill="#7e5ee3"/>
        <path id="Trazado_738623" data-name="Trazado 738623" d="M470.855,248.749v80.993l-52.786-40.5Z" transform="translate(-368.119 -5.131)" fill="#7e5ee3"/>
        <path id="Trazado_738624" data-name="Trazado 738624" d="M220.208,178.362c-5.823,73.771-67.718,132.019-142.96,132.019V274.145A107.292,107.292,0,0,0,184.419,166.974s-1.615-18.7-2.741-24.331l35.675-6.708c1.3,6.4,3.369,35.918,2.856,42.427" transform="translate(166.287 -2.804)" fill="#ff9d00"/>
        <path id="Trazado_738625" data-name="Trazado 738625" d="M66.66,133.208l71.235-19.536-23.048,55.6Z" transform="translate(259.051 -2.345)" fill="#7e5ee3"/>
        <path id="Trazado_738626" data-name="Trazado 738626" d="M186.52,129.971A107.354,107.354,0,0,0,85.873,59.639V23.4A143.656,143.656,0,0,1,220.782,118.15Z" transform="translate(157.346 -0.483)" fill="#7e5ee3"/>
        <path id="Trazado_738627" data-name="Trazado 738627" d="M209.31,85.728,256.5,34.108,196.285,0Z" transform="translate(13.496 0)" fill="#dee4f0"/>
        <path id="Trazado_738628" data-name="Trazado 738628" d="M255.81,94.105a107.221,107.221,0,0,1,80.718-36.669V21.2a143.451,143.451,0,0,0-108,49.055Z" transform="translate(-98.114 -0.437)" fill="#dee4f0"/>
        <path id="Trazado_738629" data-name="Trazado 738629" d="M334.869,232l32.811-15.379c-6.682-14.258-12.813-34.8-12.813-50.69a106.008,106.008,0,0,1,11.494-48.346c1.324-2.612,6.119-11.308,7.435-13.484l-31-18.764c-1.907,3.148-7.149,12.69-8.762,15.873a141.934,141.934,0,0,0-15.4,64.721c0,21.243,7.283,46.964,16.239,66.069" transform="translate(-223.623 -1.76)" fill="#ff9d00"/>
        <path id="Trazado_738630" data-name="Trazado 738630" d="M367.307,120.105,305.6,79.506l56.973-19.4Z" transform="translate(-204.372 -1.24)" fill="#ff9d00"/>
        <path id="Trazado_738631" data-name="Trazado 738631" d="M224.441,312.4H340.077V276.168H224.441a106.478,106.478,0,0,1-85.2-42.144l-28.787,22.01A142.45,142.45,0,0,0,224.441,312.4" transform="translate(13.974 -4.828)" fill="#ff9d00"/>
        <path id="Trazado_738632" data-name="Trazado 738632" d="M358.3,224.37,296.817,265.3l4.409-60.025Z" transform="translate(-186.769 -4.235)" fill="#ff9d00"/>
        <g id="Grupo_1034527" data-name="Grupo 1034527" transform="translate(110.049 201.045)" opacity="0.3">
          <g id="Grupo_1034526" data-name="Grupo 1034526" transform="translate(0 0)">
            <g id="Grupo_1034525" data-name="Grupo 1034525" clip-path="url(#clip-path-4)">
              <path id="Trazado_738633" data-name="Trazado 738633" d="M110.457,265.3l4.409-60.024,57.078,19.091-16.7,11.118a106.424,106.424,0,0,0,83.579,40.088H354.459v36.237H238.823A142.441,142.441,0,0,1,124.987,255.63Z" transform="translate(-110.457 -205.279)"/>
            </g>
          </g>
        </g>
        <path id="Trazado_738634" data-name="Trazado 738634" d="M152.733,254.207V335.2l-52.107-40.5Z" transform="translate(210.946 -5.244)" fill="#dee4f0"/>
        <rect id="Rectángulo_350974" data-name="Rectángulo 350974" width="50.852" height="36.237" transform="translate(354.051 271.341)" fill="#dee4f0"/>
      </g>
    </g>
    <path id="Trazado_738635" data-name="Trazado 738635" d="M214.944,455.62l-15.978,1.187-2.791-29.561L212.209,426Z" transform="translate(5.207 -8.788)" fill="#727997"/>
    <g id="Grupo_1034546" data-name="Grupo 1034546" transform="translate(-49.95)">
      <g id="Grupo_1034545" data-name="Grupo 1034545" clip-path="url(#clip-path-2)">
        <path id="Trazado_738636" data-name="Trazado 738636" d="M207.628,455.112c.133-.014-.451-6.489-1.3-14.46s-1.653-14.424-1.786-14.41.451,6.488,1.3,14.462,1.653,14.423,1.786,14.408" transform="translate(54.283 -8.793)" fill="#263238"/>
        <path id="Trazado_738637" data-name="Trazado 738637" d="M196.175,455.349l15.978-1.24.193,2.091-15.979,1.187Z" transform="translate(57.756 -9.368)" fill="#263238"/>
        <path id="Trazado_738638" data-name="Trazado 738638" d="M212.791,446.494c.022-.021-.137-.243-.471-.605a11.152,11.152,0,0,0-1.572-1.38A10.845,10.845,0,0,0,208,443.035a8.527,8.527,0,0,0-9.752,2.82,7.348,7.348,0,0,0-1,1.849,2.079,2.079,0,0,0-.182.746,16.83,16.83,0,0,1,1.449-2.386,8.537,8.537,0,0,1,5.733-3.042,9.813,9.813,0,0,1,6.3,1.768c1.442.957,2.176,1.766,2.238,1.7" transform="translate(56.436 -9.128)" fill="#263238"/>
        <g id="Grupo_1034532" data-name="Grupo 1034532" transform="translate(252.192 425.64)" opacity="0.3">
          <g id="Grupo_1034531" data-name="Grupo 1034531" transform="translate(0)">
            <g id="Grupo_1034530" data-name="Grupo 1034530" clip-path="url(#clip-path-6)">
              <path id="Trazado_738639" data-name="Trazado 738639" d="M213.82,434.606l.3,3.257L198.1,438.981l-.232-2.452Z" transform="translate(-197.866 -434.606)"/>
            </g>
          </g>
        </g>
        <path id="Trazado_738640" data-name="Trazado 738640" d="M266.493,425.16l-1.921,29.631,15.966,1.356,1.985-29.685Z" transform="translate(-79.408 -8.771)" fill="#727997"/>
        <path id="Trazado_738641" data-name="Trazado 738641" d="M273.227,454.347c.134.007.582-6.479,1-14.485s.649-14.5.515-14.511-.581,6.478-1,14.487-.648,14.5-.515,14.509" transform="translate(-80.104 -8.775)" fill="#263238"/>
        <path id="Trazado_738642" data-name="Trazado 738642" d="M266.588,453.329l15.974,1.3-.14,2.1-15.966-1.356Z" transform="translate(-81.291 -9.352)" fill="#263238"/>
        <path id="Trazado_738643" data-name="Trazado 738643" d="M281.783,447a2.143,2.143,0,0,0-.37-.673,11.045,11.045,0,0,0-1.333-1.61,10.859,10.859,0,0,0-2.477-1.89,8.529,8.529,0,0,0-10.075,1.242,7.328,7.328,0,0,0-1.276,1.668,2.067,2.067,0,0,0-.3.708,16.826,16.826,0,0,1,1.809-2.126,8.535,8.535,0,0,1,6.143-2.1,9.8,9.8,0,0,1,5.938,2.742c1.272,1.172,1.87,2.088,1.94,2.036" transform="translate(-80.018 -9.112)" fill="#263238"/>
        <g id="Grupo_1034535" data-name="Grupo 1034535" transform="translate(186.334 425.516)" opacity="0.3">
          <g id="Grupo_1034534" data-name="Grupo 1034534">
            <g id="Grupo_1034533" data-name="Grupo 1034533" clip-path="url(#clip-path-7)">
              <path id="Trazado_738644" data-name="Trazado 738644" d="M281.366,435.1l-.218,3.264-16-1.431.16-2.459Z" transform="translate(-265.149 -434.479)"/>
            </g>
          </g>
        </g>
        <path id="Trazado_738645" data-name="Trazado 738645" d="M205.141,156.665l22,3.283,1.03-18.826s1.589-.068,3-8.1,4-21.647,4-21.647a30.216,30.216,0,0,0-29.686-1.18l-1.384.718Z" transform="translate(27.163 -2.204)" fill="#ffbe9d"/>
        <path id="Trazado_738646" data-name="Trazado 738646" d="M241.028,121.524c-.132-.082-5.464-2.563-6.172,2.969s5.188,5.141,5.218,4.984.954-7.953.954-7.953" transform="translate(-8.752 -2.494)" fill="#ffbe9d"/>
        <path id="Trazado_738647" data-name="Trazado 738647" d="M204.812,124.788c.152-.036,5.446-.537,4.374,4.937s-6.546,3.242-6.525,3.083,2.151-8.02,2.151-8.02" transform="translate(54.419 -2.574)" fill="#ffbe9d"/>
        <path id="Trazado_738648" data-name="Trazado 738648" d="M203.23,120.293c.1,4.749-.455,7.145-.166,10.352.457,5.075,2.359,9.218,6.513,12.389s10.312,4.122,14.754,1.441c3.083-1.861,5.425-4.148,6.387-7.544s2.358-9.463,2.948-12.942c1.064-6.275,2.472-12.211,2.472-12.211l-18.065-6.259-11.562,4.361Z" transform="translate(27.299 -2.177)" fill="#12263f"/>
        <path id="Trazado_738649" data-name="Trazado 738649" d="M227.226,148.18a6.3,6.3,0,0,1-3.3-.25,6.233,6.233,0,0,1-2.962-1.461c.075-.129,1.383.509,3.1.971s3.167.591,3.164.74" transform="translate(18.603 -3.021)" fill="#263238"/>
        <path id="Trazado_738650" data-name="Trazado 738650" d="M200.424,128.113c.22-4.814.742-10.276.784-15.381.015-1.916-.238-4.723.239-6.576a15.377,15.377,0,0,1,2.118-5.338,8.254,8.254,0,0,1,6.332-3.3,8.5,8.5,0,0,1,6.609,2.892,6.383,6.383,0,0,1,6.776-1.408,6.145,6.145,0,0,1,3.83,5.648,4.493,4.493,0,0,1,5.15.293,4.154,4.154,0,0,1,1.108,4.882,4.2,4.2,0,0,1,2.7,2.8,3.961,3.961,0,0,1-.92,3.7c-1.069,1.14-2.736,1.594-3.884,2.661a4.52,4.52,0,0,0-1.089,4.921" transform="translate(29.733 -2.012)" fill="#12263f"/>
        <path id="Trazado_738651" data-name="Trazado 738651" d="M231.55,115.47c.017.01-.06.192-.29.483a3.724,3.724,0,0,1-1.27,1,4.033,4.033,0,0,1-2.538.349,4.267,4.267,0,0,1-2.762-1.831l.41-.039a3.833,3.833,0,0,1-2.933,2.35,4.634,4.634,0,0,1-4.108-1.188,6.193,6.193,0,0,1-1.875-3.366l.443.122a5.353,5.353,0,0,1-4.57,1.546,4.987,4.987,0,0,1-3.316-1.97,4.785,4.785,0,0,1-.941-2.313,1.982,1.982,0,0,1,.033-.889c.04,0,.029.314.141.866A5.025,5.025,0,0,0,209,112.736a4.714,4.714,0,0,0,3.109,1.734,4.936,4.936,0,0,0,4.134-1.454l.342-.367.1.489a5.766,5.766,0,0,0,1.732,3.084,4.124,4.124,0,0,0,3.641,1.076,3.4,3.4,0,0,0,2.61-2.017l.159-.443.252.4a3.9,3.9,0,0,0,2.446,1.7,3.846,3.846,0,0,0,2.348-.228,5.267,5.267,0,0,0,1.677-1.248" transform="translate(27.188 -2.263)" fill="#455a64"/>
        <path id="Trazado_738652" data-name="Trazado 738652" d="M220.09,113.155a4.937,4.937,0,0,0-.47-2.132,3.438,3.438,0,0,0-1.749-1.586,3.685,3.685,0,0,0-2.92.064l-.5.241.134-.531a4.052,4.052,0,0,0,.066-1.612,4.421,4.421,0,0,0-1.871-2.94,4.576,4.576,0,0,0-2.858-.715,6.213,6.213,0,0,0-2.63.925c-.021-.019.148-.243.561-.537a4.624,4.624,0,0,1,2.026-.746,4.69,4.69,0,0,1,5.292,3.94,4.439,4.439,0,0,1-.084,1.816l-.368-.29a4.1,4.1,0,0,1,3.333-.017,3.683,3.683,0,0,1,1.876,1.85,3.413,3.413,0,0,1,.312,1.676c-.034.4-.123.6-.149.594" transform="translate(38.968 -2.136)" fill="#455a64"/>
        <path id="Trazado_738653" data-name="Trazado 738653" d="M220.641,111.465c-.067-.042.066-.311.107-.759a3.53,3.53,0,0,0-.318-1.719,17.908,17.908,0,0,0-.837-1.634c-.241-.329-.541-.174-.576-.208-.027-.016-.01-.127.159-.2a.669.669,0,0,1,.69.168,4.178,4.178,0,0,1,.541.731,6.5,6.5,0,0,1,.511.957,2.964,2.964,0,0,1,.2,1.977c-.154.508-.423.728-.473.688" transform="translate(26.537 -2.205)" fill="#455a64"/>
        <path id="Trazado_738654" data-name="Trazado 738654" d="M224.078,102.635c-.056-.03.067-.429.51-.948a2.748,2.748,0,0,1,.987-.725,2.309,2.309,0,0,1,1.563-.074,3.676,3.676,0,0,1,2.035,1.732c.334.575.466.955.408.989s-.319-.288-.717-.79a3.982,3.982,0,0,0-1.875-1.443,2.232,2.232,0,0,0-2.134.565c-.468.408-.709.736-.778.694" transform="translate(13.191 -2.079)" fill="#455a64"/>
        <path id="Trazado_738655" data-name="Trazado 738655" d="M232.213,126.814a8.993,8.993,0,0,1-1.4-3.828,8.788,8.788,0,0,1-.051-4.046c.156.007.165,1.8.57,3.963s1.021,3.857.878,3.912" transform="translate(4.173 -2.454)" fill="#455a64"/>
        <path id="Trazado_738656" data-name="Trazado 738656" d="M229.517,128.622a6.714,6.714,0,0,1-.974-2.724,6.549,6.549,0,0,1-.23-2.867,10.288,10.288,0,0,1,.746,2.768,10.145,10.145,0,0,1,.458,2.823" transform="translate(9.149 -2.538)" fill="#455a64"/>
        <path id="Trazado_738657" data-name="Trazado 738657" d="M217.216,131.712a8.512,8.512,0,0,1-1.425,4.732,8.83,8.83,0,0,1-3.486,3.579,30.507,30.507,0,0,0,3.027-3.835,29.973,29.973,0,0,0,1.883-4.476" transform="translate(37.052 -2.717)" fill="#455a64"/>
        <path id="Trazado_738658" data-name="Trazado 738658" d="M211.841,128.027a6.876,6.876,0,0,1-.342,4.415,7.018,7.018,0,0,1-2.571,3.641A24.065,24.065,0,0,0,211,132.27a23.793,23.793,0,0,0,.839-4.243" transform="translate(45.575 -2.641)" fill="#455a64"/>
        <path id="Trazado_738659" data-name="Trazado 738659" d="M235.328,156.971l-.195-4.721-23-4.858-.814,3.887Z" transform="translate(19.94 -3.041)" fill="#fff"/>
        <path id="Trazado_738660" data-name="Trazado 738660" d="M162.81,215.241s1.136.584.344,1.415-11.253,10.119-12.665,11.031a29.906,29.906,0,0,1-5.644,2.01l-2.765-.514-1.617-6.662-1.951-3.205.5-.736-1.836-7.122s1.594-.646,2.323.5c1.028,1.619,2.449,4.236,2.449,4.236s2.876.438,3.923-.811,7.144-11.537,7.881-11.716,1.858.047,1.261,1.684-4.5,7.47-4.348,7.789.74.758,1.027.475,6.507-8.5,7.492-8.638c1.05-.15,1.8.7.838,2.283s-6.027,7.359-5.795,7.729.9-.077.9-.077,5.788-6.044,6.6-5.936c.9.119,1.043,1.026.586,1.777s-6.322,6.421-6.426,6.872c-.068.295.181,1.462.652,1.064s5.807-3.831,6.267-3.446" transform="translate(164.452 -4.2)" fill="#ffbe9d"/>
        <path id="Trazado_738661" data-name="Trazado 738661" d="M278.824,276.587l1.217,79.012,2.683,82.021-22.264,1.609L252.95,355.6l-8.549-59.34-1.882-.116L225.7,357.922,215.217,437.2c-1.3-.326-21.016-1.882-21.016-1.882l13.676-160.531,2.279-13.351,58.612,1.3Z" transform="translate(-10.69 -5.393)" fill="#12263f"/>
        <path id="Trazado_738662" data-name="Trazado 738662" d="M194.6,231.728l1.7-45.7,2.819-31.558h19.217l4.907-4.784,24.648,4.784,2.282,6.884s19.8,6.3,20.893,8.225c0,0-6.943,27.4-10.213,42.757-2.244,10.536-4.606,21.335-4.606,21.335l6.252,50.553c.249,0-38.077-1.687-38.077-1.687l-37.026-4Z" transform="translate(7.636 -3.088)" fill="#727997"/>
        <path id="Trazado_738663" data-name="Trazado 738663" d="M276.143,139.385s5.64.442,5.974.442,6.141.534,6.141.534a2.97,2.97,0,0,0-1.6-2c-1.335-.6-3.88-1.531-4.147-2s-.859-1.139-.325-1.874,10.262-10.609,10.6-11.142.868-1.535,0-1.735-1.935.735-2.67,1.335-4.522,3.8-4.922,3.6-.067-.534-.067-.534,6.434-6.621,6.5-6.821.825-2.152-1.007-1.831c-.878.154-7.563,6.984-7.829,6.717s5.607-7.809,5.072-8.41-1.134-1.2-2.2,0-5.667,7.341-6,7.408a.558.558,0,0,1-.6-.734c.134-.467,2.867-5.227,2.867-5.761s-.537-.666-1.07-.733-6.268,8.229-6.268,8.229-4.425,7.119-4.872,7.943a26.914,26.914,0,0,0-1.268,3.6Z" transform="translate(-93.917 -2.372)" fill="#ffbe9d"/>
        <path id="Trazado_738664" data-name="Trazado 738664" d="M282.773,140.17l-3.843,14.825,8.785,3.295,18.943-4.118v28l-2.68,7.281s-39.641-19.131-42.275-21.237c-4.922-3.937,2.892-17.494,2.892-17.494l7.2-15.5Z" transform="translate(-99.14 -2.79)" fill="#727997"/>
        <path id="Trazado_738665" data-name="Trazado 738665" d="M165.4,170l4.434,8.878,11.2,37.088,12.52,3.34,2.353,11.444s-19.579,4.59-23.211,3.014c-6.166-2.678-16.458-28.214-16.458-28.214l1.393-21.83Z" transform="translate(113.301 -3.507)" fill="#727997"/>
        <path id="Trazado_738666" data-name="Trazado 738666" d="M288.279,161.464a26.36,26.36,0,0,1,12.546-6.356,6.361,6.361,0,0,0-2.107.2,18.929,18.929,0,0,0-9.034,4.578,6.387,6.387,0,0,0-1.405,1.582" transform="translate(-120.924 -3.199)" fill="#263238"/>
        <path id="Trazado_738667" data-name="Trazado 738667" d="M287.6,155.309a27.674,27.674,0,0,1,4.779-.369,27.425,27.425,0,0,1,4.7.971,10.126,10.126,0,0,0-9.474-.6" transform="translate(-116.503 -3.185)" fill="#263238"/>
        <path id="Trazado_738668" data-name="Trazado 738668" d="M208.659,154.57a6.449,6.449,0,0,0,1.076.747c.353.234.8.5,1.325.779s1.12.625,1.807.939a45.54,45.54,0,0,0,4.9,2.033,60.938,60.938,0,0,0,6.246,1.764,66.52,66.52,0,0,0,11.679,1.493c1.505.058,2.726.062,3.568.028a6.442,6.442,0,0,0,1.306-.1,6.431,6.431,0,0,0-1.305-.1c-.839-.027-2.054-.086-3.549-.189a79.086,79.086,0,0,1-11.588-1.632c-2.229-.5-4.324-1.1-6.205-1.712-1.869-.65-3.539-1.278-4.9-1.914-.69-.292-1.293-.6-1.827-.865s-.994-.493-1.358-.7a6.5,6.5,0,0,0-1.176-.575" transform="translate(17.313 -3.189)" fill="#263238"/>
        <path id="Trazado_738669" data-name="Trazado 738669" d="M209.94,235.426a8.047,8.047,0,0,0,1.413.36c.916.208,2.255.44,3.919.663a64.018,64.018,0,0,0,26.009-1.974c1.611-.471,2.9-.9,3.774-1.247a8.136,8.136,0,0,0,1.343-.569,8,8,0,0,0-1.407.381c-.89.285-2.191.662-3.806,1.087a71.488,71.488,0,0,1-25.871,1.964c-1.66-.176-3-.353-3.926-.5a8.1,8.1,0,0,0-1.448-.165" transform="translate(10.222 -4.799)" fill="#263238"/>
        <path id="Trazado_738670" data-name="Trazado 738670" d="M177.347,219.921c.135-.039-1.24-5.16-3.07-11.437s-3.425-11.334-3.56-11.3,1.24,5.159,3.07,11.438,3.425,11.333,3.56,11.294" transform="translate(117.687 -4.068)" fill="#263238"/>
        <path id="Trazado_738671" data-name="Trazado 738671" d="M232.72,250.606c-.141,0-.4,5.7-.573,12.728s-.2,12.739-.063,12.742.4-5.694.573-12.729.2-12.737.063-12.741" transform="translate(2.212 -5.17)" fill="#263238"/>
        <path id="Trazado_738672" data-name="Trazado 738672" d="M223.618,294.843c-.025.139,4.955,1.167,11.121,2.3s11.189,1.934,11.215,1.8-4.954-1.166-11.123-2.3-11.187-1.933-11.213-1.8" transform="translate(-2.729 -6.082)" fill="#455a64"/>
        <path id="Trazado_738673" data-name="Trazado 738673" d="M256.761,356.044a46.087,46.087,0,0,1,6.406.83,46.166,46.166,0,0,1,6.069,2.215,5.624,5.624,0,0,0-1.6-1.068,19.073,19.073,0,0,0-8.961-2.187,5.6,5.6,0,0,0-1.913.21" transform="translate(-58.471 -7.341)" fill="#455a64"/>
        <path id="Trazado_738674" data-name="Trazado 738674" d="M206.42,359.956c.033.15,1.847-.224,4.1-.117,2.251.088,4.024.618,4.071.472a10.787,10.787,0,0,0-8.167-.356" transform="translate(45.482 -7.412)" fill="#455a64"/>
        <path id="Trazado_738675" data-name="Trazado 738675" d="M190.966,234.381a1.988,1.988,0,0,0,.161-.5l.364-1.457c.311-1.342.735-3.16,1.25-5.376,1.036-4.614,2.439-10.861,3.988-17.766s2.938-13.159,3.967-17.773l1.2-5.386c.125-.591.228-1.076.312-1.468a2,2,0,0,0,.074-.52,2.061,2.061,0,0,0-.174.5c-.109.386-.243.864-.405,1.446-.343,1.258-.807,3.086-1.362,5.35-1.111,4.528-2.567,10.8-4.114,17.743s-2.9,13.237-3.843,17.8c-.45,2.229-.819,4.06-1.092,5.411-.109.594-.2,1.082-.27,1.477a2.079,2.079,0,0,0-.06.522" transform="translate(72.916 -3.799)" fill="#263238"/>
        <path id="Trazado_738676" data-name="Trazado 738676" d="M272.623,170.736a1.166,1.166,0,0,0-.044.279c-.02.213-.045.484-.076.821-.063.723-.148,1.789-.235,3.163-.187,2.749-.4,6.728-.652,11.647-.491,9.837-1.067,23.429-1.63,38.444-.089,2.419-.176,4.8-.26,7.062l0-.028c-2,13.209-3.772,24.9-5.05,33.332-.609,4.174-1.1,7.539-1.447,9.9q-.234,1.7-.367,2.675c-.034.283-.062.511-.083.694a.956.956,0,0,0-.013.239.913.913,0,0,0,.06-.231l.13-.688.454-2.66c.382-2.357.926-5.715,1.6-9.879,1.319-8.425,3.149-20.107,5.215-33.306l0-.014v-.016c.084-2.26.173-4.642.263-7.061,1.161-29.644,2.019-51.6,2.128-54.374" transform="translate(-67.739 -3.522)" fill="#263238"/>
        <g id="Grupo_1034538" data-name="Grupo 1034538" transform="translate(228.499 153.112)" opacity="0.3">
          <g id="Grupo_1034537" data-name="Grupo 1034537" transform="translate(0)">
            <g id="Grupo_1034536" data-name="Grupo 1034536" clip-path="url(#clip-path-8)">
              <path id="Trazado_738677" data-name="Trazado 738677" d="M209.7,156.337c9.264,3.733,18.418,6.038,28.357,6.045a8.032,8.032,0,0,1-5.185,2.282,20.764,20.764,0,0,1-5.816-.5,87.887,87.887,0,0,1-14.147-3.974c-1.578-.592-3.426-2.294-3.209-3.857" transform="translate(-209.682 -156.337)"/>
            </g>
          </g>
        </g>
        <g id="Grupo_1034541" data-name="Grupo 1034541" transform="translate(269.691 181.932)" opacity="0.3">
          <g id="Grupo_1034540" data-name="Grupo 1034540" transform="translate(0)">
            <g id="Grupo_1034539" data-name="Grupo 1034539" clip-path="url(#clip-path-9)">
              <path id="Trazado_738678" data-name="Trazado 738678" d="M196.489,185.764c-.152,3.568.243,7.856-.5,11.347a21.247,21.247,0,0,1-4.459,9.593c1.728-6.722,3.186-14.087,4.963-20.94" transform="translate(-191.526 -185.764)"/>
            </g>
          </g>
        </g>
        <g id="Grupo_1034544" data-name="Grupo 1034544" transform="translate(221.199 235.661)" opacity="0.3">
          <g id="Grupo_1034543" data-name="Grupo 1034543" transform="translate(0)">
            <g id="Grupo_1034542" data-name="Grupo 1034542" clip-path="url(#clip-path-10)">
              <path id="Trazado_738679" data-name="Trazado 738679" d="M245.277,240.672l.3-.047c-3,3.407-7.974,3.762-12.511,3.793s-9.468-.261-12.511-3.627a61.4,61.4,0,0,0,24.719-.119" transform="translate(-220.558 -240.625)"/>
            </g>
          </g>
        </g>
      </g>
    </g>
    <g id="Grupo_1034556" data-name="Grupo 1034556" transform="translate(-49.95)">
      <g id="Grupo_1034555" data-name="Grupo 1034555" clip-path="url(#clip-path-2)">
        <path id="Trazado_738698" data-name="Trazado 738698" d="M30.347,457.233c0,.141,89.56.255,200.011.255,110.491,0,200.031-.114,200.031-.255s-89.54-.255-200.031-.255c-110.451,0-200.011.114-200.011.255" transform="translate(2.12 -9.427)" fill="#263238"/>
      </g>
    </g>
    <g id="Grupo_1034558" data-name="Grupo 1034558" transform="translate(-49.95)">
      <g id="Grupo_1034557" data-name="Grupo 1034557" clip-path="url(#clip-path-2)">
        <path id="Trazado_738699" data-name="Trazado 738699" d="M136.849,141.883l10.79-2.415a25.769,25.769,0,1,0-4.767-7.905l-.009-.012Z" transform="translate(135.562 -1.995)" fill="#fff"/>
        <path id="Trazado_738700" data-name="Trazado 738700" d="M136.679,141.88l5.93-10.38a.1.1,0,0,1,.164-.008l.008.012-.169.091a25.708,25.708,0,0,1-1.387-13.339,23.19,23.19,0,0,1,.991-3.962c.242-.659.466-1.338.734-2.009l.949-1.986A25.986,25.986,0,0,1,158.475,97.91a25.69,25.69,0,0,1,10.791-1.264,26.27,26.27,0,0,1,10.876,3.632,25.421,25.421,0,0,1,8.526,8.373,25.886,25.886,0,0,1,3.885,11.564,26.289,26.289,0,0,1-1.672,11.565,25.424,25.424,0,0,1-6.09,9.226,26.136,26.136,0,0,1-17.961,7.3,27.812,27.812,0,0,1-8.339-1.376,25.632,25.632,0,0,1-11.093-7.408l.091.029-10.81,2.324,10.769-2.506a.1.1,0,0,1,.091.029,25.57,25.57,0,0,0,11.038,7.276,27.657,27.657,0,0,0,8.252,1.327,25.855,25.855,0,0,0,17.713-7.257,25.084,25.084,0,0,0,5.988-9.1,25.936,25.936,0,0,0,1.637-11.4,25.522,25.522,0,0,0-3.829-11.39,25.075,25.075,0,0,0-8.4-8.249,25.918,25.918,0,0,0-10.712-3.589,25.369,25.369,0,0,0-10.639,1.23,25.706,25.706,0,0,0-14.421,12.193q-.477.993-.944,1.959c-.266.663-.491,1.333-.734,1.984a23.013,23.013,0,0,0-1,3.915,25.617,25.617,0,0,0,1.3,13.224.1.1,0,0,1-.17.091l-.008-.012.163-.008-6.1,10.283" transform="translate(135.731 -1.991)" fill="#263238"/>
        <path id="Trazado_738701" data-name="Trazado 738701" d="M148.6,123.285l3.7-3.7,7.128,6.337,13.991-13.465,3.432,3.7-17.951,16.9Z" transform="translate(139.839 -2.32)" fill="#ff9d00"/>
      </g>
    </g>
  </g>
</svg>
