<svg xmlns="http://www.w3.org/2000/svg" width="487.129" height="180" viewBox="0 0 487.129 180">
  <g id="Grupo_1036324" data-name="Grupo 1036324" transform="translate(-1176.871 -253)">
    <g id="Grupo_172418" data-name="Grupo 172418" transform="translate(0 18)">
      <rect id="Rectángulo_49853" data-name="Rectángulo 49853" width="487" height="12" transform="translate(1177 235)" fill="#15d3ec"/>
      <rect id="Rectángulo_49854" data-name="Rectángulo 49854" width="487" height="20" transform="translate(1177 247)" fill="#81d4fa"/>
      <g id="Grupo_172415" data-name="Grupo 172415" transform="translate(1186.273 145.944)">
        <line id="Línea_662" data-name="Línea 662" y2="102.384" transform="translate(22.453 101.134)" fill="none" stroke="#040405" stroke-linejoin="round" stroke-width="1"/>
        <line id="Línea_663" data-name="Línea 663" y2="102.384" transform="translate(66.002 101.134)" fill="none" stroke="#040405" stroke-linejoin="round" stroke-width="1"/>
        <line id="Línea_664" data-name="Línea 664" y2="102.384" transform="translate(109.551 101.134)" fill="none" stroke="#040405" stroke-linejoin="round" stroke-width="1"/>
        <line id="Línea_665" data-name="Línea 665" y2="102.384" transform="translate(172.262 101.134)" fill="none" stroke="#040405" stroke-linejoin="round" stroke-width="1"/>
        <line id="Línea_666" data-name="Línea 666" y2="102.384" transform="translate(215.811 101.134)" fill="none" stroke="#040405" stroke-linejoin="round" stroke-width="1"/>
        <line id="Línea_667" data-name="Línea 667" y2="102.384" transform="translate(259.36 101.134)" fill="none" stroke="#040405" stroke-linejoin="round" stroke-width="1"/>
        <line id="Línea_668" data-name="Línea 668" y2="102.384" transform="translate(302.909 101.134)" fill="none" stroke="#040405" stroke-linejoin="round" stroke-width="1"/>
        <line id="Línea_669" data-name="Línea 669" y2="102.384" transform="translate(346.459 101.134)" fill="none" stroke="#040405" stroke-linejoin="round" stroke-width="1"/>
        <line id="Línea_670" data-name="Línea 670" y2="102.384" transform="translate(390.008 101.134)" fill="none" stroke="#040405" stroke-linejoin="round" stroke-width="1"/>
        <line id="Línea_671" data-name="Línea 671" y2="102.384" transform="translate(433.557 101.134)" fill="none" stroke="#040405" stroke-linejoin="round" stroke-width="1"/>
        <line id="Línea_672" data-name="Línea 672" x2="486.623" transform="translate(-9.21 101.441)" fill="none" stroke="#040405" stroke-linejoin="round" stroke-width="1"/>
        <line id="Línea_673" data-name="Línea 673" x2="486.623" transform="translate(-9.21 120.615)" fill="none" stroke="#040405" stroke-linejoin="round" stroke-width="1"/>
        <line id="Línea_674" data-name="Línea 674" x2="486.623" transform="translate(-9.21 132.414)" fill="none" stroke="#040405" stroke-linejoin="round" stroke-width="1"/>
        <line id="Línea_675" data-name="Línea 675" x2="486.623" transform="translate(-9.21 144.213)" fill="none" stroke="#040405" stroke-linejoin="round" stroke-width="1"/>
        <line id="Línea_676" data-name="Línea 676" x2="486.623" transform="translate(-9.21 156.013)" fill="none" stroke="#040405" stroke-linejoin="round" stroke-width="1"/>
        <line id="Línea_677" data-name="Línea 677" x2="486.623" transform="translate(-9.21 167.812)" fill="none" stroke="#040405" stroke-linejoin="round" stroke-width="1"/>
        <line id="Línea_678" data-name="Línea 678" x2="486.623" transform="translate(-9.21 179.612)" fill="none" stroke="#040405" stroke-linejoin="round" stroke-width="1"/>
        <line id="Línea_679" data-name="Línea 679" x2="486.623" transform="translate(-9.21 191.411)" fill="none" stroke="#040405" stroke-linejoin="round" stroke-width="1"/>
        <line id="Línea_680" data-name="Línea 680" x2="486.623" transform="translate(-9.21 203.21)" fill="none" stroke="#040405" stroke-linejoin="round" stroke-width="1"/>
        <line id="Línea_681" data-name="Línea 681" y2="125.983" transform="translate(-8.902 89.334)" fill="none" stroke="#040405" stroke-linejoin="round" stroke-width="1"/>
        <line id="Línea_682" data-name="Línea 682" y2="125.983" transform="translate(477.106 89.334)" fill="none" stroke="#040405" stroke-linejoin="round" stroke-width="1"/>
        <line id="Línea_683" data-name="Línea 683" x2="486.623" transform="translate(-9.21 89.642)" fill="none" stroke="#040405" stroke-linejoin="round" stroke-width="1"/>
        <line id="Línea_684" data-name="Línea 684" x2="486.623" transform="translate(-9.21 215.01)" fill="none" stroke="#040405" stroke-linejoin="round" stroke-width="1"/>
        <rect id="Rectángulo_49856" data-name="Rectángulo 49856" width="487" height="127.207" transform="translate(-9.273 89.309)" fill="none"/>
        <rect id="Rectángulo_49857" data-name="Rectángulo 49857" width="487" height="127.207" transform="translate(-9.273 89.309)" fill="none"/>
        <g id="Grupo_172416" data-name="Grupo 172416" transform="translate(0 -0.311)">
          <text id="Conciliación_de_materiales_envase_" data-name="Conciliación de materiales (envase " transform="translate(150.931 97.295)" fill="#fff" font-size="5" font-family="Roboto-Bold, Roboto" font-weight="700"><tspan x="0" y="0">Conciliación de materiales (envase </tspan></text>
          <text id="_" data-name="–" transform="translate(230.931 97.295)" fill="#fff" font-size="5" font-family="Roboto-Bold, Roboto" font-weight="700"><tspan x="0" y="0">–</tspan></text>
          <text id="acondicionamiento_" data-name="acondicionamiento)" transform="translate(236.021 97.295)" fill="#fff" font-size="5" font-family="Roboto-Bold, Roboto" font-weight="700"><tspan x="0" y="0">acondicionamiento)</tspan></text>
        </g>
        <rect id="Rectángulo_49858" data-name="Rectángulo 49858" width="487" height="127.207" transform="translate(-9.273 89.309)" fill="none"/>
        <text id="Reposición" transform="translate(438.823 112.778)" fill="#040405" font-size="5" font-family="Roboto-Bold, Roboto" font-weight="700"><tspan x="0" y="0">Reposición</tspan></text>
        <rect id="Rectángulo_49859" data-name="Rectángulo 49859" width="487" height="127.207" transform="translate(-9.273 89.309)" fill="none"/>
        <text id="Cantidad_" data-name="Cantidad " transform="translate(398.663 109.091)" fill="#040405" font-size="5" font-family="Roboto-Bold, Roboto" font-weight="700"><tspan x="0" y="0">Cantidad </tspan></text>
        <rect id="Rectángulo_49860" data-name="Rectángulo 49860" width="487" height="127.207" transform="translate(-9.273 89.309)" fill="none"/>
        <text id="rechazada" transform="translate(396.819 116.465)" fill="#040405" font-size="5" font-family="Roboto-Bold, Roboto" font-weight="700"><tspan x="0" y="0">rechazada</tspan></text>
        <rect id="Rectángulo_49861" data-name="Rectángulo 49861" width="487" height="127.207" transform="translate(-9.273 89.309)" fill="none"/>
        <text id="Responsab" transform="translate(351.723 109.091)" fill="#040405" font-size="5" font-family="Roboto-Bold, Roboto" font-weight="700"><tspan x="0" y="0">Responsab</tspan></text>
        <rect id="Rectángulo_49862" data-name="Rectángulo 49862" width="487" height="127.207" transform="translate(-9.273 89.309)" fill="none"/>
        <text id="le_recibe" data-name="le recibe" transform="translate(355.852 116.465)" fill="#040405" font-size="5" font-family="Roboto-Bold, Roboto" font-weight="700"><tspan x="0" y="0">le recibe</tspan></text>
        <rect id="Rectángulo_49863" data-name="Rectángulo 49863" width="487" height="127.207" transform="translate(-9.273 89.309)" fill="none"/>
        <text id="Causal_" data-name="Causal*" transform="translate(313.488 112.778)" fill="#040405" font-size="5" font-family="Roboto-Bold, Roboto" font-weight="700"><tspan x="0" y="0">Causal*</tspan></text>
        <rect id="Rectángulo_49864" data-name="Rectángulo 49864" width="487" height="127.207" transform="translate(-9.273 89.309)" fill="none"/>
        <text id="Cantidad_2" data-name="Cantidad " transform="translate(268.018 109.091)" fill="#040405" font-size="5" font-family="Roboto-Bold, Roboto" font-weight="700"><tspan x="0" y="0">Cantidad </tspan></text>
        <rect id="Rectángulo_49865" data-name="Rectángulo 49865" width="487" height="127.207" transform="translate(-9.273 89.309)" fill="none"/>
        <text id="rechazada-2" data-name="rechazada" transform="translate(266.17 116.465)" fill="#040405" font-size="5" font-family="Roboto-Bold, Roboto" font-weight="700"><tspan x="0" y="0">rechazada</tspan></text>
        <rect id="Rectángulo_49866" data-name="Rectángulo 49866" width="487" height="127.207" transform="translate(-9.273 89.309)" fill="none"/>
        <text id="Responsab-2" data-name="Responsab" transform="translate(221.074 109.091)" fill="#040405" font-size="5" font-family="Roboto-Bold, Roboto" font-weight="700"><tspan x="0" y="0">Responsab</tspan></text>
        <rect id="Rectángulo_49867" data-name="Rectángulo 49867" width="487" height="127.207" transform="translate(-9.273 89.309)" fill="none"/>
        <text id="le_recibe-2" data-name="le recibe" transform="translate(225.208 116.465)" fill="#040405" font-size="5" font-family="Roboto-Bold, Roboto" font-weight="700"><tspan x="0" y="0">le recibe</tspan></text>
        <rect id="Rectángulo_49868" data-name="Rectángulo 49868" width="487" height="127.207" transform="translate(-9.273 89.309)" fill="none"/>
        <text id="Responsab-3" data-name="Responsab" transform="translate(177.529 109.091)" fill="#040405" font-size="5" font-family="Roboto-Bold, Roboto" font-weight="700"><tspan x="0" y="0">Responsab</tspan></text>
        <rect id="Rectángulo_49869" data-name="Rectángulo 49869" width="487" height="127.207" transform="translate(-9.273 89.309)" fill="none"/>
        <text id="le_entrega" data-name="le entrega" transform="translate(179.593 116.465)" fill="#040405" font-size="5" font-family="Roboto-Bold, Roboto" font-weight="700"><tspan x="0" y="0">le entrega</tspan></text>
        <rect id="Rectángulo_49870" data-name="Rectángulo 49870" width="487" height="127.207" transform="translate(-9.273 89.309)" fill="none"/>
        <path id="Trazado_208881" data-name="Trazado 208881" d="M-9.273,216.516h487V89.309h-487V216.516Z" transform="translate(0)" fill="none" fill-rule="evenodd"/>
        <path id="Trazado_208882" data-name="Trazado 208882" d="M-9.273,216.516h487V89.309h-487V216.516Z" transform="translate(0)" fill="none" fill-rule="evenodd"/>
        <path id="Trazado_208883" data-name="Trazado 208883" d="M-9.273,216.516h487V89.309h-487V216.516Z" transform="translate(0)" fill="none" fill-rule="evenodd"/>
        <path id="Trazado_208884" data-name="Trazado 208884" d="M-9.273,216.516h487V89.309h-487V216.516Z" transform="translate(0)" fill="none" fill-rule="evenodd"/>
        <path id="Trazado_208885" data-name="Trazado 208885" d="M-9.273,216.516h487V89.309h-487V216.516Z" transform="translate(0)" fill="none" fill-rule="evenodd"/>
        <path id="Trazado_208886" data-name="Trazado 208886" d="M-9.273,216.516h487V89.309h-487V216.516Z" transform="translate(0)" fill="none" fill-rule="evenodd"/>
        <path id="Trazado_208887" data-name="Trazado 208887" d="M-9.273,216.516h487V89.309h-487V216.516Z" transform="translate(0)" fill="none" fill-rule="evenodd"/>
        <path id="Trazado_208888" data-name="Trazado 208888" d="M-9.273,216.516h487V89.309h-487V216.516Z" transform="translate(0)" fill="none" fill-rule="evenodd"/>
        <path id="Trazado_208889" data-name="Trazado 208889" d="M-9.273,216.516h487V89.309h-487V216.516Z" transform="translate(0)" fill="none" fill-rule="evenodd"/>
        <path id="Trazado_208890" data-name="Trazado 208890" d="M-9.273,216.516h487V89.309h-487V216.516Z" transform="translate(0)" fill="none" fill-rule="evenodd"/>
        <path id="Trazado_208891" data-name="Trazado 208891" d="M-9.273,216.516h487V89.309h-487V216.516Z" transform="translate(0)" fill="none" fill-rule="evenodd"/>
        <path id="Trazado_208892" data-name="Trazado 208892" d="M-9.273,216.516h487V89.309h-487V216.516Z" transform="translate(0)" fill="none" fill-rule="evenodd"/>
        <path id="Trazado_208893" data-name="Trazado 208893" d="M-9.273,216.516h487V89.309h-487V216.516Z" transform="translate(0)" fill="none" fill-rule="evenodd"/>
        <path id="Trazado_208894" data-name="Trazado 208894" d="M-9.273,216.516h487V89.309h-487V216.516Z" transform="translate(0)" fill="none" fill-rule="evenodd"/>
        <path id="Trazado_208895" data-name="Trazado 208895" d="M-9.273,216.516h487V89.309h-487V216.516Z" transform="translate(0)" fill="none" fill-rule="evenodd"/>
        <text id="Cantidad_devuelta_" data-name="Cantidad devuelta " transform="translate(114.425 109.091)" fill="#040405" font-size="5" font-family="Roboto-Bold, Roboto" font-weight="700"><tspan x="0" y="0">Cantidad devuelta </tspan></text>
        <rect id="Rectángulo_49871" data-name="Rectángulo 49871" width="62.755" height="73.374" transform="translate(109.527 89.309)" fill="none"/>
        <path id="Trazado_208896" data-name="Trazado 208896" d="M184.047,162.683H246.8V89.309H184.047v73.374Z" transform="translate(-74.52)" fill="none" fill-rule="evenodd"/>
        <text id="_buena_calidad_" data-name="(buena calidad)" transform="translate(118.405 116.465)" fill="#040405" font-size="5" font-family="Roboto-Bold, Roboto" font-weight="700"><tspan x="0" y="0">(buena calidad)</tspan></text>
        <rect id="Rectángulo_49872" data-name="Rectángulo 49872" width="487" height="127.207" transform="translate(-9.273 89.309)" fill="none"/>
        <text id="O._Factory" data-name="O. Factory" transform="translate(72.671 112.778)" fill="#040405" font-size="5" font-family="Roboto-Bold, Roboto" font-weight="700"><tspan x="0" y="0">O. Factory</tspan></text>
        <rect id="Rectángulo_49873" data-name="Rectángulo 49873" width="487" height="127.207" transform="translate(-9.273 89.309)" fill="none"/>
        <text id="Stock" transform="translate(35.9 109.091)" fill="#040405" font-size="5" font-family="Roboto-BoldItalic, Roboto" font-weight="700" font-style="italic"><tspan x="0" y="0">Stock</tspan></text>
        <rect id="Rectángulo_49874" data-name="Rectángulo 49874" width="487" height="127.207" transform="translate(-9.273 89.309)" fill="none"/>
        <text id="material" transform="translate(32.51 116.465)" fill="#040405" font-size="5" font-family="Roboto-Bold, Roboto" font-weight="700"><tspan x="0" y="0">material</tspan></text>
        <rect id="Rectángulo_49875" data-name="Rectángulo 49875" width="487" height="127.207" transform="translate(-9.273 89.309)" fill="none"/>
        <text id="Fecha" transform="translate(-2.081 112.778)" fill="#040405" font-size="5" font-family="Roboto-Bold, Roboto" font-weight="700"><tspan x="0" y="0">Fecha</tspan></text>
        <rect id="Rectángulo_49876" data-name="Rectángulo 49876" width="487" height="127.207" transform="translate(-9.273 89.309)" fill="none"/>
        <text id="_En_la_columna_" data-name="* En la columna " transform="translate(109.705 210.862)" fill="#040405" font-size="5" font-family="Roboto-Regular, Roboto"><tspan x="0" y="0">* En la columna </tspan></text>
        <rect id="Rectángulo_49877" data-name="Rectángulo 49877" width="487" height="127.207" transform="translate(-9.273 89.309)" fill="none"/>
        <text id="causal" transform="translate(148.013 210.862)" fill="#040405" font-size="5" font-family="Roboto-Bold, Roboto" font-weight="700"><tspan x="0" y="0">causal</tspan></text>
        <rect id="Rectángulo_49878" data-name="Rectángulo 49878" width="487" height="127.207" transform="translate(-9.273 89.309)" fill="none"/>
        <text id="se_debe_especificar_el_número_de_alguno_de_los_siguientes_defectos." data-name="se debe especificar el número de alguno de los siguientes defectos." transform="translate(165.662 210.862)" fill="#040405" font-size="5" font-family="Roboto-Regular, Roboto"><tspan x="0" y="0">se debe especificar el número de alguno de los siguientes defectos.</tspan></text>
        <rect id="Rectángulo_49879" data-name="Rectángulo 49879" width="487" height="127.207" transform="translate(-9.273 89.309)" fill="none"/>
        <path id="Trazado_208897" data-name="Trazado 208897" d="M-9.273,216.516h487V89.309h-487V216.516Z" transform="translate(0)" fill="none" fill-rule="evenodd"/>
        <path id="Trazado_208898" data-name="Trazado 208898" d="M-9.273,216.516h487V89.309h-487V216.516Z" transform="translate(0)" fill="none" fill-rule="evenodd"/>
        <path id="Trazado_208899" data-name="Trazado 208899" d="M-9.273,216.516h487V89.309h-487V216.516Z" transform="translate(0)" fill="none" fill-rule="evenodd"/>
        <path id="Trazado_208900" data-name="Trazado 208900" d="M-9.273,216.516h487V89.309h-487V216.516Z" transform="translate(0)" fill="none" fill-rule="evenodd"/>
        <path id="Trazado_208901" data-name="Trazado 208901" d="M-9.273,216.516h487V89.309h-487V216.516Z" transform="translate(0)" fill="none" fill-rule="evenodd"/>
        <path id="Trazado_208902" data-name="Trazado 208902" d="M-9.273,216.516h487V89.309h-487V216.516Z" transform="translate(0)" fill="none" fill-rule="evenodd"/>
        <path id="Trazado_208903" data-name="Trazado 208903" d="M-9.273,216.516h487V89.309h-487V216.516Z" transform="translate(0)" fill="none" fill-rule="evenodd"/>
        <path id="Trazado_208904" data-name="Trazado 208904" d="M-9.273,216.516h487V89.309h-487V216.516Z" transform="translate(0)" fill="none" fill-rule="evenodd"/>
        <line id="Línea_685" data-name="Línea 685" y2="31.588" transform="translate(84.618 236.257)" fill="none" stroke="#040405" stroke-linejoin="round" stroke-width="1"/>
        <line id="Línea_686" data-name="Línea 686" y2="31.588" transform="translate(154.296 236.257)" fill="none" stroke="#040405" stroke-linejoin="round" stroke-width="1"/>
        <line id="Línea_687" data-name="Línea 687" y2="31.588" transform="translate(164.375 236.257)" fill="none" stroke="#040405" stroke-linejoin="round" stroke-width="1"/>
        <line id="Línea_688" data-name="Línea 688" y2="31.588" transform="translate(234.054 236.257)" fill="none" stroke="#040405" stroke-linejoin="round" stroke-width="1"/>
        <line id="Línea_689" data-name="Línea 689" y2="31.588" transform="translate(244.133 236.257)" fill="none" stroke="#040405" stroke-linejoin="round" stroke-width="1"/>
        <line id="Línea_690" data-name="Línea 690" y2="31.588" transform="translate(313.812 236.257)" fill="none" stroke="#040405" stroke-linejoin="round" stroke-width="1"/>
        <line id="Línea_691" data-name="Línea 691" y2="31.588" transform="translate(323.891 236.257)" fill="none" stroke="#040405" stroke-linejoin="round" stroke-width="1"/>
        <line id="Línea_692" data-name="Línea 692" x2="319.646" transform="translate(74.231 255.738)" fill="none" stroke="#040405" stroke-linejoin="round" stroke-width="1"/>
        <line id="Línea_693" data-name="Línea 693" y2="31.588" transform="translate(74.538 236.257)" fill="none" stroke="#040405" stroke-linejoin="round" stroke-width="1"/>
        <line id="Línea_694" data-name="Línea 694" y2="31.588" transform="translate(393.57 236.257)" fill="none" stroke="#040405" stroke-linejoin="round" stroke-width="1"/>
        <line id="Línea_695" data-name="Línea 695" x2="319.646" transform="translate(74.231 236.564)" fill="none" stroke="#040405" stroke-linejoin="round" stroke-width="1"/>
        <line id="Línea_696" data-name="Línea 696" x2="319.646" transform="translate(74.231 267.537)" fill="none" stroke="#040405" stroke-linejoin="round" stroke-width="1"/>
        <text id="Por_proceso." data-name="Por proceso." transform="translate(341.33 247.906)" fill="#040405" font-size="5" font-family="Roboto-Regular, Roboto"><tspan x="0" y="0">Por proceso.</tspan></text>
        <rect id="Rectángulo_49880" data-name="Rectángulo 49880" width="320.045" height="32.816" transform="translate(74.204 236.241)" fill="none"/>
        <path id="Trazado_208905" data-name="Trazado 208905" d="M126.567,361.222H446.612V328.407H126.567v32.816Z" transform="translate(-52.363 -92.166)" fill="none" fill-rule="evenodd"/>
        <text id="_7" data-name="7" transform="translate(317.162 247.906)" fill="#040405" font-size="5" font-family="Roboto-Regular, Roboto"><tspan x="0" y="0">7</tspan></text>
        <rect id="Rectángulo_49881" data-name="Rectángulo 49881" width="10.103" height="32.816" transform="translate(313.796 236.241)" fill="none"/>
        <path id="Trazado_208906" data-name="Trazado 208906" d="M516.447,361.222h10.1V328.407h-10.1v32.816Z" transform="translate(-202.651 -92.166)" fill="none" fill-rule="evenodd"/>
        <text id="Dimensiones_" data-name="Dimensiones " transform="translate(261.202 244.214)" fill="#040405" font-size="5" font-family="Roboto-Regular, Roboto"><tspan x="0" y="0">Dimensiones </tspan></text>
        <rect id="Rectángulo_49882" data-name="Rectángulo 49882" width="320.045" height="32.816" transform="translate(74.204 236.241)" fill="none"/>
        <text id="erróneas." transform="translate(265.993 251.588)" fill="#040405" font-size="5" font-family="Roboto-Regular, Roboto"><tspan x="0" y="0">erróneas.</tspan></text>
        <rect id="Rectángulo_49883" data-name="Rectángulo 49883" width="320.045" height="32.816" transform="translate(74.204 236.241)" fill="none"/>
        <path id="Trazado_208907" data-name="Trazado 208907" d="M126.567,361.222H446.612V328.407H126.567v32.816Z" transform="translate(-52.363 -92.166)" fill="none" fill-rule="evenodd"/>
        <path id="Trazado_208908" data-name="Trazado 208908" d="M126.567,361.222H446.612V328.407H126.567v32.816Z" transform="translate(-52.363 -92.166)" fill="none" fill-rule="evenodd"/>
        <text id="_5" data-name="5" transform="translate(237.403 247.906)" fill="#040405" font-size="5" font-family="Roboto-Regular, Roboto"><tspan x="0" y="0">5</tspan></text>
        <rect id="Rectángulo_49884" data-name="Rectángulo 49884" width="10.177" height="32.816" transform="translate(234.006 236.241)" fill="none"/>
        <path id="Trazado_208909" data-name="Trazado 208909" d="M386.607,361.222h10.177V328.407H386.607v32.816Z" transform="translate(-152.601 -92.166)" fill="none" fill-rule="evenodd"/>
        <text id="Rayones." transform="translate(186.383 247.906)" fill="#040405" font-size="5" font-family="Roboto-Regular, Roboto"><tspan x="0" y="0">Rayones.</tspan></text>
        <rect id="Rectángulo_49885" data-name="Rectángulo 49885" width="320.045" height="32.816" transform="translate(74.204 236.241)" fill="none"/>
        <path id="Trazado_208910" data-name="Trazado 208910" d="M126.567,361.222H446.612V328.407H126.567v32.816Z" transform="translate(-52.363 -92.166)" fill="none" fill-rule="evenodd"/>
        <text id="_3" data-name="3" transform="translate(157.645 247.906)" fill="#040405" font-size="5" font-family="Roboto-Regular, Roboto"><tspan x="0" y="0">3</tspan></text>
        <rect id="Rectángulo_49886" data-name="Rectángulo 49886" width="10.103" height="32.816" transform="translate(154.289 236.241)" fill="none"/>
        <path id="Trazado_208911" data-name="Trazado 208911" d="M256.887,361.222h10.1V328.407h-10.1v32.816Z" transform="translate(-102.598 -92.166)" fill="none" fill-rule="evenodd"/>
        <text id="Error_de_impresión." data-name="Error de impresión." transform="translate(93.355 247.906)" fill="#040405" font-size="5" font-family="Roboto-Regular, Roboto"><tspan x="0" y="0">Error de impresión.</tspan></text>
        <rect id="Rectángulo_49887" data-name="Rectángulo 49887" width="320.045" height="32.816" transform="translate(74.204 236.241)" fill="none"/>
        <path id="Trazado_208912" data-name="Trazado 208912" d="M126.567,361.222H446.612V328.407H126.567v32.816Z" transform="translate(-52.363 -92.166)" fill="none" fill-rule="evenodd"/>
        <text id="_1" data-name="1" transform="translate(77.891 247.906)" fill="#040405" font-size="5" font-family="Roboto-Regular, Roboto"><tspan x="0" y="0">1</tspan></text>
        <rect id="Rectángulo_49888" data-name="Rectángulo 49888" width="10.177" height="32.816" transform="translate(74.499 236.241)" fill="none"/>
        <path id="Trazado_208913" data-name="Trazado 208913" d="M127.047,361.222h10.177V328.407H127.047v32.816Z" transform="translate(-52.548 -92.166)" fill="none" fill-rule="evenodd"/>
        <text id="Otro:___________" transform="translate(333.217 263.389)" fill="#040405" font-size="5" font-family="Roboto-Regular, Roboto"><tspan x="0" y="0">Otro:___________</tspan></text>
        <rect id="Rectángulo_49889" data-name="Rectángulo 49889" width="320.045" height="32.816" transform="translate(74.204 236.241)" fill="none"/>
        <path id="Trazado_208914" data-name="Trazado 208914" d="M126.567,361.222H446.612V328.407H126.567v32.816Z" transform="translate(-52.363 -92.166)" fill="none" fill-rule="evenodd"/>
        <text id="_8" data-name="8" transform="translate(317.162 263.389)" fill="#040405" font-size="5" font-family="Roboto-Regular, Roboto"><tspan x="0" y="0">8</tspan></text>
        <rect id="Rectángulo_49890" data-name="Rectángulo 49890" width="10.103" height="32.816" transform="translate(313.796 236.241)" fill="none"/>
        <path id="Trazado_208915" data-name="Trazado 208915" d="M516.447,361.222h10.1V328.407h-10.1v32.816Z" transform="translate(-202.651 -92.166)" fill="none" fill-rule="evenodd"/>
        <text id="Contaminación." transform="translate(257.664 263.389)" fill="#040405" font-size="5" font-family="Roboto-Regular, Roboto"><tspan x="0" y="0">Contaminación.</tspan></text>
        <rect id="Rectángulo_49891" data-name="Rectángulo 49891" width="320.045" height="32.816" transform="translate(74.204 236.241)" fill="none"/>
        <path id="Trazado_208916" data-name="Trazado 208916" d="M126.567,361.222H446.612V328.407H126.567v32.816Z" transform="translate(-52.363 -92.166)" fill="none" fill-rule="evenodd"/>
        <text id="_6" data-name="6" transform="translate(237.403 263.389)" fill="#040405" font-size="5" font-family="Roboto-Regular, Roboto"><tspan x="0" y="0">6</tspan></text>
        <rect id="Rectángulo_49892" data-name="Rectángulo 49892" width="10.177" height="32.816" transform="translate(234.006 236.241)" fill="none"/>
        <path id="Trazado_208917" data-name="Trazado 208917" d="M386.607,361.222h10.177V328.407H386.607v32.816Z" transform="translate(-152.601 -92.166)" fill="none" fill-rule="evenodd"/>
        <text id="Quebrado_Roto." data-name="Quebrado/Roto." transform="translate(177.463 263.389)" fill="#040405" font-size="5" font-family="Roboto-Regular, Roboto"><tspan x="0" y="0">Quebrado/Roto.</tspan></text>
        <rect id="Rectángulo_49893" data-name="Rectángulo 49893" width="320.045" height="32.816" transform="translate(74.204 236.241)" fill="none"/>
        <path id="Trazado_208918" data-name="Trazado 208918" d="M126.567,361.222H446.612V328.407H126.567v32.816Z" transform="translate(-52.363 -92.166)" fill="none" fill-rule="evenodd"/>
        <text id="_4" data-name="4" transform="translate(157.645 263.389)" fill="#040405" font-size="5" font-family="Roboto-Regular, Roboto"><tspan x="0" y="0">4</tspan></text>
        <rect id="Rectángulo_49894" data-name="Rectángulo 49894" width="10.103" height="32.816" transform="translate(154.289 236.241)" fill="none"/>
        <path id="Trazado_208919" data-name="Trazado 208919" d="M256.887,361.222h10.1V328.407h-10.1v32.816Z" transform="translate(-102.598 -92.166)" fill="none" fill-rule="evenodd"/>
        <text id="Golpe." transform="translate(110.465 263.389)" fill="#040405" font-size="5" font-family="Roboto-Regular, Roboto"><tspan x="0" y="0">Golpe.</tspan></text>
        <rect id="Rectángulo_49895" data-name="Rectángulo 49895" width="320.045" height="32.816" transform="translate(74.204 236.241)" fill="none"/>
        <path id="Trazado_208920" data-name="Trazado 208920" d="M126.567,361.222H446.612V328.407H126.567v32.816Z" transform="translate(-52.363 -92.166)" fill="none" fill-rule="evenodd"/>
        <text id="_2" data-name="2" transform="translate(77.891 263.389)" fill="#040405" font-size="5" font-family="Roboto-Regular, Roboto"><tspan x="0" y="0">2</tspan></text>
        <rect id="Rectángulo_49896" data-name="Rectángulo 49896" width="10.177" height="32.816" transform="translate(74.499 236.241)" fill="none"/>
        <path id="Trazado_208921" data-name="Trazado 208921" d="M127.047,361.222h10.177V328.407H127.047v32.816Z" transform="translate(-52.548 -92.166)" fill="none" fill-rule="evenodd"/>
      </g>
    </g>
  </g>
</svg>
