<svg xmlns="http://www.w3.org/2000/svg" xmlns:xlink="http://www.w3.org/1999/xlink" width="80.217" height="96.14" viewBox="0 0 80.217 96.14">
  <defs>
    <linearGradient id="linear-gradient" x1="-29.043" y1="16.82" x2="-29.043" y2="15.809" gradientUnits="objectBoundingBox">
      <stop offset="0.006" stop-color="#c59c41"/>
      <stop offset="0.008" stop-color="#cca248"/>
      <stop offset="0.013" stop-color="#ddb158"/>
      <stop offset="0.02" stop-color="#e9bc64"/>
      <stop offset="0.029" stop-color="#f0c26b"/>
      <stop offset="0.056" stop-color="#f2c46d"/>
      <stop offset="0.061" stop-color="#f4cc74"/>
      <stop offset="0.072" stop-color="#f9dd83"/>
      <stop offset="0.087" stop-color="#fce98e"/>
      <stop offset="0.107" stop-color="#fef094"/>
      <stop offset="0.163" stop-color="#fff296"/>
      <stop offset="0.227" stop-color="#fef094"/>
      <stop offset="0.25" stop-color="#feeb8d"/>
      <stop offset="0.266" stop-color="#fee381"/>
      <stop offset="0.28" stop-color="#fdd670"/>
      <stop offset="0.291" stop-color="#fcc75b"/>
      <stop offset="0.292" stop-color="#fcc558"/>
      <stop offset="0.292" stop-color="#f4bf55"/>
      <stop offset="0.294" stop-color="#cb9c47"/>
      <stop offset="0.297" stop-color="#a67d3a"/>
      <stop offset="0.299" stop-color="#85622f"/>
      <stop offset="0.302" stop-color="#6a4c25"/>
      <stop offset="0.305" stop-color="#543a1d"/>
      <stop offset="0.309" stop-color="#432b18"/>
      <stop offset="0.313" stop-color="#372214"/>
      <stop offset="0.32" stop-color="#301c11"/>
      <stop offset="0.337" stop-color="#2f1b11"/>
      <stop offset="0.347" stop-color="#422a14"/>
      <stop offset="0.369" stop-color="#67471b"/>
      <stop offset="0.393" stop-color="#876121"/>
      <stop offset="0.419" stop-color="#a27626"/>
      <stop offset="0.449" stop-color="#b8882a"/>
      <stop offset="0.485" stop-color="#c9952e"/>
      <stop offset="0.528" stop-color="#d59f30"/>
      <stop offset="0.589" stop-color="#dca431"/>
      <stop offset="0.758" stop-color="#dea632"/>
      <stop offset="0.764" stop-color="#dea632"/>
      <stop offset="0.798" stop-color="#dea632"/>
      <stop offset="0.853" stop-color="#dca430"/>
      <stop offset="0.873" stop-color="#d59d2d"/>
      <stop offset="0.888" stop-color="#c99126"/>
      <stop offset="0.899" stop-color="#b8811d"/>
      <stop offset="0.904" stop-color="#ae7718"/>
      <stop offset="0.915" stop-color="#b48227"/>
      <stop offset="0.928" stop-color="#b98a33"/>
      <stop offset="0.947" stop-color="#bc8f3a"/>
      <stop offset="1" stop-color="#bd913c"/>
    </linearGradient>
  </defs>
  <g id="Grupo_1034710" data-name="Grupo 1034710" transform="translate(-237.739 -172.652)">
    <path id="Trazado_739602" data-name="Trazado 739602" d="M356.382,198.065a2.94,2.94,0,0,0-2.738-3.087l-5.784-.391c-.057-.006-.114-.012-.172-.015l-.29-.016h0l-59.29-3.327a2.988,2.988,0,0,0-3.151,2.816l-4.3,76.59a2.988,2.988,0,0,0,2.816,3.151l59.58,3.343a2.988,2.988,0,0,0,3.151-2.816l2.725-48.56,3.019.189a2.94,2.94,0,0,0,3.12-2.781Z" transform="translate(-38.429 -16.63)" fill="#fca01f"/>
    <g id="Grupo_1034685" data-name="Grupo 1034685" transform="translate(242.562 175.532)" opacity="0.46">
      <path id="Trazado_739603" data-name="Trazado 739603" d="M337.985,200.205a2.974,2.974,0,0,0-1.6.361l5.106-.164Z" transform="translate(-330.898 -200.2)" fill="#9f5e11"/>
      <path id="Trazado_739604" data-name="Trazado 739604" d="M322.461,283.149l22.158,1,3.571-79.949-53.715-2.074-5.106.164a2.985,2.985,0,0,0-1.551,2.455l-2.426,43.23-1.511,33.428Z" transform="translate(-283.882 -201.927)" fill="#9f5e11"/>
      <path id="Trazado_739605" data-name="Trazado 739605" d="M322.461,283.149l22.158,1,3.571-79.949-53.715-2.074-5.106.164a2.985,2.985,0,0,0-1.551,2.455l-2.426,43.23-1.511,33.428Z" transform="translate(-283.882 -201.927)" fill="#9f5e11" opacity="0.56"/>
    </g>
    <g id="Grupo_1034686" data-name="Grupo 1034686" transform="translate(240.263 176.244)" opacity="0.46">
      <path id="Trazado_739606" data-name="Trazado 739606" d="M268.4,218.76l-6.514.317,3.005,61.841,3.468-61.812A3.017,3.017,0,0,1,268.4,218.76Z" transform="translate(-261.884 -217.532)" fill="#9f5e11"/>
      <path id="Trazado_739607" data-name="Trazado 739607" d="M348.5,208.649l-29.1-1.633-25.262,1.228a3.011,3.011,0,0,0-.04.345L290.633,270.4l.857,17.638a2.978,2.978,0,0,0,1.13.291l18.749,1.052,40.961-1.99Z" transform="translate(-287.628 -207.016)" fill="#9f5e11"/>
    </g>
    <rect id="Rectángulo_351084" data-name="Rectángulo 351084" width="60.799" height="81.879" transform="matrix(0.999, -0.049, 0.049, 0.999, 239.287, 176.828)" fill="#fff"/>
    <g id="Grupo_1034687" data-name="Grupo 1034687" transform="translate(239.287 174.696)" opacity="0.69">
      <path id="Trazado_739608" data-name="Trazado 739608" d="M252.551,209.939l3.3,67.978,3.087-68.288Z" transform="translate(-252.551 -207.807)" fill="#8c8b8b"/>
      <path id="Trazado_739609" data-name="Trazado 739609" d="M341.655,192.969l-16.933-.765-37.482,1.821-3.087,68.288.488,10.041,40.219,1.818,19.661-.955.5-11.007Z" transform="translate(-280.85 -192.204)" fill="#8c8b8b" opacity="0.7"/>
    </g>
    <g id="Grupo_1034688" data-name="Grupo 1034688" transform="translate(241.512 173.878)">
      <path id="Trazado_739610" data-name="Trazado 739610" d="M668.771,192.749l-6.661-.3,2.585,80.395-21.78.7,22.158,1Z" transform="translate(-604.336 -191.604)" fill="#fff"/>
      <path id="Trazado_739611" data-name="Trazado 739611" d="M331.6,185.222l-18.661-.843-35.54,1.143-3.573,79.052,38.579,1.744,21.78-.7Z" transform="translate(-273.83 -184.379)" fill="#fff"/>
      <path id="Trazado_739612" data-name="Trazado 739612" d="M331.6,185.222l-18.661-.843-35.54,1.143-3.573,79.052,38.579,1.744,21.78-.7Z" transform="translate(-273.83 -184.379)" fill="#8c8b8b" opacity="0.46"/>
    </g>
    <g id="Grupo_1034694" data-name="Grupo 1034694" transform="translate(237.739 172.653)">
      <rect id="Rectángulo_351085" data-name="Rectángulo 351085" width="60.799" height="81.879" transform="translate(0 1.954) rotate(-1.842)" fill="#fff"/>
      <path id="Trazado_739613" data-name="Trazado 739613" d="M336.007,274.812l-50.213,1.615a.751.751,0,0,1-.775-.726v-.015a.751.751,0,0,1,.726-.775l50.213-1.614a.751.751,0,0,1,.775.726v.015A.751.751,0,0,1,336.007,274.812Z" transform="translate(-280.076 -262.775)" fill="#d2d1d1"/>
      <path id="Trazado_739614" data-name="Trazado 739614" d="M313.011,314.324l-26.184.842a.751.751,0,0,1-.775-.726v-.015a.751.751,0,0,1,.726-.775l26.184-.842a.751.751,0,0,1,.775.726v.015A.751.751,0,0,1,313.011,314.324Z" transform="translate(-281.001 -298.157)" fill="#d2d1d1"/>
      <path id="Trazado_739615" data-name="Trazado 739615" d="M329.389,340.677l-41.563,1.336a.751.751,0,0,1-.775-.726v-.015a.751.751,0,0,1,.726-.775l41.563-1.336a.751.751,0,0,1,.775.726v.015A.751.751,0,0,1,329.389,340.677Z" transform="translate(-281.896 -321.756)" fill="#d2d1d1"/>
      <rect id="Rectángulo_351086" data-name="Rectángulo 351086" width="51.74" height="1.523" rx="0.762" transform="translate(5.235 21.998) rotate(-1.842)" fill="#d2d1d1"/>
      <path id="Rectángulo_351087" data-name="Rectángulo 351087" d="M.762,0H50.979a.761.761,0,0,1,.761.761v0a.761.761,0,0,1-.761.761H.761A.761.761,0,0,1,0,.762v0A.762.762,0,0,1,.762,0Z" transform="matrix(0.999, -0.032, 0.032, 0.999, 5.343, 25.369)" fill="#d2d1d1"/>
      <path id="Trazado_739616" data-name="Trazado 739616" d="M341.072,432.4l-50.207,1.614a.754.754,0,0,1-.778-.729v-.015a.754.754,0,0,1,.729-.778l50.207-1.614a.754.754,0,0,1,.778.729v.015A.754.754,0,0,1,341.072,432.4Z" transform="translate(-284.615 -403.89)" fill="#d2d1d1"/>
      <path id="Rectángulo_351088" data-name="Rectángulo 351088" d="M.761,0H34.172a.762.762,0,0,1,.762.762v0a.761.761,0,0,1-.761.761H.762A.762.762,0,0,1,0,.761v0A.761.761,0,0,1,.761,0Z" transform="translate(5.555 31.969) rotate(-1.842)" fill="#d2d1d1"/>
      <path id="Trazado_739617" data-name="Trazado 739617" d="M344.053,525.117l-50.207,1.614a.754.754,0,0,1-.778-.729v-.028a.754.754,0,0,1,.729-.778L344,523.583a.754.754,0,0,1,.778.729v.028A.754.754,0,0,1,344.053,525.117Z" transform="translate(-287.284 -486.901)" fill="#d2d1d1"/>
      <path id="Trazado_739618" data-name="Trazado 739618" d="M345.1,557.629l-50.207,1.614a.754.754,0,0,1-.778-.729v-.028a.754.754,0,0,1,.729-.778l50.207-1.614a.754.754,0,0,1,.778.729v.028A.754.754,0,0,1,345.1,557.629Z" transform="translate(-288.22 -516.015)" fill="#d2d1d1"/>
      <path id="Trazado_739619" data-name="Trazado 739619" d="M313.257,708.308l-14.623.47a.6.6,0,0,1-.623-.584v-.012a.6.6,0,0,1,.584-.623l14.623-.47a.6.6,0,0,1,.623.584v.012A.6.6,0,0,1,313.257,708.308Z" transform="translate(-291.711 -651.226)" fill="#d2d1d1"/>
      <path id="Trazado_739620" data-name="Trazado 739620" d="M312.1,734.739l-12.636.406a.6.6,0,0,1-.623-.584v-.012a.6.6,0,0,1,.584-.623l12.636-.406a.6.6,0,0,1,.623.584v.012A.6.6,0,0,1,312.1,734.739Z" transform="translate(-292.454 -674.895)" fill="#d2d1d1"/>
      <path id="Trazado_739621" data-name="Trazado 739621" d="M654.816,697.325l-14.623.47a.6.6,0,0,1-.623-.584V697.2a.6.6,0,0,1,.584-.623l14.623-.47a.6.6,0,0,1,.623.584v.012A.6.6,0,0,1,654.816,697.325Z" transform="translate(-597.568 -641.391)" fill="#d2d1d1"/>
      <path id="Trazado_739622" data-name="Trazado 739622" d="M650.47,724.738l-9.446.3a.6.6,0,0,1-.623-.584v-.012a.6.6,0,0,1,.584-.623l9.446-.3a.6.6,0,0,1,.623.584v.012A.6.6,0,0,1,650.47,724.738Z" transform="translate(-598.311 -665.939)" fill="#d2d1d1"/>
      <path id="Rectángulo_351089" data-name="Rectángulo 351089" d="M.768,0H33.539a.768.768,0,0,1,.768.768v0a.768.768,0,0,1-.768.768H.768A.768.768,0,0,1,0,.768v0A.768.768,0,0,1,.768,0Z" transform="matrix(0.999, -0.032, 0.032, 0.999, 5.974, 45.007)" fill="#d2d1d1"/>
      <path id="Trazado_739623" data-name="Trazado 739623" d="M343.136,496.586,292.929,498.2a.754.754,0,0,1-.778-.729v-.015a.754.754,0,0,1,.729-.778l50.207-1.614a.754.754,0,0,1,.778.729v.015A.754.754,0,0,1,343.136,496.586Z" transform="translate(-286.463 -461.363)" fill="#d2d1d1"/>
      <g id="Grupo_1034691" data-name="Grupo 1034691" transform="translate(40.492 62.081)">
        <g id="Grupo_1034690" data-name="Grupo 1034690">
          <path id="Trazado_739624" data-name="Trazado 739624" d="M747.275,797.452l-.034.011.046-.01Z" transform="translate(-734.476 -794.225)" fill="#3c78bc"/>
          <g id="Grupo_1034689" data-name="Grupo 1034689">
            <path id="Trazado_739625" data-name="Trazado 739625" d="M639.889,769.816c-.389-.8-2.02-.83-2.754-.794a22.481,22.481,0,0,0-4.493.837.355.355,0,0,0-.4.1l-.137.073a.19.19,0,0,0-.07-.067.363.363,0,0,0-.44-.176,2.2,2.2,0,0,0-.59.327,2.338,2.338,0,0,0-.2.2c.052-.174.2-.668.244-.848.084-.321-.717-.373-.817-.111-.034.091-.195.511-.261.681l-.084.218a2.723,2.723,0,0,1-.161.286,2.119,2.119,0,0,0-.109-.663.413.413,0,0,0-.049-.09c-.066-.224-.187-.3-.35-.258a.294.294,0,0,0-.138.109,6.575,6.575,0,0,0,.033-2.18.365.365,0,0,0-.029-.089,4.466,4.466,0,0,0,.047-.462l.009-.017a.2.2,0,0,0-.068-.273.186.186,0,0,0-.3.1h0a26.2,26.2,0,0,1-2.071,2.671c-.279.326-.549.63-.781.877-.091.086-.181.172-.268.263a.421.421,0,0,0-.035.045,1.353,1.353,0,0,1-.363.283.2.2,0,1,0,.123.385h0a1.205,1.205,0,0,1,.53-.063.358.358,0,0,0,.309-.119c.507-.533,1.088-.986,1.606-1.509a4.811,4.811,0,0,0,.589-.753c-.047.61-.18,1.219-.245,1.823-.015.139-.022.278-.028.417-.082.592-.157,1.164-.214,1.653a3.062,3.062,0,0,0-.091.575.309.309,0,0,0,.027.138.159.159,0,0,0,.064.1.386.386,0,0,0,.58.017,4.2,4.2,0,0,0,.559-1.509c.039-.134.079-.267.118-.4a.362.362,0,0,0,.348.061,1.61,1.61,0,0,0,.483-.319.4.4,0,0,0,.3.131,1.338,1.338,0,0,0,.936-.529.207.207,0,0,0,.132.057h0a.283.283,0,0,0,.082,0c.249-.009,1-.06,1.152-.358a.432.432,0,0,0,.1-.013c1.1-.286,2.2-.532,3.336-.713a6.867,6.867,0,0,1,1.865-.12c.107-.033.226-.068.012,0-.178.052-.129.036-.046.01-1.065.214-3.465.907-4.528,1.276-.482.167-.965.348-1.435.541a5.329,5.329,0,0,0-1.348.63.367.367,0,0,0-.167.425c.015.32.289.432.647.269,1.99-.906.858-.4,2.68-1.15.995-.408,2.121-.689,3.151-1a8.26,8.26,0,0,1,1.431-.3c.614-.078.911-.026,1.358-.109C639.945,770.343,639.986,770.016,639.889,769.816Z" transform="translate(-625.122 -766.579)" fill="#3c78bc"/>
          </g>
        </g>
      </g>
      <g id="Grupo_1034693" data-name="Grupo 1034693" transform="translate(10.031 62.88)">
        <g id="Grupo_1034692" data-name="Grupo 1034692">
          <path id="Trazado_739626" data-name="Trazado 739626" d="M343.128,776.189a3.174,3.174,0,0,1-1-.957,3.179,3.179,0,0,1-1.215-.665,3.18,3.18,0,0,1-1.346-.328,3.174,3.174,0,0,1-1.385.031,3.176,3.176,0,0,1-1.33.389,3.179,3.179,0,0,1-1.184.719,3.179,3.179,0,0,1-.957,1,3.18,3.18,0,0,1-.666,1.215,3.178,3.178,0,0,1-.328,1.346,3.178,3.178,0,0,1,.031,1.385,3.179,3.179,0,0,1,.388,1.33,3.176,3.176,0,0,1,.719,1.184,3.179,3.179,0,0,1,1,.957,3.177,3.177,0,0,1,1.215.665,3.178,3.178,0,0,1,1.346.328,3.179,3.179,0,0,1,1.385-.031,3.178,3.178,0,0,1,1.33-.389,3.179,3.179,0,0,1,1.184-.719,3.178,3.178,0,0,1,.957-1,3.179,3.179,0,0,1,.665-1.215,3.178,3.178,0,0,1,.328-1.346,3.177,3.177,0,0,1-.031-1.385,3.177,3.177,0,0,1-.389-1.33,3.179,3.179,0,0,1-.719-1.184Zm-1.191,6.989a4.7,4.7,0,1,1,.719-6.609A4.7,4.7,0,0,1,341.937,783.177Z" transform="translate(-333.706 -774.227)" fill="#cdd6e4"/>
          <path id="Trazado_739627" data-name="Trazado 739627" d="M343.977,783.828a4.383,4.383,0,1,0,6.162.671A4.383,4.383,0,0,0,343.977,783.828Zm4.753,5.914a3.2,3.2,0,1,1,.49-4.505A3.2,3.2,0,0,1,348.73,789.742Z" transform="translate(-341.437 -781.959)" fill="#cdd6e4"/>
          <path id="Trazado_739628" data-name="Trazado 739628" d="M359.682,799.856a1.734,1.734,0,0,1,1.822-.218l.81-.651a2.706,2.706,0,0,0-4.047,3.252l.81-.651A1.733,1.733,0,0,1,359.682,799.856Z" transform="translate(-355.517 -795.965)" fill="#cdd6e4"/>
          <path id="Trazado_739629" data-name="Trazado 739629" d="M372.448,817.717a1.734,1.734,0,0,1-1.823.218l-.809.651a2.706,2.706,0,0,0,4.047-3.252l-.81.651A1.734,1.734,0,0,1,372.448,817.717Z" transform="translate(-366.042 -811.037)" fill="#cdd6e4"/>
        </g>
      </g>
    </g>
    <path id="Trazado_739630" data-name="Trazado 739630" d="M819.975,185.626v-.8l-.471.023.025.773Z" transform="translate(-520.955 -10.905)" fill="#8c8b8b" opacity="0.29"/>
    <g id="Grupo_1034695" data-name="Grupo 1034695" transform="translate(247.936 224.123)" opacity="0.61" style="mix-blend-mode: multiply;isolation: isolate">
      <path id="Trazado_739631" data-name="Trazado 739631" d="M550.572,811.343h0Z" transform="translate(-528.069 -796.054)" fill="#464545"/>
      <path id="Trazado_739632" data-name="Trazado 739632" d="M570.315,738.095l-.025-.016h0l.076.049,1.229.792h0l.216.139.026.016h0Z" transform="translate(-545.726 -730.447)" fill="#464545"/>
      <path id="Trazado_739633" data-name="Trazado 739633" d="M523.872,855.188h0C523.852,855.175,523.872,855.188,523.872,855.188Z" transform="translate(-504.152 -835.31)" fill="#464545"/>
      <path id="Trazado_739634" data-name="Trazado 739634" d="M528.164,803.861l.056.036-.056-.036Z" transform="translate(-508.003 -789.354)" fill="#464545"/>
      <path id="Trazado_739635" data-name="Trazado 739635" d="M339.843,988.659l-.537.832-.4.62,0,0v0l-.006.009-.009-.006,0,0h0c-.005.016-.057.1-.163.283-.094.155-.207.341-.293.486-.12.2-.278.473-.4.676-.053.091-.119.206-.176.306-.235.4-.514.884-.843,1.456a20.763,20.763,0,0,0-1.59,3.288l-.02-.013,0,.006h0a.734.734,0,0,0-.05.094l-.009.021a.727.727,0,0,0-.033.1l0,.012a.732.732,0,0,0-.016.1s0,.009,0,.013a.749.749,0,0,0,0,.1s0,.008,0,.011a.744.744,0,0,0,.046.21l0,0a.737.737,0,0,0,.111.195.9.9,0,0,0-.027.1l0,.018a.818.818,0,0,0-.013.1c0,.005,0,.011,0,.016a.717.717,0,0,0,0,.088s0,.006,0,.01a.645.645,0,0,0,.013.088l0,.018a.568.568,0,0,0,.026.081l0,.009a.494.494,0,0,0,.036.068l.008.012a.453.453,0,0,0,.051.062l.012.012a.437.437,0,0,0,.065.052h0l.8.511h0l.8.511a.608.608,0,0,0,.734-.15.742.742,0,0,0,.8-.324l0-.006-.026-.016c.063-.057.136-.128.218-.215.063-.067.132-.143.2-.225.4-.433,1.007-1.158,1.9-2.361.846-1.14,1.384-1.909,1.71-2.385l.121-.175c.123-.178.23-.337.316-.469l.4-.62,2.465-3.823-1.285-.033Z" transform="translate(-335.288 -954.619)" fill="#464545" opacity="0.54"/>
      <path id="Trazado_739636" data-name="Trazado 739636" d="M403.843,665.134a.32.32,0,0,0-.037-.024l-.026-.018-.021-.011a.093.093,0,0,0-.12.019h0a2.51,2.51,0,0,1-.359.28c-.164.107-.36.218-.608.348l-.144.075c-.2.1-.428.218-.7.354l-.208.106c-.049.025-.094.051-.139.076l-.031.018c-.043.025-.084.05-.123.075l0,0,0,0c-.039.025-.076.051-.112.076l-.023.017-.067.05-.036.028,0,0-.061.051-.028.025-.017.016c-.027.025-.054.05-.078.075l0,0,0,0,0,0c-.025.025-.048.051-.07.076h0l-.013.014-.04.048-.026.033,0,.005c-.018.024-.035.048-.052.071l-.005.007-.008.012c-.017.025-.033.05-.049.075l-.005.009,0,0q-.024.039-.045.079l0,0,0,.009-.023.045-.021.042v0l-.007.014-.034.074v0c-.029.066-.056.133-.082.2l-.071.186-.008.022-.043.109,0,.007c-.015.039-.031.077-.048.116l0,0c-.017.04-.035.08-.055.12-.564,1.184-1.533,2.818-1.767,3.209l-.049.082h0l-.387-.249-.172-.117a.116.116,0,0,0-.042-.018h-.012l-.021,0a.059.059,0,0,0-.018.012.138.138,0,0,0-.014.018l0,0h0a.191.191,0,0,0-.016.034.4.4,0,0,0-.019.088,2.2,2.2,0,0,1-.215.522h0c-.017.025-.1.144-.257.371l-.216.308-.134.191-.074.1-.161.228-.18.254-.2.281-.219.307-.5.7-.281.392h0q-.146.2-.283.389a18.673,18.673,0,0,1-2.07,2.506h0l0,0h0l0,.007h0l-.038.056c-.084.117-.194.244-.278.361-.015.021-.03.042-.044.063h0l-.548.807s-1.4,2.094-2.115,3.129l-.6.827L381.965,694.3l-.074.115-.051.078-.207.321-2.771,4.3,4.949-.241,1.285.033.845-1.311h0l.122-.189,7.459-11.565h0l.506-.888s-.02-.013,0,0h0c.647-1.08,1.976-3.219,1.978-3.218h0l.509-.832h0l.3-.537h0c0-.006.009-.027.022-.063l.024-.066.034-.089.021-.053.028-.069.054-.128q.032-.075.071-.163t.086-.189c.078-.168.171-.364.284-.59q.065-.129.138-.272l.086-.166.084-.16c.146-.276.313-.583.5-.923q.108-.192.226-.4l.006-.01.245-.426.319-.553.008-.014c.617-1.065,1.007-1.726,1.207-2.061l.031-.053.117-.195.012-.02-.025-.016-.216-.139h0l-1.229-.792-.077-.049h0l.024.016,1.522.982h0a2.222,2.222,0,0,1,.387-.412l.021-.013.021-.015.021-.017.019-.018a.168.168,0,0,0,.015-.02.1.1,0,0,0,.01-.02.065.065,0,0,0,0-.021.053.053,0,0,0,0-.021.074.074,0,0,0-.014-.021.132.132,0,0,0-.026-.021h0l-.6-.39h0s1.293-1.849,2.26-3c.457-.549,1-.822,1.114-1.949l0-.03c0-.051.009-.1.012-.159v0c.026-.563.041-.987.064-1.325.007-.1.014-.186.022-.27s.017-.162.028-.235a2.566,2.566,0,0,1,.113-.485.1.1,0,0,0,.008-.031A.106.106,0,0,0,403.843,665.134ZM392.852,677.8l.008.005Zm1.616,1.771h0l.056.036Zm1.992.556.109.07Z" transform="translate(-374.307 -665.068)" fill="#464545" opacity="0.52"/>
    </g>
    <g id="Grupo_1034709" data-name="Grupo 1034709" transform="translate(247.774 222.766)">
      <g id="Grupo_1034708" data-name="Grupo 1034708" transform="translate(0 0)">
        <g id="Grupo_1034705" data-name="Grupo 1034705" transform="translate(0 0.001)">
          <g id="Grupo_1034698" data-name="Grupo 1034698" transform="translate(18.171)">
            <path id="Trazado_739637" data-name="Trazado 739637" d="M564.645,659.132c-.055-.031-.582-.39-.954-.63,0,0,1.173-1.943,1.819-3.3.079-.164.139-.325.2-.485a2.292,2.292,0,0,1,1.263-1.43,9.18,9.18,0,0,0,2.015-1.162c.064-.071.147-.006.167.009s.115.061.077.149A9.177,9.177,0,0,0,569,654.6a2.294,2.294,0,0,1-.782,1.74c-.12.121-.242.242-.359.381-.967,1.147-2.252,3.017-2.252,3.017C565.319,659.553,564.7,659.17,564.645,659.132Z" transform="translate(-557.827 -652.097)" fill="url(#linear-gradient)"/>
            <path id="Trazado_739638" data-name="Trazado 739638" d="M558.38,711.82l-.019.018-.021.017-.021.015-.021.013a2.219,2.219,0,0,0-.387.412h0l-1.522-.982-1.47-.948a2.208,2.208,0,0,0,.215-.522.4.4,0,0,1,.019-.088.183.183,0,0,1,.016-.034.148.148,0,0,1,.014-.018.06.06,0,0,1,.018-.012l.021,0h.012a.121.121,0,0,1,.042.018l1.517.978,1.57,1.013h0a.129.129,0,0,1,.026.021.074.074,0,0,1,.014.021.053.053,0,0,1,0,.021.064.064,0,0,1,0,.021.093.093,0,0,1-.01.02Z" transform="translate(-549.972 -703.667)" fill="#0d384e"/>
            <g id="Grupo_1034697" data-name="Grupo 1034697" transform="translate(0 12.732)">
              <g id="Grupo_1034696" data-name="Grupo 1034696">
                <path id="Trazado_739639" data-name="Trazado 739639" d="M507.588,774.4l1.984,1.279L511.624,777h0l.3-.537h0l-2.016-1.3-1.948-1.256C507.857,774.059,507.688,774.242,507.588,774.4Z" transform="translate(-507.588 -773.905)" fill="#e8e3df"/>
              </g>
            </g>
            <path id="Trazado_739640" data-name="Trazado 739640" d="M515.071,724.772h0l-.009-.006-.029-.018h0l-.2-.131h0l-1.086-.7c-.477-.3-1.668-1.064-1.744-1.124l-.853-.55-.04-.026h0a18.689,18.689,0,0,0,2.07-2.506q.137-.186.283-.389h0l.281-.392.5-.7.219-.308.2-.281.18-.254.161-.228.074-.1.134-.19.216-.308c.167-.238.249-.359.26-.375h0l.794.512.018.012.707.456,1.229.792h0l.216.139.025.016-.012.02-.117.195-.032.053c-.2.335-.59,1-1.207,2.061l-.008.014-.319.553-.245.426-.006.01q-.118.206-.226.4c-.191.34-.358.647-.5.923l-.084.16-.086.166q-.073.142-.138.272c-.112.225-.206.421-.284.59q-.047.1-.086.189t-.071.163l-.054.128-.028.069-.021.053-.034.089-.024.066c-.013.036-.02.057-.022.063Z" transform="translate(-510.739 -709.484)" fill="#0d384e"/>
            <path id="Trazado_739641" data-name="Trazado 739641" d="M563.74,658.494s1.168-1.934,1.814-3.288c.329-.678.317-1.319,1.462-1.915a9.181,9.181,0,0,0,2.016-1.162c.064-.071.147-.006.167.009s.115.061.077.149a9.177,9.177,0,0,0-.228,2.315,2.888,2.888,0,0,1-1.129,2.139c-.967,1.147-2.26,3-2.26,3-.293-.189-.919-.568-.97-.605S564.111,658.733,563.74,658.494Z" transform="translate(-557.871 -652.097)" fill="#e8e3df"/>
            <path id="Trazado_739642" data-name="Trazado 739642" d="M592.4,684.414a.225.225,0,1,0-.067-.31A.224.224,0,0,0,592.4,684.414Z" transform="translate(-583.44 -680.665)" fill="#006aa1"/>
            <path id="Trazado_739643" data-name="Trazado 739643" d="M596.643,652.494l-2.255,3.5.021.018,2.245-3.507Z" transform="translate(-585.315 -652.452)" fill="#006aa1"/>
          </g>
          <path id="Trazado_739644" data-name="Trazado 739644" d="M353.6,786.147h0l.506-.888s-.02-.013,0,0h0c.647-1.08,1.976-3.219,1.978-3.218h0l.509-.832h0l-2.053-1.324-1.983-1.279-.548.807s-1.4,2.094-2.115,3.129l-.6.827L338.4,800.256l-.4.62.006,0-.006,0-.008.013-.009-.006c-.005.016-.057.1-.163.283-.094.156-.207.342-.293.486-.12.2-.278.473-.4.676l-.176.306c-.235.4-.514.884-.843,1.456a15.021,15.021,0,0,0-1.654,3.508l.019.012a1,1,0,0,0,.012.259,1.725,1.725,0,0,0,.078.265,1.847,1.847,0,0,0,.128.248,1.96,1.96,0,0,0,.163.226c.026.031.061.074.089.1.054.057.127.131.183.186a3.71,3.71,0,0,0,.494.39l.055.035.052.031c.02.012.047.025.066.038.049.027.107.057.171.089s.137.064.214.1.171.064.245.09a2.543,2.543,0,0,0,.266.07,1.877,1.877,0,0,0,.277.036,1.439,1.439,0,0,0,.278-.01,1.146,1.146,0,0,0,.267-.07,1.025,1.025,0,0,0,.109-.053l.025.016c.008-.012.054-.049.144-.133a3.41,3.41,0,0,0,.263-.254c.063-.067.132-.143.2-.225.4-.433,1.007-1.158,1.9-2.361.846-1.14,1.384-1.909,1.71-2.385l.121-.175c.123-.178.23-.337.316-.469l.4-.62ZM338.438,800.28l-.032-.021Z" transform="translate(-334.385 -765.382)" fill="#0d384e"/>
          <path id="Trazado_739645" data-name="Trazado 739645" d="M337.55,1061.677l-2.562-1.627,0,.006a.672.672,0,0,0,.08.929l1.608,1.021a.672.672,0,0,0,.875-.323Z" transform="translate(-334.725 -1017.407)" fill="#e8e3df"/>
          <path id="Trazado_739646" data-name="Trazado 739646" d="M337.219,991.635a.742.742,0,0,1-1.024.228l-2.109-1.34a.742.742,0,0,1-.228-1.024l0-.006,1.866,1.185,5.517-8.686.533.338-5.517,8.686.963.612Z" transform="translate(-333.742 -947.51)" fill="#e8e3df"/>
          <g id="Grupo_1034699" data-name="Grupo 1034699" transform="translate(7.326 29.227)">
            <path id="Trazado_739647" data-name="Trazado 739647" d="M403.834,932.223l2.117,1.365L408.142,935h0l.332-.514h0l-2.191-1.413-2.116-1.365Z" transform="translate(-403.834 -931.708)" fill="#e8e3df"/>
          </g>
          <g id="Grupo_1034700" data-name="Grupo 1034700" transform="translate(1.988 34.483)">
            <rect id="Rectángulo_351090" data-name="Rectángulo 351090" width="10.284" height="0.316" transform="translate(0 8.681) rotate(-57.579)" fill="#d2d1d1"/>
          </g>
          <g id="Grupo_1034701" data-name="Grupo 1034701" transform="translate(0.143 6.015)" opacity="0.51">
            <path id="Trazado_739648" data-name="Trazado 739648" d="M570.082,725.9h0l-1.229-.792-.077-.049h0l.024.016Z" transform="translate(-544.352 -723.446)" fill="#26529f"/>
            <path id="Trazado_739649" data-name="Trazado 739649" d="M511.174,722.2l-.04-.026h0a18.679,18.679,0,0,0,2.07-2.506q.137-.186.283-.389h0l.281-.392.5-.7.219-.308.2-.281.18-.254.161-.228.074-.1.134-.191.216-.308c.167-.239.249-.359.26-.375h0l.794.512.018.012.631.407-4.075,6.363c-.489-.313-1.008-.647-1.057-.686Z" transform="translate(-492.735 -715.461)" fill="#26529f"/>
            <path id="Trazado_739650" data-name="Trazado 739650" d="M554.946,710.323a2.209,2.209,0,0,0,.215-.522.4.4,0,0,1,.019-.088.189.189,0,0,1,.016-.034.139.139,0,0,1,.015-.018.061.061,0,0,1,.018-.012l.021,0h.012a.115.115,0,0,1,.042.018s.651.448,1.483.984l-.4.608Z" transform="translate(-531.967 -709.644)" fill="#26529f"/>
            <path id="Trazado_739651" data-name="Trazado 739651" d="M335.107,948.881a20.764,20.764,0,0,1,1.59-3.288c.329-.572.608-1.053.843-1.456l.176-.306c.118-.2.276-.474.4-.676.086-.145.2-.331.293-.487.106-.179.157-.267.163-.283l.009.006.008-.013.4-.62,3.308-5.129,2.179,1.4c.021.014-.023-.005,0,0l-7.645,11.937Z" transform="translate(-335.107 -912.904)" fill="#26529f"/>
            <path id="Trazado_739652" data-name="Trazado 739652" d="M409.125,795.936l-2.116-1.365,7.252-11.244.6-.827c.717-1.035,2.115-3.129,2.115-3.129l.548-.807,1.983,1.279.007,0-10.331,16.127Z" transform="translate(-399.493 -771.359)" fill="#26529f"/>
          </g>
          <g id="Grupo_1034703" data-name="Grupo 1034703" transform="translate(18.171 12.739)">
            <g id="Grupo_1034702" data-name="Grupo 1034702">
              <path id="Trazado_739653" data-name="Trazado 739653" d="M509.567,775.74c-1.083-.7-1.979-1.286-1.979-1.286.1-.154.264-.33.363-.485l1.948,1.256h0l-.327.508C509.56,775.725,509.579,775.747,509.567,775.74Z" transform="translate(-507.588 -773.969)" fill="#d2d1d1"/>
            </g>
          </g>
          <g id="Grupo_1034704" data-name="Grupo 1034704" transform="translate(7.326 29.227)">
            <path id="Trazado_739654" data-name="Trazado 739654" d="M405.954,933.59l-2.12-1.367.332-.515,2.12,1.367.055.035-.328.516Z" transform="translate(-403.834 -931.708)" fill="#d2d1d1"/>
          </g>
        </g>
        <g id="Grupo_1034706" data-name="Grupo 1034706" transform="translate(0 41.985)">
          <path id="Trazado_739655" data-name="Trazado 739655" d="M336.124,1062.866l-.257.4-.8-.51a.608.608,0,0,1-.177-.729.741.741,0,0,0,.183.165Z" transform="translate(-334.725 -1061.166)" fill="#d2d1d1"/>
          <path id="Trazado_739656" data-name="Trazado 739656" d="M334.007,1054.413l0,.006a.96.96,0,0,0-.1.2.742.742,0,0,1-.046-.859l0-.006,1.681,1.068-.257.4Z" transform="translate(-333.745 -1053.755)" fill="#d2d1d1"/>
          <path id="Trazado_739657" data-name="Trazado 739657" d="M335.389,1060.049l1.281.814-.145.228-1.055-.67a.731.731,0,0,1-.183-.165.96.96,0,0,1,.1-.2Z" transform="translate(-335.127 -1059.391)" fill="#d2d1d1"/>
        </g>
        <g id="Grupo_1034707" data-name="Grupo 1034707" transform="translate(24.038)" opacity="0.5">
          <path id="Trazado_739658" data-name="Trazado 739658" d="M566.74,655.525a.231.231,0,0,0,.057.306h0l-2.157,3.273.027.017c-.055-.031-.58-.395-.951-.634,0,0,1.171-1.938,1.816-3.292.329-.678.316-1.319,1.462-1.915a9.178,9.178,0,0,0,2.015-1.162c.063-.07.134-.013.168.009l-.99,1.534-1.148,1.789A.229.229,0,0,0,566.74,655.525Z" transform="translate(-563.717 -652.086)" fill="#bababa"/>
        </g>
      </g>
    </g>
  </g>
</svg>
