<svg xmlns="http://www.w3.org/2000/svg" xmlns:xlink="http://www.w3.org/1999/xlink" width="617.868" height="444.291" viewBox="0 0 617.868 444.291">
  <defs>
    <clipPath id="clip-path">
      <rect id="Rectángulo_350637" data-name="Rectángulo 350637" width="610.693" height="364.847" fill="none"/>
    </clipPath>
    <clipPath id="clip-path-5">
      <rect id="Rectángulo_350621" data-name="Rectángulo 350621" width="89.497" height="78.486" fill="none"/>
    </clipPath>
    <clipPath id="clip-path-6">
      <rect id="Rectángulo_350622" data-name="Rectángulo 350622" width="34.222" height="23.254" fill="none"/>
    </clipPath>
    <clipPath id="clip-path-7">
      <rect id="Rectángulo_350623" data-name="Rectángulo 350623" width="5.264" height="40.334" fill="none"/>
    </clipPath>
    <clipPath id="clip-path-8">
      <rect id="Rectángulo_350624" data-name="Rectángulo 350624" width="41.437" height="84.781" fill="none"/>
    </clipPath>
    <clipPath id="clip-path-9">
      <rect id="Rectángulo_350625" data-name="Rectángulo 350625" width="24.927" height="133.758" fill="none"/>
    </clipPath>
    <clipPath id="clip-path-11">
      <rect id="Rectángulo_350627" data-name="Rectángulo 350627" width="20.304" height="37.088" fill="none"/>
    </clipPath>
    <clipPath id="clip-path-12">
      <rect id="Rectángulo_350628" data-name="Rectángulo 350628" width="9.955" height="10.351" fill="none"/>
    </clipPath>
    <clipPath id="clip-path-13">
      <rect id="Rectángulo_350629" data-name="Rectángulo 350629" width="20.185" height="8.906" fill="none"/>
    </clipPath>
    <clipPath id="clip-path-14">
      <rect id="Rectángulo_350630" data-name="Rectángulo 350630" width="21.761" height="9.599" fill="none"/>
    </clipPath>
    <clipPath id="clip-path-16">
      <rect id="Rectángulo_350632" data-name="Rectángulo 350632" width="21.762" height="9.598" fill="none"/>
    </clipPath>
    <clipPath id="clip-path-17">
      <rect id="Rectángulo_350633" data-name="Rectángulo 350633" width="34.437" height="23.98" fill="#ff9d00"/>
    </clipPath>
  </defs>
  <g id="Grupo_1034669" data-name="Grupo 1034669" transform="translate(5660.287 4835.646)">
    <g id="Grupo_160943" data-name="Grupo 160943" transform="translate(-5840.287 -13347.086)" opacity="0.13">
      <g id="Grupo_154652" data-name="Grupo 154652" transform="translate(180 8511.44)">
        <g id="Grupo_154160" data-name="Grupo 154160" transform="translate(0 0)">
          <g id="Grupo_66834" data-name="Grupo 66834">
            <path id="Trazado_132887" data-name="Trazado 132887" d="M738.348,526.863c-56.821,77.476-60.758,301.127,19.052,359.663s213.167-70.218,269.973-147.691,38.17-187.709-41.638-246.245S795.159,449.4,738.348,526.863Z" transform="translate(-505.222 -457.039)" fill="#15d3ec"/>
            <path id="Trazado_132888" data-name="Trazado 132888" d="M652.737,605.065c0,108.19,226.26,226.357,351.078,226.357s258.922-118.167,258.922-226.357-52.662-181.459-236.98-99.419C914.718,555.061,652.737,496.877,652.737,605.065Z" transform="translate(-652.737 -437.812)" fill="#7e5ee3"/>
          </g>
        </g>
      </g>
    </g>
    <g id="Grupo_1033959" data-name="Grupo 1033959" transform="translate(-5653.112 -4783.198)">
      <g id="Grupo_1033958" data-name="Grupo 1033958" clip-path="url(#clip-path)">
        <g id="Grupo_1033911" data-name="Grupo 1033911">
          <g id="Grupo_1033910" data-name="Grupo 1033910" clip-path="url(#clip-path)">
            <path id="Trazado_735944" data-name="Trazado 735944" d="M202.495,26.279a13.486,13.486,0,0,0-5.06,2.442,7.044,7.044,0,0,1-1.658.964L189.183,2.809a3.689,3.689,0,0,0-4.461-2.7L156.757,6.967l.78,3.174a5.845,5.845,0,0,0,.944,2.035,12.214,12.214,0,0,1-7.5,19.112,12.327,12.327,0,0,1-14.07-8.243,12.137,12.137,0,0,1-.345-6.114,6.077,6.077,0,0,0-.031-2.642l-.547-2.225-28.353,6.861a4.531,4.531,0,0,0-3.321,5.479l6.09,24.932-1.932.473c-.219.054-.443.1-.67.141a14.9,14.9,0,1,0,4.613,24.59,5.665,5.665,0,0,1,1.141-.416l2.479-.608,6.825,27.818a4.529,4.529,0,0,0,5.478,3.32L205.715,85.67a3.689,3.689,0,0,0,2.7-4.461l-6.95-28.325a7.388,7.388,0,0,1,1.512.168,13.517,13.517,0,0,0,8.3-.84,13.749,13.749,0,0,0-8.787-25.932" transform="translate(-9.897 0)" fill="#f6f6f6"/>
            <path id="Trazado_735945" data-name="Trazado 735945" d="M605.272,193.322a8.495,8.495,0,0,0,3.451.792,4.494,4.494,0,0,1,1.2.18l-7.349,15.819a2.325,2.325,0,0,0,1.13,3.088l16.46,7.646.867-1.868a3.693,3.693,0,0,0,.338-1.373,7.619,7.619,0,0,1,.7-2.839A7.708,7.708,0,1,1,634.02,223.9,3.819,3.819,0,0,0,633,225.215l-.609,1.31,16.652,7.8a2.855,2.855,0,0,0,3.792-1.387l6.831-14.664,1.137.528q.194.089.385.194a9.394,9.394,0,1,0,7.422-13.914,3.583,3.583,0,0,1-.725-.245l-1.459-.678,7.606-16.374a2.854,2.854,0,0,0-1.386-3.792l-45.547-21.157a2.324,2.324,0,0,0-3.088,1.129l-7.744,16.672a4.584,4.584,0,0,1-.678-.678,8.52,8.52,0,0,0-4.414-2.858,8.666,8.666,0,0,0-5.9,16.22" transform="translate(-68.1 -18.448)" fill="#f6f6f6"/>
            <path id="Trazado_735946" data-name="Trazado 735946" d="M635.341,390.424A6.671,6.671,0,0,0,637,388.2a3.486,3.486,0,0,1,.508-.8l9.006,10.288a1.822,1.822,0,0,0,2.572.171l10.7-9.37-1.062-1.215a2.914,2.914,0,0,0-.879-.677,6.036,6.036,0,0,1-1.056-10.09,6.092,6.092,0,0,1,8.046.415,5.986,5.986,0,0,1,1.542,2.6,3,3,0,0,0,.616,1.151l.745.852,10.875-9.46a2.237,2.237,0,0,0,.21-3.158l-8.342-9.55.74-.647c.083-.074.171-.145.261-.214a7.364,7.364,0,1,0-7.616-9.737,2.783,2.783,0,0,1-.406.442l-.949.831L653.2,339.388a2.238,2.238,0,0,0-3.158-.21l-29.622,25.929a1.823,1.823,0,0,0-.17,2.572l9.491,10.843a3.608,3.608,0,0,1-.7.27,6.68,6.68,0,0,0-3.45,2.256,6.794,6.794,0,0,0,9.754,9.375" transform="translate(-70.311 -38.415)" fill="#f5f5f5"/>
            <path id="Trazado_735947" data-name="Trazado 735947" d="M506.041,45.92a10.637,10.637,0,0,0-4.421-.272,5.607,5.607,0,0,1-1.512.023l5.834-21.022a2.909,2.909,0,0,0-2.025-3.58L482.044,15l-.689,2.482a4.6,4.6,0,0,0-.135,1.763A9.63,9.63,0,0,1,468.688,29.49a9.718,9.718,0,0,1-6.494-11.1,9.565,9.565,0,0,1,2.122-4.336,4.78,4.78,0,0,0,1-1.829l.483-1.74L443.654,4.268a3.571,3.571,0,0,0-4.4,2.486l-5.432,19.491-1.512-.419c-.171-.048-.344-.1-.514-.161a11.749,11.749,0,1,0-6.315,18.686,4.522,4.522,0,0,1,.945.154l1.939.538L422.331,66.8a3.572,3.572,0,0,0,2.487,4.4L485.344,88a2.908,2.908,0,0,0,3.58-2.025l6.148-22.155a5.794,5.794,0,0,1,.975.7,10.659,10.659,0,0,0,6.031,2.624,10.839,10.839,0,0,0,3.962-21.219" transform="translate(-46.607 -0.469)" fill="#f5f5f5"/>
            <path id="Trazado_735948" data-name="Trazado 735948" d="M6.571,301.8a10,10,0,0,0,4.115.611,5.221,5.221,0,0,1,1.416.1l-7.151,19.2a2.731,2.731,0,0,0,1.606,3.513l19.98,7.442.844-2.268a4.339,4.339,0,0,0,.269-1.639A9.044,9.044,0,0,1,40.2,320.182a9.128,9.128,0,0,1,5.184,10.906,8.972,8.972,0,0,1-2.334,3.888,4.488,4.488,0,0,0-1.08,1.631l-.592,1.59L61.6,345.8a3.354,3.354,0,0,0,4.314-1.972l6.652-17.8,1.38.513c.157.059.314.122.468.193a11.036,11.036,0,1,0,7.414-16.978,4.192,4.192,0,0,1-.872-.22l-1.77-.66L86.585,289a3.353,3.353,0,0,0-1.972-4.314L29.326,264.094a2.731,2.731,0,0,0-3.513,1.606l-7.538,20.236a5.413,5.413,0,0,1-.856-.732,10.009,10.009,0,0,0-5.433-2.941A10.181,10.181,0,0,0,6.571,301.8" transform="translate(0 -29.94)" fill="#f5f5f5"/>
          </g>
        </g>
        <g id="Grupo_1033913" data-name="Grupo 1033913">
          <g id="Grupo_1033912" data-name="Grupo 1033912" clip-path="url(#clip-path)">
            <path id="Trazado_735949" data-name="Trazado 735949" d="M303.795,242.879c4.935-.342,9.205,1,13.329,2.919a14.835,14.835,0,0,0,6.048,1.481l5.4-.123.064-60.029a10.3,10.3,0,0,0-10.328-10.265l-57.061.211v-1.231a15.877,15.877,0,0,1,1.674-6.936,31.553,31.553,0,0,0,2.711-19.281,32.087,32.087,0,0,0-63.662,5.495,31.483,31.483,0,0,0,2.723,12.827,15.824,15.824,0,0,1,1.426,6.428l.338,2.7H137.687a10.3,10.3,0,0,0-10.328,10.265v58.695h-4.9a15.021,15.021,0,0,1-6.563-1.584,30.941,30.941,0,0,0-18.581-2.566,30.363,30.363,0,0,0,5.2,60.241,29.775,29.775,0,0,0,12.136-2.577,14.981,14.981,0,0,1,6.083-1.35h6.294l.125,71.794a8.385,8.385,0,0,0,8.411,8.359H319.619c4.646,0,8.285-5.832,8.285-10.448V302.648h-7.451a13.471,13.471,0,0,0-5.019.981,27.867,27.867,0,0,1-38.248-26.836c.559-13.943,12.6-32.943,26.608-33.914" transform="translate(-8.208 -13.982)" fill="#e0e0e0"/>
            <path id="Trazado_735950" data-name="Trazado 735950" d="M303.769,242.858s-.163.025-.487.064a13.413,13.413,0,0,0-1.442.217,19.653,19.653,0,0,0-5.4,1.919c-4.491,2.292-10.384,7.527-14.821,16.267a38.766,38.766,0,0,0-4.363,15.579,28.619,28.619,0,0,0,1.27,9.226,27.356,27.356,0,0,0,4.724,8.913,27.661,27.661,0,0,0,19.385,10.328,27.268,27.268,0,0,0,12.179-1.676,14.513,14.513,0,0,1,6.383-1.206l6.679,0h.143v.143q.008,15.478.017,32.869,0,8.684.008,17.815,0,4.565,0,9.238,0,2.335,0,4.7a13.282,13.282,0,0,1-.16,2.391,12.769,12.769,0,0,1-.66,2.32,12.177,12.177,0,0,1-2.566,4.1,7.531,7.531,0,0,1-4.262,2.38,24.108,24.108,0,0,1-2.47.063h-2.46l-4.958,0-20.33.007-42.923.012-93.914.019-12.409,0c-2.089-.02-4.144.044-6.276-.043a8.632,8.632,0,0,1-7.767-8.825q-.005-3.168-.012-6.352-.012-6.369-.024-12.8-.047-25.718-.1-52.356l.229.229H123.07c-1.314.021-2.638-.059-3.921.091a15.085,15.085,0,0,0-3.784.966,38.877,38.877,0,0,1-3.742,1.448,30.187,30.187,0,0,1-30.437-7.4,29.323,29.323,0,0,1-6.891-10.421c-.241-.659-.538-1.3-.735-1.974l-.554-2.036A30.551,30.551,0,0,1,88.7,244.515a30.591,30.591,0,0,1,9.588-3.036,31.6,31.6,0,0,1,10,.234,30.706,30.706,0,0,1,4.821,1.307c.782.284,1.555.592,2.308.946a23.941,23.941,0,0,0,2.25.967c3.06,1.207,6.4.767,9.67.849l-.228.229q0-19.042,0-37.6,0-9.272,0-18.41a28.524,28.524,0,0,1,.183-4.59,10.16,10.16,0,0,1,1.818-4.225,10.513,10.513,0,0,1,7.812-4.322l69.508-.026-.207.235c-.115-.926-.226-1.813-.337-2.7l0-.012v-.013a15.128,15.128,0,0,0-.823-4.847c-.258-.782-.6-1.523-.926-2.3s-.6-1.555-.861-2.346a31.765,31.765,0,0,1-1.535-9.756l.133-2.454c.031-.408.027-.819.086-1.223l.2-1.207c.152-.8.222-1.617.439-2.4l.65-2.346a7.374,7.374,0,0,1,.391-1.146l.445-1.127a15.884,15.884,0,0,1,.98-2.206l1.118-2.132,1.324-2a31.335,31.335,0,0,1,6.506-6.881l.918-.741.982-.647c.66-.422,1.3-.87,1.974-1.268a34.344,34.344,0,0,1,4.216-1.992,31.881,31.881,0,0,1,8.939-2.142,31.524,31.524,0,0,1,4.554-.072c.754.051,1.512.064,2.261.145l2.232.338a32.484,32.484,0,0,1,15.657,7.828A31.879,31.879,0,0,1,265.483,162a33.523,33.523,0,0,1-2.7,7.514,16.4,16.4,0,0,0-1.16,3.7,18.778,18.778,0,0,0-.242,3.839l-.166-.164,43.409-.14,9.875-.031,2.406-.007c.8-.008,1.59-.011,2.391.047a10.513,10.513,0,0,1,4.456,1.5,10.357,10.357,0,0,1,4.867,7.41,40.005,40.005,0,0,1,.105,4.38q0,2.157-.007,4.261c-.046,22.44-.083,40.278-.109,52.825v.067h-.066c-2.176.029-4.2.13-6.092.091a15.277,15.277,0,0,1-5.053-1.323,33.569,33.569,0,0,0-7.46-2.645,22.939,22.939,0,0,0-4.64-.5c-.514-.005-.9.01-1.153.022s-.381.01-.381.01a15.035,15.035,0,0,1,1.534-.067,22.354,22.354,0,0,1,4.654.467,33.384,33.384,0,0,1,7.487,2.619,15.2,15.2,0,0,0,5.02,1.3c1.875.033,3.91-.074,6.081-.108l-.066.067c0-12.547,0-30.384,0-52.824q0-2.1,0-4.262a40.2,40.2,0,0,0-.108-4.345,10.1,10.1,0,0,0-4.756-7.219,10.236,10.236,0,0,0-4.343-1.458c-.773-.054-1.567-.052-2.365-.043l-2.405.011-9.875.043-43.408.182h-.164v-.165a19.135,19.135,0,0,1,.244-3.9,16.716,16.716,0,0,1,1.18-3.774,33.225,33.225,0,0,0,2.669-7.452,31.534,31.534,0,0,0-9.652-30.221,32.12,32.12,0,0,0-15.482-7.727l-2.206-.333c-.74-.08-1.489-.092-2.236-.142a31.049,31.049,0,0,0-4.5.074,31.491,31.491,0,0,0-8.831,2.122,33.894,33.894,0,0,0-4.164,1.97c-.661.394-1.3.836-1.95,1.254l-.971.639-.905.733a30.951,30.951,0,0,0-6.423,6.8l-1.307,1.977-1.1,2.106a15.576,15.576,0,0,0-.966,2.178l-.439,1.113a7.168,7.168,0,0,0-.386,1.133l-.64,2.315c-.215.773-.283,1.58-.432,2.37l-.2,1.192c-.059.4-.053.8-.083,1.207l-.13,2.424a31.323,31.323,0,0,0,1.52,9.629c.256.78.537,1.553.851,2.315s.673,1.522.936,2.322a15.536,15.536,0,0,1,.848,4.98l0-.026c.111.886.222,1.773.338,2.7l.029.235h-.237l-69.478.048a10.07,10.07,0,0,0-7.483,4.142,9.734,9.734,0,0,0-1.74,4.045,28.313,28.313,0,0,0-.173,4.509q0,9.137,0,18.41,0,18.545,0,37.6v.228h-5.143a14.687,14.687,0,0,1-4.907-.875,23.9,23.9,0,0,1-2.289-.982c-.74-.348-1.5-.652-2.272-.931a30.235,30.235,0,0,0-4.748-1.286,31.126,31.126,0,0,0-9.853-.231,29.959,29.959,0,0,0-23.055,17.23,30.5,30.5,0,0,0-1.839,19.808l.546,2c.192.664.486,1.3.723,1.943a28.86,28.86,0,0,0,6.787,10.265,29.728,29.728,0,0,0,29.973,7.287,38.365,38.365,0,0,0,3.714-1.437,15.525,15.525,0,0,1,3.9-.995c1.345-.155,2.664-.072,3.974-.094h4.154v.229q.044,26.614.088,52.357.011,6.43.021,12.8.005,3.185.01,6.353a8.187,8.187,0,0,0,7.365,8.384c2.044.082,4.163.023,6.232.042l12.409,0,93.914.019,42.923.012,20.33.006,4.958,0h2.46a24.2,24.2,0,0,0,2.42-.059,7.177,7.177,0,0,0,4.057-2.27,11.841,11.841,0,0,0,2.494-3.987,12.419,12.419,0,0,0,.644-2.254,12.833,12.833,0,0,0,.157-2.331q0-2.363,0-4.7,0-4.673,0-9.238,0-9.129.008-17.815.008-17.366.017-32.869l.142.142-6.679,0a14.232,14.232,0,0,0-6.287,1.181,27.507,27.507,0,0,1-12.3,1.677,27.89,27.89,0,0,1-19.538-10.443,27.573,27.573,0,0,1-4.748-8.991,28.8,28.8,0,0,1-1.262-9.294,38.879,38.879,0,0,1,4.413-15.642c4.473-8.756,10.4-13.99,14.923-16.267a19.4,19.4,0,0,1,5.427-1.888,12.529,12.529,0,0,1,1.448-.2c.325-.032.489-.043.489-.043" transform="translate(-8.182 -13.96)" fill="#263238"/>
            <path id="Trazado_735951" data-name="Trazado 735951" d="M570,252.28a30.755,30.755,0,0,0-12.531,2.661,16.182,16.182,0,0,1-4.2,1.234v-63.1a8.41,8.41,0,0,0-8.41-8.411H479.2v7.451a13.385,13.385,0,0,0,.988,5.019,27.85,27.85,0,0,1-27,38.248,28.1,28.1,0,0,1-26.678-25.9,27.628,27.628,0,0,1,2.558-13.727,13.825,13.825,0,0,0,1.364-5.868v-5.224l-66.517-.211a10.328,10.328,0,0,0-10.328,10.328l-.064,58.519H348.99c-.514,0-1.037-.014-1.558-.052a33.982,33.982,0,1,0-3.148,56.961,13.024,13.024,0,0,1,2.754-.3h5.819V375.22a10.328,10.328,0,0,0,10.328,10.328H544.859a8.41,8.41,0,0,0,8.41-8.411v-66.5a16.72,16.72,0,0,1,3.258,1.192,30.829,30.829,0,0,0,18.838,2.649A31.35,31.35,0,0,0,570,252.28" transform="translate(-33.289 -20.925)" fill="#f5f5f5"/>
            <path id="Trazado_735952" data-name="Trazado 735952" d="M569.967,252.252s.666.022,1.974.087a15.455,15.455,0,0,1,2.429.232l1.559.251a11.32,11.32,0,0,1,1.765.4c.621.17,1.278.352,1.972.541.682.23,1.38.531,2.123.815.37.149.754.288,1.136.455l1.136.59a20.145,20.145,0,0,1,2.376,1.336,31.366,31.366,0,0,1,14.651,24.528c.032.759.1,1.526.1,2.3q-.062,1.164-.127,2.352c-.03.4-.023.8-.084,1.192s-.12.8-.18,1.2-.124.8-.186,1.208c-.095.4-.189.8-.285,1.2a31.313,31.313,0,0,1-3.984,9.471,31.124,31.124,0,0,1-17.983,13.479c-.977.3-2,.456-3.008.692-1.025.161-2.06.308-3.112.374a30.858,30.858,0,0,1-12.784-1.75c-2.121-.715-4.045-1.956-6.254-2.455l.178-.139q.008,15.32.017,32.483,0,8.569.008,17.572,0,4.5,0,9.1,0,2.3,0,4.63,0,1.164,0,2.334c.009.387-.023.79-.041,1.187a9.025,9.025,0,0,1-.2,1.181,8.608,8.608,0,0,1-6.594,6.418,11.878,11.878,0,0,1-2.434.18h-2.422l-4.88,0-20,.007-42.189.012-92.2.018-12.176,0h-6.138a15.458,15.458,0,0,1-3.112-.214,11.564,11.564,0,0,1-2.95-1.087,10.664,10.664,0,0,1-4.332-4.49,10.094,10.094,0,0,1-.987-3.008,17.593,17.593,0,0,1-.157-3.147q0-6.248,0-12.555,0-25.231,0-51.361l.229.229h-4.2c-.717.005-1.462-.013-2.175.012a13.141,13.141,0,0,0-2.153.284l.066-.025a34.114,34.114,0,0,1-13.825,4.367A34.154,34.154,0,0,1,295.066,291.8a35.073,35.073,0,0,1-1.871-10.827,36.538,36.538,0,0,1,1.648-10.81,34.14,34.14,0,0,1,4.97-9.672,36.709,36.709,0,0,1,3.526-4.132l2.009-1.825c.677-.6,1.434-1.1,2.146-1.652a35.433,35.433,0,0,1,9.6-4.836,37.612,37.612,0,0,1,10.577-1.576,34.061,34.061,0,0,1,19.862,6.561l-.118-.042c2.008.1,4.06.029,6.076.051l-.227.226q.023-18.752.044-37.013.011-9.127.021-18.118l0-2.245c-.008-.743,0-1.5.063-2.262a10.571,10.571,0,0,1,8.692-9.264,28.689,28.689,0,0,1,4.443-.154l4.4.014,8.735.029,17.239.058,33.5.113h.206v.206q0,2.35,0,4.685a13.882,13.882,0,0,1-.66,4.651,17.913,17.913,0,0,1-.872,2.17c-.322.694-.6,1.407-.862,2.123a27.3,27.3,0,0,0,1.507,21.829,27.782,27.782,0,0,0,5.193,7.054,28.8,28.8,0,0,0,7.014,5.039,27.286,27.286,0,0,0,16.469,2.676,27.669,27.669,0,0,0,14.614-6.977,27.205,27.205,0,0,0,5.049-6.194,26.346,26.346,0,0,0,3.03-7.243,27.214,27.214,0,0,0-.327-15.148c-.342-1.209-.9-2.332-1.248-3.564a13.513,13.513,0,0,1-.509-3.737q0-3.718,0-7.365v-.165h.165l48.049.024,10.8.006,5.21,0c.857.005,1.708-.021,2.569.061a8.84,8.84,0,0,1,2.465.669,8.56,8.56,0,0,1,5.093,7.868q0,4.757-.007,9.249c-.026,23.951-.046,42.174-.059,53.794l-.065-.057c2.957-.384,5.183-1.824,7.287-2.4a30.521,30.521,0,0,1,5.256-1.183,29.689,29.689,0,0,1,3.156-.252c.7-.015,1.035,0,1.035,0s-.34.009-1.034.034a31.058,31.058,0,0,0-8.388,1.486c-2.09.579-4.313,2.031-7.3,2.43l-.065.008v-.063c-.012-11.619-.033-29.842-.059-53.794q0-4.491-.006-9.249a8.314,8.314,0,0,0-4.953-7.633,8.6,8.6,0,0,0-2.391-.645c-.825-.079-1.683-.053-2.54-.056l-5.21,0-10.8.007-48.049.023.164-.165q0,3.646,0,7.365a13.179,13.179,0,0,0,.5,3.645c.33,1.184.9,2.328,1.249,3.554a27.569,27.569,0,0,1,.343,15.338,26.746,26.746,0,0,1-3.065,7.34,27.529,27.529,0,0,1-5.11,6.277,28.032,28.032,0,0,1-14.806,7.081,27.653,27.653,0,0,1-16.7-2.7,29.16,29.16,0,0,1-7.114-5.106,28.185,28.185,0,0,1-5.27-7.149,27.7,27.7,0,0,1-1.539-22.15c.265-.727.547-1.45.873-2.155a17.516,17.516,0,0,0,.855-2.126,13.481,13.481,0,0,0,.638-4.526q0-2.335,0-4.685l.207.207-33.5-.1-17.239-.051-8.735-.027-4.4-.013a28.426,28.426,0,0,0-4.367.15,10.128,10.128,0,0,0-8.327,8.878c-.057.723-.068,1.463-.059,2.215l0,2.246q-.008,8.991-.017,18.117-.019,18.252-.037,37.014v.23l-.228,0c-2.03-.023-4.036.05-6.109-.053l-.063,0-.055-.04a33.6,33.6,0,0,0-19.6-6.471,37.159,37.159,0,0,0-10.435,1.556,34.954,34.954,0,0,0-9.475,4.772c-.7.547-1.45,1.04-2.118,1.63l-1.981,1.8a36.173,36.173,0,0,0-3.479,4.078,33.7,33.7,0,0,0-4.9,9.54,36.057,36.057,0,0,0-1.625,10.664,33.936,33.936,0,0,0,9.78,23.472,34,34,0,0,0,27.067,9.843,33.638,33.638,0,0,0,13.639-4.307l.031-.018.035-.007a13.419,13.419,0,0,1,2.229-.293c.754-.027,1.47-.008,2.2-.013h4.426v.229q0,26.107,0,51.361,0,6.307,0,12.555a17.114,17.114,0,0,0,.151,3.074,9.656,9.656,0,0,0,.943,2.88,10.216,10.216,0,0,0,4.148,4.3,11.134,11.134,0,0,0,2.825,1.043,15.14,15.14,0,0,0,3.023.206h6.138l12.176,0,92.2.019,42.189.012,20,.007,4.88,0h2.422a11.585,11.585,0,0,0,2.362-.171,8.256,8.256,0,0,0,6.326-6.149,9.056,9.056,0,0,0,.233-2.287q0-1.17,0-2.334,0-2.327,0-4.63,0-4.6,0-9.1,0-9,.008-17.572.009-17.14.017-32.483v-.181l.178.042c2.264.52,4.194,1.769,6.279,2.47a30.595,30.595,0,0,0,12.671,1.75c1.043-.066,2.07-.208,3.086-.367,1-.234,2.015-.387,2.984-.684A31.241,31.241,0,0,0,600.13,290.89q.142-.6.285-1.193.093-.6.187-1.2t.181-1.188c.061-.394.055-.793.085-1.185q.066-1.181.131-2.337c0-.77-.069-1.533-.1-2.287a31.261,31.261,0,0,0-14.524-24.441,20.227,20.227,0,0,0-2.364-1.339q-.577-.3-1.129-.592c-.38-.168-.763-.308-1.13-.457-.741-.285-1.435-.59-2.114-.821q-1.037-.29-1.964-.549a11.4,11.4,0,0,0-1.759-.41l-1.553-.26a15.621,15.621,0,0,0-2.424-.252c-1.306-.076-1.972-.127-1.972-.127" transform="translate(-33.261 -20.897)" fill="#263238"/>
          </g>
        </g>
        <g id="Grupo_1033930" data-name="Grupo 1033930">
          <g id="Grupo_1033929" data-name="Grupo 1033929" clip-path="url(#clip-path)">
            <path id="Trazado_735953" data-name="Trazado 735953" d="M355.669,273.951s2.981-1.537,5.615-.96,12.195,6.811,12.195,6.811l7.7-1.439,4.54,21.751L355.669,312.6Z" transform="translate(-40.348 -30.954)" fill="#ae7461"/>
            <path id="Trazado_735954" data-name="Trazado 735954" d="M330.224,281.551s6.884-.87,9.378-2.116,8.44-6.522,9.687-6.427,5.755.959,5.755.959l-1.822,5.467s9.015,5.466,11.7,7.481,11.125,11.03,11.509,13.235-.288,4.8-1.343,5.659-4.891-.863-4.891-.863a4.793,4.793,0,0,1-.863,3.932c-1.438,1.919-4.8,1.247-4.8,1.247s-.287,3.165-1.822,3.74-4.988-1.151-4.988-1.151-1.042,2.685-2.3,2.973-4.8-1.822-4.8-1.822-15.345-11.03-18.8-12.66a17.645,17.645,0,0,0-4.507-1.726Z" transform="translate(-37.133 -30.971)" fill="#ffbe9d"/>
            <path id="Trazado_735955" data-name="Trazado 735955" d="M361.332,317.233c-.069,0-.113-.27-.275-.674a12.037,12.037,0,0,0-.771-1.531,9.784,9.784,0,0,1-1.187-2.187,5.394,5.394,0,0,1,1.588,1.957,5.723,5.723,0,0,1,.684,1.671c.094.467.02.77-.039.764" transform="translate(-40.736 -35.489)" fill="#eb996e"/>
            <path id="Trazado_735956" data-name="Trazado 735956" d="M368.3,314.967a24.273,24.273,0,0,1-1.934-2.9c-1.05-1.6-2.174-2.663-2.093-2.762a6.776,6.776,0,0,1,2.475,2.5,9.3,9.3,0,0,1,1.552,3.156" transform="translate(-41.323 -35.088)" fill="#eb996e"/>
            <path id="Trazado_735957" data-name="Trazado 735957" d="M375.269,308.615c-.136.034-.564-1.626-1.624-3.416-1.043-1.8-2.281-2.985-2.185-3.087a9.412,9.412,0,0,1,3.81,6.5" transform="translate(-42.139 -34.272)" fill="#eb996e"/>
            <path id="Trazado_735958" data-name="Trazado 735958" d="M370.681,295.946a8.637,8.637,0,0,1,.23,5.178,52.248,52.248,0,0,1-.23-5.178" transform="translate(-42.045 -33.573)" fill="#eb996e"/>
            <path id="Trazado_735959" data-name="Trazado 735959" d="M345.5,284.708s2.4-7.673,3.261-8.632,8.883-3.071,8.883-3.071l2.487,6.428-1.779,1.882-3.836-.252s-2.4,6.33-9.015,3.645" transform="translate(-39.195 -30.971)" fill="#ae7461"/>
            <path id="Trazado_735960" data-name="Trazado 735960" d="M328.839,303.32s-1.1.844,0,2.858,4.07.575,5.029,0c0,0-1.439,3.356.383,4.411a7.159,7.159,0,0,0,4.028.768s-.1,2.014,2.494,3.356,3.261,0,3.261,0,.288,3.357,3.261,3.645,4.02-.733,4.02-.733l-1.334-1.982s1.727-3.519.384-5.053a4.6,4.6,0,0,0-3.549-1.342s.587-3.116-1.123-3.984a3.147,3.147,0,0,0-4.535,1.395s-.192-3.415-2.686-3.338a5.552,5.552,0,0,0-3.836,1.612Z" transform="translate(-37.249 -34.409)" fill="#ae7461"/>
            <path id="Trazado_735961" data-name="Trazado 735961" d="M342.432,307.086a12.614,12.614,0,0,1-2.824,4.8,25.813,25.813,0,0,1,2.824-4.8" transform="translate(-38.525 -34.836)" fill="#6f4439"/>
            <path id="Trazado_735962" data-name="Trazado 735962" d="M348.823,310.494a10.457,10.457,0,0,1-3.306,4.834,100.474,100.474,0,0,1,3.306-4.834" transform="translate(-39.196 -35.223)" fill="#6f4439"/>
            <path id="Trazado_735963" data-name="Trazado 735963" d="M279.9,351.318H265.352l-3.724,52.9h14.587c2.483-8.057,8.69-50.045,8.69-50.045Z" transform="translate(-29.68 -39.855)" fill="#12263f"/>
            <path id="Trazado_735964" data-name="Trazado 735964" d="M188.219,351.318s-9.311,21.833-8.38,30.67S186,404.222,186,404.222h72.055a165.555,165.555,0,0,0,3.563-18.3c1.551-10.917,5.741-34.607,5.741-34.607Z" transform="translate(-20.394 -39.855)" fill="#12263f"/>
            <path id="Trazado_735965" data-name="Trazado 735965" d="M284.891,108.693c-2.434-3.071-5.442-6.029-6.064-9.9-.574-3.557.982-7.452-.613-10.682-1.962-3.974-7.6-4.75-10.048-8.446-1.184-1.79-1.465-4.058-2.634-5.857-1.991-3.068-6.081-4.055-9.733-3.845s-7.214,1.345-10.87,1.421c-5.017.105-10.1-1.777-14.969-.575-5.375,1.326-8.843,5.856-12.509,10.226L212.7,86.08a19.794,19.794,0,0,1-3.112,2.282c-1.95,1.13-4.154,1.87-5.855,3.348a8.861,8.861,0,0,0-.039,12.779,9.475,9.475,0,0,0-6.831,8.971c.02,2.226.84,4.353,1.4,6.506s.848,4.535-.138,6.53-3.66,3.267-5.543,2.082a9.968,9.968,0,0,0,5.107,6.9,5.966,5.966,0,0,1-4.091,1.585c3.6,9.719,14.388,15.256,24.737,15.8s20.444-2.9,30.232-6.31l28.217-5.919c2.473-.443,3.634-3.37,3.718-5.882s-.428-5.154.579-7.457c1.382-3.157,5.2-4.686,6.639-7.819,1.635-3.56-.4-7.714-2.833-10.785" transform="translate(-21.848 -7.934)" fill="#12263f"/>
            <path id="Trazado_735966" data-name="Trazado 735966" d="M220.419,132.934c-1.72-6.394-3.412-12.834-4.006-19.428s-.044-13.408,2.579-19.488c.4-.921,3.7-7.071,4.692-6.921.709.106-1.427,5.892-1.1,6.53,3.136,6.086,3.7,13.24,2.8,20.027a89.709,89.709,0,0,1-4.97,19.28" transform="translate(-24.526 -9.88)" fill="#263238"/>
            <path id="Trazado_735967" data-name="Trazado 735967" d="M221.3,106.528c.316-16.6,10.241-30.257,26.828-29.482l1.529.16a29.687,29.687,0,0,1,26.57,30.247c-.354,14.389-.929,30.282-1.83,37.927C272.535,161.205,256.426,162,256.426,162c-.035,0-.433,26.141-.433,26.141L218.276,162Z" transform="translate(-24.762 -8.737)" fill="#ffbe9d"/>
            <path id="Trazado_735968" data-name="Trazado 735968" d="M258.75,171.815a38.487,38.487,0,0,1-19.989-8.274s3.714,13.392,19.676,13.633Z" transform="translate(-27.086 -18.553)" fill="#eb996e"/>
            <path id="Trazado_735969" data-name="Trazado 735969" d="M276.87,124.907a2.275,2.275,0,0,1-2.423,2.053,2.176,2.176,0,0,1-2.117-2.286,2.276,2.276,0,0,1,2.42-2.055,2.179,2.179,0,0,1,2.12,2.288" transform="translate(-30.893 -13.91)" fill="#263238"/>
            <path id="Trazado_735970" data-name="Trazado 735970" d="M277.9,118c-.311.265-1.892-1.184-4.328-1.434-2.429-.285-4.349.779-4.581.453-.116-.145.226-.648,1.064-1.132a6.242,6.242,0,0,1,3.706-.728,6,6,0,0,1,3.406,1.51c.688.653.886,1.214.733,1.332" transform="translate(-30.513 -13.059)" fill="#263238"/>
            <path id="Trazado_735971" data-name="Trazado 735971" d="M252.013,124.907a2.276,2.276,0,0,1-2.423,2.053,2.175,2.175,0,0,1-2.117-2.286,2.277,2.277,0,0,1,2.421-2.055,2.178,2.178,0,0,1,2.119,2.288" transform="translate(-28.074 -13.91)" fill="#263238"/>
            <path id="Trazado_735972" data-name="Trazado 735972" d="M250.88,116.272c-.312.265-1.9-1.184-4.329-1.434-2.429-.285-4.349.78-4.582.454-.114-.146.224-.648,1.065-1.132a6.242,6.242,0,0,1,3.706-.729,6,6,0,0,1,3.406,1.51c.686.653.885,1.214.734,1.332" transform="translate(-27.447 -12.864)" fill="#263238"/>
            <path id="Trazado_735973" data-name="Trazado 735973" d="M259.651,136.173c0-.139,1.544-.242,4.03-.3.628,0,1.23-.06,1.379-.473a3.186,3.186,0,0,0-.221-1.887q-.641-2.35-1.34-4.929c-1.843-7.01-3.107-12.748-2.825-12.82s2.007,5.553,3.849,12.563q.661,2.592,1.26,4.949a3.615,3.615,0,0,1,.065,2.474,1.568,1.568,0,0,1-1.117.8,4.229,4.229,0,0,1-1.073.035c-2.482-.127-4.013-.277-4.008-.417" transform="translate(-29.456 -13.133)" fill="#263238"/>
            <path id="Trazado_735974" data-name="Trazado 735974" d="M251.3,139.831c.4.019.125,2.662,2.19,4.777s4.909,2.121,4.89,2.492c.019.17-.682.448-1.874.355a6.623,6.623,0,0,1-4.1-1.931,5.768,5.768,0,0,1-1.666-3.988c.015-1.115.379-1.739.559-1.7" transform="translate(-28.444 -15.863)" fill="#263238"/>
            <path id="Trazado_735975" data-name="Trazado 735975" d="M251.609,105.173c-.31.637-2.708.066-5.6.11-2.895-.015-5.287.578-5.6-.055-.138-.3.329-.883,1.328-1.426a9.741,9.741,0,0,1,8.535-.042c1,.534,1.478,1.109,1.341,1.412" transform="translate(-27.27 -11.662)" fill="#263238"/>
            <path id="Trazado_735976" data-name="Trazado 735976" d="M277.817,108.73c-.487.508-2.1-.243-4.118-.483-2.005-.309-3.764-.02-4.1-.641-.142-.3.185-.825.986-1.27a6.007,6.007,0,0,1,6.62.906c.652.644.826,1.238.609,1.488" transform="translate(-30.581 -11.994)" fill="#263238"/>
            <path id="Trazado_735977" data-name="Trazado 735977" d="M220.3,123.575c-.258-.145-10.548-4.368-11.344,6.5s10.281,9.426,10.323,9.116,1.021-15.618,1.021-15.618" transform="translate(-23.7 -13.914)" fill="#ffbe9d"/>
            <path id="Trazado_735978" data-name="Trazado 735978" d="M216.613,135.271c-.045-.038-.2.119-.53.242a1.9,1.9,0,0,1-1.418-.075c-1.117-.5-1.95-2.4-1.86-4.362a6.274,6.274,0,0,1,.729-2.672,2.192,2.192,0,0,1,1.531-1.349.965.965,0,0,1,1.079.6c.123.315.038.527.095.549.028.03.246-.164.192-.62a1.212,1.212,0,0,0-.379-.713,1.434,1.434,0,0,0-1.027-.353,2.667,2.667,0,0,0-2.1,1.54,6.446,6.446,0,0,0-.879,2.982c-.09,2.2.88,4.327,2.419,4.9a2.031,2.031,0,0,0,1.753-.16c.356-.245.432-.483.4-.505" transform="translate(-24.054 -14.353)" fill="#eb996e"/>
            <path id="Trazado_735979" data-name="Trazado 735979" d="M270.159,88.718c1.823-.857-3.093-6.9-7.292-9.14-6.347-3.387-16.212-5.856-22.351-4.534-7.389,1.59-13.652,4.813-17.72,11.184s-5.934,13.979-6.208,21.534a13.018,13.018,0,0,0,1.1,6.743c1.364,2.5,4.182,4.2,3.841,7.514a4.561,4.561,0,0,0,.917,3.393c1.853,2.246,4.416.413,5.663-1.509,2.665-4.107,3.259-9.176,3.783-14.042.372-3.459.741-6.993-.022-10.389-.416-1.847-1.16-3.614-1.473-5.482a6.55,6.55,0,0,1,1.12-5.381,6.913,6.913,0,0,1,.942-.837,11.365,11.365,0,0,1,11.39-1.418c5.985,2.561,16.236,6.47,19.1,4.568,4.122-2.738,5.188-4.627,5.188-4.627Z" transform="translate(-24.568 -8.472)" fill="#12263f"/>
            <path id="Trazado_735980" data-name="Trazado 735980" d="M242.28,73.355a23.941,23.941,0,0,1,18.31,2.191c2.87,1.731,5.394,4.365,6.092,7.645s-.931,7.152-4.11,8.215l-.223.12c-4.74,1.264-7.717.448-12.24-1.451-3.806-1.6-7.115-4.224-10.929-5.8a22.144,22.144,0,0,0-12.913-1.208,36.157,36.157,0,0,1,16.012-9.707" transform="translate(-25.668 -8.222)" fill="#263238"/>
            <path id="Trazado_735981" data-name="Trazado 735981" d="M247.433,71.336a4.8,4.8,0,0,1,1.106.11,17.829,17.829,0,0,1,2.927.8,18.651,18.651,0,0,1,4,2.065,15.509,15.509,0,0,1,3.991,3.821,14.775,14.775,0,0,1,2.2,5.071,26.557,26.557,0,0,1,.669,4.449c.09,1.276.093,2.31.08,3.023a4.831,4.831,0,0,1-.079,1.107,5.4,5.4,0,0,1-.1-1.1c-.042-.71-.095-1.738-.225-3a29.53,29.53,0,0,0-.756-4.373,14.881,14.881,0,0,0-2.161-4.91,15.657,15.657,0,0,0-3.855-3.737,19.724,19.724,0,0,0-3.882-2.11,39.58,39.58,0,0,0-3.915-1.211" transform="translate(-28.069 -8.091)" fill="#455a64"/>
            <path id="Trazado_735982" data-name="Trazado 735982" d="M258.722,70.655a3.932,3.932,0,0,1,.939.26,7.776,7.776,0,0,1,1.074.4l1.359.688a14.024,14.024,0,0,1,5.639,6.632,14.3,14.3,0,0,1,1.154,4.711,16.251,16.251,0,0,1,.042,2.122,15.426,15.426,0,0,1-.25,1.833,9.336,9.336,0,0,1-.4,1.469,6.855,6.855,0,0,1-.438,1.062,3.919,3.919,0,0,1-.5.837,19.98,19.98,0,0,0,1.022-3.427,13.4,13.4,0,0,0,.105-3.857,18.053,18.053,0,0,0-.371-2.252,17.747,17.747,0,0,0-.786-2.319,14.408,14.408,0,0,0-5.385-6.533l-1.3-.733a10.034,10.034,0,0,0-1.027-.467,4.047,4.047,0,0,1-.875-.427" transform="translate(-29.35 -8.015)" fill="#455a64"/>
            <path id="Trazado_735983" data-name="Trazado 735983" d="M256.3,195.584c0,1.492,7.477,34.334,10.339,42.4s11.924,88.962,10.732,94.724-4.293,5.531-4.293,5.531S199.865,333.63,192,334.321s-11.209.46-13.117-8.528.057-55.7-1.613-67-1.684-16.767-2.329-33.545c-.559-14.542,2.749-26.206,9.665-34.624s22.225-16.93,22.225-16.93l5.431-7.92L250.686,186.1l.878-4.625,2.332,7.2Z" transform="translate(-19.838 -18.806)" fill="#6bcfc6"/>
            <g id="Grupo_1033916" data-name="Grupo 1033916" transform="translate(163.649 206.772)" opacity="0.3">
              <g id="Grupo_1033915" data-name="Grupo 1033915">
                <g id="Grupo_1033914" data-name="Grupo 1033914" clip-path="url(#clip-path-5)">
                  <path id="Trazado_735984" data-name="Trazado 735984" d="M273.92,303.332c-.64-1.631-2.716-2.042-4.458-2.235-16.282-1.806-33.229-5.871-45.121-17.137-4.652-4.408-8.321-9.734-11.857-15.08-7.728-11.685-14.993-23.669-22.256-35.649l-5.639,2.133c3.459,16.916,6.863,29.162,12.5,43.027,5.639,13.881,10.007,27.317,24.285,31.858,9.229,2.935,26.757.685,36.412-.071a56.5,56.5,0,0,0,11.961-1.874,7.8,7.8,0,0,0,3.236-1.645,3.191,3.191,0,0,0,.942-3.326" transform="translate(-184.589 -233.23)"/>
                </g>
              </g>
            </g>
            <path id="Trazado_735985" data-name="Trazado 735985" d="M182.24,226.046c.421.75,33,70.342,47.552,73.2s59.759,3.53,68.583,1.861,17.457-3.224,17.457-3.224,6.389-15.176.557-28.106l-12.144.384s-33.767-1.821-38.538-3.126-8.89-5.777-13.183-5.538l-25.688-59.781s-16.694-15.5-28.618-10.732-19.473,28.841-15.978,35.057" transform="translate(-20.577 -21.563)" fill="#6bcfc6"/>
            <path id="Trazado_735986" data-name="Trazado 735986" d="M320.862,310.6a5.926,5.926,0,0,1,.241-1.169c.192-.741.433-1.824.686-3.166s.482-2.955.645-4.753a50.762,50.762,0,0,0,.126-5.866,47.867,47.867,0,0,0-1.653-10.519c-.363-1.317-.691-2.376-.945-3.1a5.979,5.979,0,0,1-.337-1.145,5.774,5.774,0,0,1,.505,1.083,31.685,31.685,0,0,1,1.09,3.069,42.849,42.849,0,0,1,1.8,10.591,46.489,46.489,0,0,1-.164,5.923,41.422,41.422,0,0,1-.749,4.779,31.487,31.487,0,0,1-.832,3.15,5.881,5.881,0,0,1-.414,1.121" transform="translate(-36.259 -31.864)" fill="#263238"/>
            <path id="Trazado_735987" data-name="Trazado 735987" d="M226.946,203.211s.173.356.485,1.059.772,1.76,1.372,3.123l5.2,11.969c4.482,10.382,10.928,25.312,18.8,43.557l-.177-.111a11.115,11.115,0,0,1,5.694,1.745c1.772.977,3.489,2.113,5.372,2.973a18.048,18.048,0,0,0,6.112,1.422c2.138.253,4.322.441,6.537.633,8.861.732,18.251,1.309,28.028,1.855h-.019l12.144-.388.152,0,.059.137a31.265,31.265,0,0,1,2.432,13.938,45.622,45.622,0,0,1-2.981,14.35l-.044.113-.128.024-7.722,1.426-8.452,1.56a56.5,56.5,0,0,1-8.46.871c-5.618.255-11.156.277-16.595.249s-10.781-.156-16.01-.35-10.345-.456-15.33-.836c-2.494-.178-4.952-.418-7.374-.684a51.44,51.44,0,0,1-7.141-1.185,12.421,12.421,0,0,1-3.091-1.785,26.083,26.083,0,0,1-2.627-2.3,56.579,56.579,0,0,1-4.509-5.085,186.657,186.657,0,0,1-13.688-20.589c-7.638-13.051-13.15-23.98-16.935-31.535-1.882-3.784-3.307-6.74-4.263-8.748s-1.434-3.075-1.434-3.075.145.254.4.765l1.121,2.27,4.34,8.708c3.833,7.528,9.389,18.432,17.056,31.449a187.605,187.605,0,0,0,13.705,20.518,56.386,56.386,0,0,0,4.487,5.042,25.6,25.6,0,0,0,2.591,2.265,12.035,12.035,0,0,0,2.989,1.723,51.81,51.81,0,0,0,7.05,1.154c2.416.261,4.87.5,7.359.673q7.467.56,15.314.819c5.225.189,10.563.311,16,.339s10.968,0,16.57-.256a56.064,56.064,0,0,0,8.4-.865l8.454-1.562,7.724-1.426-.172.137a45.251,45.251,0,0,0,2.95-14.189,30.848,30.848,0,0,0-2.386-13.734l.213.132-12.145.379h-.019c-9.78-.554-19.17-1.141-28.038-1.888-2.217-.2-4.4-.387-6.549-.645-1.074-.121-2.137-.261-3.194-.461a11.944,11.944,0,0,1-3.032-1c-1.919-.882-3.638-2.026-5.392-3a10.79,10.79,0,0,0-5.492-1.71l-.129.006-.05-.116c-7.815-18.27-14.211-33.223-18.657-43.619-2.208-5.191-3.931-9.241-5.107-12.008l-1.323-3.144c-.3-.711-.434-1.082-.434-1.082" transform="translate(-20.686 -23.053)" fill="#263238"/>
            <path id="Trazado_735988" data-name="Trazado 735988" d="M224.011,196.892c-.031.028-.454-.419-1.264-1.17a24.4,24.4,0,0,0-10.054-5.549,22.613,22.613,0,0,0-16.443,1.644,24.407,24.407,0,0,0-8.756,7.429c-.645.9-.972,1.419-1.008,1.4a1.685,1.685,0,0,1,.2-.4c.151-.25.342-.642.662-1.1a21.471,21.471,0,0,1,3.02-3.626,23.213,23.213,0,0,1,28.827-2.882,21.438,21.438,0,0,1,3.677,2.957c.405.383.67.729.867.945a1.657,1.657,0,0,1,.273.355" transform="translate(-21.155 -21.427)" fill="#263238"/>
            <path id="Trazado_735989" data-name="Trazado 735989" d="M261.039,270.7a61.092,61.092,0,0,1-3.72,9.936,61.307,61.307,0,0,1,3.72-9.936" transform="translate(-29.19 -30.709)" fill="#263238"/>
            <path id="Trazado_735990" data-name="Trazado 735990" d="M327.866,283.617c0-.026.125-.061.335.014a1.263,1.263,0,0,1,.652.638,1.394,1.394,0,0,1-.033,1.381,1.594,1.594,0,0,1-1.542.713,1.5,1.5,0,0,1-1.161-1.239,1.432,1.432,0,0,1,.443-1.309,1.17,1.17,0,0,1,.873-.285c.213.02.317.076.313.1.015.088-.517-.033-.959.416a1.133,1.133,0,0,0-.253.993,1.1,1.1,0,0,0,.821.864,1.216,1.216,0,0,0,1.111-.493,1.1,1.1,0,0,0,.088-1.015c-.227-.635-.707-.723-.689-.783" transform="translate(-36.993 -32.164)" fill="#263238"/>
            <path id="Trazado_735991" data-name="Trazado 735991" d="M256,189.565a6.067,6.067,0,0,1-.876-.453q-.906-.517-2.426-1.386l.171-.074c-.48,2.423-.943,5.989-1.756,10.262l-.053.284-.248-.156c-3.568-2.248-7.849-4.818-12.414-7.578-3.405-2.038-6.588-4.1-9.521-5.873s-5.638-3.29-7.9-4.561l-5.381-2.993-1.459-.821a2.714,2.714,0,0,1-.5-.312,2.851,2.851,0,0,1,.537.23l1.5.745c1.3.659,3.164,1.63,5.453,2.865s5,2.735,7.967,4.482l9.541,5.844c4.564,2.758,8.836,5.351,12.388,7.637l-.3.128c.848-4.24,1.373-7.811,1.921-10.228l.037-.159.134.084,2.369,1.479a6.068,6.068,0,0,1,.815.556" transform="translate(-24.236 -19.955)" fill="#263238"/>
            <g id="Grupo_1033919" data-name="Grupo 1033919" transform="translate(194.804 158.818)" opacity="0.3">
              <g id="Grupo_1033918" data-name="Grupo 1033918">
                <g id="Grupo_1033917" data-name="Grupo 1033917" clip-path="url(#clip-path-6)">
                  <path id="Trazado_735992" data-name="Trazado 735992" d="M219.731,179.14l20.053,14.942c4.412,3.287,8.93,6.631,14.17,8.312l-.29-13.937-2.052,9.783Z" transform="translate(-219.731 -179.14)"/>
                </g>
              </g>
            </g>
            <path id="Trazado_735993" data-name="Trazado 735993" d="M451.614,95.718A7.188,7.188,0,0,1,448.3,81.8a7.477,7.477,0,0,1,6.274-12.732,8.949,8.949,0,0,1,13.351-7.591,10.062,10.062,0,0,1,12.382-.488,7.157,7.157,0,0,1,6.55,12.017" transform="translate(-50.311 -6.704)" fill="#12263f"/>
            <path id="Trazado_735994" data-name="Trazado 735994" d="M451.31,97.893a30.494,30.494,0,0,1,29.822-28.657l1.579-.033c17.045.648,26.018,15.486,24.9,32.507l1.013,60.726L467.2,177.3l-.362-21.869s-16.418-2.211-16.954-18.571c-.259-7.9.533-24.215,1.421-38.969" transform="translate(-51.031 -7.851)" fill="#ae7461"/>
            <path id="Trazado_735995" data-name="Trazado 735995" d="M468.865,165.585a39.7,39.7,0,0,0,21.314-6.712s-4.8,11.879-21.161,10.738Z" transform="translate(-53.189 -18.023)" fill="#6f4439"/>
            <path id="Trazado_735996" data-name="Trazado 735996" d="M456.682,117.977a2.338,2.338,0,0,0,2.3,2.312,2.236,2.236,0,0,0,2.365-2.156,2.339,2.339,0,0,0-2.3-2.314,2.238,2.238,0,0,0-2.368,2.158" transform="translate(-51.807 -13.139)" fill="#263238"/>
            <path id="Trazado_735997" data-name="Trazado 735997" d="M455.645,110.187c.3.3,2.039-1.047,4.554-1.092,2.511-.081,4.383,1.176,4.649.864.132-.139-.175-.684-.99-1.253a6.413,6.413,0,0,0-3.73-1.067,6.164,6.164,0,0,0-3.617,1.25c-.762.61-1.012,1.166-.866,1.3" transform="translate(-51.685 -12.211)" fill="#263238"/>
            <path id="Trazado_735998" data-name="Trazado 735998" d="M482.526,117.977a2.335,2.335,0,0,0,2.3,2.311,2.234,2.234,0,0,0,2.365-2.156,2.339,2.339,0,0,0-2.3-2.313,2.236,2.236,0,0,0-2.368,2.158" transform="translate(-54.739 -13.139)" fill="#263238"/>
            <path id="Trazado_735999" data-name="Trazado 735999" d="M483.536,110.148c.3.3,2.042-1.047,4.555-1.091,2.511-.081,4.383,1.176,4.649.863.131-.139-.172-.684-.991-1.253a6.41,6.41,0,0,0-3.729-1.067,6.178,6.178,0,0,0-3.618,1.25c-.759.61-1.011,1.166-.866,1.3" transform="translate(-54.849 -12.206)" fill="#263238"/>
            <path id="Trazado_736000" data-name="Trazado 736000" d="M472.851,129.036c.009-.144-1.559-.382-4.1-.654-.644-.052-1.254-.168-1.372-.6a3.27,3.27,0,0,1,.39-1.911q.858-2.348,1.8-4.928c2.5-7.015,4.287-12.778,4-12.876s-2.536,5.509-5.031,12.524q-.9,2.593-1.719,4.955a3.72,3.72,0,0,0-.282,2.528,1.61,1.61,0,0,0,1.075.917,4.319,4.319,0,0,0,1.093.129c2.552.085,4.133.065,4.14-.078" transform="translate(-52.911 -12.259)" fill="#263238"/>
            <path id="Trazado_736001" data-name="Trazado 736001" d="M482.48,100.479c.345.63,2.485-.1,5.138-.244,2.647-.2,4.894.254,5.123-.413.1-.317-.385-.88-1.351-1.372a7.967,7.967,0,0,0-4-.756,7.678,7.678,0,0,0-3.818,1.257c-.869.608-1.247,1.226-1.093,1.528" transform="translate(-54.73 -11.081)" fill="#263238"/>
            <path id="Trazado_736002" data-name="Trazado 736002" d="M455.09,100.133c.542.56,2.6-.075,5.1-.153,2.492-.152,4.616.29,5.091-.317.207-.294-.137-.86-1.071-1.382a8.135,8.135,0,0,0-4.167-.851A7.991,7.991,0,0,0,456,98.66c-.87.6-1.147,1.2-.908,1.473" transform="translate(-51.617 -11.052)" fill="#263238"/>
            <path id="Trazado_736003" data-name="Trazado 736003" d="M453.1,90.107s4.107-10.335,9-12.828c5.923-3.017,8.632,3.5,14.3,1.787s11.322-4.6,17.238-.316c6.475,4.694,3.556,8.139,4.1,15.392,2.2,29.4,7.742,37.618,8.989,23.722.137-1.523,4.328-2.817,4.822-9.248.641-8.338.755-18.45-1.222-24.318-1.668-4.946-4.576-8.327-9.742-12.016-8.156-5.822-19.195-5.725-26.674-4.819S452.151,77.29,453.1,90.107" transform="translate(-51.395 -7.601)" fill="#12263f"/>
            <path id="Trazado_736004" data-name="Trazado 736004" d="M512.372,123.332a4.441,4.441,0,0,1,4.709-4.378c3.058.228,6.489,1.892,6.416,8.2-.129,11.194-11.342,8.755-11.357,8.434-.012-.218.137-7.575.232-12.258" transform="translate(-58.099 -13.493)" fill="#ae7461"/>
            <path id="Trazado_736005" data-name="Trazado 736005" d="M514.94,131.872c.05-.035.194.139.521.293a1.95,1.95,0,0,0,1.457.047c1.188-.42,2.2-2.286,2.283-4.3a6.44,6.44,0,0,0-.514-2.8,2.246,2.246,0,0,0-1.449-1.513.991.991,0,0,0-1.157.52c-.154.311-.086.535-.145.554-.031.028-.238-.191-.143-.652a1.25,1.25,0,0,1,.449-.7,1.469,1.469,0,0,1,1.082-.272,2.739,2.739,0,0,1,2.016,1.758,6.631,6.631,0,0,1,.641,3.129c-.1,2.255-1.278,4.352-2.9,4.8a2.091,2.091,0,0,1-1.78-.317c-.344-.28-.4-.532-.361-.551" transform="translate(-58.415 -13.958)" fill="#6f4439"/>
            <path id="Trazado_736006" data-name="Trazado 736006" d="M505.943,95.288a10.631,10.631,0,0,1-4.693,2.285c-1.747.208-3.771-.756-4.1-2.484-.149-.777.023-1.684-.5-2.275-.626-.706-1.748-.457-2.684-.34a7.143,7.143,0,0,1-7.516-4.968c-.8,1.259-2.741,1.244-4.013.46a16.061,16.061,0,0,1-3.112-3.2c-1.005-1.1-2.405-2.083-3.88-1.842a11.029,11.029,0,0,1-2.422.585c-1.472-.1-2.224-1.806-2.476-3.26s-.46-3.151-1.72-3.919c-1.168-.711-2.654-.255-4-.029s-3.1-.055-3.474-1.37a2.657,2.657,0,0,1,.459-2.04,7.247,7.247,0,0,1,8.5-2.917,9.823,9.823,0,0,1,18.005-2.271,9.968,9.968,0,0,1,16.005,3.31,7.226,7.226,0,0,1,8.359,10.343c2.035,1.107,3.8,3.071,3.885,5.386s-2.12,4.668-4.366,4.1a4,4,0,0,1-6.838,4.131" transform="translate(-52.33 -7.119)" fill="#12263f"/>
            <path id="Trazado_736007" data-name="Trazado 736007" d="M470.6,74.633a.584.584,0,0,0,.007.2c.018.134.029.338.083.6a7.047,7.047,0,0,0,.856,2.139,8.014,8.014,0,0,0,2.535,2.595,7.452,7.452,0,0,0,4.609,1.213l-.194-.244a4.049,4.049,0,0,0,.287,3.084,11.566,11.566,0,0,0,1.971,2.712,8.315,8.315,0,0,0,1.278,1.259,3.922,3.922,0,0,0,1.786.621,4.084,4.084,0,0,0,3.575-1.364l-.42-.111a8.4,8.4,0,0,0,3.677,5.733,6.123,6.123,0,0,0,3.7,1.129,11.025,11.025,0,0,0,3.6-.869l-.3-.125a8.809,8.809,0,0,0,2.718,3.4,4.694,4.694,0,0,0,3.919.982,6.164,6.164,0,0,0,4.647-4.92l-.251.123a5.768,5.768,0,0,0,3.856.486,6.25,6.25,0,0,0,2.656-1.25,5.409,5.409,0,0,0,1.223-1.392,2.664,2.664,0,0,0,.272-.585,6.735,6.735,0,0,1-1.61,1.829,6.21,6.21,0,0,1-2.594,1.132,5.518,5.518,0,0,1-3.639-.521l-.212-.114-.039.238a5.813,5.813,0,0,1-4.4,4.56,4.262,4.262,0,0,1-3.559-.932,8.412,8.412,0,0,1-2.554-3.225l-.092-.206-.21.08a10.68,10.68,0,0,1-3.447.827,5.649,5.649,0,0,1-3.415-1.051,7.941,7.941,0,0,1-3.477-5.4l-.081-.527-.34.417a3.632,3.632,0,0,1-3.157,1.2,3.459,3.459,0,0,1-1.582-.538,8.108,8.108,0,0,1-1.2-1.179,11.26,11.26,0,0,1-1.926-2.595,3.67,3.67,0,0,1-.3-2.79l.086-.269-.281.024a7.192,7.192,0,0,1-4.415-1.094,7.972,7.972,0,0,1-2.516-2.453,8.656,8.656,0,0,1-1.124-2.829" transform="translate(-53.385 -8.467)" fill="#455a64"/>
            <path id="Trazado_736008" data-name="Trazado 736008" d="M482.609,132.7c-.4.047.062,2.685-1.864,4.957s-4.785,2.477-4.74,2.849c-.007.172.716.4,1.909.224a6.676,6.676,0,0,0,3.984-2.23,5.812,5.812,0,0,0,1.394-4.126c-.094-1.121-.5-1.722-.682-1.675" transform="translate(-53.999 -15.053)" fill="#263238"/>
            <path id="Trazado_736009" data-name="Trazado 736009" d="M380.336,273.451c1.419-.567,48.272-6.2,48.272-6.2l19.01-16.095-1.784,46.591-59.825,5.768Z" transform="translate(-43.146 -28.492)" fill="#ff9d00"/>
            <g id="Grupo_1033922" data-name="Grupo 1033922" transform="translate(390.801 229.783)" opacity="0.3">
              <g id="Grupo_1033921" data-name="Grupo 1033921">
                <g id="Grupo_1033920" data-name="Grupo 1033920" clip-path="url(#clip-path-7)">
                  <path id="Trazado_736010" data-name="Trazado 736010" d="M446.072,259.186c-.57.285-5.265,4.458-5.265,4.458l1.433,35.876Z" transform="translate(-440.808 -259.186)"/>
                </g>
              </g>
            </g>
            <path id="Trazado_736011" data-name="Trazado 736011" d="M526.661,354.356H447.522s4.19,22.33,5.742,32.62a131.777,131.777,0,0,0,3.819,17.59h71.675s5.35-12.971,6.282-21.3-8.38-28.909-8.38-28.909" transform="translate(-50.768 -40.199)" fill="#12263f"/>
            <path id="Trazado_736012" data-name="Trazado 736012" d="M440.745,357.4s-2.211,25.454,0,47.516h27.413V384.584Z" transform="translate(-49.888 -40.544)" fill="#263238"/>
            <path id="Trazado_736013" data-name="Trazado 736013" d="M458.051,210.038l8.529-18.676,1.059-11.535s16.353-10.279,24.113-14.158a169.611,169.611,0,0,1,18.211-7.391v10.885Z" transform="translate(-51.963 -17.955)" fill="#ebebeb"/>
            <path id="Trazado_736014" data-name="Trazado 736014" d="M526.966,305.922s4.632-62.252,4.946-66.878c0,0,2.736-33.262-3.17-45.928s-19.122-23.8-19.122-23.8l-1.217-6.649L482.589,178.94l-11.933,10.378A119.23,119.23,0,0,0,459.4,203.327c-3.388,4.686-7.154,10.716-8.829,18.3-.612,2.772-7.715,35.911-7.927,59.01,0,0-1.091,20.151-2.255,31.567-1.441,14.128-3.636,46.336-3.159,65.418l83.649-2.555c20.672-3.153,17.036-5.209,17.036-5.209Z" transform="translate(-49.593 -18.454)" fill="#ff9d00"/>
            <path id="Trazado_736015" data-name="Trazado 736015" d="M508.218,170.555s-.194.1-.58.264l-1.707.714c-.73.351-1.616.815-2.658,1.356-1,.618-2.192,1.258-3.425,2.137a95.007,95.007,0,0,0-18.379,16.987l-.048.056-.069.013-8.026,1.475.173-.2c-.126,3.728-.258,7.642-.395,11.692l0,.091-.069.066a111.044,111.044,0,0,0-11.8,12.936,50.823,50.823,0,0,0-4.046,6.115l-.437.789-.334.823a14.385,14.385,0,0,0-.605,1.669c-.358,1.133-.71,2.258-1,3.395-1.239,4.521-2.261,8.933-3.218,13.137-1.9,8.412-3.49,16.017-4.806,22.406-2.625,12.781-4.1,20.713-4.1,20.713a12.92,12.92,0,0,1,.18-1.455c.145-.95.389-2.346.707-4.142.649-3.591,1.627-8.78,2.9-15.181s2.828-14.013,4.711-22.435c.947-4.21,1.96-8.626,3.2-13.164.291-1.138.645-2.273,1-3.417a14.686,14.686,0,0,1,.619-1.708l.347-.851.442-.8a50.953,50.953,0,0,1,4.081-6.174,110.271,110.271,0,0,1,11.867-12.986l-.073.157c.145-4.05.286-7.962.42-11.691l.006-.17.168-.03,8.03-1.449-.117.069a92.947,92.947,0,0,1,18.557-16.928c1.248-.868,2.456-1.5,3.467-2.1,1.055-.527,1.954-.976,2.693-1.31l1.735-.661c.394-.146.6-.207.6-.207" transform="translate(-50.219 -19.348)" fill="#263238"/>
            <path id="Trazado_736016" data-name="Trazado 736016" d="M483.439,223.176l1,83.067-12.649,80.9h33.348s15.155-61.428,18.684-74.337c3.427-12.534,8.562-75.629,9.018-78.728.178-1.214,3.794-23-6.85-33.284" transform="translate(-53.522 -22.779)" fill="#ff9d00"/>
            <path id="Trazado_736017" data-name="Trazado 736017" d="M525.959,200.8s.241.229.7.693a18.543,18.543,0,0,1,1.822,2.239,27.881,27.881,0,0,1,4.165,10.236,57.288,57.288,0,0,1,.634,17.527c-.5,3.4-.752,7.04-1.121,10.917q-.528,5.809-1.114,12.265c-.8,8.6-1.693,18.017-2.779,28.123-.557,5.052-1.134,10.278-1.848,15.65a127.7,127.7,0,0,1-2.937,16.467c-5.571,22.19-11.7,46.611-18.15,72.287l-.044.176h-3.778l-29.749,0h-.267l.041-.263c4.68-29.84,9-57.382,12.688-80.9l0,.032c-.27-25.154-.493-45.917-.648-60.4-.066-7.233-.116-12.9-.152-16.762-.011-1.921-.02-3.395-.025-4.4s.011-1.505.011-1.505.026.512.047,1.505.045,2.476.081,4.4c.059,3.866.145,9.529.254,16.76.2,14.486.473,35.249.81,60.4v.015l0,.016c-3.666,23.52-7.96,51.066-12.61,80.909l-.225-.263,29.749,0h3.6l-.223.176c6.46-25.676,12.606-50.1,18.19-72.288a127.691,127.691,0,0,0,2.945-16.408c.72-5.366,1.3-10.589,1.87-15.638,1.1-10.1,2.018-19.518,2.834-28.112q.6-6.447,1.146-12.261c.379-3.86.646-7.541,1.156-10.919A57.433,57.433,0,0,0,532.47,214a28.117,28.117,0,0,0-4.068-10.22,19.819,19.819,0,0,0-1.78-2.26c-.443-.473-.663-.724-.663-.724" transform="translate(-53.487 -22.779)" fill="#263238"/>
            <path id="Trazado_736018" data-name="Trazado 736018" d="M502.688,328.009a13.638,13.638,0,0,1-2.577-.746c-1.567-.535-3.708-1.35-6.02-2.375s-4.353-2.068-5.8-2.872a13.533,13.533,0,0,1-2.281-1.411,17.838,17.838,0,0,1,2.433,1.121c1.482.727,3.536,1.717,5.837,2.739s4.412,1.879,5.946,2.491a17.649,17.649,0,0,1,2.464,1.052" transform="translate(-55.134 -36.37)" fill="#263238"/>
            <path id="Trazado_736019" data-name="Trazado 736019" d="M440.427,324.473a.764.764,0,0,1-.008-.218c.006-.17.013-.379.022-.636q.048-.895.131-2.443c.137-2.161.332-5.218.572-8.98.512-7.581,1.242-18.052,2.264-29.6s2.2-21.988,3.164-29.526c.483-3.769.893-6.816,1.2-8.918q.229-1.532.362-2.42l.105-.628a.109.109,0,1,1,.047.006c-.016.17-.036.379-.06.634q-.1.891-.276,2.431c-.254,2.15-.613,5.192-1.055,8.934-.879,7.545-2.005,17.979-3.029,29.528s-1.8,22.01-2.4,29.584c-.3,3.757-.545,6.811-.718,8.969-.091,1.028-.164,1.842-.217,2.437-.027.255-.05.463-.068.633a.752.752,0,0,1-.039.215" transform="translate(-49.962 -27.327)" fill="#263238"/>
            <path id="Trazado_736020" data-name="Trazado 736020" d="M515.614,187.4a42.954,42.954,0,0,0-3.138-6.617,42.786,42.786,0,0,0-4.6-5.7,7.393,7.393,0,0,1,1.692,1.367,22.149,22.149,0,0,1,5.551,8.83,7.406,7.406,0,0,1,.5,2.116" transform="translate(-57.614 -19.862)" fill="#263238"/>
            <path id="Trazado_736021" data-name="Trazado 736021" d="M449.619,305.055c.023-.005.107.2.082.6a2.413,2.413,0,0,1-.725,1.5,2.3,2.3,0,0,1-2.405.546,2.665,2.665,0,0,1-1.236-.884,2.456,2.456,0,0,1-.5-1.559,3.23,3.23,0,0,1,.642-1.933,1.99,1.99,0,0,1,.778-.614c.319-.118.551-.174.815-.258l.033-.01h.029a2.788,2.788,0,0,1,1.607.463,2.071,2.071,0,0,1,.745,1.057,2.112,2.112,0,0,1,.137,1.083c-.055.012-.1-.39-.357-1a1.925,1.925,0,0,0-.712-.87,2.536,2.536,0,0,0-1.419-.332l.061-.01c-.241.085-.547.176-.766.265a1.6,1.6,0,0,0-.6.5,2.856,2.856,0,0,0-.533,1.662,2.117,2.117,0,0,0,1.418,2.038,1.972,1.972,0,0,0,2.039-.384,2.432,2.432,0,0,0,.77-1.292c.078-.359.058-.573.1-.577" transform="translate(-50.463 -34.311)" fill="#263238"/>
            <path id="Trazado_736022" data-name="Trazado 736022" d="M448.22,338.185c.023-.005.107.2.082.6a2.413,2.413,0,0,1-.725,1.5,2.3,2.3,0,0,1-2.405.546,2.666,2.666,0,0,1-1.236-.884,2.455,2.455,0,0,1-.5-1.559,3.231,3.231,0,0,1,.642-1.933,1.99,1.99,0,0,1,.778-.613c.319-.118.551-.174.815-.258l.033-.01h.029a2.788,2.788,0,0,1,1.607.463,2.071,2.071,0,0,1,.745,1.057,2.113,2.113,0,0,1,.137,1.083c-.055.012-.1-.39-.357-1a1.925,1.925,0,0,0-.712-.87,2.536,2.536,0,0,0-1.419-.332l.061-.01c-.241.085-.547.176-.766.265a1.6,1.6,0,0,0-.6.5,2.856,2.856,0,0,0-.533,1.662,2.117,2.117,0,0,0,1.418,2.038,1.973,1.973,0,0,0,2.039-.384,2.432,2.432,0,0,0,.77-1.292c.078-.359.058-.573.1-.577" transform="translate(-50.304 -38.069)" fill="#263238"/>
            <path id="Trazado_736023" data-name="Trazado 736023" d="M525.878,194.84c-.047.079-1.147-.626-3.093-1.372a21.533,21.533,0,0,0-3.509-1,21.706,21.706,0,0,0-8.874.122,21.577,21.577,0,0,0-3.48,1.1c-1.925.8-3.005,1.534-3.054,1.457a3.458,3.458,0,0,1,.732-.552,7.868,7.868,0,0,1,.919-.559,12.985,12.985,0,0,1,1.273-.645,19.382,19.382,0,0,1,3.514-1.211,20.579,20.579,0,0,1,9.053-.125,19.443,19.443,0,0,1,3.546,1.114,13.229,13.229,0,0,1,1.29.61,7.654,7.654,0,0,1,.934.534,3.489,3.489,0,0,1,.747.531" transform="translate(-57.16 -21.737)" fill="#263238"/>
            <g id="Grupo_1033925" data-name="Grupo 1033925" transform="translate(395.673 166.023)" opacity="0.3">
              <g id="Grupo_1033924" data-name="Grupo 1033924">
                <g id="Grupo_1033923" data-name="Grupo 1033923" clip-path="url(#clip-path-8)">
                  <path id="Trazado_736024" data-name="Trazado 736024" d="M446.3,272.048c3.613-5.256,4.938-10.214,6.868-16.293,2.868-9.034,3.668-19.241,8.169-27.583,2.651-4.912,5.767-9.952,10.375-13.1,4.495-3.073,5.161-6.978,5.072-17.541,3.213.032,6.609-2.445,7.013-2.879a17.883,17.883,0,0,0,3.94-7.383c-2.254,2.45-6.011,6.516-6.011,6.516s-8.148,1.513-8.029,1.462c-.2,4.064-.207,7.628-.408,11.692,0,0-15.632,16.585-16.848,19.919S446.3,272.048,446.3,272.048" transform="translate(-446.303 -187.267)"/>
                </g>
              </g>
            </g>
            <g id="Grupo_1033928" data-name="Grupo 1033928" transform="translate(453.709 220.59)" opacity="0.3">
              <g id="Grupo_1033927" data-name="Grupo 1033927">
                <g id="Grupo_1033926" data-name="Grupo 1033926" clip-path="url(#clip-path-9)">
                  <path id="Trazado_736025" data-name="Trazado 736025" d="M511.765,382.573c19.81-37.5,25.966-86.8,24.787-133.757,0,0-5.685,57.081-7.6,66.879-1.9,9.729-17.185,66.878-17.185,66.878" transform="translate(-511.765 -248.816)"/>
                </g>
              </g>
            </g>
            <path id="Trazado_736026" data-name="Trazado 736026" d="M509.906,163.748a2.494,2.494,0,0,1-.444.339l-1.32.9-4.9,3.222-16.261,10.479-7.016,4.474.015-.011-2.241,1.734a17.95,17.95,0,0,0-2,1.709c-1.228,1.186-2.321,2.34-3.3,3.387l-.177.189-.1-.234-2.559-5.913c-.277-.666-.5-1.2-.674-1.619a2.807,2.807,0,0,1-.2-.579,3.015,3.015,0,0,1,.293.539c.2.407.445.932.756,1.582l2.7,5.852-.279-.045c.969-1.066,2.05-2.235,3.276-3.443a18.233,18.233,0,0,1,2.028-1.762l2.222-1.743.008-.006.008,0,7.007-4.494,16.337-10.367,4.98-3.1,1.366-.823a2.54,2.54,0,0,1,.493-.26" transform="translate(-53.172 -18.576)" fill="#263238"/>
          </g>
        </g>
        <g id="Grupo_1033953" data-name="Grupo 1033953">
          <g id="Grupo_1033952" data-name="Grupo 1033952" clip-path="url(#clip-path)">
            <path id="Trazado_736027" data-name="Trazado 736027" d="M42.846,116.51c-.106.059-3.874-6.478-8.416-14.6S26.29,87.152,26.4,87.093s3.873,6.477,8.417,14.6,8.138,14.756,8.032,14.815" transform="translate(-2.994 -9.88)" fill="#263238"/>
            <path id="Trazado_736028" data-name="Trazado 736028" d="M59.151,88.471c.121.007-.058,5.013-.4,11.181s-.716,11.165-.837,11.158.057-5.012.4-11.182.716-11.164.838-11.157" transform="translate(-6.566 -10.036)" fill="#263238"/>
            <path id="Trazado_736029" data-name="Trazado 736029" d="M32.271,127.277c-.039.115-4.287-1.217-9.489-2.975s-9.388-3.277-9.349-3.392,4.287,1.217,9.49,2.975,9.387,3.278,9.348,3.392" transform="translate(-1.524 -13.716)" fill="#263238"/>
            <path id="Trazado_736030" data-name="Trazado 736030" d="M97.871,139.569A35.356,35.356,0,1,0,64.523,189.1l3.579,8.17,28.384-12.434s-1.838-4.661-3.567-8.781a35.346,35.346,0,0,0,4.951-36.487" transform="translate(-3.417 -13.431)" fill="#ff9d00"/>
            <path id="Trazado_736031" data-name="Trazado 736031" d="M95.659,190.6s-.081-.126-.229-.378l-.649-1.12c-.566-.988-1.388-2.451-2.421-4.351-2.055-3.8-4.949-9.359-8.121-16.412q-1.193-2.642-2.425-5.563l-1.237-2.982a11.091,11.091,0,0,1-.961-3.228,3.755,3.755,0,0,1,.253-1.734,2.286,2.286,0,0,1,1.231-1.293,2.139,2.139,0,0,1,1.8.2,3.349,3.349,0,0,1,1.284,1.32,4.123,4.123,0,0,1-.06,3.654,6.221,6.221,0,0,1-2.614,2.751,6.717,6.717,0,0,1-3.8.825,7.086,7.086,0,0,1-3.7-1.473,8.453,8.453,0,0,1-2.55-3.175,6.171,6.171,0,0,1-.582-2.006,2.925,2.925,0,0,1,.464-2.067,1.88,1.88,0,0,1,.9-.637,2.415,2.415,0,0,1,1.095-.079,3.386,3.386,0,0,1,1.9,1.008,7.373,7.373,0,0,1,1.251,1.76,21.318,21.318,0,0,1,.907,1.958,14.642,14.642,0,0,1,1.07,4.227,8.051,8.051,0,0,1-.732,4.346,6.423,6.423,0,0,1-1.323,1.807,5.005,5.005,0,0,1-1.923,1.131,4.634,4.634,0,0,1-2.216.077,5.957,5.957,0,0,1-2.024-.852,13.366,13.366,0,0,1-3.118-2.959c-.445-.553-.864-1.125-1.263-1.7a12.309,12.309,0,0,1-1.1-1.8,3.469,3.469,0,0,1-.345-2.09,2.257,2.257,0,0,1,.424-.995,1.521,1.521,0,0,1,.93-.567,1.819,1.819,0,0,1,1.067.14,3.605,3.605,0,0,1,.888.559,7.043,7.043,0,0,1,1.333,1.55,11.833,11.833,0,0,1,2.182,7.47,7.566,7.566,0,0,1-1.279,3.581,5.669,5.669,0,0,1-2.923,2.25,4.9,4.9,0,0,1-3.562-.3,5.566,5.566,0,0,1-2.567-2.341,4.56,4.56,0,0,1-.554-1.628,2.566,2.566,0,0,1,.3-1.672,1.311,1.311,0,0,1,1.542-.535,3.1,3.1,0,0,1,1.309.975,12.908,12.908,0,0,1,1.574,2.688q.678,1.356,1.327,2.653c3.45,6.92,6.138,12.57,7.925,16.507.9,1.968,1.561,3.509,2.008,4.556q.323.782.5,1.2c.11.27.16.411.16.411s-.066-.135-.184-.4-.293-.668-.519-1.185c-.461-1.04-1.142-2.574-2.051-4.535-1.815-3.923-4.527-9.56-8-16.467l-1.335-2.65a12.689,12.689,0,0,0-1.554-2.644,2.9,2.9,0,0,0-1.22-.912,1.114,1.114,0,0,0-1.31.455,2.372,2.372,0,0,0-.264,1.535,4.379,4.379,0,0,0,.533,1.55,5.36,5.36,0,0,0,2.474,2.245,4.673,4.673,0,0,0,3.4.279,5.441,5.441,0,0,0,2.8-2.166A7.336,7.336,0,0,0,71,167.892a11.6,11.6,0,0,0-2.15-7.312,6.767,6.767,0,0,0-1.287-1.5,2.239,2.239,0,0,0-1.752-.645,1.537,1.537,0,0,0-1.154,1.363,3.215,3.215,0,0,0,.327,1.942,12.023,12.023,0,0,0,1.083,1.763c.4.574.813,1.141,1.254,1.689a13.115,13.115,0,0,0,3.057,2.9,5.7,5.7,0,0,0,1.939.817,4.359,4.359,0,0,0,2.091-.073,5.292,5.292,0,0,0,3.09-2.806,7.786,7.786,0,0,0,.707-4.211,14.374,14.374,0,0,0-1.051-4.153,11.381,11.381,0,0,0-2.1-3.634A3.133,3.133,0,0,0,73.3,153.1a1.812,1.812,0,0,0-1.76.62,2.68,2.68,0,0,0-.414,1.891,5.953,5.953,0,0,0,.558,1.927,8.232,8.232,0,0,0,2.473,3.084,6.849,6.849,0,0,0,3.573,1.428,6.485,6.485,0,0,0,3.669-.792,5.986,5.986,0,0,0,2.519-2.643,3.9,3.9,0,0,0,.072-3.45,3.133,3.133,0,0,0-1.194-1.233,1.921,1.921,0,0,0-1.613-.19,2.064,2.064,0,0,0-1.111,1.172,3.519,3.519,0,0,0-.24,1.635,10.919,10.919,0,0,0,.939,3.167L82,162.7q1.221,2.919,2.409,5.567c3.148,7.058,6.015,12.622,8.043,16.439,1.019,1.906,1.827,3.377,2.379,4.372l.627,1.133c.14.255.206.39.206.39" transform="translate(-6.844 -17.336)" fill="#fff"/>
            <path id="Trazado_736032" data-name="Trazado 736032" d="M67.84,192.506a2.773,2.773,0,0,1-.434.04c-.285.012-.7.054-1.247.051a31.082,31.082,0,0,1-4.583-.271,33.281,33.281,0,0,1-14.091-5.29,33.367,33.367,0,0,1-6.276-5.492,32.958,32.958,0,0,1-3.978-5.529,31.027,31.027,0,0,1-1.995-4.136c-.208-.5-.329-.905-.426-1.173a2.83,2.83,0,0,1-.129-.417,2.7,2.7,0,0,1,.176.4c.113.262.249.66.471,1.153a34.524,34.524,0,0,0,2.059,4.083A33.516,33.516,0,0,0,61.6,192.147a34.446,34.446,0,0,0,4.56.351c.541.018.96-.009,1.246,0a2.8,2.8,0,0,1,.435.012" transform="translate(-3.934 -19.318)" fill="#263238"/>
            <path id="Trazado_736033" data-name="Trazado 736033" d="M33.178,162.646a13.164,13.164,0,0,1,.622,3.606,13.164,13.164,0,0,1-.622-3.606" transform="translate(-3.761 -18.451)" fill="#263238"/>
            <path id="Trazado_736034" data-name="Trazado 736034" d="M103.241,149.18a2.136,2.136,0,0,1-.1-.364c-.058-.264-.134-.613-.23-1.051q-.073-.346-.16-.76c-.067-.275-.161-.569-.25-.888-.191-.635-.362-1.371-.672-2.145l-.448-1.229c-.159-.426-.371-.85-.566-1.3-.371-.908-.887-1.819-1.4-2.793a33.979,33.979,0,0,0-9.437-10.64c-.9-.628-1.748-1.248-2.606-1.725-.423-.246-.819-.508-1.223-.717l-1.167-.59c-.732-.4-1.443-.659-2.05-.923-.307-.127-.587-.255-.853-.355l-.735-.249L80.33,123.1a2,2,0,0,1-.349-.14,2.122,2.122,0,0,1,.364.091l1.032.309.746.229c.269.093.553.215.864.336a22.057,22.057,0,0,1,2.076.893l1.181.581c.409.2.809.464,1.238.707.868.473,1.722,1.091,2.637,1.718a33.351,33.351,0,0,1,9.5,10.714c.513.983,1.025,1.9,1.391,2.822.191.455.4.883.555,1.314s.3.845.435,1.241a22.068,22.068,0,0,1,.639,2.169c.082.322.17.619.23.9s.1.535.138.768l.184,1.062a2,2,0,0,1,.046.372" transform="translate(-9.073 -13.949)" fill="#263238"/>
            <g id="Grupo_1033933" data-name="Grupo 1033933" transform="translate(31.638 116.339)" opacity="0.2">
              <g id="Grupo_1033932" data-name="Grupo 1033932">
                <g id="Grupo_1033931" data-name="Grupo 1033931" clip-path="url(#clip-path-11)">
                  <path id="Trazado_736035" data-name="Trazado 736035" d="M54.666,132.5a6.3,6.3,0,0,0-5.118-1.2,11.128,11.128,0,0,0-7.289,4.217c-5.329,6.708-7.331,12.854-6.32,21.761.342,3.017,1.857,7.584,4.3,9.616a5.746,5.746,0,0,0,4.388,1.372c4.122-.542,5.467-5.367,5.112-9.257-.332-3.626-1.517-7.365-.349-10.813.962-2.841,3.35-4.926,5.006-7.426s2.428-6.193.268-8.272" transform="translate(-35.686 -131.226)" fill="#fff"/>
                </g>
              </g>
            </g>
            <g id="Grupo_1033936" data-name="Grupo 1033936" transform="translate(54.782 109.703)" opacity="0.2">
              <g id="Grupo_1033935" data-name="Grupo 1033935">
                <g id="Grupo_1033934" data-name="Grupo 1033934" clip-path="url(#clip-path-12)">
                  <path id="Trazado_736036" data-name="Trazado 736036" d="M70.059,124.7a5.615,5.615,0,0,0-6.877.463,5.759,5.759,0,0,0-1.272,4.867,5.28,5.28,0,0,0,4.312,4.023,4.985,4.985,0,0,0,5.11-2.848c.831-1.922.411-5.262-1.273-6.5" transform="translate(-61.791 -123.74)" fill="#fff"/>
                </g>
              </g>
            </g>
            <path id="Trazado_736037" data-name="Trazado 736037" d="M90.025,221.314a9.651,9.651,0,0,1,2.574.831,2.077,2.077,0,0,0,1.822.057l5.709-2.506a2.1,2.1,0,0,0,1.23-1.546,3.9,3.9,0,0,1,1.285-2.375Z" transform="translate(-10.213 -24.478)" fill="#263238"/>
            <path id="Trazado_736038" data-name="Trazado 736038" d="M75.179,205.769c.051.115,5.29,8.453,7.295,11.64a4.589,4.589,0,0,0,3.778,2.2,4.233,4.233,0,0,0,1.782-.357l12.489-5.483s3.263-1.433,2.867-4.347c-.418-3.067-3.648-14.431-3.648-14.431Z" transform="translate(-8.529 -22.12)" fill="#e0e0e0"/>
            <path id="Trazado_736039" data-name="Trazado 736039" d="M104.4,209.349l-21.723,9.628a.676.676,0,0,1-.892-.344l-.029-.068a.674.674,0,0,1,.344-.891l21.722-9.628a.675.675,0,0,1,.892.344l.03.067a.676.676,0,0,1-.344.892" transform="translate(-9.268 -23.595)" fill="#e0e0e0"/>
            <path id="Trazado_736040" data-name="Trazado 736040" d="M104.386,209.343a.758.758,0,0,0,.333-.38.687.687,0,0,0-.065-.592.637.637,0,0,0-.689-.332c-1.188.5-2.926,1.315-5.068,2.267l-16.766,7.467a.562.562,0,0,0-.3.694.829.829,0,0,0,.137.253.563.563,0,0,0,.491.191,3.273,3.273,0,0,0,.577-.229l2.357-1.043,4.458-1.969,7.553-3.32,5.1-2.221,1.391-.593.364-.149a.611.611,0,0,1,.128-.043.561.561,0,0,1-.118.065l-.355.17-1.374.633L97.468,212.5l-7.533,3.365-4.452,1.981-2.356,1.046-.3.133a1.15,1.15,0,0,1-.342.114.794.794,0,0,1-.694-.268,1.06,1.06,0,0,1-.179-.329.789.789,0,0,1,.428-.98l16.793-7.405c2.159-.936,3.879-1.715,5.117-2.207a.714.714,0,0,1,.767.391.739.739,0,0,1,.046.639.6.6,0,0,1-.377.363" transform="translate(-9.253 -23.589)" fill="#263238"/>
            <path id="Trazado_736041" data-name="Trazado 736041" d="M103.411,205.951,80.768,215.987a.676.676,0,0,1-.892-.344l-.03-.067a.676.676,0,0,1,.344-.892l22.644-10.036a.675.675,0,0,1,.892.344l.03.067a.676.676,0,0,1-.344.892" transform="translate(-9.051 -23.209)" fill="#e0e0e0"/>
            <path id="Trazado_736042" data-name="Trazado 736042" d="M103.4,205.945a.747.747,0,0,0,.34-.4.713.713,0,0,0-.091-.612.641.641,0,0,0-.741-.277l-5.265,2.368-17.416,7.756a.561.561,0,0,0-.329.443.544.544,0,0,0,.036.281.682.682,0,0,0,.154.254.561.561,0,0,0,.525.147c.177-.058.409-.175.608-.259l2.449-1.083,4.631-2.045,7.846-3.45,5.3-2.308,1.444-.617.379-.155a.07.07,0,1,1,.01.022l-.369.176-1.427.657-5.269,2.374-7.826,3.5-4.625,2.058-2.448,1.086c-.217.09-.391.189-.647.273a.793.793,0,0,1-.741-.207.914.914,0,0,1-.2-.331.778.778,0,0,1-.052-.4.792.792,0,0,1,.465-.625l17.444-7.694c2.238-.978,4.038-1.77,5.3-2.305a.718.718,0,0,1,.827.328.763.763,0,0,1,.075.662.6.6,0,0,1-.384.383" transform="translate(-9.037 -23.204)" fill="#263238"/>
            <path id="Trazado_736043" data-name="Trazado 736043" d="M102.276,202.636l-23.23,10.3a.676.676,0,0,1-.892-.344l-.03-.067a.677.677,0,0,1,.345-.892l23.23-10.3a.675.675,0,0,1,.892.344l.03.067a.676.676,0,0,1-.344.892" transform="translate(-8.856 -22.833)" fill="#e0e0e0"/>
            <path id="Trazado_736044" data-name="Trazado 736044" d="M102.261,202.63a.737.737,0,0,0,.344-.41.722.722,0,0,0-.11-.623.636.636,0,0,0-.77-.238l-5.393,2.428L78.5,211.727a.561.561,0,0,0-.332.457.576.576,0,0,0,.046.288.644.644,0,0,0,.166.253.565.565,0,0,0,.545.118c.193-.078.421-.184.629-.275l2.507-1.109,4.74-2.093,8.033-3.534,5.424-2.364,1.479-.632.387-.159a.674.674,0,0,1,.135-.047.653.653,0,0,1-.126.068l-.378.18-1.462.672-5.393,2.43-8.014,3.578-4.735,2.106-2.505,1.113c-.218.094-.412.188-.652.284a.8.8,0,0,1-.769-.166.873.873,0,0,1-.223-.331.791.791,0,0,1,.4-1.048l17.859-7.879,5.426-2.363a.713.713,0,0,1,.861.284.773.773,0,0,1,.1.675.6.6,0,0,1-.388.4" transform="translate(-8.841 -22.828)" fill="#263238"/>
            <path id="Trazado_736045" data-name="Trazado 736045" d="M101.3,199.232,77.124,209.945a.675.675,0,0,1-.891-.344l-.03-.067a.676.676,0,0,1,.344-.892l24.172-10.713a.675.675,0,0,1,.892.344l.03.067a.676.676,0,0,1-.344.892" transform="translate(-8.638 -22.447)" fill="#e0e0e0"/>
            <path id="Trazado_736046" data-name="Trazado 736046" d="M101.282,199.227a.733.733,0,0,0,.35-.43.743.743,0,0,0-.141-.64.646.646,0,0,0-.818-.171l-5.6,2.52-18.5,8.235a.565.565,0,0,0-.333.479.7.7,0,0,0,.247.547.567.567,0,0,0,.575.066l.662-.293,2.6-1.151,4.917-2.172,8.333-3.666,5.625-2.453,1.534-.656.4-.166a.751.751,0,0,1,.14-.049.719.719,0,0,1-.13.071l-.392.186-1.517.7-5.6,2.52-8.312,3.711-4.912,2.184-2.6,1.154-.662.293a.8.8,0,0,1-.808-.093.817.817,0,0,1-.254-.334.829.829,0,0,1-.083-.41.8.8,0,0,1,.47-.676l18.525-8.173,5.625-2.453a.723.723,0,0,1,.91.212.79.79,0,0,1,.131.694.677.677,0,0,1-.261.352.46.46,0,0,1-.135.065" transform="translate(-8.623 -22.442)" fill="#263238"/>
            <path id="Trazado_736047" data-name="Trazado 736047" d="M67.816,198.267c.1.231,3.014,5.468,4.511,8.155a3.69,3.69,0,0,0,2.634,1.847l1.636.265,24.148-10.6.9-1.364a3.692,3.692,0,0,0,.411-3.226l-3-8.788Z" transform="translate(-7.693 -20.936)" fill="#ff725e"/>
            <g id="Grupo_1033939" data-name="Grupo 1033939" transform="translate(74.193 186.064)" opacity="0.3">
              <g id="Grupo_1033938" data-name="Grupo 1033938">
                <g id="Grupo_1033937" data-name="Grupo 1033937" clip-path="url(#clip-path-13)">
                  <path id="Trazado_736048" data-name="Trazado 736048" d="M83.687,218.779a34.363,34.363,0,0,0,7.443-2.6c2.058-.914,4.1-1.745,6.321-2.773,1.625-.754,3.1-1.5,4.7-2.287a4.917,4.917,0,0,0,1.72-1.246Z" transform="translate(-83.687 -209.873)"/>
                </g>
              </g>
            </g>
            <g id="Grupo_1033942" data-name="Grupo 1033942" transform="translate(72.094 182.93)" opacity="0.3">
              <g id="Grupo_1033941" data-name="Grupo 1033941">
                <g id="Grupo_1033940" data-name="Grupo 1033940" clip-path="url(#clip-path-14)">
                  <path id="Trazado_736049" data-name="Trazado 736049" d="M81.32,215.937a39.877,39.877,0,0,0,8-2.847c2.218-.985,4.422-1.885,6.814-2.989,1.752-.81,3.343-1.607,5.074-2.451a5.657,5.657,0,0,0,1.869-1.31Z" transform="translate(-81.32 -206.338)"/>
                </g>
              </g>
            </g>
            <g id="Grupo_1033945" data-name="Grupo 1033945" transform="translate(70.87 180.142)" opacity="0.3">
              <g id="Grupo_1033944" data-name="Grupo 1033944">
                <g id="Grupo_1033943" data-name="Grupo 1033943" clip-path="url(#clip-path-14)">
                  <path id="Trazado_736050" data-name="Trazado 736050" d="M79.939,212.792a39.912,39.912,0,0,0,8-2.847c2.218-.985,4.422-1.885,6.814-2.99,1.753-.809,3.343-1.606,5.075-2.45a5.625,5.625,0,0,0,1.868-1.311Z" transform="translate(-79.939 -203.193)"/>
                </g>
              </g>
            </g>
            <g id="Grupo_1033948" data-name="Grupo 1033948" transform="translate(69.646 177.354)" opacity="0.3">
              <g id="Grupo_1033947" data-name="Grupo 1033947">
                <g id="Grupo_1033946" data-name="Grupo 1033946" clip-path="url(#clip-path-16)">
                  <path id="Trazado_736051" data-name="Trazado 736051" d="M78.558,209.646a39.911,39.911,0,0,0,8-2.847c2.218-.985,4.422-1.885,6.814-2.99,1.753-.809,3.343-1.606,5.075-2.45a5.625,5.625,0,0,0,1.868-1.311Z" transform="translate(-78.558 -200.048)"/>
                </g>
              </g>
            </g>
            <g id="Grupo_1033951" data-name="Grupo 1033951" transform="translate(60.123 163.619)" opacity="0.3">
              <g id="Grupo_1033950" data-name="Grupo 1033950">
                <g id="Grupo_1033949" data-name="Grupo 1033949" clip-path="url(#clip-path-17)">
                  <path id="Trazado_736052" data-name="Trazado 736052" d="M67.816,198.267c.1.231,3.014,5.468,4.511,8.155a3.69,3.69,0,0,0,2.634,1.847l1.636.265,24.148-10.6.9-1.364a3.692,3.692,0,0,0,.411-3.226l-3-8.788Z" transform="translate(-67.816 -184.555)" fill="#ff9d00"/>
                </g>
              </g>
            </g>
            <path id="Trazado_736053" data-name="Trazado 736053" d="M102.654,196.072c.026.059-6.412,2.941-14.378,6.438S73.83,208.8,73.8,208.737s6.411-2.941,14.379-6.438,14.446-6.286,14.471-6.227" transform="translate(-8.373 -22.243)" fill="#263238"/>
            <path id="Trazado_736054" data-name="Trazado 736054" d="M98.774,184.459c.031.064-6.948,3.223-15.585,7.054s-15.667,6.889-15.7,6.826,6.947-3.222,15.587-7.055,15.665-6.889,15.7-6.825" transform="translate(-7.656 -20.925)" fill="#263238"/>
          </g>
        </g>
        <g id="Grupo_1033955" data-name="Grupo 1033955">
          <g id="Grupo_1033954" data-name="Grupo 1033954" clip-path="url(#clip-path)">
            <path id="Trazado_736055" data-name="Trazado 736055" d="M413.741,109.668l-11.076-1.293a35.607,35.607,0,1,1,7.178-10.546l.012-.016Z" transform="translate(-38.775 -5.428)" fill="#fff"/>
            <path id="Trazado_736056" data-name="Trazado 736056" d="M413.715,109.641s-.1-.27-.275-.784-.434-1.281-.77-2.271l-2.945-8.765.191.035-.012.016a.111.111,0,0,1-.156.018.113.113,0,0,1-.032-.132,35.545,35.545,0,0,0,2.878-17.275,34.891,34.891,0,0,0-.885-5.411,39.926,39.926,0,0,0-1.889-5.548A35.305,35.305,0,0,0,342.356,78.8a35.967,35.967,0,0,0,1.634,16.166,34.785,34.785,0,0,0,8.041,13.02,35.437,35.437,0,0,0,24.3,10.715l1.516.019a9.584,9.584,0,0,0,1.49-.047l2.9-.256a49.07,49.07,0,0,0,5.388-1.183,35.419,35.419,0,0,0,14.939-8.957.108.108,0,0,1,.088-.031l8.2,1.022,2.13.272c.481.063.738.1.738.1s-.227-.016-.7-.065l-2.106-.223-8.285-.9.087-.03a35.409,35.409,0,0,1-15,9.124,49.162,49.162,0,0,1-5.433,1.218l-2.929.271a9.671,9.671,0,0,1-1.505.053l-1.533-.013A35.78,35.78,0,0,1,351.705,108.3a35.178,35.178,0,0,1-8.169-13.18,36.4,36.4,0,0,1-1.672-16.388,35.572,35.572,0,0,1,6.3-16.055,15.886,15.886,0,0,1,1.312-1.722l1.374-1.664,1.517-1.521a14.778,14.778,0,0,1,1.567-1.45l1.642-1.354c.534-.465,1.158-.808,1.73-1.216.59-.383,1.153-.806,1.762-1.152l1.845-.99a35.274,35.274,0,0,1,15.644-3.99A35.892,35.892,0,0,1,403.1,58.629a35.528,35.528,0,0,1,7.068,10.743,40.228,40.228,0,0,1,1.887,5.614,35.007,35.007,0,0,1,.868,5.467,35.547,35.547,0,0,1-3.008,17.394l-.188-.115.012-.015a.11.11,0,0,1,.155-.018.114.114,0,0,1,.037.052l2.839,8.884c.31.984.548,1.733.714,2.257.158.5.227.748.227.748" transform="translate(-38.749 -5.401)" fill="#263238"/>
            <path id="Trazado_736057" data-name="Trazado 736057" d="M363.438,87.242l4.254-4.7,9.026,7.244,13.4-15.4,4.385,4.27-17.994,19.8Z" transform="translate(-41.229 -8.439)" fill="#7e5ee3"/>
            <path id="Trazado_736058" data-name="Trazado 736058" d="M312.593,114.334l7.027-.877a.092.092,0,0,1,.074.027,30.38,30.38,0,0,0,12.81,7.68,42.1,42.1,0,0,0,4.62,1.014l2.487.219a8.172,8.172,0,0,0,1.278.041l1.3-.017a30.274,30.274,0,0,0,13.526-3.659c-.277-.107-.553-.207-.828-.322a35.273,35.273,0,0,1-11.648-7.894,34.481,34.481,0,0,1-8.007-12.919,35.683,35.683,0,0,1-1.639-16.063,34.867,34.867,0,0,1,6.174-15.736,15.655,15.655,0,0,1,1.286-1.688l1.347-1.63.579-.581c-.332-.016-.664-.039-1-.043a30.282,30.282,0,0,0-28.51,18.369,34.258,34.258,0,0,0-1.621,4.757,29.894,29.894,0,0,0-.758,4.639,30.472,30.472,0,0,0,2.467,14.812.1.1,0,0,1-.027.113l-2.506,7.459c-.288.848-.507,1.5-.66,1.948s-.236.671-.236.671.22-.034.633-.088l1.826-.233" transform="translate(-35.183 -7.02)" fill="#f5f5f5"/>
            <path id="Trazado_736059" data-name="Trazado 736059" d="M312.584,114.306s-.206.044-.616.105l-1.835.267-.083.012.027-.082,3.341-10.1.036-.053c-.018-.008.005.058-.02,0l-.061-.145-.124-.29c-.081-.2-.161-.395-.244-.594-.163-.4-.312-.816-.464-1.239-.3-.848-.565-1.746-.8-2.684a30.07,30.07,0,0,1-.889-6.126,29,29,0,0,1,1.443-10.524,25.873,25.873,0,0,1,1.42-3.63A30.314,30.314,0,0,1,324.8,66.511a30.625,30.625,0,0,1,18.181-4.836l.5.028-.355.357-.579.581.014-.015A35.814,35.814,0,0,0,334.149,79.4a34.773,34.773,0,0,0,21.628,39.149l.432.165-.409.194a37.662,37.662,0,0,1-4.794,2.085,31.075,31.075,0,0,1-4.821,1.192,32.153,32.153,0,0,1-9.085.125h-.018c-1.021-.207-2.029-.376-3.005-.595a25.7,25.7,0,0,1-2.8-.82,30.935,30.935,0,0,1-4.859-2.188,30.354,30.354,0,0,1-6.756-5.15c-.012-.085-.2,0-.332,0l-.415.05-.793.093-1.434.168-2.247.259-1.382.15c-.312.031-.473.035-.473.035s.157-.035.466-.082l1.377-.194,2.243-.3,1.433-.189.792-.1.414-.054.212-.027a.5.5,0,0,1,.134-.009.18.18,0,0,1,.093.049l.04.039a30.5,30.5,0,0,0,17.36,8.56l-.018,0a38.037,38.037,0,0,0,4.37.24,29.692,29.692,0,0,0,4.628-.4,30.78,30.78,0,0,0,4.758-1.193,37.456,37.456,0,0,0,4.726-2.075l.023.359A35.146,35.146,0,0,1,333.7,79.313a36.206,36.206,0,0,1,8.522-16.975l.012-.013,0,0,.579-.581.149.385a30.148,30.148,0,0,0-28.91,17.255,25.523,25.523,0,0,0-1.416,3.578,28.725,28.725,0,0,0-1.476,10.406A29.872,29.872,0,0,0,312,99.438q.344,1.4.777,2.666c.148.421.293.834.451,1.232l.237.591.121.289.06.144c.029.026.058.217-.047.278l.036-.053c-1.567,4.59-2.732,8.031-3.465,10.06l-.057-.07,1.844-.216c.413-.044.623-.053.623-.053" transform="translate(-35.173 -6.991)" fill="#263238"/>
          </g>
        </g>
        <g id="Grupo_1033957" data-name="Grupo 1033957">
          <g id="Grupo_1033956" data-name="Grupo 1033956" clip-path="url(#clip-path)">
            <path id="Trazado_736060" data-name="Trazado 736060" d="M647.037,118.359H636.006a3.945,3.945,0,0,1-3.945-3.945v-60.3a3.945,3.945,0,0,1,3.945-3.945h11.031a3.945,3.945,0,0,1,3.945,3.945v60.3a3.945,3.945,0,0,1-3.945,3.945" transform="translate(-71.703 -5.691)" fill="#7e5ee3"/>
            <path id="Trazado_736061" data-name="Trazado 736061" d="M580.039,126.388H569.281a4.081,4.081,0,0,1-4.081-4.081V99.514a4.081,4.081,0,0,1,4.081-4.082h10.758a4.081,4.081,0,0,1,4.081,4.082v22.793a4.081,4.081,0,0,1-4.081,4.081" transform="translate(-64.118 -10.826)" fill="#7e5ee3"/>
            <path id="Trazado_736062" data-name="Trazado 736062" d="M612.739,124.234h-10.2a4.361,4.361,0,0,1-4.361-4.361V80.806a4.36,4.36,0,0,1,4.361-4.36h10.2a4.361,4.361,0,0,1,4.361,4.36v39.067a4.361,4.361,0,0,1-4.361,4.361" transform="translate(-67.859 -8.672)" fill="#7e5ee3"/>
            <path id="Trazado_736063" data-name="Trazado 736063" d="M635.883,24.754a3.356,3.356,0,0,1-.454.6c-.363.428-.827.978-1.4,1.658l-5.34,6.122L610.13,54.05l-.207.232-.262-.171-11.61-7.583.494-.073-.442.523c-9.565,11.219-18.221,21.376-24.553,28.8l-.162.191-.2-.148c-3.849-2.858-6.986-5.186-9.233-6.856l-2.488-1.894a6.043,6.043,0,0,1-.837-.7,5.9,5.9,0,0,1,.926.58l2.571,1.779c2.28,1.622,5.466,3.885,9.373,6.661l-.36.044,24.385-28.945.443-.522.216-.254.278.184L610.058,53.5l-.469.062,18.754-20.738,5.5-5.98c.613-.647,1.108-1.169,1.494-1.578a3.5,3.5,0,0,1,.548-.517" transform="translate(-63.6 -2.808)" fill="#263238"/>
            <path id="Trazado_736064" data-name="Trazado 736064" d="M644.211,39.028a25.186,25.186,0,0,1-.263-4.35c-.068-2.692-.111-6.419-.114-10.554l.438.372-.376.062c-4.166.687-7.943,1.268-10.684,1.651a26.324,26.324,0,0,1-4.46.466,26.389,26.389,0,0,1,4.373-.992c2.718-.518,6.483-1.182,10.648-1.869l.376-.062.439-.072v.443c0,4.135-.045,7.861-.114,10.554a25.463,25.463,0,0,1-.263,4.35" transform="translate(-71.327 -2.686)" fill="#263238"/>
          </g>
        </g>
      </g>
    </g>
  </g>
</svg>
